<svg xmlns="http://www.w3.org/2000/svg" viewBox="0 0 753.5 753.72"><defs><style>.cls-1{fill:#fff;}.cls-2{fill:#3d17ff;}.cls-3{fill:#ffffc3;}.cls-4{fill:#00324a;}.cls-5{fill:#bdd6d8;}.cls-6{fill:#5f6ff6;}.cls-7{fill:#62cec0;}.cls-8{fill:#00ffbe;}.cls-9{fill:#f7d351;}</style></defs><title>1</title><g id="Capa_2" data-name="Capa 2"><g id="Layer_1" data-name="Layer 1"><path class="cls-1" d="M340.61,421.34V425h-10v-3.68h3.08v-7.85a4.9,4.9,0,0,1-1.57,1.21,4.34,4.34,0,0,1-2,.66v-3.77a2.61,2.61,0,0,0,1-.21,5.4,5.4,0,0,0,1-.49c.29-.19.57-.39.82-.59l.6-.52.24-.24h4.2v11.8Z"/><path class="cls-1" d="M342.7,425v-4H346v4Z"/><path class="cls-1" d="M353.54,425.21a7,7,0,0,1-3.05-.64,4.8,4.8,0,0,1-2.08-1.78l2.25-2.6a4.65,4.65,0,0,0,1.39,1,3.36,3.36,0,0,0,1.51.39,1.75,1.75,0,0,0,1.25-.44,1.51,1.51,0,0,0,.46-1.16,1.63,1.63,0,0,0-.41-1.15,1.44,1.44,0,0,0-1.08-.44,1.71,1.71,0,0,0-.83.21,1.5,1.5,0,0,0-.59.55h-3.52l1.82-9.57h7.71v3.75h-4.75l-.23,1.67a3.26,3.26,0,0,1,1-.11,5,5,0,0,1,3.68,1.4,4.78,4.78,0,0,1,1.43,3.6,4.87,4.87,0,0,1-1.65,3.81A6.25,6.25,0,0,1,353.54,425.21Z"/><path class="cls-1" d="M362.64,415.27a3.19,3.19,0,0,1,0-4.85,4.24,4.24,0,0,1,5.47,0,3.19,3.19,0,0,1,0,4.85,4.24,4.24,0,0,1-5.47,0Zm.7,8.34,6.13-6.9,5.43-7.31,1.8,1.63-5.87,6.69-5.69,7.51Zm2.76-9.73a1.88,1.88,0,0,0,0-2.07.86.86,0,0,0-.73-.43.89.89,0,0,0-.73.43,1.94,1.94,0,0,0,0,2.07.9.9,0,0,0,.73.44A.87.87,0,0,0,366.1,413.88Zm5.83,10.36a3.19,3.19,0,0,1,0-4.85,4.25,4.25,0,0,1,5.48,0,3.2,3.2,0,0,1,0,4.85,4.29,4.29,0,0,1-5.48,0Zm3.47-1.39a1.88,1.88,0,0,0,0-2.07.83.83,0,0,0-1.46,0,1.83,1.83,0,0,0,0,2.07.83.83,0,0,0,1.46,0Z"/><path class="cls-1" d="M368.81,469.12a7.8,7.8,0,0,1-5.27-1.73l2.11-3a4.65,4.65,0,0,0,2.94.95,3,3,0,0,0,1.61-.34,1.19,1.19,0,0,0,.51-1.07,1.25,1.25,0,0,0-.65-1.18,4.64,4.64,0,0,0-2.12-.36h-.67v-2.86H368a3,3,0,0,0,1.66-.41,1.23,1.23,0,0,0,.63-1.08,1,1,0,0,0-.37-.82,1.64,1.64,0,0,0-1-.29,3.06,3.06,0,0,0-2.59,1.52l-2.6-3.06a5.45,5.45,0,0,1,2.34-1.4,10.09,10.09,0,0,1,3.32-.54,6.53,6.53,0,0,1,3.88,1,3.22,3.22,0,0,1,1.47,2.76,3.58,3.58,0,0,1-.79,2.29,3.34,3.34,0,0,1-2,1.24,3.42,3.42,0,0,1,2.19,1.32,4.08,4.08,0,0,1,.85,2.57,3.79,3.79,0,0,1-1.66,3.24A7.61,7.61,0,0,1,368.81,469.12Z"/><path class="cls-1" d="M377.46,469v-4h3.35v4Z"/><path class="cls-1" d="M384.75,462.53a4.75,4.75,0,0,1-1.54-3.6,5.08,5.08,0,0,1,1.65-3.85,5.71,5.71,0,0,1,4.1-1.57,5,5,0,0,1,4.28,2,9.05,9.05,0,0,1,1.51,5.58,9.72,9.72,0,0,1-1.64,6,5.39,5.39,0,0,1-4.55,2.17,6.69,6.69,0,0,1-4.89-2.07l2.27-2.65a3.71,3.71,0,0,0,2.69,1.18,2.21,2.21,0,0,0,1.67-.65,2.71,2.71,0,0,0,.66-1.81,3.34,3.34,0,0,1-2.33.74A5.46,5.46,0,0,1,384.75,462.53Zm5.5-5a1.69,1.69,0,0,0-2.57,0,2,2,0,0,0-.56,1.39,1.76,1.76,0,0,0,.54,1.29,1.87,1.87,0,0,0,2.61,0,1.77,1.77,0,0,0,.55-1.29A2,2,0,0,0,390.25,457.54Z"/><path class="cls-1" d="M398,459.27a3.16,3.16,0,0,1-1.11-2.43,3.13,3.13,0,0,1,1.11-2.42,4.25,4.25,0,0,1,5.48,0,3.14,3.14,0,0,1,1.12,2.42,3.17,3.17,0,0,1-1.12,2.43,4.25,4.25,0,0,1-5.48,0Zm.71,8.34,6.12-6.91,5.44-7.31L412,455l-5.87,6.7-5.7,7.51Zm2.76-9.73a1.79,1.79,0,0,0,.3-1,1.76,1.76,0,0,0-.3-1,.9.9,0,0,0-.73-.44.87.87,0,0,0-.73.44,1.7,1.7,0,0,0-.31,1,1.73,1.73,0,0,0,.31,1,.86.86,0,0,0,.73.43A.89.89,0,0,0,401.44,457.88Zm5.83,10.35a3.16,3.16,0,0,1,0-4.84,4.24,4.24,0,0,1,5.47,0,3.19,3.19,0,0,1,0,4.84,4.24,4.24,0,0,1-5.47,0Zm3.46-1.38a1.73,1.73,0,0,0,.31-1,1.7,1.7,0,0,0-.31-1,.87.87,0,0,0-.73-.44.9.9,0,0,0-.73.44,1.7,1.7,0,0,0-.31,1,1.73,1.73,0,0,0,.31,1,.89.89,0,0,0,.73.43A.86.86,0,0,0,410.73,466.85Z"/><path class="cls-1" d="M403.39,509.57a7.14,7.14,0,0,1-3.05-.64,4.88,4.88,0,0,1-2.08-1.79l2.25-2.6a4.68,4.68,0,0,0,1.39,1,3.48,3.48,0,0,0,1.51.38,1.79,1.79,0,0,0,1.25-.43,1.52,1.52,0,0,0,.46-1.17,1.65,1.65,0,0,0-.41-1.15,1.43,1.43,0,0,0-1.08-.43,1.7,1.7,0,0,0-.83.2,1.45,1.45,0,0,0-.59.56h-3.52l1.82-9.58h7.71v3.75h-4.75l-.23,1.67a3.26,3.26,0,0,1,1-.11,5,5,0,0,1,3.68,1.4,4.79,4.79,0,0,1,1.43,3.61,4.87,4.87,0,0,1-1.65,3.81A6.25,6.25,0,0,1,403.39,509.57Z"/><path class="cls-1" d="M411.73,509.37v-4h3.35v4Z"/><path class="cls-1" d="M422.57,509.57a7.14,7.14,0,0,1-3.05-.64,4.88,4.88,0,0,1-2.08-1.79l2.25-2.6a4.68,4.68,0,0,0,1.39,1,3.48,3.48,0,0,0,1.51.38,1.77,1.77,0,0,0,1.25-.43,1.52,1.52,0,0,0,.46-1.17,1.61,1.61,0,0,0-.41-1.15,1.42,1.42,0,0,0-1.08-.43,1.7,1.7,0,0,0-.83.2,1.45,1.45,0,0,0-.59.56h-3.52l1.82-9.58h7.71v3.75h-4.75l-.23,1.67a3.26,3.26,0,0,1,1-.11,5,5,0,0,1,3.68,1.4,4.79,4.79,0,0,1,1.43,3.61,4.87,4.87,0,0,1-1.65,3.81A6.25,6.25,0,0,1,422.57,509.57Z"/><path class="cls-1" d="M431.67,499.63a3.21,3.21,0,0,1,0-4.86,4.25,4.25,0,0,1,5.48,0,3.2,3.2,0,0,1,0,4.86,4.25,4.25,0,0,1-5.48,0Zm.71,8.34,6.12-6.91,5.44-7.31,1.79,1.63-5.87,6.7-5.69,7.51Zm2.76-9.73a2,2,0,0,0,0-2.08.89.89,0,0,0-.73-.43.86.86,0,0,0-.73.43,1.9,1.9,0,0,0,0,2.08.86.86,0,0,0,.73.43A.89.89,0,0,0,435.14,498.24ZM441,508.59a3.14,3.14,0,0,1-1.12-2.42,3.17,3.17,0,0,1,1.12-2.43,4.25,4.25,0,0,1,5.48,0,3.16,3.16,0,0,1,1.11,2.43,3.13,3.13,0,0,1-1.11,2.42,4.25,4.25,0,0,1-5.48,0Zm3.47-1.38a1.9,1.9,0,0,0,0-2.08.86.86,0,0,0-.73-.43.89.89,0,0,0-.73.43,1.9,1.9,0,0,0,0,2.08.89.89,0,0,0,.73.43A.86.86,0,0,0,444.43,507.21Z"/><path class="cls-1" d="M439.31,538.19a4.71,4.71,0,0,1,1.54,3.6,5.1,5.1,0,0,1-1.65,3.85,5.69,5.69,0,0,1-4.1,1.57,5.06,5.06,0,0,1-4.27-2,9.06,9.06,0,0,1-1.52-5.59,9.67,9.67,0,0,1,1.65-6,5.39,5.39,0,0,1,4.55-2.17,6.69,6.69,0,0,1,4.89,2.07l-2.28,2.65a3.67,3.67,0,0,0-2.68-1.17,2.19,2.19,0,0,0-1.67.65,2.72,2.72,0,0,0-.67,1.8,3.39,3.39,0,0,1,2.34-.74A5.46,5.46,0,0,1,439.31,538.19Zm-5.5,5a1.73,1.73,0,0,0,1.29.59,1.71,1.71,0,0,0,1.28-.59,2,2,0,0,0,.56-1.39,1.73,1.73,0,0,0-.54-1.29,1.86,1.86,0,0,0-2.6,0,1.73,1.73,0,0,0-.54,1.29A2,2,0,0,0,433.81,543.18Z"/><path class="cls-1" d="M443.28,547v-4h3.34v4Z"/><path class="cls-1" d="M454.54,535.34h-5.87V531.6H461L453.5,547h-4.66Z"/><path class="cls-1" d="M463.21,537.25a3.21,3.21,0,0,1,0-4.86,4.25,4.25,0,0,1,5.48,0,3.2,3.2,0,0,1,0,4.86,4.25,4.25,0,0,1-5.48,0Zm.71,8.34,6.12-6.91,5.44-7.31,1.8,1.63-5.87,6.7-5.69,7.51Zm2.76-9.73a1.9,1.9,0,0,0,0-2.08.91.91,0,0,0-.73-.43.9.9,0,0,0-.73.43,1.9,1.9,0,0,0,0,2.08.87.87,0,0,0,.73.43A.89.89,0,0,0,466.68,535.86Zm5.83,10.35a3.1,3.1,0,0,1-1.12-2.42,3.14,3.14,0,0,1,1.12-2.43,4.24,4.24,0,0,1,5.47,0,3.14,3.14,0,0,1,1.12,2.43,3.1,3.1,0,0,1-1.12,2.42,4.24,4.24,0,0,1-5.47,0Zm3.47-1.38a2,2,0,0,0,0-2.08.84.84,0,0,0-1.47,0,1.9,1.9,0,0,0,0,2.08.84.84,0,0,0,1.47,0Z"/><path class="cls-1" d="M469.31,572.33h-5.88v-3.74h12.35L468.26,584H463.6Z"/><path class="cls-1" d="M476.23,584v-4h3.34v4Z"/><path class="cls-1" d="M482,576.41a8.55,8.55,0,0,1,1.22-4.35,8.43,8.43,0,0,1,1.42-1.77,6.47,6.47,0,0,1,2-1.23,6.34,6.34,0,0,1,2.38-.45,6.24,6.24,0,0,1,2.48.49,6,6,0,0,1,2,1.29,8.35,8.35,0,0,1,1.39,1.82,8.61,8.61,0,0,1,.86,2.1,8.09,8.09,0,0,1,.28,2.1,8.55,8.55,0,0,1-1.22,4.36,8.53,8.53,0,0,1-1.43,1.77,6.23,6.23,0,0,1-1.95,1.21,6.34,6.34,0,0,1-2.38.45,6.42,6.42,0,0,1-2.49-.48,6,6,0,0,1-1.95-1.26,8.57,8.57,0,0,1-2.25-3.91A8.39,8.39,0,0,1,482,576.41Zm7,4.05a2.09,2.09,0,0,0,1.25-.39,2.47,2.47,0,0,0,.84-1,6.07,6.07,0,0,0,.45-1.3,6.3,6.3,0,0,0,.15-1.36,6.74,6.74,0,0,0-.16-1.43,5.89,5.89,0,0,0-.47-1.3,2.55,2.55,0,0,0-.85-1,2.13,2.13,0,0,0-1.21-.37,2.09,2.09,0,0,0-1.25.39,2.43,2.43,0,0,0-.84,1,5.8,5.8,0,0,0-.45,1.29,6.32,6.32,0,0,0-.15,1.37,6.15,6.15,0,0,0,.16,1.43,5.07,5.07,0,0,0,.46,1.29,2.44,2.44,0,0,0,.84,1A2.1,2.1,0,0,0,488.92,580.46Z"/><path class="cls-1" d="M499,574.24a3.19,3.19,0,0,1,0-4.85,3.91,3.91,0,0,1,2.73-1,4,4,0,0,1,2.74,1,3.19,3.19,0,0,1,0,4.85,4,4,0,0,1-2.74,1A3.91,3.91,0,0,1,499,574.24Zm.7,8.34,6.13-6.9,5.43-7.31,1.8,1.63-5.87,6.69-5.69,7.51Zm2.76-9.73a1.88,1.88,0,0,0,0-2.07.89.89,0,0,0-.73-.44.9.9,0,0,0-.73.44,1.94,1.94,0,0,0,0,2.07.9.9,0,0,0,.73.44A.89.89,0,0,0,502.49,572.85Zm5.83,10.36a3.19,3.19,0,0,1,0-4.85,4,4,0,0,1,2.74-1,3.91,3.91,0,0,1,2.73,1,3.19,3.19,0,0,1,0,4.85,4,4,0,0,1-2.73,1A4,4,0,0,1,508.32,583.21Zm3.47-1.39a1.88,1.88,0,0,0,0-2.07.83.83,0,0,0-1.46,0,1.83,1.83,0,0,0,0,2.07.83.83,0,0,0,1.46,0Z"/><path class="cls-1" d="M495.83,618.42v3.68h-10v-3.68h3.07v-7.85a4.93,4.93,0,0,1-1.57,1.21,4.27,4.27,0,0,1-2,.66v-3.78a2.58,2.58,0,0,0,1-.2,5.77,5.77,0,0,0,1-.49c.29-.19.56-.39.82-.6s.45-.37.6-.51a1.57,1.57,0,0,0,.23-.25h4.2v11.81Z"/><path class="cls-1" d="M497.61,614.51a8.09,8.09,0,0,1,.31-2.22,8.28,8.28,0,0,1,.91-2.12,8,8,0,0,1,1.43-1.77,6.23,6.23,0,0,1,1.94-1.23,6.34,6.34,0,0,1,2.38-.45,6.32,6.32,0,0,1,4.45,1.77,8.66,8.66,0,0,1,1.39,1.83,8.32,8.32,0,0,1,.86,2.09,8.2,8.2,0,0,1,.28,2.1,8.7,8.7,0,0,1-.3,2.25,8.46,8.46,0,0,1-.92,2.12,8.16,8.16,0,0,1-1.43,1.76,6.26,6.26,0,0,1-2,1.22,6.58,6.58,0,0,1-4.86,0,5.93,5.93,0,0,1-2-1.27,8.29,8.29,0,0,1-1.39-1.81,8.78,8.78,0,0,1-.86-2.09A8.94,8.94,0,0,1,497.61,614.51Zm7,4a2.13,2.13,0,0,0,1.26-.38,2.59,2.59,0,0,0,.84-1,6.25,6.25,0,0,0,.59-2.66,6.12,6.12,0,0,0-.16-1.42,5.43,5.43,0,0,0-.47-1.3,2.55,2.55,0,0,0-.85-1,2,2,0,0,0-1.21-.37,2.09,2.09,0,0,0-1.25.39,2.64,2.64,0,0,0-.84,1,6.07,6.07,0,0,0-.45,1.3,6.22,6.22,0,0,0-.14,1.36,6.83,6.83,0,0,0,.15,1.44,5.07,5.07,0,0,0,.46,1.29,2.53,2.53,0,0,0,.84,1A2.17,2.17,0,0,0,504.58,618.56Z"/><path class="cls-1" d="M513.94,622.1v-4h3.34v4Z"/><path class="cls-1" d="M529.74,613.29a4.71,4.71,0,0,1,1.54,3.6,5.08,5.08,0,0,1-1.65,3.85,5.69,5.69,0,0,1-4.1,1.57,5,5,0,0,1-4.27-2,9.05,9.05,0,0,1-1.52-5.58,9.68,9.68,0,0,1,1.65-6,5.42,5.42,0,0,1,4.55-2.17,6.69,6.69,0,0,1,4.89,2.07l-2.28,2.65a3.67,3.67,0,0,0-2.68-1.17,2.19,2.19,0,0,0-1.67.65,2.72,2.72,0,0,0-.67,1.8,3.39,3.39,0,0,1,2.34-.74A5.46,5.46,0,0,1,529.74,613.29Zm-5.5,5a1.73,1.73,0,0,0,1.29.59,1.71,1.71,0,0,0,1.28-.59,1.94,1.94,0,0,0,.56-1.39,1.76,1.76,0,0,0-.54-1.29,1.86,1.86,0,0,0-2.6,0,1.76,1.76,0,0,0-.54,1.29A2,2,0,0,0,524.24,618.28Z"/><path class="cls-1" d="M534.46,612.35a3.21,3.21,0,0,1,0-4.86,4.29,4.29,0,0,1,5.48,0,3.2,3.2,0,0,1,0,4.86,4.25,4.25,0,0,1-5.48,0Zm.71,8.34,6.12-6.91,5.44-7.31,1.8,1.63-5.87,6.7L537,622.31Zm2.76-9.73a1.79,1.79,0,0,0,.3-1,1.76,1.76,0,0,0-.3-1,.9.9,0,0,0-.73-.44.89.89,0,0,0-.73.44,1.7,1.7,0,0,0-.31,1,1.73,1.73,0,0,0,.31,1,.87.87,0,0,0,.73.43A.89.89,0,0,0,537.93,611Zm5.83,10.35a3.1,3.1,0,0,1-1.12-2.42,3.14,3.14,0,0,1,1.12-2.43,4.27,4.27,0,0,1,5.47,0,3.17,3.17,0,0,1,1.12,2.43,3.14,3.14,0,0,1-1.12,2.42,4.24,4.24,0,0,1-5.47,0Zm3.47-1.38a1.79,1.79,0,0,0,.3-1,1.74,1.74,0,0,0-.3-1,.83.83,0,0,0-1.47,0,1.68,1.68,0,0,0-.31,1,1.73,1.73,0,0,0,.31,1,.84.84,0,0,0,1.47,0Z"/><path class="cls-1" d="M532.7,657.9v3.68h-10V657.9h3.08v-7.85a4.79,4.79,0,0,1-1.57,1.21,4.31,4.31,0,0,1-2,.66v-3.78a2.53,2.53,0,0,0,1-.2,5.87,5.87,0,0,0,1-.49c.29-.19.56-.39.82-.6a7.54,7.54,0,0,0,.59-.51,1.38,1.38,0,0,0,.24-.25H530V657.9Z"/><path class="cls-1" d="M540.37,649.92H534.5v-3.74h12.34l-7.52,15.38h-4.65Z"/><path class="cls-1" d="M547.29,661.58v-4h3.34v4Z"/><path class="cls-1" d="M563.1,652.77a4.76,4.76,0,0,1,1.54,3.6,5.08,5.08,0,0,1-1.65,3.85,5.71,5.71,0,0,1-4.1,1.57,5.06,5.06,0,0,1-4.28-2,9,9,0,0,1-1.51-5.58,9.63,9.63,0,0,1,1.65-6,5.4,5.4,0,0,1,4.55-2.18,6.72,6.72,0,0,1,4.89,2.07l-2.28,2.65a3.66,3.66,0,0,0-2.69-1.16,2.2,2.2,0,0,0-1.67.64,2.66,2.66,0,0,0-.66,1.8,3.39,3.39,0,0,1,2.33-.74A5.46,5.46,0,0,1,563.1,652.77Zm-5.5,5a1.69,1.69,0,0,0,2.57,0,2,2,0,0,0,.56-1.39,1.76,1.76,0,0,0-.54-1.29,1.87,1.87,0,0,0-2.61,0,1.79,1.79,0,0,0-.53,1.29A2,2,0,0,0,557.6,657.76Z"/><path class="cls-1" d="M567.82,651.83a3.19,3.19,0,0,1,0-4.85,4.24,4.24,0,0,1,5.47,0,3.17,3.17,0,0,1,0,4.85,4.24,4.24,0,0,1-5.47,0Zm.7,8.34,6.13-6.91,5.43-7.3,1.8,1.62-5.87,6.7-5.69,7.51Zm2.76-9.73a1.88,1.88,0,0,0,0-2.07.87.87,0,0,0-.73-.44.9.9,0,0,0-.73.44,1.94,1.94,0,0,0,0,2.07.89.89,0,0,0,.73.43A.86.86,0,0,0,571.28,650.44Zm5.83,10.36a3.19,3.19,0,0,1,0-4.85,4.25,4.25,0,0,1,5.48,0,3.2,3.2,0,0,1,0,4.85,4.29,4.29,0,0,1-5.48,0Zm3.47-1.39a1.73,1.73,0,0,0,.31-1,1.7,1.7,0,0,0-.31-1,.89.89,0,0,0-.73-.44.9.9,0,0,0-.73.44,1.7,1.7,0,0,0-.31,1,1.73,1.73,0,0,0,.31,1,.89.89,0,0,0,.73.43A.87.87,0,0,0,580.58,659.41Z"/><path class="cls-1" d="M562.18,699.16v-2.95h-5.57v-3.68l6.86-8.75h2.83v8.75h1.9v3.68h-1.9v2.95Zm-1.52-6.63h2v-2.59Z"/><path class="cls-1" d="M576.19,687.53h-5.87v-3.75h12.34l-7.52,15.38h-4.65Z"/><path class="cls-1" d="M583.11,699.18v-4h3.34v4Z"/><path class="cls-1" d="M593.73,699.29a7.81,7.81,0,0,1-5.27-1.74l2.11-3a4.65,4.65,0,0,0,2.94.95,2.94,2.94,0,0,0,1.61-.34,1.18,1.18,0,0,0,.52-1.06,1.24,1.24,0,0,0-.66-1.18,4.49,4.49,0,0,0-2.12-.37h-.67v-2.85H593a3,3,0,0,0,1.66-.41,1.24,1.24,0,0,0,.63-1.09,1,1,0,0,0-.37-.82,1.64,1.64,0,0,0-1-.29,3,3,0,0,0-2.58,1.53l-2.61-3.06a5.37,5.37,0,0,1,2.34-1.41,10.09,10.09,0,0,1,3.32-.54,6.53,6.53,0,0,1,3.88,1,3.25,3.25,0,0,1,1.48,2.76,3.62,3.62,0,0,1-.8,2.3,3.28,3.28,0,0,1-2,1.23,3.5,3.5,0,0,1,2.19,1.32,4.08,4.08,0,0,1,.85,2.58,3.76,3.76,0,0,1-1.66,3.23A7.59,7.59,0,0,1,593.73,699.29Z"/><path class="cls-1" d="M603.14,689.43A3.13,3.13,0,0,1,602,687a3.16,3.16,0,0,1,1.11-2.43,4.25,4.25,0,0,1,5.48,0,3.17,3.17,0,0,1,1.12,2.43,3.14,3.14,0,0,1-1.12,2.42,4.25,4.25,0,0,1-5.48,0Zm.71,8.35,6.12-6.91,5.44-7.31,1.79,1.63-5.87,6.69-5.69,7.51Zm2.76-9.74a1.76,1.76,0,0,0,.3-1,1.79,1.79,0,0,0-.3-1,.89.89,0,0,0-.73-.43.86.86,0,0,0-.73.43,1.73,1.73,0,0,0-.31,1,1.7,1.7,0,0,0,.31,1,.87.87,0,0,0,.73.44A.9.9,0,0,0,606.61,688Zm5.82,10.36a3.14,3.14,0,0,1-1.12-2.42,3.17,3.17,0,0,1,1.12-2.43,4.25,4.25,0,0,1,5.48,0A3.16,3.16,0,0,1,619,696a3.13,3.13,0,0,1-1.11,2.42,4.29,4.29,0,0,1-5.48,0ZM615.9,697a1.7,1.7,0,0,0,.31-1,1.73,1.73,0,0,0-.31-1,.86.86,0,0,0-.73-.43.89.89,0,0,0-.73.43,1.73,1.73,0,0,0-.31,1,1.7,1.7,0,0,0,.31,1,.9.9,0,0,0,.73.44A.87.87,0,0,0,615.9,697Z"/><path class="cls-1" d="M394.26,412.28a.56.56,0,0,1-.33-1,36.84,36.84,0,1,0-58.49-29.82.56.56,0,1,1-1.12,0,38,38,0,1,1,60.27,30.73A.56.56,0,0,1,394.26,412.28Z"/><path class="cls-1" d="M344.29,462.18a.58.58,0,0,1-.19,0,85.73,85.73,0,1,1,88.8-20.36.57.57,0,0,1-.79,0,.57.57,0,0,1,0-.8,84.59,84.59,0,1,0-87.64,20.11.56.56,0,0,1,.34.71A.55.55,0,0,1,344.29,462.18Z"/><path class="cls-2" d="M431.85,451.36a9.49,9.49,0,0,1-6.65-16.26,76.44,76.44,0,0,0,11.83-15,9.49,9.49,0,1,1,16.26,9.8,94.82,94.82,0,0,1-14.79,18.72A9.49,9.49,0,0,1,431.85,451.36Z"/><path class="cls-1" d="M372.28,514.93c-73.6,0-133.48-59.87-133.48-133.47S298.68,248,372.28,248s133.48,59.88,133.48,133.48a132.6,132.6,0,0,1-39.09,94.38.56.56,0,1,1-.79-.79,132.36,132.36,0,0,0-93.6-225.95c-73,0-132.36,59.37-132.36,132.36S299.3,513.82,372.28,513.82c3.1,0,6.22-.11,9.28-.32a.55.55,0,0,1,.59.52.56.56,0,0,1-.52.59C378.55,514.83,375.4,514.93,372.28,514.93Z"/><path class="cls-3" d="M465.3,485.7a9.49,9.49,0,0,1-6.65-16.26,123,123,0,0,0,25.08-35.2,9.49,9.49,0,1,1,17.16,8.12A142.06,142.06,0,0,1,472,483,9.47,9.47,0,0,1,465.3,485.7Z"/><path class="cls-1" d="M372.28,562.69c-99.93,0-181.23-81.3-181.23-181.23s81.3-181.24,181.23-181.24,181.24,81.3,181.24,181.24A180,180,0,0,1,500.2,509.84a.54.54,0,0,1-.78,0,.56.56,0,0,1,0-.79,179,179,0,0,0,53-127.59c0-99.32-80.8-180.12-180.12-180.12s-180.12,80.8-180.12,180.12S273,561.57,372.28,561.57A181.11,181.11,0,0,0,412.7,557a.56.56,0,1,1,.25,1.09A182.24,182.24,0,0,1,372.28,562.69Z"/><path class="cls-4" d="M498.76,519.76a9.49,9.49,0,0,1-6.65-16.26,169.82,169.82,0,0,0,39.52-59.82,9.49,9.49,0,0,1,17.69,6.9A188.76,188.76,0,0,1,505.42,517,9.45,9.45,0,0,1,498.76,519.76Z"/><path class="cls-1" d="M372.28,611.08a229.62,229.62,0,1,1,162.37-67.25.57.57,0,0,1-.79,0,.56.56,0,0,1,0-.79,227.7,227.7,0,1,0-87.44,54.63.56.56,0,0,1,.36,1.06A229.45,229.45,0,0,1,372.28,611.08Z"/><path class="cls-5" d="M532.67,554.28A9.5,9.5,0,0,1,526,538a217.5,217.5,0,0,0,52.47-81.45,9.49,9.49,0,1,1,17.84,6.49,236.42,236.42,0,0,1-57,88.5A9.44,9.44,0,0,1,532.67,554.28Z"/><path class="cls-1" d="M372.28,658.21A276.76,276.76,0,1,1,568,577.15a.56.56,0,0,1-.79,0,.57.57,0,0,1,0-.79,274.77,274.77,0,1,0-91.26,60.58.56.56,0,0,1,.42,1A275.35,275.35,0,0,1,372.28,658.21Z"/><path class="cls-1" d="M634.83,645.14a.56.56,0,0,1-.4-.95c1.94-1.94,3.88-3.92,5.77-5.88a.56.56,0,1,1,.8.77c-1.89,2-3.83,4-5.78,5.9A.54.54,0,0,1,634.83,645.14Z"/><path class="cls-1" d="M372.3,706A324.51,324.51,0,0,1,142.83,152,324.51,324.51,0,0,1,606.54,606a.56.56,0,1,1-.8-.77,322.54,322.54,0,1,0-99.39,70.58.56.56,0,0,1,.46,1A321.93,321.93,0,0,1,372.3,706Z"/><path class="cls-6" d="M599.48,621.85a9.49,9.49,0,0,1-6.65-16.26,314.61,314.61,0,0,0,78.94-321.14,9.49,9.49,0,1,1,18.07-5.82,333.59,333.59,0,0,1-83.7,340.5A9.45,9.45,0,0,1,599.48,621.85Z"/><path class="cls-1" d="M372.28,753.72A372.39,372.39,0,0,1,227.37,38.41,372.28,372.28,0,0,1,633.31,646.87a.54.54,0,0,1-.78,0,.56.56,0,0,1,0-.79,370.08,370.08,0,1,0-95.48,68,.56.56,0,1,1,.49,1A368.55,368.55,0,0,1,372.28,753.72Z"/><path class="cls-7" d="M632.81,655.85a9.49,9.49,0,0,1-6.65-16.26A362.27,362.27,0,0,0,165.33,83.85a9.49,9.49,0,0,1-10.87-15.57,381.22,381.22,0,0,1,485,584.85A9.44,9.44,0,0,1,632.81,655.85Z"/><path class="cls-8" d="M398.31,417.55a9.49,9.49,0,0,1-6.65-16.26,27.54,27.54,0,0,0,1.94-2.11,9.49,9.49,0,0,1,14.61,12.12c-1,1.22-2.11,2.41-3.25,3.53A9.49,9.49,0,0,1,398.31,417.55Z"/><path class="cls-9" d="M568.56,583.46a9.49,9.49,0,0,1-6.74-16.18A263.17,263.17,0,0,0,637.2,410.64a9.5,9.5,0,1,1,18.87,2.17,283.66,283.66,0,0,1-80.78,167.84A9.44,9.44,0,0,1,568.56,583.46Z"/></g></g></svg>