<svg xmlns="http://www.w3.org/2000/svg" viewBox="0 0 670.63 671.14"><defs><style>.cls-1{fill:#fff;}.cls-2{fill:#8bffcf;}.cls-3{fill:#3d17ff;}.cls-4{fill:#ffffc3;}.cls-5{fill:#00324a;}.cls-6{fill:#bdd6d8;}.cls-7{fill:#f7d351;}.cls-8{fill:#62cec0;}.cls-9{fill:#5f6ff6;}</style></defs><title>1</title><g id="Capa_2" data-name="Capa 2"><g id="Layer_1" data-name="Layer 1"><path class="cls-1" d="M350.65,367.52a.56.56,0,0,1-.33-1A32.7,32.7,0,1,0,298.4,340a.56.56,0,0,1-1.12,0A33.82,33.82,0,1,1,351,367.41.59.59,0,0,1,350.65,367.52Z"/><path class="cls-1" d="M379.33,399a.57.57,0,0,1-.43-.2A.56.56,0,0,1,379,398a75.17,75.17,0,1,0-95.74,0,.56.56,0,1,1-.71.86,76.29,76.29,0,1,1,97.16,0A.53.53,0,0,1,379.33,399Z"/><path class="cls-1" d="M312.78,457.39h-.08A118.78,118.78,0,1,1,415.08,424a.56.56,0,0,1-.79-.79,117.59,117.59,0,1,0-101.42,33.06.55.55,0,0,1,.46.63A.56.56,0,0,1,312.78,457.39Z"/><path class="cls-1" d="M331.1,501.27c-88.9,0-161.22-72.33-161.22-161.23S242.2,178.81,331.1,178.81,492.33,251.14,492.33,340a160.17,160.17,0,0,1-47.22,114,.56.56,0,0,1-.79-.79A159,159,0,0,0,491.21,340c0-88.29-71.82-160.11-160.11-160.11S171,251.75,171,340,242.82,500.15,331.1,500.15c3.74,0,7.51-.13,11.22-.39a.55.55,0,0,1,.6.52.56.56,0,0,1-.52.6C338.66,501.14,334.86,501.27,331.1,501.27Z"/><path class="cls-1" d="M331.1,543.74c-112.32,0-203.69-91.38-203.69-203.7s91.37-203.7,203.69-203.7S534.8,227.72,534.8,340a202.31,202.31,0,0,1-59.92,144.29.56.56,0,0,1-.79-.79A201.2,201.2,0,0,0,533.68,340c0-111.7-90.87-202.58-202.58-202.58S128.52,228.34,128.52,340,219.4,542.62,331.1,542.62a203.56,203.56,0,0,0,45.46-5.12.56.56,0,1,1,.25,1.09A205.21,205.21,0,0,1,331.1,543.74Z"/><path class="cls-1" d="M331.1,586.21a246.16,246.16,0,1,1,174.07-72.1.57.57,0,0,1-.79,0,.56.56,0,0,1,0-.79A244.32,244.32,0,1,0,410.6,571.9a.57.57,0,0,1,.71.35.56.56,0,0,1-.34.71A245.72,245.72,0,0,1,331.1,586.21Z"/><path class="cls-1" d="M331.1,628.67A288.63,288.63,0,0,1,127,135.94,288.63,288.63,0,1,1,535.2,544.13a.56.56,0,0,1-.79-.79A287.52,287.52,0,0,0,127.8,136.73,287.59,287.59,0,0,0,439.21,606.54a.56.56,0,0,1,.42,1A287.09,287.09,0,0,1,331.1,628.67Z"/><path class="cls-1" d="M564.58,574.59a.57.57,0,0,1-.4-1c1.72-1.72,3.45-3.47,5.12-5.22a.56.56,0,0,1,.81.77c-1.68,1.76-3.41,3.52-5.14,5.24A.56.56,0,0,1,564.58,574.59Z"/><path class="cls-1" d="M331.1,671.14A331.1,331.1,0,0,1,97,105.91,331.1,331.1,0,0,1,570.11,569.18a.56.56,0,1,1-.81-.77A330,330,0,0,0,97.77,106.7,330,330,0,0,0,331.1,670a327.34,327.34,0,0,0,136.79-29.6.56.56,0,1,1,.47,1A328.45,328.45,0,0,1,331.1,671.14Z"/><path class="cls-1" d="M468.12,641.49a.55.55,0,0,1-.5-.32.56.56,0,0,1,.27-.74q2.85-1.3,5.65-2.65a.57.57,0,0,1,.75.27.55.55,0,0,1-.26.74c-1.88.9-3.77,1.79-5.68,2.65A.46.46,0,0,1,468.12,641.49Z"/><path class="cls-2" d="M354.11,373.05a9.49,9.49,0,0,1-6.71-16.2l.52-.54a9.49,9.49,0,1,1,13.83,13q-.45.49-.93,1A9.42,9.42,0,0,1,354.11,373.05Z"/><path class="cls-3" d="M384.14,403.08a9.49,9.49,0,0,1-6.71-16.2,66.43,66.43,0,0,0,10.78-14.14,9.5,9.5,0,0,1,16.51,9.39,85.37,85.37,0,0,1-13.87,18.17A9.42,9.42,0,0,1,384.14,403.08Z"/><path class="cls-4" d="M414.17,433.11a9.49,9.49,0,0,1-6.71-16.2,109.07,109.07,0,0,0,18.9-25.38,9.49,9.49,0,0,1,16.72,9,127.73,127.73,0,0,1-22.2,29.81A9.42,9.42,0,0,1,414.17,433.11Z"/><path class="cls-5" d="M444.2,463.14a9.49,9.49,0,0,1-6.71-16.2,151,151,0,0,0,27.84-38.25,9.49,9.49,0,1,1,16.91,8.62,170,170,0,0,1-31.33,43.05A9.42,9.42,0,0,1,444.2,463.14Z"/><path class="cls-6" d="M474.23,493.17a9.49,9.49,0,0,1-6.71-16.2,193.32,193.32,0,0,0,37.28-52.26,9.49,9.49,0,1,1,17.08,8.3,212,212,0,0,1-40.94,57.38A9.42,9.42,0,0,1,474.23,493.17Z"/><path class="cls-7" d="M504.26,523.2a9.49,9.49,0,0,1-6.71-16.2,234.25,234.25,0,0,0,54.22-84.17,9.5,9.5,0,1,1,17.79,6.65A253,253,0,0,1,511,520.42,9.42,9.42,0,0,1,504.26,523.2Z"/><path class="cls-8" d="M564.32,583.26a9.49,9.49,0,0,1-6.71-16.2,321.08,321.08,0,0,0-422.21-482A9.49,9.49,0,1,1,123.84,70,340.05,340.05,0,0,1,571,580.48,9.42,9.42,0,0,1,564.32,583.26Z"/><path class="cls-1" d="M283.77,374.82a8.61,8.61,0,0,1,.32-2.29,8.78,8.78,0,0,1,2.41-4,6.68,6.68,0,0,1,2-1.27,6.65,6.65,0,0,1,5,0,6.22,6.22,0,0,1,2,1.33A8.89,8.89,0,0,1,297,370.5a8.5,8.5,0,0,1,.86,6.63,8.47,8.47,0,0,1-.94,2.19,8.24,8.24,0,0,1-1.48,1.82,6.35,6.35,0,0,1-2,1.26,6.47,6.47,0,0,1-2.45.46,6.56,6.56,0,0,1-2.56-.49,6.08,6.08,0,0,1-2-1.31A8.76,8.76,0,0,1,285,379.2a8.64,8.64,0,0,1-.89-2.17A8.89,8.89,0,0,1,283.77,374.82ZM291,379a2.13,2.13,0,0,0,1.29-.4,2.56,2.56,0,0,0,.87-1,6.43,6.43,0,0,0,.46-1.34,6.76,6.76,0,0,0,.15-1.41,6.56,6.56,0,0,0-.16-1.47,5.35,5.35,0,0,0-.49-1.34,2.61,2.61,0,0,0-.87-1,2.16,2.16,0,0,0-1.25-.37,2.19,2.19,0,0,0-1.29.39,2.59,2.59,0,0,0-.87,1,6.06,6.06,0,0,0-.46,1.34,6.77,6.77,0,0,0,0,2.88,5.24,5.24,0,0,0,.47,1.33,2.55,2.55,0,0,0,.88,1A2.2,2.2,0,0,0,291,379Z"/><path class="cls-1" d="M300.6,382.64v-4.11h3.45v4.11Z"/><path class="cls-1" d="M311.77,382.84a7.26,7.26,0,0,1-3.14-.66,5.05,5.05,0,0,1-2.15-1.84l2.33-2.68a4.78,4.78,0,0,0,1.43,1.08,3.56,3.56,0,0,0,1.56.39,1.81,1.81,0,0,0,1.29-.45,1.58,1.58,0,0,0,.47-1.2,1.67,1.67,0,0,0-.42-1.18,1.48,1.48,0,0,0-1.12-.45,1.78,1.78,0,0,0-.85.21,1.47,1.47,0,0,0-.61.57h-3.63l1.88-9.87h7.95v3.86h-4.9l-.24,1.73a3.21,3.21,0,0,1,1-.11,5.18,5.18,0,0,1,3.79,1.44,5.4,5.4,0,0,1-.23,7.64A6.45,6.45,0,0,1,311.77,382.84Z"/><path class="cls-1" d="M321.16,372.59a3.29,3.29,0,0,1,0-5,4.39,4.39,0,0,1,5.65,0,3.29,3.29,0,0,1,0,5,4.39,4.39,0,0,1-5.65,0Zm.73,8.6,6.31-7.12,5.61-7.54,1.85,1.68-6.05,6.91-5.87,7.74Zm2.84-10a1.83,1.83,0,0,0,.32-1.07,1.81,1.81,0,0,0-.32-1.07.85.85,0,0,0-1.5,0,1.81,1.81,0,0,0-.32,1.07,1.83,1.83,0,0,0,.32,1.07.85.85,0,0,0,1.5,0Zm6,10.68a3.3,3.3,0,0,1,0-5,4.39,4.39,0,0,1,5.65,0,3.3,3.3,0,0,1,0,5,4.42,4.42,0,0,1-5.65,0Zm3.58-1.43a1.83,1.83,0,0,0,.32-1.07,1.81,1.81,0,0,0-.32-1.07.91.91,0,0,0-.75-.45.92.92,0,0,0-.76.45,1.81,1.81,0,0,0-.32,1.07,1.83,1.83,0,0,0,.32,1.07.93.93,0,0,0,.76.44A.92.92,0,0,0,334.32,380.41Z"/><path class="cls-1" d="M317,420.67v-3.05h-5.75v-3.79l7.08-9h2.91v9h2v3.79h-2v3.05Zm-1.57-6.84h2.06v-2.67Z"/><path class="cls-1" d="M325.7,420.69v-4.11h3.45v4.11Z"/><path class="cls-1" d="M337.32,408.67h-6.05v-3.86H344l-7.76,15.86h-4.8Z"/><path class="cls-1" d="M346.26,410.64a3.3,3.3,0,0,1,0-5,4.07,4.07,0,0,1,2.82-1,4.11,4.11,0,0,1,2.83,1,3.3,3.3,0,0,1,0,5,4.16,4.16,0,0,1-2.83,1A4.12,4.12,0,0,1,346.26,410.64Zm.73,8.6,6.31-7.12,5.61-7.54,1.85,1.68-6.05,6.9-5.87,7.75Zm2.84-10a1.93,1.93,0,0,0,0-2.13.85.85,0,0,0-1.5,0,1.93,1.93,0,0,0,0,2.13.85.85,0,0,0,1.5,0Zm6,10.68a3.29,3.29,0,0,1,0-5,4.39,4.39,0,0,1,5.65,0,3.29,3.29,0,0,1,0,5,4.39,4.39,0,0,1-5.65,0Zm3.58-1.43a1.81,1.81,0,0,0,.32-1.07,1.78,1.78,0,0,0-.32-1.06.91.91,0,0,0-.75-.45.92.92,0,0,0-.76.45,1.71,1.71,0,0,0-.32,1.06,1.74,1.74,0,0,0,.32,1.07.92.92,0,0,0,.76.45A.91.91,0,0,0,359.42,418.45Z"/><path class="cls-1" d="M339.86,459.34a7.26,7.26,0,0,1-3.14-.66,5,5,0,0,1-2.15-1.84l2.32-2.68a4.7,4.7,0,0,0,1.44,1.08,3.52,3.52,0,0,0,1.55.39,1.82,1.82,0,0,0,1.29-.44,1.57,1.57,0,0,0,.48-1.2,1.66,1.66,0,0,0-.43-1.19,1.45,1.45,0,0,0-1.11-.45,1.82,1.82,0,0,0-.86.21,1.52,1.52,0,0,0-.6.58H335l1.87-9.87h7.95v3.86H340l-.24,1.72a3.4,3.4,0,0,1,1-.11,5.22,5.22,0,0,1,3.8,1.44,5.4,5.4,0,0,1-.24,7.65A6.42,6.42,0,0,1,339.86,459.34Z"/><path class="cls-1" d="M348.47,459.15V455h3.44v4.12Z"/><path class="cls-1" d="M354.37,451.32a8.27,8.27,0,0,1,.32-2.29,8.56,8.56,0,0,1,2.41-4,6.56,6.56,0,0,1,4.46-1.73,6.41,6.41,0,0,1,2.55.5,6.17,6.17,0,0,1,2,1.33,8.61,8.61,0,0,1,1.44,1.88,9.13,9.13,0,0,1,.89,2.16,8.66,8.66,0,0,1,.28,2.16,8.76,8.76,0,0,1-.31,2.32,8.29,8.29,0,0,1-.95,2.18,8.5,8.5,0,0,1-1.47,1.83,6.63,6.63,0,0,1-2,1.25,6.51,6.51,0,0,1-2.45.46,6.65,6.65,0,0,1-2.57-.49,6,6,0,0,1-2-1.31,8.22,8.22,0,0,1-1.43-1.86,8.64,8.64,0,0,1-.89-2.17A8.44,8.44,0,0,1,354.37,451.32Zm7.19,4.18a2.17,2.17,0,0,0,1.29-.4,2.73,2.73,0,0,0,.87-1,6.21,6.21,0,0,0,.45-1.34,6,6,0,0,0,.16-1.41,6.56,6.56,0,0,0-.17-1.47,5.68,5.68,0,0,0-.48-1.33,2.91,2.91,0,0,0-.87-1,2.3,2.3,0,0,0-2.55,0,2.62,2.62,0,0,0-.86,1,5.74,5.74,0,0,0-.46,1.34,6.59,6.59,0,0,0-.15,1.4,7.14,7.14,0,0,0,.15,1.48,5.68,5.68,0,0,0,.48,1.33,2.64,2.64,0,0,0,.87,1A2.2,2.2,0,0,0,361.56,455.5Z"/><path class="cls-1" d="M372,449.09a3.29,3.29,0,0,1,0-5,4.38,4.38,0,0,1,5.64,0,3.27,3.27,0,0,1,0,5,4.34,4.34,0,0,1-5.64,0Zm.73,8.6,6.31-7.12,5.61-7.53,1.85,1.68-6.05,6.9-5.87,7.74Zm2.84-10a1.81,1.81,0,0,0,.32-1.07,1.83,1.83,0,0,0-.32-1.07.86.86,0,0,0-1.5,0,1.83,1.83,0,0,0-.32,1.07,1.81,1.81,0,0,0,.32,1.07.85.85,0,0,0,1.5,0Zm6,10.68a3.27,3.27,0,0,1,0-5,4.39,4.39,0,0,1,5.65,0,3.29,3.29,0,0,1,0,5,4.42,4.42,0,0,1-5.65,0Zm3.58-1.43a2,2,0,0,0,0-2.14.86.86,0,0,0-1.51,0,1.95,1.95,0,0,0,0,2.14.86.86,0,0,0,1.51,0Z"/><path class="cls-1" d="M372.92,492a7.26,7.26,0,0,1-3.14-.66,5,5,0,0,1-2.15-1.84l2.33-2.68a4.78,4.78,0,0,0,1.43,1.08,3.52,3.52,0,0,0,1.55.39,1.82,1.82,0,0,0,1.3-.45,1.6,1.6,0,0,0,.47-1.2,1.67,1.67,0,0,0-.42-1.18,1.48,1.48,0,0,0-1.12-.45,1.78,1.78,0,0,0-.85.21,1.47,1.47,0,0,0-.61.57h-3.63l1.88-9.87h8v3.86H373l-.24,1.73a3.1,3.1,0,0,1,1-.11,5.21,5.21,0,0,1,3.8,1.44,5.4,5.4,0,0,1-.23,7.64A6.45,6.45,0,0,1,372.92,492Z"/><path class="cls-1" d="M381.53,491.8v-4.11H385v4.11Z"/><path class="cls-1" d="M392.48,491.91a8.06,8.06,0,0,1-5.43-1.79l2.17-3.07a4.81,4.81,0,0,0,3,1,3.15,3.15,0,0,0,1.67-.35,1.23,1.23,0,0,0,.53-1.1,1.3,1.3,0,0,0-.68-1.22,4.72,4.72,0,0,0-2.18-.38h-.7V482h.78a3.11,3.11,0,0,0,1.72-.42,1.26,1.26,0,0,0,.65-1.12,1,1,0,0,0-.38-.84,1.68,1.68,0,0,0-1.07-.3,3.11,3.11,0,0,0-2.66,1.57l-2.68-3.15a5.53,5.53,0,0,1,2.4-1.46,10.54,10.54,0,0,1,3.43-.55,6.74,6.74,0,0,1,4,1.08,3.32,3.32,0,0,1,1.52,2.84,3.69,3.69,0,0,1-.82,2.37,3.41,3.41,0,0,1-2.07,1.28A3.51,3.51,0,0,1,398,484.7a4.13,4.13,0,0,1,.88,2.65,3.9,3.9,0,0,1-1.71,3.34A7.85,7.85,0,0,1,392.48,491.91Z"/><path class="cls-1" d="M402.19,481.75a3.3,3.3,0,0,1,0-5,4.07,4.07,0,0,1,2.81-1,4.12,4.12,0,0,1,2.83,1,3.28,3.28,0,0,1,0,5,4.08,4.08,0,0,1-2.83,1A4,4,0,0,1,402.19,481.75Zm.72,8.6,6.32-7.12,5.6-7.54,1.86,1.68-6.06,6.91L404.77,492Zm2.85-10a1.82,1.82,0,0,0,.31-1.07,1.8,1.8,0,0,0-.31-1.07.86.86,0,0,0-1.51,0,1.8,1.8,0,0,0-.31,1.07,1.82,1.82,0,0,0,.31,1.07.87.87,0,0,0,1.51,0Zm6,10.67a3.2,3.2,0,0,1-1.16-2.49,3.26,3.26,0,0,1,1.16-2.51,4.38,4.38,0,0,1,5.64,0,3.25,3.25,0,0,1,1.15,2.51,3.19,3.19,0,0,1-1.15,2.49,4.38,4.38,0,0,1-5.64,0Zm3.57-1.42a1.76,1.76,0,0,0,.32-1.07,1.74,1.74,0,0,0-.32-1.07.91.91,0,0,0-.75-.45.94.94,0,0,0-.76.45,1.81,1.81,0,0,0-.32,1.07,1.83,1.83,0,0,0,.32,1.07,1,1,0,0,0,.76.44A.92.92,0,0,0,415.34,489.57Z"/><path class="cls-1" d="M406.42,515.93a4.85,4.85,0,0,1,1.6,3.71,5.24,5.24,0,0,1-1.71,4,5.88,5.88,0,0,1-4.23,1.62,5.23,5.23,0,0,1-4.4-2.05,9.35,9.35,0,0,1-1.56-5.76,9.93,9.93,0,0,1,1.7-6.16,5.57,5.57,0,0,1,4.69-2.24,6.89,6.89,0,0,1,5,2.14l-2.35,2.72a3.8,3.8,0,0,0-2.77-1.2,2.24,2.24,0,0,0-1.72.67,2.79,2.79,0,0,0-.69,1.85,3.52,3.52,0,0,1,2.41-.76A5.62,5.62,0,0,1,406.42,515.93Zm-5.66,5.14a1.75,1.75,0,0,0,1.32.61,1.77,1.77,0,0,0,1.33-.61,2,2,0,0,0,.57-1.43,1.76,1.76,0,0,0-.56-1.33,1.93,1.93,0,0,0-2.68,0,1.79,1.79,0,0,0-.55,1.33A2,2,0,0,0,400.76,521.07Z"/><path class="cls-1" d="M410.52,525V520.9H414V525Z"/><path class="cls-1" d="M422.13,513h-6.05v-3.86h12.73L421.05,525h-4.8Z"/><path class="cls-1" d="M431.07,515a3.3,3.3,0,0,1,0-5,4.39,4.39,0,0,1,5.65,0,3.3,3.3,0,0,1,0,5,4.39,4.39,0,0,1-5.65,0Zm.73,8.6,6.31-7.12,5.61-7.54,1.85,1.68-6.05,6.9-5.87,7.75Zm2.85-10a2,2,0,0,0,0-2.13.92.92,0,0,0-.76-.45.91.91,0,0,0-.75.45,1.93,1.93,0,0,0,0,2.13.91.91,0,0,0,.75.45A.92.92,0,0,0,434.65,513.52Zm6,10.68a3.27,3.27,0,0,1,0-5,4.38,4.38,0,0,1,5.64,0,3.29,3.29,0,0,1,0,5,4.38,4.38,0,0,1-5.64,0Zm3.57-1.43a1.81,1.81,0,0,0,.32-1.07,1.83,1.83,0,0,0-.32-1.07.92.92,0,0,0-.75-.44,1,1,0,0,0-.76.44,1.83,1.83,0,0,0-.32,1.07,1.81,1.81,0,0,0,.32,1.07.94.94,0,0,0,.76.45A.91.91,0,0,0,444.23,522.77Z"/><path class="cls-1" d="M435.62,557.15a6.87,6.87,0,0,1-2.26-.37,6.37,6.37,0,0,1-1.92-1,5,5,0,0,1-1.81-3.87,3.45,3.45,0,0,1,.57-1.94,5.5,5.5,0,0,1,1.35-1.45,3,3,0,0,1-1.05-1.14,3.19,3.19,0,0,1-.42-1.54,4,4,0,0,1,.52-2,4.25,4.25,0,0,1,1.34-1.48,6.68,6.68,0,0,1,1.77-.89,6.1,6.1,0,0,1,1.91-.31,6.64,6.64,0,0,1,1.52.18,6.55,6.55,0,0,1,1.5.58,6.06,6.06,0,0,1,1.29.93,4,4,0,0,1,.91,1.32,4,4,0,0,1,.34,1.65,3.24,3.24,0,0,1-.43,1.57,3,3,0,0,1-1.07,1.16,5.59,5.59,0,0,1,1.37,1.49,3.75,3.75,0,0,1,.56,2,4.7,4.7,0,0,1-.81,2.71,5.23,5.23,0,0,1-2.17,1.82A7.09,7.09,0,0,1,435.62,557.15Zm1.21-6.53a1.77,1.77,0,0,0-1.21-.4,1.75,1.75,0,0,0-1.21.42,1.43,1.43,0,0,0-.47,1.11,1.4,1.4,0,0,0,.49,1.1,1.72,1.72,0,0,0,1.19.44,1.65,1.65,0,0,0,1.2-.45,1.56,1.56,0,0,0,0-2.22Zm-2.07-3.87a1.28,1.28,0,0,0,.86.31,1.31,1.31,0,0,0,.87-.31,1.07,1.07,0,0,0,.38-.88,1,1,0,0,0-.35-.75,1.3,1.3,0,0,0-.9-.31,1.27,1.27,0,0,0-.89.31,1,1,0,0,0-.34.75A1.07,1.07,0,0,0,434.76,546.75Z"/><path class="cls-1" d="M444.12,556.93v-4.11h3.45v4.11Z"/><path class="cls-1" d="M450,556.93c0-.81,0-1.48.06-2a10.3,10.3,0,0,1,.23-1.56,4.22,4.22,0,0,1,.51-1.31,5.62,5.62,0,0,1,.88-1.06,7.88,7.88,0,0,1,1.36-1l.92-.54,1-.56c.27-.15.56-.34.9-.57a5.18,5.18,0,0,0,.79-.67,3.31,3.31,0,0,0,.5-.74,2,2,0,0,0,.21-.89,1.22,1.22,0,0,0-.42-1,1.58,1.58,0,0,0-1.05-.34,3.68,3.68,0,0,0-1.7.47,6.92,6.92,0,0,0-1.58,1.14L450,543.42a7.2,7.2,0,0,1,2.69-1.8,9.87,9.87,0,0,1,3.81-.72,6.29,6.29,0,0,1,4.2,1.28,4.42,4.42,0,0,1,1.5,3.54,5,5,0,0,1-.8,2.83,7.91,7.91,0,0,1-2.35,2.18c-1.81,1.14-3,1.94-3.67,2.41h6.84v3.79Z"/><path class="cls-1" d="M465.78,546.88a3.29,3.29,0,0,1,0-5,4.38,4.38,0,0,1,5.64,0,3.27,3.27,0,0,1,0,5,4.38,4.38,0,0,1-5.64,0Zm.72,8.6,6.32-7.12,5.61-7.53,1.85,1.67-6,6.91-5.87,7.74Zm2.85-10a1.81,1.81,0,0,0,.32-1.07,1.83,1.83,0,0,0-.32-1.07.85.85,0,0,0-1.5,0,1.83,1.83,0,0,0-.32,1.07,1.81,1.81,0,0,0,.32,1.07.85.85,0,0,0,1.5,0Zm6,10.68a3.27,3.27,0,0,1,0-5,4.08,4.08,0,0,1,2.83-1,4,4,0,0,1,2.81,1,3.27,3.27,0,0,1,0,5,4.07,4.07,0,0,1-2.81,1A4.12,4.12,0,0,1,475.36,556.13Zm3.58-1.43a2,2,0,0,0,0-2.14.86.86,0,0,0-1.51,0,1.95,1.95,0,0,0,0,2.14.86.86,0,0,0,1.51,0Z"/><path class="cls-1" d="M452.43,592c0-.81,0-1.48.06-2a10.3,10.3,0,0,1,.23-1.56,4.22,4.22,0,0,1,.51-1.31,5.62,5.62,0,0,1,.88-1.06,7.88,7.88,0,0,1,1.36-1l.92-.54,1-.56a10.62,10.62,0,0,0,.9-.57,5.18,5.18,0,0,0,.79-.67,3.31,3.31,0,0,0,.5-.74,2,2,0,0,0,.21-.89,1.22,1.22,0,0,0-.42-1,1.58,1.58,0,0,0-1.05-.34,3.68,3.68,0,0,0-1.7.47,6.92,6.92,0,0,0-1.58,1.14l-2.61-2.84a7.2,7.2,0,0,1,2.69-1.8,9.87,9.87,0,0,1,3.81-.72,6.29,6.29,0,0,1,4.2,1.28,4.42,4.42,0,0,1,1.5,3.54,5,5,0,0,1-.8,2.83,7.91,7.91,0,0,1-2.35,2.18c-1.81,1.14-3,1.94-3.67,2.41h6.84V592Z"/><path class="cls-1" d="M478.07,588.2V592H467.73V588.2h3.17v-8.09a5.28,5.28,0,0,1-1.62,1.25,4.49,4.49,0,0,1-2.06.68v-3.9a2.75,2.75,0,0,0,1-.21,5.13,5.13,0,0,0,1-.51,8,8,0,0,0,.85-.61c.26-.21.47-.38.62-.53a1.38,1.38,0,0,0,.24-.25h4.33V588.2Z"/><path class="cls-1" d="M480.23,592v-4.11h3.45V592Z"/><path class="cls-1" d="M492.16,592.21a6.87,6.87,0,0,1-2.26-.37,6.2,6.2,0,0,1-1.91-1.05,4.75,4.75,0,0,1-1.32-1.68,4.88,4.88,0,0,1-.49-2.19,3.44,3.44,0,0,1,.56-1.94,5.5,5.5,0,0,1,1.35-1.45,2.91,2.91,0,0,1-1-1.14,3.19,3.19,0,0,1-.42-1.54,4,4,0,0,1,.52-2,4.35,4.35,0,0,1,1.34-1.48,6.68,6.68,0,0,1,1.77-.89,6.1,6.1,0,0,1,1.91-.31,6.64,6.64,0,0,1,1.52.18,6.55,6.55,0,0,1,1.5.58,6.06,6.06,0,0,1,1.29.93,4.2,4.2,0,0,1,1.26,3,3.25,3.25,0,0,1-.44,1.57,3,3,0,0,1-1.07,1.16,5.59,5.59,0,0,1,1.37,1.49,3.75,3.75,0,0,1,.56,2,4.68,4.68,0,0,1-.81,2.71,5.16,5.16,0,0,1-2.17,1.82A7.09,7.09,0,0,1,492.16,592.21Zm1.21-6.52a1.72,1.72,0,0,0-1.21-.41,1.75,1.75,0,0,0-1.21.42,1.51,1.51,0,0,0,0,2.21,1.72,1.72,0,0,0,1.19.44,1.65,1.65,0,0,0,1.2-.45,1.44,1.44,0,0,0,.47-1.09A1.4,1.4,0,0,0,493.37,585.69Zm-2.07-3.88a1.36,1.36,0,0,0,1.73,0,1.07,1.07,0,0,0,.38-.87,1,1,0,0,0-.35-.76,1.3,1.3,0,0,0-.9-.31,1.27,1.27,0,0,0-.89.31,1,1,0,0,0-.34.76A1.06,1.06,0,0,0,491.3,581.81Z"/><path class="cls-1" d="M501.44,581.94a3.29,3.29,0,0,1,0-5,4.38,4.38,0,0,1,5.64,0,3.27,3.27,0,0,1,0,5,4.34,4.34,0,0,1-5.64,0Zm.73,8.6,6.31-7.12,5.61-7.53,1.85,1.68-6.05,6.9L504,592.21Zm2.84-10a1.81,1.81,0,0,0,.32-1.07,1.83,1.83,0,0,0-.32-1.07.86.86,0,0,0-1.5,0,1.83,1.83,0,0,0-.32,1.07,1.81,1.81,0,0,0,.32,1.07.85.85,0,0,0,1.5,0Zm6,10.68a3.29,3.29,0,0,1,0-5,4.39,4.39,0,0,1,5.65,0,3.29,3.29,0,0,1,0,5,4.42,4.42,0,0,1-5.65,0Zm3.58-1.43a1.95,1.95,0,0,0,0-2.14.91.91,0,0,0-.75-.45.92.92,0,0,0-.76.45,1.95,1.95,0,0,0,0,2.14.92.92,0,0,0,.76.45A.91.91,0,0,0,514.6,589.76Z"/><path class="cls-1" d="M495,628.25v-3h-5.75v-3.79l7.08-9h2.91v9h2v3.79h-2v3Zm-1.57-6.84h2.06v-2.67Z"/><path class="cls-1" d="M509.42,616.25h-6.05v-3.86H516.1l-7.76,15.86h-4.79Z"/><path class="cls-1" d="M516.56,628.27v-4.11H520v4.11Z"/><path class="cls-1" d="M528.49,628.49a6.87,6.87,0,0,1-2.26-.38,6.2,6.2,0,0,1-1.91-1.05,4.58,4.58,0,0,1-1.32-1.68,4.87,4.87,0,0,1-.49-2.18,3.42,3.42,0,0,1,.56-1.94,5.42,5.42,0,0,1,1.36-1.46,2.86,2.86,0,0,1-1.06-1.14,3.16,3.16,0,0,1-.42-1.54,4.1,4.1,0,0,1,.52-2,4.39,4.39,0,0,1,1.34-1.49,6.66,6.66,0,0,1,1.77-.88,6,6,0,0,1,3.43-.13,5.94,5.94,0,0,1,1.5.57,6.48,6.48,0,0,1,1.29.94,4,4,0,0,1,.91,1.31,4.05,4.05,0,0,1,.35,1.66,3.22,3.22,0,0,1-.44,1.56,2.89,2.89,0,0,1-1.07,1.16,5.59,5.59,0,0,1,1.37,1.49,3.79,3.79,0,0,1,.56,2,4.67,4.67,0,0,1-.81,2.7,5.16,5.16,0,0,1-2.17,1.82A6.94,6.94,0,0,1,528.49,628.49ZM529.7,622a2,2,0,0,0-2.42,0,1.51,1.51,0,0,0,0,2.21,1.68,1.68,0,0,0,1.19.45,1.65,1.65,0,0,0,1.2-.45,1.56,1.56,0,0,0,0-2.22Zm-2.07-3.87a1.36,1.36,0,0,0,1.73,0,1.09,1.09,0,0,0,.38-.88,1,1,0,0,0-.35-.76,1.3,1.3,0,0,0-.9-.31,1.27,1.27,0,0,0-.89.31,1,1,0,0,0-.34.76A1.08,1.08,0,0,0,527.63,618.09Z"/><path class="cls-1" d="M537.77,618.22a3.3,3.3,0,0,1,0-5,4.12,4.12,0,0,1,2.82-1,4.16,4.16,0,0,1,2.83,1,3.3,3.3,0,0,1,0,5,4.16,4.16,0,0,1-2.83,1A4.12,4.12,0,0,1,537.77,618.22Zm.73,8.6,6.31-7.12,5.61-7.54,1.85,1.68-6,6.9-5.87,7.75Zm2.84-10a1.93,1.93,0,0,0,0-2.13.85.85,0,0,0-1.5,0,1.93,1.93,0,0,0,0,2.13.85.85,0,0,0,1.5,0Zm6,10.68a3.29,3.29,0,0,1,0-5,4.39,4.39,0,0,1,5.65,0,3.29,3.29,0,0,1,0,5,4.39,4.39,0,0,1-5.65,0Zm3.58-1.43a1.81,1.81,0,0,0,.32-1.07,1.78,1.78,0,0,0-.32-1.06.91.91,0,0,0-.75-.45.92.92,0,0,0-.76.45,1.71,1.71,0,0,0-.32,1.06,1.74,1.74,0,0,0,.32,1.07.92.92,0,0,0,.76.45A.91.91,0,0,0,550.93,626Z"/><path class="cls-9" d="M535.67,553a9.49,9.49,0,0,1-6.74-16.18,278.68,278.68,0,0,0,34.39-350.52,9.49,9.49,0,0,1,15.8-10.53,297.32,297.32,0,0,1-36.71,374.43A9.47,9.47,0,0,1,535.67,553Z"/></g></g></svg>