<svg xmlns="http://www.w3.org/2000/svg" viewBox="0 0 1051.89 483.22"><defs><style>.cls-1{fill:#fff;}.cls-2{fill:#00d1c0;}</style></defs><title>10</title><g id="Capa_2" data-name="Capa 2"><g id="Layer_1" data-name="Layer 1"><path class="cls-1" d="M95.35,375.17l3.16,6,3.2-6h2.68l-4.64,8.31V388H97.28v-4.5l-4.63-8.28Z"/><path class="cls-1" d="M108.73,388.12a5.21,5.21,0,0,1-2.63-.66,4.62,4.62,0,0,1-1.75-1.76,4.94,4.94,0,0,1-.59-2.41,5.08,5.08,0,0,1,.59-2.46,4.52,4.52,0,0,1,1.75-1.8,5.5,5.5,0,0,1,4.71-.28,4.34,4.34,0,0,1,1.55,1.07,4.55,4.55,0,0,1,1,1.54,4.93,4.93,0,0,1,.34,1.84,5.56,5.56,0,0,1,0,.8h-7.3a2.49,2.49,0,0,0,2.51,2.37,2.71,2.71,0,0,0,1.36-.36,1.85,1.85,0,0,0,.87-.93l2.07.58a4.12,4.12,0,0,1-1.7,1.79A5.24,5.24,0,0,1,108.73,388.12Zm-2.47-5.65h4.93a2.66,2.66,0,0,0-.79-1.71,2.47,2.47,0,0,0-3.36,0A2.58,2.58,0,0,0,106.26,382.47Z"/><path class="cls-1" d="M119.05,388.12a6.66,6.66,0,0,1-2.32-.4,5.24,5.24,0,0,1-1.87-1.16l.86-1.56a5.29,5.29,0,0,0,3.24,1.33,2.06,2.06,0,0,0,1.13-.26.82.82,0,0,0,.42-.75,1.23,1.23,0,0,0,0-.2.61.61,0,0,0-.09-.18l-.12-.15a.56.56,0,0,0-.18-.12l-.22-.11-.28-.1-.31-.1-.36-.11-.4-.12q-.69-.21-1.14-.39c-.29-.12-.58-.26-.86-.41a2.57,2.57,0,0,1-.65-.5,2.18,2.18,0,0,1-.37-.63,2.31,2.31,0,0,1-.13-.82,2.7,2.7,0,0,1,1-2.22,4.38,4.38,0,0,1,2.78-.83,5,5,0,0,1,3.54,1.34l-1,1.53a4.47,4.47,0,0,0-2.68-1.08,2.15,2.15,0,0,0-1,.23.77.77,0,0,0-.41.74.75.75,0,0,0,.37.69,5.69,5.69,0,0,0,1.34.5c.52.15.93.28,1.24.39a9.27,9.27,0,0,1,.94.41,2.56,2.56,0,0,1,.74.51,2,2,0,0,1,.41.66,2.29,2.29,0,0,1,.16.9,2.62,2.62,0,0,1-1,2.18A4.41,4.41,0,0,1,119.05,388.12Z"/><path class="cls-1" d="M125.13,390l.49-2.14h-.76v-2.52h2.08v2.52l-.73,2.14Z"/><path class="cls-1" d="M145.5,378.52h2.29L143.85,388h-2l-1.58-4.05L138.7,388h-2l-3.93-9.43H135l2.81,7.13,1.1-3.08-1.65-4h2l1,2.88,1-2.88h2l-1.63,4,1.12,3.08Z"/><path class="cls-1" d="M153.4,388.12a5.15,5.15,0,0,1-2.62-.66A4.62,4.62,0,0,1,149,385.7a5,5,0,0,1-.6-2.41,5.09,5.09,0,0,1,.6-2.46,4.52,4.52,0,0,1,1.75-1.8,5.48,5.48,0,0,1,4.7-.28,4.29,4.29,0,0,1,1.56,1.07,4.88,4.88,0,0,1,1,1.54,5.14,5.14,0,0,1,.34,1.84,4.27,4.27,0,0,1-.06.8H151a2.48,2.48,0,0,0,.81,1.72,2.45,2.45,0,0,0,1.69.65,2.75,2.75,0,0,0,1.37-.36,1.94,1.94,0,0,0,.87-.93l2.06.58a4.1,4.1,0,0,1-1.69,1.79A5.3,5.3,0,0,1,153.4,388.12Zm-2.46-5.65h4.93a2.63,2.63,0,0,0-.8-1.71,2.46,2.46,0,0,0-3.35,0A2.49,2.49,0,0,0,150.94,382.47Z"/><path class="cls-1" d="M164.93,384.43v-5.91h2.41v5.38c0,1.45.52,2.18,1.56,2.18a2.43,2.43,0,0,0,1.38-.44,3.09,3.09,0,0,0,1.06-1.28v-5.84h2.41v6.73a.87.87,0,0,0,.13.55.61.61,0,0,0,.45.19v2a6,6,0,0,1-1.05.1,1.75,1.75,0,0,1-1.06-.29,1.14,1.14,0,0,1-.47-.82l-.05-.76a4.08,4.08,0,0,1-1.61,1.45,4.82,4.82,0,0,1-2.19.49,2.68,2.68,0,0,1-2.21-.93A4.3,4.3,0,0,1,164.93,384.43Z"/><path class="cls-1" d="M180.06,388.12a6.62,6.62,0,0,1-2.32-.4,5.24,5.24,0,0,1-1.87-1.16l.86-1.56a5.27,5.27,0,0,0,3.24,1.33,2.08,2.08,0,0,0,1.13-.26.82.82,0,0,0,.42-.75,1.23,1.23,0,0,0,0-.2.61.61,0,0,0-.09-.18,1.31,1.31,0,0,1-.12-.15.62.62,0,0,0-.19-.12l-.22-.11-.28-.1-.3-.1-.36-.11-.4-.12q-.69-.21-1.14-.39a8.48,8.48,0,0,1-.86-.41,2.4,2.4,0,0,1-.65-.5,2,2,0,0,1-.37-.63,2.31,2.31,0,0,1-.14-.82,2.68,2.68,0,0,1,1.05-2.22,4.36,4.36,0,0,1,2.78-.83,5,5,0,0,1,3.54,1.34l-1,1.53a4.45,4.45,0,0,0-2.68-1.08,2.13,2.13,0,0,0-1,.23.78.78,0,0,0-.42.74.77.77,0,0,0,.37.69,6,6,0,0,0,1.35.5c.52.15.93.28,1.24.39a9.27,9.27,0,0,1,.94.41,2.71,2.71,0,0,1,.74.51,2.17,2.17,0,0,1,.41.66,2.49,2.49,0,0,1,.16.9,2.6,2.6,0,0,1-1,2.18A4.36,4.36,0,0,1,180.06,388.12Z"/><path class="cls-1" d="M190.3,388.12a5.19,5.19,0,0,1-2.63-.66,4.62,4.62,0,0,1-1.75-1.76,5,5,0,0,1-.6-2.41,5.09,5.09,0,0,1,.6-2.46,4.52,4.52,0,0,1,1.75-1.8,5.5,5.5,0,0,1,4.71-.28,4.34,4.34,0,0,1,1.55,1.07,4.55,4.55,0,0,1,1,1.54,4.93,4.93,0,0,1,.34,1.84,5.56,5.56,0,0,1,0,.8h-7.3a2.49,2.49,0,0,0,2.51,2.37,2.71,2.71,0,0,0,1.36-.36,1.85,1.85,0,0,0,.87-.93l2.07.58a4.12,4.12,0,0,1-1.7,1.79A5.24,5.24,0,0,1,190.3,388.12Zm-2.47-5.65h4.93a2.63,2.63,0,0,0-.8-1.71,2.46,2.46,0,0,0-3.35,0A2.58,2.58,0,0,0,187.83,382.47Z"/><path class="cls-1" d="M207.56,387.47a6.69,6.69,0,0,1-2.66.64,3.57,3.57,0,0,1-1-.13,2.69,2.69,0,0,1-.77-.4,1.77,1.77,0,0,1-.54-.73,2.68,2.68,0,0,1-.19-1.06v-5.42h-1.24v-1.85h1.24v-3.06h2.42v3.06h2v1.85h-2V385c0,.61.31.92.89.92a3.55,3.55,0,0,0,1.32-.34Z"/><path class="cls-1" d="M218,388h-2.4v-5.29a2.68,2.68,0,0,0-.42-1.64,1.37,1.37,0,0,0-1.17-.54,2.28,2.28,0,0,0-1.39.56,2.84,2.84,0,0,0-1,1.4V388h-2.41V374.81h2.41v5.46a3.7,3.7,0,0,1,1.42-1.41,3.9,3.9,0,0,1,2-.51q3,0,3,3.71Z"/><path class="cls-1" d="M225,388.12a5.21,5.21,0,0,1-2.63-.66,4.69,4.69,0,0,1-1.75-1.76,5.06,5.06,0,0,1-.59-2.41,5.2,5.2,0,0,1,.59-2.46,4.58,4.58,0,0,1,1.75-1.8,5.5,5.5,0,0,1,4.71-.28,4.47,4.47,0,0,1,1.56,1.07,4.68,4.68,0,0,1,1,1.54,4.93,4.93,0,0,1,.34,1.84,5.56,5.56,0,0,1,0,.8h-7.3a2.49,2.49,0,0,0,2.51,2.37,2.75,2.75,0,0,0,1.37-.36,1.87,1.87,0,0,0,.86-.93l2.07.58a4.1,4.1,0,0,1-1.69,1.79A5.3,5.3,0,0,1,225,388.12Zm-2.47-5.65h4.93a2.62,2.62,0,0,0-.79-1.71,2.47,2.47,0,0,0-3.36,0A2.58,2.58,0,0,0,222.49,382.47Z"/><path class="cls-1" d="M110,411.72v-8.38l-3.27,6.24h-1.39L102,403.34v8.38H99.56V398.94h2.66l3.78,7.27,3.82-7.27h2.64v12.78Z"/><path class="cls-1" d="M115.58,411.72V398.94h5.65a3.69,3.69,0,0,1,2.08.63,4.3,4.3,0,0,1,1.46,1.6,4.26,4.26,0,0,1-.11,4.27,3.59,3.59,0,0,1-1.68,1.48l2.92,4.8h-2.73l-2.63-4.28h-2.49v4.28Zm2.47-6.46h3.12a1.41,1.41,0,0,0,1.15-.6,2.33,2.33,0,0,0,.47-1.47,2.11,2.11,0,0,0-.53-1.47,1.56,1.56,0,0,0-1.2-.6h-3Z"/><path class="cls-1" d="M133.44,398.87a5.87,5.87,0,0,1,3,.76,4.71,4.71,0,0,1,1.95,2L136.5,403a3,3,0,0,0-.86-1.13,3.11,3.11,0,0,0-1.1-.61,4.09,4.09,0,0,0-1.17-.17,3.58,3.58,0,0,0-1.62.37,3.16,3.16,0,0,0-1.17,1,4.57,4.57,0,0,0-.68,1.36,4.94,4.94,0,0,0-.24,1.53,4.86,4.86,0,0,0,.46,2.11,4,4,0,0,0,1.34,1.6,3.35,3.35,0,0,0,1.94.6,3.87,3.87,0,0,0,1.21-.19,3.4,3.4,0,0,0,1.13-.64,2.93,2.93,0,0,0,.82-1.11l2,1.17a4,4,0,0,1-1.25,1.6,6.05,6.05,0,0,1-1.9,1,6.7,6.7,0,0,1-2.11.34,5.75,5.75,0,0,1-3.76-1.39,8,8,0,0,1-1.3-1.47,6.58,6.58,0,0,1-.84-1.8,6.49,6.49,0,0,1,.14-4.24,7,7,0,0,1,1.22-2,5.75,5.75,0,0,1,2-1.46A6.34,6.34,0,0,1,133.44,398.87Z"/><path class="cls-1" d="M148.71,411.9a6.62,6.62,0,0,1-2.32-.41,5.14,5.14,0,0,1-1.88-1.16l.87-1.56a5.28,5.28,0,0,0,3.24,1.34,2.17,2.17,0,0,0,1.13-.26.85.85,0,0,0,.42-.75.66.66,0,0,0,0-.21.48.48,0,0,0-.08-.18l-.12-.14a.62.62,0,0,0-.19-.13l-.22-.11-.28-.1-.3-.1-.37-.1-.39-.12c-.46-.15-.84-.28-1.14-.4a6.24,6.24,0,0,1-.87-.41,2.52,2.52,0,0,1-.65-.5,2.16,2.16,0,0,1-.36-.63,2.31,2.31,0,0,1-.14-.82,2.68,2.68,0,0,1,1.05-2.22,4.36,4.36,0,0,1,2.78-.82,5,5,0,0,1,3.54,1.33l-1,1.53a4.47,4.47,0,0,0-2.68-1.08,2.13,2.13,0,0,0-1,.23.78.78,0,0,0-.42.75.77.77,0,0,0,.37.69,6.11,6.11,0,0,0,1.35.49c.52.16.93.29,1.24.4a8,8,0,0,1,.94.4,2.71,2.71,0,0,1,.74.52,2.25,2.25,0,0,1,.41.65,2.49,2.49,0,0,1,.16.9,2.61,2.61,0,0,1-1,2.18A4.37,4.37,0,0,1,148.71,411.9Z"/><path class="cls-1" d="M160.17,411.24a6.56,6.56,0,0,1-2.66.64,3.12,3.12,0,0,1-.95-.13,2.4,2.4,0,0,1-.78-.4,1.84,1.84,0,0,1-.53-.73,2.67,2.67,0,0,1-.2-1.06v-5.41h-1.24v-1.86h1.24v-3.06h2.42v3.06h2v1.86h-2v4.6q0,.93.9.93a3.6,3.6,0,0,0,1.32-.35Z"/><path class="cls-1" d="M161.23,408.94a2.63,2.63,0,0,1,1.12-2.22,4.72,4.72,0,0,1,2.93-.85,6,6,0,0,1,2.27.38v-.5a1.76,1.76,0,0,0-.54-1.39,2.27,2.27,0,0,0-1.57-.48,4.13,4.13,0,0,0-1.45.25,8.07,8.07,0,0,0-1.5.81l-.78-1.58a7.2,7.2,0,0,1,4-1.24,4.48,4.48,0,0,1,3.14,1A3.66,3.66,0,0,1,170,406v3a.83.83,0,0,0,.14.54.55.55,0,0,0,.44.19v2a5.45,5.45,0,0,1-1,.13,1.64,1.64,0,0,1-1.08-.31,1.25,1.25,0,0,1-.47-.81l-.05-.48a4.22,4.22,0,0,1-1.53,1.21,4.35,4.35,0,0,1-1.88.44,3.32,3.32,0,0,1-2.34-.85A2.72,2.72,0,0,1,161.23,408.94Zm5.87.48a1.24,1.24,0,0,0,.45-.83v-.95a4.83,4.83,0,0,0-1.89-.38,2.63,2.63,0,0,0-1.55.41,1.23,1.23,0,0,0-.6,1.06,1.26,1.26,0,0,0,.46,1,1.72,1.72,0,0,0,1.22.42,2.72,2.72,0,0,0,1.05-.2A2.54,2.54,0,0,0,167.1,409.42Z"/><path class="cls-1" d="M181.42,411.72H179v-5.29c0-1.45-.5-2.18-1.5-2.18a2.39,2.39,0,0,0-1.46.56,2.92,2.92,0,0,0-1,1.4v5.51h-2.41v-9.43h2.18V404a3.67,3.67,0,0,1,1.53-1.41,4.78,4.78,0,0,1,2.22-.51,3.21,3.21,0,0,1,1.2.22,2.25,2.25,0,0,1,.82.56,2.88,2.88,0,0,1,.5.84,4.72,4.72,0,0,1,.25,1,7.4,7.4,0,0,1,.07,1.09Z"/><path class="cls-1" d="M183.39,407a5.6,5.6,0,0,1,.53-2.46,4.33,4.33,0,0,1,1.51-1.76,3.78,3.78,0,0,1,2.17-.66,3.6,3.6,0,0,1,1.86.5,3.77,3.77,0,0,1,1.33,1.33v-5.37h2.41V409a.84.84,0,0,0,.13.54.53.53,0,0,0,.43.19v2a5.86,5.86,0,0,1-1,.13,1.74,1.74,0,0,1-1.07-.32,1.22,1.22,0,0,1-.48-.85l0-.59a3.47,3.47,0,0,1-1.4,1.34,4,4,0,0,1-1.88.47,4.23,4.23,0,0,1-2.31-.65,4.48,4.48,0,0,1-1.6-1.77A5.39,5.39,0,0,1,183.39,407Zm7.4,1.27V406a3,3,0,0,0-1-1.31,2.37,2.37,0,0,0-1.43-.53,2.21,2.21,0,0,0-1.77.86,3.14,3.14,0,0,0-.7,2,2.85,2.85,0,0,0,.74,2,2.48,2.48,0,0,0,3.25.35A2.3,2.3,0,0,0,190.79,408.27Z"/><path class="cls-1" d="M195.37,408.94a2.63,2.63,0,0,1,1.12-2.22,4.72,4.72,0,0,1,2.93-.85,6,6,0,0,1,2.27.38v-.5a1.79,1.79,0,0,0-.53-1.39,2.31,2.31,0,0,0-1.58-.48,4,4,0,0,0-1.44.25,7.82,7.82,0,0,0-1.51.81l-.78-1.58a7.2,7.2,0,0,1,4-1.24,4.48,4.48,0,0,1,3.14,1A3.66,3.66,0,0,1,204.1,406v3a.84.84,0,0,0,.13.54.56.56,0,0,0,.45.19v2a5.65,5.65,0,0,1-1,.13,1.65,1.65,0,0,1-1.08-.31,1.29,1.29,0,0,1-.47-.81l0-.48a4.22,4.22,0,0,1-1.53,1.21,4.34,4.34,0,0,1-1.87.44,3.33,3.33,0,0,1-2.35-.85A2.72,2.72,0,0,1,195.37,408.94Zm5.87.48a1.24,1.24,0,0,0,.45-.83v-.95a4.83,4.83,0,0,0-1.89-.38,2.63,2.63,0,0,0-1.55.41,1.23,1.23,0,0,0-.6,1.06,1.29,1.29,0,0,0,.46,1,1.72,1.72,0,0,0,1.22.42,2.72,2.72,0,0,0,1-.2A2.54,2.54,0,0,0,201.24,409.42Z"/><path class="cls-1" d="M212.41,404.38a4.58,4.58,0,0,0-2,.43A2.63,2.63,0,0,0,209.2,406v5.7h-2.4v-9.43H209v2a4.35,4.35,0,0,1,1.28-1.52,2.84,2.84,0,0,1,1.64-.61,4.06,4.06,0,0,1,.48,0Z"/><path class="cls-1" d="M213.54,407a5.75,5.75,0,0,1,.53-2.46,4.33,4.33,0,0,1,1.51-1.76,3.79,3.79,0,0,1,2.18-.66,3.59,3.59,0,0,1,1.85.5,3.69,3.69,0,0,1,1.33,1.33v-5.37h2.42V409a.92.92,0,0,0,.12.54.53.53,0,0,0,.43.19v2a5.86,5.86,0,0,1-1,.13,1.76,1.76,0,0,1-1.07-.32,1.22,1.22,0,0,1-.48-.85l0-.59a3.47,3.47,0,0,1-1.4,1.34,4,4,0,0,1-1.88.47,4.28,4.28,0,0,1-2.31-.65,4.48,4.48,0,0,1-1.6-1.77A5.39,5.39,0,0,1,213.54,407Zm7.4,1.27V406a2.91,2.91,0,0,0-1-1.31,2.35,2.35,0,0,0-1.43-.53,2.19,2.19,0,0,0-1.76.86,3.09,3.09,0,0,0-.71,2,2.81,2.81,0,0,0,.75,2,2.43,2.43,0,0,0,1.86.8,2.46,2.46,0,0,0,1.38-.45A2.25,2.25,0,0,0,220.94,408.27Z"/><path class="cls-1" d="M339.19,374.81l3.15,6,3.2-6h2.68l-4.64,8.31v4.47h-2.46v-4.5l-4.63-8.28Z"/><path class="cls-1" d="M352.57,387.77a5.19,5.19,0,0,1-2.63-.67,4.57,4.57,0,0,1-1.75-1.77,4.88,4.88,0,0,1-.6-2.4,5.12,5.12,0,0,1,.6-2.46,4.52,4.52,0,0,1,1.75-1.8,5.5,5.5,0,0,1,4.71-.28,4.34,4.34,0,0,1,1.55,1.07,4.71,4.71,0,0,1,1,1.54,4.92,4.92,0,0,1,.34,1.83,5.61,5.61,0,0,1-.05.81h-7.3a2.49,2.49,0,0,0,2.51,2.37,2.71,2.71,0,0,0,1.36-.36,1.81,1.81,0,0,0,.87-.93l2.06.58a4,4,0,0,1-1.69,1.79A5.24,5.24,0,0,1,352.57,387.77Zm-2.47-5.66H355a2.6,2.6,0,0,0-.8-1.71,2.46,2.46,0,0,0-3.35,0A2.58,2.58,0,0,0,350.1,382.11Z"/><path class="cls-1" d="M362.89,387.77a6.62,6.62,0,0,1-2.32-.41,5.1,5.1,0,0,1-1.87-1.16l.86-1.56A5.27,5.27,0,0,0,362.8,386a2.06,2.06,0,0,0,1.13-.26.82.82,0,0,0,.42-.75,1.36,1.36,0,0,0,0-.21.56.56,0,0,0-.09-.17l-.12-.15a.62.62,0,0,0-.19-.12l-.22-.11a1.62,1.62,0,0,0-.28-.1l-.3-.1-.36-.11-.4-.11c-.46-.15-.84-.28-1.14-.4s-.58-.26-.86-.41a2.23,2.23,0,0,1-.65-.51,1.83,1.83,0,0,1-.37-.62,2.31,2.31,0,0,1-.14-.82,2.68,2.68,0,0,1,1.05-2.22A4.36,4.36,0,0,1,363,378a5,5,0,0,1,3.54,1.34l-1,1.53a4.45,4.45,0,0,0-2.68-1.08,2,2,0,0,0-1,.23.78.78,0,0,0-.42.74.77.77,0,0,0,.37.69,6,6,0,0,0,1.35.5c.52.15.93.28,1.24.39a9.27,9.27,0,0,1,.94.41,2.71,2.71,0,0,1,.74.51,2.17,2.17,0,0,1,.41.66,2.29,2.29,0,0,1,.16.9,2.6,2.6,0,0,1-1,2.18A4.37,4.37,0,0,1,362.89,387.77Z"/><path class="cls-1" d="M369,389.66l.49-2.14h-.76V385h2.08v2.52l-.74,2.14Z"/><path class="cls-1" d="M389.34,378.16h2.28l-3.93,9.43h-2l-1.59-4-1.54,4h-2l-3.93-9.43h2.27l2.81,7.13,1.1-3.08-1.65-4h2l1,2.88,1-2.88h2l-1.63,4,1.11,3.08Z"/><path class="cls-1" d="M397.24,387.77a5.16,5.16,0,0,1-2.62-.67,4.51,4.51,0,0,1-1.75-1.77,4.88,4.88,0,0,1-.6-2.4,5.12,5.12,0,0,1,.6-2.46,4.45,4.45,0,0,1,1.75-1.8,5.48,5.48,0,0,1,4.7-.28,4.38,4.38,0,0,1,1.56,1.07,4.88,4.88,0,0,1,1,1.54,5.12,5.12,0,0,1,.33,1.83,4.46,4.46,0,0,1-.05.81h-7.29a2.44,2.44,0,0,0,.8,1.72,2.49,2.49,0,0,0,1.7.65,2.75,2.75,0,0,0,1.37-.36,1.84,1.84,0,0,0,.86-.93l2.07.58a4.1,4.1,0,0,1-1.69,1.79A5.31,5.31,0,0,1,397.24,387.77Zm-2.47-5.66h4.93a2.59,2.59,0,0,0-.79-1.71,2.46,2.46,0,0,0-3.35,0A2.55,2.55,0,0,0,394.77,382.11Z"/><path class="cls-1" d="M408.77,384.06v-5.9h2.41v5.38c0,1.45.52,2.18,1.56,2.18a2.43,2.43,0,0,0,1.38-.44,3.23,3.23,0,0,0,1.06-1.28v-5.84h2.4v6.73a.87.87,0,0,0,.14.55.59.59,0,0,0,.44.19v2a5.85,5.85,0,0,1-1,.11,1.73,1.73,0,0,1-1.06-.3,1.14,1.14,0,0,1-.47-.82l0-.76a4.07,4.07,0,0,1-1.61,1.45,4.83,4.83,0,0,1-2.19.5,2.69,2.69,0,0,1-2.22-.95A4.33,4.33,0,0,1,408.77,384.06Z"/><path class="cls-1" d="M423.9,387.77a6.62,6.62,0,0,1-2.32-.41,5.14,5.14,0,0,1-1.88-1.16l.87-1.56a5.27,5.27,0,0,0,3.24,1.33,2.08,2.08,0,0,0,1.13-.26.82.82,0,0,0,.42-.75.71.71,0,0,0,0-.21.38.38,0,0,0-.08-.17l-.12-.15a.62.62,0,0,0-.19-.12l-.22-.11-.28-.1-.3-.1-.37-.11-.39-.11c-.46-.15-.84-.28-1.14-.4s-.58-.26-.87-.41a2.54,2.54,0,0,1-.65-.51,2,2,0,0,1-.36-.62,2.31,2.31,0,0,1-.14-.82,2.68,2.68,0,0,1,1-2.22,4.36,4.36,0,0,1,2.78-.83,5,5,0,0,1,3.54,1.34l-1,1.53a4.47,4.47,0,0,0-2.68-1.08,2,2,0,0,0-1,.23.78.78,0,0,0-.42.74.77.77,0,0,0,.37.69,6,6,0,0,0,1.35.5c.52.15.93.28,1.24.39s.61.25.94.41a2.71,2.71,0,0,1,.74.51,2.17,2.17,0,0,1,.41.66,2.49,2.49,0,0,1,.16.9,2.63,2.63,0,0,1-1,2.18A4.37,4.37,0,0,1,423.9,387.77Z"/><path class="cls-1" d="M434.14,387.77a5.19,5.19,0,0,1-2.63-.67,4.57,4.57,0,0,1-1.75-1.77,4.88,4.88,0,0,1-.6-2.4,5.12,5.12,0,0,1,.6-2.46,4.52,4.52,0,0,1,1.75-1.8,5.5,5.5,0,0,1,4.71-.28,4.34,4.34,0,0,1,1.55,1.07,4.71,4.71,0,0,1,1,1.54,4.92,4.92,0,0,1,.34,1.83,5.61,5.61,0,0,1-.05.81h-7.3a2.49,2.49,0,0,0,2.51,2.37,2.71,2.71,0,0,0,1.36-.36,1.81,1.81,0,0,0,.87-.93l2.06.58a4,4,0,0,1-1.69,1.79A5.27,5.27,0,0,1,434.14,387.77Zm-2.47-5.66h4.93a2.6,2.6,0,0,0-.8-1.71,2.46,2.46,0,0,0-3.35,0A2.58,2.58,0,0,0,431.67,382.11Z"/><path class="cls-1" d="M445.15,382.89a4.9,4.9,0,0,1,.36-1.87,4.78,4.78,0,0,1,1-1.56,4.42,4.42,0,0,1,1.57-1.07,5.18,5.18,0,0,1,2.06-.4,5.07,5.07,0,0,1,2.63.68,4.61,4.61,0,0,1,1.72,1.79,5.13,5.13,0,0,1-.72,5.84,4.47,4.47,0,0,1-1.56,1.07,5.38,5.38,0,0,1-2.07.4,5.44,5.44,0,0,1-1.69-.26,4.64,4.64,0,0,1-2.4-1.79,4.44,4.44,0,0,1-.65-1.33A5.44,5.44,0,0,1,445.15,382.89Zm5,2.83a2.22,2.22,0,0,0,1.75-.81,3,3,0,0,0,.71-2,2.88,2.88,0,0,0-.71-2,2.21,2.21,0,0,0-1.75-.8,2.26,2.26,0,0,0-1.76.81,3.26,3.26,0,0,0,0,4.06A2.26,2.26,0,0,0,450.11,385.72Z"/><path class="cls-1" d="M457,384.06v-5.9h2.41v5.38c0,1.45.52,2.18,1.56,2.18a2.43,2.43,0,0,0,1.38-.44,3.15,3.15,0,0,0,1.06-1.28v-5.84h2.41v6.73a.87.87,0,0,0,.13.55.63.63,0,0,0,.45.19v2a6.05,6.05,0,0,1-1.05.11,1.75,1.75,0,0,1-1.06-.3,1.14,1.14,0,0,1-.47-.82l0-.76a4,4,0,0,1-1.61,1.45,4.83,4.83,0,0,1-2.19.5,2.66,2.66,0,0,1-2.21-.95A4.27,4.27,0,0,1,457,384.06Z"/><path class="cls-1" d="M474.29,380.24a4.58,4.58,0,0,0-2,.44,2.56,2.56,0,0,0-1.23,1.2v5.71h-2.4v-9.43h2.21v2a4.4,4.4,0,0,1,1.28-1.53,2.92,2.92,0,0,1,1.64-.6h.48Z"/><path class="cls-1" d="M344.21,406.66a5.09,5.09,0,0,1,.35-1.87,5,5,0,0,1,1-1.56,4.33,4.33,0,0,1,1.57-1.07,5.32,5.32,0,0,1,2.06-.39,5,5,0,0,1,2.62.68,4.52,4.52,0,0,1,1.72,1.78,5.14,5.14,0,0,1,.59,2.43,5.29,5.29,0,0,1-.34,1.86,4.82,4.82,0,0,1-1,1.56,4.4,4.4,0,0,1-1.56,1.06,5.12,5.12,0,0,1-2.06.4,5.5,5.5,0,0,1-1.7-.26,4.31,4.31,0,0,1-1.38-.72,5.13,5.13,0,0,1-1-1.06,4.73,4.73,0,0,1-.64-1.34A5,5,0,0,1,344.21,406.66Zm5,2.83a2.22,2.22,0,0,0,1.75-.81,3,3,0,0,0,.71-2,3,3,0,0,0-.71-2,2.32,2.32,0,0,0-3.51,0,3,3,0,0,0-.71,2,2.91,2.91,0,0,0,.71,2A2.25,2.25,0,0,0,349.17,409.49Z"/><path class="cls-1" d="M367.54,401.93h2.28l-3.93,9.43h-2l-1.59-4.05-1.54,4.05h-2l-3.93-9.43H357l2.82,7.13L361,406l-1.65-4h2l1,2.88,1-2.88h2l-1.63,4,1.11,3.08Z"/><path class="cls-1" d="M380.15,411.36h-2.4v-5.29c0-1.45-.5-2.18-1.5-2.18a2.35,2.35,0,0,0-1.47.57,2.73,2.73,0,0,0-1,1.39v5.51h-2.41v-9.43h2.18v1.75a3.62,3.62,0,0,1,1.52-1.4,4.83,4.83,0,0,1,2.22-.51,3.14,3.14,0,0,1,1.2.21,2.21,2.21,0,0,1,.83.56,2.66,2.66,0,0,1,.49.84,4.76,4.76,0,0,1,.26,1,9.18,9.18,0,0,1,.06,1.09Z"/><path class="cls-1" d="M390.94,411.54a6.66,6.66,0,0,1-2.32-.41,5,5,0,0,1-1.87-1.16l.86-1.56a5.31,5.31,0,0,0,3.24,1.34,2.15,2.15,0,0,0,1.13-.26.85.85,0,0,0,.42-.76,1.23,1.23,0,0,0,0-.2.76.76,0,0,0-.09-.18l-.12-.14a.56.56,0,0,0-.18-.13l-.22-.11-.28-.1-.31-.1-.36-.1-.4-.12c-.46-.15-.84-.28-1.14-.4a6.13,6.13,0,0,1-.86-.41,2.57,2.57,0,0,1-.65-.5,2.13,2.13,0,0,1-.37-.62,2.37,2.37,0,0,1-.13-.83,2.7,2.7,0,0,1,1-2.22,4.38,4.38,0,0,1,2.78-.82,5,5,0,0,1,3.54,1.33l-1,1.53a4.47,4.47,0,0,0-2.68-1.08,2.18,2.18,0,0,0-1.05.23.78.78,0,0,0-.41.75.75.75,0,0,0,.37.69,5.79,5.79,0,0,0,1.34.49l1.24.39c.3.11.62.25.95.41a2.64,2.64,0,0,1,.73.52,2,2,0,0,1,.41.65,2.29,2.29,0,0,1,.16.9,2.62,2.62,0,0,1-1,2.18A4.42,4.42,0,0,1,390.94,411.54Z"/><path class="cls-1" d="M402.4,410.88a6.56,6.56,0,0,1-2.66.64,3.16,3.16,0,0,1-.95-.13,2.35,2.35,0,0,1-.77-.4,1.77,1.77,0,0,1-.54-.73,2.64,2.64,0,0,1-.19-1.06v-5.41h-1.24v-1.86h1.24v-3.06h2.42v3.06h2v1.86h-2v4.6c0,.62.31.92.89.92a3.55,3.55,0,0,0,1.32-.34Z"/><path class="cls-1" d="M403.46,408.58a2.63,2.63,0,0,1,1.12-2.22,4.72,4.72,0,0,1,2.93-.85,5.82,5.82,0,0,1,2.27.38v-.5a1.79,1.79,0,0,0-.53-1.39,2.3,2.3,0,0,0-1.58-.49,4.13,4.13,0,0,0-1.44.26,7.49,7.49,0,0,0-1.5.81l-.79-1.58a7.19,7.19,0,0,1,4-1.23,4.52,4.52,0,0,1,3.15,1,3.69,3.69,0,0,1,1.12,2.88v3a.85.85,0,0,0,.13.55.63.63,0,0,0,.45.19v2a4.88,4.88,0,0,1-1,.13,1.73,1.73,0,0,1-1.08-.31,1.29,1.29,0,0,1-.47-.81l-.05-.48a4.11,4.11,0,0,1-1.52,1.21,4.38,4.38,0,0,1-1.88.44,3.37,3.37,0,0,1-2.35-.84A2.75,2.75,0,0,1,403.46,408.58Zm5.87.48a1.24,1.24,0,0,0,.45-.83v-1a4.83,4.83,0,0,0-1.89-.38,2.65,2.65,0,0,0-1.55.41,1.23,1.23,0,0,0-.59,1.07,1.29,1.29,0,0,0,.45,1,1.74,1.74,0,0,0,1.22.42,2.92,2.92,0,0,0,1.05-.2A2.44,2.44,0,0,0,409.33,409.06Z"/><path class="cls-1" d="M423.65,411.36h-2.41v-5.29c0-1.45-.5-2.18-1.49-2.18a2.35,2.35,0,0,0-1.47.57,2.73,2.73,0,0,0-1,1.39v5.51h-2.41v-9.43h2.18v1.75a3.62,3.62,0,0,1,1.52-1.4,4.83,4.83,0,0,1,2.22-.51,3.14,3.14,0,0,1,1.2.21,2.17,2.17,0,0,1,.82.56,2.68,2.68,0,0,1,.5.84,4.19,4.19,0,0,1,.25,1,7.4,7.4,0,0,1,.07,1.09Z"/><path class="cls-1" d="M425.62,406.64a5.61,5.61,0,0,1,.54-2.46,4.3,4.3,0,0,1,1.5-1.76,3.8,3.8,0,0,1,2.18-.65,3.58,3.58,0,0,1,1.85.49,3.74,3.74,0,0,1,1.33,1.32v-5.36h2.42v10.44a.93.93,0,0,0,.12.55.58.58,0,0,0,.43.19v2a5,5,0,0,1-1,.13,1.79,1.79,0,0,1-1.07-.32,1.17,1.17,0,0,1-.47-.85l0-.59a3.47,3.47,0,0,1-1.4,1.34,4,4,0,0,1-1.88.47,4.28,4.28,0,0,1-2.31-.65,4.49,4.49,0,0,1-1.6-1.77A5.42,5.42,0,0,1,425.62,406.64Zm7.4,1.27v-2.25a2.91,2.91,0,0,0-1-1.31,2.35,2.35,0,0,0-1.43-.53,2.2,2.2,0,0,0-1.76.86,3.1,3.1,0,0,0-.71,2,2.81,2.81,0,0,0,.75,2,2.47,2.47,0,0,0,3.24.35A2.25,2.25,0,0,0,433,407.91Z"/><path class="cls-1" d="M437.6,408.58a2.64,2.64,0,0,1,1.13-2.22,4.69,4.69,0,0,1,2.92-.85,5.79,5.79,0,0,1,2.27.38v-.5a1.79,1.79,0,0,0-.53-1.39,2.3,2.3,0,0,0-1.58-.49,4.13,4.13,0,0,0-1.44.26,7.49,7.49,0,0,0-1.5.81l-.79-1.58a7.2,7.2,0,0,1,4-1.23,4.51,4.51,0,0,1,3.14,1,3.66,3.66,0,0,1,1.12,2.88v3a.85.85,0,0,0,.13.55.63.63,0,0,0,.45.19v2a4.88,4.88,0,0,1-1,.13,1.73,1.73,0,0,1-1.08-.31,1.29,1.29,0,0,1-.47-.81l-.05-.48a4.11,4.11,0,0,1-1.52,1.21,4.38,4.38,0,0,1-1.88.44,3.38,3.38,0,0,1-2.35-.84A2.75,2.75,0,0,1,437.6,408.58Zm5.87.48a1.24,1.24,0,0,0,.45-.83v-1a4.76,4.76,0,0,0-1.89-.38,2.65,2.65,0,0,0-1.55.41,1.25,1.25,0,0,0-.59,1.07,1.29,1.29,0,0,0,.45,1,1.77,1.77,0,0,0,1.23.42,3,3,0,0,0,1.05-.2A2.49,2.49,0,0,0,443.47,409.06Z"/><path class="cls-1" d="M454.65,404a4.52,4.52,0,0,0-2,.44,2.5,2.5,0,0,0-1.22,1.2v5.7H449v-9.43h2.21v2a4.4,4.4,0,0,1,1.28-1.53,2.94,2.94,0,0,1,1.64-.61,2.72,2.72,0,0,1,.49,0Z"/><path class="cls-1" d="M455.77,406.64a5.61,5.61,0,0,1,.54-2.46,4.33,4.33,0,0,1,1.51-1.76,3.75,3.75,0,0,1,2.17-.65,3.56,3.56,0,0,1,1.85.49,3.74,3.74,0,0,1,1.33,1.32v-5.36h2.42v10.44a.93.93,0,0,0,.12.55.58.58,0,0,0,.43.19v2a5,5,0,0,1-1,.13,1.74,1.74,0,0,1-1.07-.32,1.15,1.15,0,0,1-.48-.85l0-.59a3.51,3.51,0,0,1-1.39,1.34,4,4,0,0,1-1.89.47,4.28,4.28,0,0,1-2.31-.65,4.49,4.49,0,0,1-1.6-1.77A5.42,5.42,0,0,1,455.77,406.64Zm7.4,1.27v-2.25a3,3,0,0,0-1-1.31,2.39,2.39,0,0,0-1.43-.53,2.21,2.21,0,0,0-1.77.86,3.09,3.09,0,0,0-.7,2,2.8,2.8,0,0,0,.74,2,2.47,2.47,0,0,0,3.24.35A2.25,2.25,0,0,0,463.17,407.91Z"/><path class="cls-1" d="M597.41,379.74V388h-2.48V375.17h2l6.6,8.42v-8.4H606V388h-2.06Z"/><path class="cls-1" d="M608.11,383.25a5.09,5.09,0,0,1,.35-1.87,4.81,4.81,0,0,1,1-1.56,4.42,4.42,0,0,1,1.57-1.07,5.18,5.18,0,0,1,2.06-.4,5,5,0,0,1,2.62.68,4.57,4.57,0,0,1,1.73,1.79,5.33,5.33,0,0,1,.24,4.29,4.93,4.93,0,0,1-1,1.55,4.47,4.47,0,0,1-1.56,1.07,5.37,5.37,0,0,1-2.07.39,5.55,5.55,0,0,1-1.7-.25,4.76,4.76,0,0,1-1.38-.72,4.94,4.94,0,0,1-1-1.07,4.67,4.67,0,0,1-.64-1.33A5.09,5.09,0,0,1,608.11,383.25Zm5,2.83a2.22,2.22,0,0,0,1.75-.81,3,3,0,0,0,.71-2,3,3,0,0,0-.71-2,2.32,2.32,0,0,0-3.51,0,3.26,3.26,0,0,0,0,4.06A2.26,2.26,0,0,0,613.07,386.08Z"/><path class="cls-1" d="M620.09,390l.48-2.14h-.76v-2.52h2.09v2.52l-.74,2.14Z"/><path class="cls-1" d="M631.37,386.31V388h-2.11V374.81h2.4v5.36a3.59,3.59,0,0,1,1.34-1.34,3.76,3.76,0,0,1,1.91-.48,3.66,3.66,0,0,1,2.15.68,4.4,4.4,0,0,1,1.46,1.8,5.8,5.8,0,0,1,.51,2.44,5.31,5.31,0,0,1-.57,2.46,4.34,4.34,0,0,1-1.59,1.75,4.12,4.12,0,0,1-2.25.64,3.78,3.78,0,0,1-1.91-.47A3.45,3.45,0,0,1,631.37,386.31Zm5.19-3a3.09,3.09,0,0,0-.7-2,2.19,2.19,0,0,0-1.76-.85,2.23,2.23,0,0,0-1.43.52,3.34,3.34,0,0,0-1,1.32v2.25a2.17,2.17,0,0,0,.91,1.13,2.41,2.41,0,0,0,1.38.45,2.38,2.38,0,0,0,1.87-.82A2.84,2.84,0,0,0,636.56,383.29Z"/><path class="cls-1" d="M641,384.43v-5.91h2.4v5.38c0,1.45.53,2.18,1.57,2.18a2.43,2.43,0,0,0,1.38-.44,3.15,3.15,0,0,0,1-1.28v-5.84h2.41v6.73a.94.94,0,0,0,.13.55.63.63,0,0,0,.45.19v2a5.77,5.77,0,0,1-1,.1,1.73,1.73,0,0,1-1.06-.29,1.11,1.11,0,0,1-.47-.82l-.06-.76a4,4,0,0,1-1.6,1.45,4.82,4.82,0,0,1-2.19.49,2.7,2.7,0,0,1-2.22-.93A4.36,4.36,0,0,1,641,384.43Z"/><path class="cls-1" d="M658.3,387.47a6.73,6.73,0,0,1-2.66.64,3.46,3.46,0,0,1-.95-.13,2.62,2.62,0,0,1-.78-.4,1.75,1.75,0,0,1-.53-.73,2.67,2.67,0,0,1-.2-1.06v-5.42h-1.24v-1.85h1.24v-3.06h2.42v3.06h2v1.85h-2V385c0,.61.32.92.9.92a3.55,3.55,0,0,0,1.32-.34Z"/><path class="cls-1" d="M676,378.52h2.28L674.32,388h-2l-1.58-4.05L669.17,388h-2l-3.92-9.43h2.26l2.82,7.13,1.09-3.08-1.64-4h2l1,2.88,1-2.88h2l-1.63,4,1.11,3.08Z"/><path class="cls-1" d="M683.87,388.12a5.21,5.21,0,0,1-2.63-.66,4.69,4.69,0,0,1-1.75-1.76,5.06,5.06,0,0,1-.59-2.41,5.2,5.2,0,0,1,.59-2.46,4.58,4.58,0,0,1,1.75-1.8,5.5,5.5,0,0,1,4.71-.28,4.34,4.34,0,0,1,1.55,1.07,4.55,4.55,0,0,1,1,1.54,4.93,4.93,0,0,1,.34,1.84,5.56,5.56,0,0,1,0,.8h-7.3a2.49,2.49,0,0,0,2.51,2.37,2.75,2.75,0,0,0,1.37-.36,1.87,1.87,0,0,0,.86-.93l2.07.58a4.1,4.1,0,0,1-1.69,1.79A5.3,5.3,0,0,1,683.87,388.12Zm-2.47-5.65h4.93a2.62,2.62,0,0,0-.79-1.71,2.47,2.47,0,0,0-3.36,0A2.58,2.58,0,0,0,681.4,382.47Z"/><path class="cls-1" d="M699,388.12a6.62,6.62,0,0,1-2.32-.4,5.28,5.28,0,0,1-1.88-1.16l.87-1.56a5.27,5.27,0,0,0,3.24,1.33,2.08,2.08,0,0,0,1.13-.26.82.82,0,0,0,.42-.75.64.64,0,0,0,0-.2.42.42,0,0,0-.08-.18,1.31,1.31,0,0,1-.12-.15.62.62,0,0,0-.19-.12l-.22-.11-.28-.1-.3-.1-.37-.11-.39-.12q-.69-.21-1.14-.39c-.3-.12-.58-.26-.87-.41a2.76,2.76,0,0,1-.65-.5,2.16,2.16,0,0,1-.36-.63,2.31,2.31,0,0,1-.14-.82,2.68,2.68,0,0,1,1.05-2.22,4.36,4.36,0,0,1,2.78-.83,5,5,0,0,1,3.54,1.34l-1,1.53a4.45,4.45,0,0,0-2.68-1.08,2.13,2.13,0,0,0-1,.23.78.78,0,0,0-.42.74.77.77,0,0,0,.37.69,6,6,0,0,0,1.35.5c.52.15.93.28,1.24.39a9.27,9.27,0,0,1,.94.41,2.71,2.71,0,0,1,.74.51,2.17,2.17,0,0,1,.41.66,2.49,2.49,0,0,1,.16.9,2.63,2.63,0,0,1-1,2.18A4.36,4.36,0,0,1,699,388.12Z"/><path class="cls-1" d="M713.58,388h-2.4v-5.29a2.68,2.68,0,0,0-.42-1.64,1.37,1.37,0,0,0-1.17-.54,2.28,2.28,0,0,0-1.39.56,2.9,2.9,0,0,0-1,1.4V388h-2.41V374.81h2.41v5.46a3.7,3.7,0,0,1,1.42-1.41,3.9,3.9,0,0,1,2-.51q3,0,3,3.71Z"/><path class="cls-1" d="M715.54,383.25a4.9,4.9,0,0,1,.35-1.87,4.78,4.78,0,0,1,1-1.56,4.42,4.42,0,0,1,1.57-1.07,5.18,5.18,0,0,1,2.06-.4,5.07,5.07,0,0,1,2.63.68,4.54,4.54,0,0,1,1.72,1.79,5.33,5.33,0,0,1,.24,4.29,4.93,4.93,0,0,1-1,1.55,4.29,4.29,0,0,1-1.56,1.07,5.37,5.37,0,0,1-2.07.39,5.44,5.44,0,0,1-1.69-.25,4.64,4.64,0,0,1-2.4-1.79,4.44,4.44,0,0,1-.65-1.33A5.43,5.43,0,0,1,715.54,383.25Zm5,2.83a2.26,2.26,0,0,0,1.76-.81,3,3,0,0,0,.7-2,2.94,2.94,0,0,0-.7-2,2.28,2.28,0,0,0-1.76-.8,2.24,2.24,0,0,0-1.75.81,2.93,2.93,0,0,0-.72,2,3,3,0,0,0,.71,2A2.26,2.26,0,0,0,720.49,386.08Z"/><path class="cls-1" d="M727.4,384.43v-5.91h2.41v5.38c0,1.45.52,2.18,1.57,2.18a2.48,2.48,0,0,0,1.38-.44,3.15,3.15,0,0,0,1-1.28v-5.84h2.41v6.73a.87.87,0,0,0,.13.55.63.63,0,0,0,.45.19v2a6,6,0,0,1-1,.1,1.77,1.77,0,0,1-1.06-.29,1.14,1.14,0,0,1-.47-.82l-.05-.76a4.08,4.08,0,0,1-1.61,1.45,4.77,4.77,0,0,1-2.19.49,2.68,2.68,0,0,1-2.21-.93A4.36,4.36,0,0,1,727.4,384.43Z"/><path class="cls-1" d="M739,374.81h2.41v10.12a1.41,1.41,0,0,0,.2.86.76.76,0,0,0,.61.24,2.67,2.67,0,0,0,1.13-.26l.33,1.84a6.12,6.12,0,0,1-2.3.48,2.38,2.38,0,0,1-1.75-.61,2.25,2.25,0,0,1-.63-1.71Z"/><path class="cls-1" d="M744.63,383.23a5.55,5.55,0,0,1,.54-2.46,4.42,4.42,0,0,1,1.51-1.77,3.82,3.82,0,0,1,2.17-.65,3.56,3.56,0,0,1,1.85.5,3.66,3.66,0,0,1,1.33,1.32v-5.36h2.42v10.44a1,1,0,0,0,.12.55.6.6,0,0,0,.43.19v2a5.52,5.52,0,0,1-1,.12,1.68,1.68,0,0,1-1.07-.32,1.11,1.11,0,0,1-.48-.85l0-.59a3.54,3.54,0,0,1-1.39,1.35,4,4,0,0,1-1.88.46,4.21,4.21,0,0,1-2.32-.65,4.4,4.4,0,0,1-1.59-1.77A5.23,5.23,0,0,1,744.63,383.23Zm7.4,1.27v-2.25a2.9,2.9,0,0,0-1-1.31,2.33,2.33,0,0,0-1.43-.53,2.18,2.18,0,0,0-1.77.86,3.07,3.07,0,0,0-.7,2,2.81,2.81,0,0,0,.74,2,2.44,2.44,0,0,0,1.87.81,2.35,2.35,0,0,0,1.37-.46A2.18,2.18,0,0,0,752,384.5Z"/><path class="cls-1" d="M612.62,410.09v1.63h-2.11V398.58h2.41V404a3.62,3.62,0,0,1,1.34-1.35,3.73,3.73,0,0,1,1.9-.48,3.64,3.64,0,0,1,2.15.68,4.4,4.4,0,0,1,1.46,1.8,5.84,5.84,0,0,1,.51,2.45,5.29,5.29,0,0,1-.57,2.45,4.37,4.37,0,0,1-1.59,1.76,4.07,4.07,0,0,1-2.25.64,3.79,3.79,0,0,1-1.91-.48A3.49,3.49,0,0,1,612.62,410.09Zm5.19-3a3,3,0,0,0-.7-2,2.2,2.2,0,0,0-1.76-.86,2.31,2.31,0,0,0-1.43.52,3.46,3.46,0,0,0-1,1.32v2.25a2.26,2.26,0,0,0,.9,1.14,2.53,2.53,0,0,0,1.38.44,2.41,2.41,0,0,0,1.87-.81A2.8,2.8,0,0,0,617.81,407.06Z"/><path class="cls-1" d="M626.74,411.9a5.06,5.06,0,0,1-2.62-.67,4.48,4.48,0,0,1-1.75-1.76,4.92,4.92,0,0,1-.6-2.41,5.15,5.15,0,0,1,.6-2.46,4.52,4.52,0,0,1,1.75-1.8,5.11,5.11,0,0,1,2.64-.68,5.29,5.29,0,0,1,2.06.4,4.42,4.42,0,0,1,1.56,1.07,5,5,0,0,1,1,1.54,5.13,5.13,0,0,1,.33,1.84,4.59,4.59,0,0,1,0,.81h-7.29a2.53,2.53,0,0,0,.81,1.72,2.44,2.44,0,0,0,1.69.64,2.85,2.85,0,0,0,1.37-.35,1.87,1.87,0,0,0,.86-.93l2.07.58a4.07,4.07,0,0,1-1.69,1.78A5.31,5.31,0,0,1,626.74,411.9Zm-2.47-5.65h4.94a2.7,2.7,0,0,0-.8-1.72,2.48,2.48,0,0,0-3.35,0A2.55,2.55,0,0,0,624.27,406.25Z"/><path class="cls-1" d="M644,411.24a6.56,6.56,0,0,1-2.66.64,3.12,3.12,0,0,1-1-.13,2.4,2.4,0,0,1-.78-.4,1.75,1.75,0,0,1-.53-.73,2.67,2.67,0,0,1-.2-1.06v-5.41h-1.24v-1.86h1.24v-3.06h2.42v3.06h2v1.86h-2v4.6q0,.93.9.93a3.6,3.6,0,0,0,1.32-.35Z"/><path class="cls-1" d="M651.33,404.38a4.58,4.58,0,0,0-2,.43,2.63,2.63,0,0,0-1.23,1.21v5.7h-2.4v-9.43h2.21v2a4.35,4.35,0,0,1,1.28-1.52,2.84,2.84,0,0,1,1.64-.61,4.06,4.06,0,0,1,.48,0Z"/><path class="cls-1" d="M652.42,408.94a2.64,2.64,0,0,1,1.13-2.22,4.7,4.7,0,0,1,2.93-.85,6,6,0,0,1,2.26.38v-.5a1.75,1.75,0,0,0-.53-1.39,2.28,2.28,0,0,0-1.58-.48,4.12,4.12,0,0,0-1.44.25,7.77,7.77,0,0,0-1.5.81l-.78-1.58a7.18,7.18,0,0,1,4-1.24,4.5,4.5,0,0,1,3.14,1,3.66,3.66,0,0,1,1.12,2.88v3a.91.91,0,0,0,.13.54.59.59,0,0,0,.45.19v2a5.55,5.55,0,0,1-1,.13,1.63,1.63,0,0,1-1.07-.31,1.21,1.21,0,0,1-.47-.81l-.06-.48a4.11,4.11,0,0,1-1.52,1.21,4.35,4.35,0,0,1-1.88.44,3.32,3.32,0,0,1-2.34-.85A2.69,2.69,0,0,1,652.42,408.94Zm5.87.48a1.24,1.24,0,0,0,.45-.83v-.95a4.76,4.76,0,0,0-1.89-.38,2.62,2.62,0,0,0-1.54.41,1.23,1.23,0,0,0-.6,1.06,1.26,1.26,0,0,0,.46,1,1.72,1.72,0,0,0,1.22.42,2.76,2.76,0,0,0,1.05-.2A2.4,2.4,0,0,0,658.29,409.42Z"/><path class="cls-1" d="M672.61,411.72h-2.4v-5.29c0-1.45-.5-2.18-1.5-2.18a2.4,2.4,0,0,0-1.47.56,2.9,2.9,0,0,0-1,1.4v5.51h-2.41v-9.43H666V404a3.61,3.61,0,0,1,1.53-1.41,4.78,4.78,0,0,1,2.22-.51,3.21,3.21,0,0,1,1.2.22,2.25,2.25,0,0,1,.82.56,2.66,2.66,0,0,1,.49.84,4.76,4.76,0,0,1,.26,1,9.18,9.18,0,0,1,.06,1.09Z"/><path class="cls-1" d="M678.64,411.9a6.62,6.62,0,0,1-2.32-.41,5.14,5.14,0,0,1-1.88-1.16l.87-1.56a5.28,5.28,0,0,0,3.24,1.34,2.17,2.17,0,0,0,1.13-.26.85.85,0,0,0,.42-.75.66.66,0,0,0,0-.21.48.48,0,0,0-.08-.18l-.12-.14a.62.62,0,0,0-.19-.13l-.22-.11-.28-.1-.3-.1-.37-.1-.39-.12c-.46-.15-.84-.28-1.14-.4a6.24,6.24,0,0,1-.87-.41,2.52,2.52,0,0,1-.65-.5,2.16,2.16,0,0,1-.36-.63,2.31,2.31,0,0,1-.14-.82,2.68,2.68,0,0,1,1-2.22,4.36,4.36,0,0,1,2.78-.82,5,5,0,0,1,3.54,1.33l-1,1.53a4.45,4.45,0,0,0-2.68-1.08,2.13,2.13,0,0,0-1,.23.78.78,0,0,0-.42.75.77.77,0,0,0,.37.69,6.11,6.11,0,0,0,1.35.49c.52.16.93.29,1.24.4a7.34,7.34,0,0,1,.94.4,2.71,2.71,0,0,1,.74.52,2.25,2.25,0,0,1,.41.65,2.49,2.49,0,0,1,.16.9,2.61,2.61,0,0,1-1,2.18A4.37,4.37,0,0,1,678.64,411.9Z"/><path class="cls-1" d="M683.85,408.94a2.63,2.63,0,0,1,1.12-2.22,4.72,4.72,0,0,1,2.93-.85,6,6,0,0,1,2.27.38v-.5a1.79,1.79,0,0,0-.53-1.39,2.3,2.3,0,0,0-1.58-.48,4.12,4.12,0,0,0-1.44.25,7.49,7.49,0,0,0-1.5.81l-.79-1.58a7.2,7.2,0,0,1,4-1.24,4.52,4.52,0,0,1,3.15,1,3.69,3.69,0,0,1,1.12,2.88v3a.84.84,0,0,0,.13.54.59.59,0,0,0,.45.19v2a5.65,5.65,0,0,1-1,.13,1.67,1.67,0,0,1-1.08-.31,1.29,1.29,0,0,1-.47-.81l-.05-.48a4.14,4.14,0,0,1-1.53,1.21,4.31,4.31,0,0,1-1.87.44,3.33,3.33,0,0,1-2.35-.85A2.72,2.72,0,0,1,683.85,408.94Zm5.87.48a1.24,1.24,0,0,0,.45-.83v-.95a4.83,4.83,0,0,0-1.89-.38,2.65,2.65,0,0,0-1.55.41,1.23,1.23,0,0,0-.6,1.06,1.29,1.29,0,0,0,.46,1,1.74,1.74,0,0,0,1.22.42,2.72,2.72,0,0,0,1.05-.2A2.44,2.44,0,0,0,689.72,409.42Z"/><path class="cls-1" d="M699.67,411.9a5.18,5.18,0,0,1-2.06-.4,4.64,4.64,0,0,1-1.59-1.07,4.85,4.85,0,0,1-1-1.56,4.94,4.94,0,0,1-.36-1.87,5.07,5.07,0,0,1,.59-2.42A4.64,4.64,0,0,1,697,402.8a5.14,5.14,0,0,1,2.64-.68,5,5,0,0,1,2.61.66,4.2,4.2,0,0,1,1.66,1.76l-2.36.72a2.12,2.12,0,0,0-.81-.79,2.24,2.24,0,0,0-1.11-.29,2.31,2.31,0,0,0-1.77.79,3.27,3.27,0,0,0,0,4.07,2.25,2.25,0,0,0,1.75.81,2.38,2.38,0,0,0,1.19-.31,1.87,1.87,0,0,0,.77-.81l2.35.73a4,4,0,0,1-1.63,1.77A5.19,5.19,0,0,1,699.67,411.9Z"/><path class="cls-1" d="M711.53,411.24a6.56,6.56,0,0,1-2.66.64,3.16,3.16,0,0,1-1-.13,2.4,2.4,0,0,1-.78-.4,1.84,1.84,0,0,1-.53-.73,2.68,2.68,0,0,1-.19-1.06v-5.41h-1.24v-1.86h1.24v-3.06h2.41v3.06h2v1.86h-2v4.6q0,.93.9.93a3.6,3.6,0,0,0,1.32-.35Z"/><path class="cls-1" d="M713.24,401v-2.39h2.41V401Zm0,10.75v-9.43h2.41v9.43Z"/><path class="cls-1" d="M727,411.72h-2.41v-5.29c0-1.45-.5-2.18-1.49-2.18a2.4,2.4,0,0,0-1.47.56,2.92,2.92,0,0,0-1,1.4v5.51h-2.4v-9.43h2.18V404a3.58,3.58,0,0,1,1.52-1.41,4.78,4.78,0,0,1,2.22-.51,3.13,3.13,0,0,1,1.2.22,2.17,2.17,0,0,1,.82.56,2.68,2.68,0,0,1,.5.84,4.72,4.72,0,0,1,.25,1,7.4,7.4,0,0,1,.07,1.09Z"/><path class="cls-1" d="M729,407a5.42,5.42,0,0,1,.55-2.46,4.37,4.37,0,0,1,1.56-1.76,4.11,4.11,0,0,1,2.28-.66,3.76,3.76,0,0,1,1.9.49,4.16,4.16,0,0,1,1.4,1.34v-1.66h2.11v9a4.16,4.16,0,0,1-.69,2.38,4.23,4.23,0,0,1-1.86,1.55,6.59,6.59,0,0,1-2.69.53,6.09,6.09,0,0,1-2.56-.5,5.35,5.35,0,0,1-1.86-1.47l1.31-1.27a4,4,0,0,0,1.37,1,4.16,4.16,0,0,0,1.74.38,3.49,3.49,0,0,0,1.08-.16,2.62,2.62,0,0,0,.89-.47,2,2,0,0,0,.62-.83,2.92,2.92,0,0,0,.23-1.18v-1.19a3.2,3.2,0,0,1-1.31,1.24,3.8,3.8,0,0,1-1.82.45,3.86,3.86,0,0,1-2.21-.66,4.26,4.26,0,0,1-1.51-1.74A5.23,5.23,0,0,1,729,407Zm7.38,1.27V406a2.91,2.91,0,0,0-1-1.33,2.4,2.4,0,0,0-1.45-.51,2.16,2.16,0,0,0-1.77.87,3.13,3.13,0,0,0-.68,2,2.76,2.76,0,0,0,.74,2,2.45,2.45,0,0,0,1.85.8,2.35,2.35,0,0,0,1.41-.46A2.51,2.51,0,0,0,736.41,408.27Z"/><path class="cls-1" d="M615.42,430.79a5.13,5.13,0,0,1,.35-1.87,4.85,4.85,0,0,1,1-1.56,4.42,4.42,0,0,1,1.56-1.07,5.37,5.37,0,0,1,2.07-.39,5,5,0,0,1,2.62.68,4.54,4.54,0,0,1,1.72,1.79,5.2,5.2,0,0,1,.24,4.28,4.8,4.8,0,0,1-1,1.56,4.42,4.42,0,0,1-1.56,1.07,5.32,5.32,0,0,1-2.06.39,5.22,5.22,0,0,1-1.7-.26,4.5,4.5,0,0,1-1.38-.71,5.18,5.18,0,0,1-1-1.07,4.63,4.63,0,0,1-.65-1.34A5.33,5.33,0,0,1,615.42,430.79Zm5,2.83a2.23,2.23,0,0,0,1.75-.8,3,3,0,0,0,.71-2,2.93,2.93,0,0,0-.71-2,2.23,2.23,0,0,0-1.75-.8,2.26,2.26,0,0,0-1.76.8,2.94,2.94,0,0,0-.71,2,3,3,0,0,0,.7,2A2.26,2.26,0,0,0,620.38,433.62Z"/><path class="cls-1" d="M636.14,435.5h-2.41v-5.29c0-1.46-.5-2.18-1.5-2.18a2.33,2.33,0,0,0-1.46.56,2.83,2.83,0,0,0-1,1.4v5.51h-2.41v-9.43h2.18v1.75a3.67,3.67,0,0,1,1.53-1.41,4.78,4.78,0,0,1,2.22-.51,3,3,0,0,1,1.2.22,2.23,2.23,0,0,1,.82.55,2.81,2.81,0,0,1,.5.85,4.49,4.49,0,0,1,.25,1,7.54,7.54,0,0,1,.07,1.1Z"/><path class="cls-1" d="M645.51,435.5,642,426.07h2.5l2.38,7.23,2.4-7.23h2.28l-3.45,9.43Z"/><path class="cls-1" d="M653.32,424.75v-2.39h2.4v2.39Zm0,10.75v-9.43h2.4v9.43Z"/><path class="cls-1" d="M662.73,435.67a5.12,5.12,0,0,1-2.63-.67,4.48,4.48,0,0,1-1.75-1.76,5,5,0,0,1-.59-2.4,5.27,5.27,0,0,1,.59-2.47,4.56,4.56,0,0,1,1.75-1.79,5.05,5.05,0,0,1,2.65-.68,5.32,5.32,0,0,1,2.06.39,4.47,4.47,0,0,1,1.55,1.07,4.69,4.69,0,0,1,1,1.55,4.92,4.92,0,0,1,.34,1.83,5.61,5.61,0,0,1,0,.81h-7.3a2.49,2.49,0,0,0,2.51,2.37,2.71,2.71,0,0,0,1.36-.36,1.85,1.85,0,0,0,.87-.93l2.07.58a4.17,4.17,0,0,1-1.7,1.79A5.24,5.24,0,0,1,662.73,435.67ZM660.26,430h4.93a2.64,2.64,0,0,0-.79-1.72,2.38,2.38,0,0,0-1.69-.65,2.35,2.35,0,0,0-1.67.66A2.58,2.58,0,0,0,660.26,430Z"/><path class="cls-1" d="M681,426.07h2.29l-3.94,9.43h-2l-1.58-4.05-1.55,4.05h-2l-3.93-9.43h2.27l2.81,7.12,1.1-3.07-1.64-4h2l1,2.89,1-2.89h2l-1.64,4,1.12,3.07Z"/><path class="cls-1" d="M684,432.71a2.66,2.66,0,0,1,1.12-2.22,4.78,4.78,0,0,1,2.93-.85,6,6,0,0,1,2.27.38v-.5a1.8,1.8,0,0,0-.53-1.39,2.3,2.3,0,0,0-1.58-.48,3.84,3.84,0,0,0-1.44.26,7.72,7.72,0,0,0-1.51.8l-.78-1.58a7.19,7.19,0,0,1,4-1.23,4.52,4.52,0,0,1,3.14,1,3.66,3.66,0,0,1,1.13,2.88v3a.87.87,0,0,0,.13.55.61.61,0,0,0,.45.19v2a5.52,5.52,0,0,1-1,.12,1.71,1.71,0,0,1-1.08-.3,1.31,1.31,0,0,1-.47-.82l-.05-.48a4.25,4.25,0,0,1-1.53,1.22,4.33,4.33,0,0,1-1.87.43,3.37,3.37,0,0,1-2.35-.84A2.74,2.74,0,0,1,684,432.71Zm5.87.48a1.22,1.22,0,0,0,.45-.82v-1a5,5,0,0,0-1.89-.38,2.7,2.7,0,0,0-1.55.41,1.24,1.24,0,0,0-.6,1.07,1.32,1.32,0,0,0,.46,1,1.72,1.72,0,0,0,1.22.42,2.92,2.92,0,0,0,1.05-.2A2.55,2.55,0,0,0,689.84,433.19Z"/><path class="cls-1" d="M697.5,433.86v1.64h-2.1V422.36h2.4v5.36a3.69,3.69,0,0,1,1.34-1.35,3.86,3.86,0,0,1,1.91-.47,3.59,3.59,0,0,1,2.15.68,4.43,4.43,0,0,1,1.46,1.79,5.87,5.87,0,0,1,.51,2.45,5.31,5.31,0,0,1-.57,2.46A4.41,4.41,0,0,1,703,435a4.12,4.12,0,0,1-2.25.64,3.79,3.79,0,0,1-1.91-.48A3.45,3.45,0,0,1,697.5,433.86Zm5.2-3a3.13,3.13,0,0,0-.7-2,2.19,2.19,0,0,0-1.76-.85,2.28,2.28,0,0,0-1.43.51,3.48,3.48,0,0,0-1,1.32V432a2.19,2.19,0,0,0,.91,1.14,2.49,2.49,0,0,0,3.25-.37A2.84,2.84,0,0,0,702.7,430.84Z"/><path class="cls-1" d="M707.25,424.75v-2.39h2.41v2.39Zm0,10.75v-9.43h2.41v9.43Z"/><path class="cls-1" d="M712.27,422.36h2.41v10.11a1.37,1.37,0,0,0,.2.86.76.76,0,0,0,.61.24,2.62,2.62,0,0,0,1.13-.25l.33,1.83a5.08,5.08,0,0,1-1.12.36,6.44,6.44,0,0,1-1.18.13,2.38,2.38,0,0,1-1.75-.61,2.25,2.25,0,0,1-.63-1.71Z"/><path class="cls-1" d="M718.45,424.75v-2.39h2.4v2.39Zm0,10.75v-9.43h2.4v9.43Z"/><path class="cls-1" d="M729.13,435a6.55,6.55,0,0,1-2.66.65,3.21,3.21,0,0,1-1-.14,2.27,2.27,0,0,1-.77-.4,1.74,1.74,0,0,1-.54-.72,2.73,2.73,0,0,1-.19-1.07v-5.41h-1.24v-1.85H724V423h2.42v3.06h2v1.85h-2v4.61c0,.61.31.92.89.92a3.76,3.76,0,0,0,1.32-.34Z"/><path class="cls-1" d="M731,437.33a4.59,4.59,0,0,0,1.08.18,1,1,0,0,0,.8-.41,6.09,6.09,0,0,0,.66-1.6l-3.73-9.43h2.51l2.54,7,2.23-7h2.3l-4,11.3a3.24,3.24,0,0,1-1.19,1.63,3.37,3.37,0,0,1-2,.62,4,4,0,0,1-1.21-.2Z"/><path class="cls-1" d="M905.46,379.74V388H903V375.17h2l6.6,8.42v-8.4h2.49V388H912Z"/><path class="cls-1" d="M916.17,383.25a5.09,5.09,0,0,1,.35-1.87,4.81,4.81,0,0,1,1-1.56,4.33,4.33,0,0,1,1.57-1.07,5.15,5.15,0,0,1,2.06-.4,5,5,0,0,1,2.62.68,4.54,4.54,0,0,1,1.72,1.79,5.08,5.08,0,0,1,.59,2.43,5.29,5.29,0,0,1-.34,1.86,4.78,4.78,0,0,1-1,1.55,4.29,4.29,0,0,1-1.56,1.07,5.29,5.29,0,0,1-2.06.39,5.5,5.5,0,0,1-1.7-.25,4.52,4.52,0,0,1-1.38-.72,4.94,4.94,0,0,1-1-1.07,4.67,4.67,0,0,1-.64-1.33A5.09,5.09,0,0,1,916.17,383.25Zm5,2.83a2.22,2.22,0,0,0,1.75-.81,3,3,0,0,0,.71-2,3,3,0,0,0-.71-2,2.32,2.32,0,0,0-3.51,0,3,3,0,0,0-.71,2,2.92,2.92,0,0,0,.71,2A2.25,2.25,0,0,0,921.13,386.08Z"/><path class="cls-1" d="M928.14,390l.49-2.14h-.76v-2.52H930v2.52l-.73,2.14Z"/><path class="cls-1" d="M948.51,378.52h2.29L946.86,388h-2l-1.59-4.05L941.71,388h-2l-3.93-9.43H938l2.81,7.13,1.1-3.08-1.65-4h2l1,2.88,1-2.88h2l-1.63,4,1.11,3.08Z"/><path class="cls-1" d="M956.41,388.12a5.15,5.15,0,0,1-2.62-.66A4.62,4.62,0,0,1,952,385.7a5,5,0,0,1-.6-2.41,5.09,5.09,0,0,1,.6-2.46,4.52,4.52,0,0,1,1.75-1.8,5.48,5.48,0,0,1,4.7-.28,4.29,4.29,0,0,1,1.56,1.07,4.88,4.88,0,0,1,1,1.54,5.13,5.13,0,0,1,.33,1.84,4.4,4.4,0,0,1-.05.8H954a2.48,2.48,0,0,0,.81,1.72,2.45,2.45,0,0,0,1.69.65,2.75,2.75,0,0,0,1.37-.36,1.87,1.87,0,0,0,.86-.93l2.07.58a4.1,4.1,0,0,1-1.69,1.79A5.3,5.3,0,0,1,956.41,388.12Zm-2.47-5.65h4.94a2.67,2.67,0,0,0-.8-1.71,2.46,2.46,0,0,0-3.35,0A2.55,2.55,0,0,0,953.94,382.47Z"/><path class="cls-1" d="M967.45,383.23a5.68,5.68,0,0,1,.53-2.46,4.42,4.42,0,0,1,1.51-1.77,3.85,3.85,0,0,1,2.18-.65,3.59,3.59,0,0,1,1.85.5,3.74,3.74,0,0,1,1.33,1.32v-5.36h2.42v10.44a1,1,0,0,0,.12.55.56.56,0,0,0,.43.19v2a5.71,5.71,0,0,1-1,.12,1.7,1.7,0,0,1-1.07-.32,1.18,1.18,0,0,1-.48-.85l0-.59a3.56,3.56,0,0,1-1.4,1.35,4,4,0,0,1-1.88.46,4.17,4.17,0,0,1-2.31-.65,4.35,4.35,0,0,1-1.6-1.77A5.35,5.35,0,0,1,967.45,383.23Zm7.4,1.27v-2.25a2.86,2.86,0,0,0-1-1.31,2.31,2.31,0,0,0-1.43-.53,2.15,2.15,0,0,0-1.76.86,3.07,3.07,0,0,0-.71,2,2.77,2.77,0,0,0,.75,2,2.44,2.44,0,0,0,3.24.35A2.23,2.23,0,0,0,974.85,384.5Z"/><path class="cls-1" d="M979.48,383.25a5.09,5.09,0,0,1,.35-1.87,4.81,4.81,0,0,1,1-1.56,4.33,4.33,0,0,1,1.57-1.07,5.15,5.15,0,0,1,2.06-.4,5,5,0,0,1,2.62.68,4.64,4.64,0,0,1,1.73,1.79,5.19,5.19,0,0,1,.58,2.43,5.29,5.29,0,0,1-.34,1.86,4.78,4.78,0,0,1-1,1.55,4.29,4.29,0,0,1-1.56,1.07,5.29,5.29,0,0,1-2.06.39,5.5,5.5,0,0,1-1.7-.25,4.52,4.52,0,0,1-1.38-.72,4.94,4.94,0,0,1-1-1.07,4.67,4.67,0,0,1-.64-1.33A5.09,5.09,0,0,1,979.48,383.25Zm5,2.83a2.22,2.22,0,0,0,1.75-.81,3,3,0,0,0,.71-2,3,3,0,0,0-.71-2,2.32,2.32,0,0,0-3.51,0,3,3,0,0,0-.71,2,2.92,2.92,0,0,0,.71,2A2.26,2.26,0,0,0,984.44,386.08Z"/><path class="cls-1" d="M1000.2,388h-2.41v-5.29c0-1.45-.5-2.18-1.49-2.18a2.4,2.4,0,0,0-1.47.56,2.87,2.87,0,0,0-1,1.4V388h-2.4v-9.43h2.18v1.75a3.64,3.64,0,0,1,1.52-1.41,4.83,4.83,0,0,1,2.22-.51,3,3,0,0,1,1.2.22,2.27,2.27,0,0,1,.82.55,2.62,2.62,0,0,1,.5.85,4.58,4.58,0,0,1,.25,1,7.31,7.31,0,0,1,.07,1.09Z"/><path class="cls-1" d="M1001.74,379.43l.39-2.19h-.71v-2.43h2.43v2.47l-.65,2.15Z"/><path class="cls-1" d="M1011.12,387.47a6.73,6.73,0,0,1-2.66.64,3.46,3.46,0,0,1-1-.13,2.62,2.62,0,0,1-.78-.4,1.75,1.75,0,0,1-.53-.73,2.67,2.67,0,0,1-.2-1.06v-5.42h-1.24v-1.85H1006v-3.06h2.42v3.06h2v1.85h-2V385c0,.61.32.92.9.92a3.55,3.55,0,0,0,1.32-.34Z"/><path class="cls-1" d="M900.91,411.24a6.56,6.56,0,0,1-2.66.64,3.12,3.12,0,0,1-1-.13,2.4,2.4,0,0,1-.78-.4,1.75,1.75,0,0,1-.53-.73,2.67,2.67,0,0,1-.2-1.06v-5.41h-1.24v-1.86h1.24v-3.06h2.42v3.06h2v1.86h-2v4.6q0,.93.9.93a3.51,3.51,0,0,0,1.31-.35Z"/><path class="cls-1" d="M908.23,404.38a4.58,4.58,0,0,0-2,.43A2.63,2.63,0,0,0,905,406v5.7h-2.4v-9.43h2.21v2a4.35,4.35,0,0,1,1.28-1.52,2.84,2.84,0,0,1,1.64-.61,4.06,4.06,0,0,1,.48,0Z"/><path class="cls-1" d="M909.32,408.94a2.64,2.64,0,0,1,1.13-2.22,4.7,4.7,0,0,1,2.93-.85,6,6,0,0,1,2.26.38v-.5a1.79,1.79,0,0,0-.53-1.39,2.28,2.28,0,0,0-1.58-.48,4.12,4.12,0,0,0-1.44.25,7.49,7.49,0,0,0-1.5.81l-.78-1.58a7.18,7.18,0,0,1,4-1.24,4.5,4.5,0,0,1,3.14,1,3.66,3.66,0,0,1,1.12,2.88v3a.84.84,0,0,0,.13.54.59.59,0,0,0,.45.19v2a5.55,5.55,0,0,1-1,.13,1.63,1.63,0,0,1-1.07-.31,1.21,1.21,0,0,1-.47-.81l-.06-.48a4.11,4.11,0,0,1-1.52,1.21,4.35,4.35,0,0,1-1.88.44,3.36,3.36,0,0,1-2.35-.85A2.72,2.72,0,0,1,909.32,408.94Zm5.87.48a1.24,1.24,0,0,0,.45-.83v-.95a4.76,4.76,0,0,0-1.89-.38,2.6,2.6,0,0,0-1.54.41,1.23,1.23,0,0,0-.6,1.06,1.26,1.26,0,0,0,.46,1,1.72,1.72,0,0,0,1.22.42,2.79,2.79,0,0,0,1.05-.2A2.4,2.4,0,0,0,915.19,409.42Z"/><path class="cls-1" d="M929.51,411.72H927.1v-5.29c0-1.45-.49-2.18-1.49-2.18a2.4,2.4,0,0,0-1.47.56,2.83,2.83,0,0,0-1,1.4v5.51h-2.41v-9.43h2.18V404a3.64,3.64,0,0,1,1.52-1.41,4.83,4.83,0,0,1,2.22-.51,3.13,3.13,0,0,1,1.2.22,2.21,2.21,0,0,1,.83.56,2.66,2.66,0,0,1,.49.84,4.76,4.76,0,0,1,.26,1,9.18,9.18,0,0,1,.06,1.09Z"/><path class="cls-1" d="M935.54,411.9a6.72,6.72,0,0,1-2.33-.41,5.19,5.19,0,0,1-1.87-1.16l.86-1.56a5.33,5.33,0,0,0,3.25,1.34,2.17,2.17,0,0,0,1.13-.26.86.86,0,0,0,.41-.75.68.68,0,0,0,0-.21.38.38,0,0,0-.09-.18l-.11-.14a.62.62,0,0,0-.19-.13l-.22-.11-.28-.1-.3-.1-.37-.1-.39-.12c-.47-.15-.85-.28-1.14-.4a5.75,5.75,0,0,1-.87-.41,2.36,2.36,0,0,1-.65-.5A2.16,2.16,0,0,1,932,406a2.31,2.31,0,0,1-.14-.82,2.68,2.68,0,0,1,1-2.22,4.33,4.33,0,0,1,2.77-.82,5,5,0,0,1,3.55,1.33l-1,1.53a4.47,4.47,0,0,0-2.68-1.08,2.2,2.2,0,0,0-1.05.23.79.79,0,0,0-.41.75.75.75,0,0,0,.37.69,5.92,5.92,0,0,0,1.35.49c.52.16.93.29,1.23.4a7.45,7.45,0,0,1,1,.4,2.88,2.88,0,0,1,.74.52,2.13,2.13,0,0,1,.56,1.55,2.6,2.6,0,0,1-1,2.18A4.37,4.37,0,0,1,935.54,411.9Z"/><path class="cls-1" d="M940.75,408.94a2.63,2.63,0,0,1,1.12-2.22,4.72,4.72,0,0,1,2.93-.85,6,6,0,0,1,2.27.38v-.5a1.79,1.79,0,0,0-.53-1.39,2.3,2.3,0,0,0-1.58-.48,4.08,4.08,0,0,0-1.44.25,7.82,7.82,0,0,0-1.51.81l-.78-1.58a7.2,7.2,0,0,1,4-1.24,4.52,4.52,0,0,1,3.15,1,3.69,3.69,0,0,1,1.12,2.88v3a.84.84,0,0,0,.13.54.59.59,0,0,0,.45.19v2a5.65,5.65,0,0,1-1,.13,1.67,1.67,0,0,1-1.08-.31,1.29,1.29,0,0,1-.47-.81l-.05-.48a4.14,4.14,0,0,1-1.53,1.21,4.31,4.31,0,0,1-1.87.44,3.33,3.33,0,0,1-2.35-.85A2.72,2.72,0,0,1,940.75,408.94Zm5.87.48a1.24,1.24,0,0,0,.45-.83v-.95a4.83,4.83,0,0,0-1.89-.38,2.65,2.65,0,0,0-1.55.41,1.23,1.23,0,0,0-.6,1.06,1.29,1.29,0,0,0,.46,1,1.74,1.74,0,0,0,1.22.42,2.72,2.72,0,0,0,1-.2A2.44,2.44,0,0,0,946.62,409.42Z"/><path class="cls-1" d="M956.57,411.9a5.18,5.18,0,0,1-2.06-.4,4.64,4.64,0,0,1-1.59-1.07,4.85,4.85,0,0,1-1-1.56,4.94,4.94,0,0,1-.36-1.87,5.07,5.07,0,0,1,.59-2.42,4.64,4.64,0,0,1,1.74-1.78,5.14,5.14,0,0,1,2.64-.68,5,5,0,0,1,2.61.66,4.2,4.2,0,0,1,1.66,1.76l-2.36.72a2.12,2.12,0,0,0-.81-.79,2.24,2.24,0,0,0-1.11-.29,2.31,2.31,0,0,0-1.77.79,3.27,3.27,0,0,0,0,4.07,2.25,2.25,0,0,0,1.75.81,2.38,2.38,0,0,0,1.19-.31,1.87,1.87,0,0,0,.77-.81l2.35.73a4,4,0,0,1-1.63,1.77A5.19,5.19,0,0,1,956.57,411.9Z"/><path class="cls-1" d="M968.43,411.24a6.56,6.56,0,0,1-2.66.64,3.12,3.12,0,0,1-.95-.13,2.4,2.4,0,0,1-.78-.4,1.84,1.84,0,0,1-.53-.73,2.67,2.67,0,0,1-.2-1.06v-5.41h-1.23v-1.86h1.23v-3.06h2.42v3.06h2v1.86h-2v4.6q0,.93.9.93a3.6,3.6,0,0,0,1.32-.35Z"/><path class="cls-1" d="M974.25,408.94a2.64,2.64,0,0,1,1.13-2.22,4.69,4.69,0,0,1,2.92-.85,6,6,0,0,1,2.27.38v-.5a1.79,1.79,0,0,0-.53-1.39,2.3,2.3,0,0,0-1.58-.48,4.12,4.12,0,0,0-1.44.25,7.49,7.49,0,0,0-1.5.81l-.79-1.58a7.21,7.21,0,0,1,4-1.24,4.51,4.51,0,0,1,3.14,1A3.66,3.66,0,0,1,983,406v3a.84.84,0,0,0,.13.54.59.59,0,0,0,.45.19v2a5.65,5.65,0,0,1-1,.13,1.67,1.67,0,0,1-1.08-.31,1.29,1.29,0,0,1-.47-.81l-.05-.48a4.11,4.11,0,0,1-1.52,1.21,4.38,4.38,0,0,1-1.88.44,3.35,3.35,0,0,1-2.35-.85A2.72,2.72,0,0,1,974.25,408.94Zm5.87.48a1.24,1.24,0,0,0,.45-.83v-.95a4.76,4.76,0,0,0-1.89-.38,2.65,2.65,0,0,0-1.55.41,1.24,1.24,0,0,0-.59,1.06,1.28,1.28,0,0,0,.45,1,1.76,1.76,0,0,0,1.22.42,2.81,2.81,0,0,0,1.06-.2A2.49,2.49,0,0,0,980.12,409.42Z"/><path class="cls-1" d="M991.24,411.24a6.56,6.56,0,0,1-2.66.64,3.16,3.16,0,0,1-1-.13,2.26,2.26,0,0,1-.77-.4,1.77,1.77,0,0,1-.54-.73,2.68,2.68,0,0,1-.19-1.06v-5.41h-1.24v-1.86h1.24v-3.06h2.41v3.06h2v1.86h-2v4.6q0,.93.9.93a3.6,3.6,0,0,0,1.32-.35Z"/><path class="cls-1" d="M997.06,408.94a2.64,2.64,0,0,1,1.13-2.22,4.72,4.72,0,0,1,2.93-.85,6,6,0,0,1,2.26.38v-.5a1.75,1.75,0,0,0-.53-1.39,2.28,2.28,0,0,0-1.58-.48,4.12,4.12,0,0,0-1.44.25,8.07,8.07,0,0,0-1.5.81l-.78-1.58a7.18,7.18,0,0,1,4-1.24,4.5,4.5,0,0,1,3.14,1,3.66,3.66,0,0,1,1.12,2.88v3a.91.91,0,0,0,.13.54.59.59,0,0,0,.45.19v2a5.55,5.55,0,0,1-1,.13,1.63,1.63,0,0,1-1.07-.31,1.25,1.25,0,0,1-.47-.81l-.06-.48a4.11,4.11,0,0,1-1.52,1.21,4.35,4.35,0,0,1-1.88.44,3.32,3.32,0,0,1-2.34-.85A2.73,2.73,0,0,1,997.06,408.94Zm5.88.48a1.26,1.26,0,0,0,.44-.83v-.95a4.76,4.76,0,0,0-1.89-.38,2.62,2.62,0,0,0-1.54.41,1.23,1.23,0,0,0-.6,1.06,1.26,1.26,0,0,0,.46,1,1.72,1.72,0,0,0,1.22.42,2.72,2.72,0,0,0,1.05-.2A2.54,2.54,0,0,0,1002.94,409.42Z"/><path class="cls-1" d="M1008.47,398.58h2.41V408.7a1.39,1.39,0,0,0,.2.86.76.76,0,0,0,.61.24,2.63,2.63,0,0,0,1.13-.26l.33,1.84a5.1,5.1,0,0,1-1.12.35,5.67,5.67,0,0,1-1.18.13,2.41,2.41,0,0,1-1.75-.6,2.29,2.29,0,0,1-.63-1.72Z"/><path class="cls-1" d="M1014.63,398.58H1017V408.7a1.32,1.32,0,0,0,.2.86.74.74,0,0,0,.6.24,2.71,2.71,0,0,0,1.14-.26l.32,1.84a4.84,4.84,0,0,1-1.11.35,5.84,5.84,0,0,1-1.19.13,2.43,2.43,0,0,1-1.75-.6,2.32,2.32,0,0,1-.62-1.72Z"/><path class="cls-1" d="M918.55,433.86v1.64h-2.11V422.36h2.41v5.36a3.69,3.69,0,0,1,1.34-1.35,3.86,3.86,0,0,1,1.91-.47,3.54,3.54,0,0,1,2.14.68,4.38,4.38,0,0,1,1.47,1.79,5.87,5.87,0,0,1,.51,2.45,5.31,5.31,0,0,1-.57,2.46,4.41,4.41,0,0,1-1.59,1.75,4.12,4.12,0,0,1-2.25.64,3.85,3.85,0,0,1-1.92-.48A3.49,3.49,0,0,1,918.55,433.86Zm5.2-3a3.08,3.08,0,0,0-.71-2,2.16,2.16,0,0,0-1.75-.85,2.26,2.26,0,0,0-1.43.51,3.48,3.48,0,0,0-1,1.32V432a2.19,2.19,0,0,0,.91,1.14,2.49,2.49,0,0,0,3.25-.37A2.84,2.84,0,0,0,923.75,430.84Z"/><path class="cls-1" d="M927.65,432.71a2.67,2.67,0,0,1,1.13-2.22,4.75,4.75,0,0,1,2.92-.85A6,6,0,0,1,934,430v-.5a1.8,1.8,0,0,0-.53-1.39,2.3,2.3,0,0,0-1.58-.48,3.91,3.91,0,0,0-1.44.26,7.4,7.4,0,0,0-1.5.8l-.78-1.58a7.17,7.17,0,0,1,4-1.23,4.56,4.56,0,0,1,3.14,1,3.66,3.66,0,0,1,1.12,2.88v3a.87.87,0,0,0,.13.55.63.63,0,0,0,.45.19v2a5.43,5.43,0,0,1-1,.12,1.73,1.73,0,0,1-1.08-.3,1.31,1.31,0,0,1-.47-.82l0-.48a4.13,4.13,0,0,1-1.52,1.22,4.37,4.37,0,0,1-1.88.43,3.4,3.4,0,0,1-2.35-.84A2.74,2.74,0,0,1,927.65,432.71Zm5.87.48a1.22,1.22,0,0,0,.45-.82v-1a4.94,4.94,0,0,0-1.89-.38,2.67,2.67,0,0,0-1.54.41,1.24,1.24,0,0,0-.6,1.07,1.31,1.31,0,0,0,.45,1,1.77,1.77,0,0,0,1.23.42,3,3,0,0,0,1-.2A2.51,2.51,0,0,0,933.52,433.19Z"/><path class="cls-1" d="M942.55,435.67a6.66,6.66,0,0,1-2.32-.4,5.33,5.33,0,0,1-1.87-1.16l.86-1.57a5.33,5.33,0,0,0,3.24,1.34,2.15,2.15,0,0,0,1.13-.26.82.82,0,0,0,.42-.75,1.25,1.25,0,0,0,0-.21.56.56,0,0,0-.09-.17,1,1,0,0,0-.12-.15.59.59,0,0,0-.18-.13l-.22-.1-.28-.11-.31-.09-.36-.11-.4-.12c-.46-.14-.84-.28-1.13-.39a7,7,0,0,1-.87-.42,2.18,2.18,0,0,1-.65-.5,2,2,0,0,1-.37-.62,2.37,2.37,0,0,1-.13-.83,2.69,2.69,0,0,1,1-2.21,4.38,4.38,0,0,1,2.78-.83,5,5,0,0,1,3.54,1.34l-1,1.53a4.47,4.47,0,0,0-2.68-1.08,2.21,2.21,0,0,0-1.05.22.81.81,0,0,0-.41.75.75.75,0,0,0,.37.69,5.69,5.69,0,0,0,1.34.5c.52.15.94.28,1.24.39a7.57,7.57,0,0,1,.95.41,2.44,2.44,0,0,1,.73.51,2,2,0,0,1,.41.66,2.21,2.21,0,0,1,.16.89,2.62,2.62,0,0,1-1,2.19A4.39,4.39,0,0,1,942.55,435.67Z"/><path class="cls-1" d="M952.79,435.67a5.12,5.12,0,0,1-2.63-.67,4.46,4.46,0,0,1-1.74-1.76,4.91,4.91,0,0,1-.6-2.4,5.16,5.16,0,0,1,.6-2.47,4.53,4.53,0,0,1,1.74-1.79,5.05,5.05,0,0,1,2.65-.68,5.29,5.29,0,0,1,2.06.39,4.61,4.61,0,0,1,1.56,1.07,4.83,4.83,0,0,1,1,1.55,4.92,4.92,0,0,1,.34,1.83,4.46,4.46,0,0,1-.05.81h-7.29a2.44,2.44,0,0,0,.8,1.72,2.47,2.47,0,0,0,1.7.65,2.75,2.75,0,0,0,1.37-.36,1.87,1.87,0,0,0,.86-.93l2.07.58a4.15,4.15,0,0,1-1.69,1.79A5.3,5.3,0,0,1,952.79,435.67ZM950.32,430h4.93a2.64,2.64,0,0,0-.79-1.72,2.38,2.38,0,0,0-1.69-.65,2.35,2.35,0,0,0-1.67.66A2.58,2.58,0,0,0,950.32,430Z"/><path class="cls-1" d="M959.06,430.78a5.55,5.55,0,0,1,.54-2.46,4.27,4.27,0,0,1,1.5-1.77,3.88,3.88,0,0,1,2.18-.65,3.5,3.5,0,0,1,1.85.5,3.74,3.74,0,0,1,1.33,1.32v-5.36h2.42V432.8a1,1,0,0,0,.12.55.58.58,0,0,0,.43.19v2a5.61,5.61,0,0,1-1,.12,1.79,1.79,0,0,1-1.07-.32,1.15,1.15,0,0,1-.47-.85l0-.59a3.41,3.41,0,0,1-1.4,1.34,3.86,3.86,0,0,1-1.88.47,4.2,4.2,0,0,1-2.31-.65,4.42,4.42,0,0,1-1.6-1.77A5.38,5.38,0,0,1,959.06,430.78Zm7.4,1.26v-2.25a2.91,2.91,0,0,0-1-1.31A2.33,2.33,0,0,0,964,428a2.2,2.2,0,0,0-1.77.85,3.09,3.09,0,0,0-.7,2,2.78,2.78,0,0,0,.74,2,2.42,2.42,0,0,0,1.87.8,2.46,2.46,0,0,0,1.37-.45A2.25,2.25,0,0,0,966.46,432Z"/><path class="cls-1" d="M975.86,430.79a5.13,5.13,0,0,1,.35-1.87,5,5,0,0,1,1-1.56,4.46,4.46,0,0,1,1.57-1.07,5.32,5.32,0,0,1,2.06-.39,5,5,0,0,1,2.62.68,4.54,4.54,0,0,1,1.72,1.79,5.07,5.07,0,0,1,.59,2.42,5.25,5.25,0,0,1-.34,1.86,4.82,4.82,0,0,1-1,1.56,4.42,4.42,0,0,1-1.56,1.07,5.29,5.29,0,0,1-2.06.39,5.22,5.22,0,0,1-1.7-.26,4.5,4.5,0,0,1-1.38-.71,5.18,5.18,0,0,1-1-1.07,4.36,4.36,0,0,1-.64-1.34A5,5,0,0,1,975.86,430.79Zm5,2.83a2.23,2.23,0,0,0,1.75-.8,3,3,0,0,0,.71-2,2.93,2.93,0,0,0-.71-2,2.23,2.23,0,0,0-1.75-.8,2.26,2.26,0,0,0-1.76.8,2.94,2.94,0,0,0-.71,2,3,3,0,0,0,.7,2A2.28,2.28,0,0,0,980.82,433.62Z"/><path class="cls-1" d="M996.58,435.5h-2.41v-5.29c0-1.46-.5-2.18-1.49-2.18a2.34,2.34,0,0,0-1.47.56,2.83,2.83,0,0,0-1,1.4v5.51h-2.4v-9.43H990v1.75a3.58,3.58,0,0,1,1.52-1.41,4.78,4.78,0,0,1,2.22-.51,3,3,0,0,1,1.2.22,2.15,2.15,0,0,1,.82.55,2.62,2.62,0,0,1,.5.85,4.49,4.49,0,0,1,.25,1,7.54,7.54,0,0,1,.07,1.1Z"/><path class="cls-1" d="M892,459.27l-3.48-9.43H891l2.37,7.23,2.4-7.23h2.29l-3.46,9.43Z"/><path class="cls-1" d="M899.81,448.52v-2.39h2.41v2.39Zm0,10.75v-9.43h2.41v9.43Z"/><path class="cls-1" d="M909.23,459.45a5.19,5.19,0,0,1-2.63-.67,4.55,4.55,0,0,1-1.75-1.76,4.92,4.92,0,0,1-.6-2.41,5.12,5.12,0,0,1,.6-2.46,4.52,4.52,0,0,1,1.75-1.8,5.14,5.14,0,0,1,2.64-.68,5.2,5.2,0,0,1,2.07.4,4.34,4.34,0,0,1,1.55,1.07,4.88,4.88,0,0,1,1,1.54,5.14,5.14,0,0,1,.34,1.84,4.27,4.27,0,0,1-.06.8h-7.29a2.48,2.48,0,0,0,.81,1.72,2.45,2.45,0,0,0,1.69.65,2.72,2.72,0,0,0,1.37-.36,1.84,1.84,0,0,0,.87-.92l2.06.58a4.07,4.07,0,0,1-1.69,1.78A5.27,5.27,0,0,1,909.23,459.45Zm-2.47-5.66h4.93a2.63,2.63,0,0,0-.8-1.71,2.46,2.46,0,0,0-3.35,0A2.58,2.58,0,0,0,906.76,453.79Z"/><path class="cls-1" d="M927.5,449.84h2.29l-3.94,9.43h-2l-1.59-4-1.54,4h-2l-3.93-9.43H917l2.81,7.13,1.1-3.08-1.65-4h2l1,2.88,1-2.88h2l-1.63,4,1.11,3.08Z"/><path class="cls-1" d="M930.46,456.48a2.64,2.64,0,0,1,1.13-2.21,4.7,4.7,0,0,1,2.93-.85,6,6,0,0,1,2.26.37v-.5a1.74,1.74,0,0,0-.53-1.38,2.23,2.23,0,0,0-1.58-.49,4.13,4.13,0,0,0-1.44.26,7.25,7.25,0,0,0-1.5.81L931,450.9a7.17,7.17,0,0,1,4-1.23,4.54,4.54,0,0,1,3.14,1,3.69,3.69,0,0,1,1.12,2.89v3a.94.94,0,0,0,.13.55.63.63,0,0,0,.45.19v2a5.43,5.43,0,0,1-1,.12,1.68,1.68,0,0,1-1.07-.3,1.21,1.21,0,0,1-.47-.81l-.06-.49a4,4,0,0,1-1.52,1.22,4.35,4.35,0,0,1-1.88.44,3.32,3.32,0,0,1-2.34-.85A2.72,2.72,0,0,1,930.46,456.48Zm5.87.49a1.26,1.26,0,0,0,.45-.83v-1a4.93,4.93,0,0,0-1.89-.37,2.69,2.69,0,0,0-1.54.4,1.25,1.25,0,0,0-.6,1.07,1.29,1.29,0,0,0,.46,1,1.72,1.72,0,0,0,1.22.42,3,3,0,0,0,1.05-.2A2.55,2.55,0,0,0,936.33,457Z"/><path class="cls-1" d="M944,457.64v1.63h-2.11V446.13h2.41v5.36a3.59,3.59,0,0,1,1.34-1.34,3.73,3.73,0,0,1,1.9-.48,3.62,3.62,0,0,1,2.15.68,4.34,4.34,0,0,1,1.47,1.8,5.8,5.8,0,0,1,.51,2.44,5.31,5.31,0,0,1-.58,2.46,4.39,4.39,0,0,1-1.58,1.75,4.14,4.14,0,0,1-2.26.65,3.82,3.82,0,0,1-1.91-.48A3.64,3.64,0,0,1,944,457.64Zm5.2-3a3.1,3.1,0,0,0-.71-2,2.18,2.18,0,0,0-1.76-.85,2.21,2.21,0,0,0-1.42.52,3.25,3.25,0,0,0-1,1.32v2.25a2.23,2.23,0,0,0,.91,1.14,2.47,2.47,0,0,0,1.37.44,2.44,2.44,0,0,0,1.88-.81A2.86,2.86,0,0,0,949.2,454.61Z"/><path class="cls-1" d="M953.75,448.52v-2.39h2.41v2.39Zm0,10.75v-9.43h2.41v9.43Z"/><path class="cls-1" d="M958.77,446.13h2.41v10.12a1.41,1.41,0,0,0,.2.86.76.76,0,0,0,.61.24,2.7,2.7,0,0,0,1.13-.26l.33,1.84a5.7,5.7,0,0,1-1.12.35,5.76,5.76,0,0,1-1.19.13,2.39,2.39,0,0,1-1.75-.61,2.28,2.28,0,0,1-.62-1.71Z"/><path class="cls-1" d="M964.94,448.52v-2.39h2.41v2.39Zm0,10.75v-9.43h2.41v9.43Z"/><path class="cls-1" d="M975.63,458.79a6.73,6.73,0,0,1-2.66.64,3.52,3.52,0,0,1-1-.13,2.26,2.26,0,0,1-.77-.4,1.77,1.77,0,0,1-.54-.73,2.68,2.68,0,0,1-.19-1.06v-5.42h-1.24v-1.85h1.24v-3.06h2.41v3.06h2v1.85h-2v4.61c0,.62.32.92.9.92a3.55,3.55,0,0,0,1.32-.34Z"/><path class="cls-1" d="M977.5,461.11a4.87,4.87,0,0,0,1.08.17.91.91,0,0,0,.79-.41,5.7,5.7,0,0,0,.67-1.6l-3.73-9.43h2.5l2.54,7,2.24-7h2.3l-4,11.3a3.3,3.3,0,0,1-1.19,1.63,3.39,3.39,0,0,1-2,.62,3.7,3.7,0,0,1-1.21-.2Z"/><path class="cls-1" d="M991.32,456.48a2.63,2.63,0,0,1,1.12-2.21,4.72,4.72,0,0,1,2.93-.85,6,6,0,0,1,2.27.37v-.5a1.75,1.75,0,0,0-.54-1.38,2.22,2.22,0,0,0-1.57-.49,4.14,4.14,0,0,0-1.45.26,7.52,7.52,0,0,0-1.5.81l-.78-1.59a7.19,7.19,0,0,1,4-1.23,4.52,4.52,0,0,1,3.14,1,3.69,3.69,0,0,1,1.12,2.89v3a.87.87,0,0,0,.14.55.59.59,0,0,0,.44.19v2a5.34,5.34,0,0,1-1,.12,1.69,1.69,0,0,1-1.08-.3,1.25,1.25,0,0,1-.47-.81l0-.49a4.15,4.15,0,0,1-1.53,1.22,4.35,4.35,0,0,1-1.88.44,3.32,3.32,0,0,1-2.34-.85A2.74,2.74,0,0,1,991.32,456.48Zm5.87.49a1.26,1.26,0,0,0,.45-.83v-1a5,5,0,0,0-1.89-.37,2.7,2.7,0,0,0-1.55.4,1.25,1.25,0,0,0-.6,1.07,1.29,1.29,0,0,0,.46,1,1.72,1.72,0,0,0,1.22.42,2.92,2.92,0,0,0,1.05-.2A2.7,2.7,0,0,0,997.19,457Z"/><path class="cls-1" d="M1011.51,459.27h-2.41V454c0-1.45-.5-2.18-1.5-2.18a2.39,2.39,0,0,0-1.46.56,2.87,2.87,0,0,0-1,1.4v5.51h-2.41v-9.43h2.18v1.75a3.61,3.61,0,0,1,1.53-1.41,4.78,4.78,0,0,1,2.22-.51,3,3,0,0,1,1.2.22,2.25,2.25,0,0,1,.82.56,2.75,2.75,0,0,1,.5.84,4.58,4.58,0,0,1,.25,1,8.94,8.94,0,0,1,.07,1.09Z"/><path class="cls-1" d="M1013.48,454.55a5.68,5.68,0,0,1,.53-2.46,4.42,4.42,0,0,1,1.51-1.77,3.85,3.85,0,0,1,2.18-.65,3.59,3.59,0,0,1,1.85.5,3.82,3.82,0,0,1,1.33,1.32v-5.36h2.41v10.44a.87.87,0,0,0,.13.55.56.56,0,0,0,.43.19v2a5.71,5.71,0,0,1-1,.12,1.7,1.7,0,0,1-1.07-.32,1.18,1.18,0,0,1-.48-.85l0-.58a3.54,3.54,0,0,1-1.4,1.34,4,4,0,0,1-1.88.47,4.23,4.23,0,0,1-2.31-.65,4.48,4.48,0,0,1-1.6-1.77A5.42,5.42,0,0,1,1013.48,454.55Zm7.4,1.27v-2.25a2.93,2.93,0,0,0-1-1.31,2.37,2.37,0,0,0-1.43-.53,2.21,2.21,0,0,0-1.77.86,3.12,3.12,0,0,0-.7,2,2.81,2.81,0,0,0,.74,2,2.47,2.47,0,0,0,3.25.36A2.29,2.29,0,0,0,1020.88,455.82Z"/><path class="cls-1" d="M891.68,478.32a5.61,5.61,0,0,1,.54-2.46,4.33,4.33,0,0,1,1.51-1.76,3.75,3.75,0,0,1,2.17-.65,3.56,3.56,0,0,1,1.85.49,3.61,3.61,0,0,1,1.33,1.33V469.9h2.42v10.45a.92.92,0,0,0,.12.54.56.56,0,0,0,.43.19v2a4.88,4.88,0,0,1-1,.13,1.74,1.74,0,0,1-1.07-.32,1.15,1.15,0,0,1-.48-.85l0-.59a3.45,3.45,0,0,1-1.39,1.34,4,4,0,0,1-1.88.47,4.29,4.29,0,0,1-2.32-.65,4.56,4.56,0,0,1-1.6-1.77A5.39,5.39,0,0,1,891.68,478.32Zm7.4,1.27v-2.25a3,3,0,0,0-1-1.31,2.39,2.39,0,0,0-1.43-.53,2.21,2.21,0,0,0-1.77.86,3.09,3.09,0,0,0-.7,2,2.84,2.84,0,0,0,.74,2,2.46,2.46,0,0,0,1.87.8,2.41,2.41,0,0,0,1.37-.45A2.2,2.2,0,0,0,899.08,479.59Z"/><path class="cls-1" d="M903.72,478.34a4.93,4.93,0,0,1,.35-1.87,5,5,0,0,1,1-1.56,4.55,4.55,0,0,1,1.57-1.07,5.36,5.36,0,0,1,2.06-.39,5,5,0,0,1,2.63.68,4.52,4.52,0,0,1,1.72,1.78,5.14,5.14,0,0,1,.59,2.43,5.08,5.08,0,0,1-.35,1.86,5,5,0,0,1-1,1.56,4.27,4.27,0,0,1-1.56,1.06,5.2,5.2,0,0,1-2.07.4A5.49,5.49,0,0,1,907,483a4.31,4.31,0,0,1-1.38-.72,5.13,5.13,0,0,1-1-1.06,4.75,4.75,0,0,1-.65-1.34A5.33,5.33,0,0,1,903.72,478.34Zm4.95,2.83a2.24,2.24,0,0,0,1.76-.81,3,3,0,0,0,.71-2,3,3,0,0,0-.71-2,2.26,2.26,0,0,0-1.76-.8,2.24,2.24,0,0,0-1.75.81,3.28,3.28,0,0,0,0,4.06A2.23,2.23,0,0,0,908.67,481.17Z"/><path class="cls-1" d="M924.44,483H922v-5.29c0-1.45-.5-2.18-1.5-2.18a2.35,2.35,0,0,0-1.46.57,2.79,2.79,0,0,0-1,1.39V483h-2.41v-9.43h2.18v1.75a3.59,3.59,0,0,1,1.53-1.4,4.78,4.78,0,0,1,2.22-.51,3.21,3.21,0,0,1,1.2.21,2.25,2.25,0,0,1,.82.56,2.88,2.88,0,0,1,.5.84,4.72,4.72,0,0,1,.25,1,9.12,9.12,0,0,1,.07,1.1Z"/><path class="cls-1" d="M926,474.53l.4-2.2h-.71V469.9h2.42v2.47l-.65,2.16Z"/><path class="cls-1" d="M935.35,482.56a6.52,6.52,0,0,1-2.66.64,3.21,3.21,0,0,1-1-.13,2.46,2.46,0,0,1-.77-.4,1.8,1.8,0,0,1-.54-.72,2.73,2.73,0,0,1-.19-1.07v-5.41H929v-1.86h1.24v-3.06h2.42v3.06h2v1.86h-2v4.6c0,.62.31.93.89.93a3.6,3.6,0,0,0,1.32-.35Z"/><path class="cls-1" d="M941.83,472.29V469.9h2.41v2.39Zm0,10.75v-9.43h2.41V483Z"/><path class="cls-1" d="M955.63,483h-2.41v-5.29c0-1.45-.5-2.18-1.49-2.18a2.35,2.35,0,0,0-1.47.57,2.85,2.85,0,0,0-1,1.39V483h-2.4v-9.43H949v1.75a3.65,3.65,0,0,1,1.53-1.4,4.78,4.78,0,0,1,2.22-.51,3.14,3.14,0,0,1,1.2.21,2.17,2.17,0,0,1,.82.56,2.68,2.68,0,0,1,.5.84,4.72,4.72,0,0,1,.25,1,7.45,7.45,0,0,1,.07,1.1Z"/><path class="cls-1" d="M963.78,482.56a6.56,6.56,0,0,1-2.67.64,3.21,3.21,0,0,1-1-.13,2.46,2.46,0,0,1-.77-.4,1.8,1.8,0,0,1-.54-.72,2.92,2.92,0,0,1-.19-1.07v-5.41h-1.24v-1.86h1.24v-3.06h2.42v3.06h2v1.86h-2v4.6c0,.62.31.93.89.93a3.6,3.6,0,0,0,1.32-.35Z"/><path class="cls-1" d="M969.74,483.22a5.09,5.09,0,0,1-2.63-.67,4.48,4.48,0,0,1-1.75-1.76,4.91,4.91,0,0,1-.6-2.4,5.16,5.16,0,0,1,.6-2.47,4.52,4.52,0,0,1,1.75-1.8,5.13,5.13,0,0,1,2.64-.67,5.37,5.37,0,0,1,2.07.39,4.47,4.47,0,0,1,1.55,1.07,4.82,4.82,0,0,1,1,1.54,5.14,5.14,0,0,1,.34,1.84,5.82,5.82,0,0,1,0,.81h-7.3a2.53,2.53,0,0,0,.81,1.72,2.45,2.45,0,0,0,1.7.64,2.81,2.81,0,0,0,1.36-.35,1.85,1.85,0,0,0,.87-.93l2.06.58a4,4,0,0,1-1.69,1.78A5.27,5.27,0,0,1,969.74,483.22Zm-2.47-5.65h4.93a2.65,2.65,0,0,0-.8-1.72,2.33,2.33,0,0,0-1.68-.65,2.37,2.37,0,0,0-1.67.65A2.61,2.61,0,0,0,967.27,477.57Z"/><path class="cls-1" d="M985.35,483h-2.41v-5.29c0-1.45-.5-2.18-1.49-2.18a2.35,2.35,0,0,0-1.47.57,2.85,2.85,0,0,0-1,1.39V483h-2.4v-9.43h2.18v1.75a3.56,3.56,0,0,1,1.52-1.4,4.83,4.83,0,0,1,2.22-.51,3.14,3.14,0,0,1,1.2.21,2.17,2.17,0,0,1,.82.56,2.68,2.68,0,0,1,.5.84,4.72,4.72,0,0,1,.25,1,7.45,7.45,0,0,1,.07,1.1Z"/><path class="cls-1" d="M987.32,478.32a5.61,5.61,0,0,1,.54-2.46,4.23,4.23,0,0,1,1.5-1.76,3.8,3.8,0,0,1,2.18-.65,3.58,3.58,0,0,1,1.85.49,3.69,3.69,0,0,1,1.33,1.33V469.9h2.42v10.45a.92.92,0,0,0,.12.54.55.55,0,0,0,.43.19v2a5,5,0,0,1-1,.13,1.76,1.76,0,0,1-1.07-.32,1.17,1.17,0,0,1-.47-.85l0-.59a3.47,3.47,0,0,1-1.4,1.34,4,4,0,0,1-1.88.47,4.28,4.28,0,0,1-2.31-.65,4.42,4.42,0,0,1-1.6-1.77A5.39,5.39,0,0,1,987.32,478.32Zm7.4,1.27v-2.25a2.91,2.91,0,0,0-1-1.31,2.35,2.35,0,0,0-1.43-.53,2.19,2.19,0,0,0-1.76.86,3.1,3.1,0,0,0-.71,2,2.81,2.81,0,0,0,.75,2,2.43,2.43,0,0,0,1.86.8,2.46,2.46,0,0,0,1.38-.45A2.25,2.25,0,0,0,994.72,479.59Z"/><path class="cls-1" d="M1010.37,482.56a6.56,6.56,0,0,1-2.67.64,3.21,3.21,0,0,1-1-.13,2.46,2.46,0,0,1-.77-.4,1.7,1.7,0,0,1-.53-.72,2.72,2.72,0,0,1-.2-1.07v-5.41H1004v-1.86h1.24v-3.06h2.42v3.06h2v1.86h-2v4.6q0,.93.9.93a3.56,3.56,0,0,0,1.31-.35Z"/><path class="cls-1" d="M1011.35,478.34a4.94,4.94,0,0,1,.36-1.87,4.82,4.82,0,0,1,1-1.56,4.55,4.55,0,0,1,1.57-1.07,5.36,5.36,0,0,1,2.06-.39,5,5,0,0,1,2.62.68,4.55,4.55,0,0,1,1.73,1.78,5.13,5.13,0,0,1,.58,2.43,5.07,5.07,0,0,1-.34,1.86,5,5,0,0,1-1,1.56,4.45,4.45,0,0,1-1.56,1.06,5.2,5.2,0,0,1-2.07.4,5.55,5.55,0,0,1-1.7-.26,4.53,4.53,0,0,1-1.38-.72,5.13,5.13,0,0,1-1-1.06,4.73,4.73,0,0,1-.64-1.34A5,5,0,0,1,1011.35,478.34Zm5,2.83a2.22,2.22,0,0,0,1.75-.81,3,3,0,0,0,.71-2,2.92,2.92,0,0,0-.71-2,2.32,2.32,0,0,0-3.51,0,3,3,0,0,0-.71,2,3,3,0,0,0,.71,2A2.23,2.23,0,0,0,1016.31,481.17Z"/><path class="cls-2" d="M314.22,72q-4.64,0-6.88-2.84L309.7,66a4.88,4.88,0,0,0,1.76,1.38,5.9,5.9,0,0,0,2.54.51,4.41,4.41,0,0,0,2.48-.59,2,2,0,0,0,.86-1.72q0-2.46-4.42-2.45H312V59.9h1a5.38,5.38,0,0,0,2.8-.63,1.93,1.93,0,0,0,1-1.73,1.79,1.79,0,0,0-.71-1.48,3,3,0,0,0-1.83-.54,4.27,4.27,0,0,0-2.21.59,4.39,4.39,0,0,0-1.59,1.61l-2.95-3.3a6.5,6.5,0,0,1,2.94-2,11.92,11.92,0,0,1,4.23-.75,8.35,8.35,0,0,1,5,1.39,4.49,4.49,0,0,1,.91,6.58,4.65,4.65,0,0,1-2.71,1.62,4.67,4.67,0,0,1,3,1.71,5.09,5.09,0,0,1,1.16,3.32,4.75,4.75,0,0,1-2.15,4.12A9.73,9.73,0,0,1,314.22,72Z"/><path class="cls-2" d="M325.71,71.79a13.38,13.38,0,0,1,.82-5.39,7.63,7.63,0,0,1,3.2-3.28c.34-.21.85-.49,1.52-.84s1.22-.65,1.63-.9a11.91,11.91,0,0,0,1.31-.9,3.74,3.74,0,0,0,1-1.18,2.87,2.87,0,0,0,.34-1.4,2.11,2.11,0,0,0-.68-1.68,2.65,2.65,0,0,0-1.79-.59,5.2,5.2,0,0,0-2.44.66,8.73,8.73,0,0,0-2.1,1.57l-2.86-3a9.71,9.71,0,0,1,3.25-2.24,11.12,11.12,0,0,1,4.77-1,7.54,7.54,0,0,1,5.17,1.6,5.51,5.51,0,0,1,1.86,4.34,6.38,6.38,0,0,1-.23,1.72,5.67,5.67,0,0,1-.63,1.43,6.8,6.8,0,0,1-1,1.22,11.3,11.3,0,0,1-1.22,1c-.41.3-.89.61-1.44.94a26.59,26.59,0,0,0-3.36,2.12,6.52,6.52,0,0,0-1.51,1.67l9.43,0v4Z"/><path class="cls-2" d="M345.05,71.73V67.17h3.73v4.56Z"/><path class="cls-2" d="M360.23,71.94a8.87,8.87,0,0,1-3.73-.78,6.64,6.64,0,0,1-2.72-2.27,5.82,5.82,0,0,1-1-3.37,4.26,4.26,0,0,1,.83-2.59,6.54,6.54,0,0,1,2-1.83,4.41,4.41,0,0,1-1.6-1.5,3.77,3.77,0,0,1-.64-2.05,5.05,5.05,0,0,1,.41-2,5.25,5.25,0,0,1,1.11-1.61,7.56,7.56,0,0,1,1.59-1.16,7.81,7.81,0,0,1,1.84-.72,8.4,8.4,0,0,1,1.91-.24,7.89,7.89,0,0,1,2.39.37,8.62,8.62,0,0,1,2.23,1.06A5.25,5.25,0,0,1,366.46,55a4.76,4.76,0,0,1,.65,2.44,3.91,3.91,0,0,1-.65,2.09,4.26,4.26,0,0,1-1.62,1.52,6.37,6.37,0,0,1,2,1.88,4.6,4.6,0,0,1,.83,2.71,5.56,5.56,0,0,1-1,3.29A6.56,6.56,0,0,1,364,71.16,8.88,8.88,0,0,1,360.23,71.94Zm0-9a3,3,0,0,0-2,.69,2.26,2.26,0,0,0-.82,1.8,2.22,2.22,0,0,0,.86,1.77,3.16,3.16,0,0,0,2,.69,3,3,0,0,0,2-.72,2.24,2.24,0,0,0,.83-1.78,2.15,2.15,0,0,0-.84-1.79A3.15,3.15,0,0,0,360.21,62.93Zm0-3.36a2.61,2.61,0,0,0,1.58-.53,1.69,1.69,0,0,0,.68-1.44,1.62,1.62,0,0,0-.66-1.31,2.67,2.67,0,0,0-3.21,0,1.64,1.64,0,0,0-.65,1.32,1.68,1.68,0,0,0,.69,1.43A2.53,2.53,0,0,0,360.2,59.57Z"/><path class="cls-2" d="M371.1,55.82a4,4,0,0,1,1.41-3.06,5.33,5.33,0,0,1,6.91,0,4,4,0,0,1,0,6.12,5.33,5.33,0,0,1-6.91,0A4,4,0,0,1,371.1,55.82Zm2,14.26,8-9.08,7.28-9.52,2.05,1.8-7.76,8.86-7.55,9.76Zm4.09-12.75a2.44,2.44,0,0,0,.5-1.53,2.35,2.35,0,0,0-.51-1.51,1.53,1.53,0,0,0-1.21-.62,1.5,1.5,0,0,0-1.21.64,2.38,2.38,0,0,0-.5,1.5,2.35,2.35,0,0,0,.51,1.52A1.47,1.47,0,0,0,376,58,1.5,1.5,0,0,0,377.19,57.33ZM382.7,67.6a4,4,0,0,1,1.41-3.07,5,5,0,0,1,3.45-1.28A5.06,5.06,0,0,1,391,64.51a4,4,0,0,1,1.42,3.06A3.87,3.87,0,0,1,391,70.62a5.37,5.37,0,0,1-6.91,0A3.9,3.9,0,0,1,382.7,67.6Zm6.61,0a2.39,2.39,0,0,0-.52-1.52,1.48,1.48,0,0,0-2.44,0,2.44,2.44,0,0,0-.49,1.53,2.37,2.37,0,0,0,.5,1.51,1.5,1.5,0,0,0,2.44,0A2.35,2.35,0,0,0,389.31,67.58Z"/><path class="cls-1" d="M380.83,135.93a13.56,13.56,0,0,1,.82-5.39,7.61,7.61,0,0,1,3.2-3.27c.35-.22.85-.5,1.53-.85s1.21-.65,1.62-.89a12.09,12.09,0,0,0,1.31-.91,3.68,3.68,0,0,0,1-1.18,3,3,0,0,0,.34-1.4,2.11,2.11,0,0,0-.69-1.68,2.61,2.61,0,0,0-1.78-.58,5.08,5.08,0,0,0-2.45.65,9,9,0,0,0-2.1,1.57l-2.86-3a9.87,9.87,0,0,1,3.25-2.25,11.49,11.49,0,0,1,4.77-1,7.57,7.57,0,0,1,5.17,1.6,5.44,5.44,0,0,1,1.86,4.34,6.08,6.08,0,0,1-.23,1.73,6,6,0,0,1-.62,1.43,6.75,6.75,0,0,1-1,1.21,11.51,11.51,0,0,1-1.23,1c-.41.29-.89.61-1.43.94a26.37,26.37,0,0,0-3.37,2.11,6.52,6.52,0,0,0-1.51,1.67l9.44,0v4Z"/><path class="cls-1" d="M406.24,136c-3.09,0-5.38-.94-6.88-2.84l2.36-3.17a4.84,4.84,0,0,0,1.75,1.38,6,6,0,0,0,2.55.51,4.41,4.41,0,0,0,2.48-.59,1.92,1.92,0,0,0,.85-1.72q0-2.46-4.41-2.44H404V124h1a5.39,5.39,0,0,0,2.81-.63,1.92,1.92,0,0,0,1-1.73,1.74,1.74,0,0,0-.72-1.47,2.86,2.86,0,0,0-1.82-.55,4.35,4.35,0,0,0-2.21.59,4.57,4.57,0,0,0-1.6,1.61l-2.94-3.3a6.58,6.58,0,0,1,2.94-1.95,12.38,12.38,0,0,1,4.23-.75,8.35,8.35,0,0,1,5,1.4,4.37,4.37,0,0,1,1.95,3.67,4.46,4.46,0,0,1-1,2.91,4.72,4.72,0,0,1-2.71,1.61,4.71,4.71,0,0,1,3,1.71,5.1,5.1,0,0,1,1.17,3.32,4.76,4.76,0,0,1-2.15,4.12A9.81,9.81,0,0,1,406.24,136Z"/><path class="cls-1" d="M418.15,135.83v-4.57h3.73v4.57Z"/><path class="cls-1" d="M433.34,136a8.51,8.51,0,0,1-3.73-.78,6.59,6.59,0,0,1-2.73-2.27,5.81,5.81,0,0,1-1-3.37,4.27,4.27,0,0,1,.82-2.59,6.8,6.8,0,0,1,2-1.83,4.32,4.32,0,0,1-1.6-1.5,3.73,3.73,0,0,1-.63-2,4.65,4.65,0,0,1,.41-2A4.83,4.83,0,0,1,428,118a7.55,7.55,0,0,1,3.43-1.88,7.79,7.79,0,0,1,1.9-.24,8,8,0,0,1,2.4.37,8.7,8.7,0,0,1,2.22,1,5.41,5.41,0,0,1,1.67,1.79,4.83,4.83,0,0,1,.65,2.43,3.81,3.81,0,0,1-.66,2.09,4.29,4.29,0,0,1-1.62,1.53,6.24,6.24,0,0,1,2,1.87,4.56,4.56,0,0,1,.84,2.71,5.55,5.55,0,0,1-1,3.29,6.51,6.51,0,0,1-2.71,2.22A9,9,0,0,1,433.34,136Zm0-9a3.12,3.12,0,0,0-2,.7,2.25,2.25,0,0,0-.81,1.8,2.17,2.17,0,0,0,.86,1.76,3.14,3.14,0,0,0,2,.69,3,3,0,0,0,2-.72,2.26,2.26,0,0,0,.83-1.77,2.17,2.17,0,0,0-.84-1.8A3.2,3.2,0,0,0,433.31,127Zm0-3.36a2.5,2.5,0,0,0,1.57-.53,1.7,1.7,0,0,0,.69-1.43,1.6,1.6,0,0,0-.67-1.32,2.49,2.49,0,0,0-1.61-.52,2.44,2.44,0,0,0-1.59.53,1.58,1.58,0,0,0-.65,1.32,1.71,1.71,0,0,0,.69,1.44A2.57,2.57,0,0,0,433.31,123.66Z"/><path class="cls-1" d="M444.21,119.91a3.92,3.92,0,0,1,1.41-3.06,5.37,5.37,0,0,1,6.91,0,4,4,0,0,1,0,6.13,5,5,0,0,1-3.45,1.27,4.94,4.94,0,0,1-3.45-1.25A4,4,0,0,1,444.21,119.91Zm2,14.27,8-9.09,7.28-9.52,2.05,1.8-7.75,8.87L448.23,136Zm4.08-12.76a2.35,2.35,0,0,0,.5-1.53,2.32,2.32,0,0,0-.51-1.51,1.46,1.46,0,0,0-1.21-.61,1.5,1.5,0,0,0-1.21.64,2.29,2.29,0,0,0-.49,1.49,2.42,2.42,0,0,0,.5,1.53,1.51,1.51,0,0,0,1.21.63A1.5,1.5,0,0,0,450.29,121.42Zm5.51,10.27a4,4,0,0,1,1.41-3.07,5.38,5.38,0,0,1,6.92,0,4,4,0,0,1,0,6.12,5.38,5.38,0,0,1-6.92,0A4,4,0,0,1,455.8,131.69Zm6.61,0a2.31,2.31,0,0,0-.52-1.51,1.51,1.51,0,0,0-1.22-.64,1.47,1.47,0,0,0-1.21.64,2.4,2.4,0,0,0-.5,1.52,2.28,2.28,0,0,0,.51,1.51,1.49,1.49,0,0,0,1.21.62,1.51,1.51,0,0,0,1.22-.64A2.26,2.26,0,0,0,462.41,131.67Z"/><path class="cls-2" d="M64.74,67q-4.63,0-6.88-2.84L60.22,61A4.67,4.67,0,0,0,62,62.35a5.76,5.76,0,0,0,2.54.52A4.49,4.49,0,0,0,67,62.28a2,2,0,0,0,.86-1.72q0-2.46-4.42-2.45h-.92V54.9h1a5.38,5.38,0,0,0,2.8-.63,1.94,1.94,0,0,0,1-1.73,1.78,1.78,0,0,0-.71-1.48,3,3,0,0,0-1.83-.54,4.27,4.27,0,0,0-2.21.59A4.49,4.49,0,0,0,61,52.72L58,49.42a6.42,6.42,0,0,1,2.94-2,11.92,11.92,0,0,1,4.23-.75,8.35,8.35,0,0,1,5,1.39,4.49,4.49,0,0,1,.91,6.58,4.65,4.65,0,0,1-2.71,1.62,4.7,4.7,0,0,1,3,1.7,5.12,5.12,0,0,1,1.16,3.33,4.79,4.79,0,0,1-2.15,4.12A9.81,9.81,0,0,1,64.74,67Z"/><path class="cls-2" d="M83.81,66.74V62.57l-8,0v-4L85.2,46.85h3.1l0,11.7h2.52v4H88.35v4.17Zm-3.45-8.17H84.3v-5Z"/><path class="cls-2" d="M94.78,66.74l0-4.57h3.73l0,4.56Z"/><path class="cls-2" d="M110,66.67l0-4.17-8,0v-4l9.38-11.73h3.1l0,11.71h2.52v4h-2.51v4.17Zm-3.45-8.17h3.94v-5Z"/><path class="cls-2" d="M120.37,50.82a4,4,0,0,1,1.41-3.06,5.37,5.37,0,0,1,6.91,0,4,4,0,0,1,0,6.13,5.35,5.35,0,0,1-6.91,0A3.94,3.94,0,0,1,120.37,50.82Zm2,14.27,8-9.09,7.28-9.52,2.05,1.8L132,57.15l-7.56,9.75Zm4.09-12.76A2.44,2.44,0,0,0,127,50.8a2.37,2.37,0,0,0-.5-1.51,1.53,1.53,0,0,0-1.21-.62,1.5,1.5,0,0,0-1.21.64,2.34,2.34,0,0,0-.5,1.5,2.4,2.4,0,0,0,.5,1.52,1.5,1.5,0,0,0,1.22.64A1.55,1.55,0,0,0,126.46,52.33ZM132,62.6a3.91,3.91,0,0,1,1.41-3.07,5.33,5.33,0,0,1,6.91,0,4,4,0,0,1,0,6.12,5.41,5.41,0,0,1-6.92,0A4,4,0,0,1,132,62.6Zm6.61,0a2.35,2.35,0,0,0-.52-1.51,1.55,1.55,0,0,0-1.23-.64,1.5,1.5,0,0,0-1.21.64,2.57,2.57,0,0,0,0,3,1.5,1.5,0,0,0,2.44,0A2.31,2.31,0,0,0,138.58,62.58Z"/><path class="cls-1" d="M136.44,20.32V16.15l-8,0v-4L137.84.43h3.1l0,11.71h2.52v4H141V20.3ZM133,12.15h3.94l0-5Z"/><path class="cls-1" d="M147,10.51a11.45,11.45,0,0,1,.38-2.88A10.62,10.62,0,0,1,148.5,4.9a10.94,10.94,0,0,1,1.84-2.3A7.92,7.92,0,0,1,152.83,1a7.85,7.85,0,0,1,3-.6,8.38,8.38,0,0,1,3.21.62,8,8,0,0,1,2.53,1.66,11.39,11.39,0,0,1,2.9,5.06,11.25,11.25,0,0,1,.37,2.71,11.07,11.07,0,0,1-.39,2.9,10.53,10.53,0,0,1-1.17,2.74,10.78,10.78,0,0,1-1.83,2.28A8.12,8.12,0,0,1,159,20a8.34,8.34,0,0,1-3.06.6,8.06,8.06,0,0,1-2.71-.43A7.58,7.58,0,0,1,151,19a10.23,10.23,0,0,1-1.75-1.73A9.66,9.66,0,0,1,148,15.11a12.12,12.12,0,0,1-.75-2.3A10.69,10.69,0,0,1,147,10.51Zm9,6a3.51,3.51,0,0,0,1.94-.58,4.09,4.09,0,0,0,1.33-1.5,8.23,8.23,0,0,0,.72-1.92,8.61,8.61,0,0,0,.24-2,8.87,8.87,0,0,0-.28-2.12,7.35,7.35,0,0,0-.77-1.92A4,4,0,0,0,157.75,5a3.37,3.37,0,0,0-1.87-.53,3.26,3.26,0,0,0-1.91.58,4,4,0,0,0-1.33,1.49,8.31,8.31,0,0,0-.72,1.93,8.54,8.54,0,0,0-.24,2,9.85,9.85,0,0,0,.28,2.12,7.69,7.69,0,0,0,.76,1.92A4.06,4.06,0,0,0,154,16,3.46,3.46,0,0,0,155.92,16.48Z"/><path class="cls-1" d="M168.83,20.25V15.69h3.73v4.57Z"/><path class="cls-1" d="M183.07,20.46a8.79,8.79,0,0,1-4-.86,6.2,6.2,0,0,1-2.71-2.41l2.55-2.79A5.86,5.86,0,0,0,180.84,16a4.87,4.87,0,0,0,2.24.57,3,3,0,0,0,2.13-.76,2.57,2.57,0,0,0,.8-2,2.58,2.58,0,0,0-.76-1.94,2.64,2.64,0,0,0-1.93-.75,3.14,3.14,0,0,0-1.45.35,2.56,2.56,0,0,0-1,1H176.9L179.23.32l10.06,0V4.38l-6.76,0L182,7.79a2.94,2.94,0,0,1,2-.51,6.67,6.67,0,0,1,4.81,1.78,6.14,6.14,0,0,1,1.9,4.61,6.21,6.21,0,0,1-2.14,4.89A8,8,0,0,1,183.07,20.46Z"/><path class="cls-1" d="M194,4.34a4,4,0,0,1,1.42-3.06,5.35,5.35,0,0,1,6.9,0,3.93,3.93,0,0,1,1.42,3.05,4,4,0,0,1-1.4,3.08,5.37,5.37,0,0,1-6.91,0A4,4,0,0,1,194,4.34Zm2,14.27,8-9.09L211.25,0l2.05,1.8-7.76,8.87L198,20.42Zm4.09-12.76a2.42,2.42,0,0,0,.5-1.53A2.37,2.37,0,0,0,200,2.81a1.52,1.52,0,0,0-1.21-.62,1.54,1.54,0,0,0-1.21.64,2.4,2.4,0,0,0-.5,1.5,2.35,2.35,0,0,0,.51,1.52,1.48,1.48,0,0,0,1.21.64A1.51,1.51,0,0,0,200.05,5.85Zm5.51,10.27A4,4,0,0,1,207,13.05a5,5,0,0,1,3.45-1.28A5.06,5.06,0,0,1,213.89,13a4,4,0,0,1,1.42,3.06,3.89,3.89,0,0,1-1.41,3.06,5.37,5.37,0,0,1-6.91,0A3.92,3.92,0,0,1,205.56,16.12Zm6.61,0a2.29,2.29,0,0,0-.52-1.51,1.52,1.52,0,0,0-1.23-.64,1.47,1.47,0,0,0-1.2.64,2.55,2.55,0,0,0,0,3,1.5,1.5,0,0,0,2.44,0A2.31,2.31,0,0,0,212.17,16.1Z"/><path class="cls-2" d="M599.83,189.1v4l-12.29,0v-4h4l0-11.62a6.52,6.52,0,0,1-2,1.56,5.65,5.65,0,0,1-2.62.86V175.8a3.49,3.49,0,0,0,1.26-.27,6.76,6.76,0,0,0,1.26-.64c.38-.26.73-.52,1.07-.79s.59-.49.77-.67a2.32,2.32,0,0,0,.31-.32h4.65l0,16Z"/><path class="cls-2" d="M615.89,181.72a6.19,6.19,0,0,1,2,4.68,6.61,6.61,0,0,1-1,3.52,7,7,0,0,1-2.68,2.52,7.79,7.79,0,0,1-3.79.93,6.67,6.67,0,0,1-5.54-2.48,10.79,10.79,0,0,1-2-6.93q0-5.16,2.11-8a6.87,6.87,0,0,1,5.85-2.87,7.88,7.88,0,0,1,3.47.75,8.33,8.33,0,0,1,2.86,2.17l-2.56,2.86a5.06,5.06,0,0,0-1.72-1.4,4.67,4.67,0,0,0-2.14-.5,3.24,3.24,0,0,0-2.65,1.2,5.28,5.28,0,0,0-1,3.32,4.4,4.4,0,0,1,3.73-1.61A7.16,7.16,0,0,1,615.89,181.72Zm-7.62,6.94a3,3,0,0,0,2.21.94,3,3,0,0,0,2.19-.95,3.09,3.09,0,0,0,.93-2.24,2.86,2.86,0,0,0-.93-2.15,3.21,3.21,0,0,0-4.44,0,2.86,2.86,0,0,0-.91,2.14A3,3,0,0,0,608.27,188.66Z"/><path class="cls-2" d="M621.88,193.07V188.5h3.73v4.57Z"/><path class="cls-2" d="M629.51,183.25a11,11,0,0,1,.39-2.88,10.18,10.18,0,0,1,1.16-2.74,11.2,11.2,0,0,1,1.84-2.3,8.29,8.29,0,0,1,2.49-1.59,8.37,8.37,0,0,1,6.25,0,7.83,7.83,0,0,1,2.53,1.66,11,11,0,0,1,1.79,2.35,11.16,11.16,0,0,1,1.11,2.7,11.33,11.33,0,0,1,.37,2.72,11.18,11.18,0,0,1-.39,2.9,10.47,10.47,0,0,1-1.17,2.73,11.1,11.1,0,0,1-1.83,2.29,8.19,8.19,0,0,1-2.5,1.58,8.55,8.55,0,0,1-3.06.6,8.32,8.32,0,0,1-2.71-.43,7.6,7.6,0,0,1-2.24-1.19,9.55,9.55,0,0,1-1.75-1.73,9.43,9.43,0,0,1-1.26-2.11,12,12,0,0,1-.75-2.29A10.84,10.84,0,0,1,629.51,183.25Zm9,6a3.43,3.43,0,0,0,1.94-.58,4,4,0,0,0,1.33-1.49,8.31,8.31,0,0,0,.72-1.93,8.54,8.54,0,0,0,.24-2,8.87,8.87,0,0,0-.28-2.12,7.35,7.35,0,0,0-.77-1.92,4.14,4.14,0,0,0-1.35-1.41,3.45,3.45,0,0,0-1.87-.53,3.41,3.41,0,0,0-1.91.58,4.09,4.09,0,0,0-1.33,1.5,8.23,8.23,0,0,0-.72,1.92,8.61,8.61,0,0,0-.24,2,10,10,0,0,0,.28,2.13,8,8,0,0,0,.76,1.91,3.89,3.89,0,0,0,1.32,1.41A3.38,3.38,0,0,0,638.48,189.21Z"/><path class="cls-2" d="M650.78,177.15a3.89,3.89,0,0,1,1.41-3.06,5.33,5.33,0,0,1,6.91,0,4,4,0,0,1,0,6.12,5.33,5.33,0,0,1-6.91,0A4,4,0,0,1,650.78,177.15Zm2,14.26,8-9.08,7.28-9.53,2.05,1.8-7.75,8.87-7.56,9.76Zm4.08-12.76a2.4,2.4,0,0,0,.5-1.52,2.28,2.28,0,0,0-.51-1.51,1.48,1.48,0,0,0-2.42,0,2.29,2.29,0,0,0-.49,1.5,2.34,2.34,0,0,0,.5,1.52,1.5,1.5,0,0,0,1.21.63A1.47,1.47,0,0,0,656.86,178.65Zm5.51,10.28a4,4,0,0,1,1.41-3.08,5.38,5.38,0,0,1,6.92,0,4,4,0,0,1,1.43,3.07,4,4,0,0,1-1.41,3,5.38,5.38,0,0,1-6.92,0A4,4,0,0,1,662.37,188.93Zm6.61,0a2.34,2.34,0,0,0-.52-1.52,1.51,1.51,0,0,0-1.22-.64,1.5,1.5,0,0,0-1.21.64,2.39,2.39,0,0,0-.5,1.53,2.32,2.32,0,0,0,.51,1.51,1.5,1.5,0,0,0,1.21.62,1.57,1.57,0,0,0,1.22-.64A2.35,2.35,0,0,0,669,188.91Z"/><path class="cls-2" d="M882.15,252.2a6.17,6.17,0,0,1,2,4.67,6.59,6.59,0,0,1-1,3.52,6.88,6.88,0,0,1-2.68,2.53,7.79,7.79,0,0,1-3.79.93,6.69,6.69,0,0,1-5.54-2.48,10.81,10.81,0,0,1-2-6.93c0-3.45.7-6.12,2.11-8a6.92,6.92,0,0,1,5.85-2.88,8.21,8.21,0,0,1,3.48.75,8.55,8.55,0,0,1,2.85,2.18l-2.56,2.86a4.86,4.86,0,0,0-1.72-1.4,4.52,4.52,0,0,0-2.14-.5,3.28,3.28,0,0,0-2.65,1.19,5.27,5.27,0,0,0-1,3.33,4.34,4.34,0,0,1,3.72-1.61A7.11,7.11,0,0,1,882.15,252.2Zm-7.62,6.94a3,3,0,0,0,2.21.94,3,3,0,0,0,2.19-.95,3.1,3.1,0,0,0,.93-2.25,2.87,2.87,0,0,0-.92-2.14,3.23,3.23,0,0,0-4.44,0,2.9,2.9,0,0,0-.92,2.15A3.09,3.09,0,0,0,874.53,259.14Z"/><path class="cls-2" d="M888.15,263.55l0-4.57h3.73l0,4.57Z"/><path class="cls-2" d="M903.39,263.48l0-4.17-8,0v-4l9.38-11.73h3.1l0,11.7h2.52v4h-2.52l0,4.17Zm-3.45-8.17h3.94l0-5Z"/><path class="cls-2" d="M913.74,247.63a4,4,0,0,1,1.41-3.06,5.37,5.37,0,0,1,6.91,0,4,4,0,0,1,0,6.13,5.37,5.37,0,0,1-6.91,0A4,4,0,0,1,913.74,247.63Zm2,14.27,8-9.09,7.27-9.52,2.06,1.8L925.32,254l-7.56,9.75Zm4.08-12.76a2.56,2.56,0,0,0,0-3,1.48,1.48,0,0,0-2.42,0,2.34,2.34,0,0,0-.5,1.5,2.4,2.4,0,0,0,.5,1.52,1.46,1.46,0,0,0,2.42,0Zm5.52,10.27a3.91,3.91,0,0,1,1.41-3.07,5.33,5.33,0,0,1,6.91,0,4,4,0,0,1,0,6.12,5.38,5.38,0,0,1-6.92,0A3.91,3.91,0,0,1,925.34,259.41Zm6.61,0a2.4,2.4,0,0,0-.52-1.51,1.55,1.55,0,0,0-1.23-.64,1.48,1.48,0,0,0-1.21.64,2.4,2.4,0,0,0-.5,1.52,2.33,2.33,0,0,0,.51,1.51,1.49,1.49,0,0,0,2.43,0A2.26,2.26,0,0,0,932,259.39Z"/><path class="cls-1" d="M949.27,220.85v4l-12.29,0v-4h4l0-11.62a6.52,6.52,0,0,1-2.05,1.56,5.62,5.62,0,0,1-2.62.85v-4.11a3.49,3.49,0,0,0,1.26-.27,5.9,5.9,0,0,0,1.25-.65,12.82,12.82,0,0,0,1.07-.78,9.63,9.63,0,0,0,.78-.67,3.2,3.2,0,0,0,.31-.32l4.64,0,0,16Z"/><path class="cls-1" d="M965.3,220.81v4l-12.29,0v-4h4l0-11.62a6.26,6.26,0,0,1-2,1.57,5.71,5.71,0,0,1-2.62.85v-4.11a4,4,0,0,0,1.26-.27,6.79,6.79,0,0,0,1.26-.65c.38-.25.73-.51,1.07-.78s.59-.5.77-.67a2.12,2.12,0,0,0,.31-.33h4.65l0,16Z"/><path class="cls-1" d="M968.75,224.83v-4.56h3.73v4.56Z"/><path class="cls-1" d="M978.39,216.42a6.17,6.17,0,0,1-2-4.68,6.67,6.67,0,0,1,1-3.53,7,7,0,0,1,2.68-2.53,8,8,0,0,1,3.82-.93,6.69,6.69,0,0,1,5.54,2.48,10.81,10.81,0,0,1,2,6.93q0,5.18-2.1,8a6.91,6.91,0,0,1-5.84,2.88,8.32,8.32,0,0,1-3.51-.75,8.46,8.46,0,0,1-2.86-2.17l2.55-2.86a5.21,5.21,0,0,0,1.75,1.4,4.63,4.63,0,0,0,2.11.49,3.28,3.28,0,0,0,2.67-1.19,5.21,5.21,0,0,0,1-3.33,4.25,4.25,0,0,1-3.69,1.64A7.14,7.14,0,0,1,978.39,216.42Zm7.63-6.95a3,3,0,0,0-4.4,0,3.08,3.08,0,0,0-.92,2.25,2.87,2.87,0,0,0,.92,2.14,3.24,3.24,0,0,0,4.43,0,2.82,2.82,0,0,0,.92-2.15A3.07,3.07,0,0,0,986,209.47Z"/><path class="cls-1" d="M994.8,208.92a4,4,0,0,1,1.41-3.06,5.33,5.33,0,0,1,6.91,0,4,4,0,0,1,0,6.12,5.33,5.33,0,0,1-6.91,0A4,4,0,0,1,994.8,208.92Zm2,14.27,8-9.09,7.28-9.52,2,1.8-7.76,8.86L998.83,225Zm4.09-12.76a2.38,2.38,0,0,0,.49-1.53,2.35,2.35,0,0,0-.5-1.51,1.53,1.53,0,0,0-1.21-.62,1.5,1.5,0,0,0-1.21.64,2.51,2.51,0,0,0,0,3,1.45,1.45,0,0,0,1.21.63A1.5,1.5,0,0,0,1000.89,210.43Zm5.51,10.27a4,4,0,0,1,1.41-3.08,5.36,5.36,0,0,1,6.92,0,4,4,0,0,1,1.42,3.06,3.87,3.87,0,0,1-1.41,3.05,5.37,5.37,0,0,1-6.91,0A3.9,3.9,0,0,1,1006.4,220.7Zm6.61,0a2.39,2.39,0,0,0-.52-1.52,1.5,1.5,0,0,0-2.44,0,2.44,2.44,0,0,0-.49,1.53,2.35,2.35,0,0,0,.5,1.51,1.53,1.53,0,0,0,1.21.62,1.55,1.55,0,0,0,1.23-.64A2.35,2.35,0,0,0,1013,220.68Z"/><polygon class="cls-1" points="172.01 40.25 107.48 342.38 236.55 342.38 172.01 40.25"/><polygon class="cls-2" points="99.91 86.72 35.38 342.38 164.44 342.38 99.91 86.72"/><polygon class="cls-1" points="423.12 164.83 358.59 342.38 487.65 342.38 423.12 164.83"/><polygon class="cls-2" points="351.02 97.69 286.49 342.38 415.55 342.38 351.02 97.69"/><polygon class="cls-1" points="700.9 271.51 636.37 342.38 765.43 342.38 700.9 271.51"/><polygon class="cls-2" points="628.79 222.75 564.26 342.38 693.33 342.38 628.79 222.75"/><polygon class="cls-1" points="976.13 253.6 911.6 342.38 1040.66 342.38 976.13 253.6"/><polygon class="cls-2" points="904.03 292.9 839.5 342.38 968.56 342.38 904.03 292.9"/><path class="cls-1" d="M1050.3,344H1.59a1.59,1.59,0,1,1,0-3.17H1050.3a1.59,1.59,0,1,1,0,3.17Z"/><path class="cls-1" d="M670.21,236.51a6.13,6.13,0,0,1-2.05-4.68,6.67,6.67,0,0,1,1-3.53,7,7,0,0,1,2.69-2.53,8.07,8.07,0,0,1,3.81-.93,6.67,6.67,0,0,1,5.54,2.48,10.81,10.81,0,0,1,2,6.93q0,5.17-2.11,8a6.89,6.89,0,0,1-5.84,2.87,8.24,8.24,0,0,1-3.5-.75,8.46,8.46,0,0,1-2.86-2.17l2.55-2.85a5.21,5.21,0,0,0,1.75,1.39,4.74,4.74,0,0,0,2.11.5,3.34,3.34,0,0,0,2.67-1.2,5.25,5.25,0,0,0,1-3.33,4.28,4.28,0,0,1-3.7,1.64A7.12,7.12,0,0,1,670.21,236.51Zm7.63-6.95a3,3,0,0,0-4.4,0,3.13,3.13,0,0,0-.93,2.25,2.88,2.88,0,0,0,.93,2.14,3.06,3.06,0,0,0,2.21.88,3.16,3.16,0,0,0,2.22-.89,2.88,2.88,0,0,0,.92-2.14A3.08,3.08,0,0,0,677.84,229.56Z"/><path class="cls-1" d="M687.23,244.85v-4.56H691v4.56Z"/><path class="cls-1" d="M701.47,245.06a9,9,0,0,1-4-.86,6.21,6.21,0,0,1-2.71-2.42l2.55-2.78a5.86,5.86,0,0,0,1.92,1.58,4.94,4.94,0,0,0,2.25.57,3,3,0,0,0,2.12-.76,2.69,2.69,0,0,0-1.89-4.68,3.07,3.07,0,0,0-1.44.35,2.5,2.5,0,0,0-1,.95h-4l2.33-12.1,10.06,0V229l-6.76,0-.59,3.39a2.94,2.94,0,0,1,2-.51,6.67,6.67,0,0,1,4.81,1.78,6.08,6.08,0,0,1,1.9,4.61,6.18,6.18,0,0,1-2.14,4.89A8,8,0,0,1,701.47,245.06Z"/><path class="cls-1" d="M712.37,228.94a3.89,3.89,0,0,1,1.41-3.06,5.33,5.33,0,0,1,6.91,0,4,4,0,0,1,0,6.13,5.35,5.35,0,0,1-6.91,0A4,4,0,0,1,712.37,228.94Zm2,14.27,8-9.09,7.28-9.52,2.05,1.8L724,235.26,716.39,245Zm4.08-12.76a2.44,2.44,0,0,0,.5-1.53,2.32,2.32,0,0,0-.51-1.51,1.48,1.48,0,0,0-2.42,0,2.51,2.51,0,0,0,0,3,1.46,1.46,0,0,0,1.21.63A1.49,1.49,0,0,0,718.45,230.45ZM724,240.72a4,4,0,0,1,1.41-3.07,5.35,5.35,0,0,1,6.92,0,4,4,0,0,1,0,6.12,5,5,0,0,1-3.47,1.26,5,5,0,0,1-3.45-1.25A3.94,3.94,0,0,1,724,240.72Zm6.61,0a2.29,2.29,0,0,0-.52-1.51,1.48,1.48,0,0,0-2.43,0,2.44,2.44,0,0,0-.5,1.53,2.3,2.3,0,0,0,.51,1.51,1.52,1.52,0,0,0,1.21.62,1.54,1.54,0,0,0,1.22-.64A2.31,2.31,0,0,0,730.57,240.7Z"/></g></g></svg>