<svg xmlns="http://www.w3.org/2000/svg" viewBox="0 0 985.15 475.97"><defs><style>.cls-1{fill:#00324a;}.cls-2{fill:#fff;}</style></defs><title>11</title><g id="Capa_2" data-name="Capa 2"><g id="Layer_1" data-name="Layer 1"><path class="cls-1" d="M11.2,396V383.17h8.58v2.18h-6.1v3.3h5.08v2H13.68V396Z"/><path class="cls-1" d="M20.32,393.16a2.67,2.67,0,0,1,1.13-2.22,4.75,4.75,0,0,1,2.92-.84,6,6,0,0,1,2.27.37V390a1.82,1.82,0,0,0-.53-1.39,2.3,2.3,0,0,0-1.58-.48,4.13,4.13,0,0,0-1.44.26,7,7,0,0,0-1.5.81l-.79-1.59a7.2,7.2,0,0,1,4-1.23,4.56,4.56,0,0,1,3.14,1,3.69,3.69,0,0,1,1.12,2.89v3a.87.87,0,0,0,.13.55.63.63,0,0,0,.45.19v2a5.52,5.52,0,0,1-1,.12,1.73,1.73,0,0,1-1.08-.3,1.29,1.29,0,0,1-.47-.81l-.05-.49a4,4,0,0,1-1.52,1.22,4.38,4.38,0,0,1-1.88.44,3.39,3.39,0,0,1-2.35-.85A2.74,2.74,0,0,1,20.32,393.16Zm5.87.49a1.26,1.26,0,0,0,.45-.83v-1a4.93,4.93,0,0,0-1.89-.37,2.72,2.72,0,0,0-1.55.4,1.27,1.27,0,0,0-.59,1.07,1.31,1.31,0,0,0,.45,1,1.76,1.76,0,0,0,1.22.42,3,3,0,0,0,1.06-.2A2.65,2.65,0,0,0,26.19,393.65Z"/><path class="cls-1" d="M38.19,396l-2.75-4.07-1.28,1.27V396H31.75V382.81h2.41v7.95L38,386.54h2.56l-3.51,4L40.77,396Z"/><path class="cls-1" d="M46.13,396.13a5.19,5.19,0,0,1-2.63-.67,4.62,4.62,0,0,1-1.75-1.76,4.92,4.92,0,0,1-.6-2.41,5.12,5.12,0,0,1,.6-2.46A4.52,4.52,0,0,1,43.5,387a5.5,5.5,0,0,1,4.71-.28,4.34,4.34,0,0,1,1.55,1.07,4.71,4.71,0,0,1,1,1.54,4.93,4.93,0,0,1,.34,1.84,5.56,5.56,0,0,1-.05.8h-7.3a2.49,2.49,0,0,0,2.51,2.37,2.71,2.71,0,0,0,1.36-.36,1.81,1.81,0,0,0,.87-.93l2.06.59a4.07,4.07,0,0,1-1.69,1.78A5.24,5.24,0,0,1,46.13,396.13Zm-2.47-5.66h4.93a2.63,2.63,0,0,0-.8-1.71,2.46,2.46,0,0,0-3.35,0A2.58,2.58,0,0,0,43.66,390.47Z"/><path class="cls-1" d="M66.51,396H64.1v-5.29c0-1.45-.5-2.18-1.5-2.18a2.39,2.39,0,0,0-1.46.56,2.81,2.81,0,0,0-1,1.4V396H57.74v-9.43h2.18v1.75a3.61,3.61,0,0,1,1.53-1.41,4.78,4.78,0,0,1,2.22-.51,3,3,0,0,1,1.2.22,2.25,2.25,0,0,1,.82.56,2.75,2.75,0,0,1,.5.84,4.58,4.58,0,0,1,.25,1,8.94,8.94,0,0,1,.07,1.09Z"/><path class="cls-1" d="M73.43,396.13a5.16,5.16,0,0,1-2.62-.67,4.55,4.55,0,0,1-1.75-1.76,4.92,4.92,0,0,1-.6-2.41,5.12,5.12,0,0,1,.6-2.46,4.45,4.45,0,0,1,1.75-1.8,5.48,5.48,0,0,1,4.7-.28,4.38,4.38,0,0,1,1.56,1.07,4.88,4.88,0,0,1,1,1.54,5.13,5.13,0,0,1,.33,1.84,4.4,4.4,0,0,1,0,.8H71a2.44,2.44,0,0,0,.8,1.72,2.49,2.49,0,0,0,1.7.65,2.75,2.75,0,0,0,1.37-.36,1.84,1.84,0,0,0,.86-.93l2.07.59a4.13,4.13,0,0,1-1.69,1.78A5.31,5.31,0,0,1,73.43,396.13ZM71,390.47h4.93a2.62,2.62,0,0,0-.79-1.71,2.46,2.46,0,0,0-3.35,0A2.55,2.55,0,0,0,71,390.47Z"/><path class="cls-1" d="M91.71,386.52H94L90.06,396H88l-1.58-4.05L84.9,396h-2L79,386.52h2.26L84,393.65l1.09-3.08-1.64-4h2l1,2.88,1-2.88h2l-1.63,4,1.11,3.08Z"/><path class="cls-1" d="M98.79,396.13a6.66,6.66,0,0,1-2.32-.41,5.19,5.19,0,0,1-1.87-1.16l.86-1.56a5.31,5.31,0,0,0,3.24,1.33,2,2,0,0,0,1.13-.26.82.82,0,0,0,.42-.75,1.23,1.23,0,0,0,0-.2.44.44,0,0,0-.09-.18l-.12-.15a.46.46,0,0,0-.18-.12l-.22-.11-.28-.1-.31-.1-.36-.11-.4-.11c-.46-.15-.84-.28-1.13-.4a6.9,6.9,0,0,1-.87-.41,2.57,2.57,0,0,1-.65-.5,2.16,2.16,0,0,1-.36-.63,2.11,2.11,0,0,1-.14-.82,2.7,2.7,0,0,1,1-2.22,4.38,4.38,0,0,1,2.78-.83,5,5,0,0,1,3.54,1.34l-1,1.53a4.47,4.47,0,0,0-2.68-1.08,2.2,2.2,0,0,0-1,.23.79.79,0,0,0-.41.74.73.73,0,0,0,.37.69,5.69,5.69,0,0,0,1.34.5c.52.15.94.28,1.24.39a9.4,9.4,0,0,1,1,.41,3.15,3.15,0,0,1,.74.51,2.15,2.15,0,0,1,.4.66,2.29,2.29,0,0,1,.16.9,2.62,2.62,0,0,1-1,2.18A4.4,4.4,0,0,1,98.79,396.13Z"/><path class="cls-1" d="M23.21,412.16a2.67,2.67,0,0,1,1.13-2.22,4.75,4.75,0,0,1,2.92-.84,6,6,0,0,1,2.27.37V409a1.82,1.82,0,0,0-.53-1.39,2.3,2.3,0,0,0-1.58-.48,4.13,4.13,0,0,0-1.44.26,7,7,0,0,0-1.5.81l-.79-1.59a7.2,7.2,0,0,1,4-1.23,4.56,4.56,0,0,1,3.14,1,3.69,3.69,0,0,1,1.12,2.89v3a.87.87,0,0,0,.13.55.63.63,0,0,0,.45.19v2a5.52,5.52,0,0,1-1,.12,1.73,1.73,0,0,1-1.08-.3,1.29,1.29,0,0,1-.47-.81l-.05-.49a4,4,0,0,1-1.52,1.22,4.38,4.38,0,0,1-1.88.44,3.39,3.39,0,0,1-2.35-.85A2.74,2.74,0,0,1,23.21,412.16Zm5.87.49a1.26,1.26,0,0,0,.45-.83v-1a4.93,4.93,0,0,0-1.89-.37,2.72,2.72,0,0,0-1.55.4A1.27,1.27,0,0,0,25.5,412a1.31,1.31,0,0,0,.45,1,1.77,1.77,0,0,0,1.23.42,3,3,0,0,0,1.05-.2A2.65,2.65,0,0,0,29.08,412.65Z"/><path class="cls-1" d="M40.26,407.6a4.66,4.66,0,0,0-2,.44,2.48,2.48,0,0,0-1.22,1.21V415H34.64v-9.43h2.21v2A4.4,4.4,0,0,1,38.13,406a2.92,2.92,0,0,1,1.64-.6h.49Z"/><path class="cls-1" d="M47.7,414.47a6.73,6.73,0,0,1-2.66.64,3.52,3.52,0,0,1-.95-.13,2.26,2.26,0,0,1-.77-.4,1.77,1.77,0,0,1-.54-.73,2.68,2.68,0,0,1-.19-1.06v-5.42H41.35v-1.85h1.24v-3.06H45v3.06h2v1.85H45V412c0,.61.32.92.9.92a3.55,3.55,0,0,0,1.32-.34Z"/><path class="cls-1" d="M49.41,404.2v-2.39h2.41v2.39Zm0,10.75v-9.43h2.41V415Z"/><path class="cls-1" d="M58.84,415.13a5.36,5.36,0,0,1-2.06-.4,4.57,4.57,0,0,1-1.59-1.08,4.83,4.83,0,0,1-1-1.56,5.08,5.08,0,0,1-.35-1.86,5.14,5.14,0,0,1,.59-2.43A4.62,4.62,0,0,1,56.18,406a5.14,5.14,0,0,1,2.64-.68,5,5,0,0,1,2.6.65,4.24,4.24,0,0,1,1.67,1.77l-2.36.72a2.17,2.17,0,0,0-1.92-1.08,2.26,2.26,0,0,0-1.77.79,3.26,3.26,0,0,0,0,4.06,2.23,2.23,0,0,0,1.75.82,2.39,2.39,0,0,0,1.19-.32,1.84,1.84,0,0,0,.77-.8l2.35.72a3.91,3.91,0,0,1-1.63,1.77A5.1,5.1,0,0,1,58.84,415.13Z"/><path class="cls-1" d="M65,401.81h2.41v10.12a1.41,1.41,0,0,0,.2.86.76.76,0,0,0,.61.24,2.7,2.7,0,0,0,1.13-.26l.33,1.84a5.7,5.7,0,0,1-1.12.35,5.76,5.76,0,0,1-1.19.13,2.39,2.39,0,0,1-1.75-.61,2.28,2.28,0,0,1-.62-1.71Z"/><path class="cls-1" d="M75.58,415.13a5.19,5.19,0,0,1-2.63-.67,4.62,4.62,0,0,1-1.75-1.76,4.92,4.92,0,0,1-.6-2.41,5.12,5.12,0,0,1,.6-2.46A4.52,4.52,0,0,1,73,406a5.5,5.5,0,0,1,4.71-.28,4.34,4.34,0,0,1,1.55,1.07,4.71,4.71,0,0,1,1,1.54,4.93,4.93,0,0,1,.34,1.84,5.56,5.56,0,0,1-.05.8h-7.3a2.49,2.49,0,0,0,2.51,2.37A2.71,2.71,0,0,0,77,413a1.81,1.81,0,0,0,.87-.93l2.06.59a4.07,4.07,0,0,1-1.69,1.78A5.24,5.24,0,0,1,75.58,415.13Zm-2.47-5.66H78a2.63,2.63,0,0,0-.8-1.71,2.46,2.46,0,0,0-3.35,0A2.58,2.58,0,0,0,73.11,409.47Z"/><path class="cls-1" d="M85.9,415.13a6.62,6.62,0,0,1-2.32-.41,5.1,5.1,0,0,1-1.87-1.16l.86-1.56a5.27,5.27,0,0,0,3.24,1.33,2.06,2.06,0,0,0,1.13-.26.82.82,0,0,0,.42-.75,1.23,1.23,0,0,0,0-.2.61.61,0,0,0-.09-.18,1.31,1.31,0,0,1-.12-.15.62.62,0,0,0-.19-.12l-.21-.11-.29-.1-.3-.1-.36-.11-.4-.11c-.46-.15-.84-.28-1.14-.4a7.49,7.49,0,0,1-.86-.41,2.57,2.57,0,0,1-.65-.5,2,2,0,0,1-.37-.63,2.31,2.31,0,0,1-.13-.82,2.67,2.67,0,0,1,1-2.22,4.36,4.36,0,0,1,2.78-.83,5,5,0,0,1,3.54,1.34l-1,1.53a4.45,4.45,0,0,0-2.68-1.08,2.13,2.13,0,0,0-1,.23.77.77,0,0,0-.41.74.74.74,0,0,0,.36.69,6,6,0,0,0,1.35.5c.52.15.93.28,1.24.39a9.27,9.27,0,0,1,.94.41,3,3,0,0,1,.74.51,2.17,2.17,0,0,1,.41.66,2.29,2.29,0,0,1,.16.9,2.6,2.6,0,0,1-1,2.18A4.37,4.37,0,0,1,85.9,415.13Z"/><path class="cls-1" d="M188.13,383.17l3.45,9.83,3.42-9.83h2.61L192.77,396h-2.39l-4.86-12.78Z"/><path class="cls-1" d="M199.19,385.2v-2.39h2.41v2.39Zm0,10.75v-9.43h2.41V396Z"/><path class="cls-1" d="M203.65,391.23a5.55,5.55,0,0,1,.54-2.46A4.42,4.42,0,0,1,205.7,387a3.82,3.82,0,0,1,2.17-.65,3.56,3.56,0,0,1,1.85.5,3.66,3.66,0,0,1,1.33,1.32v-5.36h2.42v10.44a1,1,0,0,0,.12.55.6.6,0,0,0,.43.19v2a5.52,5.52,0,0,1-1,.12,1.68,1.68,0,0,1-1.07-.32,1.11,1.11,0,0,1-.48-.85l0-.58a3.51,3.51,0,0,1-1.39,1.34,4,4,0,0,1-1.88.47,4.29,4.29,0,0,1-2.32-.65,4.59,4.59,0,0,1-1.6-1.78A5.35,5.35,0,0,1,203.65,391.23Zm7.4,1.27v-2.25a2.9,2.9,0,0,0-1-1.31,2.33,2.33,0,0,0-1.43-.53,2.18,2.18,0,0,0-1.77.86,3.07,3.07,0,0,0-.7,2,2.77,2.77,0,0,0,.74,2,2.45,2.45,0,0,0,3.24.36A2.24,2.24,0,0,0,211.05,392.5Z"/><path class="cls-1" d="M220.66,396.13a5.22,5.22,0,0,1-2.63-.67,4.69,4.69,0,0,1-1.75-1.76,5,5,0,0,1-.59-2.41,5.23,5.23,0,0,1,.59-2.46A4.58,4.58,0,0,1,218,387a5.5,5.5,0,0,1,4.71-.28,4.34,4.34,0,0,1,1.55,1.07,4.55,4.55,0,0,1,1,1.54,4.93,4.93,0,0,1,.34,1.84,5.56,5.56,0,0,1-.05.8h-7.3a2.49,2.49,0,0,0,2.51,2.37,2.69,2.69,0,0,0,1.36-.36,1.81,1.81,0,0,0,.87-.93l2.07.59a4.19,4.19,0,0,1-1.69,1.78A5.31,5.31,0,0,1,220.66,396.13Zm-2.47-5.66h4.93a2.62,2.62,0,0,0-.79-1.71,2.47,2.47,0,0,0-3.36,0A2.58,2.58,0,0,0,218.19,390.47Z"/><path class="cls-1" d="M226.91,391.25a5.09,5.09,0,0,1,.35-1.87,4.81,4.81,0,0,1,1-1.56,4.33,4.33,0,0,1,1.57-1.07,5.15,5.15,0,0,1,2.06-.4,5,5,0,0,1,2.62.68,4.64,4.64,0,0,1,1.73,1.79,5.19,5.19,0,0,1,.58,2.43,5.07,5.07,0,0,1-.34,1.86,4.78,4.78,0,0,1-1,1.55,4.29,4.29,0,0,1-1.56,1.07,5.29,5.29,0,0,1-2.06.4,5.55,5.55,0,0,1-1.7-.26,4.76,4.76,0,0,1-1.38-.72,4.94,4.94,0,0,1-1-1.07,4.54,4.54,0,0,1-.64-1.33A5.09,5.09,0,0,1,226.91,391.25Zm5,2.83a2.22,2.22,0,0,0,1.75-.81,3,3,0,0,0,.71-2,3,3,0,0,0-.71-2,2.32,2.32,0,0,0-3.51,0,3,3,0,0,0-.71,2,2.91,2.91,0,0,0,.71,2A2.26,2.26,0,0,0,231.87,394.08Z"/><path class="cls-1" d="M246,394.3v5.48h-2.41V386.52h2.11v1.62a3.93,3.93,0,0,1,1.37-1.32,3.83,3.83,0,0,1,1.88-.47,4.07,4.07,0,0,1,2.26.66,4.53,4.53,0,0,1,1.59,1.77,5.24,5.24,0,0,1,.57,2.43,5.82,5.82,0,0,1-.53,2.49,4.4,4.4,0,0,1-1.48,1.78,3.69,3.69,0,0,1-2.12.65,3.81,3.81,0,0,1-1.92-.49A3.47,3.47,0,0,1,246,394.3Zm4.9-3.09a2.81,2.81,0,0,0-.75-2,2.43,2.43,0,0,0-1.86-.81,2.46,2.46,0,0,0-1.38.45A2.25,2.25,0,0,0,246,390v2.22a3.25,3.25,0,0,0,1,1.34,2.31,2.31,0,0,0,1.44.53,2.22,2.22,0,0,0,1.76-.85A3.12,3.12,0,0,0,250.94,391.21Z"/><path class="cls-1" d="M254.89,391.25a5.09,5.09,0,0,1,.35-1.87,4.81,4.81,0,0,1,1-1.56,4.42,4.42,0,0,1,1.57-1.07,5.18,5.18,0,0,1,2.06-.4,5,5,0,0,1,2.62.68,4.57,4.57,0,0,1,1.73,1.79,5.33,5.33,0,0,1,.24,4.29,4.93,4.93,0,0,1-1,1.55,4.47,4.47,0,0,1-1.56,1.07,5.38,5.38,0,0,1-2.07.4,5.55,5.55,0,0,1-1.7-.26,4.76,4.76,0,0,1-1.38-.72,4.94,4.94,0,0,1-1-1.07,4.54,4.54,0,0,1-.64-1.33A5.09,5.09,0,0,1,254.89,391.25Zm5,2.83a2.22,2.22,0,0,0,1.75-.81,3,3,0,0,0,.71-2,3,3,0,0,0-.71-2,2.32,2.32,0,0,0-3.51,0,3.26,3.26,0,0,0,0,4.06A2.26,2.26,0,0,0,259.85,394.08Z"/><path class="cls-1" d="M270.32,396.13a6.62,6.62,0,0,1-2.32-.41,5.1,5.1,0,0,1-1.87-1.16L267,393a5.27,5.27,0,0,0,3.24,1.33,2.06,2.06,0,0,0,1.13-.26.82.82,0,0,0,.42-.75,1.23,1.23,0,0,0,0-.2.61.61,0,0,0-.09-.18,1.31,1.31,0,0,1-.12-.15.62.62,0,0,0-.19-.12l-.21-.11-.29-.1-.3-.1-.36-.11-.4-.11c-.46-.15-.84-.28-1.14-.4a7.49,7.49,0,0,1-.86-.41,2.57,2.57,0,0,1-.65-.5,2,2,0,0,1-.37-.63,2.31,2.31,0,0,1-.13-.82,2.67,2.67,0,0,1,1-2.22,4.36,4.36,0,0,1,2.78-.83,5,5,0,0,1,3.54,1.34l-1,1.53a4.45,4.45,0,0,0-2.68-1.08,2.13,2.13,0,0,0-1,.23.77.77,0,0,0-.41.74.74.74,0,0,0,.36.69,6,6,0,0,0,1.35.5c.52.15.93.28,1.24.39a9.27,9.27,0,0,1,.94.41,3,3,0,0,1,.74.51,2.17,2.17,0,0,1,.41.66,2.29,2.29,0,0,1,.16.9,2.6,2.6,0,0,1-1,2.18A4.37,4.37,0,0,1,270.32,396.13Z"/><path class="cls-1" d="M281.78,395.47a6.73,6.73,0,0,1-2.66.64,3.52,3.52,0,0,1-.95-.13,2.26,2.26,0,0,1-.77-.4,1.77,1.77,0,0,1-.54-.73,2.68,2.68,0,0,1-.19-1.06v-5.42h-1.24v-1.85h1.24v-3.06h2.41v3.06h2v1.85h-2V393c0,.61.32.92.9.92a3.55,3.55,0,0,0,1.32-.34Z"/><path class="cls-1" d="M287.74,396.13a5.22,5.22,0,0,1-2.63-.67,4.59,4.59,0,0,1-1.74-1.76,4.92,4.92,0,0,1-.6-2.41,5.12,5.12,0,0,1,.6-2.46,4.49,4.49,0,0,1,1.74-1.8,5.5,5.5,0,0,1,4.71-.28,4.47,4.47,0,0,1,1.56,1.07,4.88,4.88,0,0,1,1,1.54,5.13,5.13,0,0,1,.33,1.84,4.4,4.4,0,0,1-.05.8h-7.29a2.44,2.44,0,0,0,.8,1.72,2.47,2.47,0,0,0,1.7.65,2.75,2.75,0,0,0,1.37-.36,1.84,1.84,0,0,0,.86-.93l2.07.59a4.13,4.13,0,0,1-1.69,1.78A5.31,5.31,0,0,1,287.74,396.13Zm-2.47-5.66h4.93a2.62,2.62,0,0,0-.79-1.71,2.34,2.34,0,0,0-1.68-.66,2.32,2.32,0,0,0-1.67.66A2.55,2.55,0,0,0,285.27,390.47Z"/><path class="cls-1" d="M294,391.23a5.55,5.55,0,0,1,.54-2.46,4.35,4.35,0,0,1,1.51-1.77,3.82,3.82,0,0,1,2.17-.65,3.59,3.59,0,0,1,1.85.5,3.74,3.74,0,0,1,1.33,1.32v-5.36h2.42v10.44a1,1,0,0,0,.12.55.58.58,0,0,0,.43.19v2a5.61,5.61,0,0,1-1,.12,1.67,1.67,0,0,1-1.06-.32,1.11,1.11,0,0,1-.48-.85l0-.58a3.47,3.47,0,0,1-1.4,1.34,4,4,0,0,1-1.88.47,4.28,4.28,0,0,1-2.31-.65,4.52,4.52,0,0,1-1.6-1.78A5.35,5.35,0,0,1,294,391.23Zm7.4,1.27v-2.25a2.86,2.86,0,0,0-1-1.31,2.28,2.28,0,0,0-1.42-.53,2.18,2.18,0,0,0-1.77.86,3.07,3.07,0,0,0-.7,2,2.77,2.77,0,0,0,.74,2,2.45,2.45,0,0,0,3.24.36A2.29,2.29,0,0,0,301.41,392.5Z"/><path class="cls-1" d="M215.21,405.52h2.29L213.56,415h-2L210,410.9,208.41,415h-2l-3.93-9.43h2.27l2.81,7.13,1.1-3.08-1.64-4h2l1,2.88,1-2.88h2l-1.63,4,1.12,3.08Z"/><path class="cls-1" d="M219.06,404.2v-2.39h2.41v2.39Zm0,10.75v-9.43h2.41V415Z"/><path class="cls-1" d="M229.75,414.47a6.73,6.73,0,0,1-2.66.64,3.52,3.52,0,0,1-1-.13,2.35,2.35,0,0,1-.77-.4,1.77,1.77,0,0,1-.54-.73,2.68,2.68,0,0,1-.19-1.06v-5.42H223.4v-1.85h1.24v-3.06h2.42v3.06h2v1.85h-2V412c0,.61.31.92.89.92a3.55,3.55,0,0,0,1.32-.34Z"/><path class="cls-1" d="M240.22,415h-2.41v-5.29a2.68,2.68,0,0,0-.41-1.64,1.37,1.37,0,0,0-1.17-.54,2.28,2.28,0,0,0-1.39.56,2.84,2.84,0,0,0-1,1.4V415h-2.41V401.81h2.41v5.46a3.77,3.77,0,0,1,1.42-1.41,3.9,3.9,0,0,1,2-.51q3,0,3,3.71Z"/><path class="cls-1" d="M253.15,407.6a4.58,4.58,0,0,0-2,.44,2.48,2.48,0,0,0-1.22,1.21V415h-2.41v-9.43h2.21v2A4.4,4.4,0,0,1,251,406a2.92,2.92,0,0,1,1.64-.6h.48Z"/><path class="cls-1" d="M255,404.2v-2.39h2.41v2.39ZM255,415v-9.43h2.41V415Z"/><path class="cls-1" d="M263.46,415.13a6.66,6.66,0,0,1-2.32-.41,5.1,5.1,0,0,1-1.87-1.16l.86-1.56a5.27,5.27,0,0,0,3.24,1.33,2.06,2.06,0,0,0,1.13-.26.82.82,0,0,0,.42-.75,1.23,1.23,0,0,0,0-.2.61.61,0,0,0-.09-.18l-.12-.15a.7.7,0,0,0-.18-.12l-.22-.11-.29-.1-.3-.1-.36-.11-.4-.11c-.46-.15-.84-.28-1.14-.4a7.49,7.49,0,0,1-.86-.41,2.57,2.57,0,0,1-.65-.5,2,2,0,0,1-.37-.63,2.31,2.31,0,0,1-.13-.82,2.67,2.67,0,0,1,1-2.22,4.36,4.36,0,0,1,2.78-.83,5,5,0,0,1,3.54,1.34l-1,1.53a4.5,4.5,0,0,0-2.69-1.08,2.13,2.13,0,0,0-1,.23.77.77,0,0,0-.41.74.74.74,0,0,0,.36.69,6,6,0,0,0,1.35.5c.52.15.93.28,1.24.39a9.27,9.27,0,0,1,.94.41,3,3,0,0,1,.74.51,2,2,0,0,1,.41.66,2.29,2.29,0,0,1,.16.9,2.62,2.62,0,0,1-1,2.18A4.42,4.42,0,0,1,263.46,415.13Z"/><path class="cls-1" d="M275.77,415,273,410.88l-1.28,1.27V415h-2.41V401.81h2.41v7.95l3.8-4.22h2.56l-3.51,4,3.76,5.41Z"/><path class="cls-1" d="M280,416.79a5,5,0,0,0,1.08.17.93.93,0,0,0,.8-.41,6.09,6.09,0,0,0,.66-1.6l-3.72-9.43h2.5l2.54,7,2.23-7h2.31l-4,11.3a3.22,3.22,0,0,1-1.18,1.63,3.39,3.39,0,0,1-2,.62,4,4,0,0,1-1.22-.2Z"/><path class="cls-1" d="M215.9,434.13a5.36,5.36,0,0,1-2.06-.4,4.59,4.59,0,0,1-2.57-2.64,4.89,4.89,0,0,1-.36-1.86,5.14,5.14,0,0,1,.59-2.43,4.62,4.62,0,0,1,1.74-1.77,5.51,5.51,0,0,1,5.25,0,4.28,4.28,0,0,1,1.66,1.77l-2.36.72a2.17,2.17,0,0,0-1.92-1.08,2.26,2.26,0,0,0-1.77.79,3.26,3.26,0,0,0,0,4.06,2.23,2.23,0,0,0,1.75.82,2.39,2.39,0,0,0,1.19-.32,1.84,1.84,0,0,0,.77-.8l2.35.72a3.91,3.91,0,0,1-1.63,1.77A5.1,5.1,0,0,1,215.9,434.13Z"/><path class="cls-1" d="M221.42,429.25a5.09,5.09,0,0,1,.35-1.87,4.81,4.81,0,0,1,1-1.56,4.42,4.42,0,0,1,1.57-1.07,5.18,5.18,0,0,1,2.06-.4A5,5,0,0,1,229,425a4.57,4.57,0,0,1,1.73,1.79,5.19,5.19,0,0,1,.58,2.43,5.07,5.07,0,0,1-.34,1.86,4.93,4.93,0,0,1-1,1.55,4.42,4.42,0,0,1-1.57,1.07,5.29,5.29,0,0,1-2.06.4,5.55,5.55,0,0,1-1.7-.26,4.76,4.76,0,0,1-1.38-.72,4.94,4.94,0,0,1-1-1.07,4.54,4.54,0,0,1-.64-1.33A5.09,5.09,0,0,1,221.42,429.25Zm5,2.83a2.22,2.22,0,0,0,1.75-.81,3,3,0,0,0,.71-2,3,3,0,0,0-.71-2,2.32,2.32,0,0,0-3.51,0,3.26,3.26,0,0,0,0,4.06A2.26,2.26,0,0,0,226.38,432.08Z"/><path class="cls-1" d="M242.14,434h-2.41v-5.29c0-1.45-.5-2.18-1.49-2.18a2.4,2.4,0,0,0-1.47.56,2.79,2.79,0,0,0-1,1.4V434h-2.41v-9.43h2.18v1.75a3.64,3.64,0,0,1,1.52-1.41,4.83,4.83,0,0,1,2.22-.51,3,3,0,0,1,1.2.22,2.17,2.17,0,0,1,.82.56,2.57,2.57,0,0,1,.5.84,4.58,4.58,0,0,1,.25,1,7.31,7.31,0,0,1,.07,1.09Z"/><path class="cls-1" d="M250.29,433.47a6.73,6.73,0,0,1-2.66.64,3.46,3.46,0,0,1-.95-.13,2.4,2.4,0,0,1-.78-.4,1.75,1.75,0,0,1-.53-.73,2.67,2.67,0,0,1-.2-1.06v-5.42h-1.24v-1.85h1.24v-3.06h2.42v3.06h2v1.85h-2V431c0,.61.32.92.9.92a3.55,3.55,0,0,0,1.32-.34Z"/><path class="cls-1" d="M256.25,434.13a5.22,5.22,0,0,1-2.63-.67,4.62,4.62,0,0,1-1.75-1.76,4.92,4.92,0,0,1-.59-2.41,5.11,5.11,0,0,1,.59-2.46,4.52,4.52,0,0,1,1.75-1.8,5.5,5.5,0,0,1,4.71-.28,4.34,4.34,0,0,1,1.55,1.07,4.55,4.55,0,0,1,1,1.54,4.93,4.93,0,0,1,.34,1.84,5.56,5.56,0,0,1-.05.8h-7.3a2.49,2.49,0,0,0,2.51,2.37,2.71,2.71,0,0,0,1.36-.36,1.81,1.81,0,0,0,.87-.93l2.07.59a4.15,4.15,0,0,1-1.7,1.78A5.24,5.24,0,0,1,256.25,434.13Zm-2.47-5.66h4.93a2.63,2.63,0,0,0-.8-1.71,2.46,2.46,0,0,0-3.35,0A2.58,2.58,0,0,0,253.78,428.47Z"/><path class="cls-1" d="M271.86,434h-2.41v-5.29c0-1.45-.5-2.18-1.49-2.18a2.4,2.4,0,0,0-1.47.56,2.79,2.79,0,0,0-1,1.4V434H263.1v-9.43h2.18v1.75a3.64,3.64,0,0,1,1.52-1.41,4.83,4.83,0,0,1,2.22-.51,3,3,0,0,1,1.2.22,2.17,2.17,0,0,1,.82.56,2.57,2.57,0,0,1,.5.84,4.07,4.07,0,0,1,.25,1,7.31,7.31,0,0,1,.07,1.09Z"/><path class="cls-1" d="M280,433.47a6.73,6.73,0,0,1-2.66.64,3.52,3.52,0,0,1-1-.13,2.4,2.4,0,0,1-.78-.4,1.84,1.84,0,0,1-.53-.73,2.68,2.68,0,0,1-.19-1.06v-5.42h-1.24v-1.85h1.24v-3.06h2.41v3.06h2v1.85h-2V431c0,.61.32.92.9.92a3.55,3.55,0,0,0,1.32-.34Z"/><path class="cls-1" d="M374,383.17h2.53L381.21,396h-2.56l-1.18-3.18H373L371.83,396h-2.56Zm3,7.85-1.77-5.27L373.41,391Z"/><path class="cls-1" d="M388.44,388.6a4.58,4.58,0,0,0-2,.44,2.48,2.48,0,0,0-1.22,1.21V396h-2.41v-9.43H385v2a4.4,4.4,0,0,1,1.28-1.53,2.92,2.92,0,0,1,1.64-.6h.48Z"/><path class="cls-1" d="M395.89,395.47a6.73,6.73,0,0,1-2.66.64,3.52,3.52,0,0,1-1-.13,2.26,2.26,0,0,1-.77-.4,1.77,1.77,0,0,1-.54-.73,2.68,2.68,0,0,1-.19-1.06v-5.42h-1.24v-1.85h1.24v-3.06h2.41v3.06h2v1.85h-2V393c0,.61.32.92.9.92a3.55,3.55,0,0,0,1.32-.34Z"/><path class="cls-1" d="M397.6,385.2v-2.39H400v2.39Zm0,10.75v-9.43H400V396Z"/><path class="cls-1" d="M407,396.13a5.45,5.45,0,0,1-2.07-.4,4.62,4.62,0,0,1-1.58-1.08,4.83,4.83,0,0,1-1-1.56,5.08,5.08,0,0,1-.35-1.86,5.14,5.14,0,0,1,.59-2.43,4.62,4.62,0,0,1,1.74-1.77,5.14,5.14,0,0,1,2.64-.68,5,5,0,0,1,2.6.65,4.24,4.24,0,0,1,1.67,1.77l-2.36.72a2.22,2.22,0,0,0-.81-.8,2.36,2.36,0,0,0-2.88.51,3.26,3.26,0,0,0,0,4.06,2.22,2.22,0,0,0,1.74.82,2.4,2.4,0,0,0,1.2-.32,1.77,1.77,0,0,0,.76-.8l2.36.72a3.91,3.91,0,0,1-1.63,1.77A5.1,5.1,0,0,1,407,396.13Z"/><path class="cls-1" d="M413.22,382.81h2.41v10.12a1.34,1.34,0,0,0,.2.86.75.75,0,0,0,.61.24,2.7,2.7,0,0,0,1.13-.26l.33,1.84a5.7,5.7,0,0,1-1.12.35,5.76,5.76,0,0,1-1.19.13,2.39,2.39,0,0,1-1.75-.61,2.28,2.28,0,0,1-.62-1.71Z"/><path class="cls-1" d="M423.77,396.13a5.19,5.19,0,0,1-2.63-.67,4.62,4.62,0,0,1-1.75-1.76,4.92,4.92,0,0,1-.6-2.41,5.12,5.12,0,0,1,.6-2.46,4.52,4.52,0,0,1,1.75-1.8,5.5,5.5,0,0,1,4.71-.28,4.34,4.34,0,0,1,1.55,1.07,4.71,4.71,0,0,1,1,1.54,4.93,4.93,0,0,1,.34,1.84,5.56,5.56,0,0,1-.05.8h-7.3a2.49,2.49,0,0,0,2.51,2.37,2.71,2.71,0,0,0,1.36-.36,1.81,1.81,0,0,0,.87-.93l2.06.59a4.07,4.07,0,0,1-1.69,1.78A5.24,5.24,0,0,1,423.77,396.13Zm-2.47-5.66h4.93a2.63,2.63,0,0,0-.8-1.71,2.46,2.46,0,0,0-3.35,0A2.58,2.58,0,0,0,421.3,390.47Z"/><path class="cls-1" d="M434.09,396.13a6.62,6.62,0,0,1-2.32-.41,5.1,5.1,0,0,1-1.87-1.16l.86-1.56a5.27,5.27,0,0,0,3.24,1.33,2.06,2.06,0,0,0,1.13-.26.82.82,0,0,0,.42-.75,1.23,1.23,0,0,0,0-.2.61.61,0,0,0-.09-.18,1.31,1.31,0,0,1-.12-.15.62.62,0,0,0-.19-.12l-.22-.11-.28-.1-.3-.1-.36-.11-.4-.11c-.46-.15-.84-.28-1.14-.4a7.49,7.49,0,0,1-.86-.41,2.4,2.4,0,0,1-.65-.5,2,2,0,0,1-.37-.63,2.31,2.31,0,0,1-.14-.82,2.68,2.68,0,0,1,1-2.22,4.36,4.36,0,0,1,2.78-.83,5,5,0,0,1,3.54,1.34l-1,1.53a4.45,4.45,0,0,0-2.68-1.08,2.13,2.13,0,0,0-1,.23.78.78,0,0,0-.42.74.74.74,0,0,0,.37.69,6,6,0,0,0,1.35.5c.52.15.93.28,1.24.39a9.27,9.27,0,0,1,.94.41,3,3,0,0,1,.74.51,2.17,2.17,0,0,1,.41.66,2.29,2.29,0,0,1,.16.9,2.6,2.6,0,0,1-1,2.18A4.37,4.37,0,0,1,434.09,396.13Z"/><path class="cls-1" d="M447.13,394.3v5.48h-2.41V386.52h2.11v1.62a3.72,3.72,0,0,1,3.25-1.79,4.09,4.09,0,0,1,2.26.66,4.43,4.43,0,0,1,1.58,1.77,5.24,5.24,0,0,1,.57,2.43,5.67,5.67,0,0,1-.53,2.49,4.37,4.37,0,0,1-1.47,1.78,3.71,3.71,0,0,1-2.12.65,3.81,3.81,0,0,1-1.92-.49A3.47,3.47,0,0,1,447.13,394.3Zm4.89-3.09a2.81,2.81,0,0,0-.75-2,2.42,2.42,0,0,0-1.86-.81,2.46,2.46,0,0,0-1.38.45,2.23,2.23,0,0,0-.9,1.13v2.22a3.16,3.16,0,0,0,1,1.34,2.31,2.31,0,0,0,1.43.53,2.19,2.19,0,0,0,1.76-.85A3.07,3.07,0,0,0,452,391.21Z"/><path class="cls-1" d="M456,391.25a5.09,5.09,0,0,1,.35-1.87,4.64,4.64,0,0,1,1-1.56,4.29,4.29,0,0,1,1.56-1.07,5.2,5.2,0,0,1,2.07-.4,5,5,0,0,1,2.62.68,4.54,4.54,0,0,1,1.72,1.79,5.22,5.22,0,0,1,.24,4.29,4.93,4.93,0,0,1-1,1.55,4.29,4.29,0,0,1-1.56,1.07,5.33,5.33,0,0,1-2.06.4,5.5,5.5,0,0,1-1.7-.26,4.52,4.52,0,0,1-1.38-.72,4.94,4.94,0,0,1-1-1.07,4.57,4.57,0,0,1-.65-1.33A5.43,5.43,0,0,1,456,391.25Zm5,2.83a2.24,2.24,0,0,0,1.75-.81,3,3,0,0,0,.71-2,3,3,0,0,0-.71-2,2.32,2.32,0,0,0-3.51,0,3.28,3.28,0,0,0,0,4.06A2.27,2.27,0,0,0,460.94,394.08Z"/><path class="cls-1" d="M471.4,396.13a6.71,6.71,0,0,1-2.32-.41,5.19,5.19,0,0,1-1.87-1.16l.86-1.56a5.31,5.31,0,0,0,3.25,1.33,2.08,2.08,0,0,0,1.13-.26.84.84,0,0,0,.41-.75.65.65,0,0,0,0-.2.34.34,0,0,0-.09-.18l-.11-.15a.62.62,0,0,0-.19-.12l-.22-.11-.28-.1-.3-.1-.37-.11-.39-.11c-.47-.15-.85-.28-1.14-.4a6.9,6.9,0,0,1-.87-.41,2.57,2.57,0,0,1-.65-.5,2.16,2.16,0,0,1-.36-.63,2.31,2.31,0,0,1-.14-.82,2.68,2.68,0,0,1,1-2.22,4.33,4.33,0,0,1,2.77-.83,5,5,0,0,1,3.55,1.34l-1,1.53a4.47,4.47,0,0,0-2.68-1.08,2.2,2.2,0,0,0-1.05.23.79.79,0,0,0-.41.74.73.73,0,0,0,.37.69,5.88,5.88,0,0,0,1.34.5c.53.15.94.28,1.24.39a9.4,9.4,0,0,1,.95.41,3.15,3.15,0,0,1,.74.51,2.39,2.39,0,0,1,.41.66,2.5,2.5,0,0,1,.15.9,2.62,2.62,0,0,1-1,2.18A4.38,4.38,0,0,1,471.4,396.13Z"/><path class="cls-1" d="M482.87,395.47a6.73,6.73,0,0,1-2.67.64,3.44,3.44,0,0,1-.94-.13,2.4,2.4,0,0,1-.78-.4,1.67,1.67,0,0,1-.53-.73,2.67,2.67,0,0,1-.2-1.06v-5.42h-1.24v-1.85h1.24v-3.06h2.42v3.06h2v1.85h-2V393c0,.61.32.92.9.92a3.46,3.46,0,0,0,1.31-.34Z"/><path class="cls-1" d="M488.83,396.13a5.19,5.19,0,0,1-2.63-.67,4.62,4.62,0,0,1-1.75-1.76,4.92,4.92,0,0,1-.6-2.41,5.12,5.12,0,0,1,.6-2.46,4.52,4.52,0,0,1,1.75-1.8,5.5,5.5,0,0,1,4.71-.28,4.34,4.34,0,0,1,1.55,1.07,4.71,4.71,0,0,1,1,1.54,4.93,4.93,0,0,1,.34,1.84,5.56,5.56,0,0,1-.05.8h-7.3a2.49,2.49,0,0,0,2.51,2.37,2.71,2.71,0,0,0,1.36-.36,1.81,1.81,0,0,0,.87-.93l2.06.59a4.07,4.07,0,0,1-1.69,1.78A5.27,5.27,0,0,1,488.83,396.13Zm-2.47-5.66h4.93a2.63,2.63,0,0,0-.8-1.71,2.46,2.46,0,0,0-3.35,0A2.58,2.58,0,0,0,486.36,390.47Z"/><path class="cls-1" d="M495.1,391.23a5.68,5.68,0,0,1,.53-2.46,4.42,4.42,0,0,1,1.51-1.77,3.85,3.85,0,0,1,2.18-.65,3.59,3.59,0,0,1,1.85.5,3.82,3.82,0,0,1,1.33,1.32v-5.36h2.41v10.44a.87.87,0,0,0,.13.55.56.56,0,0,0,.43.19v2a5.71,5.71,0,0,1-1,.12,1.68,1.68,0,0,1-1.07-.32,1.18,1.18,0,0,1-.48-.85l0-.58a3.54,3.54,0,0,1-1.4,1.34,4,4,0,0,1-1.88.47,4.23,4.23,0,0,1-2.31-.65,4.44,4.44,0,0,1-1.6-1.78A5.35,5.35,0,0,1,495.1,391.23Zm7.4,1.27v-2.25a2.93,2.93,0,0,0-1-1.31,2.31,2.31,0,0,0-1.43-.53,2.18,2.18,0,0,0-1.77.86,3.12,3.12,0,0,0-.7,2,2.81,2.81,0,0,0,.74,2,2.47,2.47,0,0,0,3.25.36A2.35,2.35,0,0,0,502.5,392.5Z"/><path class="cls-1" d="M409.74,405.52H412L408.09,415h-2l-1.59-4.05L402.94,415h-2L397,405.52h2.27l2.81,7.13,1.1-3.08-1.65-4h2l1,2.88,1-2.88h2l-1.63,4,1.11,3.08Z"/><path class="cls-1" d="M413.59,404.2v-2.39H416v2.39Zm0,10.75v-9.43H416V415Z"/><path class="cls-1" d="M424.28,414.47a6.73,6.73,0,0,1-2.66.64,3.46,3.46,0,0,1-.95-.13,2.4,2.4,0,0,1-.78-.4,1.84,1.84,0,0,1-.53-.73,2.67,2.67,0,0,1-.2-1.06v-5.42h-1.23v-1.85h1.23v-3.06h2.42v3.06h2v1.85h-2V412c0,.61.32.92.9.92a3.55,3.55,0,0,0,1.32-.34Z"/><path class="cls-1" d="M434.75,415h-2.41v-5.29a2.75,2.75,0,0,0-.41-1.64,1.4,1.4,0,0,0-1.17-.54,2.26,2.26,0,0,0-1.39.56,2.77,2.77,0,0,0-1,1.4V415H426V401.81h2.41v5.46a3.77,3.77,0,0,1,1.42-1.41,3.9,3.9,0,0,1,2-.51q3,0,3,3.71Z"/><path class="cls-1" d="M447.68,407.6a4.58,4.58,0,0,0-2,.44,2.54,2.54,0,0,0-1.23,1.21V415h-2.4v-9.43h2.21v2a4.3,4.3,0,0,1,1.28-1.53,2.9,2.9,0,0,1,1.64-.6h.48Z"/><path class="cls-1" d="M449.48,404.2v-2.39h2.41v2.39Zm0,10.75v-9.43h2.41V415Z"/><path class="cls-1" d="M458,415.13a6.62,6.62,0,0,1-2.32-.41,5.14,5.14,0,0,1-1.88-1.16l.86-1.56a5.31,5.31,0,0,0,3.25,1.33,2.08,2.08,0,0,0,1.13-.26.82.82,0,0,0,.41-.75.65.65,0,0,0,0-.2.42.42,0,0,0-.08-.18,1.31,1.31,0,0,1-.12-.15.62.62,0,0,0-.19-.12l-.22-.11-.28-.1-.3-.1-.37-.11-.39-.11c-.47-.15-.85-.28-1.14-.4a6.9,6.9,0,0,1-.87-.41,2.76,2.76,0,0,1-.65-.5,2.16,2.16,0,0,1-.36-.63,2.31,2.31,0,0,1-.14-.82,2.68,2.68,0,0,1,1.05-2.22,4.36,4.36,0,0,1,2.78-.83,5,5,0,0,1,3.54,1.34l-1,1.53a4.47,4.47,0,0,0-2.68-1.08,2.13,2.13,0,0,0-1,.23.78.78,0,0,0-.42.74.74.74,0,0,0,.37.69,6,6,0,0,0,1.35.5c.52.15.93.28,1.24.39s.61.25.94.41a3.15,3.15,0,0,1,.74.51,2.39,2.39,0,0,1,.41.66,2.49,2.49,0,0,1,.16.9,2.63,2.63,0,0,1-1,2.18A4.37,4.37,0,0,1,458,415.13Z"/><path class="cls-1" d="M470.29,415l-2.75-4.07-1.28,1.27V415h-2.41V401.81h2.41v7.95l3.8-4.22h2.55l-3.5,4,3.76,5.41Z"/><path class="cls-1" d="M474.53,416.79a5,5,0,0,0,1.08.17.93.93,0,0,0,.8-.41,6.09,6.09,0,0,0,.66-1.6l-3.73-9.43h2.51l2.54,7,2.23-7h2.3l-4,11.3a3.24,3.24,0,0,1-1.19,1.63,3.35,3.35,0,0,1-2,.62,4,4,0,0,1-1.21-.2Z"/><path class="cls-1" d="M408.3,434.13a5.38,5.38,0,0,1-2.07-.4,4.62,4.62,0,0,1-1.58-1.08,4.83,4.83,0,0,1-1-1.56,4.89,4.89,0,0,1-.36-1.86,5,5,0,0,1,.6-2.43,4.48,4.48,0,0,1,1.74-1.77,5.49,5.49,0,0,1,5.24,0,4.22,4.22,0,0,1,1.66,1.77l-2.35.72a2.22,2.22,0,0,0-.81-.8,2.36,2.36,0,0,0-2.88.51,3.24,3.24,0,0,0,0,4.06,2.24,2.24,0,0,0,1.75.82,2.33,2.33,0,0,0,1.19-.32,1.79,1.79,0,0,0,.77-.8l2.36.72a3.93,3.93,0,0,1-1.64,1.77A5.06,5.06,0,0,1,408.3,434.13Z"/><path class="cls-1" d="M413.82,429.25a5.09,5.09,0,0,1,.35-1.87,4.64,4.64,0,0,1,1-1.56,4.29,4.29,0,0,1,1.56-1.07,5.2,5.2,0,0,1,2.07-.4,5,5,0,0,1,2.62.68,4.54,4.54,0,0,1,1.72,1.79,5.22,5.22,0,0,1,.24,4.29,4.93,4.93,0,0,1-1,1.55,4.29,4.29,0,0,1-1.56,1.07,5.33,5.33,0,0,1-2.06.4,5.5,5.5,0,0,1-1.7-.26,4.52,4.52,0,0,1-1.38-.72,4.94,4.94,0,0,1-1-1.07,4.57,4.57,0,0,1-.65-1.33A5.43,5.43,0,0,1,413.82,429.25Zm5,2.83a2.24,2.24,0,0,0,1.75-.81,3,3,0,0,0,.71-2,3,3,0,0,0-.71-2,2.32,2.32,0,0,0-3.51,0,3.28,3.28,0,0,0,0,4.06A2.27,2.27,0,0,0,418.78,432.08Z"/><path class="cls-1" d="M434.54,434h-2.41v-5.29c0-1.45-.5-2.18-1.5-2.18a2.39,2.39,0,0,0-1.46.56,2.87,2.87,0,0,0-1,1.4V434h-2.41v-9.43H428v1.75a3.61,3.61,0,0,1,1.53-1.41,4.78,4.78,0,0,1,2.22-.51,3,3,0,0,1,1.2.22,2.25,2.25,0,0,1,.82.56,2.75,2.75,0,0,1,.5.84,4.58,4.58,0,0,1,.25,1,8.94,8.94,0,0,1,.07,1.09Z"/><path class="cls-1" d="M442.68,433.47a6.69,6.69,0,0,1-2.66.64,3.57,3.57,0,0,1-.95-.13,2.35,2.35,0,0,1-.77-.4,1.77,1.77,0,0,1-.54-.73,2.68,2.68,0,0,1-.19-1.06v-5.42h-1.24v-1.85h1.24v-3.06H440v3.06h2v1.85h-2V431c0,.61.31.92.89.92a3.55,3.55,0,0,0,1.32-.34Z"/><path class="cls-1" d="M448.65,434.13a5.17,5.17,0,0,1-2.63-.67,4.62,4.62,0,0,1-1.75-1.76,4.92,4.92,0,0,1-.6-2.41,5.12,5.12,0,0,1,.6-2.46A4.52,4.52,0,0,1,446,425a5.48,5.48,0,0,1,4.7-.28,4.29,4.29,0,0,1,1.56,1.07,4.88,4.88,0,0,1,1,1.54,5.14,5.14,0,0,1,.34,1.84,4.27,4.27,0,0,1-.06.8h-7.29a2.48,2.48,0,0,0,.81,1.72,2.45,2.45,0,0,0,1.69.65,2.75,2.75,0,0,0,1.37-.36,1.9,1.9,0,0,0,.87-.93l2.06.59a4.13,4.13,0,0,1-1.69,1.78A5.3,5.3,0,0,1,448.65,434.13Zm-2.47-5.66h4.93a2.63,2.63,0,0,0-.8-1.71,2.46,2.46,0,0,0-3.35,0A2.49,2.49,0,0,0,446.18,428.47Z"/><path class="cls-1" d="M464.26,434h-2.41v-5.29c0-1.45-.5-2.18-1.5-2.18a2.39,2.39,0,0,0-1.46.56,2.87,2.87,0,0,0-1,1.4V434h-2.41v-9.43h2.18v1.75a3.67,3.67,0,0,1,1.53-1.41,4.78,4.78,0,0,1,2.22-.51,3,3,0,0,1,1.2.22,2.25,2.25,0,0,1,.82.56,2.75,2.75,0,0,1,.5.84,4.58,4.58,0,0,1,.25,1,7.31,7.31,0,0,1,.07,1.09Z"/><path class="cls-1" d="M472.41,433.47a6.77,6.77,0,0,1-2.67.64,3.57,3.57,0,0,1-.95-.13,2.46,2.46,0,0,1-.77-.4,1.77,1.77,0,0,1-.54-.73,2.86,2.86,0,0,1-.19-1.06v-5.42h-1.24v-1.85h1.24v-3.06h2.42v3.06h2v1.85h-2V431c0,.61.31.92.89.92a3.55,3.55,0,0,0,1.32-.34Z"/><path class="cls-1" d="M754,396V383.17h4.64a7.23,7.23,0,0,1,2.74.5,5.2,5.2,0,0,1,2,1.37,6,6,0,0,1,1.18,2,7.41,7.41,0,0,1,.4,2.48,6.34,6.34,0,0,1-1.72,4.66A6.1,6.1,0,0,1,758.6,396Zm4.64-10.6h-2.16v8.42h2.16a3.46,3.46,0,0,0,2.79-1.18,4.54,4.54,0,0,0,1-3,4.46,4.46,0,0,0-1-3A3.53,3.53,0,0,0,758.6,385.35Z"/><path class="cls-1" d="M767,385.2v-2.39h2.41v2.39ZM767,396v-9.43h2.41V396Z"/><path class="cls-1" d="M777.68,388.6a4.66,4.66,0,0,0-2,.44,2.48,2.48,0,0,0-1.22,1.21V396h-2.41v-9.43h2.22v2a4.38,4.38,0,0,1,1.27-1.53,2.92,2.92,0,0,1,1.64-.6h.49Z"/><path class="cls-1" d="M783.72,396.13a5.16,5.16,0,0,1-2.62-.67,4.62,4.62,0,0,1-1.75-1.76,4.92,4.92,0,0,1-.6-2.41,5.12,5.12,0,0,1,.6-2.46,4.52,4.52,0,0,1,1.75-1.8,5.48,5.48,0,0,1,4.7-.28,4.29,4.29,0,0,1,1.56,1.07,4.88,4.88,0,0,1,1,1.54,5.13,5.13,0,0,1,.33,1.84,4.4,4.4,0,0,1,0,.8h-7.29a2.48,2.48,0,0,0,.81,1.72,2.45,2.45,0,0,0,1.69.65,2.75,2.75,0,0,0,1.37-.36,1.84,1.84,0,0,0,.86-.93l2.07.59a4.13,4.13,0,0,1-1.69,1.78A5.31,5.31,0,0,1,783.72,396.13Zm-2.47-5.66h4.94a2.67,2.67,0,0,0-.8-1.71,2.46,2.46,0,0,0-3.35,0A2.55,2.55,0,0,0,781.25,390.47Z"/><path class="cls-1" d="M795,396.13a5.38,5.38,0,0,1-2.07-.4,4.62,4.62,0,0,1-1.58-1.08,4.83,4.83,0,0,1-1-1.56,4.88,4.88,0,0,1-.35-1.86,5,5,0,0,1,.59-2.43,4.48,4.48,0,0,1,1.74-1.77,5.49,5.49,0,0,1,5.24,0,4.22,4.22,0,0,1,1.66,1.77l-2.35.72a2.22,2.22,0,0,0-.81-.8,2.36,2.36,0,0,0-2.88.51,3.24,3.24,0,0,0,0,4.06,2.24,2.24,0,0,0,1.75.82,2.33,2.33,0,0,0,1.19-.32,1.74,1.74,0,0,0,.77-.8l2.36.72a3.93,3.93,0,0,1-1.64,1.77A5,5,0,0,1,795,396.13Z"/><path class="cls-1" d="M806.83,395.47a6.77,6.77,0,0,1-2.67.64,3.57,3.57,0,0,1-.95-.13,2.46,2.46,0,0,1-.77-.4,1.77,1.77,0,0,1-.54-.73,2.86,2.86,0,0,1-.19-1.06v-5.42h-1.24v-1.85h1.24v-3.06h2.42v3.06h2v1.85h-2V393c0,.61.31.92.89.92a3.55,3.55,0,0,0,1.32-.34Z"/><path class="cls-1" d="M813.21,392.43v-5.91h2.41v5.38c0,1.45.52,2.18,1.56,2.18a2.43,2.43,0,0,0,1.38-.44,3.09,3.09,0,0,0,1.06-1.28v-5.84H822v6.73a.87.87,0,0,0,.13.55.63.63,0,0,0,.45.19v2a6.05,6.05,0,0,1-1.05.11,1.75,1.75,0,0,1-1.06-.3,1.12,1.12,0,0,1-.47-.82l0-.76a4,4,0,0,1-1.61,1.45,4.83,4.83,0,0,1-2.19.5,2.68,2.68,0,0,1-2.21-.94A4.3,4.3,0,0,1,813.21,392.43Z"/><path class="cls-1" d="M828.34,396.13a6.62,6.62,0,0,1-2.32-.41,5,5,0,0,1-1.87-1.16L825,393a5.27,5.27,0,0,0,3.24,1.33,2.08,2.08,0,0,0,1.13-.26.82.82,0,0,0,.42-.75,1.23,1.23,0,0,0,0-.2.61.61,0,0,0-.09-.18,1.31,1.31,0,0,1-.12-.15.62.62,0,0,0-.19-.12l-.22-.11-.28-.1-.3-.1-.37-.11-.39-.11c-.46-.15-.84-.28-1.14-.4a6.78,6.78,0,0,1-.86-.41,2.64,2.64,0,0,1-.66-.5,2.16,2.16,0,0,1-.36-.63,2.31,2.31,0,0,1-.14-.82,2.68,2.68,0,0,1,1.05-2.22,4.36,4.36,0,0,1,2.78-.83,5,5,0,0,1,3.54,1.34l-1,1.53a4.45,4.45,0,0,0-2.68-1.08,2.13,2.13,0,0,0-1,.23.78.78,0,0,0-.42.74.74.74,0,0,0,.37.69,6,6,0,0,0,1.35.5c.52.15.93.28,1.24.39a9.27,9.27,0,0,1,.94.41,3,3,0,0,1,.74.51,2.17,2.17,0,0,1,.41.66,2.49,2.49,0,0,1,.16.9,2.6,2.6,0,0,1-1,2.18A4.37,4.37,0,0,1,828.34,396.13Z"/><path class="cls-1" d="M838.58,396.13a5.19,5.19,0,0,1-2.63-.67,4.62,4.62,0,0,1-1.75-1.76,4.92,4.92,0,0,1-.6-2.41,5.12,5.12,0,0,1,.6-2.46A4.52,4.52,0,0,1,836,387a5.5,5.5,0,0,1,4.71-.28,4.34,4.34,0,0,1,1.55,1.07,4.71,4.71,0,0,1,1,1.54,4.93,4.93,0,0,1,.34,1.84,5.56,5.56,0,0,1,0,.8h-7.3a2.49,2.49,0,0,0,2.51,2.37A2.71,2.71,0,0,0,840,394a1.81,1.81,0,0,0,.87-.93l2.06.59a4.07,4.07,0,0,1-1.69,1.78A5.24,5.24,0,0,1,838.58,396.13Zm-2.47-5.66H841a2.63,2.63,0,0,0-.8-1.71,2.46,2.46,0,0,0-3.35,0A2.58,2.58,0,0,0,836.11,390.47Z"/><path class="cls-1" d="M851,388.6a4.58,4.58,0,0,0-2,.44,2.48,2.48,0,0,0-1.22,1.21V396h-2.41v-9.43h2.21v2a4.4,4.4,0,0,1,1.28-1.53,2.92,2.92,0,0,1,1.64-.6H851Z"/><path class="cls-1" d="M780.9,413.3v5.48h-2.41V405.52h2.11v1.62a3.72,3.72,0,0,1,3.25-1.79,4.09,4.09,0,0,1,2.26.66,4.43,4.43,0,0,1,1.58,1.77,5.24,5.24,0,0,1,.57,2.43,5.82,5.82,0,0,1-.53,2.49,4.37,4.37,0,0,1-1.47,1.78,3.71,3.71,0,0,1-2.12.65,3.81,3.81,0,0,1-1.92-.49A3.47,3.47,0,0,1,780.9,413.3Zm4.89-3.09a2.81,2.81,0,0,0-.75-2,2.42,2.42,0,0,0-1.86-.81,2.46,2.46,0,0,0-1.38.45,2.23,2.23,0,0,0-.9,1.13v2.22a3.16,3.16,0,0,0,1,1.34,2.31,2.31,0,0,0,1.43.53,2.19,2.19,0,0,0,1.76-.85A3.07,3.07,0,0,0,785.79,410.21Z"/><path class="cls-1" d="M789.75,410.25a4.9,4.9,0,0,1,.35-1.87,4.78,4.78,0,0,1,1-1.56,4.42,4.42,0,0,1,1.57-1.07,5.18,5.18,0,0,1,2.06-.4,5.07,5.07,0,0,1,2.63.68,4.54,4.54,0,0,1,1.72,1.79,5.22,5.22,0,0,1,.24,4.29,4.93,4.93,0,0,1-1,1.55,4.29,4.29,0,0,1-1.56,1.07,5.38,5.38,0,0,1-2.07.4,5.49,5.49,0,0,1-1.69-.26,4.52,4.52,0,0,1-1.38-.72,4.94,4.94,0,0,1-1-1.07,4.57,4.57,0,0,1-.65-1.33A5.43,5.43,0,0,1,789.75,410.25Zm5,2.83a2.24,2.24,0,0,0,1.76-.81,3,3,0,0,0,.71-2,3,3,0,0,0-.71-2,2.26,2.26,0,0,0-1.76-.8,2.24,2.24,0,0,0-1.75.81,3.28,3.28,0,0,0,0,4.06A2.26,2.26,0,0,0,794.7,413.08Z"/><path class="cls-1" d="M805.17,415.13a6.71,6.71,0,0,1-2.32-.41,5.19,5.19,0,0,1-1.87-1.16l.86-1.56a5.31,5.31,0,0,0,3.25,1.33,2.08,2.08,0,0,0,1.13-.26.84.84,0,0,0,.41-.75.65.65,0,0,0,0-.2.34.34,0,0,0-.09-.18c0-.06-.08-.1-.12-.15a.46.46,0,0,0-.18-.12l-.22-.11-.28-.1-.3-.1-.37-.11-.39-.11c-.47-.15-.85-.28-1.14-.4a6.9,6.9,0,0,1-.87-.41,2.57,2.57,0,0,1-.65-.5,2.16,2.16,0,0,1-.36-.63,2.31,2.31,0,0,1-.14-.82,2.68,2.68,0,0,1,1-2.22,4.33,4.33,0,0,1,2.77-.83,5,5,0,0,1,3.55,1.34l-1,1.53a4.47,4.47,0,0,0-2.68-1.08,2.2,2.2,0,0,0-1.05.23.79.79,0,0,0-.41.74.73.73,0,0,0,.37.69,5.88,5.88,0,0,0,1.34.5c.53.15.94.28,1.24.39a9.4,9.4,0,0,1,.95.41,3.15,3.15,0,0,1,.74.51,2.39,2.39,0,0,1,.41.66,2.5,2.5,0,0,1,.15.9,2.62,2.62,0,0,1-1,2.18A4.38,4.38,0,0,1,805.17,415.13Z"/><path class="cls-1" d="M816.64,414.47a6.73,6.73,0,0,1-2.67.64,3.57,3.57,0,0,1-1-.13,2.46,2.46,0,0,1-.77-.4,1.77,1.77,0,0,1-.54-.73,2.86,2.86,0,0,1-.19-1.06v-5.42h-1.24v-1.85h1.24v-3.06h2.42v3.06h2v1.85h-2V412c0,.61.31.92.89.92a3.55,3.55,0,0,0,1.32-.34Z"/><path class="cls-1" d="M821.82,415.13a6.72,6.72,0,0,1-2.33-.41,5.19,5.19,0,0,1-1.87-1.16l.86-1.56a5.31,5.31,0,0,0,3.25,1.33,2.08,2.08,0,0,0,1.13-.26.84.84,0,0,0,.41-.75.65.65,0,0,0,0-.2.34.34,0,0,0-.09-.18l-.11-.15a.62.62,0,0,0-.19-.12l-.22-.11-.28-.1-.3-.1-.37-.11-.39-.11c-.47-.15-.85-.28-1.14-.4a6.9,6.9,0,0,1-.87-.41,2.57,2.57,0,0,1-.65-.5,2.16,2.16,0,0,1-.36-.63,2.31,2.31,0,0,1-.14-.82,2.68,2.68,0,0,1,1.05-2.22,4.33,4.33,0,0,1,2.77-.83,5,5,0,0,1,3.55,1.34l-1,1.53a4.47,4.47,0,0,0-2.68-1.08,2.2,2.2,0,0,0-1.05.23.79.79,0,0,0-.41.74.73.73,0,0,0,.37.69,5.81,5.81,0,0,0,1.35.5q.78.23,1.23.39a9.4,9.4,0,0,1,.95.41,3.15,3.15,0,0,1,.74.51,2.39,2.39,0,0,1,.41.66,2.5,2.5,0,0,1,.15.9,2.62,2.62,0,0,1-1,2.18A4.37,4.37,0,0,1,821.82,415.13Z"/><path class="cls-1" d="M919.43,389.56a6.48,6.48,0,0,1,.48-2.45,6.79,6.79,0,0,1,1.3-2.07,6.2,6.2,0,0,1,2-1.42,5.92,5.92,0,0,1,2.5-.54,6,6,0,0,1,2.07.37,5.63,5.63,0,0,1,1.72,1,7.5,7.5,0,0,1,1.29,1.46,6.82,6.82,0,0,1,.83,1.77,6.62,6.62,0,0,1,.29,1.92,6.42,6.42,0,0,1-.48,2.43,6.69,6.69,0,0,1-1.28,2.06,6.27,6.27,0,0,1-2,1.42,6.06,6.06,0,0,1-2.5.53,5.93,5.93,0,0,1-2.07-.36,5.69,5.69,0,0,1-1.74-1,6.89,6.89,0,0,1-1.3-1.44,6.26,6.26,0,0,1-.84-1.77A6.73,6.73,0,0,1,919.43,389.56Zm6.25,4.28a3.39,3.39,0,0,0,1.59-.37,3.32,3.32,0,0,0,1.18-1,4.67,4.67,0,0,0,.7-1.37,5.1,5.1,0,0,0-.19-3.65,3.91,3.91,0,0,0-1.31-1.57,3.56,3.56,0,0,0-3.56-.23,3.31,3.31,0,0,0-1.18,1,4.76,4.76,0,0,0-.71,1.36,4.9,4.9,0,0,0-.25,1.56,5,5,0,0,0,.43,2.09,3.84,3.84,0,0,0,1.3,1.58A3.34,3.34,0,0,0,925.68,393.84Z"/><path class="cls-1" d="M939.68,395.47a6.73,6.73,0,0,1-2.66.64,3.52,3.52,0,0,1-.95-.13,2.4,2.4,0,0,1-.78-.4,1.84,1.84,0,0,1-.53-.73,2.68,2.68,0,0,1-.19-1.06v-5.42h-1.24v-1.85h1.24v-3.06H937v3.06h2v1.85h-2V393c0,.61.32.92.9.92a3.55,3.55,0,0,0,1.32-.34Z"/><path class="cls-1" d="M950.15,396h-2.41v-5.29a2.75,2.75,0,0,0-.41-1.64,1.4,1.4,0,0,0-1.17-.54,2.26,2.26,0,0,0-1.39.56,2.77,2.77,0,0,0-1,1.4V396h-2.41V382.81h2.41v5.46a3.77,3.77,0,0,1,1.42-1.41,3.9,3.9,0,0,1,2-.51q3,0,3,3.71Z"/><path class="cls-1" d="M957.08,396.13a5.19,5.19,0,0,1-2.63-.67,4.62,4.62,0,0,1-1.75-1.76,4.92,4.92,0,0,1-.6-2.41,5.12,5.12,0,0,1,.6-2.46,4.52,4.52,0,0,1,1.75-1.8,5.14,5.14,0,0,1,2.64-.68,5.2,5.2,0,0,1,2.07.4,4.34,4.34,0,0,1,1.55,1.07,4.88,4.88,0,0,1,1,1.54,5.14,5.14,0,0,1,.34,1.84,4.27,4.27,0,0,1-.06.8h-7.29a2.48,2.48,0,0,0,.81,1.72,2.45,2.45,0,0,0,1.69.65,2.72,2.72,0,0,0,1.37-.36,1.86,1.86,0,0,0,.87-.93l2.06.59a4.07,4.07,0,0,1-1.69,1.78A5.27,5.27,0,0,1,957.08,396.13Zm-2.47-5.66h4.93a2.63,2.63,0,0,0-.8-1.71,2.46,2.46,0,0,0-3.35,0A2.58,2.58,0,0,0,954.61,390.47Z"/><path class="cls-1" d="M969.54,388.6a4.58,4.58,0,0,0-2,.44,2.54,2.54,0,0,0-1.23,1.21V396h-2.4v-9.43h2.21v2a4.3,4.3,0,0,1,1.28-1.53,2.9,2.9,0,0,1,1.64-.6h.48Z"/><path class="cls-1" d="M540,383.17h2.52L547.18,396h-2.55l-1.19-3.18H539L537.81,396h-2.56Zm3,7.85-1.77-5.27L539.39,391Z"/><path class="cls-1" d="M548,391.23a5.55,5.55,0,0,1,.54-2.46A4.4,4.4,0,0,1,550,387a3.88,3.88,0,0,1,2.18-.65,3.59,3.59,0,0,1,1.85.5,3.74,3.74,0,0,1,1.33,1.32v-5.36h2.42v10.44a1,1,0,0,0,.12.55.58.58,0,0,0,.43.19v2a5.71,5.71,0,0,1-1,.12,1.7,1.7,0,0,1-1.07-.32,1.13,1.13,0,0,1-.47-.85l0-.58a3.54,3.54,0,0,1-1.4,1.34,4,4,0,0,1-1.88.47,4.28,4.28,0,0,1-2.31-.65,4.52,4.52,0,0,1-1.6-1.78A5.35,5.35,0,0,1,548,391.23Zm7.4,1.27v-2.25a2.86,2.86,0,0,0-1-1.31,2.29,2.29,0,0,0-1.43-.53,2.17,2.17,0,0,0-1.76.86,3.07,3.07,0,0,0-.71,2,2.77,2.77,0,0,0,.75,2,2.42,2.42,0,0,0,1.87.81,2.46,2.46,0,0,0,1.37-.45A2.29,2.29,0,0,0,555.35,392.5Z"/><path class="cls-1" d="M564.05,396.13a6.71,6.71,0,0,1-2.32-.41,5.19,5.19,0,0,1-1.87-1.16l.86-1.56a5.31,5.31,0,0,0,3.25,1.33,2,2,0,0,0,1.12-.26.82.82,0,0,0,.42-.75,1.23,1.23,0,0,0,0-.2.34.34,0,0,0-.09-.18c0-.06-.08-.1-.12-.15a.46.46,0,0,0-.18-.12l-.22-.11-.28-.1-.3-.1-.37-.11-.4-.11c-.46-.15-.84-.28-1.13-.4a6.9,6.9,0,0,1-.87-.41,2.57,2.57,0,0,1-.65-.5,2.16,2.16,0,0,1-.36-.63,2.11,2.11,0,0,1-.14-.82,2.68,2.68,0,0,1,1-2.22,4.33,4.33,0,0,1,2.77-.83,5,5,0,0,1,3.54,1.34l-1,1.53a4.47,4.47,0,0,0-2.68-1.08,2.2,2.2,0,0,0-1.05.23.79.79,0,0,0-.41.74.73.73,0,0,0,.37.69,5.69,5.69,0,0,0,1.34.5c.52.15.94.28,1.24.39a9.4,9.4,0,0,1,.95.41,3.15,3.15,0,0,1,.74.51,2.15,2.15,0,0,1,.4.66,2.29,2.29,0,0,1,.16.9,2.62,2.62,0,0,1-1,2.18A4.38,4.38,0,0,1,564.05,396.13Z"/><path class="cls-1" d="M578.15,396.13a6.71,6.71,0,0,1-2.32-.41,5.19,5.19,0,0,1-1.87-1.16l.86-1.56a5.31,5.31,0,0,0,3.25,1.33,2,2,0,0,0,1.12-.26.82.82,0,0,0,.42-.75.65.65,0,0,0,0-.2.34.34,0,0,0-.09-.18c0-.06-.08-.1-.12-.15a.46.46,0,0,0-.18-.12l-.22-.11-.28-.1-.3-.1-.37-.11-.39-.11c-.47-.15-.85-.28-1.14-.4a6.9,6.9,0,0,1-.87-.41,2.57,2.57,0,0,1-.65-.5,2.16,2.16,0,0,1-.36-.63,2.31,2.31,0,0,1-.14-.82,2.68,2.68,0,0,1,1-2.22,4.33,4.33,0,0,1,2.77-.83,5,5,0,0,1,3.55,1.34l-1,1.53a4.47,4.47,0,0,0-2.68-1.08,2.2,2.2,0,0,0-1.05.23.79.79,0,0,0-.41.74.73.73,0,0,0,.37.69,5.88,5.88,0,0,0,1.34.5c.53.15.94.28,1.24.39a9.4,9.4,0,0,1,1,.41,3.15,3.15,0,0,1,.74.51,2.39,2.39,0,0,1,.41.66,2.5,2.5,0,0,1,.15.9,2.62,2.62,0,0,1-1,2.18A4.38,4.38,0,0,1,578.15,396.13Z"/><path class="cls-1" d="M588.4,396.13a5.17,5.17,0,0,1-2.63-.67A4.62,4.62,0,0,1,584,393.7a4.92,4.92,0,0,1-.6-2.41,5.12,5.12,0,0,1,.6-2.46,4.52,4.52,0,0,1,1.75-1.8,5.48,5.48,0,0,1,4.7-.28,4.29,4.29,0,0,1,1.56,1.07,4.88,4.88,0,0,1,1,1.54,5.14,5.14,0,0,1,.34,1.84,4.27,4.27,0,0,1-.06.8H586a2.48,2.48,0,0,0,.81,1.72,2.45,2.45,0,0,0,1.69.65,2.75,2.75,0,0,0,1.37-.36,1.9,1.9,0,0,0,.87-.93l2.06.59a4.13,4.13,0,0,1-1.69,1.78A5.3,5.3,0,0,1,588.4,396.13Zm-2.47-5.66h4.93a2.63,2.63,0,0,0-.8-1.71,2.46,2.46,0,0,0-3.35,0A2.49,2.49,0,0,0,585.93,390.47Z"/><path class="cls-1" d="M600.86,388.6a4.58,4.58,0,0,0-2,.44,2.54,2.54,0,0,0-1.23,1.21V396h-2.41v-9.43h2.22v2a4.3,4.3,0,0,1,1.28-1.53,2.9,2.9,0,0,1,1.64-.6h.48Z"/><path class="cls-1" d="M605.19,396l-3.48-9.43h2.51l2.37,7.23,2.4-7.23h2.29L607.82,396Z"/><path class="cls-1" d="M617.05,396.13a5.22,5.22,0,0,1-2.63-.67,4.59,4.59,0,0,1-1.74-1.76,4.92,4.92,0,0,1-.6-2.41,5.12,5.12,0,0,1,.6-2.46,4.49,4.49,0,0,1,1.74-1.8,5.5,5.5,0,0,1,4.71-.28,4.47,4.47,0,0,1,1.56,1.07,4.88,4.88,0,0,1,1,1.54,5.13,5.13,0,0,1,.33,1.84,4.4,4.4,0,0,1-.05.8h-7.29a2.44,2.44,0,0,0,.8,1.72,2.47,2.47,0,0,0,1.7.65,2.75,2.75,0,0,0,1.37-.36,1.84,1.84,0,0,0,.86-.93l2.07.59a4.13,4.13,0,0,1-1.69,1.78A5.31,5.31,0,0,1,617.05,396.13Zm-2.47-5.66h4.93a2.62,2.62,0,0,0-.79-1.71,2.47,2.47,0,0,0-3.36,0A2.58,2.58,0,0,0,614.58,390.47Z"/><path class="cls-1" d="M623.32,391.23a5.55,5.55,0,0,1,.54-2.46,4.4,4.4,0,0,1,1.5-1.77,3.88,3.88,0,0,1,2.18-.65,3.59,3.59,0,0,1,1.85.5,3.74,3.74,0,0,1,1.33,1.32v-5.36h2.42v10.44a1,1,0,0,0,.12.55.58.58,0,0,0,.43.19v2a5.61,5.61,0,0,1-1,.12,1.67,1.67,0,0,1-1.06-.32,1.11,1.11,0,0,1-.48-.85l0-.58a3.47,3.47,0,0,1-1.4,1.34,4,4,0,0,1-1.88.47,4.28,4.28,0,0,1-2.31-.65,4.52,4.52,0,0,1-1.6-1.78A5.35,5.35,0,0,1,623.32,391.23Zm7.4,1.27v-2.25a2.86,2.86,0,0,0-1-1.31,2.28,2.28,0,0,0-1.42-.53,2.18,2.18,0,0,0-1.77.86,3.07,3.07,0,0,0-.7,2,2.77,2.77,0,0,0,.74,2,2.42,2.42,0,0,0,1.87.81,2.46,2.46,0,0,0,1.37-.45A2.29,2.29,0,0,0,630.72,392.5Z"/><path class="cls-1" d="M640.12,391.25a5.09,5.09,0,0,1,.35-1.87,4.81,4.81,0,0,1,1-1.56,4.33,4.33,0,0,1,1.57-1.07,5.15,5.15,0,0,1,2.06-.4,5,5,0,0,1,2.62.68,4.54,4.54,0,0,1,1.72,1.79,5.08,5.08,0,0,1,.59,2.43,5.29,5.29,0,0,1-.34,1.86,4.78,4.78,0,0,1-1,1.55,4.29,4.29,0,0,1-1.56,1.07,5.29,5.29,0,0,1-2.06.4,5.5,5.5,0,0,1-1.7-.26,4.52,4.52,0,0,1-1.38-.72,4.94,4.94,0,0,1-1-1.07,4.31,4.31,0,0,1-.64-1.33A5.09,5.09,0,0,1,640.12,391.25Zm5,2.83a2.22,2.22,0,0,0,1.75-.81,3,3,0,0,0,.71-2,3,3,0,0,0-.71-2,2.32,2.32,0,0,0-3.51,0,3,3,0,0,0-.71,2,2.91,2.91,0,0,0,.71,2A2.25,2.25,0,0,0,645.08,394.08Z"/><path class="cls-1" d="M660.84,396h-2.41v-5.29c0-1.45-.5-2.18-1.49-2.18a2.4,2.4,0,0,0-1.47.56,2.87,2.87,0,0,0-1,1.4V396h-2.4v-9.43h2.18v1.75a3.58,3.58,0,0,1,1.52-1.41,4.8,4.8,0,0,1,2.22-.51,3,3,0,0,1,1.2.22,2.17,2.17,0,0,1,.82.56,2.57,2.57,0,0,1,.5.84,4.58,4.58,0,0,1,.25,1,7.31,7.31,0,0,1,.07,1.09Z"/><path class="cls-1" d="M670.56,394.3v5.48h-2.41V386.52h2.11v1.62a3.93,3.93,0,0,1,1.37-1.32,3.84,3.84,0,0,1,1.89-.47,4.06,4.06,0,0,1,2.25.66,4.53,4.53,0,0,1,1.59,1.77,5.24,5.24,0,0,1,.57,2.43,5.82,5.82,0,0,1-.53,2.49,4.32,4.32,0,0,1-1.48,1.78,3.68,3.68,0,0,1-2.11.65,3.75,3.75,0,0,1-1.92-.49A3.43,3.43,0,0,1,670.56,394.3Zm4.9-3.09a2.81,2.81,0,0,0-.75-2,2.43,2.43,0,0,0-1.86-.81,2.46,2.46,0,0,0-1.38.45,2.25,2.25,0,0,0-.91,1.13v2.22a3.25,3.25,0,0,0,1,1.34,2.33,2.33,0,0,0,1.44.53,2.21,2.21,0,0,0,1.76-.85A3.07,3.07,0,0,0,675.46,391.21Z"/><path class="cls-1" d="M679.36,393.16a2.67,2.67,0,0,1,1.13-2.22,4.75,4.75,0,0,1,2.92-.84,6,6,0,0,1,2.27.37V390a1.82,1.82,0,0,0-.53-1.39,2.3,2.3,0,0,0-1.58-.48,4.13,4.13,0,0,0-1.44.26,7,7,0,0,0-1.5.81l-.78-1.59a7.17,7.17,0,0,1,4-1.23,4.56,4.56,0,0,1,3.14,1,3.69,3.69,0,0,1,1.12,2.89v3a.87.87,0,0,0,.13.55.63.63,0,0,0,.45.19v2a5.43,5.43,0,0,1-1,.12,1.73,1.73,0,0,1-1.08-.3,1.29,1.29,0,0,1-.47-.81l-.05-.49a4,4,0,0,1-1.52,1.22,4.38,4.38,0,0,1-1.88.44,3.39,3.39,0,0,1-2.35-.85A2.74,2.74,0,0,1,679.36,393.16Zm5.87.49a1.26,1.26,0,0,0,.45-.83v-1a4.93,4.93,0,0,0-1.89-.37,2.72,2.72,0,0,0-1.55.4,1.27,1.27,0,0,0-.59,1.07,1.31,1.31,0,0,0,.45,1,1.77,1.77,0,0,0,1.23.42,3,3,0,0,0,1-.2A2.65,2.65,0,0,0,685.23,393.65Z"/><path class="cls-1" d="M690.23,391.23a5.49,5.49,0,0,1,.55-2.47,4.38,4.38,0,0,1,1.57-1.76,4.12,4.12,0,0,1,2.27-.65,3.66,3.66,0,0,1,1.9.49,4.13,4.13,0,0,1,1.4,1.33v-1.65H700v9a4.24,4.24,0,0,1-.68,2.39,4.32,4.32,0,0,1-1.87,1.55,6.55,6.55,0,0,1-2.69.53,6,6,0,0,1-2.55-.5,5.28,5.28,0,0,1-1.86-1.47l1.31-1.28a3.72,3.72,0,0,0,1.36,1,4,4,0,0,0,1.74.39,3.71,3.71,0,0,0,1.08-.16,3,3,0,0,0,.9-.47,2.19,2.19,0,0,0,.62-.83,3.16,3.16,0,0,0,.22-1.19v-1.18a3.26,3.26,0,0,1-1.31,1.24,3.8,3.8,0,0,1-1.82.44,3.85,3.85,0,0,1-2.21-.65,4.26,4.26,0,0,1-1.51-1.74A5.26,5.26,0,0,1,690.23,391.23Zm7.38,1.27v-2.25a2.91,2.91,0,0,0-1-1.33,2.4,2.4,0,0,0-1.45-.51,2.16,2.16,0,0,0-1.76.86,3.19,3.19,0,0,0-.69,2,2.8,2.8,0,0,0,.74,2,2.45,2.45,0,0,0,1.85.8,2.35,2.35,0,0,0,1.41-.46A2.51,2.51,0,0,0,697.61,392.5Z"/><path class="cls-1" d="M707,396.13a5.17,5.17,0,0,1-2.63-.67,4.62,4.62,0,0,1-1.75-1.76,4.92,4.92,0,0,1-.6-2.41,5.12,5.12,0,0,1,.6-2.46,4.52,4.52,0,0,1,1.75-1.8,5.48,5.48,0,0,1,4.7-.28,4.29,4.29,0,0,1,1.56,1.07,4.88,4.88,0,0,1,1,1.54,5.14,5.14,0,0,1,.34,1.84,4.27,4.27,0,0,1-.06.8h-7.29a2.48,2.48,0,0,0,.81,1.72,2.45,2.45,0,0,0,1.69.65,2.75,2.75,0,0,0,1.37-.36,1.9,1.9,0,0,0,.87-.93l2.06.59a4.13,4.13,0,0,1-1.69,1.78A5.3,5.3,0,0,1,707,396.13Zm-2.47-5.66h4.93a2.63,2.63,0,0,0-.8-1.71,2.46,2.46,0,0,0-3.35,0A2.49,2.49,0,0,0,704.56,390.47Z"/><path class="cls-1" d="M717.34,396.13a6.71,6.71,0,0,1-2.32-.41,5.19,5.19,0,0,1-1.87-1.16L714,393a5.31,5.31,0,0,0,3.25,1.33,2.08,2.08,0,0,0,1.13-.26.84.84,0,0,0,.41-.75.65.65,0,0,0,0-.2.34.34,0,0,0-.09-.18l-.12-.15a.46.46,0,0,0-.18-.12l-.22-.11-.28-.1-.3-.1-.37-.11-.39-.11c-.47-.15-.85-.28-1.14-.4a6.9,6.9,0,0,1-.87-.41,2.57,2.57,0,0,1-.65-.5,2.16,2.16,0,0,1-.36-.63,2.31,2.31,0,0,1-.14-.82,2.68,2.68,0,0,1,1.05-2.22,4.33,4.33,0,0,1,2.77-.83,5,5,0,0,1,3.55,1.34l-1,1.53a4.47,4.47,0,0,0-2.68-1.08,2.2,2.2,0,0,0-1,.23.79.79,0,0,0-.41.74.73.73,0,0,0,.37.69,5.88,5.88,0,0,0,1.34.5c.53.15.94.28,1.24.39a9.4,9.4,0,0,1,1,.41,3.15,3.15,0,0,1,.74.51,2.39,2.39,0,0,1,.41.66,2.5,2.5,0,0,1,.15.9,2.62,2.62,0,0,1-1,2.18A4.38,4.38,0,0,1,717.34,396.13Z"/><path class="cls-1" d="M556.13,414.47a6.73,6.73,0,0,1-2.66.64,3.46,3.46,0,0,1-1-.13,2.4,2.4,0,0,1-.78-.4,1.84,1.84,0,0,1-.53-.73,2.67,2.67,0,0,1-.2-1.06v-5.42h-1.23v-1.85H551v-3.06h2.42v3.06h2v1.85h-2V412c0,.61.32.92.9.92a3.55,3.55,0,0,0,1.32-.34Z"/><path class="cls-1" d="M566.6,415h-2.41v-5.29a2.75,2.75,0,0,0-.41-1.64,1.4,1.4,0,0,0-1.17-.54,2.26,2.26,0,0,0-1.39.56,2.85,2.85,0,0,0-1,1.4V415h-2.4V401.81h2.4v5.46a3.89,3.89,0,0,1,3.39-1.92q3,0,3,3.71Z"/><path class="cls-1" d="M568.5,412.16a2.66,2.66,0,0,1,1.12-2.22,4.78,4.78,0,0,1,2.93-.84,6,6,0,0,1,2.27.37V409a1.82,1.82,0,0,0-.53-1.39,2.3,2.3,0,0,0-1.58-.48,4.13,4.13,0,0,0-1.44.26,7,7,0,0,0-1.5.81l-.79-1.59a7.19,7.19,0,0,1,4-1.23,4.57,4.57,0,0,1,3.15,1,3.73,3.73,0,0,1,1.12,2.89v3a.87.87,0,0,0,.13.55.63.63,0,0,0,.45.19v2a5.52,5.52,0,0,1-1,.12,1.73,1.73,0,0,1-1.08-.3,1.29,1.29,0,0,1-.47-.81l-.05-.49a4,4,0,0,1-1.53,1.22,4.31,4.31,0,0,1-1.87.44,3.37,3.37,0,0,1-2.35-.85A2.74,2.74,0,0,1,568.5,412.16Zm5.87.49a1.26,1.26,0,0,0,.45-.83v-1a5,5,0,0,0-1.89-.37,2.72,2.72,0,0,0-1.55.4,1.25,1.25,0,0,0-.6,1.07,1.32,1.32,0,0,0,.46,1,1.74,1.74,0,0,0,1.22.42,2.92,2.92,0,0,0,1-.2A2.6,2.6,0,0,0,574.37,412.65Z"/><path class="cls-1" d="M585.49,414.47a6.73,6.73,0,0,1-2.66.64,3.46,3.46,0,0,1-1-.13,2.4,2.4,0,0,1-.78-.4,1.84,1.84,0,0,1-.53-.73,2.67,2.67,0,0,1-.2-1.06v-5.42h-1.23v-1.85h1.23v-3.06h2.42v3.06h2v1.85h-2V412c0,.61.32.92.9.92a3.55,3.55,0,0,0,1.32-.34Z"/><path class="cls-1" d="M591.31,412.16a2.67,2.67,0,0,1,1.13-2.22,4.75,4.75,0,0,1,2.92-.84,6,6,0,0,1,2.27.37V409a1.82,1.82,0,0,0-.53-1.39,2.3,2.3,0,0,0-1.58-.48,4.13,4.13,0,0,0-1.44.26,7,7,0,0,0-1.5.81l-.78-1.59a7.17,7.17,0,0,1,4-1.23,4.56,4.56,0,0,1,3.14,1,3.69,3.69,0,0,1,1.12,2.89v3a.87.87,0,0,0,.13.55.63.63,0,0,0,.45.19v2a5.43,5.43,0,0,1-1,.12,1.73,1.73,0,0,1-1.08-.3A1.29,1.29,0,0,1,598,414l0-.49a4,4,0,0,1-1.52,1.22,4.38,4.38,0,0,1-1.88.44,3.39,3.39,0,0,1-2.35-.85A2.74,2.74,0,0,1,591.31,412.16Zm5.87.49a1.26,1.26,0,0,0,.45-.83v-1a4.93,4.93,0,0,0-1.89-.37,2.72,2.72,0,0,0-1.55.4,1.27,1.27,0,0,0-.59,1.07,1.31,1.31,0,0,0,.45,1,1.77,1.77,0,0,0,1.23.42,3,3,0,0,0,1.05-.2A2.65,2.65,0,0,0,597.18,412.65Z"/><path class="cls-1" d="M608.36,407.6a4.66,4.66,0,0,0-2,.44,2.48,2.48,0,0,0-1.22,1.21V415h-2.41v-9.43H605v2a4.51,4.51,0,0,1,1.28-1.53,2.92,2.92,0,0,1,1.64-.6h.49Z"/><path class="cls-1" d="M614.4,415.13a5.16,5.16,0,0,1-2.62-.67A4.62,4.62,0,0,1,610,412.7a4.92,4.92,0,0,1-.6-2.41,5.12,5.12,0,0,1,.6-2.46,4.52,4.52,0,0,1,1.75-1.8,5.48,5.48,0,0,1,4.7-.28,4.29,4.29,0,0,1,1.56,1.07,4.88,4.88,0,0,1,1,1.54,5.14,5.14,0,0,1,.34,1.84,4.27,4.27,0,0,1-.06.8H612a2.48,2.48,0,0,0,.81,1.72,2.45,2.45,0,0,0,1.69.65,2.75,2.75,0,0,0,1.37-.36,1.9,1.9,0,0,0,.87-.93l2.06.59a4.13,4.13,0,0,1-1.69,1.78A5.31,5.31,0,0,1,614.4,415.13Zm-2.46-5.66h4.93a2.63,2.63,0,0,0-.8-1.71,2.46,2.46,0,0,0-3.35,0A2.49,2.49,0,0,0,611.94,409.47Z"/><path class="cls-1" d="M631.63,407.6a4.58,4.58,0,0,0-2,.44,2.48,2.48,0,0,0-1.22,1.21V415H626v-9.43h2.21v2a4.4,4.4,0,0,1,1.28-1.53,2.92,2.92,0,0,1,1.64-.6h.48Z"/><path class="cls-1" d="M633.43,404.2v-2.39h2.41v2.39Zm0,10.75v-9.43h2.41V415Z"/><path class="cls-1" d="M641.94,415.13a6.62,6.62,0,0,1-2.32-.41,5.1,5.1,0,0,1-1.87-1.16l.86-1.56a5.27,5.27,0,0,0,3.24,1.33,2.06,2.06,0,0,0,1.13-.26.82.82,0,0,0,.42-.75,1.23,1.23,0,0,0,0-.2.61.61,0,0,0-.09-.18,1.31,1.31,0,0,1-.12-.15.7.7,0,0,0-.18-.12l-.22-.11-.29-.1-.3-.1-.36-.11-.4-.11c-.46-.15-.84-.28-1.14-.4a7.49,7.49,0,0,1-.86-.41,2.57,2.57,0,0,1-.65-.5,2,2,0,0,1-.37-.63,2.31,2.31,0,0,1-.13-.82,2.67,2.67,0,0,1,1-2.22,4.36,4.36,0,0,1,2.78-.83,5,5,0,0,1,3.54,1.34l-1,1.53a4.45,4.45,0,0,0-2.68-1.08,2.13,2.13,0,0,0-1,.23.77.77,0,0,0-.41.74.74.74,0,0,0,.36.69,6,6,0,0,0,1.35.5c.52.15.93.28,1.24.39a9.27,9.27,0,0,1,.94.41,3,3,0,0,1,.74.51,2.17,2.17,0,0,1,.41.66,2.29,2.29,0,0,1,.16.9,2.6,2.6,0,0,1-1,2.18A4.37,4.37,0,0,1,641.94,415.13Z"/><path class="cls-1" d="M654.25,415l-2.76-4.07-1.28,1.27V415H647.8V401.81h2.41v7.95l3.8-4.22h2.56l-3.51,4,3.76,5.41Z"/><path class="cls-1" d="M658.48,416.79a5,5,0,0,0,1.08.17.93.93,0,0,0,.8-.41A6.09,6.09,0,0,0,661,415l-3.72-9.43h2.5l2.54,7,2.23-7h2.31l-4,11.3a3.28,3.28,0,0,1-1.18,1.63,3.39,3.39,0,0,1-2,.62,4,4,0,0,1-1.22-.2Z"/><path class="cls-1" d="M675.15,401.33l1.84.77a11.94,11.94,0,0,0-.68,1.2c-.24.47-.48,1-.73,1.61a12.58,12.58,0,0,0-.62,1.94,8.44,8.44,0,0,0-.24,1.9q0,2.47,2.22,6.27l-1.77.89q-2.7-4-2.7-7.21a9.31,9.31,0,0,1,.69-3.42A28.63,28.63,0,0,1,675.15,401.33Z"/><path class="cls-1" d="M679.44,415v-7.09H678.2V406h1.24v-.57a4.25,4.25,0,0,1,.86-2.79,2.83,2.83,0,0,1,2.3-1,5.3,5.3,0,0,1,2.32.56l-.49,1.82a2.64,2.64,0,0,0-1.31-.34,1.09,1.09,0,0,0-.94.43,2.07,2.07,0,0,0-.32,1.25V406h2.3v1.84h-2.3V415Z"/><path class="cls-1" d="M685.25,410.25a4.9,4.9,0,0,1,.36-1.87,4.62,4.62,0,0,1,1-1.56,4.42,4.42,0,0,1,1.57-1.07,5.18,5.18,0,0,1,2.06-.4,5,5,0,0,1,2.62.68,4.57,4.57,0,0,1,1.73,1.79,5.33,5.33,0,0,1,.24,4.29,4.93,4.93,0,0,1-1,1.55,4.47,4.47,0,0,1-1.56,1.07,5.38,5.38,0,0,1-2.07.4,5.55,5.55,0,0,1-1.7-.26,4.76,4.76,0,0,1-1.38-.72,4.94,4.94,0,0,1-1-1.07,4.54,4.54,0,0,1-.64-1.33A5.09,5.09,0,0,1,685.25,410.25Zm5,2.83a2.22,2.22,0,0,0,1.75-.81,3,3,0,0,0,.71-2,2.9,2.9,0,0,0-.71-2,2.32,2.32,0,0,0-3.51,0,3.26,3.26,0,0,0,0,4.06A2.26,2.26,0,0,0,690.21,413.08Z"/><path class="cls-1" d="M702.82,407.6a4.58,4.58,0,0,0-2,.44,2.48,2.48,0,0,0-1.22,1.21V415h-2.41v-9.43h2.21v2A4.4,4.4,0,0,1,700.7,406a2.92,2.92,0,0,1,1.64-.6h.48Z"/><path class="cls-1" d="M542.53,434.13a5.19,5.19,0,0,1-2.63-.67,4.62,4.62,0,0,1-1.75-1.76,4.92,4.92,0,0,1-.6-2.41,5.12,5.12,0,0,1,.6-2.46,4.52,4.52,0,0,1,1.75-1.8,5.5,5.5,0,0,1,4.71-.28,4.34,4.34,0,0,1,1.55,1.07,4.71,4.71,0,0,1,1,1.54,4.93,4.93,0,0,1,.34,1.84,5.56,5.56,0,0,1-.05.8h-7.3a2.49,2.49,0,0,0,2.51,2.37A2.71,2.71,0,0,0,544,432a1.81,1.81,0,0,0,.87-.93l2.06.59a4.07,4.07,0,0,1-1.69,1.78A5.27,5.27,0,0,1,542.53,434.13Zm-2.47-5.66H545a2.63,2.63,0,0,0-.8-1.71,2.46,2.46,0,0,0-3.35,0A2.58,2.58,0,0,0,540.06,428.47Z"/><path class="cls-1" d="M550.56,424.52l2,3,.15.33.18-.33,2-3h2.54l-3.28,4.69,3.33,4.74h-2.53l-2-2.94-.16-.3-.15.3-2,2.94H548l3.33-4.68L548,424.52Z"/><path class="cls-1" d="M558.26,431.16a2.67,2.67,0,0,1,1.13-2.22,4.76,4.76,0,0,1,2.93-.84,6,6,0,0,1,2.26.37V428a1.78,1.78,0,0,0-.53-1.39,2.28,2.28,0,0,0-1.58-.48,4.13,4.13,0,0,0-1.44.26,7.25,7.25,0,0,0-1.5.81l-.78-1.59a7.17,7.17,0,0,1,4-1.23,4.54,4.54,0,0,1,3.14,1,3.69,3.69,0,0,1,1.12,2.89v3a.94.94,0,0,0,.13.55.63.63,0,0,0,.45.19v2a5.43,5.43,0,0,1-1,.12,1.68,1.68,0,0,1-1.07-.3A1.25,1.25,0,0,1,565,433l-.06-.49a4,4,0,0,1-1.52,1.22,4.35,4.35,0,0,1-1.88.44,3.37,3.37,0,0,1-2.34-.85A2.72,2.72,0,0,1,558.26,431.16Zm5.88.49a1.28,1.28,0,0,0,.44-.83v-1a4.93,4.93,0,0,0-1.89-.37,2.69,2.69,0,0,0-1.54.4,1.25,1.25,0,0,0-.6,1.07,1.29,1.29,0,0,0,.46,1,1.72,1.72,0,0,0,1.22.42,2.92,2.92,0,0,0,1-.2A2.7,2.7,0,0,0,564.14,431.65Z"/><path class="cls-1" d="M584.34,434h-2.41v-5.29a2.91,2.91,0,0,0-.37-1.64,1.26,1.26,0,0,0-1.08-.54,2,2,0,0,0-1.35.55,3.08,3.08,0,0,0-.9,1.43V434h-2.42v-5.29c0-1.45-.49-2.18-1.46-2.18A2,2,0,0,0,573,427a3,3,0,0,0-.9,1.42V434h-2.41v-9.43h2.18v1.75a3.71,3.71,0,0,1,1.44-1.42,4.23,4.23,0,0,1,2.07-.5,2.74,2.74,0,0,1,1.79.56,2.5,2.5,0,0,1,.87,1.45,4.1,4.1,0,0,1,1.46-1.49,4,4,0,0,1,2-.52q2.84,0,2.83,3.71Z"/><path class="cls-1" d="M589.3,432.3v5.48h-2.41V424.52H589v1.62a3.93,3.93,0,0,1,1.37-1.32,3.83,3.83,0,0,1,1.88-.47,4.07,4.07,0,0,1,2.26.66,4.53,4.53,0,0,1,1.59,1.77,5.24,5.24,0,0,1,.57,2.43,5.82,5.82,0,0,1-.53,2.49,4.32,4.32,0,0,1-1.48,1.78,3.69,3.69,0,0,1-2.12.65,3.81,3.81,0,0,1-1.92-.49A3.47,3.47,0,0,1,589.3,432.3Zm4.9-3.09a2.81,2.81,0,0,0-.75-2,2.43,2.43,0,0,0-1.86-.81,2.46,2.46,0,0,0-1.38.45,2.25,2.25,0,0,0-.91,1.13v2.22a3.25,3.25,0,0,0,1,1.34,2.31,2.31,0,0,0,1.44.53,2.22,2.22,0,0,0,1.76-.85A3.12,3.12,0,0,0,594.2,429.21Z"/><path class="cls-1" d="M598.73,420.81h2.41v10.12a1.41,1.41,0,0,0,.2.86.76.76,0,0,0,.61.24,2.63,2.63,0,0,0,1.13-.26l.33,1.84a6.12,6.12,0,0,1-2.3.48,2.38,2.38,0,0,1-1.75-.61,2.25,2.25,0,0,1-.63-1.71Z"/><path class="cls-1" d="M609.28,434.13a5.22,5.22,0,0,1-2.63-.67,4.59,4.59,0,0,1-1.74-1.76,4.92,4.92,0,0,1-.6-2.41,5.12,5.12,0,0,1,.6-2.46,4.49,4.49,0,0,1,1.74-1.8,5.5,5.5,0,0,1,4.71-.28,4.38,4.38,0,0,1,1.56,1.07,4.88,4.88,0,0,1,1,1.54,5.13,5.13,0,0,1,.33,1.84,4.4,4.4,0,0,1-.05.8h-7.29a2.44,2.44,0,0,0,.8,1.72,2.47,2.47,0,0,0,1.7.65,2.75,2.75,0,0,0,1.37-.36,1.84,1.84,0,0,0,.86-.93l2.07.59a4.13,4.13,0,0,1-1.69,1.78A5.31,5.31,0,0,1,609.28,434.13Zm-2.47-5.66h4.93a2.62,2.62,0,0,0-.79-1.71,2.34,2.34,0,0,0-1.68-.66,2.32,2.32,0,0,0-1.67.66A2.55,2.55,0,0,0,606.81,428.47Z"/><path class="cls-1" d="M616.35,436l.48-2.14h-.75v-2.52h2.08v2.52l-.74,2.14Z"/><path class="cls-1" d="M631.17,433.47a6.73,6.73,0,0,1-2.66.64,3.52,3.52,0,0,1-1-.13,2.35,2.35,0,0,1-.77-.4,1.77,1.77,0,0,1-.54-.73,2.68,2.68,0,0,1-.19-1.06v-5.42h-1.24v-1.85h1.24v-3.06h2.41v3.06h2v1.85h-2V431c0,.61.32.92.9.92a3.55,3.55,0,0,0,1.32-.34Z"/><path class="cls-1" d="M641.64,434h-2.41v-5.29a2.68,2.68,0,0,0-.41-1.64,1.37,1.37,0,0,0-1.17-.54,2.26,2.26,0,0,0-1.39.56,2.84,2.84,0,0,0-1,1.4V434h-2.41V420.81h2.41v5.46a3.77,3.77,0,0,1,1.42-1.41,3.9,3.9,0,0,1,2-.51q3,0,3,3.71Z"/><path class="cls-1" d="M648.57,434.13a5.22,5.22,0,0,1-2.63-.67,4.62,4.62,0,0,1-1.75-1.76,4.92,4.92,0,0,1-.59-2.41,5.11,5.11,0,0,1,.59-2.46,4.52,4.52,0,0,1,1.75-1.8,5.5,5.5,0,0,1,4.71-.28,4.34,4.34,0,0,1,1.55,1.07,4.55,4.55,0,0,1,1,1.54,4.93,4.93,0,0,1,.34,1.84,5.56,5.56,0,0,1,0,.8h-7.3a2.49,2.49,0,0,0,2.51,2.37A2.71,2.71,0,0,0,650,432a1.81,1.81,0,0,0,.87-.93l2.07.59a4.15,4.15,0,0,1-1.7,1.78A5.24,5.24,0,0,1,648.57,434.13Zm-2.47-5.66H651a2.66,2.66,0,0,0-.79-1.71,2.47,2.47,0,0,0-3.36,0A2.58,2.58,0,0,0,646.1,428.47Z"/><path class="cls-1" d="M659.59,429.25a4.9,4.9,0,0,1,.35-1.87,4.78,4.78,0,0,1,1-1.56,4.42,4.42,0,0,1,1.57-1.07,5.18,5.18,0,0,1,2.06-.4,5.07,5.07,0,0,1,2.63.68,4.61,4.61,0,0,1,1.72,1.79,5.33,5.33,0,0,1,.24,4.29,4.93,4.93,0,0,1-1,1.55,4.38,4.38,0,0,1-1.56,1.07,5.38,5.38,0,0,1-2.07.4,5.44,5.44,0,0,1-1.69-.26,4.64,4.64,0,0,1-2.4-1.79,4.33,4.33,0,0,1-.65-1.33A5.43,5.43,0,0,1,659.59,429.25Zm4.95,2.83a2.26,2.26,0,0,0,1.76-.81,3,3,0,0,0,.7-2,2.94,2.94,0,0,0-.7-2,2.33,2.33,0,0,0-3.52,0,3.26,3.26,0,0,0,0,4.06A2.26,2.26,0,0,0,664.54,432.08Z"/><path class="cls-1" d="M672,434v-7.09h-1.24V425H672v-.57a4.25,4.25,0,0,1,.86-2.79,2.83,2.83,0,0,1,2.3-1,5.3,5.3,0,0,1,2.32.56L677,423a2.65,2.65,0,0,0-1.32-.34,1.1,1.1,0,0,0-.94.43,2.07,2.07,0,0,0-.32,1.25V425h2.3v1.84h-2.3V434Z"/><path class="cls-1" d="M679.13,426.86h-1.24V425h1.24v-.57a3.86,3.86,0,0,1,1-2.73,3.69,3.69,0,0,1,2.8-1.09,6.36,6.36,0,0,1,3.49,1.17l-1,1.8a4.06,4.06,0,0,0-1.12-.67,3.52,3.52,0,0,0-1.25-.25,1.48,1.48,0,0,0-1.18.48,1.79,1.79,0,0,0-.41,1.19V425h5.06V434h-2.41v-7.09h-2.65V434h-2.41Z"/><path class="cls-1" d="M693.62,434.13a5.36,5.36,0,0,1-2.06-.4,4.67,4.67,0,0,1-2.57-2.64,4.89,4.89,0,0,1-.36-1.86,5.14,5.14,0,0,1,.59-2.43A4.62,4.62,0,0,1,691,425a5.15,5.15,0,0,1,2.65-.68,5.09,5.09,0,0,1,2.6.65,4.28,4.28,0,0,1,1.66,1.77l-2.36.72a2.17,2.17,0,0,0-1.92-1.08,2.28,2.28,0,0,0-1.77.79,3.26,3.26,0,0,0,0,4.06,2.23,2.23,0,0,0,1.75.82,2.36,2.36,0,0,0,1.19-.32,1.84,1.84,0,0,0,.77-.8l2.35.72a3.91,3.91,0,0,1-1.63,1.77A5.1,5.1,0,0,1,693.62,434.13Z"/><path class="cls-1" d="M699.83,423.2v-2.39h2.41v2.39Zm0,10.75v-9.43h2.41V434Z"/><path class="cls-1" d="M704.22,431.16a2.66,2.66,0,0,1,1.12-2.22,4.78,4.78,0,0,1,2.93-.84,6,6,0,0,1,2.27.37V428a1.79,1.79,0,0,0-.54-1.39,2.27,2.27,0,0,0-1.57-.48,4,4,0,0,0-1.44.26,7.3,7.3,0,0,0-1.51.81l-.78-1.59a7.19,7.19,0,0,1,4-1.23,4.52,4.52,0,0,1,3.14,1,3.69,3.69,0,0,1,1.12,2.89v3a.87.87,0,0,0,.14.55.59.59,0,0,0,.44.19v2a5.34,5.34,0,0,1-1,.12,1.69,1.69,0,0,1-1.08-.3A1.25,1.25,0,0,1,711,433l-.05-.49a4.15,4.15,0,0,1-1.53,1.22,4.35,4.35,0,0,1-1.88.44,3.37,3.37,0,0,1-2.34-.85A2.74,2.74,0,0,1,704.22,431.16Zm5.87.49a1.26,1.26,0,0,0,.45-.83v-1a5,5,0,0,0-1.89-.37,2.7,2.7,0,0,0-1.55.4,1.25,1.25,0,0,0-.6,1.07,1.29,1.29,0,0,0,.46,1,1.72,1.72,0,0,0,1.22.42,2.92,2.92,0,0,0,1.05-.2A2.7,2.7,0,0,0,710.09,431.65Z"/><path class="cls-1" d="M715.63,420.81H718v10.12a1.33,1.33,0,0,0,.21.86.73.73,0,0,0,.6.24,2.71,2.71,0,0,0,1.14-.26l.32,1.84a5.59,5.59,0,0,1-1.11.35,5.84,5.84,0,0,1-1.19.13,2.39,2.39,0,0,1-1.75-.61,2.24,2.24,0,0,1-.62-1.71Z"/><path class="cls-1" d="M554.51,451.3v5.48H552.1V443.52h2.11v1.62a3.93,3.93,0,0,1,1.37-1.32,3.83,3.83,0,0,1,1.88-.47,4.07,4.07,0,0,1,2.26.66,4.53,4.53,0,0,1,1.59,1.77,5.24,5.24,0,0,1,.57,2.43,5.82,5.82,0,0,1-.53,2.49,4.4,4.4,0,0,1-1.48,1.78,3.69,3.69,0,0,1-2.12.65,3.81,3.81,0,0,1-1.92-.49A3.47,3.47,0,0,1,554.51,451.3Zm4.9-3.09a2.81,2.81,0,0,0-.75-2,2.43,2.43,0,0,0-1.86-.81,2.46,2.46,0,0,0-1.38.45,2.25,2.25,0,0,0-.91,1.13v2.22a3.25,3.25,0,0,0,1,1.34,2.31,2.31,0,0,0,1.43.53,2.23,2.23,0,0,0,1.77-.85A3.12,3.12,0,0,0,559.41,448.21Z"/><path class="cls-1" d="M563.31,450.16a2.67,2.67,0,0,1,1.13-2.22,4.75,4.75,0,0,1,2.92-.84,6,6,0,0,1,2.27.37V447a1.82,1.82,0,0,0-.53-1.39,2.3,2.3,0,0,0-1.58-.48,4.13,4.13,0,0,0-1.44.26,7,7,0,0,0-1.5.81l-.79-1.59a7.2,7.2,0,0,1,4-1.23,4.56,4.56,0,0,1,3.14,1,3.73,3.73,0,0,1,1.12,2.89v3a.87.87,0,0,0,.13.55.63.63,0,0,0,.45.19v2a5.52,5.52,0,0,1-1,.12,1.73,1.73,0,0,1-1.08-.3A1.29,1.29,0,0,1,570,452l0-.49a4,4,0,0,1-1.52,1.22,4.38,4.38,0,0,1-1.88.44,3.39,3.39,0,0,1-2.35-.85A2.74,2.74,0,0,1,563.31,450.16Zm5.87.49a1.26,1.26,0,0,0,.45-.83v-1a5,5,0,0,0-1.89-.37,2.72,2.72,0,0,0-1.55.4,1.24,1.24,0,0,0-.59,1.07,1.31,1.31,0,0,0,.45,1,1.74,1.74,0,0,0,1.22.42,2.92,2.92,0,0,0,1.05-.2A2.6,2.6,0,0,0,569.18,450.65Z"/><path class="cls-1" d="M574.18,448.23a5.49,5.49,0,0,1,.55-2.47,4.43,4.43,0,0,1,1.56-1.76,4.18,4.18,0,0,1,2.28-.65,3.66,3.66,0,0,1,1.9.49,4.13,4.13,0,0,1,1.4,1.33v-1.65H584v9a4.17,4.17,0,0,1-.69,2.39,4.23,4.23,0,0,1-1.86,1.55,6.59,6.59,0,0,1-2.69.53,6.09,6.09,0,0,1-2.56-.5,5.46,5.46,0,0,1-1.86-1.47l1.31-1.28a3.84,3.84,0,0,0,1.37,1,4,4,0,0,0,1.74.39,3.81,3.81,0,0,0,1.08-.16,2.81,2.81,0,0,0,.89-.47,2.09,2.09,0,0,0,.62-.83,3,3,0,0,0,.23-1.19v-1.18a3.26,3.26,0,0,1-1.31,1.24,3.8,3.8,0,0,1-1.82.44,3.85,3.85,0,0,1-2.21-.65,4.26,4.26,0,0,1-1.51-1.74A5.26,5.26,0,0,1,574.18,448.23Zm7.38,1.27v-2.25a2.91,2.91,0,0,0-1-1.33,2.4,2.4,0,0,0-1.45-.51,2.18,2.18,0,0,0-1.77.86,3.18,3.18,0,0,0-.68,2,2.76,2.76,0,0,0,.74,2,2.45,2.45,0,0,0,1.85.8,2.35,2.35,0,0,0,1.41-.46A2.51,2.51,0,0,0,581.56,449.5Z"/><path class="cls-1" d="M591,453.13a5.22,5.22,0,0,1-2.63-.67,4.59,4.59,0,0,1-1.74-1.76,4.92,4.92,0,0,1-.6-2.41,5.12,5.12,0,0,1,.6-2.46,4.49,4.49,0,0,1,1.74-1.8,5.5,5.5,0,0,1,4.71-.28,4.47,4.47,0,0,1,1.56,1.07,4.88,4.88,0,0,1,1,1.54,5.13,5.13,0,0,1,.33,1.84,4.4,4.4,0,0,1,0,.8h-7.29a2.44,2.44,0,0,0,.8,1.72,2.47,2.47,0,0,0,1.7.65,2.75,2.75,0,0,0,1.37-.36,1.84,1.84,0,0,0,.86-.93l2.07.59a4.13,4.13,0,0,1-1.69,1.78A5.31,5.31,0,0,1,591,453.13Zm-2.47-5.66h4.93a2.62,2.62,0,0,0-.79-1.71,2.47,2.47,0,0,0-3.36,0A2.58,2.58,0,0,0,588.5,447.47Z"/><path class="cls-1" d="M603.16,453v-7.09h-1.24V444h1.24v-.57a4.19,4.19,0,0,1,.86-2.79,2.81,2.81,0,0,1,2.29-1,5.27,5.27,0,0,1,2.32.56l-.48,1.82a2.65,2.65,0,0,0-1.32-.34,1.07,1.07,0,0,0-.93.43,2,2,0,0,0-.33,1.25V444h2.31v1.84h-2.31V453Z"/><path class="cls-1" d="M609,448.25a5.09,5.09,0,0,1,.35-1.87,4.81,4.81,0,0,1,1-1.56,4.38,4.38,0,0,1,1.56-1.07,5.2,5.2,0,0,1,2.07-.4,5,5,0,0,1,2.62.68,4.54,4.54,0,0,1,1.72,1.79,5.22,5.22,0,0,1,.24,4.29,4.75,4.75,0,0,1-1,1.55,4.29,4.29,0,0,1-1.56,1.07,5.33,5.33,0,0,1-2.06.4,5.5,5.5,0,0,1-1.7-.26,4.52,4.52,0,0,1-1.38-.72,4.94,4.94,0,0,1-1-1.07,4.31,4.31,0,0,1-.64-1.33A5.09,5.09,0,0,1,609,448.25Zm5,2.83a2.24,2.24,0,0,0,1.75-.81,3,3,0,0,0,.71-2,3,3,0,0,0-.71-2,2.32,2.32,0,0,0-3.51,0,3.28,3.28,0,0,0,0,4.06A2.29,2.29,0,0,0,613.93,451.08Z"/><path class="cls-1" d="M626.54,445.6a4.58,4.58,0,0,0-2,.44,2.54,2.54,0,0,0-1.23,1.21V453h-2.41v-9.43h2.22v2a4.3,4.3,0,0,1,1.28-1.53,2.9,2.9,0,0,1,1.64-.6h.48Z"/><path class="cls-1" d="M632.05,450.16a2.67,2.67,0,0,1,1.13-2.22,4.76,4.76,0,0,1,2.93-.84,6,6,0,0,1,2.26.37V447a1.78,1.78,0,0,0-.53-1.39,2.28,2.28,0,0,0-1.58-.48,4.13,4.13,0,0,0-1.44.26,7.25,7.25,0,0,0-1.5.81l-.78-1.59a7.17,7.17,0,0,1,4-1.23,4.54,4.54,0,0,1,3.14,1,3.69,3.69,0,0,1,1.12,2.89v3a.94.94,0,0,0,.13.55.63.63,0,0,0,.45.19v2a5.43,5.43,0,0,1-1,.12,1.68,1.68,0,0,1-1.07-.3,1.25,1.25,0,0,1-.47-.81l-.06-.49a4,4,0,0,1-1.52,1.22,4.35,4.35,0,0,1-1.88.44,3.37,3.37,0,0,1-2.34-.85A2.72,2.72,0,0,1,632.05,450.16Zm5.88.49a1.28,1.28,0,0,0,.44-.83v-1a4.93,4.93,0,0,0-1.89-.37,2.69,2.69,0,0,0-1.54.4,1.25,1.25,0,0,0-.6,1.07,1.29,1.29,0,0,0,.46,1,1.72,1.72,0,0,0,1.22.42,2.92,2.92,0,0,0,1.05-.2A2.7,2.7,0,0,0,637.93,450.65Z"/><path class="cls-1" d="M652.24,453h-2.4v-5.29c0-1.45-.5-2.18-1.5-2.18a2.42,2.42,0,0,0-1.47.56,2.85,2.85,0,0,0-1,1.4V453h-2.41v-9.43h2.18v1.75a3.61,3.61,0,0,1,1.53-1.41,4.78,4.78,0,0,1,2.22-.51,3,3,0,0,1,1.2.22,2.25,2.25,0,0,1,.82.56,2.55,2.55,0,0,1,.49.84,4.1,4.1,0,0,1,.26,1,9.06,9.06,0,0,1,.06,1.09Z"/><path class="cls-1" d="M658.91,450.16a2.67,2.67,0,0,1,1.13-2.22,4.75,4.75,0,0,1,2.92-.84,6,6,0,0,1,2.27.37V447a1.82,1.82,0,0,0-.53-1.39,2.3,2.3,0,0,0-1.58-.48,4.13,4.13,0,0,0-1.44.26,7,7,0,0,0-1.5.81l-.79-1.59a7.2,7.2,0,0,1,4-1.23,4.56,4.56,0,0,1,3.14,1,3.69,3.69,0,0,1,1.12,2.89v3a.87.87,0,0,0,.13.55.63.63,0,0,0,.45.19v2a5.52,5.52,0,0,1-1,.12,1.73,1.73,0,0,1-1.08-.3,1.29,1.29,0,0,1-.47-.81l0-.49a4,4,0,0,1-1.52,1.22,4.38,4.38,0,0,1-1.88.44,3.39,3.39,0,0,1-2.35-.85A2.74,2.74,0,0,1,658.91,450.16Zm5.87.49a1.26,1.26,0,0,0,.45-.83v-1a5,5,0,0,0-1.89-.37,2.72,2.72,0,0,0-1.55.4,1.27,1.27,0,0,0-.59,1.07,1.31,1.31,0,0,0,.45,1,1.74,1.74,0,0,0,1.22.42,3,3,0,0,0,1.06-.2A2.65,2.65,0,0,0,664.78,450.65Z"/><path class="cls-1" d="M669.76,448.23a5.68,5.68,0,0,1,.53-2.46A4.42,4.42,0,0,1,671.8,444a3.85,3.85,0,0,1,2.18-.65,3.59,3.59,0,0,1,1.85.5,3.74,3.74,0,0,1,1.33,1.32v-5.36h2.41v10.44a.94.94,0,0,0,.13.55.56.56,0,0,0,.43.19v2a5.71,5.71,0,0,1-1,.12,1.7,1.7,0,0,1-1.07-.32,1.18,1.18,0,0,1-.48-.85l0-.58a3.54,3.54,0,0,1-1.4,1.34,4,4,0,0,1-1.88.47,4.23,4.23,0,0,1-2.31-.65,4.44,4.44,0,0,1-1.6-1.78A5.35,5.35,0,0,1,669.76,448.23Zm7.4,1.27v-2.25a2.86,2.86,0,0,0-1-1.31,2.31,2.31,0,0,0-1.43-.53,2.15,2.15,0,0,0-1.76.86,3.07,3.07,0,0,0-.71,2,2.81,2.81,0,0,0,.74,2,2.47,2.47,0,0,0,3.25.36A2.29,2.29,0,0,0,677.16,449.5Z"/><path class="cls-1" d="M682.3,449.43v-5.91h2.41v5.38c0,1.45.52,2.18,1.56,2.18a2.43,2.43,0,0,0,1.38-.44,3.09,3.09,0,0,0,1.06-1.28v-5.84h2.41v6.73a.87.87,0,0,0,.13.55.63.63,0,0,0,.45.19v2a6.05,6.05,0,0,1-1.05.11,1.75,1.75,0,0,1-1.06-.3,1.12,1.12,0,0,1-.47-.82l0-.76a4,4,0,0,1-1.61,1.45,4.83,4.83,0,0,1-2.19.5,2.68,2.68,0,0,1-2.21-.94A4.3,4.3,0,0,1,682.3,449.43Z"/><path class="cls-1" d="M693.94,439.81h2.41v10.12a1.41,1.41,0,0,0,.2.86.76.76,0,0,0,.61.24,2.7,2.7,0,0,0,1.13-.26l.33,1.84a5.7,5.7,0,0,1-1.12.35,5.76,5.76,0,0,1-1.19.13,2.39,2.39,0,0,1-1.75-.61,2.28,2.28,0,0,1-.62-1.71Z"/><path class="cls-1" d="M705.66,452.47a6.73,6.73,0,0,1-2.67.64,3.44,3.44,0,0,1-.94-.13,2.4,2.4,0,0,1-.78-.4,1.67,1.67,0,0,1-.53-.73,2.67,2.67,0,0,1-.2-1.06v-5.42H699.3v-1.85h1.24v-3.06H703v3.06h2v1.85h-2V450c0,.61.32.92.9.92a3.46,3.46,0,0,0,1.31-.34Z"/><path class="cls-1" d="M538.44,471.47a6.73,6.73,0,0,1-2.66.64,3.52,3.52,0,0,1-.95-.13,2.26,2.26,0,0,1-.77-.4,1.77,1.77,0,0,1-.54-.73,2.68,2.68,0,0,1-.19-1.06v-5.42h-1.24v-1.85h1.24v-3.06h2.41v3.06h2v1.85h-2V469c0,.61.32.92.9.92a3.55,3.55,0,0,0,1.32-.34Z"/><path class="cls-1" d="M548.91,472H546.5v-5.29a2.75,2.75,0,0,0-.41-1.64,1.4,1.4,0,0,0-1.17-.54,2.26,2.26,0,0,0-1.39.56,2.84,2.84,0,0,0-1,1.4V472h-2.41V458.81h2.41v5.46a3.77,3.77,0,0,1,1.42-1.41,3.9,3.9,0,0,1,2-.51q3,0,3,3.71Z"/><path class="cls-1" d="M555.84,472.13a5.19,5.19,0,0,1-2.63-.67,4.62,4.62,0,0,1-1.75-1.76,4.92,4.92,0,0,1-.6-2.41,5.12,5.12,0,0,1,.6-2.46,4.52,4.52,0,0,1,1.75-1.8,5.5,5.5,0,0,1,4.71-.28,4.34,4.34,0,0,1,1.55,1.07,4.71,4.71,0,0,1,1,1.54,4.93,4.93,0,0,1,.34,1.84,5.56,5.56,0,0,1,0,.8h-7.3a2.49,2.49,0,0,0,2.51,2.37,2.71,2.71,0,0,0,1.36-.36,1.81,1.81,0,0,0,.87-.93l2.06.59a4.07,4.07,0,0,1-1.69,1.78A5.24,5.24,0,0,1,555.84,472.13Zm-2.47-5.66h4.93a2.63,2.63,0,0,0-.8-1.71,2.46,2.46,0,0,0-3.35,0A2.58,2.58,0,0,0,553.37,466.47Z"/><path class="cls-1" d="M577.34,472h-2.41v-5.29a2.9,2.9,0,0,0-.38-1.64,1.23,1.23,0,0,0-1.08-.54,2,2,0,0,0-1.35.55,3.08,3.08,0,0,0-.9,1.43V472H568.8v-5.29c0-1.45-.48-2.18-1.46-2.18A2,2,0,0,0,566,465a3,3,0,0,0-.91,1.42V472h-2.4v-9.43h2.18v1.75a3.75,3.75,0,0,1,1.43-1.42,4.28,4.28,0,0,1,2.07-.5,2.77,2.77,0,0,1,1.8.56,2.5,2.5,0,0,1,.87,1.45,4,4,0,0,1,1.46-1.49,4,4,0,0,1,2-.52c1.88,0,2.83,1.24,2.83,3.71Z"/><path class="cls-1" d="M584.27,472.13a5.17,5.17,0,0,1-2.63-.67,4.62,4.62,0,0,1-1.75-1.76,4.92,4.92,0,0,1-.6-2.41,5.12,5.12,0,0,1,.6-2.46,4.52,4.52,0,0,1,1.75-1.8,5.48,5.48,0,0,1,4.7-.28,4.29,4.29,0,0,1,1.56,1.07,4.88,4.88,0,0,1,1,1.54,5.14,5.14,0,0,1,.34,1.84,4.27,4.27,0,0,1-.06.8h-7.29a2.48,2.48,0,0,0,.81,1.72,2.45,2.45,0,0,0,1.69.65,2.75,2.75,0,0,0,1.37-.36,1.9,1.9,0,0,0,.87-.93l2.06.59a4.07,4.07,0,0,1-1.69,1.78A5.3,5.3,0,0,1,584.27,472.13Zm-2.47-5.66h4.93a2.63,2.63,0,0,0-.8-1.71,2.46,2.46,0,0,0-3.35,0A2.49,2.49,0,0,0,581.8,466.47Z"/><path class="cls-1" d="M590.53,467.23a5.55,5.55,0,0,1,.54-2.46,4.42,4.42,0,0,1,1.51-1.77,3.82,3.82,0,0,1,2.17-.65,3.56,3.56,0,0,1,1.85.5,3.66,3.66,0,0,1,1.33,1.32v-5.36h2.42v10.44a1,1,0,0,0,.12.55.6.6,0,0,0,.43.19v2a5.52,5.52,0,0,1-1,.12,1.68,1.68,0,0,1-1.07-.32,1.11,1.11,0,0,1-.48-.85l0-.58a3.51,3.51,0,0,1-1.39,1.34,4,4,0,0,1-1.88.47,4.29,4.29,0,0,1-2.32-.65,4.49,4.49,0,0,1-1.59-1.78A5.23,5.23,0,0,1,590.53,467.23Zm7.4,1.27v-2.25a2.83,2.83,0,0,0-1-1.31,2.33,2.33,0,0,0-1.43-.53,2.18,2.18,0,0,0-1.77.86,3.07,3.07,0,0,0-.7,2,2.81,2.81,0,0,0,.74,2,2.47,2.47,0,0,0,3.25.36A2.27,2.27,0,0,0,597.93,468.5Z"/><path class="cls-1" d="M607.33,467.25a4.9,4.9,0,0,1,.36-1.87,4.62,4.62,0,0,1,1-1.56,4.42,4.42,0,0,1,1.57-1.07,5.18,5.18,0,0,1,2.06-.4,5,5,0,0,1,2.62.68,4.57,4.57,0,0,1,1.73,1.79,5.33,5.33,0,0,1,.24,4.29,4.93,4.93,0,0,1-1,1.55,4.47,4.47,0,0,1-1.56,1.07,5.38,5.38,0,0,1-2.07.4,5.55,5.55,0,0,1-1.7-.26,4.76,4.76,0,0,1-1.38-.72,4.94,4.94,0,0,1-1-1.07,4.54,4.54,0,0,1-.64-1.33A5.09,5.09,0,0,1,607.33,467.25Zm5,2.83a2.22,2.22,0,0,0,1.75-.81,3,3,0,0,0,.71-2,2.9,2.9,0,0,0-.71-2,2.32,2.32,0,0,0-3.51,0,3.26,3.26,0,0,0,0,4.06A2.26,2.26,0,0,0,612.29,470.08Z"/><path class="cls-1" d="M624.9,464.6a4.58,4.58,0,0,0-2,.44,2.48,2.48,0,0,0-1.22,1.21V472h-2.41v-9.43h2.21v2a4.4,4.4,0,0,1,1.28-1.53,2.92,2.92,0,0,1,1.64-.6h.48Z"/><path class="cls-1" d="M626.05,467.23a5.49,5.49,0,0,1,.55-2.47,4.38,4.38,0,0,1,1.57-1.76,4.12,4.12,0,0,1,2.27-.65,3.66,3.66,0,0,1,1.9.49,4.13,4.13,0,0,1,1.4,1.33v-1.65h2.11v9a4.24,4.24,0,0,1-.68,2.39,4.32,4.32,0,0,1-1.87,1.55,6.52,6.52,0,0,1-2.69.53,6,6,0,0,1-2.55-.5A5.37,5.37,0,0,1,626.2,474l1.31-1.28a3.8,3.8,0,0,0,1.36,1,4,4,0,0,0,1.74.39,3.71,3.71,0,0,0,1.08-.16,2.86,2.86,0,0,0,.9-.47,2.19,2.19,0,0,0,.62-.83,3,3,0,0,0,.22-1.19v-1.18a3.26,3.26,0,0,1-1.31,1.24,3.8,3.8,0,0,1-1.82.44,3.85,3.85,0,0,1-2.21-.65,4.26,4.26,0,0,1-1.51-1.74A5.39,5.39,0,0,1,626.05,467.23Zm7.38,1.27v-2.25a2.91,2.91,0,0,0-1-1.33,2.4,2.4,0,0,0-1.45-.51,2.17,2.17,0,0,0-1.76.86,3.19,3.19,0,0,0-.69,2,2.77,2.77,0,0,0,.75,2,2.42,2.42,0,0,0,1.84.8,2.35,2.35,0,0,0,1.41-.46A2.45,2.45,0,0,0,633.43,468.5Z"/><path class="cls-1" d="M637.82,469.16a2.66,2.66,0,0,1,1.12-2.22,4.78,4.78,0,0,1,2.93-.84,6,6,0,0,1,2.27.37V466a1.82,1.82,0,0,0-.53-1.39,2.3,2.3,0,0,0-1.58-.48,4.08,4.08,0,0,0-1.44.26,7.3,7.3,0,0,0-1.51.81l-.78-1.59a7.19,7.19,0,0,1,4-1.23,4.57,4.57,0,0,1,3.15,1,3.73,3.73,0,0,1,1.12,2.89v3a.87.87,0,0,0,.13.55.63.63,0,0,0,.45.19v2a5.52,5.52,0,0,1-1,.12,1.73,1.73,0,0,1-1.08-.3,1.29,1.29,0,0,1-.47-.81l0-.49a4.07,4.07,0,0,1-1.53,1.22,4.31,4.31,0,0,1-1.87.44,3.37,3.37,0,0,1-2.35-.85A2.74,2.74,0,0,1,637.82,469.16Zm5.87.49a1.26,1.26,0,0,0,.45-.83v-1a5,5,0,0,0-1.89-.37,2.72,2.72,0,0,0-1.55.4,1.25,1.25,0,0,0-.6,1.07,1.32,1.32,0,0,0,.46,1,1.74,1.74,0,0,0,1.22.42,2.92,2.92,0,0,0,1.05-.2A2.6,2.6,0,0,0,643.69,469.65Z"/><path class="cls-1" d="M658,472H655.6v-5.29c0-1.45-.5-2.18-1.49-2.18a2.4,2.4,0,0,0-1.47.56,2.87,2.87,0,0,0-1,1.4V472h-2.4v-9.43h2.18v1.75a3.64,3.64,0,0,1,1.52-1.41,4.83,4.83,0,0,1,2.22-.51,3,3,0,0,1,1.2.22,2.17,2.17,0,0,1,.82.56,2.57,2.57,0,0,1,.5.84,4.58,4.58,0,0,1,.25,1,7.31,7.31,0,0,1,.07,1.09Z"/><path class="cls-1" d="M660.56,461.2v-2.39H663v2.39Zm0,10.75v-9.43H663V472Z"/><path class="cls-1" d="M665,470.47l5.21-6.26h-5v-1.69h7.58V464l-5.17,6.25h5.26V472H665Z"/><path class="cls-1" d="M674.27,469.16a2.66,2.66,0,0,1,1.12-2.22,4.78,4.78,0,0,1,2.93-.84,5.94,5.94,0,0,1,2.26.37V466a1.78,1.78,0,0,0-.53-1.39,2.27,2.27,0,0,0-1.57-.48,4.14,4.14,0,0,0-1.45.26,7.52,7.52,0,0,0-1.5.81l-.78-1.59a7.19,7.19,0,0,1,4-1.23,4.52,4.52,0,0,1,3.14,1,3.69,3.69,0,0,1,1.12,2.89v3a.94.94,0,0,0,.13.55.63.63,0,0,0,.45.19v2a5.34,5.34,0,0,1-1,.12,1.68,1.68,0,0,1-1.07-.3A1.25,1.25,0,0,1,681,471l-.06-.49a4,4,0,0,1-1.52,1.22,4.35,4.35,0,0,1-1.88.44,3.37,3.37,0,0,1-2.34-.85A2.74,2.74,0,0,1,674.27,469.16Zm5.87.49a1.24,1.24,0,0,0,.44-.83v-1a4.93,4.93,0,0,0-1.89-.37,2.69,2.69,0,0,0-1.54.4,1.25,1.25,0,0,0-.6,1.07,1.29,1.29,0,0,0,.46,1,1.72,1.72,0,0,0,1.22.42,2.92,2.92,0,0,0,1-.2A2.7,2.7,0,0,0,680.14,469.65Z"/><path class="cls-1" d="M691.26,471.47a6.73,6.73,0,0,1-2.67.64,3.57,3.57,0,0,1-1-.13,2.46,2.46,0,0,1-.77-.4,1.77,1.77,0,0,1-.54-.73,2.86,2.86,0,0,1-.19-1.06v-5.42H684.9v-1.85h1.24v-3.06h2.42v3.06h2v1.85h-2V469c0,.61.31.92.89.92a3.55,3.55,0,0,0,1.32-.34Z"/><path class="cls-1" d="M693,461.2v-2.39h2.41v2.39ZM693,472v-9.43h2.41V472Z"/><path class="cls-1" d="M697.4,467.25a4.9,4.9,0,0,1,.36-1.87,4.78,4.78,0,0,1,1-1.56,4.42,4.42,0,0,1,1.57-1.07,5.18,5.18,0,0,1,2.06-.4A5.07,5.07,0,0,1,705,463a4.61,4.61,0,0,1,1.72,1.79,5.33,5.33,0,0,1,.24,4.29,4.93,4.93,0,0,1-1,1.55,4.47,4.47,0,0,1-1.56,1.07,5.38,5.38,0,0,1-2.07.4,5.55,5.55,0,0,1-1.7-.26,4.76,4.76,0,0,1-1.38-.72,4.67,4.67,0,0,1-1-1.07,4.33,4.33,0,0,1-.65-1.33A5.44,5.44,0,0,1,697.4,467.25Zm5,2.83a2.22,2.22,0,0,0,1.75-.81,3,3,0,0,0,.71-2,2.9,2.9,0,0,0-.71-2,2.32,2.32,0,0,0-3.51,0,3.26,3.26,0,0,0,0,4.06A2.26,2.26,0,0,0,702.36,470.08Z"/><path class="cls-1" d="M718.12,472h-2.41v-5.29c0-1.45-.5-2.18-1.49-2.18a2.4,2.4,0,0,0-1.47.56,2.79,2.79,0,0,0-1,1.4V472h-2.41v-9.43h2.18v1.75a3.64,3.64,0,0,1,1.52-1.41,4.83,4.83,0,0,1,2.22-.51,3,3,0,0,1,1.2.22,2.17,2.17,0,0,1,.82.56,2.57,2.57,0,0,1,.5.84,4.07,4.07,0,0,1,.25,1,7.31,7.31,0,0,1,.07,1.09Z"/><path class="cls-1" d="M721.82,472.91l-1.76-.89a13,13,0,0,0,2.21-6.27,8.44,8.44,0,0,0-.24-1.9,12.58,12.58,0,0,0-.62-1.94c-.25-.6-.49-1.14-.73-1.61a11.94,11.94,0,0,0-.68-1.2l1.86-.77a28.41,28.41,0,0,1,2,3.94,9.51,9.51,0,0,1,.68,3.43Q724.52,468.88,721.82,472.91Z"/><path class="cls-2" d="M32.38,322.35H23.89v-4.09H39.56l-10,19.88H24.44Z"/><path class="cls-2" d="M48.39,338.14V334h-8v-4l9.4-11.7h3.11V330h2.52v4H52.94v4.17ZM45,330H48.9v-5Z"/><path class="cls-2" d="M59.35,338.17V333.6h3.73v4.57Z"/><path class="cls-2" d="M80,334.13v4H67.75v-4h4V322.51a6.24,6.24,0,0,1-2,1.56,5.66,5.66,0,0,1-2.63.85V320.8a3.46,3.46,0,0,0,1.26-.26,6.76,6.76,0,0,0,1.26-.64c.38-.26.74-.52,1.07-.78s.6-.5.78-.67a3.2,3.2,0,0,0,.31-.32h4.65v16Z"/><path class="cls-2" d="M82.9,322.32a4,4,0,0,1,1.42-3.05,5.33,5.33,0,0,1,6.91,0,4,4,0,0,1,0,6.12,5.33,5.33,0,0,1-6.91,0A4,4,0,0,1,82.9,322.32Zm2,14.28,8-9.07,7.3-9.5,2,1.8-7.78,8.85-7.59,9.73ZM89,323.85a2.37,2.37,0,0,0,.51-1.53,2.32,2.32,0,0,0-.51-1.51,1.48,1.48,0,0,0-2.42,0,2.35,2.35,0,0,0-.5,1.49,2.42,2.42,0,0,0,.5,1.53,1.51,1.51,0,0,0,1.21.63A1.49,1.49,0,0,0,89,323.85Zm5.49,10.28a3.93,3.93,0,0,1,1.42-3.06,5.33,5.33,0,0,1,6.91,0,4,4,0,0,1,0,6.11,5.37,5.37,0,0,1-6.91,0A3.91,3.91,0,0,1,94.47,334.13Zm6.61,0a2.36,2.36,0,0,0-.52-1.51,1.53,1.53,0,0,0-1.22-.65,1.5,1.5,0,0,0-1.21.64,2.56,2.56,0,0,0,0,3,1.49,1.49,0,0,0,2.43,0A2.32,2.32,0,0,0,101.08,334.13Z"/><path class="cls-1" d="M31,136.2H22.54v-4.09H38.2L28.23,152H23.08Z"/><path class="cls-1" d="M46.63,152.26a8.92,8.92,0,0,1-4-.86A6.3,6.3,0,0,1,39.93,149l2.56-2.78a5.73,5.73,0,0,0,1.92,1.58,4.76,4.76,0,0,0,2.24.58,3,3,0,0,0,2.13-.75,2.7,2.7,0,0,0-1.88-4.69,3.07,3.07,0,0,0-1.44.35,2.5,2.5,0,0,0-1,1h-4l2.37-12.1H52.9v4.09H46.14l-.6,3.39a2.94,2.94,0,0,1,2-.51,6.69,6.69,0,0,1,4.81,1.8,6.09,6.09,0,0,1,1.88,4.62,6.18,6.18,0,0,1-2.15,4.88A8,8,0,0,1,46.63,152.26Z"/><path class="cls-1" d="M58.14,152v-4.57h3.73V152Z"/><path class="cls-1" d="M78.86,140.66a6.13,6.13,0,0,1,2,4.67,6.68,6.68,0,0,1-1,3.52,7,7,0,0,1-2.69,2.52,7.94,7.94,0,0,1-3.8.92,6.69,6.69,0,0,1-5.53-2.49,10.86,10.86,0,0,1-2-6.94c0-3.45.71-6.12,2.13-8A6.91,6.91,0,0,1,73.89,132a8.17,8.17,0,0,1,3.47.75,8.58,8.58,0,0,1,2.85,2.19l-2.56,2.85a5.19,5.19,0,0,0-1.72-1.41,4.8,4.8,0,0,0-2.14-.5,3.27,3.27,0,0,0-2.66,1.19,5.34,5.34,0,0,0-1,3.32,4.37,4.37,0,0,1,3.73-1.6A7.1,7.1,0,0,1,78.86,140.66Zm-7.64,6.92a3.07,3.07,0,0,0,2.21.94,3,3,0,0,0,2.2-.94,3.1,3.1,0,0,0,.93-2.25,2.83,2.83,0,0,0-.92-2.14,3,3,0,0,0-2.21-.89,3.08,3.08,0,0,0-2.23.89,2.86,2.86,0,0,0-.91,2.14A3.1,3.1,0,0,0,71.22,147.58Z"/><path class="cls-1" d="M84.26,136.17a3.93,3.93,0,0,1,1.42-3,5.33,5.33,0,0,1,6.91,0,4,4,0,0,1,0,6.12,5.33,5.33,0,0,1-6.91,0A3.94,3.94,0,0,1,84.26,136.17Zm2,14.28,8-9.07,7.31-9.5,2,1.8-7.78,8.85-7.58,9.73Zm4.12-12.75a2.42,2.42,0,0,0,.5-1.53,2.37,2.37,0,0,0-.5-1.51,1.52,1.52,0,0,0-1.21-.62,1.48,1.48,0,0,0-1.21.64,2.35,2.35,0,0,0-.5,1.49,2.42,2.42,0,0,0,.5,1.53,1.48,1.48,0,0,0,2.42,0ZM95.82,148a4,4,0,0,1,1.42-3.07,5.35,5.35,0,0,1,6.92,0,4,4,0,0,1,1.42,3.07,3.93,3.93,0,0,1-1.42,3,5.38,5.38,0,0,1-6.92,0A3.93,3.93,0,0,1,95.82,148Zm6.61,0a2.36,2.36,0,0,0-.51-1.52,1.53,1.53,0,0,0-1.23-.64,1.51,1.51,0,0,0-1.21.63A2.4,2.4,0,0,0,99,148a2.37,2.37,0,0,0,.5,1.51,1.5,1.5,0,0,0,2.44,0A2.3,2.3,0,0,0,102.43,148Z"/><path class="cls-2" d="M219.25,322.35h-8.49v-4.09h15.67l-10,19.88h-5.14Z"/><path class="cls-2" d="M228.65,338.17a13.71,13.71,0,0,1,.83-5.39,7.67,7.67,0,0,1,3.22-3.27c.34-.21.85-.49,1.52-.84s1.22-.64,1.63-.89a11.91,11.91,0,0,0,1.31-.9,3.76,3.76,0,0,0,1-1.17,2.91,2.91,0,0,0,.34-1.41,2.11,2.11,0,0,0-.67-1.68,2.64,2.64,0,0,0-1.79-.58,5.09,5.09,0,0,0-2.45.64,9,9,0,0,0-2.1,1.57l-2.86-3a9.85,9.85,0,0,1,3.26-2.23,11.33,11.33,0,0,1,4.77-1,7.62,7.62,0,0,1,5.17,1.61,5.5,5.5,0,0,1,1.85,4.35,6,6,0,0,1-.24,1.72,6,6,0,0,1-.62,1.43,6.48,6.48,0,0,1-1,1.21,10.26,10.26,0,0,1-1.22,1c-.42.3-.9.61-1.45.94a26.82,26.82,0,0,0-3.36,2.11,6.54,6.54,0,0,0-1.52,1.66h9.44v4Z"/><path class="cls-2" d="M248,338.17V333.6h3.73v4.57Z"/><path class="cls-2" d="M263.23,338.14V334h-8v-4l9.41-11.7h3.1V330h2.52v4h-2.52v4.17ZM259.81,330h3.94v-5Z"/><path class="cls-2" d="M273.63,322.32a3.93,3.93,0,0,1,1.42-3.05,5.33,5.33,0,0,1,6.91,0,4,4,0,0,1,0,6.12,5.33,5.33,0,0,1-6.91,0A3.94,3.94,0,0,1,273.63,322.32Zm2,14.28,8-9.07,7.31-9.5,2,1.8-7.78,8.85-7.58,9.73Zm4.12-12.75a2.42,2.42,0,0,0,.5-1.53,2.37,2.37,0,0,0-.5-1.51,1.52,1.52,0,0,0-1.21-.62,1.48,1.48,0,0,0-1.21.64,2.29,2.29,0,0,0-.5,1.49,2.37,2.37,0,0,0,.5,1.53,1.48,1.48,0,0,0,2.42,0Zm5.48,10.28a4,4,0,0,1,1.42-3.06,5.35,5.35,0,0,1,6.92,0,4,4,0,0,1,0,6.11,5.38,5.38,0,0,1-6.92,0A3.94,3.94,0,0,1,285.19,334.13Zm6.61,0a2.36,2.36,0,0,0-.51-1.51,1.54,1.54,0,0,0-1.23-.65,1.52,1.52,0,0,0-1.21.64,2.56,2.56,0,0,0,0,3,1.5,1.5,0,0,0,2.44,0A2.31,2.31,0,0,0,291.8,334.13Z"/><path class="cls-1" d="M222.05,140.66a6.12,6.12,0,0,1,2,4.67,6.59,6.59,0,0,1-1,3.52,7,7,0,0,1-2.69,2.52,7.8,7.8,0,0,1-3.8.92,6.7,6.7,0,0,1-5.53-2.49,10.86,10.86,0,0,1-2-6.94c0-3.45.71-6.12,2.13-8a6.9,6.9,0,0,1,5.85-2.85,8,8,0,0,1,3.48.76,8.39,8.39,0,0,1,2.84,2.18l-2.56,2.85a5,5,0,0,0-1.72-1.4,4.64,4.64,0,0,0-2.13-.51,3.28,3.28,0,0,0-2.66,1.19,5.22,5.22,0,0,0-1,3.32,4.34,4.34,0,0,1,3.72-1.6A7.11,7.11,0,0,1,222.05,140.66Zm-7.64,6.92a3,3,0,0,0,2.2.94,3,3,0,0,0,2.2-.94,3.07,3.07,0,0,0,.94-2.25,2.88,2.88,0,0,0-.92-2.14,3.21,3.21,0,0,0-4.44,0,2.88,2.88,0,0,0-.92,2.14A3.07,3.07,0,0,0,214.41,147.58Z"/><path class="cls-1" d="M229.59,143.63a6.12,6.12,0,0,1-2-4.68,6.66,6.66,0,0,1,1-3.53,7,7,0,0,1,2.69-2.52A7.9,7.9,0,0,1,235,132a6.69,6.69,0,0,1,5.53,2.49,10.84,10.84,0,0,1,2,6.94c0,3.45-.71,6.12-2.13,8a6.9,6.9,0,0,1-5.84,2.85,8.11,8.11,0,0,1-3.51-.76,8.23,8.23,0,0,1-2.85-2.18l2.56-2.84a5.2,5.2,0,0,0,1.74,1.4,4.77,4.77,0,0,0,2.11.5,3.3,3.3,0,0,0,2.67-1.19,5.16,5.16,0,0,0,1-3.32,4.29,4.29,0,0,1-3.7,1.63A7.18,7.18,0,0,1,229.59,143.63Zm7.65-6.93a3,3,0,0,0-4.4,0,3.1,3.1,0,0,0-.93,2.25,2.87,2.87,0,0,0,.92,2.14A3.06,3.06,0,0,0,235,142a3.1,3.1,0,0,0,2.22-.88,2.84,2.84,0,0,0,.93-2.14A3.08,3.08,0,0,0,237.24,136.7Z"/><path class="cls-1" d="M246.59,152v-4.57h3.73V152Z"/><path class="cls-1" d="M254.25,142.22a11,11,0,0,1,.39-2.88,10.83,10.83,0,0,1,1.17-2.74,11.18,11.18,0,0,1,1.85-2.29,8.19,8.19,0,0,1,5.54-2.17,8.16,8.16,0,0,1,3.2.63,7.86,7.86,0,0,1,2.52,1.67,11,11,0,0,1,1.79,2.36,11.16,11.16,0,0,1,1.11,2.7,10.86,10.86,0,0,1,0,5.62,11,11,0,0,1-1.18,2.73,10.76,10.76,0,0,1-1.84,2.28,8,8,0,0,1-2.5,1.57,8.47,8.47,0,0,1-5.77.16,7.84,7.84,0,0,1-2.24-1.19,9.88,9.88,0,0,1-1.74-1.74,9.28,9.28,0,0,1-1.26-2.11,12.83,12.83,0,0,1-.74-2.3A10.21,10.21,0,0,1,254.25,142.22Zm8.95,6a3.43,3.43,0,0,0,1.94-.58,4,4,0,0,0,1.33-1.49,8.74,8.74,0,0,0,.73-1.92,8.61,8.61,0,0,0,.24-2,8.85,8.85,0,0,0-.26-2.12,7.58,7.58,0,0,0-.78-1.92,4,4,0,0,0-1.34-1.42,3.44,3.44,0,0,0-1.86-.53,3.34,3.34,0,0,0-1.92.57,4.06,4.06,0,0,0-1.33,1.49,8.74,8.74,0,0,0-.73,1.92,8.63,8.63,0,0,0-.24,2,9.33,9.33,0,0,0,.27,2.12,7.67,7.67,0,0,0,.75,1.92,4,4,0,0,0,1.32,1.41A3.39,3.39,0,0,0,263.2,148.21Z"/><path class="cls-1" d="M275.53,136.17a3.93,3.93,0,0,1,1.42-3,5.33,5.33,0,0,1,6.91,0,4,4,0,0,1,0,6.12,5.33,5.33,0,0,1-6.91,0A3.94,3.94,0,0,1,275.53,136.17Zm2,14.28,8-9.07,7.31-9.5,2,1.81-7.78,8.84-7.58,9.74Zm4.12-12.75a2.42,2.42,0,0,0,.5-1.53,2.37,2.37,0,0,0-.5-1.51,1.52,1.52,0,0,0-1.21-.62,1.48,1.48,0,0,0-1.21.64,2.29,2.29,0,0,0-.5,1.49,2.37,2.37,0,0,0,.5,1.53,1.48,1.48,0,0,0,2.42,0ZM287.09,148a4,4,0,0,1,1.42-3.07,5.35,5.35,0,0,1,6.92,0,4,4,0,0,1,0,6.12,5.41,5.41,0,0,1-6.92,0A4,4,0,0,1,287.09,148Zm6.61,0a2.36,2.36,0,0,0-.51-1.52,1.53,1.53,0,0,0-1.23-.64,1.51,1.51,0,0,0-1.21.63,2.42,2.42,0,0,0-.5,1.53,2.37,2.37,0,0,0,.5,1.51,1.5,1.5,0,0,0,2.44,0A2.3,2.3,0,0,0,293.7,148Z"/><path class="cls-2" d="M410.82,322.35h-8.48v-4.09H418l-10,19.88h-5.15Z"/><path class="cls-2" d="M420.22,328.37a11,11,0,0,1,.39-2.88,10.37,10.37,0,0,1,1.18-2.74,10.82,10.82,0,0,1,1.84-2.29,8.19,8.19,0,0,1,5.54-2.17,8.12,8.12,0,0,1,3.2.63,7.7,7.7,0,0,1,2.52,1.67,10.66,10.66,0,0,1,1.79,2.35,11.22,11.22,0,0,1,1.11,2.71,10.8,10.8,0,0,1,.35,2.72,11,11,0,0,1-.39,2.89,10.91,10.91,0,0,1-1.18,2.74,10.7,10.7,0,0,1-1.84,2.27,7.83,7.83,0,0,1-2.5,1.58,8.54,8.54,0,0,1-3.06.59,8.06,8.06,0,0,1-2.71-.44,7.49,7.49,0,0,1-2.24-1.19,10.54,10.54,0,0,1-1.74-1.73,10.07,10.07,0,0,1-1.26-2.11,13.09,13.09,0,0,1-.74-2.3A10.82,10.82,0,0,1,420.22,328.37Zm8.95,6a3.43,3.43,0,0,0,1.94-.57,4,4,0,0,0,1.33-1.49,7.84,7.84,0,0,0,.73-1.92,8.61,8.61,0,0,0,.24-2,8.85,8.85,0,0,0-.26-2.12,7.79,7.79,0,0,0-.77-1.92,4.08,4.08,0,0,0-1.35-1.42,3.52,3.52,0,0,0-3.78,0,4,4,0,0,0-1.33,1.49,8.74,8.74,0,0,0-.73,1.92,8.63,8.63,0,0,0-.24,2,9.4,9.4,0,0,0,.27,2.12,8.07,8.07,0,0,0,.75,1.92,4,4,0,0,0,1.33,1.41A3.32,3.32,0,0,0,429.17,334.35Z"/><path class="cls-2" d="M442.07,338.17V333.6h3.73v4.57Z"/><path class="cls-2" d="M457.59,322.35H449.1v-4.09h15.67l-10,19.88h-5.15Z"/><path class="cls-2" d="M466.84,322.32a4,4,0,0,1,1.42-3.05,5.33,5.33,0,0,1,6.91,0,4,4,0,0,1,0,6.12,5.33,5.33,0,0,1-6.91,0A4,4,0,0,1,466.84,322.32Zm2,14.28,8-9.07,7.3-9.5,2.05,1.8-7.78,8.85-7.59,9.73Zm4.12-12.75a2.42,2.42,0,0,0,.5-1.53,2.37,2.37,0,0,0-.5-1.51,1.53,1.53,0,0,0-1.21-.62,1.5,1.5,0,0,0-1.22.64,2.35,2.35,0,0,0-.5,1.49,2.42,2.42,0,0,0,.5,1.53,1.49,1.49,0,0,0,2.43,0Zm5.48,10.28a3.93,3.93,0,0,1,1.42-3.06,5.33,5.33,0,0,1,6.91,0,4,4,0,0,1,0,6.11,5.37,5.37,0,0,1-6.91,0A3.91,3.91,0,0,1,478.41,334.13Zm6.61,0a2.31,2.31,0,0,0-.52-1.51,1.53,1.53,0,0,0-1.22-.65,1.51,1.51,0,0,0-1.21.64,2.56,2.56,0,0,0,0,3,1.49,1.49,0,0,0,2.43,0A2.26,2.26,0,0,0,485,334.13Z"/><path class="cls-1" d="M414.44,140.66a6.13,6.13,0,0,1,2,4.67,6.6,6.6,0,0,1-1,3.52,6.92,6.92,0,0,1-2.68,2.52,7.83,7.83,0,0,1-3.8.92,6.69,6.69,0,0,1-5.53-2.49,10.86,10.86,0,0,1-2-6.94c0-3.45.71-6.12,2.13-8a6.91,6.91,0,0,1,5.86-2.85,8,8,0,0,1,3.47.76,8.42,8.42,0,0,1,2.85,2.18l-2.56,2.85a5,5,0,0,0-1.72-1.4,4.71,4.71,0,0,0-2.14-.51,3.3,3.3,0,0,0-2.66,1.19,5.28,5.28,0,0,0-1,3.32,4.37,4.37,0,0,1,3.73-1.6A7.1,7.1,0,0,1,414.44,140.66Zm-7.64,6.92a3.06,3.06,0,0,0,4.41,0,3.1,3.1,0,0,0,.93-2.25,2.88,2.88,0,0,0-.92-2.14,3,3,0,0,0-2.21-.89,3.08,3.08,0,0,0-2.23.89,2.88,2.88,0,0,0-.92,2.14A3.11,3.11,0,0,0,406.8,147.58Z"/><path class="cls-1" d="M422,143.63a6.12,6.12,0,0,1-2-4.68,6.65,6.65,0,0,1,1-3.53,6.91,6.91,0,0,1,2.7-2.52,7.85,7.85,0,0,1,3.82-.92,6.7,6.7,0,0,1,5.53,2.49,10.84,10.84,0,0,1,2,6.94c0,3.45-.71,6.12-2.13,8a6.87,6.87,0,0,1-5.84,2.85,8.18,8.18,0,0,1-3.51-.76,8.42,8.42,0,0,1-2.85-2.18l2.56-2.84a5.24,5.24,0,0,0,1.75,1.4,4.71,4.71,0,0,0,2.11.5,3.3,3.3,0,0,0,2.67-1.19,5.22,5.22,0,0,0,1-3.32,4.3,4.3,0,0,1-3.7,1.63A7.16,7.16,0,0,1,422,143.63Zm7.64-6.93a3,3,0,0,0-4.39,0,3.1,3.1,0,0,0-.93,2.25,2.86,2.86,0,0,0,.91,2.14,3.23,3.23,0,0,0,4.43,0,2.84,2.84,0,0,0,.93-2.14A3,3,0,0,0,429.63,136.7Z"/><path class="cls-1" d="M439,152v-4.57h3.73V152Z"/><path class="cls-1" d="M446.64,142.22a11,11,0,0,1,.39-2.88,10.51,10.51,0,0,1,1.18-2.74,11.14,11.14,0,0,1,1.84-2.29,8.12,8.12,0,0,1,2.5-1.58,8,8,0,0,1,3-.59,8.12,8.12,0,0,1,3.2.63,7.91,7.91,0,0,1,2.53,1.67,11.37,11.37,0,0,1,1.79,2.36,11.11,11.11,0,0,1,1.46,5.42,11.2,11.2,0,0,1-.4,2.9,11,11,0,0,1-3,5,8,8,0,0,1-2.51,1.57,8.25,8.25,0,0,1-3.06.59,8.36,8.36,0,0,1-2.71-.43,8.12,8.12,0,0,1-2.24-1.19,10.23,10.23,0,0,1-1.74-1.74,9.62,9.62,0,0,1-1.25-2.11,12.12,12.12,0,0,1-.75-2.3A10.82,10.82,0,0,1,446.64,142.22Zm8.95,6a3.43,3.43,0,0,0,1.94-.58,4,4,0,0,0,1.34-1.49,8.23,8.23,0,0,0,.72-1.92,8.61,8.61,0,0,0,.24-2,8.38,8.38,0,0,0-.26-2.12,7.56,7.56,0,0,0-.77-1.92,4.15,4.15,0,0,0-1.34-1.42,3.45,3.45,0,0,0-1.87-.53,3.38,3.38,0,0,0-1.92.57,4.06,4.06,0,0,0-1.33,1.49,8.23,8.23,0,0,0-.72,1.92,8.64,8.64,0,0,0-.25,2,8.8,8.8,0,0,0,.28,2.12,7.67,7.67,0,0,0,.75,1.92,4,4,0,0,0,1.32,1.41A3.35,3.35,0,0,0,455.59,148.21Z"/><path class="cls-1" d="M467.92,136.17a4,4,0,0,1,1.42-3,5.33,5.33,0,0,1,6.91,0,4,4,0,0,1,0,6.12,5.33,5.33,0,0,1-6.91,0A4,4,0,0,1,467.92,136.17Zm2,14.28,8-9.07,7.31-9.5,2,1.81-7.78,8.84-7.59,9.74ZM474,137.7a2.37,2.37,0,0,0,.5-1.53,2.31,2.31,0,0,0-.5-1.51,1.48,1.48,0,0,0-2.42,0,2.35,2.35,0,0,0-.5,1.49,2.42,2.42,0,0,0,.5,1.53,1.51,1.51,0,0,0,1.21.63A1.49,1.49,0,0,0,474,137.7ZM479.49,148a3.94,3.94,0,0,1,1.42-3.07,5.33,5.33,0,0,1,6.91,0,4,4,0,0,1,0,6.12,5.4,5.4,0,0,1-6.91,0A3.93,3.93,0,0,1,479.49,148Zm6.61,0a2.37,2.37,0,0,0-.52-1.52,1.51,1.51,0,0,0-1.22-.64,1.49,1.49,0,0,0-1.21.63,2.37,2.37,0,0,0-.5,1.53,2.31,2.31,0,0,0,.5,1.51,1.49,1.49,0,0,0,2.43,0A2.31,2.31,0,0,0,486.1,148Z"/><path class="cls-2" d="M607,326.81a6.11,6.11,0,0,1,2,4.67,6.6,6.6,0,0,1-1,3.52,7,7,0,0,1-2.69,2.52,7.9,7.9,0,0,1-3.79.92A6.72,6.72,0,0,1,596,336a10.86,10.86,0,0,1-2-6.94c0-3.45.71-6.12,2.13-8a6.91,6.91,0,0,1,5.86-2.85,8.17,8.17,0,0,1,3.47.75,8.55,8.55,0,0,1,2.84,2.18l-2.56,2.86a5,5,0,0,0-1.72-1.41,4.76,4.76,0,0,0-2.13-.5,3.25,3.25,0,0,0-2.66,1.19,5.22,5.22,0,0,0-1,3.32,4.36,4.36,0,0,1,3.73-1.6A7.1,7.1,0,0,1,607,326.81Zm-7.64,6.91a3,3,0,0,0,2.21.95,3,3,0,0,0,2.19-.95,3,3,0,0,0,.94-2.24,2.87,2.87,0,0,0-.92-2.14,3.21,3.21,0,0,0-4.44,0,2.87,2.87,0,0,0-.92,2.14A3,3,0,0,0,599.36,333.72Z"/><path class="cls-2" d="M618.81,338.33q-4.63,0-6.87-2.86l2.36-3.15a4.93,4.93,0,0,0,1.75,1.38,6,6,0,0,0,2.55.52,4.5,4.5,0,0,0,2.48-.58,2,2,0,0,0,.86-1.72q0-2.46-4.41-2.46h-.92v-3.21h1a5.38,5.38,0,0,0,2.8-.63,1.93,1.93,0,0,0,1-1.73,1.76,1.76,0,0,0-.71-1.47,2.89,2.89,0,0,0-1.83-.55,4.27,4.27,0,0,0-2.21.58,4.57,4.57,0,0,0-1.6,1.61l-2.94-3.31a6.58,6.58,0,0,1,3-1.94,12.14,12.14,0,0,1,4.23-.74,8.35,8.35,0,0,1,5,1.41,4.49,4.49,0,0,1,.89,6.58,4.67,4.67,0,0,1-2.71,1.61,4.73,4.73,0,0,1,3,1.71,5.13,5.13,0,0,1,1.15,3.33,4.77,4.77,0,0,1-2.16,4.11A9.73,9.73,0,0,1,618.81,338.33Z"/><path class="cls-2" d="M630.72,338.17V333.6h3.73v4.57Z"/><path class="cls-2" d="M645.91,338.41a8.66,8.66,0,0,1-3.73-.79,6.66,6.66,0,0,1-2.72-2.28,5.78,5.78,0,0,1-1-3.37,4.3,4.3,0,0,1,.82-2.59,6.79,6.79,0,0,1,2-1.82,4.33,4.33,0,0,1-1.59-1.51A3.67,3.67,0,0,1,639,324a4.85,4.85,0,0,1,.42-2,5.25,5.25,0,0,1,1.11-1.61,7.69,7.69,0,0,1,1.59-1.15,7.89,7.89,0,0,1,1.85-.72,8.38,8.38,0,0,1,1.91-.23,7.65,7.65,0,0,1,2.39.38,8.7,8.7,0,0,1,2.22,1.05,5.32,5.32,0,0,1,1.66,1.8,4.72,4.72,0,0,1,.64,2.43,3.81,3.81,0,0,1-.66,2.09,4.26,4.26,0,0,1-1.62,1.52,6.37,6.37,0,0,1,2,1.88,4.62,4.62,0,0,1,.82,2.71,5.55,5.55,0,0,1-1,3.29,6.52,6.52,0,0,1-2.72,2.21A9,9,0,0,1,645.91,338.41Zm0-9a3,3,0,0,0-2,.69,2.23,2.23,0,0,0-.82,1.8,2.2,2.2,0,0,0,.85,1.77,3.14,3.14,0,0,0,2,.69,3,3,0,0,0,2-.71,2.23,2.23,0,0,0,.83-1.77,2.16,2.16,0,0,0-.83-1.8A3.18,3.18,0,0,0,645.91,329.4Zm0-3.36a2.49,2.49,0,0,0,1.58-.53,1.69,1.69,0,0,0,.69-1.42,1.62,1.62,0,0,0-.66-1.32,2.53,2.53,0,0,0-1.61-.53,2.47,2.47,0,0,0-1.6.53,1.62,1.62,0,0,0-.66,1.32,1.69,1.69,0,0,0,.69,1.43A2.51,2.51,0,0,0,645.91,326Z"/><path class="cls-2" d="M656.82,322.32a3.93,3.93,0,0,1,1.42-3.05,5.33,5.33,0,0,1,6.91,0,4,4,0,0,1,0,6.12,5.33,5.33,0,0,1-6.91,0A3.94,3.94,0,0,1,656.82,322.32Zm2,14.28,8-9.07,7.31-9.5,2,1.8-7.78,8.85-7.58,9.73Zm4.12-12.75a2.42,2.42,0,0,0,.5-1.53,2.37,2.37,0,0,0-.5-1.51,1.52,1.52,0,0,0-1.21-.62,1.48,1.48,0,0,0-1.21.64,2.35,2.35,0,0,0-.5,1.49,2.42,2.42,0,0,0,.5,1.53,1.48,1.48,0,0,0,2.42,0Zm5.48,10.28a4,4,0,0,1,1.42-3.06,5.35,5.35,0,0,1,6.92,0,4,4,0,0,1,0,6.11,5.38,5.38,0,0,1-6.92,0A3.94,3.94,0,0,1,668.38,334.13Zm6.61,0a2.36,2.36,0,0,0-.51-1.51,1.54,1.54,0,0,0-1.23-.65,1.52,1.52,0,0,0-1.21.64,2.56,2.56,0,0,0,0,3,1.5,1.5,0,0,0,2.44,0A2.31,2.31,0,0,0,675,334.13Z"/><path class="cls-1" d="M607.7,140.66a6.12,6.12,0,0,1,2,4.67,6.59,6.59,0,0,1-1,3.52,7,7,0,0,1-2.69,2.52,7.83,7.83,0,0,1-3.8.92,6.7,6.7,0,0,1-5.53-2.49,10.86,10.86,0,0,1-2-6.94c0-3.45.71-6.12,2.13-8a6.92,6.92,0,0,1,5.86-2.85,8,8,0,0,1,3.47.76,8.42,8.42,0,0,1,2.85,2.18l-2.56,2.85a5,5,0,0,0-1.72-1.4,4.65,4.65,0,0,0-2.14-.51,3.26,3.26,0,0,0-2.65,1.19,5.28,5.28,0,0,0-1.05,3.32,4.37,4.37,0,0,1,3.73-1.6A7.13,7.13,0,0,1,607.7,140.66Zm-7.64,6.92a3,3,0,0,0,4.4,0,3.1,3.1,0,0,0,.93-2.25,2.87,2.87,0,0,0-.91-2.14,3.07,3.07,0,0,0-2.22-.89,3,3,0,0,0-2.22.89,2.85,2.85,0,0,0-.92,2.14A3.07,3.07,0,0,0,600.06,147.58Z"/><path class="cls-1" d="M626.25,148v4H614v-4h4V136.37a6.38,6.38,0,0,1-2,1.55,5.66,5.66,0,0,1-2.63.85v-4.11a3.49,3.49,0,0,0,1.26-.27,6.76,6.76,0,0,0,1.26-.64,12.82,12.82,0,0,0,1.07-.78,9.63,9.63,0,0,0,.78-.67A3.2,3.2,0,0,0,618,132h4.65v16Z"/><path class="cls-1" d="M629.69,152v-4.57h3.73V152Z"/><path class="cls-1" d="M637.35,152a13.51,13.51,0,0,1,.84-5.39,7.51,7.51,0,0,1,3.21-3.26c.34-.21.85-.49,1.52-.85s1.22-.64,1.63-.88a15.13,15.13,0,0,0,1.32-.91,3.72,3.72,0,0,0,1-1.17,2.9,2.9,0,0,0,.34-1.4,2.14,2.14,0,0,0-.67-1.69,2.64,2.64,0,0,0-1.79-.58,5,5,0,0,0-2.45.65,8.7,8.7,0,0,0-2.1,1.56l-2.85-3a9.85,9.85,0,0,1,3.25-2.23,11.35,11.35,0,0,1,4.78-1,7.59,7.59,0,0,1,5.17,1.62,5.46,5.46,0,0,1,1.84,4.34,6.08,6.08,0,0,1-.24,1.73,5.4,5.4,0,0,1-.62,1.42,6.11,6.11,0,0,1-1,1.21,10.38,10.38,0,0,1-1.22,1c-.41.29-.9.6-1.44.93a27.57,27.57,0,0,0-3.37,2.11A6.41,6.41,0,0,0,643,148h9.44v4Z"/><path class="cls-1" d="M656.12,136.17a4,4,0,0,1,1.42-3,5.33,5.33,0,0,1,6.91,0,4,4,0,0,1,0,6.12,5.33,5.33,0,0,1-6.91,0A4,4,0,0,1,656.12,136.17Zm2,14.28,8-9.07,7.3-9.5,2.05,1.81-7.78,8.84-7.59,9.74Zm4.11-12.75a2.37,2.37,0,0,0,.51-1.53,2.32,2.32,0,0,0-.51-1.51,1.48,1.48,0,0,0-2.42,0,2.35,2.35,0,0,0-.5,1.49,2.42,2.42,0,0,0,.5,1.53,1.51,1.51,0,0,0,1.21.63A1.49,1.49,0,0,0,662.2,137.7ZM667.69,148a3.94,3.94,0,0,1,1.42-3.07,5.33,5.33,0,0,1,6.91,0,4,4,0,0,1,0,6.12,5.4,5.4,0,0,1-6.91,0A3.93,3.93,0,0,1,667.69,148Zm6.61,0a2.32,2.32,0,0,0-.52-1.52,1.48,1.48,0,0,0-2.43,0,2.37,2.37,0,0,0-.5,1.53,2.31,2.31,0,0,0,.5,1.51,1.49,1.49,0,0,0,2.43,0A2.26,2.26,0,0,0,674.3,148Z"/><path class="cls-2" d="M925.46,338.41a8.93,8.93,0,0,1-4-.87,6.21,6.21,0,0,1-2.71-2.42l2.56-2.78a5.86,5.86,0,0,0,1.92,1.58,4.76,4.76,0,0,0,2.24.58,3,3,0,0,0,2.13-.76,2.85,2.85,0,0,0,0-3.93,2.62,2.62,0,0,0-1.93-.75,3.07,3.07,0,0,0-1.44.35,2.5,2.5,0,0,0-1,.95h-4l2.36-12.1h10.06v4.09H925l-.6,3.39a2.94,2.94,0,0,1,2-.51,6.69,6.69,0,0,1,4.81,1.8,6.1,6.1,0,0,1,1.89,4.62,6.19,6.19,0,0,1-2.16,4.88A8,8,0,0,1,925.46,338.41Z"/><path class="cls-2" d="M937,338.17V333.6h3.73v4.57Z"/><path class="cls-2" d="M944.62,338.17a13.51,13.51,0,0,1,.84-5.39,7.58,7.58,0,0,1,3.21-3.27c.34-.21.85-.49,1.52-.84s1.22-.65,1.63-.89a12,12,0,0,0,1.32-.9,3.72,3.72,0,0,0,1-1.17,3,3,0,0,0,.35-1.41,2.11,2.11,0,0,0-.68-1.68,2.65,2.65,0,0,0-1.79-.59,5.14,5.14,0,0,0-2.45.65,9.44,9.44,0,0,0-2.1,1.57l-2.85-3a9.75,9.75,0,0,1,3.26-2.23,11.3,11.3,0,0,1,4.77-1,7.62,7.62,0,0,1,5.17,1.61,5.49,5.49,0,0,1,1.84,4.35,6.38,6.38,0,0,1-.23,1.72,5.67,5.67,0,0,1-.63,1.43,6.11,6.11,0,0,1-1,1.21,10.26,10.26,0,0,1-1.22,1c-.41.3-.89.61-1.44.94a26.37,26.37,0,0,0-3.37,2.11,6.73,6.73,0,0,0-1.52,1.66h9.44v4Z"/><path class="cls-2" d="M963.4,322.32a3.93,3.93,0,0,1,1.42-3.05,5.33,5.33,0,0,1,6.91,0,4,4,0,0,1,0,6.12,5.33,5.33,0,0,1-6.91,0A4,4,0,0,1,963.4,322.32Zm2,14.27,8-9.06,7.3-9.5,2,1.8L975,328.68l-7.58,9.73Zm4.12-12.74a2.44,2.44,0,0,0,.5-1.53,2.37,2.37,0,0,0-.5-1.51,1.53,1.53,0,0,0-1.21-.62,1.49,1.49,0,0,0-1.21.63,2.34,2.34,0,0,0-.5,1.5,2.39,2.39,0,0,0,.5,1.53,1.49,1.49,0,0,0,1.21.63A1.51,1.51,0,0,0,969.48,323.85ZM975,334.13a4,4,0,0,1,1.42-3.07,5.38,5.38,0,0,1,6.92,0,4,4,0,0,1,1.42,3.07,3.94,3.94,0,0,1-1.42,3.05,5.38,5.38,0,0,1-6.92,0A3.91,3.91,0,0,1,975,334.13Zm6.61,0a2.34,2.34,0,0,0-.51-1.51,1.56,1.56,0,0,0-1.23-.65,1.51,1.51,0,0,0-1.21.64,2.4,2.4,0,0,0-.5,1.52,2.33,2.33,0,0,0,.5,1.51,1.5,1.5,0,0,0,1.21.63,1.57,1.57,0,0,0,1.23-.64A2.31,2.31,0,0,0,981.57,334.13Z"/><path class="cls-1" d="M931.46,148v4H919.17v-4h4V136.36a6.13,6.13,0,0,1-2.05,1.56,5.62,5.62,0,0,1-2.62.85v-4.11a3.49,3.49,0,0,0,1.26-.27,6.76,6.76,0,0,0,1.26-.64,12.82,12.82,0,0,0,1.07-.78c.33-.27.59-.5.78-.67a2.55,2.55,0,0,0,.3-.32h4.65v16Z"/><path class="cls-1" d="M934.9,152v-4.57h3.73V152Z"/><path class="cls-1" d="M942.56,142.22a11.39,11.39,0,0,1,.38-2.88,10.71,10.71,0,0,1,1.18-2.74,11.48,11.48,0,0,1,1.84-2.29,8.12,8.12,0,0,1,2.5-1.58,8,8,0,0,1,3-.59,8.12,8.12,0,0,1,3.2.63,7.64,7.64,0,0,1,2.53,1.67,11.23,11.23,0,0,1,1.79,2.35,11.19,11.19,0,0,1,1.46,5.43,10.66,10.66,0,0,1-.4,2.89,10.53,10.53,0,0,1-1.17,2.74,11.08,11.08,0,0,1-1.84,2.28,8,8,0,0,1-2.51,1.57,8.46,8.46,0,0,1-3.06.59,8,8,0,0,1-2.7-.44,7.58,7.58,0,0,1-2.24-1.18,10.23,10.23,0,0,1-1.74-1.74,9.28,9.28,0,0,1-1.26-2.11,12.35,12.35,0,0,1-.75-2.3A10.79,10.79,0,0,1,942.56,142.22Zm8.94,6a3.4,3.4,0,0,0,1.94-.57,4,4,0,0,0,1.34-1.49,8.23,8.23,0,0,0,.72-1.92,8.12,8.12,0,0,0,.25-2,8.38,8.38,0,0,0-.27-2.12,7.08,7.08,0,0,0-.77-1.92,4.15,4.15,0,0,0-1.34-1.42,3.45,3.45,0,0,0-1.87-.53,3.38,3.38,0,0,0-1.92.57,4.06,4.06,0,0,0-1.33,1.49,8.23,8.23,0,0,0-.72,1.92,8.63,8.63,0,0,0-.24,2,9.33,9.33,0,0,0,.27,2.12,7.67,7.67,0,0,0,.75,1.92,4,4,0,0,0,1.32,1.41A3.35,3.35,0,0,0,951.5,148.2Z"/><path class="cls-1" d="M963.83,136.17a4,4,0,0,1,1.42-3,5.33,5.33,0,0,1,6.91,0,4,4,0,0,1,0,6.12,5.33,5.33,0,0,1-6.91,0A4,4,0,0,1,963.83,136.17Zm2,14.28,8-9.07,7.3-9.5,2,1.8-7.78,8.85-7.59,9.73Zm4.11-12.75a2.37,2.37,0,0,0,.51-1.53,2.32,2.32,0,0,0-.51-1.51,1.48,1.48,0,0,0-2.42,0,2.35,2.35,0,0,0-.5,1.49,2.42,2.42,0,0,0,.5,1.53,1.51,1.51,0,0,0,1.21.63A1.49,1.49,0,0,0,969.91,137.7ZM975.4,148a3.94,3.94,0,0,1,1.42-3.07,5.33,5.33,0,0,1,6.91,0,3.94,3.94,0,0,1,1.42,3.07,3.89,3.89,0,0,1-1.42,3,5.37,5.37,0,0,1-6.91,0A3.89,3.89,0,0,1,975.4,148Zm6.61,0a2.32,2.32,0,0,0-.52-1.52,1.48,1.48,0,0,0-2.43,0,2.35,2.35,0,0,0-.5,1.53,2.31,2.31,0,0,0,.5,1.51,1.49,1.49,0,0,0,2.43,0A2.26,2.26,0,0,0,982,148Z"/><path class="cls-2" d="M767.83,338.17a13.53,13.53,0,0,1,.83-5.39,7.67,7.67,0,0,1,3.22-3.27c.34-.21.85-.49,1.52-.84s1.21-.64,1.63-.88a13.7,13.7,0,0,0,1.31-.91,3.76,3.76,0,0,0,1-1.17,2.9,2.9,0,0,0,.34-1.4,2.14,2.14,0,0,0-.68-1.69,2.61,2.61,0,0,0-1.78-.58,5,5,0,0,0-2.45.65,8.7,8.7,0,0,0-2.1,1.56l-2.86-3a9.9,9.9,0,0,1,3.26-2.23,11.33,11.33,0,0,1,4.77-1,7.62,7.62,0,0,1,5.17,1.61A5.5,5.5,0,0,1,782.9,324a6,6,0,0,1-.24,1.72,5.67,5.67,0,0,1-.63,1.43,6.42,6.42,0,0,1-1,1.21,10.45,10.45,0,0,1-1.23,1q-.62.44-1.44.93a28.06,28.06,0,0,0-3.36,2.11,6.41,6.41,0,0,0-1.52,1.67h9.43v4Z"/><path class="cls-2" d="M795.12,322.35h-8.49v-4.09H802.3l-10,19.88h-5.15Z"/><path class="cls-2" d="M803.5,338.17V333.6h3.72v4.57Z"/><path class="cls-2" d="M824.22,326.81a6.09,6.09,0,0,1,2,4.67,6.68,6.68,0,0,1-1,3.52,7,7,0,0,1-2.69,2.52,7.94,7.94,0,0,1-3.8.92,6.69,6.69,0,0,1-5.53-2.49,10.86,10.86,0,0,1-2-6.94c0-3.45.71-6.12,2.13-8a6.91,6.91,0,0,1,5.86-2.85,8.17,8.17,0,0,1,3.47.75,8.58,8.58,0,0,1,2.85,2.19L823,323.92a5.19,5.19,0,0,0-1.72-1.41,4.8,4.8,0,0,0-2.14-.5,3.26,3.26,0,0,0-2.65,1.19,5.28,5.28,0,0,0-1,3.32,4.37,4.37,0,0,1,3.73-1.6A7.09,7.09,0,0,1,824.22,326.81Zm-7.63,6.92a3,3,0,0,0,4.4,0,3.1,3.1,0,0,0,.93-2.25,2.83,2.83,0,0,0-.92-2.14,3,3,0,0,0-2.21-.89,3.08,3.08,0,0,0-2.23.89,2.86,2.86,0,0,0-.91,2.14A3.07,3.07,0,0,0,816.59,333.73Z"/><path class="cls-2" d="M829.62,322.32a3.93,3.93,0,0,1,1.42-3.05,5.33,5.33,0,0,1,6.91,0,4,4,0,0,1,0,6.12,5.33,5.33,0,0,1-6.91,0A3.94,3.94,0,0,1,829.62,322.32Zm2,14.28,8-9.07,7.31-9.5,2,1.8-7.78,8.85-7.58,9.74Zm4.12-12.75a2.42,2.42,0,0,0,.5-1.53,2.37,2.37,0,0,0-.5-1.51,1.52,1.52,0,0,0-1.21-.62,1.48,1.48,0,0,0-1.21.64,2.35,2.35,0,0,0-.5,1.49,2.42,2.42,0,0,0,.5,1.53,1.48,1.48,0,0,0,2.42,0Zm5.48,10.29a4,4,0,0,1,1.42-3.07,5.35,5.35,0,0,1,6.92,0,4,4,0,0,1,1.42,3.07,3.93,3.93,0,0,1-1.42,3,5.38,5.38,0,0,1-6.92,0A3.93,3.93,0,0,1,841.18,334.14Zm6.61,0a2.36,2.36,0,0,0-.51-1.52,1.53,1.53,0,0,0-1.23-.64,1.51,1.51,0,0,0-1.21.63,2.42,2.42,0,0,0-.5,1.53,2.37,2.37,0,0,0,.5,1.51,1.5,1.5,0,0,0,2.44,0A2.3,2.3,0,0,0,847.79,334.14Z"/><path class="cls-1" d="M774.43,152.18c-3.08,0-5.38-1-6.87-2.85l2.37-3.16a4.84,4.84,0,0,0,1.75,1.38,5.78,5.78,0,0,0,2.55.52,4.38,4.38,0,0,0,2.47-.58,1.94,1.94,0,0,0,.87-1.72q0-2.46-4.41-2.46h-.92V140.1h1a5.46,5.46,0,0,0,2.8-.62,1.92,1.92,0,0,0,1-1.73,1.78,1.78,0,0,0-.71-1.48,2.92,2.92,0,0,0-1.82-.55,4.31,4.31,0,0,0-2.21.58,4.49,4.49,0,0,0-1.6,1.61l-2.94-3.31a6.49,6.49,0,0,1,2.94-1.94,12.2,12.2,0,0,1,4.24-.74,8.35,8.35,0,0,1,5,1.41,4.35,4.35,0,0,1,1.93,3.68,4.41,4.41,0,0,1-1,2.9,4.7,4.7,0,0,1-2.72,1.61,4.68,4.68,0,0,1,3,1.72,5.1,5.1,0,0,1,1.16,3.33,4.72,4.72,0,0,1-2.17,4.1A9.73,9.73,0,0,1,774.43,152.18Z"/><path class="cls-1" d="M792.5,152.27a9,9,0,0,1-4-.87,6.27,6.27,0,0,1-2.7-2.43l2.56-2.77a6,6,0,0,0,1.91,1.58,5,5,0,0,0,2.25.58,3,3,0,0,0,2.12-.76,2.87,2.87,0,0,0,.06-3.93,2.64,2.64,0,0,0-1.93-.75,3.13,3.13,0,0,0-1.45.34,2.63,2.63,0,0,0-1,1h-3.95l2.36-12.1h10.07v4.09H792l-.59,3.39a3,3,0,0,1,2-.5,6.7,6.7,0,0,1,4.8,1.79,6.1,6.1,0,0,1,1.89,4.62,6.2,6.2,0,0,1-2.15,4.88A8,8,0,0,1,792.5,152.27Z"/><path class="cls-1" d="M804,152v-4.57h3.73V152Z"/><path class="cls-1" d="M818.16,152.18c-3.08,0-5.38-1-6.87-2.85l2.37-3.16a4.84,4.84,0,0,0,1.75,1.38,5.78,5.78,0,0,0,2.55.52,4.38,4.38,0,0,0,2.47-.58,1.94,1.94,0,0,0,.87-1.72q0-2.46-4.42-2.46H816V140.1h1a5.46,5.46,0,0,0,2.8-.62,1.94,1.94,0,0,0,1-1.73,1.78,1.78,0,0,0-.71-1.48,2.92,2.92,0,0,0-1.82-.55,4.31,4.31,0,0,0-2.21.58,4.49,4.49,0,0,0-1.6,1.61l-2.94-3.31a6.49,6.49,0,0,1,2.94-1.94,12.2,12.2,0,0,1,4.24-.74,8.35,8.35,0,0,1,5,1.41,4.35,4.35,0,0,1,1.93,3.68,4.41,4.41,0,0,1-1,2.9,4.7,4.7,0,0,1-2.72,1.61,4.68,4.68,0,0,1,3,1.72,5.1,5.1,0,0,1,1.16,3.33,4.72,4.72,0,0,1-2.17,4.1A9.73,9.73,0,0,1,818.16,152.18Z"/><path class="cls-1" d="M829.51,136.17a3.93,3.93,0,0,1,1.42-3,5.33,5.33,0,0,1,6.91,0,4,4,0,0,1,0,6.12,5.33,5.33,0,0,1-6.91,0A3.94,3.94,0,0,1,829.51,136.17Zm2,14.28,8-9.07,7.3-9.5,2.05,1.81-7.78,8.84-7.58,9.74Zm4.12-12.75a2.4,2.4,0,0,0,.5-1.53,2.37,2.37,0,0,0-.5-1.51,1.53,1.53,0,0,0-1.21-.62,1.47,1.47,0,0,0-1.21.64,2.29,2.29,0,0,0-.5,1.49,2.35,2.35,0,0,0,.5,1.53,1.49,1.49,0,0,0,1.21.63A1.51,1.51,0,0,0,835.59,137.7ZM841.07,148a3.94,3.94,0,0,1,1.42-3.07,5.35,5.35,0,0,1,6.92,0,4,4,0,0,1,0,6.12,5.41,5.41,0,0,1-6.92,0A3.93,3.93,0,0,1,841.07,148Zm6.61,0a2.36,2.36,0,0,0-.51-1.52,1.53,1.53,0,0,0-1.23-.64,1.5,1.5,0,0,0-1.21.63,2.42,2.42,0,0,0-.5,1.53,2.37,2.37,0,0,0,.5,1.51,1.52,1.52,0,0,0,1.21.62,1.53,1.53,0,0,0,1.23-.64A2.3,2.3,0,0,0,847.68,148Z"/><circle class="cls-2" cx="56.68" cy="242.44" r="55.92"/><circle class="cls-1" cx="56.68" cy="56.68" r="56.68"/><circle class="cls-2" cx="245.48" cy="242.44" r="54.41"/><circle class="cls-1" cx="245.48" cy="56.68" r="52.14"/><circle class="cls-2" cx="437.87" cy="242.44" r="52.9"/><circle class="cls-2" cx="628.6" cy="242.44" r="47.61"/><circle class="cls-1" cx="801.95" cy="56.44" r="26.45"/><circle class="cls-2" cx="944.36" cy="242.44" r="10.3"/><circle class="cls-1" cx="944.36" cy="56.68" r="4.11"/><circle class="cls-1" cx="437.87" cy="56.68" r="52.14"/><circle class="cls-1" cx="628.6" cy="56.68" r="46.1"/><circle class="cls-2" cx="801.95" cy="242.68" r="20.4"/></g></g></svg>