<svg xmlns="http://www.w3.org/2000/svg" viewBox="0 0 995.53 601.25"><defs><style>.cls-1{fill:#00324a;}.cls-2{fill:#ff574a;}.cls-3{fill:#fff;}</style></defs><title>11</title><g id="Capa_2" data-name="Capa 2"><g id="Layer_1" data-name="Layer 1"><path class="cls-1" d="M927.06,39.79v4.76l-13.19,0V39.83h4l0-10.15a6.58,6.58,0,0,1-2.06,1.58,5.79,5.79,0,0,1-2.64.86V27.23a3.49,3.49,0,0,0,1.26-.27,7.09,7.09,0,0,0,1.26-.64c.38-.25.74-.5,1.08-.77s.59-.49.78-.67a1.83,1.83,0,0,0,.31-.32h5.53l0,15.25Z"/><path class="cls-1" d="M930,34.74a10.92,10.92,0,0,1,3.46-7.91A8,8,0,0,1,936,25.24a8.19,8.19,0,0,1,3.13-.6,8.45,8.45,0,0,1,3.26.62A8.06,8.06,0,0,1,945,26.92a10.8,10.8,0,0,1,1.84,2.35A11.17,11.17,0,0,1,947.93,32a10.35,10.35,0,0,1,.38,2.71,10.73,10.73,0,0,1-.4,2.9,10.46,10.46,0,0,1-1.19,2.75,10.68,10.68,0,0,1-1.88,2.28,8.12,8.12,0,0,1-2.56,1.58,8.38,8.38,0,0,1-3.13.59,8.6,8.6,0,0,1-3.27-.6,7.91,7.91,0,0,1-2.58-1.64,10.7,10.7,0,0,1-1.83-2.33,11,11,0,0,1-1.14-2.71A11.13,11.13,0,0,1,930,34.74ZM939.14,40a2.85,2.85,0,0,0,1.65-.5,3.39,3.39,0,0,0,1.1-1.3,7.59,7.59,0,0,0,.58-1.68,8,8,0,0,0,.19-1.76,8.14,8.14,0,0,0-.22-1.85,6.54,6.54,0,0,0-.62-1.67A3.27,3.27,0,0,0,940.7,30a2.75,2.75,0,0,0-1.59-.47,2.85,2.85,0,0,0-1.65.5,3.34,3.34,0,0,0-1.1,1.31,7.51,7.51,0,0,0-.58,1.67,8.3,8.3,0,0,0,0,3.62,6.8,6.8,0,0,0,.61,1.67,3.4,3.4,0,0,0,1.11,1.24A2.84,2.84,0,0,0,939.14,40Z"/><path class="cls-1" d="M951.58,34.68a10.69,10.69,0,0,1,.4-2.88,10.34,10.34,0,0,1,1.19-2.73,10.46,10.46,0,0,1,1.87-2.3,8.09,8.09,0,0,1,2.55-1.59,8.26,8.26,0,0,1,3.13-.6,8.69,8.69,0,0,1,3.27.62,8.17,8.17,0,0,1,2.59,1.66,10.92,10.92,0,0,1,1.84,2.36,11.1,11.1,0,0,1,1.14,2.7,10.79,10.79,0,0,1,.38,2.71,10.68,10.68,0,0,1-.4,2.9,10.84,10.84,0,0,1-1.2,2.75,10.69,10.69,0,0,1-1.88,2.29,8.23,8.23,0,0,1-2.55,1.57,8.9,8.9,0,0,1-6.4,0,7.71,7.71,0,0,1-2.58-1.64,10.7,10.7,0,0,1-1.83-2.33A11,11,0,0,1,952,37.45,10.68,10.68,0,0,1,951.58,34.68Zm9.18,5.21a2.73,2.73,0,0,0,1.65-.5,3.33,3.33,0,0,0,1.11-1.3,7.94,7.94,0,0,0,.58-1.68,8.06,8.06,0,0,0,0-3.61,6.93,6.93,0,0,0-.62-1.67,3.43,3.43,0,0,0-1.12-1.24,2.95,2.95,0,0,0-3.24,0,3.34,3.34,0,0,0-1.1,1.31,7,7,0,0,0-.58,1.67,7.61,7.61,0,0,0-.19,1.77,8.67,8.67,0,0,0,.2,1.85,7.07,7.07,0,0,0,.61,1.67,3.43,3.43,0,0,0,1.12,1.24A2.79,2.79,0,0,0,960.76,39.89Z"/><path class="cls-1" d="M974.61,31.82a4.09,4.09,0,0,1,0-6.27,5.18,5.18,0,0,1,3.59-1.3,5.25,5.25,0,0,1,3.61,1.28,4.07,4.07,0,0,1,0,6.27,5.63,5.63,0,0,1-7.2,0Zm1,10.78,8-9,7.13-9.46,2.37,2.09L985.4,35l-7.46,9.73ZM979.17,30a2.28,2.28,0,0,0,.4-1.34,2.31,2.31,0,0,0-.41-1.34,1.17,1.17,0,0,0-1-.55,1.18,1.18,0,0,0-1,.56,2.42,2.42,0,0,0,0,2.68,1.18,1.18,0,0,0,1,.56A1.17,1.17,0,0,0,979.17,30Zm7.7,13.37a4.08,4.08,0,0,1,0-6.27,5.27,5.27,0,0,1,3.6-1.3,5.21,5.21,0,0,1,3.6,1.28,4.08,4.08,0,0,1,0,6.27,5.24,5.24,0,0,1-3.59,1.29A5.29,5.29,0,0,1,986.87,43.38Zm4.56-1.81a2.22,2.22,0,0,0,.4-1.34,2.24,2.24,0,0,0-.41-1.34,1.14,1.14,0,0,0-1-.55,1.18,1.18,0,0,0-1,.56,2.16,2.16,0,0,0-.41,1.34,2.22,2.22,0,0,0,.41,1.34,1.21,1.21,0,0,0,1,.56A1.17,1.17,0,0,0,991.43,41.57Z"/><path class="cls-1" d="M707.69,113a6.07,6.07,0,0,1,2,4.65,6.56,6.56,0,0,1-2.16,5,7.64,7.64,0,0,1-5.39,2,6.72,6.72,0,0,1-5.63-2.56q-2-2.56-2-7.21a12.37,12.37,0,0,1,2.15-7.73,7.15,7.15,0,0,1,6-2.82,8.86,8.86,0,0,1,6.44,2.66l-3,3.43a4.92,4.92,0,0,0-3.54-1.5,3,3,0,0,0-2.2.84,3.53,3.53,0,0,0-.87,2.33,4.58,4.58,0,0,1,3.08-1A7.24,7.24,0,0,1,707.69,113Zm-7.21,6.46a2.25,2.25,0,0,0,3.38,0,2.5,2.5,0,0,0,.73-1.79,2.18,2.18,0,0,0-.72-1.66,2.31,2.31,0,0,0-1.71-.68,2.39,2.39,0,0,0-1.71.68,2.21,2.21,0,0,0-.7,1.67A2.49,2.49,0,0,0,700.48,119.46Z"/><path class="cls-1" d="M726.33,113a6,6,0,0,1,2,4.65,6.53,6.53,0,0,1-2.15,5,7.68,7.68,0,0,1-5.4,2,6.72,6.72,0,0,1-5.63-2.56q-2-2.57-2-7.21a12.37,12.37,0,0,1,2.15-7.73,7.17,7.17,0,0,1,6-2.82,8.84,8.84,0,0,1,6.43,2.66l-3,3.43a4.91,4.91,0,0,0-3.54-1.5,2.92,2.92,0,0,0-2.19.84,3.43,3.43,0,0,0-.87,2.33,4.55,4.55,0,0,1,3.07-1A7.28,7.28,0,0,1,726.33,113Zm-7.21,6.46a2.25,2.25,0,0,0,3.38,0,2.49,2.49,0,0,0,.72-1.79,2.24,2.24,0,0,0-.71-1.67,2.4,2.4,0,0,0-1.71-.68,2.44,2.44,0,0,0-1.71.69,2.22,2.22,0,0,0-.71,1.67A2.5,2.5,0,0,0,719.12,119.41Z"/><path class="cls-1" d="M732.15,124.31v-5.15h4.39l0,5.15Z"/><path class="cls-1" d="M753.48,112.87a6.07,6.07,0,0,1,2,4.65,6.56,6.56,0,0,1-2.16,5,7.55,7.55,0,0,1-5.39,2,6.69,6.69,0,0,1-5.63-2.55q-2-2.56-2-7.22a12.34,12.34,0,0,1,2.15-7.72,7.14,7.14,0,0,1,6-2.83,8.91,8.91,0,0,1,6.44,2.67l-3,3.42a4.93,4.93,0,0,0-3.54-1.49,2.91,2.91,0,0,0-2.2.84,3.51,3.51,0,0,0-.87,2.33,4.47,4.47,0,0,1,3.07-1A7.2,7.2,0,0,1,753.48,112.87Zm-7.21,6.47a2.25,2.25,0,0,0,3.38,0,2.5,2.5,0,0,0,.73-1.79,2.2,2.2,0,0,0-.72-1.67,2.39,2.39,0,0,0-1.71-.68,2.35,2.35,0,0,0-1.71.69,2.2,2.2,0,0,0-.7,1.67A2.5,2.5,0,0,0,746.27,119.34Z"/><path class="cls-1" d="M760.27,111.64a4.09,4.09,0,0,1,0-6.28,5.23,5.23,0,0,1,3.59-1.3,5.3,5.3,0,0,1,3.61,1.28,4.09,4.09,0,0,1,0,6.28,5.67,5.67,0,0,1-7.2,0Zm1,10.78,8-9,7.13-9.46,2.37,2.1-7.7,8.67-7.46,9.73Zm3.6-12.59a2.26,2.26,0,0,0,.4-1.34,2.22,2.22,0,0,0-.41-1.34,1.15,1.15,0,0,0-1-.56,1.18,1.18,0,0,0-1,.56,2.42,2.42,0,0,0,0,2.68,1.15,1.15,0,0,0,1,.56A1.18,1.18,0,0,0,764.82,109.83Zm7.7,13.36a4.08,4.08,0,0,1,0-6.27,5.68,5.68,0,0,1,7.21,0,4,4,0,0,1,1.47,3.14,4,4,0,0,1-1.46,3.13,5.28,5.28,0,0,1-3.59,1.3A5.35,5.35,0,0,1,772.52,123.19Zm4.56-1.8a2.42,2.42,0,0,0,0-2.68,1.15,1.15,0,0,0-1-.56,1.18,1.18,0,0,0-1,.56,2.18,2.18,0,0,0-.41,1.34,2.22,2.22,0,0,0,.41,1.34,1.21,1.21,0,0,0,1,.56A1.18,1.18,0,0,0,777.08,121.39Z"/><path class="cls-1" d="M555.73,190.5v-3.82l-7.33,0V182l9-11.33,3.71,0,0,11.31h2.51v4.75h-2.5v3.81Zm-2-8.57h2.63v-3.34Z"/><path class="cls-1" d="M574,190.45v-3.82l-7.33,0V181.9l9-11.33h3.71l0,11.3h2.51v4.76h-2.51v3.81Zm-2-8.57h2.63v-3.35Z"/><path class="cls-1" d="M585.68,190.44v-5.15h4.4v5.15Z"/><path class="cls-1" d="M600.83,190.38v-3.82l-7.34,0v-4.76l9-11.33h3.72l0,11.31h2.5l0,4.76h-2.51v3.81Zm-2-8.57h2.63v-3.35Z"/><path class="cls-1" d="M613.45,177.77a4.1,4.1,0,0,1,0-6.27,5.28,5.28,0,0,1,3.6-1.31,5.35,5.35,0,0,1,3.61,1.28,4.08,4.08,0,0,1,0,6.28,5.27,5.27,0,0,1-3.6,1.3A5.21,5.21,0,0,1,613.45,177.77Zm1,10.78,8-9,7.13-9.47,2.37,2.1-7.7,8.68-7.46,9.72ZM618,176a2.17,2.17,0,0,0,.4-1.34,2.22,2.22,0,0,0-.4-1.34,1.18,1.18,0,0,0-1-.56,1.14,1.14,0,0,0-1,.57,2.15,2.15,0,0,0-.4,1.34,2.18,2.18,0,0,0,.4,1.33,1.1,1.1,0,0,0,1.92,0Zm7.71,13.36a4,4,0,0,1-1.49-3.12,4.07,4.07,0,0,1,1.47-3.15,5.32,5.32,0,0,1,3.6-1.3,5.27,5.27,0,0,1,3.6,1.29,4.07,4.07,0,0,1,0,6.26,5.67,5.67,0,0,1-7.2,0Zm4.56-1.8a2.42,2.42,0,0,0,0-2.68,1.18,1.18,0,0,0-1-.56,1.21,1.21,0,0,0-1,.56,2.42,2.42,0,0,0,0,2.68,1.11,1.11,0,0,0,1.93,0Z"/><path class="cls-1" d="M482.4,263.42a10.39,10.39,0,0,1-6.94-2.23l2.76-3.86a6.12,6.12,0,0,0,3.88,1.22,4,4,0,0,0,2.12-.44,1.53,1.53,0,0,0,.67-1.38,1.61,1.61,0,0,0-.87-1.53,6.2,6.2,0,0,0-2.78-.46h-.89v-3.69h1a4,4,0,0,0,2.19-.54,1.58,1.58,0,0,0,.82-1.4,1.26,1.26,0,0,0-.49-1.06,2.18,2.18,0,0,0-1.36-.37,4,4,0,0,0-3.39,2l-3.44-3.94a7.1,7.1,0,0,1,3.07-1.83,13.66,13.66,0,0,1,4.37-.71,8.75,8.75,0,0,1,5.11,1.34,4.16,4.16,0,0,1,1.94,3.56,4.51,4.51,0,0,1-1,3,4.32,4.32,0,0,1-2.63,1.61,4.57,4.57,0,0,1,2.88,1.69,5.24,5.24,0,0,1,1.13,3.33,4.85,4.85,0,0,1-2.17,4.19A10.15,10.15,0,0,1,482.4,263.42Z"/><path class="cls-1" d="M500.38,263.37a10.38,10.38,0,0,1-6.94-2.22l2.76-3.87a6.12,6.12,0,0,0,3.88,1.22,4,4,0,0,0,2.12-.44,1.52,1.52,0,0,0,.67-1.38,1.61,1.61,0,0,0-.87-1.53,6.2,6.2,0,0,0-2.78-.46h-.89V251h1a4,4,0,0,0,2.19-.53,1.61,1.61,0,0,0,.82-1.41,1.26,1.26,0,0,0-.49-1.06,2.18,2.18,0,0,0-1.36-.37,4,4,0,0,0-3.39,2l-3.44-3.94a7.1,7.1,0,0,1,3.07-1.83,13.66,13.66,0,0,1,4.37-.71,8.75,8.75,0,0,1,5.11,1.34,4.2,4.2,0,0,1,1.95,3.57,4.56,4.56,0,0,1-1,3,4.32,4.32,0,0,1-2.63,1.61,4.54,4.54,0,0,1,2.88,1.7,5.14,5.14,0,0,1,1.13,3.32,4.85,4.85,0,0,1-2.17,4.19A10.13,10.13,0,0,1,500.38,263.37Z"/><path class="cls-1" d="M512.34,263.2l0-5.15,4.4,0v5.16Z"/><path class="cls-1" d="M526.88,263.3a10.44,10.44,0,0,1-6.94-2.23l2.76-3.86a6.18,6.18,0,0,0,3.88,1.22,4,4,0,0,0,2.12-.44,1.55,1.55,0,0,0,.67-1.39,1.61,1.61,0,0,0-.87-1.52,6.06,6.06,0,0,0-2.78-.46h-.89v-3.69h1a4,4,0,0,0,2.19-.54,1.59,1.59,0,0,0,.82-1.4,1.24,1.24,0,0,0-.49-1.06,2.18,2.18,0,0,0-1.36-.37,4,4,0,0,0-3.39,2l-3.44-3.94a7.1,7.1,0,0,1,3.07-1.83,13.39,13.39,0,0,1,4.37-.71,8.68,8.68,0,0,1,5.11,1.34,4.19,4.19,0,0,1,1.95,3.56,4.57,4.57,0,0,1-1,3,4.32,4.32,0,0,1-2.63,1.61,4.57,4.57,0,0,1,2.88,1.69,5.16,5.16,0,0,1,1.13,3.33,4.86,4.86,0,0,1-2.17,4.19A10.2,10.2,0,0,1,526.88,263.3Z"/><path class="cls-1" d="M539.8,250.53a4.09,4.09,0,0,1,0-6.28,5.67,5.67,0,0,1,7.2,0,4.09,4.09,0,0,1,0,6.28,5.67,5.67,0,0,1-7.2,0Zm1,10.77,8-9,7.13-9.46,2.37,2.1-7.7,8.67-7.46,9.73Zm3.6-12.58a2.27,2.27,0,0,0,.4-1.35,2.19,2.19,0,0,0-.41-1.33,1.15,1.15,0,0,0-1-.56,1.18,1.18,0,0,0-1,.56,2.42,2.42,0,0,0,0,2.68,1.1,1.1,0,0,0,1.92,0Zm7.7,13.36a4.08,4.08,0,0,1,0-6.27,5.32,5.32,0,0,1,3.61-1.3,5.21,5.21,0,0,1,3.6,1.28,4.09,4.09,0,0,1,0,6.27,5.22,5.22,0,0,1-3.59,1.29A5.29,5.29,0,0,1,552.05,262.08Zm4.56-1.8a2.27,2.27,0,0,0,.4-1.35,2.15,2.15,0,0,0-.41-1.33,1.15,1.15,0,0,0-1-.56,1.18,1.18,0,0,0-1,.56,2.37,2.37,0,0,0,0,2.68,1.1,1.1,0,0,0,1.92,0Z"/><polygon class="cls-2" points="892.03 61.76 236.75 61.76 236.75 14.85 892.03 14.85 892.03 14.85 892.03 61.76"/><polygon class="cls-2" points="527.69 204.77 236.75 204.77 236.75 157.87 527.69 157.87 527.69 204.77 527.69 204.77"/><polygon class="cls-2" points="673.16 133.26 236.75 133.26 236.75 86.36 673.16 86.36 673.16 86.36 673.16 133.26"/><polygon class="cls-2" points="454.95 276.28 236.75 276.28 236.75 229.38 236.75 229.38 454.95 229.38 454.95 276.28"/><path class="cls-1" d="M98.62,27.63V19.25l-3.27,6.24H94l-3.27-6.24v8.38H88.21V14.85h2.66l3.78,7.27,3.81-7.27h2.65V27.63Z"/><path class="cls-1" d="M103.9,24.11V18.2h2.41v5.38c0,1.45.52,2.18,1.56,2.18a2.43,2.43,0,0,0,1.38-.44,3.1,3.1,0,0,0,1-1.27V18.2h2.41v6.73a.92.92,0,0,0,.13.55.59.59,0,0,0,.45.19v2a5.85,5.85,0,0,1-1,.11,1.73,1.73,0,0,1-1.06-.3,1.12,1.12,0,0,1-.47-.82l0-.75a4.22,4.22,0,0,1-1.61,1.45,5,5,0,0,1-2.19.49,2.69,2.69,0,0,1-2.22-.94A4.36,4.36,0,0,1,103.9,24.11Z"/><path class="cls-1" d="M115.54,14.49h2.4V24.61a1.32,1.32,0,0,0,.21.86.73.73,0,0,0,.6.24,2.71,2.71,0,0,0,1.14-.26l.32,1.84a5,5,0,0,1-1.11.35,5.84,5.84,0,0,1-1.19.13,2.43,2.43,0,0,1-1.75-.6,2.28,2.28,0,0,1-.62-1.72Z"/><path class="cls-1" d="M127.25,27.15a6.56,6.56,0,0,1-2.66.64,3.16,3.16,0,0,1-1-.13,2.35,2.35,0,0,1-.77-.4,1.77,1.77,0,0,1-.54-.73,2.64,2.64,0,0,1-.19-1.06V20.06H120.9V18.2h1.24V15.14h2.41V18.2h2v1.86h-2v4.6c0,.62.32.92.9.92a3.55,3.55,0,0,0,1.32-.34Z"/><path class="cls-1" d="M129,16.88V14.49h2.41v2.39Zm0,10.75V18.2h2.41v9.43Z"/><path class="cls-1" d="M134,23.78V21.6h5.44v2.18Z"/><path class="cls-1" d="M147.62,27.15a6.56,6.56,0,0,1-2.66.64,3.16,3.16,0,0,1-1-.13,2.35,2.35,0,0,1-.77-.4,1.77,1.77,0,0,1-.54-.73,2.64,2.64,0,0,1-.19-1.06V20.06h-1.24V18.2h1.24V15.14h2.41V18.2h2v1.86h-2v4.6c0,.62.32.92.9.92a3.55,3.55,0,0,0,1.32-.34Z"/><path class="cls-1" d="M148.61,22.93a5.09,5.09,0,0,1,.35-1.87,5,5,0,0,1,1-1.56,4.38,4.38,0,0,1,1.56-1.07,5.37,5.37,0,0,1,2.07-.39,5,5,0,0,1,2.62.68,4.45,4.45,0,0,1,1.72,1.78,5.14,5.14,0,0,1,.59,2.43,5.08,5.08,0,0,1-.35,1.86,4.65,4.65,0,0,1-1,1.55,4.29,4.29,0,0,1-1.56,1.07,5.15,5.15,0,0,1-2.06.4,5.5,5.5,0,0,1-1.7-.26,4.31,4.31,0,0,1-1.38-.72,4.94,4.94,0,0,1-1-1.07,4.31,4.31,0,0,1-.64-1.33A5,5,0,0,1,148.61,22.93Zm5,2.83a2.24,2.24,0,0,0,1.75-.81,3,3,0,0,0,.71-2,3,3,0,0,0-.71-2,2.32,2.32,0,0,0-3.51,0,2.94,2.94,0,0,0-.71,2,3,3,0,0,0,.7,2A2.29,2.29,0,0,0,153.57,25.76Z"/><path class="cls-1" d="M160.48,24.11V18.2h2.4v5.38c0,1.45.53,2.18,1.57,2.18a2.48,2.48,0,0,0,1.38-.44,3.18,3.18,0,0,0,1-1.27V18.2h2.41v6.73a.85.85,0,0,0,.13.55.59.59,0,0,0,.45.19v2a6,6,0,0,1-1,.11,1.73,1.73,0,0,1-1.06-.3,1.09,1.09,0,0,1-.47-.82l-.06-.75a4.08,4.08,0,0,1-1.61,1.45,4.88,4.88,0,0,1-2.18.49,2.67,2.67,0,0,1-2.22-.94A4.36,4.36,0,0,1,160.48,24.11Z"/><path class="cls-1" d="M176.53,27.81a5.38,5.38,0,0,1-2.07-.4,4.74,4.74,0,0,1-1.58-1.07,5.06,5.06,0,0,1-1-1.56,5.12,5.12,0,0,1,.24-4.29,4.44,4.44,0,0,1,1.74-1.78,5.08,5.08,0,0,1,2.64-.67,5,5,0,0,1,2.6.65,4.14,4.14,0,0,1,1.66,1.76l-2.35.72a2.12,2.12,0,0,0-.81-.79,2.25,2.25,0,0,0-1.12-.29,2.29,2.29,0,0,0-1.76.79,3.25,3.25,0,0,0,0,4.07,2.27,2.27,0,0,0,1.75.81,2.24,2.24,0,0,0,1.19-.32,1.74,1.74,0,0,0,.77-.8l2.36.73a4,4,0,0,1-1.64,1.77A5.15,5.15,0,0,1,176.53,27.81Z"/><path class="cls-1" d="M191.5,27.63h-2.41V22.34a2.65,2.65,0,0,0-.42-1.63,1.35,1.35,0,0,0-1.16-.55,2.28,2.28,0,0,0-1.4.56,3,3,0,0,0-1,1.4v5.51h-2.41V14.49h2.41V20a3.79,3.79,0,0,1,1.43-1.41,3.86,3.86,0,0,1,2-.5q3,0,3,3.7Z"/><path class="cls-1" d="M0,54.16a2.68,2.68,0,0,1,1.12-2.22,4.8,4.8,0,0,1,2.93-.85,6,6,0,0,1,2.27.38V51a1.8,1.8,0,0,0-.53-1.39,2.3,2.3,0,0,0-1.58-.48,3.91,3.91,0,0,0-1.44.26,7.4,7.4,0,0,0-1.5.8L.48,48.58a7.19,7.19,0,0,1,4-1.23,4.57,4.57,0,0,1,3.15,1,3.69,3.69,0,0,1,1.12,2.88v3a.87.87,0,0,0,.13.55.63.63,0,0,0,.45.19v2a5.52,5.52,0,0,1-1,.12,1.73,1.73,0,0,1-1.08-.3A1.34,1.34,0,0,1,6.73,56l-.05-.48a4.13,4.13,0,0,1-1.52,1.22,4.37,4.37,0,0,1-1.88.43,3.37,3.37,0,0,1-2.35-.84A2.74,2.74,0,0,1,0,54.16Zm5.87.48a1.24,1.24,0,0,0,.45-.82v-1a5,5,0,0,0-1.89-.38,2.73,2.73,0,0,0-1.55.41A1.23,1.23,0,0,0,2.29,54a1.31,1.31,0,0,0,.45,1A1.73,1.73,0,0,0,4,55.36a2.91,2.91,0,0,0,1-.19A2.61,2.61,0,0,0,5.87,54.64Z"/><path class="cls-1" d="M17,56.46a6.56,6.56,0,0,1-2.66.64,3.16,3.16,0,0,1-.95-.13,2.26,2.26,0,0,1-.77-.4,1.8,1.8,0,0,1-.54-.72,2.73,2.73,0,0,1-.19-1.07V49.37H10.64V47.52h1.24V44.46h2.41v3.06h2v1.85h-2V54c0,.61.32.92.9.92a3.76,3.76,0,0,0,1.32-.34Z"/><path class="cls-1" d="M24.31,56.46a6.52,6.52,0,0,1-2.66.64A3.21,3.21,0,0,1,20.7,57a2.46,2.46,0,0,1-.77-.4,1.8,1.8,0,0,1-.54-.72,2.73,2.73,0,0,1-.19-1.07V49.37H18V47.52H19.2V44.46h2.42v3.06h2v1.85h-2V54c0,.61.31.92.89.92a3.76,3.76,0,0,0,1.32-.34Z"/><path class="cls-1" d="M31.64,49.6a4.66,4.66,0,0,0-2,.44,2.5,2.5,0,0,0-1.22,1.2V57H26V47.52h2.22v2A4.38,4.38,0,0,1,29.51,48a3,3,0,0,1,1.64-.61,4.14,4.14,0,0,1,.49,0Z"/><path class="cls-1" d="M33.43,46.2V43.81h2.41V46.2Zm0,10.75V47.52h2.41V57Z"/><path class="cls-1" d="M40.58,55.31V57H38.47V43.81h2.41v5.36a3.62,3.62,0,0,1,1.34-1.35,3.82,3.82,0,0,1,1.9-.47,3.57,3.57,0,0,1,2.15.68,4.36,4.36,0,0,1,1.46,1.79,5.87,5.87,0,0,1,.51,2.45,5.31,5.31,0,0,1-.57,2.46,4.46,4.46,0,0,1-1.58,1.75,4.13,4.13,0,0,1-2.26.64,3.79,3.79,0,0,1-1.91-.48A3.49,3.49,0,0,1,40.58,55.31Zm5.19-3a3.07,3.07,0,0,0-.7-2,2.18,2.18,0,0,0-1.76-.85,2.3,2.3,0,0,0-1.43.51,3.46,3.46,0,0,0-1,1.32v2.25a2.22,2.22,0,0,0,.9,1.14A2.5,2.5,0,0,0,45,54.26,2.83,2.83,0,0,0,45.77,52.29Z"/><path class="cls-1" d="M50.24,53.42v-5.9h2.41v5.37c0,1.46.52,2.18,1.56,2.18a2.36,2.36,0,0,0,1.38-.44,3.06,3.06,0,0,0,1.06-1.27V47.52h2.41v6.73a.87.87,0,0,0,.13.55.61.61,0,0,0,.45.19v2a6,6,0,0,1-1,.1,1.82,1.82,0,0,1-1.06-.29,1.14,1.14,0,0,1-.47-.82L57,55.18a4.08,4.08,0,0,1-1.61,1.45,4.82,4.82,0,0,1-2.19.49A2.65,2.65,0,0,1,51,56.18,4.3,4.3,0,0,1,50.24,53.42Z"/><path class="cls-1" d="M67.51,56.46a6.56,6.56,0,0,1-2.66.64A3.16,3.16,0,0,1,63.9,57a2.35,2.35,0,0,1-.77-.4,1.8,1.8,0,0,1-.54-.72,2.73,2.73,0,0,1-.19-1.07V49.37H61.16V47.52H62.4V44.46h2.41v3.06h2v1.85h-2V54c0,.61.32.92.9.92A3.76,3.76,0,0,0,67,54.56Z"/><path class="cls-1" d="M69.22,46.2V43.81h2.41V46.2Zm0,10.75V47.52h2.41V57Z"/><path class="cls-1" d="M73.66,52.24A5.13,5.13,0,0,1,74,50.37a5,5,0,0,1,1-1.56,4.42,4.42,0,0,1,1.56-1.07,5.37,5.37,0,0,1,2.07-.39,5,5,0,0,1,2.62.68A4.52,4.52,0,0,1,83,49.81a5.14,5.14,0,0,1,.59,2.43,5.08,5.08,0,0,1-.35,1.86,4.8,4.8,0,0,1-1,1.56,4.42,4.42,0,0,1-1.56,1.07,5.32,5.32,0,0,1-2.06.39,5.22,5.22,0,0,1-1.7-.26,4.5,4.5,0,0,1-1.38-.71,5.18,5.18,0,0,1-1-1.07,4.36,4.36,0,0,1-.64-1.34A5,5,0,0,1,73.66,52.24Zm5,2.83a2.26,2.26,0,0,0,1.75-.8,3,3,0,0,0,.71-2,2.93,2.93,0,0,0-.71-2,2.33,2.33,0,0,0-3.51,0,3.28,3.28,0,0,0,0,4.06A2.25,2.25,0,0,0,78.62,55.07Z"/><path class="cls-1" d="M94.38,57H92V51.66c0-1.46-.5-2.18-1.5-2.18A2.33,2.33,0,0,0,89,50a2.83,2.83,0,0,0-1,1.4V57H85.61V47.52h2.18v1.74a3.71,3.71,0,0,1,1.53-1.4,4.78,4.78,0,0,1,2.22-.51,3.17,3.17,0,0,1,1.2.21,2.38,2.38,0,0,1,.82.56,2.81,2.81,0,0,1,.5.85,4.49,4.49,0,0,1,.25,1,7.45,7.45,0,0,1,.07,1.1Z"/><path class="cls-1" d="M116.34,57h-2.4V51.66a2.88,2.88,0,0,0-.38-1.64,1.23,1.23,0,0,0-1.08-.54,2,2,0,0,0-1.35.55,3,3,0,0,0-.9,1.42V57h-2.42V51.66c0-1.46-.49-2.18-1.46-2.18A2.08,2.08,0,0,0,105,50a3,3,0,0,0-.9,1.42V57h-2.41V47.52h2.18v1.74a3.68,3.68,0,0,1,1.44-1.41,4.28,4.28,0,0,1,2.07-.5,2.68,2.68,0,0,1,1.79.56,2.51,2.51,0,0,1,.87,1.44,4,4,0,0,1,1.47-1.48,3.85,3.85,0,0,1,2-.52c1.89,0,2.83,1.23,2.83,3.71Z"/><path class="cls-1" d="M118.3,52.24a4.93,4.93,0,0,1,.35-1.87,5,5,0,0,1,1-1.56,4.55,4.55,0,0,1,1.57-1.07,5.36,5.36,0,0,1,2.06-.39,5.07,5.07,0,0,1,2.63.68,4.52,4.52,0,0,1,1.72,1.78,5.13,5.13,0,0,1,.58,2.43,5.07,5.07,0,0,1-.34,1.86,5,5,0,0,1-1,1.56,4.42,4.42,0,0,1-1.56,1.07,5.37,5.37,0,0,1-2.07.39,5.16,5.16,0,0,1-1.69-.26,4.5,4.5,0,0,1-1.38-.71,5.18,5.18,0,0,1-1-1.07,4.63,4.63,0,0,1-.65-1.34A5.33,5.33,0,0,1,118.3,52.24Zm5,2.83a2.26,2.26,0,0,0,1.76-.8,3,3,0,0,0,.7-2,2.92,2.92,0,0,0-.7-2,2.33,2.33,0,0,0-3.51,0,3.24,3.24,0,0,0,0,4.06A2.23,2.23,0,0,0,123.25,55.07Z"/><path class="cls-1" d="M129.67,52.23a5.55,5.55,0,0,1,.54-2.46A4.29,4.29,0,0,1,131.72,48a3.82,3.82,0,0,1,2.17-.65,3.58,3.58,0,0,1,1.85.49,3.85,3.85,0,0,1,1.33,1.33V43.81h2.42V54.25a1,1,0,0,0,.12.55A.58.58,0,0,0,140,55v2a5.61,5.61,0,0,1-1,.12,1.73,1.73,0,0,1-1.06-.32,1.15,1.15,0,0,1-.48-.85l0-.59A3.45,3.45,0,0,1,136,56.65a3.92,3.92,0,0,1-1.89.47,4.2,4.2,0,0,1-2.31-.65,4.42,4.42,0,0,1-1.6-1.77A5.38,5.38,0,0,1,129.67,52.23Zm7.4,1.26V51.24a3,3,0,0,0-1-1.31,2.38,2.38,0,0,0-1.43-.52,2.2,2.2,0,0,0-1.77.85,3.09,3.09,0,0,0-.7,2,2.8,2.8,0,0,0,.74,2,2.47,2.47,0,0,0,3.24.35A2.25,2.25,0,0,0,137.07,53.49Z"/><path class="cls-1" d="M146.68,57.12a5.12,5.12,0,0,1-2.63-.67,4.55,4.55,0,0,1-1.75-1.76,5,5,0,0,1-.59-2.4,5.27,5.27,0,0,1,.59-2.47A4.63,4.63,0,0,1,144.05,48a5.05,5.05,0,0,1,2.65-.68,5.32,5.32,0,0,1,2.06.39,4.47,4.47,0,0,1,1.55,1.07,4.65,4.65,0,0,1,1,1.54,5,5,0,0,1,.34,1.84,5.71,5.71,0,0,1-.05.81h-7.3a2.5,2.5,0,0,0,.81,1.72,2.47,2.47,0,0,0,1.7.64,2.7,2.7,0,0,0,1.36-.35,1.85,1.85,0,0,0,.87-.93l2.07.58a4.21,4.21,0,0,1-1.69,1.79A5.3,5.3,0,0,1,146.68,57.12Zm-2.47-5.65h4.93a2.64,2.64,0,0,0-.79-1.72,2.38,2.38,0,0,0-1.69-.65,2.35,2.35,0,0,0-1.67.66A2.58,2.58,0,0,0,144.21,51.47Z"/><path class="cls-1" d="M153.51,43.81h2.41V53.92a1.37,1.37,0,0,0,.2.86.76.76,0,0,0,.61.24,2.65,2.65,0,0,0,1.13-.25l.33,1.83a5.08,5.08,0,0,1-1.12.36,6.54,6.54,0,0,1-1.19.13,2.39,2.39,0,0,1-1.74-.61,2.26,2.26,0,0,1-.63-1.71Z"/><path class="cls-1" d="M159.67,43.81h2.4V53.92a1.3,1.3,0,0,0,.21.86.73.73,0,0,0,.6.24,2.7,2.7,0,0,0,1.14-.25l.32,1.83a5,5,0,0,1-1.11.36,6.64,6.64,0,0,1-1.19.13,2.43,2.43,0,0,1-1.75-.61,2.26,2.26,0,0,1-.62-1.71Z"/><path class="cls-1" d="M165.84,46.2V43.81h2.41V46.2Zm0,10.75V47.52h2.41V57Z"/><path class="cls-1" d="M179.64,57h-2.41V51.66c0-1.46-.5-2.18-1.49-2.18a2.34,2.34,0,0,0-1.47.56,2.83,2.83,0,0,0-1,1.4V57h-2.4V47.52h2.17v1.74a3.71,3.71,0,0,1,1.53-1.4,4.78,4.78,0,0,1,2.22-.51,3.14,3.14,0,0,1,1.2.21,2.29,2.29,0,0,1,.82.56,2.62,2.62,0,0,1,.5.85,4.49,4.49,0,0,1,.25,1,7.45,7.45,0,0,1,.07,1.1Z"/><path class="cls-1" d="M181.63,52.23a5.43,5.43,0,0,1,.55-2.47A4.37,4.37,0,0,1,183.74,48a4.18,4.18,0,0,1,2.28-.65,3.75,3.75,0,0,1,1.9.48,4.16,4.16,0,0,1,1.4,1.34V47.52h2.11v9a4.14,4.14,0,0,1-.69,2.38,4.26,4.26,0,0,1-1.86,1.56,6.55,6.55,0,0,1-2.69.52,5.94,5.94,0,0,1-2.56-.5A5.12,5.12,0,0,1,181.78,59l1.3-1.27a3.84,3.84,0,0,0,1.37,1,4,4,0,0,0,1.74.38,3.81,3.81,0,0,0,1.08-.15,3,3,0,0,0,.9-.48,2.13,2.13,0,0,0,.62-.83A3.1,3.1,0,0,0,189,56.5V55.31a3.29,3.29,0,0,1-1.31,1.25,4,4,0,0,1-4-.21,4.32,4.32,0,0,1-1.51-1.74A5.29,5.29,0,0,1,181.63,52.23ZM189,53.49V51.24a2.88,2.88,0,0,0-1-1.32,2.4,2.4,0,0,0-1.45-.51,2.13,2.13,0,0,0-1.76.86,3.19,3.19,0,0,0-.69,2,2.75,2.75,0,0,0,.74,2,2.49,2.49,0,0,0,3.26.35A2.54,2.54,0,0,0,189,53.49Z"/><path class="cls-1" d="M38.07,114.43V101.66h5.41a3.76,3.76,0,0,1,1.62.36,4,4,0,0,1,1.3,1,4.43,4.43,0,0,1,.84,1.36,4,4,0,0,1,.31,1.55,4.51,4.51,0,0,1-.49,2.07,4,4,0,0,1-1.42,1.57,3.67,3.67,0,0,1-2.07.61h-3v4.28ZM40.55,108h2.88a1.42,1.42,0,0,0,1.15-.57,2.35,2.35,0,0,0,.45-1.5,2.16,2.16,0,0,0-.51-1.51,1.56,1.56,0,0,0-1.2-.56H40.55Z"/><path class="cls-1" d="M55.1,107.09a4.58,4.58,0,0,0-2,.44,2.56,2.56,0,0,0-1.23,1.2v5.7h-2.4V105H51.7v2A4.4,4.4,0,0,1,53,105.49a2.91,2.91,0,0,1,1.64-.61,4.06,4.06,0,0,1,.48,0Z"/><path class="cls-1" d="M56.18,109.73a4.93,4.93,0,0,1,.35-1.87,5,5,0,0,1,1-1.56,4.55,4.55,0,0,1,1.57-1.07,5.36,5.36,0,0,1,2.06-.39,5,5,0,0,1,2.63.68,4.52,4.52,0,0,1,1.72,1.78,5.13,5.13,0,0,1,.58,2.43,5.07,5.07,0,0,1-.34,1.86,5,5,0,0,1-1,1.56,4.4,4.4,0,0,1-1.56,1.06,5.2,5.2,0,0,1-2.07.4,5.44,5.44,0,0,1-1.69-.26,4.31,4.31,0,0,1-1.38-.72,5.13,5.13,0,0,1-1-1.06,4.75,4.75,0,0,1-.65-1.34A5.33,5.33,0,0,1,56.18,109.73Zm5,2.83a2.24,2.24,0,0,0,1.76-.81,3.29,3.29,0,0,0,0-4.06,2.26,2.26,0,0,0-1.76-.8,2.24,2.24,0,0,0-1.75.81,3.24,3.24,0,0,0,0,4.06A2.23,2.23,0,0,0,61.13,112.56Z"/><path class="cls-1" d="M67.57,109.71a5.42,5.42,0,0,1,.55-2.46,4.32,4.32,0,0,1,1.57-1.76,4,4,0,0,1,2.27-.65,3.75,3.75,0,0,1,1.9.48,4.16,4.16,0,0,1,1.4,1.34V105h2.11v9a4.15,4.15,0,0,1-2.55,3.93,6.36,6.36,0,0,1-2.69.53,6,6,0,0,1-2.55-.5,5.15,5.15,0,0,1-1.86-1.47L69,115.21a3.8,3.8,0,0,0,1.36,1,4.16,4.16,0,0,0,1.74.38,3.4,3.4,0,0,0,1.08-.16,2.77,2.77,0,0,0,.9-.47,2,2,0,0,0,.62-.83A2.92,2.92,0,0,0,75,114V112.8A3.2,3.2,0,0,1,73.64,114a3.8,3.8,0,0,1-1.82.45,3.93,3.93,0,0,1-2.21-.65,4.39,4.39,0,0,1-1.51-1.74A5.44,5.44,0,0,1,67.57,109.71ZM75,111v-2.25a3,3,0,0,0-1-1.33,2.4,2.4,0,0,0-1.45-.51,2.16,2.16,0,0,0-1.76.87,3.16,3.16,0,0,0-.69,2,2.77,2.77,0,0,0,.75,2,2.38,2.38,0,0,0,1.84.8,2.41,2.41,0,0,0,1.41-.45A2.47,2.47,0,0,0,75,111Z"/><path class="cls-1" d="M85.61,107.09a4.66,4.66,0,0,0-2,.44,2.5,2.5,0,0,0-1.22,1.2v5.7H80V105H82.2v2a4.4,4.4,0,0,1,1.28-1.53,2.94,2.94,0,0,1,1.64-.61,4.28,4.28,0,0,1,.49,0Z"/><path class="cls-1" d="M86.7,111.65a2.65,2.65,0,0,1,1.12-2.22,4.72,4.72,0,0,1,2.93-.85A6,6,0,0,1,93,109v-.5a1.79,1.79,0,0,0-.53-1.39,2.31,2.31,0,0,0-1.58-.48,4,4,0,0,0-1.44.25,8.41,8.41,0,0,0-1.51.81l-.78-1.58a7.19,7.19,0,0,1,4-1.23,4.48,4.48,0,0,1,3.14,1,3.66,3.66,0,0,1,1.12,2.88v3a.89.89,0,0,0,.14.55.58.58,0,0,0,.44.18v2a4.73,4.73,0,0,1-1,.13,1.65,1.65,0,0,1-1.08-.31,1.29,1.29,0,0,1-.47-.81l-.05-.48a4.12,4.12,0,0,1-1.53,1.21,4.2,4.2,0,0,1-1.87.44,3.37,3.37,0,0,1-2.35-.84A2.75,2.75,0,0,1,86.7,111.65Zm5.87.48a1.24,1.24,0,0,0,.45-.82v-1a5,5,0,0,0-1.89-.38,2.7,2.7,0,0,0-1.55.41,1.24,1.24,0,0,0-.6,1.07,1.25,1.25,0,0,0,.46,1,1.72,1.72,0,0,0,1.22.42,2.91,2.91,0,0,0,1-.19A2.72,2.72,0,0,0,92.57,112.13Z"/><path class="cls-1" d="M112.78,114.43h-2.41v-5.29a2.9,2.9,0,0,0-.38-1.64,1.23,1.23,0,0,0-1.08-.54,2,2,0,0,0-1.35.56,3,3,0,0,0-.9,1.42v5.49h-2.42v-5.29c0-1.45-.48-2.18-1.46-2.18a2.09,2.09,0,0,0-1.35.55,3,3,0,0,0-.9,1.41v5.51H98.12V105h2.18v1.75a3.75,3.75,0,0,1,1.44-1.41,4.17,4.17,0,0,1,2.07-.5,2.67,2.67,0,0,1,1.79.56,2.41,2.41,0,0,1,.87,1.44,4.09,4.09,0,0,1,1.47-1.48,3.86,3.86,0,0,1,2-.52c1.88,0,2.83,1.23,2.83,3.71Z"/><path class="cls-1" d="M130,114.43h-2.41v-5.29a2.9,2.9,0,0,0-.38-1.64,1.23,1.23,0,0,0-1.08-.54,2,2,0,0,0-1.35.56,3,3,0,0,0-.9,1.42v5.49h-2.42v-5.29c0-1.45-.48-2.18-1.45-2.18a2.05,2.05,0,0,0-1.35.55,2.83,2.83,0,0,0-.9,1.41v5.51h-2.41V105h2.18v1.75a3.66,3.66,0,0,1,1.43-1.41,4.17,4.17,0,0,1,2.07-.5,2.69,2.69,0,0,1,1.8.56,2.51,2.51,0,0,1,.87,1.44,4,4,0,0,1,1.46-1.48,3.86,3.86,0,0,1,2-.52c1.89,0,2.83,1.23,2.83,3.71Z"/><path class="cls-1" d="M131.88,111.65a2.65,2.65,0,0,1,1.12-2.22,4.72,4.72,0,0,1,2.93-.85,6,6,0,0,1,2.27.38v-.5a1.79,1.79,0,0,0-.53-1.39,2.3,2.3,0,0,0-1.58-.48,4,4,0,0,0-1.44.25,8.41,8.41,0,0,0-1.51.81l-.78-1.58a7.19,7.19,0,0,1,4-1.23,4.48,4.48,0,0,1,3.14,1,3.66,3.66,0,0,1,1.13,2.88v3a.89.89,0,0,0,.13.55.61.61,0,0,0,.45.18v2a4.88,4.88,0,0,1-1,.13,1.65,1.65,0,0,1-1.08-.31,1.29,1.29,0,0,1-.47-.81l-.05-.48a4.12,4.12,0,0,1-1.53,1.21,4.2,4.2,0,0,1-1.87.44,3.37,3.37,0,0,1-2.35-.84A2.75,2.75,0,0,1,131.88,111.65Zm5.87.48a1.24,1.24,0,0,0,.45-.82v-1a5,5,0,0,0-1.89-.38,2.7,2.7,0,0,0-1.55.41,1.24,1.24,0,0,0-.6,1.07,1.29,1.29,0,0,0,.46,1,1.72,1.72,0,0,0,1.22.42,2.91,2.91,0,0,0,1-.19A2.72,2.72,0,0,0,137.75,112.13Z"/><path class="cls-1" d="M148.87,114a6.56,6.56,0,0,1-2.66.64,3.12,3.12,0,0,1-1-.13,2.4,2.4,0,0,1-.78-.4,1.78,1.78,0,0,1-.53-.72,2.72,2.72,0,0,1-.2-1.07v-5.41h-1.24V105h1.24v-3h2.42v3h2v1.86h-2v4.6q0,.93.9.93a3.6,3.6,0,0,0,1.32-.35Z"/><path class="cls-1" d="M150.58,103.69v-2.4H153v2.4Zm0,10.74V105H153v9.43Z"/><path class="cls-1" d="M160,114.61a5.23,5.23,0,0,1-2.07-.4,4.6,4.6,0,0,1-1.58-1.07,5.06,5.06,0,0,1-1-1.56,4.9,4.9,0,0,1-.35-1.87,5,5,0,0,1,.59-2.42,4.64,4.64,0,0,1,1.74-1.78,5.13,5.13,0,0,1,2.64-.67,5,5,0,0,1,2.6.65,4.14,4.14,0,0,1,1.66,1.76l-2.35.72a2.12,2.12,0,0,0-.81-.79,2.25,2.25,0,0,0-1.12-.29,2.29,2.29,0,0,0-1.76.79,3.25,3.25,0,0,0,0,4.07,2.28,2.28,0,0,0,1.75.81,2.32,2.32,0,0,0,1.19-.31,1.74,1.74,0,0,0,.77-.8l2.36.72a3.93,3.93,0,0,1-1.64,1.77A5,5,0,0,1,160,114.61Z"/><path class="cls-1" d="M180.25,103.83h-4.08v10.6h-2.46v-10.6h-4.09v-2.17h10.63Z"/><path class="cls-1" d="M183.59,101.66l3.46,9.82,3.42-9.82h2.61l-4.84,12.77h-2.4L181,101.66Z"/><path class="cls-1" d="M32.2,176.85v8.2H29.72V172.28h2l6.6,8.42v-8.41h2.49v12.76H38.72Z"/><path class="cls-1" d="M42.91,182.27A2.63,2.63,0,0,1,44,180.05,4.72,4.72,0,0,1,47,179.2a6,6,0,0,1,2.27.38v-.5a1.76,1.76,0,0,0-.54-1.39,2.27,2.27,0,0,0-1.57-.48,3.92,3.92,0,0,0-1.45.26,8,8,0,0,0-1.5.8l-.78-1.58a7.19,7.19,0,0,1,4-1.23,4.48,4.48,0,0,1,3.14,1,3.66,3.66,0,0,1,1.12,2.88v3a.89.89,0,0,0,.14.55.58.58,0,0,0,.44.18v2a4.73,4.73,0,0,1-1,.13,1.64,1.64,0,0,1-1.08-.31,1.25,1.25,0,0,1-.47-.81l0-.48a4.36,4.36,0,0,1-1.53,1.22,4.49,4.49,0,0,1-1.88.43,3.36,3.36,0,0,1-2.34-.84A2.75,2.75,0,0,1,42.91,182.27Zm5.87.48a1.24,1.24,0,0,0,.45-.82v-1a5,5,0,0,0-1.89-.38,2.7,2.7,0,0,0-1.55.41,1.24,1.24,0,0,0-.6,1.07,1.29,1.29,0,0,0,.46,1,1.76,1.76,0,0,0,1.22.41,2.72,2.72,0,0,0,1.05-.2A2.54,2.54,0,0,0,48.78,182.75Z"/><path class="cls-1" d="M59.9,184.57a6.56,6.56,0,0,1-2.67.64,3.1,3.1,0,0,1-.94-.13,2.4,2.4,0,0,1-.78-.4A1.7,1.7,0,0,1,55,184a2.72,2.72,0,0,1-.2-1.07v-5.41H53.54v-1.86h1.24v-3.05H57.2v3.05h2v1.86h-2v4.6q0,.93.9.93a3.51,3.51,0,0,0,1.31-.35Z"/><path class="cls-1" d="M61.6,174.31v-2.39H64v2.39Zm0,10.74v-9.43H64v9.43Z"/><path class="cls-1" d="M69.18,185.05l-3.48-9.43h2.51l2.37,7.24,2.4-7.24h2.28l-3.45,9.43Z"/><path class="cls-1" d="M81,185.23a5.12,5.12,0,0,1-2.63-.67,4.48,4.48,0,0,1-1.75-1.76,4.9,4.9,0,0,1-.59-2.4,5.15,5.15,0,0,1,.59-2.47,4.52,4.52,0,0,1,1.75-1.8,5.14,5.14,0,0,1,2.65-.67,5.32,5.32,0,0,1,2.06.39,4.47,4.47,0,0,1,1.55,1.07,4.65,4.65,0,0,1,1,1.54A5,5,0,0,1,86,180.3a5.82,5.82,0,0,1,0,.81h-7.3a2.5,2.5,0,0,0,.81,1.72,2.47,2.47,0,0,0,1.7.64,2.81,2.81,0,0,0,1.36-.35,1.85,1.85,0,0,0,.87-.93l2.07.58a4.1,4.1,0,0,1-1.7,1.78A5.24,5.24,0,0,1,81,185.23Zm-2.47-5.65H83.5a2.64,2.64,0,0,0-.79-1.72,2.48,2.48,0,0,0-3.36,0A2.56,2.56,0,0,0,78.57,179.58Z"/><path class="cls-1" d="M92,182.27a2.64,2.64,0,0,1,1.13-2.22,4.7,4.7,0,0,1,2.93-.85,6,6,0,0,1,2.26.38v-.5a1.75,1.75,0,0,0-.53-1.39,2.28,2.28,0,0,0-1.58-.48,3.91,3.91,0,0,0-1.44.26,7.67,7.67,0,0,0-1.5.8l-.78-1.58a7.17,7.17,0,0,1,4-1.23,4.49,4.49,0,0,1,3.14,1,3.66,3.66,0,0,1,1.12,2.88v3a1,1,0,0,0,.13.55.63.63,0,0,0,.45.18v2a4.81,4.81,0,0,1-1,.13,1.63,1.63,0,0,1-1.07-.31,1.21,1.21,0,0,1-.47-.81l-.06-.48a4.24,4.24,0,0,1-1.52,1.22,4.49,4.49,0,0,1-1.88.43,3.36,3.36,0,0,1-2.34-.84A2.73,2.73,0,0,1,92,182.27Zm5.88.48a1.26,1.26,0,0,0,.44-.82v-1a4.94,4.94,0,0,0-1.89-.38,2.69,2.69,0,0,0-1.54.41,1.24,1.24,0,0,0-.6,1.07,1.29,1.29,0,0,0,.46,1,1.76,1.76,0,0,0,1.22.41,2.76,2.76,0,0,0,1-.2A2.54,2.54,0,0,0,97.88,182.75Z"/><path class="cls-1" d="M102.85,180.33a5.61,5.61,0,0,1,.54-2.46,4.3,4.3,0,0,1,1.5-1.76,3.8,3.8,0,0,1,2.18-.65,3.58,3.58,0,0,1,1.85.49,3.77,3.77,0,0,1,1.33,1.33v-5.36h2.42v10.44a1,1,0,0,0,.12.55.58.58,0,0,0,.43.18v2a5,5,0,0,1-1,.13,1.79,1.79,0,0,1-1.07-.32,1.17,1.17,0,0,1-.47-.85l0-.59a3.41,3.41,0,0,1-1.4,1.34,4,4,0,0,1-1.88.47,4.28,4.28,0,0,1-2.31-.65,4.42,4.42,0,0,1-1.6-1.77A5.39,5.39,0,0,1,102.85,180.33Zm7.4,1.27v-2.25a2.91,2.91,0,0,0-1-1.31,2.34,2.34,0,0,0-1.42-.53,2.21,2.21,0,0,0-1.77.86,3.09,3.09,0,0,0-.7,2,2.8,2.8,0,0,0,.74,2,2.42,2.42,0,0,0,1.87.8,2.46,2.46,0,0,0,1.37-.45A2.25,2.25,0,0,0,110.25,181.6Z"/><path class="cls-1" d="M118,185.05l-3.48-9.43H117l2.37,7.24,2.4-7.24h2.29l-3.45,9.43Z"/><path class="cls-1" d="M129.85,185.23a5.09,5.09,0,0,1-2.63-.67,4.48,4.48,0,0,1-1.75-1.76,4.91,4.91,0,0,1-.6-2.4,5.16,5.16,0,0,1,.6-2.47,4.52,4.52,0,0,1,1.75-1.8,5.13,5.13,0,0,1,2.64-.67,5.29,5.29,0,0,1,2.06.39,4.42,4.42,0,0,1,1.56,1.07,5,5,0,0,1,1,1.54,5.18,5.18,0,0,1,.34,1.84,4.47,4.47,0,0,1-.06.81h-7.29a2.5,2.5,0,0,0,.81,1.72,2.44,2.44,0,0,0,1.69.64,2.82,2.82,0,0,0,1.37-.35,1.94,1.94,0,0,0,.87-.93l2.06.58a4,4,0,0,1-1.69,1.78A5.27,5.27,0,0,1,129.85,185.23Zm-2.47-5.65h4.93a2.65,2.65,0,0,0-.8-1.72,2.47,2.47,0,0,0-3.35,0A2.52,2.52,0,0,0,127.38,179.58Z"/><path class="cls-1" d="M142.31,177.71a4.58,4.58,0,0,0-2,.44,2.56,2.56,0,0,0-1.23,1.2v5.7h-2.41v-9.43h2.22v2a4.3,4.3,0,0,1,1.28-1.53,2.91,2.91,0,0,1,1.64-.61,4.06,4.06,0,0,1,.48,0Z"/><path class="cls-1" d="M149.76,184.57a6.56,6.56,0,0,1-2.67.64,3.21,3.21,0,0,1-1-.13,2.46,2.46,0,0,1-.77-.4,1.8,1.8,0,0,1-.54-.72,2.92,2.92,0,0,1-.19-1.07v-5.41H143.4v-1.86h1.24v-3.05h2.42v3.05h2v1.86h-2v4.6q0,.93.9.93a3.6,3.6,0,0,0,1.31-.35Z"/><path class="cls-1" d="M151.46,174.31v-2.39h2.41v2.39Zm0,10.74v-9.43h2.41v9.43Z"/><path class="cls-1" d="M160,185.23a6.66,6.66,0,0,1-2.32-.4,5.33,5.33,0,0,1-1.87-1.16l.86-1.57a5.33,5.33,0,0,0,3.24,1.34,2.12,2.12,0,0,0,1.13-.26.85.85,0,0,0,.42-.75,1.25,1.25,0,0,0,0-.21.51.51,0,0,0-.09-.18l-.12-.14a.59.59,0,0,0-.18-.13l-.22-.1a1.8,1.8,0,0,0-.28-.11l-.31-.1-.36-.1-.4-.12c-.46-.15-.84-.28-1.13-.4a5.75,5.75,0,0,1-.87-.41,2.36,2.36,0,0,1-.65-.5,2.1,2.1,0,0,1-.36-.62,2.16,2.16,0,0,1-.14-.83,2.68,2.68,0,0,1,1-2.21,4.32,4.32,0,0,1,2.78-.83,4.94,4.94,0,0,1,3.54,1.34l-1,1.52a4.47,4.47,0,0,0-2.68-1.08,2.2,2.2,0,0,0-1,.23.79.79,0,0,0-.41.75.75.75,0,0,0,.37.69,6.18,6.18,0,0,0,1.34.5c.52.15.94.28,1.24.39a7.57,7.57,0,0,1,.95.41,2.65,2.65,0,0,1,.74.51,2.23,2.23,0,0,1,.4.65,2.29,2.29,0,0,1,.16.9,2.59,2.59,0,0,1-1,2.18A4.34,4.34,0,0,1,160,185.23Z"/><path class="cls-1" d="M165.84,174.31v-2.39h2.41v2.39Zm0,10.74v-9.43h2.41v9.43Z"/><path class="cls-1" d="M179.64,185.05h-2.41v-5.29c0-1.45-.5-2.18-1.49-2.18a2.35,2.35,0,0,0-1.47.57,2.85,2.85,0,0,0-1,1.39v5.51h-2.4v-9.43h2.17v1.75a3.71,3.71,0,0,1,1.53-1.4,4.78,4.78,0,0,1,2.22-.51,3.14,3.14,0,0,1,1.2.21,2.29,2.29,0,0,1,.82.56,2.68,2.68,0,0,1,.5.84,4.72,4.72,0,0,1,.25,1,7.45,7.45,0,0,1,.07,1.1Z"/><path class="cls-1" d="M181.63,180.33a5.42,5.42,0,0,1,.55-2.46,4.37,4.37,0,0,1,1.56-1.76,4.1,4.1,0,0,1,2.28-.65,3.75,3.75,0,0,1,1.9.48,4.16,4.16,0,0,1,1.4,1.34v-1.66h2.11v9a4.16,4.16,0,0,1-.69,2.38,4.23,4.23,0,0,1-1.86,1.55,6.4,6.4,0,0,1-2.69.53,6.09,6.09,0,0,1-2.56-.5,5.12,5.12,0,0,1-1.85-1.47l1.3-1.27a4,4,0,0,0,1.37,1,4.16,4.16,0,0,0,1.74.38,3.49,3.49,0,0,0,1.08-.16,2.77,2.77,0,0,0,.9-.47,2.13,2.13,0,0,0,.62-.83,3.1,3.1,0,0,0,.22-1.18v-1.19a3.2,3.2,0,0,1-1.31,1.24,3.8,3.8,0,0,1-1.82.45,3.93,3.93,0,0,1-2.21-.65,4.39,4.39,0,0,1-1.51-1.74A5.3,5.3,0,0,1,181.63,180.33ZM189,181.6v-2.25a3,3,0,0,0-1-1.33,2.4,2.4,0,0,0-1.45-.51,2.14,2.14,0,0,0-1.76.87,3.16,3.16,0,0,0-.69,2,2.76,2.76,0,0,0,.74,2,2.49,2.49,0,0,0,3.26.35A2.54,2.54,0,0,0,189,181.6Z"/><path class="cls-1" d="M37.05,258.79V250.4l-3.27,6.24H32.39l-3.28-6.24v8.39H26.64V246H29.3l3.78,7.27L36.89,246h2.65v12.78Z"/><path class="cls-1" d="M41.66,254.08a5.13,5.13,0,0,1,.35-1.87,4.85,4.85,0,0,1,1-1.56,4.42,4.42,0,0,1,1.56-1.07,5.37,5.37,0,0,1,2.07-.39,5,5,0,0,1,2.62.68A4.52,4.52,0,0,1,51,251.65a5.14,5.14,0,0,1,.59,2.43,5,5,0,0,1-.35,1.86,5,5,0,0,1-1,1.56,4.42,4.42,0,0,1-1.56,1.07,5.32,5.32,0,0,1-2.06.39,5.22,5.22,0,0,1-1.7-.26,4.5,4.5,0,0,1-1.38-.71,5.18,5.18,0,0,1-1-1.07,4.63,4.63,0,0,1-.65-1.34A5.33,5.33,0,0,1,41.66,254.08Zm5,2.84a2.24,2.24,0,0,0,1.75-.81,3,3,0,0,0,.71-2,2.93,2.93,0,0,0-.71-2,2.33,2.33,0,0,0-3.51,0,3.28,3.28,0,0,0,0,4.06A2.25,2.25,0,0,0,46.62,256.92Z"/><path class="cls-1" d="M55.72,257.15v1.64H53.61V245.65H56V251a3.69,3.69,0,0,1,1.34-1.35,3.85,3.85,0,0,1,1.9-.47,3.62,3.62,0,0,1,2.15.68,4.38,4.38,0,0,1,1.47,1.79,5.87,5.87,0,0,1,.51,2.45,5.31,5.31,0,0,1-.57,2.46,4.48,4.48,0,0,1-1.59,1.75A4.13,4.13,0,0,1,59,259a3.84,3.84,0,0,1-1.91-.48A3.56,3.56,0,0,1,55.72,257.15Zm5.2-3a3.08,3.08,0,0,0-.71-2,2.16,2.16,0,0,0-1.75-.85,2.26,2.26,0,0,0-1.43.51,3.48,3.48,0,0,0-1,1.32v2.25a2.19,2.19,0,0,0,.91,1.14,2.46,2.46,0,0,0,3.25-.37A2.84,2.84,0,0,0,60.92,254.13Z"/><path class="cls-1" d="M65.47,248v-2.39h2.41V248Zm0,10.75v-9.43h2.41v9.43Z"/><path class="cls-1" d="M70.49,245.65H72.9v10.11a1.37,1.37,0,0,0,.2.86.76.76,0,0,0,.61.24,2.69,2.69,0,0,0,1.13-.25l.33,1.83a5.08,5.08,0,0,1-1.12.36,6.54,6.54,0,0,1-1.19.13,2.35,2.35,0,0,1-1.74-.61,2.26,2.26,0,0,1-.63-1.71Z"/><path class="cls-1" d="M81,259a5.12,5.12,0,0,1-2.63-.67,4.48,4.48,0,0,1-1.75-1.76,4.9,4.9,0,0,1-.59-2.4,5.15,5.15,0,0,1,.59-2.47,4.56,4.56,0,0,1,1.75-1.79,5.15,5.15,0,0,1,2.65-.68,5.32,5.32,0,0,1,2.06.39,4.47,4.47,0,0,1,1.55,1.07,4.65,4.65,0,0,1,1,1.54A5,5,0,0,1,86,254a5.61,5.61,0,0,1,0,.81h-7.3a2.47,2.47,0,0,0,2.51,2.36,2.7,2.7,0,0,0,1.36-.35,1.85,1.85,0,0,0,.87-.93l2.07.58a4.17,4.17,0,0,1-1.7,1.79A5.24,5.24,0,0,1,81,259Zm-2.47-5.65H83.5a2.64,2.64,0,0,0-.79-1.72,2.4,2.4,0,0,0-1.69-.65,2.35,2.35,0,0,0-1.67.66A2.58,2.58,0,0,0,78.57,253.31Z"/><path class="cls-1" d="M92,256a2.67,2.67,0,0,1,1.13-2.22,4.76,4.76,0,0,1,2.93-.85,6,6,0,0,1,2.26.38v-.5a1.77,1.77,0,0,0-.53-1.39,2.28,2.28,0,0,0-1.58-.48,3.91,3.91,0,0,0-1.44.26,7.67,7.67,0,0,0-1.5.8l-.78-1.58a7.17,7.17,0,0,1,4-1.23,4.54,4.54,0,0,1,3.14,1,3.66,3.66,0,0,1,1.12,2.88v3a.94.94,0,0,0,.13.55.63.63,0,0,0,.45.19v2a5.43,5.43,0,0,1-1,.12,1.68,1.68,0,0,1-1.07-.3,1.25,1.25,0,0,1-.47-.82l-.06-.48a4.13,4.13,0,0,1-1.52,1.22,4.34,4.34,0,0,1-1.88.43,3.36,3.36,0,0,1-2.34-.84A2.72,2.72,0,0,1,92,256Zm5.88.48a1.26,1.26,0,0,0,.44-.82v-1a4.94,4.94,0,0,0-1.89-.38,2.69,2.69,0,0,0-1.54.41,1.24,1.24,0,0,0-.6,1.07,1.29,1.29,0,0,0,.46,1,1.72,1.72,0,0,0,1.22.41,3,3,0,0,0,1-.19A2.55,2.55,0,0,0,97.88,256.48Z"/><path class="cls-1" d="M102.85,254.07a5.55,5.55,0,0,1,.54-2.46,4.27,4.27,0,0,1,1.5-1.77,3.88,3.88,0,0,1,2.18-.65,3.5,3.5,0,0,1,1.85.5,3.74,3.74,0,0,1,1.33,1.32v-5.36h2.42v10.44a1,1,0,0,0,.12.55.58.58,0,0,0,.43.19v2a5.61,5.61,0,0,1-1,.12,1.79,1.79,0,0,1-1.07-.32,1.15,1.15,0,0,1-.47-.85l0-.59a3.41,3.41,0,0,1-1.4,1.34,3.86,3.86,0,0,1-1.88.47,4.2,4.2,0,0,1-2.31-.65,4.42,4.42,0,0,1-1.6-1.77A5.38,5.38,0,0,1,102.85,254.07Zm7.4,1.26v-2.25a2.91,2.91,0,0,0-1-1.31,2.33,2.33,0,0,0-1.42-.52,2.2,2.2,0,0,0-1.77.85,3.09,3.09,0,0,0-.7,2,2.8,2.8,0,0,0,.74,2,2.42,2.42,0,0,0,1.87.81,2.47,2.47,0,0,0,1.37-.46A2.25,2.25,0,0,0,110.25,255.33Z"/><path class="cls-1" d="M118,258.79l-3.48-9.43H117l2.37,7.23,2.4-7.23h2.29l-3.45,9.43Z"/><path class="cls-1" d="M129.85,259a5.09,5.09,0,0,1-2.63-.67,4.48,4.48,0,0,1-1.75-1.76,4.91,4.91,0,0,1-.6-2.4,5.16,5.16,0,0,1,.6-2.47,4.56,4.56,0,0,1,1.75-1.79,5.14,5.14,0,0,1,2.64-.68,5.29,5.29,0,0,1,2.06.39,4.42,4.42,0,0,1,1.56,1.07,5,5,0,0,1,1,1.54,5.18,5.18,0,0,1,.34,1.84,4.32,4.32,0,0,1-.06.81h-7.29a2.48,2.48,0,0,0,.81,1.72,2.44,2.44,0,0,0,1.69.64,2.71,2.71,0,0,0,1.37-.35,1.94,1.94,0,0,0,.87-.93l2.06.58a4.09,4.09,0,0,1-1.69,1.79A5.27,5.27,0,0,1,129.85,259Zm-2.47-5.65h4.93a2.65,2.65,0,0,0-.8-1.72,2.37,2.37,0,0,0-1.68-.65,2.33,2.33,0,0,0-1.67.66A2.54,2.54,0,0,0,127.38,253.31Z"/><path class="cls-1" d="M142.31,251.44a4.58,4.58,0,0,0-2,.44,2.56,2.56,0,0,0-1.23,1.2v5.71h-2.41v-9.43h2.22v2a4.3,4.3,0,0,1,1.28-1.53,3,3,0,0,1,1.64-.61,4.06,4.06,0,0,1,.48,0Z"/><path class="cls-1" d="M149.76,258.3a6.56,6.56,0,0,1-2.67.64,3.21,3.21,0,0,1-1-.13,2.27,2.27,0,0,1-.77-.4,1.8,1.8,0,0,1-.54-.72,2.92,2.92,0,0,1-.19-1.07v-5.41H143.4v-1.85h1.24V246.3h2.42v3.06h2v1.85h-2v4.61c0,.61.32.92.9.92a3.76,3.76,0,0,0,1.31-.34Z"/><path class="cls-1" d="M151.46,248v-2.39h2.41V248Zm0,10.75v-9.43h2.41v9.43Z"/><path class="cls-1" d="M160,259a6.66,6.66,0,0,1-2.32-.4,5.33,5.33,0,0,1-1.87-1.16l.86-1.57a5.33,5.33,0,0,0,3.24,1.34,2.12,2.12,0,0,0,1.13-.26.82.82,0,0,0,.42-.75,1.25,1.25,0,0,0,0-.21.4.4,0,0,0-.09-.17,1,1,0,0,0-.12-.15.59.59,0,0,0-.18-.13l-.22-.1-.28-.11-.31-.09-.36-.11-.4-.12c-.46-.14-.84-.28-1.13-.39a7,7,0,0,1-.87-.42,2.36,2.36,0,0,1-.65-.5,2,2,0,0,1-.36-.62,2.16,2.16,0,0,1-.14-.83,2.69,2.69,0,0,1,1-2.21,4.38,4.38,0,0,1,2.78-.83,5,5,0,0,1,3.54,1.34l-1,1.53A4.47,4.47,0,0,0,160,251a2.21,2.21,0,0,0-1,.22.8.8,0,0,0-.41.75.75.75,0,0,0,.37.69,5.69,5.69,0,0,0,1.34.5c.52.15.94.28,1.24.39a7.57,7.57,0,0,1,.95.41,2.65,2.65,0,0,1,.74.51,2.15,2.15,0,0,1,.4.66,2.21,2.21,0,0,1,.16.89,2.62,2.62,0,0,1-1,2.19A4.39,4.39,0,0,1,160,259Z"/><path class="cls-1" d="M165.84,248v-2.39h2.41V248Zm0,10.75v-9.43h2.41v9.43Z"/><path class="cls-1" d="M179.64,258.79h-2.41V253.5c0-1.46-.5-2.18-1.49-2.18a2.34,2.34,0,0,0-1.47.56,2.83,2.83,0,0,0-1,1.4v5.51h-2.4v-9.43h2.17v1.74a3.71,3.71,0,0,1,1.53-1.4,4.78,4.78,0,0,1,2.22-.51,3.14,3.14,0,0,1,1.2.21,2.29,2.29,0,0,1,.82.56,2.62,2.62,0,0,1,.5.85,4.49,4.49,0,0,1,.25,1,7.45,7.45,0,0,1,.07,1.1Z"/><path class="cls-1" d="M181.63,254.07a5.46,5.46,0,0,1,.55-2.47,4.37,4.37,0,0,1,1.56-1.76,4.18,4.18,0,0,1,2.28-.65,3.75,3.75,0,0,1,1.9.48,4.26,4.26,0,0,1,1.4,1.34v-1.65h2.11v9a4.14,4.14,0,0,1-.69,2.38,4.26,4.26,0,0,1-1.86,1.56,6.55,6.55,0,0,1-2.69.52,5.94,5.94,0,0,1-2.56-.5,5.12,5.12,0,0,1-1.85-1.47l1.3-1.27a3.84,3.84,0,0,0,1.37,1,4,4,0,0,0,1.74.38,3.81,3.81,0,0,0,1.08-.15,3.22,3.22,0,0,0,.9-.47,2.25,2.25,0,0,0,.62-.84,3.1,3.1,0,0,0,.22-1.18v-1.19a3.29,3.29,0,0,1-1.31,1.25,4,4,0,0,1-4-.21,4.39,4.39,0,0,1-1.51-1.74A5.29,5.29,0,0,1,181.63,254.07Zm7.38,1.26v-2.25a3,3,0,0,0-1-1.33,2.45,2.45,0,0,0-1.45-.5,2.13,2.13,0,0,0-1.76.86,3.19,3.19,0,0,0-.69,2,2.75,2.75,0,0,0,.74,2,2.46,2.46,0,0,0,3.26.35A2.54,2.54,0,0,0,189,255.33Z"/><path class="cls-3" d="M236.75,291.13a1.34,1.34,0,0,1-1.35-1.34V1.34a1.35,1.35,0,0,1,2.69,0V289.79A1.34,1.34,0,0,1,236.75,291.13Z"/><path class="cls-1" d="M640,356.94a9.39,9.39,0,0,1-4-.82,6.33,6.33,0,0,1-2.75-2.3l2.95-3.37A6.2,6.2,0,0,0,638,351.8a4.51,4.51,0,0,0,2,.49,2.3,2.3,0,0,0,1.65-.57,1.94,1.94,0,0,0,.6-1.5,2,2,0,0,0-.55-1.48,1.86,1.86,0,0,0-1.42-.57,2.29,2.29,0,0,0-1.09.27,1.92,1.92,0,0,0-.77.72h-4.63l2.36-12.38,10.14,0v4.84H640l-.3,2.16a4.71,4.71,0,0,1,1.3-.14,6.72,6.72,0,0,1,4.85,1.8,6.13,6.13,0,0,1,1.89,4.65A6.2,6.2,0,0,1,645.6,355,8.31,8.31,0,0,1,640,356.94Z"/><path class="cls-1" d="M658.79,341.57l-7.72,0,0-4.84,16.24,0-9.84,19.9-6.12,0Z"/><path class="cls-1" d="M668.5,356.61v-5.15h4.4v5.15Z"/><path class="cls-1" d="M683.05,356.71a10.38,10.38,0,0,1-6.94-2.22l2.76-3.87a6.11,6.11,0,0,0,3.87,1.22,4,4,0,0,0,2.13-.44,1.54,1.54,0,0,0,.67-1.38,1.61,1.61,0,0,0-.87-1.52,6.06,6.06,0,0,0-2.79-.47H681v-3.69h1a4.06,4.06,0,0,0,2.19-.53,1.61,1.61,0,0,0,.82-1.41,1.26,1.26,0,0,0-.49-1.06,2.18,2.18,0,0,0-1.36-.37,4,4,0,0,0-3.39,2L676.32,339a7.1,7.1,0,0,1,3.07-1.83,13.66,13.66,0,0,1,4.37-.71,8.75,8.75,0,0,1,5.11,1.34,4.16,4.16,0,0,1,1.94,3.57,4.5,4.5,0,0,1-1,3,4.32,4.32,0,0,1-2.63,1.61,4.54,4.54,0,0,1,2.88,1.7,5.19,5.19,0,0,1,1.13,3.32,4.85,4.85,0,0,1-2.17,4.19A10.15,10.15,0,0,1,683.05,356.71Z"/><path class="cls-1" d="M696,343.94a4.1,4.1,0,0,1,0-6.28,5.23,5.23,0,0,1,3.59-1.3,5.3,5.3,0,0,1,3.61,1.28,4.09,4.09,0,0,1,0,6.28,5.68,5.68,0,0,1-7.21,0Zm1,10.78,8-9,7.13-9.47,2.37,2.1-7.7,8.67-7.46,9.73Zm3.6-12.59a2.42,2.42,0,0,0,0-2.68,1.1,1.1,0,0,0-1.92,0,2.42,2.42,0,0,0,0,2.68,1.15,1.15,0,0,0,1,.56A1.18,1.18,0,0,0,700.52,342.13Zm7.7,13.36a4.08,4.08,0,0,1,0-6.27,5.68,5.68,0,0,1,7.21,0,4,4,0,0,1,1.47,3.14,4,4,0,0,1-1.46,3.13,5.67,5.67,0,0,1-7.2,0Zm4.56-1.8a2.42,2.42,0,0,0,0-2.68,1.1,1.1,0,0,0-1.92,0,2.18,2.18,0,0,0-.41,1.34,2.22,2.22,0,0,0,.41,1.34,1.11,1.11,0,0,0,1.93,0Z"/><path class="cls-1" d="M570,428.49v-3.82l-7.34,0v-4.76l9-11.33h3.71l0,11.31h2.5v4.76h-2.5v3.81Zm-2-8.57h2.63v-3.35Z"/><path class="cls-1" d="M594.5,417.06a6.1,6.1,0,0,1,2,4.65,6.6,6.6,0,0,1-2.16,5,7.64,7.64,0,0,1-5.39,2,6.72,6.72,0,0,1-5.63-2.56q-2-2.56-2-7.21a12.37,12.37,0,0,1,2.15-7.73,7.13,7.13,0,0,1,6-2.82,8.86,8.86,0,0,1,6.44,2.66l-3,3.43a4.94,4.94,0,0,0-3.54-1.5,2.91,2.91,0,0,0-2.2.84,3.51,3.51,0,0,0-.87,2.33,4.57,4.57,0,0,1,3.07-1A7.24,7.24,0,0,1,594.5,417.06Zm-7.21,6.47a2.25,2.25,0,0,0,3.38,0,2.5,2.5,0,0,0,.73-1.79,2.22,2.22,0,0,0-.72-1.67,2.39,2.39,0,0,0-1.71-.68,2.44,2.44,0,0,0-1.71.69,2.21,2.21,0,0,0-.7,1.67A2.49,2.49,0,0,0,587.29,423.53Z"/><path class="cls-1" d="M600.32,428.43v-5.15l4.4,0v5.16Z"/><path class="cls-1" d="M614.87,428.53a10.39,10.39,0,0,1-6.94-2.23l2.76-3.86a6.11,6.11,0,0,0,3.87,1.22,4,4,0,0,0,2.12-.44,1.54,1.54,0,0,0,.68-1.38,1.63,1.63,0,0,0-.87-1.53,6.2,6.2,0,0,0-2.78-.46h-.9v-3.69h1a4,4,0,0,0,2.19-.54,1.58,1.58,0,0,0,.82-1.4,1.26,1.26,0,0,0-.49-1.06,2.18,2.18,0,0,0-1.36-.37,4,4,0,0,0-3.39,2l-3.44-3.94a7.1,7.1,0,0,1,3.07-1.83,13.66,13.66,0,0,1,4.37-.71,8.75,8.75,0,0,1,5.11,1.34,4.16,4.16,0,0,1,1.94,3.56,4.51,4.51,0,0,1-1,3,4.32,4.32,0,0,1-2.63,1.61,4.57,4.57,0,0,1,2.88,1.69,5.24,5.24,0,0,1,1.13,3.33A4.85,4.85,0,0,1,620.8,427,10.15,10.15,0,0,1,614.87,428.53Z"/><path class="cls-1" d="M627.79,415.76a4.09,4.09,0,0,1,0-6.28,5.23,5.23,0,0,1,3.59-1.3,5.3,5.3,0,0,1,3.61,1.28,4.09,4.09,0,0,1,0,6.28,5.67,5.67,0,0,1-7.2,0Zm1,10.78,8-9,7.13-9.46,2.37,2.1-7.7,8.67-7.46,9.73Zm3.6-12.59a2.42,2.42,0,0,0,0-2.68,1.15,1.15,0,0,0-1-.56,1.18,1.18,0,0,0-1,.56,2.42,2.42,0,0,0,0,2.68,1.15,1.15,0,0,0,1,.56A1.18,1.18,0,0,0,632.34,414Zm7.7,13.36a4.08,4.08,0,0,1,0-6.27,5.68,5.68,0,0,1,7.21,0,4,4,0,0,1,1.47,3.14,4,4,0,0,1-1.46,3.13,5.67,5.67,0,0,1-7.2,0Zm4.56-1.8a2.42,2.42,0,0,0,0-2.68,1.1,1.1,0,0,0-1.92,0,2.18,2.18,0,0,0-.41,1.34,2.22,2.22,0,0,0,.41,1.34,1.11,1.11,0,0,0,1.93,0Z"/><path class="cls-1" d="M549.53,500.62V496.8l-7.34,0v-4.76l9-11.33h3.71l0,11.31h2.5v4.76h-2.5v3.81Zm-2-8.57h2.63v-3.35Z"/><path class="cls-1" d="M567.21,500.73a10.37,10.37,0,0,1-6.93-2.22l2.76-3.86a6.23,6.23,0,0,0,3.87,1.22,4,4,0,0,0,2.12-.45,1.52,1.52,0,0,0,.67-1.38,1.6,1.6,0,0,0-.87-1.52,6,6,0,0,0-2.78-.47h-.89v-3.7h1a4,4,0,0,0,2.19-.53,1.61,1.61,0,0,0,.83-1.41,1.26,1.26,0,0,0-.49-1.05,2.15,2.15,0,0,0-1.37-.37,4,4,0,0,0-3.39,2L560.49,483a7,7,0,0,1,3.06-1.83,13.76,13.76,0,0,1,4.38-.7,8.8,8.8,0,0,1,5.11,1.33A4.16,4.16,0,0,1,575,485.4a4.6,4.6,0,0,1-1,3,4.32,4.32,0,0,1-2.64,1.6,4.58,4.58,0,0,1,2.88,1.7,5.14,5.14,0,0,1,1.13,3.33,4.84,4.84,0,0,1-2.16,4.18A10.09,10.09,0,0,1,567.21,500.73Z"/><path class="cls-1" d="M579.17,500.56v-5.15h4.39l0,5.15Z"/><path class="cls-1" d="M593.71,500.66a10.37,10.37,0,0,1-6.93-2.22l2.76-3.87a6.11,6.11,0,0,0,3.87,1.22,4,4,0,0,0,2.12-.44,1.52,1.52,0,0,0,.67-1.38,1.61,1.61,0,0,0-.87-1.53,6.17,6.17,0,0,0-2.78-.46h-.89v-3.69h1a4,4,0,0,0,2.19-.53,1.61,1.61,0,0,0,.83-1.41,1.28,1.28,0,0,0-.49-1.06,2.28,2.28,0,0,0-1.37-.37,4,4,0,0,0-3.39,2L587,483a7,7,0,0,1,3.06-1.83,13.77,13.77,0,0,1,4.38-.71,8.8,8.8,0,0,1,5.11,1.34,4.16,4.16,0,0,1,1.94,3.57,4.6,4.6,0,0,1-1,3,4.37,4.37,0,0,1-2.64,1.6,4.54,4.54,0,0,1,2.88,1.7,5.14,5.14,0,0,1,1.13,3.32,4.84,4.84,0,0,1-2.16,4.19A10.16,10.16,0,0,1,593.71,500.66Z"/><path class="cls-1" d="M606.63,487.89a4.09,4.09,0,0,1,0-6.28,5.67,5.67,0,0,1,7.2,0,4.07,4.07,0,0,1,0,6.28,5.67,5.67,0,0,1-7.2,0Zm1,10.78,8-8.95,7.13-9.47,2.37,2.1-7.7,8.67L610,500.75Zm3.59-12.59a2.44,2.44,0,0,0,0-2.68,1.19,1.19,0,0,0-1-.56,1.15,1.15,0,0,0-1,.56,2.44,2.44,0,0,0,0,2.68,1.1,1.1,0,0,0,1.92,0Zm7.71,13.36a4,4,0,0,1-1.49-3.12,4.05,4.05,0,0,1,1.47-3.15,5.67,5.67,0,0,1,7.2,0,4.07,4.07,0,0,1,1.48,3.14,4,4,0,0,1-1.46,3.13,5.67,5.67,0,0,1-7.2,0Zm4.56-1.8a2.31,2.31,0,0,0,.4-1.34,2.22,2.22,0,0,0-.41-1.34,1.18,1.18,0,0,0-1-.56,1.19,1.19,0,0,0-1,.56,2.27,2.27,0,0,0-.41,1.35,2.2,2.2,0,0,0,.42,1.33,1.11,1.11,0,0,0,1.93,0Z"/><path class="cls-1" d="M547.65,575.37v-3.81l-7.33,0v-4.76l9-11.33H553l0,11.3h2.51v4.75h-2.51l0,3.81Zm-2-8.57h2.63v-3.35Z"/><path class="cls-1" d="M558.93,575.37q0-1.53.06-2.52a11.61,11.61,0,0,1,.29-2,5.13,5.13,0,0,1,.65-1.65,6.64,6.64,0,0,1,1.11-1.33,10.63,10.63,0,0,1,1.73-1.27L564,566l1.27-.7a12.29,12.29,0,0,0,1.14-.73,6.69,6.69,0,0,0,1-.83,4,4,0,0,0,.64-.94,2.58,2.58,0,0,0,.26-1.11,1.56,1.56,0,0,0-.53-1.3,2.16,2.16,0,0,0-1.34-.41,4.7,4.7,0,0,0-2.17.59,9.1,9.1,0,0,0-2,1.43l-3.33-3.54a9.12,9.12,0,0,1,3.42-2.27,12.83,12.83,0,0,1,4.87-.91,8,8,0,0,1,5.35,1.59,5.49,5.49,0,0,1,1.93,4.43,6.15,6.15,0,0,1-1,3.55,9.89,9.89,0,0,1-3,2.74c-2.31,1.43-3.86,2.44-4.67,3l8.73,0v4.75Z"/><path class="cls-1" d="M578.58,575.31l0-5.15H583v5.15Z"/><path class="cls-1" d="M599.91,563.87a6,6,0,0,1,2,4.65,6.51,6.51,0,0,1-2.15,5,7.59,7.59,0,0,1-5.4,2,6.69,6.69,0,0,1-5.63-2.55q-2-2.57-2-7.22a12.34,12.34,0,0,1,2.15-7.72,7.17,7.17,0,0,1,6-2.83,8.93,8.93,0,0,1,6.44,2.67l-3,3.42a4.9,4.9,0,0,0-3.54-1.49,2.89,2.89,0,0,0-2.19.84,3.41,3.41,0,0,0-.87,2.33,4.5,4.5,0,0,1,3.07-1A7.23,7.23,0,0,1,599.91,563.87Zm-7.21,6.47a2.25,2.25,0,0,0,3.38,0,2.49,2.49,0,0,0,.72-1.79,2.21,2.21,0,0,0-.71-1.67,2.4,2.4,0,0,0-1.71-.68,2.35,2.35,0,0,0-1.71.69,2.24,2.24,0,0,0-.71,1.67A2.51,2.51,0,0,0,592.7,570.34Z"/><path class="cls-1" d="M606.69,562.64a4.09,4.09,0,0,1,0-6.28,5.68,5.68,0,0,1,7.21,0,4.08,4.08,0,0,1,0,6.28,5.67,5.67,0,0,1-7.2,0Zm1,10.78,8-9,7.13-9.46,2.37,2.1-7.7,8.67L610,575.5Zm3.59-12.59a2.26,2.26,0,0,0,.4-1.34,2.22,2.22,0,0,0-.4-1.34,1.1,1.1,0,0,0-1.92,0,2.17,2.17,0,0,0-.4,1.34,2.22,2.22,0,0,0,.4,1.34,1.1,1.1,0,0,0,1.92,0ZM619,574.19a4.06,4.06,0,0,1,0-6.27,5.67,5.67,0,0,1,7.2,0,4.08,4.08,0,0,1,0,6.27,5.67,5.67,0,0,1-7.2,0Zm4.56-1.8a2.42,2.42,0,0,0,0-2.68,1.15,1.15,0,0,0-1-.56,1.19,1.19,0,0,0-1,.56,2.42,2.42,0,0,0,0,2.68,1.11,1.11,0,0,0,1.93,0Z"/><polygon class="cls-1" points="612.22 371.87 236.75 371.87 236.75 324.96 612.22 324.96 612.22 324.97 612.22 371.87"/><polygon class="cls-1" points="520.48 514.89 236.75 514.89 236.75 467.98 520.48 467.98 520.48 514.89 520.48 514.89"/><polygon class="cls-1" points="540.14 443.38 236.75 443.38 236.75 396.48 540.14 396.48 540.14 396.48 540.14 443.38"/><polygon class="cls-1" points="515.9 586.4 236.75 586.4 236.75 539.49 236.75 539.49 515.9 539.49 515.9 586.4"/><path class="cls-1" d="M38.07,353.75V341h5.41a3.63,3.63,0,0,1,1.62.37,4,4,0,0,1,1.3,1,4.43,4.43,0,0,1,.84,1.36,4,4,0,0,1,.31,1.55,4.44,4.44,0,0,1-.49,2.06,4.07,4.07,0,0,1-1.42,1.58,3.67,3.67,0,0,1-2.07.61h-3v4.28Zm2.48-6.46h2.88a1.42,1.42,0,0,0,1.15-.57,2.35,2.35,0,0,0,.45-1.5,2.14,2.14,0,0,0-.51-1.51,1.56,1.56,0,0,0-1.2-.56H40.55Z"/><path class="cls-1" d="M55.1,346.4a4.58,4.58,0,0,0-2,.44,2.54,2.54,0,0,0-1.23,1.21v5.7h-2.4v-9.43H51.7v2A4.4,4.4,0,0,1,53,344.8a2.9,2.9,0,0,1,1.64-.6h.48Z"/><path class="cls-1" d="M56.18,349.05a4.9,4.9,0,0,1,.35-1.87,4.78,4.78,0,0,1,1-1.56,4.42,4.42,0,0,1,1.57-1.07,5.18,5.18,0,0,1,2.06-.4,5.07,5.07,0,0,1,2.63.68,4.54,4.54,0,0,1,1.72,1.79,5.33,5.33,0,0,1,.24,4.29,4.93,4.93,0,0,1-1,1.55,4.29,4.29,0,0,1-1.56,1.07,5.38,5.38,0,0,1-2.07.4,5.44,5.44,0,0,1-1.69-.26,4.75,4.75,0,0,1-1.38-.72,4.94,4.94,0,0,1-1-1.07,4.57,4.57,0,0,1-.65-1.33A5.43,5.43,0,0,1,56.18,349.05Zm5,2.83a2.24,2.24,0,0,0,1.76-.81,3,3,0,0,0,.7-2,2.94,2.94,0,0,0-.7-2,2.26,2.26,0,0,0-1.76-.8,2.24,2.24,0,0,0-1.75.81,2.93,2.93,0,0,0-.72,2,3,3,0,0,0,.71,2A2.26,2.26,0,0,0,61.13,351.88Z"/><path class="cls-1" d="M67.57,349a5.42,5.42,0,0,1,.55-2.46,4.35,4.35,0,0,1,1.57-1.77,4.12,4.12,0,0,1,2.27-.65,3.66,3.66,0,0,1,1.9.49,4.13,4.13,0,0,1,1.4,1.33v-1.65h2.11v9a4.26,4.26,0,0,1-.68,2.39,4.32,4.32,0,0,1-1.87,1.55,6.52,6.52,0,0,1-2.69.53,6,6,0,0,1-2.55-.5,5.37,5.37,0,0,1-1.86-1.47L69,354.52a3.94,3.94,0,0,0,1.36,1.05,4.16,4.16,0,0,0,1.74.38,3.71,3.71,0,0,0,1.08-.16,3,3,0,0,0,.9-.47,2.19,2.19,0,0,0,.62-.83A3,3,0,0,0,75,353.3v-1.18a3.26,3.26,0,0,1-1.31,1.24,3.8,3.8,0,0,1-1.82.44,3.85,3.85,0,0,1-2.21-.65,4.26,4.26,0,0,1-1.51-1.74A5.39,5.39,0,0,1,67.57,349ZM75,350.3v-2.25a2.91,2.91,0,0,0-1-1.33,2.4,2.4,0,0,0-1.45-.51,2.16,2.16,0,0,0-1.76.87,3.14,3.14,0,0,0-.69,2,2.78,2.78,0,0,0,.75,2,2.42,2.42,0,0,0,1.84.8,2.35,2.35,0,0,0,1.41-.46A2.45,2.45,0,0,0,75,350.3Z"/><path class="cls-1" d="M85.61,346.4a4.66,4.66,0,0,0-2,.44,2.48,2.48,0,0,0-1.22,1.21v5.7H80v-9.43H82.2v2a4.4,4.4,0,0,1,1.28-1.53,2.92,2.92,0,0,1,1.64-.6h.49Z"/><path class="cls-1" d="M86.7,351a2.63,2.63,0,0,1,1.12-2.21,4.72,4.72,0,0,1,2.93-.85,6,6,0,0,1,2.27.37v-.5a1.82,1.82,0,0,0-.53-1.39,2.31,2.31,0,0,0-1.58-.48,4,4,0,0,0-1.44.26A7.72,7.72,0,0,0,88,347l-.78-1.58a7.19,7.19,0,0,1,4-1.23,4.52,4.52,0,0,1,3.14,1,3.69,3.69,0,0,1,1.12,2.89v3a.87.87,0,0,0,.14.55.59.59,0,0,0,.44.19v2a5.34,5.34,0,0,1-1,.12,1.71,1.71,0,0,1-1.08-.3,1.29,1.29,0,0,1-.47-.81l-.05-.49a4.25,4.25,0,0,1-1.53,1.22,4.34,4.34,0,0,1-1.87.44,3.37,3.37,0,0,1-2.35-.85A2.74,2.74,0,0,1,86.7,351Zm5.87.49a1.26,1.26,0,0,0,.45-.83v-1a5,5,0,0,0-1.89-.37,2.7,2.7,0,0,0-1.55.4,1.25,1.25,0,0,0-.6,1.07,1.29,1.29,0,0,0,.46,1,1.72,1.72,0,0,0,1.22.42,2.92,2.92,0,0,0,1-.2A2.7,2.7,0,0,0,92.57,351.45Z"/><path class="cls-1" d="M112.78,353.75h-2.41v-5.29a2.9,2.9,0,0,0-.38-1.64,1.23,1.23,0,0,0-1.08-.54,2,2,0,0,0-1.35.55,3.08,3.08,0,0,0-.9,1.43v5.49h-2.42v-5.29c0-1.45-.48-2.18-1.46-2.18a2.08,2.08,0,0,0-1.35.54,3,3,0,0,0-.9,1.42v5.51H98.12v-9.43h2.18v1.75a3.85,3.85,0,0,1,1.44-1.42,4.28,4.28,0,0,1,2.07-.5,2.72,2.72,0,0,1,1.79.56,2.4,2.4,0,0,1,.87,1.45,4.12,4.12,0,0,1,1.47-1.49,4,4,0,0,1,2-.52c1.88,0,2.83,1.24,2.83,3.71Z"/><path class="cls-1" d="M130,353.75h-2.41v-5.29a2.9,2.9,0,0,0-.38-1.64,1.23,1.23,0,0,0-1.08-.54,2,2,0,0,0-1.35.55,3.08,3.08,0,0,0-.9,1.43v5.49h-2.42v-5.29c0-1.45-.48-2.18-1.45-2.18a2,2,0,0,0-1.35.54,2.9,2.9,0,0,0-.9,1.42v5.51h-2.41v-9.43h2.18v1.75a3.75,3.75,0,0,1,1.43-1.42,4.28,4.28,0,0,1,2.07-.5,2.75,2.75,0,0,1,1.8.56,2.5,2.5,0,0,1,.87,1.45,4,4,0,0,1,1.46-1.49,4,4,0,0,1,2-.52q2.83,0,2.83,3.71Z"/><path class="cls-1" d="M131.88,351a2.63,2.63,0,0,1,1.12-2.21,4.72,4.72,0,0,1,2.93-.85,6,6,0,0,1,2.27.37v-.5a1.82,1.82,0,0,0-.53-1.39,2.3,2.3,0,0,0-1.58-.48,4,4,0,0,0-1.44.26,7.72,7.72,0,0,0-1.51.8l-.78-1.58a7.19,7.19,0,0,1,4-1.23,4.52,4.52,0,0,1,3.14,1,3.7,3.7,0,0,1,1.13,2.89v3a.87.87,0,0,0,.13.55.61.61,0,0,0,.45.19v2a5.52,5.52,0,0,1-1,.12,1.71,1.71,0,0,1-1.08-.3,1.29,1.29,0,0,1-.47-.81l-.05-.49a4.25,4.25,0,0,1-1.53,1.22,4.34,4.34,0,0,1-1.87.44,3.37,3.37,0,0,1-2.35-.85A2.74,2.74,0,0,1,131.88,351Zm5.87.49a1.26,1.26,0,0,0,.45-.83v-1a5,5,0,0,0-1.89-.37,2.7,2.7,0,0,0-1.55.4,1.25,1.25,0,0,0-.6,1.07,1.32,1.32,0,0,0,.46,1,1.72,1.72,0,0,0,1.22.42,2.92,2.92,0,0,0,1-.2A2.7,2.7,0,0,0,137.75,351.45Z"/><path class="cls-1" d="M148.87,353.27a6.73,6.73,0,0,1-2.66.64,3.46,3.46,0,0,1-1-.13,2.4,2.4,0,0,1-.78-.4,1.75,1.75,0,0,1-.53-.73,2.67,2.67,0,0,1-.2-1.06v-5.42h-1.24v-1.85h1.24v-3.06h2.42v3.06h2v1.85h-2v4.61c0,.61.32.92.9.92a3.55,3.55,0,0,0,1.32-.34Z"/><path class="cls-1" d="M150.58,343v-2.39H153V343Zm0,10.75v-9.43H153v9.43Z"/><path class="cls-1" d="M160,353.93a5.41,5.41,0,0,1-2.07-.4,4.62,4.62,0,0,1-1.58-1.08,4.94,4.94,0,0,1-1-1.56A4.88,4.88,0,0,1,155,349a5,5,0,0,1,.59-2.43,4.62,4.62,0,0,1,1.74-1.77,5.14,5.14,0,0,1,2.64-.68,5.07,5.07,0,0,1,2.6.65,4.22,4.22,0,0,1,1.66,1.77l-2.35.72a2,2,0,0,0-.81-.79,2.15,2.15,0,0,0-1.12-.29,2.26,2.26,0,0,0-1.76.79,2.94,2.94,0,0,0-.71,2,3,3,0,0,0,.72,2,2.28,2.28,0,0,0,1.75.81,2.33,2.33,0,0,0,1.19-.32,1.74,1.74,0,0,0,.77-.8l2.36.72a3.88,3.88,0,0,1-1.64,1.77A5,5,0,0,1,160,353.93Z"/><path class="cls-1" d="M180.25,343.15h-4.08v10.6h-2.46v-10.6h-4.09V341h10.63Z"/><path class="cls-1" d="M183.59,341l3.46,9.83,3.42-9.83h2.61l-4.84,12.78h-2.4L181,341Z"/><path class="cls-1" d="M84.8,411.7a5.88,5.88,0,0,1,3,.76,4.71,4.71,0,0,1,2,2l-1.92,1.32a2.94,2.94,0,0,0-.85-1.13,3.11,3.11,0,0,0-1.1-.61,4.21,4.21,0,0,0-1.18-.17,3.48,3.48,0,0,0-1.62.37,3.33,3.33,0,0,0-1.17,1,5,5,0,0,0-.68,1.36,5,5,0,0,0,.23,3.64,3.92,3.92,0,0,0,1.34,1.59,3.26,3.26,0,0,0,1.94.61,3.77,3.77,0,0,0,1.2-.19,3.22,3.22,0,0,0,1.13-.64,2.83,2.83,0,0,0,.82-1.11l2,1.17a3.93,3.93,0,0,1-1.24,1.6,6.1,6.1,0,0,1-1.91,1,6.89,6.89,0,0,1-2.1.34,5.75,5.75,0,0,1-3.76-1.39,7.61,7.61,0,0,1-1.3-1.47,6.91,6.91,0,0,1-.85-1.8,6.74,6.74,0,0,1-.29-1.93,6.44,6.44,0,0,1,.44-2.31,7,7,0,0,1,1.21-2,5.89,5.89,0,0,1,2-1.46A6.29,6.29,0,0,1,84.8,411.7Z"/><path class="cls-1" d="M97.45,417.2a4.73,4.73,0,0,0-2,.44,2.52,2.52,0,0,0-1.22,1.21v5.7H91.84v-9.43h2.21v2a4.59,4.59,0,0,1,1.28-1.53A2.92,2.92,0,0,1,97,415a2.59,2.59,0,0,1,.48,0Z"/><path class="cls-1" d="M98.53,419.85a4.9,4.9,0,0,1,.35-1.87,5,5,0,0,1,1-1.56,4.42,4.42,0,0,1,1.57-1.07,5.36,5.36,0,0,1,2.06-.4,5,5,0,0,1,2.63.69,4.45,4.45,0,0,1,1.72,1.78,5.22,5.22,0,0,1,.24,4.29,4.82,4.82,0,0,1-1,1.55,4.29,4.29,0,0,1-1.56,1.07,5.2,5.2,0,0,1-2.07.4,5.49,5.49,0,0,1-1.69-.26,4.31,4.31,0,0,1-1.38-.72,4.94,4.94,0,0,1-1-1.07,4.57,4.57,0,0,1-.65-1.33A5.38,5.38,0,0,1,98.53,419.85Zm5,2.83a2.24,2.24,0,0,0,1.76-.81,3,3,0,0,0,.71-2,3,3,0,0,0-.71-2,2.26,2.26,0,0,0-1.76-.8,2.24,2.24,0,0,0-1.75.81,3.24,3.24,0,0,0,0,4.06A2.26,2.26,0,0,0,103.48,422.68Z"/><path class="cls-1" d="M114,424.73a6.71,6.71,0,0,1-2.32-.41,5.19,5.19,0,0,1-1.87-1.16l.86-1.56a5.31,5.31,0,0,0,3.25,1.33,2,2,0,0,0,1.12-.26.82.82,0,0,0,.42-.75,1.23,1.23,0,0,0,0-.2.38.38,0,0,0-.09-.18l-.12-.14a.46.46,0,0,0-.18-.13l-.22-.11-.28-.1-.3-.1-.37-.1-.4-.12c-.46-.15-.84-.28-1.13-.4a6.9,6.9,0,0,1-.87-.41,2.57,2.57,0,0,1-.65-.5,2.16,2.16,0,0,1-.36-.63,2.11,2.11,0,0,1-.14-.82,2.68,2.68,0,0,1,1-2.22,4.33,4.33,0,0,1,2.77-.82,5,5,0,0,1,3.54,1.33l-1,1.53a4.47,4.47,0,0,0-2.68-1.08,2.2,2.2,0,0,0-1,.23.79.79,0,0,0-.41.75.75.75,0,0,0,.37.69,5.79,5.79,0,0,0,1.34.49l1.24.39a9.4,9.4,0,0,1,1,.41,2.88,2.88,0,0,1,.74.52,2.1,2.1,0,0,1,.4.65,2.29,2.29,0,0,1,.16.9,2.62,2.62,0,0,1-1,2.18A4.38,4.38,0,0,1,114,424.73Z"/><path class="cls-1" d="M123.29,424.73a6.62,6.62,0,0,1-2.32-.41,5.1,5.1,0,0,1-1.87-1.16l.86-1.56a5.27,5.27,0,0,0,3.24,1.33,2.06,2.06,0,0,0,1.13-.26.82.82,0,0,0,.42-.75,1.23,1.23,0,0,0,0-.2.76.76,0,0,0-.09-.18l-.12-.14a.62.62,0,0,0-.19-.13l-.21-.11-.29-.1-.3-.1-.36-.1-.4-.12c-.46-.15-.84-.28-1.14-.4a7.49,7.49,0,0,1-.86-.41,2.57,2.57,0,0,1-.65-.5,2,2,0,0,1-.37-.63,2.31,2.31,0,0,1-.13-.82,2.67,2.67,0,0,1,1-2.22,4.36,4.36,0,0,1,2.78-.82,5,5,0,0,1,3.54,1.33l-1,1.53a4.45,4.45,0,0,0-2.68-1.08,2.13,2.13,0,0,0-1,.23.78.78,0,0,0-.41.75.76.76,0,0,0,.36.69,6.11,6.11,0,0,0,1.35.49l1.24.39a9.27,9.27,0,0,1,.94.41,2.71,2.71,0,0,1,.74.52,2.12,2.12,0,0,1,.41.65,2.29,2.29,0,0,1,.16.9,2.6,2.6,0,0,1-1,2.18A4.37,4.37,0,0,1,123.29,424.73Z"/><path class="cls-1" d="M133.34,419.83a5.61,5.61,0,0,1,.54-2.46,4.32,4.32,0,0,1,1.5-1.77,3.85,3.85,0,0,1,2.18-.65,3.59,3.59,0,0,1,1.85.5,3.74,3.74,0,0,1,1.33,1.32v-5.36h2.42v10.44a1,1,0,0,0,.12.55.56.56,0,0,0,.43.19v2a5.71,5.71,0,0,1-1,.12,1.7,1.7,0,0,1-1.07-.32,1.18,1.18,0,0,1-.48-.84l0-.59a3.54,3.54,0,0,1-1.4,1.34,4,4,0,0,1-1.88.47,4.28,4.28,0,0,1-2.31-.65,4.48,4.48,0,0,1-1.6-1.77A5.42,5.42,0,0,1,133.34,419.83Zm7.4,1.27v-2.25a2.91,2.91,0,0,0-1-1.31,2.35,2.35,0,0,0-1.43-.53,2.19,2.19,0,0,0-1.76.86,3.07,3.07,0,0,0-.71,2,2.81,2.81,0,0,0,.75,2,2.43,2.43,0,0,0,1.86.8,2.46,2.46,0,0,0,1.38-.45A2.29,2.29,0,0,0,140.74,421.1Z"/><path class="cls-1" d="M150.35,424.73a5.19,5.19,0,0,1-2.63-.67A4.55,4.55,0,0,1,146,422.3a4.92,4.92,0,0,1-.6-2.41,5.12,5.12,0,0,1,.6-2.46,4.52,4.52,0,0,1,1.75-1.8,5.15,5.15,0,0,1,2.65-.68,5.33,5.33,0,0,1,2.06.4,4.34,4.34,0,0,1,1.55,1.07,4.82,4.82,0,0,1,1,1.54,4.93,4.93,0,0,1,.34,1.84,5.82,5.82,0,0,1-.05.81h-7.3a2.49,2.49,0,0,0,2.51,2.36,2.71,2.71,0,0,0,1.36-.36,1.8,1.8,0,0,0,.87-.92l2.06.58a4.07,4.07,0,0,1-1.69,1.78A5.27,5.27,0,0,1,150.35,424.73Zm-2.47-5.65h4.93a2.63,2.63,0,0,0-.8-1.72,2.46,2.46,0,0,0-3.35,0A2.59,2.59,0,0,0,147.88,419.08Z"/><path class="cls-1" d="M159.46,424.55,156,415.12h2.51l2.37,7.23,2.4-7.23h2.28l-3.45,9.43Z"/><path class="cls-1" d="M167.27,413.8v-2.39h2.41v2.39Zm0,10.75v-9.43h2.41v9.43Z"/><path class="cls-1" d="M176.7,424.73a5.36,5.36,0,0,1-2.06-.4,4.61,4.61,0,0,1-2.57-2.63,5,5,0,0,1-.36-1.87,5.07,5.07,0,0,1,.59-2.42,4.57,4.57,0,0,1,1.74-1.78,5.51,5.51,0,0,1,5.25,0,4.28,4.28,0,0,1,1.66,1.77l-2.36.72a2.12,2.12,0,0,0-.81-.79,2.24,2.24,0,0,0-1.11-.29,2.28,2.28,0,0,0-1.77.79,3.27,3.27,0,0,0,0,4.07,2.25,2.25,0,0,0,1.75.81,2.39,2.39,0,0,0,1.19-.32,1.79,1.79,0,0,0,.77-.8l2.35.72a3.93,3.93,0,0,1-1.63,1.78A5.19,5.19,0,0,1,176.7,424.73Z"/><path class="cls-1" d="M187.2,424.73a5.19,5.19,0,0,1-2.63-.67,4.55,4.55,0,0,1-1.75-1.76,4.92,4.92,0,0,1-.6-2.41,5.12,5.12,0,0,1,.6-2.46,4.52,4.52,0,0,1,1.75-1.8,5.15,5.15,0,0,1,2.65-.68,5.33,5.33,0,0,1,2.06.4,4.34,4.34,0,0,1,1.55,1.07,4.82,4.82,0,0,1,1,1.54,4.93,4.93,0,0,1,.34,1.84,5.82,5.82,0,0,1,0,.81h-7.3a2.49,2.49,0,0,0,2.51,2.36,2.71,2.71,0,0,0,1.36-.36,1.8,1.8,0,0,0,.87-.92l2.06.58a4.07,4.07,0,0,1-1.69,1.78A5.24,5.24,0,0,1,187.2,424.73Zm-2.47-5.65h4.93a2.63,2.63,0,0,0-.8-1.72,2.46,2.46,0,0,0-3.35,0A2.59,2.59,0,0,0,184.73,419.08Z"/><path class="cls-1" d="M9.64,482.39h2.52l4.7,12.78H14.3L13.11,492H8.65l-1.17,3.18H4.92Zm3,7.85L10.9,485l-1.84,5.27Z"/><path class="cls-1" d="M24.09,487.82a4.73,4.73,0,0,0-2,.44,2.58,2.58,0,0,0-1.23,1.21v5.7H18.47v-9.43h2.22v2A4.48,4.48,0,0,1,22,486.22a2.9,2.9,0,0,1,1.64-.6,2.59,2.59,0,0,1,.48,0Z"/><path class="cls-1" d="M31.54,494.69a6.56,6.56,0,0,1-2.67.64,3.21,3.21,0,0,1-.95-.13,2.46,2.46,0,0,1-.77-.4,1.67,1.67,0,0,1-.53-.73,2.67,2.67,0,0,1-.2-1.06V487.6H25.18v-1.86h1.24v-3.06h2.42v3.06h2v1.86h-2v4.6c0,.62.32.92.9.92a3.51,3.51,0,0,0,1.31-.34Z"/><path class="cls-1" d="M33.24,484.42V482h2.41v2.39Zm0,10.75v-9.43h2.41v9.43Z"/><path class="cls-1" d="M38.85,488.08H37.61v-1.84h1.24v-.57a3.78,3.78,0,0,1,1-2.72,3.65,3.65,0,0,1,2.79-1.1A6.29,6.29,0,0,1,46.18,483l-1,1.79a3.68,3.68,0,0,0-1.12-.66,3.29,3.29,0,0,0-1.25-.26,1.45,1.45,0,0,0-1.17.48,1.79,1.79,0,0,0-.41,1.19v.67h5v8.93h-2.4v-7.09H41.27v7.09H38.85Z"/><path class="cls-1" d="M53.35,495.35a5.41,5.41,0,0,1-2.07-.4,4.74,4.74,0,0,1-1.58-1.07,5.06,5.06,0,0,1-1-1.56A5.22,5.22,0,0,1,49,488a4.44,4.44,0,0,1,1.74-1.78,5.49,5.49,0,0,1,5.24,0A4.22,4.22,0,0,1,57.59,488l-2.35.72a2.12,2.12,0,0,0-.81-.79,2.34,2.34,0,0,0-2.88.5,3.25,3.25,0,0,0,0,4.07,2.27,2.27,0,0,0,1.75.81A2.33,2.33,0,0,0,54.5,493a1.69,1.69,0,0,0,.77-.8l2.36.72A3.89,3.89,0,0,1,56,494.67,5,5,0,0,1,53.35,495.35Z"/><path class="cls-1" d="M59.55,484.42V482H62v2.39Zm0,10.75v-9.43H62v9.43Z"/><path class="cls-1" d="M63.94,492.39a2.64,2.64,0,0,1,1.13-2.22,4.69,4.69,0,0,1,2.92-.85,5.79,5.79,0,0,1,2.27.38v-.5a1.79,1.79,0,0,0-.53-1.39,2.23,2.23,0,0,0-1.58-.49,4.13,4.13,0,0,0-1.44.26,7,7,0,0,0-1.5.81l-.78-1.59a7.17,7.17,0,0,1,4-1.23,4.56,4.56,0,0,1,3.14,1,3.69,3.69,0,0,1,1.12,2.89v3a.85.85,0,0,0,.13.55.63.63,0,0,0,.45.19v2a5.43,5.43,0,0,1-1,.12,1.73,1.73,0,0,1-1.08-.3,1.29,1.29,0,0,1-.47-.81l0-.48a4.11,4.11,0,0,1-1.52,1.21,4.38,4.38,0,0,1-1.88.44,3.36,3.36,0,0,1-2.35-.85A2.72,2.72,0,0,1,63.94,492.39Zm5.87.48a1.26,1.26,0,0,0,.45-.83v-1a4.93,4.93,0,0,0-1.89-.37,2.6,2.6,0,0,0-1.54.41,1.23,1.23,0,0,0-.6,1.06,1.31,1.31,0,0,0,.45,1,1.77,1.77,0,0,0,1.23.42,3,3,0,0,0,1-.2A2.49,2.49,0,0,0,69.81,492.87Z"/><path class="cls-1" d="M75.35,482h2.41v10.12a1.41,1.41,0,0,0,.2.86.76.76,0,0,0,.61.24A2.67,2.67,0,0,0,79.7,493l.33,1.84a5.1,5.1,0,0,1-1.12.35,5.76,5.76,0,0,1-1.19.13,2.39,2.39,0,0,1-1.74-.6,2.29,2.29,0,0,1-.63-1.72Z"/><path class="cls-1" d="M85.81,484.42V482h2.4v2.39Zm0,10.75v-9.43h2.4v9.43Z"/><path class="cls-1" d="M99.61,495.17H97.2v-5.29c0-1.45-.5-2.18-1.5-2.18a2.39,2.39,0,0,0-1.46.56,2.87,2.87,0,0,0-1,1.4v5.51H90.84v-9.43H93v1.75a3.67,3.67,0,0,1,1.53-1.41,4.78,4.78,0,0,1,2.22-.51,3.21,3.21,0,0,1,1.2.22,2.25,2.25,0,0,1,.82.56,2.88,2.88,0,0,1,.5.84,4.72,4.72,0,0,1,.25,1,8.94,8.94,0,0,1,.07,1.09Z"/><path class="cls-1" d="M107.76,494.69a6.6,6.6,0,0,1-2.67.64,3.21,3.21,0,0,1-1-.13,2.46,2.46,0,0,1-.77-.4,1.77,1.77,0,0,1-.54-.73,2.86,2.86,0,0,1-.19-1.06V487.6H101.4v-1.86h1.24v-3.06h2.42v3.06h2v1.86h-2v4.6c0,.62.31.92.89.92a3.55,3.55,0,0,0,1.32-.34Z"/><path class="cls-1" d="M113.72,495.35a5.19,5.19,0,0,1-2.63-.67,4.55,4.55,0,0,1-1.75-1.76,4.92,4.92,0,0,1-.6-2.41,5.15,5.15,0,0,1,.6-2.46,4.52,4.52,0,0,1,1.75-1.8,5.14,5.14,0,0,1,2.64-.68,5.29,5.29,0,0,1,2.06.4,4.29,4.29,0,0,1,1.56,1.07,5,5,0,0,1,1,1.54,5.14,5.14,0,0,1,.34,1.84,4.47,4.47,0,0,1-.06.81H111.3a2.48,2.48,0,0,0,.81,1.71,2.45,2.45,0,0,0,1.69.65,2.72,2.72,0,0,0,1.37-.36,1.88,1.88,0,0,0,.87-.92l2.06.58a4.07,4.07,0,0,1-1.69,1.78A5.27,5.27,0,0,1,113.72,495.35Zm-2.47-5.65h4.93a2.65,2.65,0,0,0-.8-1.72,2.46,2.46,0,0,0-3.35,0A2.54,2.54,0,0,0,111.25,489.7Z"/><path class="cls-1" d="M120.55,482H123v10.12a1.34,1.34,0,0,0,.2.86.73.73,0,0,0,.6.24,2.71,2.71,0,0,0,1.14-.26l.32,1.84a5,5,0,0,1-1.11.35,5.84,5.84,0,0,1-1.19.13,2.43,2.43,0,0,1-1.75-.6,2.28,2.28,0,0,1-.62-1.72Z"/><path class="cls-1" d="M126.7,482h2.41v10.12a1.41,1.41,0,0,0,.2.86.76.76,0,0,0,.61.24,2.7,2.7,0,0,0,1.13-.26l.33,1.84a5.1,5.1,0,0,1-1.12.35,5.76,5.76,0,0,1-1.19.13,2.39,2.39,0,0,1-1.74-.6,2.29,2.29,0,0,1-.63-1.72Z"/><path class="cls-1" d="M132.87,484.42V482h2.41v2.39Zm0,10.75v-9.43h2.41v9.43Z"/><path class="cls-1" d="M137.35,490.45a5.42,5.42,0,0,1,.55-2.46,4.41,4.41,0,0,1,1.57-1.77,4.12,4.12,0,0,1,2.27-.65,3.76,3.76,0,0,1,1.9.49,4.23,4.23,0,0,1,1.4,1.33v-1.65h2.11v9a4.24,4.24,0,0,1-.68,2.39,4.32,4.32,0,0,1-1.87,1.55,6.52,6.52,0,0,1-2.69.53,6,6,0,0,1-2.55-.5,5.37,5.37,0,0,1-1.86-1.47l1.31-1.27a4,4,0,0,0,1.36,1,4.16,4.16,0,0,0,1.74.38,3.4,3.4,0,0,0,1.08-.16,2.67,2.67,0,0,0,.9-.47,2.11,2.11,0,0,0,.62-.83,3,3,0,0,0,.22-1.19v-1.18a3.2,3.2,0,0,1-1.31,1.24,3.8,3.8,0,0,1-1.82.44,3.85,3.85,0,0,1-2.21-.65,4.26,4.26,0,0,1-1.51-1.74A5.39,5.39,0,0,1,137.35,490.45Zm7.38,1.27v-2.25a2.91,2.91,0,0,0-1-1.33,2.4,2.4,0,0,0-1.45-.51,2.16,2.16,0,0,0-1.76.87,3.14,3.14,0,0,0-.69,2,2.77,2.77,0,0,0,.75,2,2.42,2.42,0,0,0,1.84.8,2.35,2.35,0,0,0,1.41-.46A2.45,2.45,0,0,0,144.73,491.72Z"/><path class="cls-1" d="M154.15,495.35a5.19,5.19,0,0,1-2.63-.67,4.55,4.55,0,0,1-1.75-1.76,4.92,4.92,0,0,1-.6-2.41,5.15,5.15,0,0,1,.6-2.46,4.52,4.52,0,0,1,1.75-1.8,5.14,5.14,0,0,1,2.64-.68,5.29,5.29,0,0,1,2.06.4,4.29,4.29,0,0,1,1.56,1.07,5,5,0,0,1,1,1.54,5.14,5.14,0,0,1,.34,1.84,4.47,4.47,0,0,1-.06.81h-7.29a2.48,2.48,0,0,0,.81,1.71,2.45,2.45,0,0,0,1.69.65,2.75,2.75,0,0,0,1.37-.36,1.88,1.88,0,0,0,.87-.92l2.06.58a4.07,4.07,0,0,1-1.69,1.78A5.27,5.27,0,0,1,154.15,495.35Zm-2.47-5.65h4.93a2.65,2.65,0,0,0-.8-1.72,2.46,2.46,0,0,0-3.35,0A2.54,2.54,0,0,0,151.68,489.7Z"/><path class="cls-1" d="M169.76,495.17h-2.41v-5.29c0-1.45-.5-2.18-1.5-2.18a2.39,2.39,0,0,0-1.46.56,2.87,2.87,0,0,0-1,1.4v5.51H161v-9.43h2.18v1.75a3.67,3.67,0,0,1,1.53-1.41,4.78,4.78,0,0,1,2.22-.51,3.17,3.17,0,0,1,1.2.22,2.25,2.25,0,0,1,.82.56,2.88,2.88,0,0,1,.5.84,4.72,4.72,0,0,1,.25,1,7.31,7.31,0,0,1,.07,1.09Z"/><path class="cls-1" d="M176.7,495.35a5.36,5.36,0,0,1-2.06-.4,4.78,4.78,0,0,1-1.59-1.07,4.85,4.85,0,0,1-1-1.56,5,5,0,0,1-.36-1.87,5.07,5.07,0,0,1,.59-2.42,4.57,4.57,0,0,1,1.74-1.78,5.51,5.51,0,0,1,5.25,0A4.28,4.28,0,0,1,181,488l-2.36.72a2.12,2.12,0,0,0-.81-.79,2.24,2.24,0,0,0-1.11-.29,2.28,2.28,0,0,0-1.77.79,3.27,3.27,0,0,0,0,4.07,2.25,2.25,0,0,0,1.75.81,2.39,2.39,0,0,0,1.19-.32,1.79,1.79,0,0,0,.77-.8l2.35.72a3.86,3.86,0,0,1-1.63,1.77A5.1,5.1,0,0,1,176.7,495.35Z"/><path class="cls-1" d="M187.2,495.35a5.19,5.19,0,0,1-2.63-.67,4.55,4.55,0,0,1-1.75-1.76,4.92,4.92,0,0,1-.6-2.41,5.15,5.15,0,0,1,.6-2.46,4.52,4.52,0,0,1,1.75-1.8,5.15,5.15,0,0,1,2.65-.68,5.33,5.33,0,0,1,2.06.4,4.34,4.34,0,0,1,1.55,1.07,4.82,4.82,0,0,1,1,1.54,4.93,4.93,0,0,1,.34,1.84,5.82,5.82,0,0,1,0,.81h-7.3a2.49,2.49,0,0,0,2.51,2.36,2.71,2.71,0,0,0,1.36-.36,1.8,1.8,0,0,0,.87-.92l2.06.58a4.07,4.07,0,0,1-1.69,1.78A5.24,5.24,0,0,1,187.2,495.35Zm-2.47-5.65h4.93a2.65,2.65,0,0,0-.8-1.72,2.46,2.46,0,0,0-3.35,0A2.59,2.59,0,0,0,184.73,489.7Z"/><path class="cls-1" d="M98.62,552.9v-8.38l-3.27,6.24H94l-3.27-6.24v8.38H88.21V540.12h2.66l3.78,7.27,3.81-7.27h2.65V552.9Z"/><path class="cls-1" d="M103.9,549.38v-5.91h2.41v5.38c0,1.46.52,2.18,1.56,2.18a2.36,2.36,0,0,0,1.38-.44,3.1,3.1,0,0,0,1-1.27v-5.85h2.41v6.74a.91.91,0,0,0,.13.54.59.59,0,0,0,.45.19v2a5.85,5.85,0,0,1-1,.11,1.73,1.73,0,0,1-1.06-.3,1.1,1.1,0,0,1-.47-.82l0-.75a4.14,4.14,0,0,1-1.61,1.45,4.82,4.82,0,0,1-2.19.49,2.69,2.69,0,0,1-2.22-.94A4.36,4.36,0,0,1,103.9,549.38Z"/><path class="cls-1" d="M115.54,539.76h2.4v10.12a1.32,1.32,0,0,0,.21.86.73.73,0,0,0,.6.24,2.71,2.71,0,0,0,1.14-.26l.32,1.84a4.53,4.53,0,0,1-1.11.35,5.84,5.84,0,0,1-1.19.13,2.43,2.43,0,0,1-1.75-.6,2.28,2.28,0,0,1-.62-1.72Z"/><path class="cls-1" d="M127.25,552.42a6.56,6.56,0,0,1-2.66.64,3.16,3.16,0,0,1-1-.13,2.35,2.35,0,0,1-.77-.4,1.8,1.8,0,0,1-.54-.72,2.73,2.73,0,0,1-.19-1.07v-5.41H120.9v-1.86h1.24v-3.05h2.41v3.05h2v1.86h-2v4.6q0,.93.9.93a3.6,3.6,0,0,0,1.32-.35Z"/><path class="cls-1" d="M129,542.16v-2.4h2.41v2.4Zm0,10.74v-9.43h2.41v9.43Z"/><path class="cls-1" d="M134,549.05v-2.18h5.44v2.18Z"/><path class="cls-1" d="M147.62,552.42a6.56,6.56,0,0,1-2.66.64,3.16,3.16,0,0,1-1-.13,2.35,2.35,0,0,1-.77-.4,1.8,1.8,0,0,1-.54-.72,2.73,2.73,0,0,1-.19-1.07v-5.41h-1.24v-1.86h1.24v-3.05h2.41v3.05h2v1.86h-2v4.6q0,.93.9.93a3.6,3.6,0,0,0,1.32-.35Z"/><path class="cls-1" d="M148.61,548.2a5.13,5.13,0,0,1,.35-1.87,5,5,0,0,1,1-1.56,4.51,4.51,0,0,1,1.56-1.07,5.37,5.37,0,0,1,2.07-.39,5,5,0,0,1,2.62.68,4.52,4.52,0,0,1,1.72,1.78,5.14,5.14,0,0,1,.59,2.43,5.08,5.08,0,0,1-.35,1.86,4.8,4.8,0,0,1-1,1.56,4.4,4.4,0,0,1-1.56,1.06,5.15,5.15,0,0,1-2.06.4,5.5,5.5,0,0,1-1.7-.26,4.31,4.31,0,0,1-1.38-.72,5.13,5.13,0,0,1-1-1.06,4.47,4.47,0,0,1-.64-1.34A5,5,0,0,1,148.61,548.2Zm5,2.83a2.24,2.24,0,0,0,1.75-.81,3,3,0,0,0,.71-2,3,3,0,0,0-.71-2,2.32,2.32,0,0,0-3.51,0,3.28,3.28,0,0,0,0,4.06A2.29,2.29,0,0,0,153.57,551Z"/><path class="cls-1" d="M160.48,549.38v-5.91h2.4v5.38c0,1.46.53,2.18,1.57,2.18a2.4,2.4,0,0,0,1.38-.44,3.18,3.18,0,0,0,1-1.27v-5.85h2.41v6.74a.84.84,0,0,0,.13.54.59.59,0,0,0,.45.19v2a6,6,0,0,1-1,.11,1.73,1.73,0,0,1-1.06-.3,1.07,1.07,0,0,1-.47-.82l-.06-.75a4,4,0,0,1-1.61,1.45,4.75,4.75,0,0,1-2.18.49,2.67,2.67,0,0,1-2.22-.94A4.36,4.36,0,0,1,160.48,549.38Z"/><path class="cls-1" d="M176.53,553.08a5.2,5.2,0,0,1-2.07-.4,4.6,4.6,0,0,1-1.58-1.07,5.06,5.06,0,0,1-1-1.56,5.12,5.12,0,0,1,.24-4.29,4.5,4.5,0,0,1,1.74-1.78,5.08,5.08,0,0,1,2.64-.67,5,5,0,0,1,2.6.65,4.14,4.14,0,0,1,1.66,1.76l-2.35.72a2.12,2.12,0,0,0-.81-.79,2.25,2.25,0,0,0-1.12-.29,2.29,2.29,0,0,0-1.76.79,3.25,3.25,0,0,0,0,4.07,2.27,2.27,0,0,0,1.75.81,2.32,2.32,0,0,0,1.19-.31,1.84,1.84,0,0,0,.77-.8l2.36.72a4,4,0,0,1-1.64,1.77A5.06,5.06,0,0,1,176.53,553.08Z"/><path class="cls-1" d="M191.5,552.9h-2.41v-5.29a2.65,2.65,0,0,0-.42-1.63,1.35,1.35,0,0,0-1.16-.55,2.24,2.24,0,0,0-1.4.57,2.87,2.87,0,0,0-1,1.39v5.51h-2.41V539.76h2.41v5.46a3.79,3.79,0,0,1,1.43-1.41,3.86,3.86,0,0,1,2-.5q3,0,3,3.7Z"/><path class="cls-1" d="M0,579.43a2.68,2.68,0,0,1,1.12-2.22,4.8,4.8,0,0,1,2.93-.85,6,6,0,0,1,2.27.38v-.5a1.8,1.8,0,0,0-.53-1.39,2.3,2.3,0,0,0-1.58-.48,4.13,4.13,0,0,0-1.44.26,7.4,7.4,0,0,0-1.5.8l-.79-1.58a7.19,7.19,0,0,1,4-1.23,4.57,4.57,0,0,1,3.15,1,3.69,3.69,0,0,1,1.12,2.88v3a.87.87,0,0,0,.13.55.63.63,0,0,0,.45.19v2a5.52,5.52,0,0,1-1,.12A1.73,1.73,0,0,1,7.2,582a1.34,1.34,0,0,1-.47-.82l-.05-.48A4.13,4.13,0,0,1,5.16,582a4.37,4.37,0,0,1-1.88.43,3.37,3.37,0,0,1-2.35-.84A2.74,2.74,0,0,1,0,579.43Zm5.87.49a1.26,1.26,0,0,0,.45-.83v-1a5,5,0,0,0-1.89-.38,2.73,2.73,0,0,0-1.55.41,1.23,1.23,0,0,0-.59,1.07,1.31,1.31,0,0,0,.45,1,1.74,1.74,0,0,0,1.22.42,2.92,2.92,0,0,0,1-.2A2.6,2.6,0,0,0,5.87,579.92Z"/><path class="cls-1" d="M17,581.73a6.58,6.58,0,0,1-2.66.65,3.16,3.16,0,0,1-.95-.14,2.1,2.1,0,0,1-.77-.4,1.74,1.74,0,0,1-.54-.72,2.71,2.71,0,0,1-.19-1.06v-5.42H10.64v-1.85h1.24v-3.06h2.41v3.06h2v1.85h-2v4.61c0,.61.32.92.9.92a3.55,3.55,0,0,0,1.32-.34Z"/><path class="cls-1" d="M24.31,581.73a6.55,6.55,0,0,1-2.66.65,3.21,3.21,0,0,1-.95-.14,2.27,2.27,0,0,1-.77-.4,1.74,1.74,0,0,1-.54-.72,2.71,2.71,0,0,1-.19-1.06v-5.42H18v-1.85H19.2v-3.06h2.42v3.06h2v1.85h-2v4.61c0,.61.31.92.89.92a3.55,3.55,0,0,0,1.32-.34Z"/><path class="cls-1" d="M31.64,574.87a4.66,4.66,0,0,0-2,.44,2.5,2.5,0,0,0-1.22,1.2v5.71H26v-9.43h2.22v2a4.38,4.38,0,0,1,1.27-1.53,3,3,0,0,1,1.64-.61,4.14,4.14,0,0,1,.49,0Z"/><path class="cls-1" d="M33.43,571.47v-2.39h2.41v2.39Zm0,10.75v-9.43h2.41v9.43Z"/><path class="cls-1" d="M40.58,580.58v1.64H38.47V569.08h2.41v5.36a3.62,3.62,0,0,1,1.34-1.35,3.82,3.82,0,0,1,1.9-.47,3.57,3.57,0,0,1,2.15.68,4.36,4.36,0,0,1,1.46,1.79,5.87,5.87,0,0,1,.51,2.45,5.31,5.31,0,0,1-.57,2.46,4.46,4.46,0,0,1-1.58,1.75,4.13,4.13,0,0,1-2.26.64,3.79,3.79,0,0,1-1.91-.48A3.49,3.49,0,0,1,40.58,580.58Zm5.19-3a3.07,3.07,0,0,0-.7-2,2.18,2.18,0,0,0-1.76-.85,2.3,2.3,0,0,0-1.43.51,3.46,3.46,0,0,0-1,1.32v2.25a2.18,2.18,0,0,0,.9,1.14,2.5,2.5,0,0,0,3.26-.37A2.83,2.83,0,0,0,45.77,577.56Z"/><path class="cls-1" d="M50.24,578.69v-5.9h2.41v5.38c0,1.45.52,2.17,1.56,2.17a2.42,2.42,0,0,0,1.38-.43,3.15,3.15,0,0,0,1.06-1.28v-5.84h2.41v6.73a.87.87,0,0,0,.13.55.61.61,0,0,0,.45.19v2a6,6,0,0,1-1,.1,1.82,1.82,0,0,1-1.06-.29,1.14,1.14,0,0,1-.47-.82l-.05-.76a4.08,4.08,0,0,1-1.61,1.45,4.82,4.82,0,0,1-2.19.49,2.65,2.65,0,0,1-2.21-.94A4.27,4.27,0,0,1,50.24,578.69Z"/><path class="cls-1" d="M67.51,581.73a6.58,6.58,0,0,1-2.66.65,3.16,3.16,0,0,1-.95-.14,2.18,2.18,0,0,1-.77-.4,1.74,1.74,0,0,1-.54-.72,2.71,2.71,0,0,1-.19-1.06v-5.42H61.16v-1.85H62.4v-3.06h2.41v3.06h2v1.85h-2v4.61c0,.61.32.92.9.92a3.55,3.55,0,0,0,1.32-.34Z"/><path class="cls-1" d="M69.22,571.47v-2.39h2.41v2.39Zm0,10.75v-9.43h2.41v9.43Z"/><path class="cls-1" d="M73.66,577.51a5.17,5.17,0,0,1,.35-1.87,5,5,0,0,1,1-1.56A4.42,4.42,0,0,1,76.55,573a5.37,5.37,0,0,1,2.07-.39,5,5,0,0,1,2.62.68A4.52,4.52,0,0,1,83,575.08a5.14,5.14,0,0,1,.59,2.43,5,5,0,0,1-.35,1.86,4.8,4.8,0,0,1-1,1.56A4.42,4.42,0,0,1,80.68,582a5.32,5.32,0,0,1-2.06.39,5.22,5.22,0,0,1-1.7-.26,4.5,4.5,0,0,1-1.38-.71,5.18,5.18,0,0,1-1-1.07,4.36,4.36,0,0,1-.64-1.34A5,5,0,0,1,73.66,577.51Zm5,2.83a2.23,2.23,0,0,0,1.75-.8,3,3,0,0,0,.71-2,2.93,2.93,0,0,0-.71-2,2.32,2.32,0,0,0-3.51,0,2.9,2.9,0,0,0-.71,2,3,3,0,0,0,.7,2A2.28,2.28,0,0,0,78.62,580.34Z"/><path class="cls-1" d="M94.38,582.22H92v-5.29c0-1.46-.5-2.18-1.5-2.18a2.33,2.33,0,0,0-1.46.56,2.83,2.83,0,0,0-1,1.4v5.51H85.61v-9.43h2.18v1.75a3.67,3.67,0,0,1,1.53-1.41,4.78,4.78,0,0,1,2.22-.51,3.17,3.17,0,0,1,1.2.21,2.52,2.52,0,0,1,.82.56,2.81,2.81,0,0,1,.5.85,4.49,4.49,0,0,1,.25,1,7.54,7.54,0,0,1,.07,1.1Z"/><path class="cls-1" d="M116.34,582.22h-2.4v-5.29a2.88,2.88,0,0,0-.38-1.64,1.23,1.23,0,0,0-1.08-.54,2,2,0,0,0-1.35.55,3,3,0,0,0-.9,1.42v5.5h-2.42v-5.29c0-1.46-.49-2.18-1.46-2.18a2.08,2.08,0,0,0-1.35.54,3,3,0,0,0-.9,1.42v5.51h-2.41v-9.43h2.18v1.75a3.64,3.64,0,0,1,1.44-1.42,4.28,4.28,0,0,1,2.07-.5,2.74,2.74,0,0,1,1.79.56,2.51,2.51,0,0,1,.87,1.44,4,4,0,0,1,1.47-1.48,3.85,3.85,0,0,1,2-.52q2.83,0,2.83,3.71Z"/><path class="cls-1" d="M118.3,577.51a5.07,5.07,0,0,1,1.32-3.43,4.55,4.55,0,0,1,1.57-1.07,5.36,5.36,0,0,1,2.06-.39,5.07,5.07,0,0,1,2.63.68,4.52,4.52,0,0,1,1.72,1.78,5.13,5.13,0,0,1,.58,2.43,5,5,0,0,1-1.3,3.42,4.42,4.42,0,0,1-1.56,1.07,5.37,5.37,0,0,1-2.07.39,5.16,5.16,0,0,1-1.69-.26,4.5,4.5,0,0,1-1.38-.71,5.18,5.18,0,0,1-1-1.07,4.63,4.63,0,0,1-.65-1.34A5.33,5.33,0,0,1,118.3,577.51Zm5,2.83a2.23,2.23,0,0,0,1.76-.8,3,3,0,0,0,.7-2,2.92,2.92,0,0,0-.7-2,2.32,2.32,0,0,0-3.51,0,2.91,2.91,0,0,0-.72,2,3,3,0,0,0,.71,2A2.26,2.26,0,0,0,123.25,580.34Z"/><path class="cls-1" d="M129.67,577.5a5.55,5.55,0,0,1,.54-2.46,4.29,4.29,0,0,1,1.51-1.77,3.82,3.82,0,0,1,2.17-.65,3.59,3.59,0,0,1,1.85.5,3.74,3.74,0,0,1,1.33,1.32v-5.36h2.42v10.44a1,1,0,0,0,.12.55.58.58,0,0,0,.43.19v2a5.61,5.61,0,0,1-1,.12A1.73,1.73,0,0,1,138,582a1.13,1.13,0,0,1-.48-.85l0-.59a3.45,3.45,0,0,1-1.39,1.34,3.92,3.92,0,0,1-1.89.47,4.2,4.2,0,0,1-2.31-.65,4.42,4.42,0,0,1-1.6-1.77A5.38,5.38,0,0,1,129.67,577.5Zm7.4,1.26v-2.25a3,3,0,0,0-1-1.31,2.38,2.38,0,0,0-1.43-.52,2.2,2.2,0,0,0-1.77.85,3.09,3.09,0,0,0-.7,2,2.8,2.8,0,0,0,.74,2,2.47,2.47,0,0,0,3.24.35A2.25,2.25,0,0,0,137.07,578.76Z"/><path class="cls-1" d="M146.68,582.39a5.21,5.21,0,0,1-2.63-.66A4.64,4.64,0,0,1,142.3,580a5,5,0,0,1-.59-2.4,5.27,5.27,0,0,1,.59-2.47,4.63,4.63,0,0,1,1.75-1.79,5.05,5.05,0,0,1,2.65-.68,5.32,5.32,0,0,1,2.06.39,4.47,4.47,0,0,1,1.55,1.07,4.69,4.69,0,0,1,1,1.55,4.92,4.92,0,0,1,.34,1.83,5.61,5.61,0,0,1-.05.81h-7.3a2.49,2.49,0,0,0,2.51,2.37,2.71,2.71,0,0,0,1.36-.36,1.85,1.85,0,0,0,.87-.93l2.07.58a4.21,4.21,0,0,1-1.69,1.79A5.3,5.3,0,0,1,146.68,582.39Zm-2.47-5.65h4.93a2.64,2.64,0,0,0-.79-1.72,2.38,2.38,0,0,0-1.69-.65A2.35,2.35,0,0,0,145,575,2.58,2.58,0,0,0,144.21,576.74Z"/><path class="cls-1" d="M153.51,569.08h2.41v10.11a1.42,1.42,0,0,0,.2.87.79.79,0,0,0,.61.23,2.65,2.65,0,0,0,1.13-.25l.33,1.83a5.08,5.08,0,0,1-1.12.36,6.54,6.54,0,0,1-1.19.13,2.35,2.35,0,0,1-1.74-.61,2.25,2.25,0,0,1-.63-1.71Z"/><path class="cls-1" d="M159.67,569.08h2.4v10.11a1.35,1.35,0,0,0,.21.87.75.75,0,0,0,.6.23A2.7,2.7,0,0,0,164,580l.32,1.83a5,5,0,0,1-1.11.36,6.64,6.64,0,0,1-1.19.13,2.39,2.39,0,0,1-1.75-.61,2.24,2.24,0,0,1-.62-1.71Z"/><path class="cls-1" d="M165.84,571.47v-2.39h2.41v2.39Zm0,10.75v-9.43h2.41v9.43Z"/><path class="cls-1" d="M179.64,582.22h-2.41v-5.29c0-1.46-.5-2.18-1.49-2.18a2.34,2.34,0,0,0-1.47.56,2.83,2.83,0,0,0-1,1.4v5.51h-2.4v-9.43h2.17v1.75a3.67,3.67,0,0,1,1.53-1.41,4.78,4.78,0,0,1,2.22-.51,3.14,3.14,0,0,1,1.2.21,2.42,2.42,0,0,1,.82.56,2.62,2.62,0,0,1,.5.85,4.49,4.49,0,0,1,.25,1,7.54,7.54,0,0,1,.07,1.1Z"/><path class="cls-1" d="M181.63,577.5a5.43,5.43,0,0,1,.55-2.47,4.37,4.37,0,0,1,1.56-1.76,4.18,4.18,0,0,1,2.28-.65,3.75,3.75,0,0,1,1.9.48,4.16,4.16,0,0,1,1.4,1.34v-1.65h2.11v9a4.19,4.19,0,0,1-.69,2.39,4.3,4.3,0,0,1-1.86,1.55,6.55,6.55,0,0,1-2.69.52,5.94,5.94,0,0,1-2.56-.5,5.12,5.12,0,0,1-1.85-1.47l1.3-1.27a3.84,3.84,0,0,0,1.37,1,4,4,0,0,0,1.74.39,3.81,3.81,0,0,0,1.08-.16,3.22,3.22,0,0,0,.9-.47,2.29,2.29,0,0,0,.62-.83,3.19,3.19,0,0,0,.22-1.19v-1.19a3.22,3.22,0,0,1-1.31,1.25,4,4,0,0,1-4-.21,4.26,4.26,0,0,1-1.51-1.74A5.29,5.29,0,0,1,181.63,577.5Zm7.38,1.26v-2.25a2.94,2.94,0,0,0-1-1.32,2.4,2.4,0,0,0-1.45-.51,2.13,2.13,0,0,0-1.76.86,3.19,3.19,0,0,0-.69,2,2.77,2.77,0,0,0,.74,2,2.44,2.44,0,0,0,1.85.79,2.41,2.41,0,0,0,1.41-.45A2.54,2.54,0,0,0,189,578.76Z"/><path class="cls-3" d="M236.75,601.25a1.34,1.34,0,0,1-1.35-1.35V311.46a1.35,1.35,0,0,1,2.69,0V599.9A1.34,1.34,0,0,1,236.75,601.25Z"/></g></g></svg>