<svg xmlns="http://www.w3.org/2000/svg" viewBox="0 0 1201.93 530.89"><defs><style>.cls-1{fill:#00324a;}.cls-2{fill:#ff574a;}.cls-3{fill:#fff;}</style></defs><title>12</title><g id="Capa_2" data-name="Capa 2"><g id="Layer_1" data-name="Layer 1"><path class="cls-1" d="M22.76,470.06v-8.38l-3.27,6.24H18.1l-3.28-6.24v8.38H12.34V457.28H15l3.78,7.27,3.81-7.27h2.65v12.78Z"/><path class="cls-1" d="M27.58,466.54v-5.91H30V466c0,1.45.52,2.18,1.57,2.18a2.48,2.48,0,0,0,1.38-.44A3.18,3.18,0,0,0,34,466.48v-5.85H36.4v6.73a.85.85,0,0,0,.13.55.63.63,0,0,0,.45.19v2a6.05,6.05,0,0,1-1,.11,1.77,1.77,0,0,1-1.06-.3,1.15,1.15,0,0,1-.47-.82l0-.75a4.08,4.08,0,0,1-1.61,1.45,4.88,4.88,0,0,1-2.18.49,2.69,2.69,0,0,1-2.22-.94A4.36,4.36,0,0,1,27.58,466.54Z"/><path class="cls-1" d="M38.77,456.92h2.41V467a1.39,1.39,0,0,0,.2.86.76.76,0,0,0,.61.24,2.67,2.67,0,0,0,1.13-.26l.33,1.84a5.1,5.1,0,0,1-1.12.35,5.74,5.74,0,0,1-1.18.13,2.41,2.41,0,0,1-1.75-.6,2.29,2.29,0,0,1-.63-1.72Z"/><path class="cls-1" d="M50,469.58a6.56,6.56,0,0,1-2.66.64,3.16,3.16,0,0,1-1-.13,2.4,2.4,0,0,1-.78-.4,1.84,1.84,0,0,1-.53-.73,2.68,2.68,0,0,1-.19-1.06v-5.41H43.69v-1.86h1.24v-3.06h2.41v3.06h2v1.86h-2v4.6c0,.62.32.92.9.92a3.55,3.55,0,0,0,1.32-.34Z"/><path class="cls-1" d="M51.3,459.31v-2.39h2.41v2.39Zm0,10.75v-9.43h2.41v9.43Z"/><path class="cls-1" d="M55.83,466.21V464h5.45v2.18Z"/><path class="cls-1" d="M69.06,469.58a6.56,6.56,0,0,1-2.66.64,3.12,3.12,0,0,1-1-.13,2.4,2.4,0,0,1-.78-.4,1.84,1.84,0,0,1-.53-.73,2.67,2.67,0,0,1-.2-1.06v-5.41H62.71v-1.86h1.23v-3.06h2.42v3.06h2v1.86h-2v4.6c0,.62.32.92.9.92a3.55,3.55,0,0,0,1.32-.34Z"/><path class="cls-1" d="M69.6,465.36a4.9,4.9,0,0,1,.35-1.87,5,5,0,0,1,1-1.56,4.42,4.42,0,0,1,1.57-1.07,5.36,5.36,0,0,1,2.06-.4,5,5,0,0,1,2.63.69,4.52,4.52,0,0,1,1.72,1.78,5.13,5.13,0,0,1,.58,2.43,5.07,5.07,0,0,1-.34,1.86,5,5,0,0,1-1,1.56,4.4,4.4,0,0,1-1.56,1.06,5.2,5.2,0,0,1-2.07.4,5.44,5.44,0,0,1-1.69-.26,4.31,4.31,0,0,1-1.38-.72,4.66,4.66,0,0,1-1-1.06,4.5,4.5,0,0,1-.65-1.34A5.33,5.33,0,0,1,69.6,465.36Zm5,2.83a2.26,2.26,0,0,0,1.76-.81,3,3,0,0,0,.7-2,2.94,2.94,0,0,0-.7-2,2.28,2.28,0,0,0-1.76-.8,2.24,2.24,0,0,0-1.75.81,3.24,3.24,0,0,0,0,4.06A2.26,2.26,0,0,0,74.55,468.19Z"/><path class="cls-1" d="M81,466.54v-5.91h2.41V466c0,1.45.52,2.18,1.57,2.18a2.48,2.48,0,0,0,1.38-.44,3.18,3.18,0,0,0,1-1.27v-5.85h2.41v6.73a.85.85,0,0,0,.13.55.63.63,0,0,0,.45.19v2a6.05,6.05,0,0,1-1,.11,1.77,1.77,0,0,1-1.06-.3,1.12,1.12,0,0,1-.47-.82l0-.75a4.15,4.15,0,0,1-1.61,1.45,4.9,4.9,0,0,1-2.19.49,2.68,2.68,0,0,1-2.21-.94A4.36,4.36,0,0,1,81,466.54Z"/><path class="cls-1" d="M96.61,470.24a5.36,5.36,0,0,1-2.06-.4A4.61,4.61,0,0,1,92,467.21a5,5,0,0,1-.36-1.87,5.07,5.07,0,0,1,.59-2.42A4.57,4.57,0,0,1,94,461.14a5.15,5.15,0,0,1,2.65-.68,5,5,0,0,1,2.6.66,4.14,4.14,0,0,1,1.66,1.76l-2.36.72a2.12,2.12,0,0,0-.81-.79,2.24,2.24,0,0,0-1.11-.29,2.29,2.29,0,0,0-1.76.79,2.91,2.91,0,0,0-.71,2,3,3,0,0,0,.72,2,2.25,2.25,0,0,0,1.75.81,2.36,2.36,0,0,0,1.19-.32,1.74,1.74,0,0,0,.77-.8l2.35.72a3.88,3.88,0,0,1-1.63,1.78A5.19,5.19,0,0,1,96.61,470.24Z"/><path class="cls-1" d="M111.13,470.06h-2.4v-5.29a2.63,2.63,0,0,0-.42-1.63,1.36,1.36,0,0,0-1.17-.55,2.28,2.28,0,0,0-1.39.56,2.88,2.88,0,0,0-1,1.4v5.51h-2.41V456.92h2.41v5.46A3.77,3.77,0,0,1,106.2,461a3.9,3.9,0,0,1,2-.51q3,0,3,3.71Z"/><path class="cls-1" d="M16.36,486.28a2.63,2.63,0,0,1,1.12-2.22,4.72,4.72,0,0,1,2.93-.85,5.82,5.82,0,0,1,2.27.38v-.5a1.76,1.76,0,0,0-.54-1.39,2.27,2.27,0,0,0-1.57-.49,4.14,4.14,0,0,0-1.45.26,8.07,8.07,0,0,0-1.5.81l-.78-1.58a7.2,7.2,0,0,1,4-1.24,4.48,4.48,0,0,1,3.14,1,3.66,3.66,0,0,1,1.12,2.88v3a.85.85,0,0,0,.14.55.59.59,0,0,0,.44.19v2a5.45,5.45,0,0,1-1,.13,1.69,1.69,0,0,1-1.08-.31,1.25,1.25,0,0,1-.47-.81l-.05-.48a4.22,4.22,0,0,1-1.53,1.21,4.35,4.35,0,0,1-1.88.44,3.32,3.32,0,0,1-2.34-.85A2.72,2.72,0,0,1,16.36,486.28Zm5.87.48a1.24,1.24,0,0,0,.45-.83V485a4.83,4.83,0,0,0-1.89-.38,2.63,2.63,0,0,0-1.55.41,1.23,1.23,0,0,0-.6,1.06,1.26,1.26,0,0,0,.46,1,1.72,1.72,0,0,0,1.22.42,2.92,2.92,0,0,0,1.05-.2A2.54,2.54,0,0,0,22.23,486.76Z"/><path class="cls-1" d="M32.9,488.58a6.56,6.56,0,0,1-2.67.64,3.21,3.21,0,0,1-.95-.13,2.46,2.46,0,0,1-.77-.4A1.67,1.67,0,0,1,28,488a2.67,2.67,0,0,1-.2-1.06v-5.41H26.54v-1.86h1.24v-3.06H30.2v3.06h2v1.86h-2v4.6c0,.62.32.92.9.92a3.51,3.51,0,0,0,1.31-.34Z"/><path class="cls-1" d="M39.77,488.58a6.56,6.56,0,0,1-2.66.64,3.12,3.12,0,0,1-1-.13,2.4,2.4,0,0,1-.78-.4,1.84,1.84,0,0,1-.53-.73,2.67,2.67,0,0,1-.2-1.06v-5.41H33.42v-1.86h1.23v-3.06h2.42v3.06h2v1.86h-2v4.6c0,.62.32.92.9.92a3.55,3.55,0,0,0,1.32-.34Z"/><path class="cls-1" d="M46.64,481.71a4.73,4.73,0,0,0-2,.44,2.56,2.56,0,0,0-1.22,1.21v5.7H41v-9.43h2.21v2a4.46,4.46,0,0,1,1.28-1.52,2.87,2.87,0,0,1,1.64-.61,2.59,2.59,0,0,1,.48,0Z"/><path class="cls-1" d="M48,478.31v-2.39H50.4v2.39Zm0,10.75v-9.43H50.4v9.43Z"/><path class="cls-1" d="M54.69,487.43v1.63H52.58V475.92H55v5.36a3.66,3.66,0,0,1,1.34-1.34,3.76,3.76,0,0,1,1.91-.48,3.66,3.66,0,0,1,2.15.68,4.4,4.4,0,0,1,1.46,1.8,5.84,5.84,0,0,1,.51,2.45,5.29,5.29,0,0,1-.57,2.45,4.44,4.44,0,0,1-1.59,1.76,4.21,4.21,0,0,1-2.25.64,3.79,3.79,0,0,1-1.91-.48A3.43,3.43,0,0,1,54.69,487.43Zm5.19-3a3.09,3.09,0,0,0-.7-2A2.24,2.24,0,0,0,56,482a3.48,3.48,0,0,0-1,1.32v2.25a2.23,2.23,0,0,0,.91,1.14,2.48,2.48,0,0,0,1.38.44,2.42,2.42,0,0,0,1.87-.81A2.84,2.84,0,0,0,59.88,484.4Z"/><path class="cls-1" d="M63.9,485.54v-5.91h2.4V485c0,1.45.53,2.18,1.57,2.18a2.48,2.48,0,0,0,1.38-.44,3.18,3.18,0,0,0,1-1.27v-5.85h2.41v6.73a.92.92,0,0,0,.13.55.63.63,0,0,0,.45.19v2a6,6,0,0,1-1,.11,1.73,1.73,0,0,1-1.06-.3,1.09,1.09,0,0,1-.47-.82l-.06-.75a4.12,4.12,0,0,1-1.6,1.45,5,5,0,0,1-2.19.49,2.7,2.7,0,0,1-2.22-.94A4.36,4.36,0,0,1,63.9,485.54Z"/><path class="cls-1" d="M80.72,488.58a6.56,6.56,0,0,1-2.66.64,3.12,3.12,0,0,1-1-.13,2.4,2.4,0,0,1-.78-.4,1.75,1.75,0,0,1-.53-.73,2.67,2.67,0,0,1-.2-1.06v-5.41H74.36v-1.86H75.6v-3.06H78v3.06h2v1.86H78v4.6c0,.62.32.92.9.92a3.46,3.46,0,0,0,1.31-.34Z"/><path class="cls-1" d="M82,478.31v-2.39h2.4v2.39Zm0,10.75v-9.43h2.4v9.43Z"/><path class="cls-1" d="M86,484.36a4.9,4.9,0,0,1,.35-1.87,5,5,0,0,1,1-1.56,4.42,4.42,0,0,1,1.57-1.07,5.36,5.36,0,0,1,2.06-.4,5,5,0,0,1,2.63.69,4.59,4.59,0,0,1,1.72,1.78,5.13,5.13,0,0,1,.58,2.43,5.07,5.07,0,0,1-.34,1.86,5,5,0,0,1-1,1.56A4.58,4.58,0,0,1,93,488.84a5.2,5.2,0,0,1-2.07.4,5.44,5.44,0,0,1-1.69-.26,4.31,4.31,0,0,1-1.38-.72,4.66,4.66,0,0,1-1-1.06,4.5,4.5,0,0,1-.65-1.34A5.33,5.33,0,0,1,86,484.36Zm5,2.83a2.26,2.26,0,0,0,1.76-.81,3,3,0,0,0,.7-2,2.94,2.94,0,0,0-.7-2,2.33,2.33,0,0,0-3.52,0,3,3,0,0,0-.71,2,3,3,0,0,0,.71,2A2.26,2.26,0,0,0,90.92,487.19Z"/><path class="cls-1" d="M106.23,489.06h-2.41v-5.29c0-1.45-.49-2.18-1.49-2.18a2.4,2.4,0,0,0-1.47.56,2.83,2.83,0,0,0-1,1.4v5.51H97.47v-9.43h2.18v1.75a3.64,3.64,0,0,1,1.52-1.41,4.83,4.83,0,0,1,2.22-.51,3.13,3.13,0,0,1,1.2.22,2.21,2.21,0,0,1,.83.56,2.66,2.66,0,0,1,.49.84,4.76,4.76,0,0,1,.26,1,9.18,9.18,0,0,1,.06,1.09Z"/><path class="cls-1" d="M33.17,508.06H30.76v-5.29a2.82,2.82,0,0,0-.38-1.64,1.23,1.23,0,0,0-1.08-.54,2,2,0,0,0-1.35.56,3,3,0,0,0-.9,1.42v5.49H24.64v-5.29c0-1.45-.49-2.18-1.46-2.18a2,2,0,0,0-1.35.55,2.83,2.83,0,0,0-.9,1.41v5.51H18.52v-9.43H20.7v1.75A3.66,3.66,0,0,1,22.13,499a4.18,4.18,0,0,1,2.07-.51A2.75,2.75,0,0,1,26,499a2.56,2.56,0,0,1,.87,1.45A4.1,4.1,0,0,1,28.33,499a4,4,0,0,1,2-.52q2.83,0,2.83,3.71Z"/><path class="cls-1" d="M34.67,503.36a5.09,5.09,0,0,1,.35-1.87,5,5,0,0,1,1-1.56,4.42,4.42,0,0,1,1.57-1.07,5.36,5.36,0,0,1,2.06-.4,5,5,0,0,1,2.62.69A4.55,4.55,0,0,1,44,500.93a5.25,5.25,0,0,1,.58,2.43,5.07,5.07,0,0,1-.34,1.86,5,5,0,0,1-1,1.56,4.53,4.53,0,0,1-1.57,1.06,5.12,5.12,0,0,1-2.06.4,5.55,5.55,0,0,1-1.7-.26,4.53,4.53,0,0,1-1.38-.72,5.13,5.13,0,0,1-1-1.06,4.73,4.73,0,0,1-.64-1.34A5,5,0,0,1,34.67,503.36Zm5,2.83a2.22,2.22,0,0,0,1.75-.81,3,3,0,0,0,.71-2,3,3,0,0,0-.71-2,2.32,2.32,0,0,0-3.51,0,3,3,0,0,0-.71,2,3,3,0,0,0,.71,2A2.26,2.26,0,0,0,39.63,506.19Z"/><path class="cls-1" d="M45.6,503.34a5.75,5.75,0,0,1,.53-2.46,4.33,4.33,0,0,1,1.51-1.76,3.79,3.79,0,0,1,2.18-.66,3.59,3.59,0,0,1,1.85.5A3.74,3.74,0,0,1,53,500.28v-5.36h2.41v10.44a.92.92,0,0,0,.13.55.56.56,0,0,0,.43.19v2a5.86,5.86,0,0,1-1,.13,1.76,1.76,0,0,1-1.07-.32,1.22,1.22,0,0,1-.48-.85l0-.59a3.47,3.47,0,0,1-1.4,1.34,4,4,0,0,1-1.88.47,4.23,4.23,0,0,1-2.31-.65,4.48,4.48,0,0,1-1.6-1.77A5.39,5.39,0,0,1,45.6,503.34Zm7.4,1.27v-2.25a2.91,2.91,0,0,0-1-1.31,2.37,2.37,0,0,0-1.43-.53,2.17,2.17,0,0,0-1.76.86,3.07,3.07,0,0,0-.71,2,2.85,2.85,0,0,0,.74,2,2.48,2.48,0,0,0,3.25.35A2.25,2.25,0,0,0,53,504.61Z"/><path class="cls-1" d="M62.16,508.24a5.09,5.09,0,0,1-2.63-.67,4.55,4.55,0,0,1-1.75-1.76,4.92,4.92,0,0,1-.6-2.41,5.15,5.15,0,0,1,.6-2.46,4.52,4.52,0,0,1,1.75-1.8,5.14,5.14,0,0,1,2.64-.68,5.29,5.29,0,0,1,2.06.4,4.29,4.29,0,0,1,1.56,1.07,5,5,0,0,1,1,1.54,5.14,5.14,0,0,1,.34,1.84,4.47,4.47,0,0,1-.06.81H59.74a2.48,2.48,0,0,0,.81,1.71,2.41,2.41,0,0,0,1.69.65,2.72,2.72,0,0,0,1.37-.36,1.88,1.88,0,0,0,.87-.92l2.06.58a4,4,0,0,1-1.69,1.78A5.27,5.27,0,0,1,62.16,508.24Zm-2.47-5.65h4.93a2.65,2.65,0,0,0-.8-1.72,2.46,2.46,0,0,0-3.35,0A2.54,2.54,0,0,0,59.69,502.59Z"/><path class="cls-1" d="M68.54,494.92h2.4V505a1.32,1.32,0,0,0,.21.86.73.73,0,0,0,.6.24,2.71,2.71,0,0,0,1.14-.26l.32,1.84a5,5,0,0,1-1.11.35,5.84,5.84,0,0,1-1.19.13,2.43,2.43,0,0,1-1.75-.6,2.28,2.28,0,0,1-.62-1.72Z"/><path class="cls-1" d="M74.24,494.92h2.41V505a1.39,1.39,0,0,0,.2.86.76.76,0,0,0,.61.24,2.7,2.7,0,0,0,1.13-.26l.33,1.84a5.1,5.1,0,0,1-1.12.35,5.76,5.76,0,0,1-1.19.13,2.43,2.43,0,0,1-1.75-.6,2.32,2.32,0,0,1-.62-1.72Z"/><path class="cls-1" d="M80,497.31v-2.39h2.41v2.39Zm0,10.75v-9.43h2.41v9.43Z"/><path class="cls-1" d="M93.31,508.06H90.9v-5.29c0-1.45-.49-2.18-1.49-2.18a2.4,2.4,0,0,0-1.47.56,2.83,2.83,0,0,0-1,1.4v5.51H84.55v-9.43h2.18v1.75A3.64,3.64,0,0,1,88.25,499a4.83,4.83,0,0,1,2.22-.51,3.13,3.13,0,0,1,1.2.22,2.21,2.21,0,0,1,.83.56,2.66,2.66,0,0,1,.49.84,4.76,4.76,0,0,1,.26,1,9.18,9.18,0,0,1,.06,1.09Z"/><path class="cls-1" d="M94.85,503.34a5.55,5.55,0,0,1,.55-2.46A4.39,4.39,0,0,1,97,499.12a4.06,4.06,0,0,1,2.28-.66,3.72,3.72,0,0,1,1.89.49,4.13,4.13,0,0,1,1.4,1.33v-1.65h2.11v9A4.24,4.24,0,0,1,104,510a4.29,4.29,0,0,1-1.86,1.55,6.6,6.6,0,0,1-2.7.53,6,6,0,0,1-2.55-.5A5.46,5.46,0,0,1,95,510.11l1.31-1.27a3.87,3.87,0,0,0,1.37,1,4.08,4.08,0,0,0,1.73.38,3.4,3.4,0,0,0,1.08-.16,2.58,2.58,0,0,0,.9-.47,2.11,2.11,0,0,0,.62-.83,2.94,2.94,0,0,0,.22-1.19v-1.18a3.14,3.14,0,0,1-1.31,1.24,3.78,3.78,0,0,1-1.82.45,3.83,3.83,0,0,1-2.2-.66,4.28,4.28,0,0,1-1.52-1.74A5.39,5.39,0,0,1,94.85,503.34Zm7.38,1.27v-2.25a2.89,2.89,0,0,0-1-1.33,2.42,2.42,0,0,0-1.46-.51,2.16,2.16,0,0,0-1.76.87,3.14,3.14,0,0,0-.69,2,2.77,2.77,0,0,0,.75,2,2.43,2.43,0,0,0,1.84.8,2.35,2.35,0,0,0,1.41-.46A2.45,2.45,0,0,0,102.23,504.61Z"/><path class="cls-1" d="M154,470.06V457.28h5.41a3.77,3.77,0,0,1,1.62.37,4,4,0,0,1,1.3,1,4.43,4.43,0,0,1,.84,1.36,4,4,0,0,1,.31,1.55,4.44,4.44,0,0,1-.49,2.06,4.07,4.07,0,0,1-1.42,1.58,3.67,3.67,0,0,1-2.07.61h-3v4.28Zm2.48-6.46h2.88a1.42,1.42,0,0,0,1.15-.57,2.35,2.35,0,0,0,.45-1.5,2.16,2.16,0,0,0-.51-1.51,1.56,1.56,0,0,0-1.2-.56h-2.77Z"/><path class="cls-1" d="M170.58,462.71a4.73,4.73,0,0,0-2,.44,2.63,2.63,0,0,0-1.23,1.21v5.7H165v-9.43h2.21v2a4.46,4.46,0,0,1,1.28-1.52,2.84,2.84,0,0,1,1.64-.61,2.59,2.59,0,0,1,.48,0Z"/><path class="cls-1" d="M171.21,465.36a4.9,4.9,0,0,1,.35-1.87,5,5,0,0,1,1-1.56,4.42,4.42,0,0,1,1.57-1.07,5.36,5.36,0,0,1,2.06-.4,5,5,0,0,1,2.63.69,4.52,4.52,0,0,1,1.72,1.78,5.13,5.13,0,0,1,.58,2.43,5.07,5.07,0,0,1-.34,1.86,5,5,0,0,1-1,1.56,4.4,4.4,0,0,1-1.56,1.06,5.2,5.2,0,0,1-2.07.4,5.44,5.44,0,0,1-1.69-.26,4.31,4.31,0,0,1-1.38-.72,4.66,4.66,0,0,1-1-1.06,4.5,4.5,0,0,1-.65-1.34A5.33,5.33,0,0,1,171.21,465.36Zm4.95,2.83a2.26,2.26,0,0,0,1.76-.81,3,3,0,0,0,.7-2,2.94,2.94,0,0,0-.7-2,2.28,2.28,0,0,0-1.76-.8,2.24,2.24,0,0,0-1.75.81,3.24,3.24,0,0,0,0,4.06A2.26,2.26,0,0,0,176.16,468.19Z"/><path class="cls-1" d="M182.15,465.34a5.42,5.42,0,0,1,.55-2.46,4.32,4.32,0,0,1,1.57-1.76,4.05,4.05,0,0,1,2.27-.66,3.73,3.73,0,0,1,1.9.49,4.23,4.23,0,0,1,1.4,1.33v-1.65H192v9a4.24,4.24,0,0,1-.68,2.39,4.32,4.32,0,0,1-1.87,1.55,6.52,6.52,0,0,1-2.69.53,6,6,0,0,1-2.55-.5,5.37,5.37,0,0,1-1.86-1.47l1.31-1.27a3.92,3.92,0,0,0,1.36,1,4.16,4.16,0,0,0,1.74.38,3.4,3.4,0,0,0,1.08-.16,2.67,2.67,0,0,0,.9-.47,2.11,2.11,0,0,0,.62-.83,2.94,2.94,0,0,0,.22-1.19v-1.18a3.2,3.2,0,0,1-1.31,1.24,3.8,3.8,0,0,1-1.82.45,3.88,3.88,0,0,1-2.21-.66,4.26,4.26,0,0,1-1.51-1.74A5.39,5.39,0,0,1,182.15,465.34Zm7.38,1.27v-2.25a2.91,2.91,0,0,0-1-1.33,2.4,2.4,0,0,0-1.45-.51,2.16,2.16,0,0,0-1.76.87,3.14,3.14,0,0,0-.69,2,2.77,2.77,0,0,0,.75,2,2.42,2.42,0,0,0,1.84.8,2.35,2.35,0,0,0,1.41-.46A2.45,2.45,0,0,0,189.53,466.61Z"/><path class="cls-1" d="M199.74,462.71a4.81,4.81,0,0,0-2,.44,2.56,2.56,0,0,0-1.22,1.21v5.7h-2.41v-9.43h2.21v2a4.57,4.57,0,0,1,1.28-1.52,2.87,2.87,0,0,1,1.64-.61,2.72,2.72,0,0,1,.49,0Z"/><path class="cls-1" d="M200.38,467.28a2.63,2.63,0,0,1,1.12-2.22,4.72,4.72,0,0,1,2.93-.85,5.82,5.82,0,0,1,2.27.38v-.5a1.79,1.79,0,0,0-.53-1.39,2.32,2.32,0,0,0-1.58-.49,4,4,0,0,0-1.44.26,7.82,7.82,0,0,0-1.51.81l-.78-1.58a7.2,7.2,0,0,1,4-1.24,4.48,4.48,0,0,1,3.14,1,3.66,3.66,0,0,1,1.12,2.88v3a.85.85,0,0,0,.14.55.59.59,0,0,0,.45.19v2a5.65,5.65,0,0,1-1,.13,1.71,1.71,0,0,1-1.08-.31,1.29,1.29,0,0,1-.47-.81l-.05-.48a4.22,4.22,0,0,1-1.53,1.21,4.34,4.34,0,0,1-1.87.44,3.33,3.33,0,0,1-2.35-.85A2.72,2.72,0,0,1,200.38,467.28Zm5.87.48a1.24,1.24,0,0,0,.45-.83V466a4.83,4.83,0,0,0-1.89-.38,2.63,2.63,0,0,0-1.55.41,1.23,1.23,0,0,0-.6,1.06,1.26,1.26,0,0,0,.46,1,1.72,1.72,0,0,0,1.22.42,2.92,2.92,0,0,0,1-.2A2.54,2.54,0,0,0,206.25,467.76Z"/><path class="cls-1" d="M226,470.06H223.6v-5.29a2.9,2.9,0,0,0-.38-1.64,1.23,1.23,0,0,0-1.08-.54,2,2,0,0,0-1.35.56,3,3,0,0,0-.9,1.42v5.49h-2.42v-5.29c0-1.45-.48-2.18-1.46-2.18a2,2,0,0,0-1.35.55,3,3,0,0,0-.9,1.41v5.51h-2.41v-9.43h2.18v1.75A3.75,3.75,0,0,1,215,461a4.18,4.18,0,0,1,2.07-.51,2.72,2.72,0,0,1,1.79.56,2.46,2.46,0,0,1,.87,1.45,4.12,4.12,0,0,1,1.47-1.49,4,4,0,0,1,2-.52c1.88,0,2.83,1.24,2.83,3.71Z"/><path class="cls-1" d="M242.76,470.06h-2.41v-5.29a2.9,2.9,0,0,0-.38-1.64,1.23,1.23,0,0,0-1.08-.54,2,2,0,0,0-1.35.56,3,3,0,0,0-.9,1.42v5.49h-2.42v-5.29c0-1.45-.48-2.18-1.45-2.18a2,2,0,0,0-1.35.55,2.83,2.83,0,0,0-.9,1.41v5.51h-2.41v-9.43h2.18v1.75a3.66,3.66,0,0,1,1.43-1.41,4.18,4.18,0,0,1,2.07-.51,2.75,2.75,0,0,1,1.8.56,2.56,2.56,0,0,1,.87,1.45,4,4,0,0,1,1.46-1.49,4,4,0,0,1,2-.52c1.88,0,2.83,1.24,2.83,3.71Z"/><path class="cls-1" d="M244.21,467.28a2.63,2.63,0,0,1,1.12-2.22,4.72,4.72,0,0,1,2.93-.85,5.82,5.82,0,0,1,2.27.38v-.5a1.79,1.79,0,0,0-.53-1.39,2.3,2.3,0,0,0-1.58-.49,4,4,0,0,0-1.44.26,7.82,7.82,0,0,0-1.51.81l-.78-1.58a7.2,7.2,0,0,1,4-1.24,4.48,4.48,0,0,1,3.14,1,3.66,3.66,0,0,1,1.13,2.88v3a.85.85,0,0,0,.13.55.63.63,0,0,0,.45.19v2a5.65,5.65,0,0,1-1,.13,1.71,1.71,0,0,1-1.08-.31,1.29,1.29,0,0,1-.47-.81l-.05-.48a4.14,4.14,0,0,1-1.53,1.21,4.31,4.31,0,0,1-1.87.44,3.33,3.33,0,0,1-2.35-.85A2.72,2.72,0,0,1,244.21,467.28Zm5.87.48a1.24,1.24,0,0,0,.45-.83V466a4.83,4.83,0,0,0-1.89-.38,2.65,2.65,0,0,0-1.55.41,1.23,1.23,0,0,0-.6,1.06,1.29,1.29,0,0,0,.46,1,1.74,1.74,0,0,0,1.22.42,2.92,2.92,0,0,0,1.05-.2A2.54,2.54,0,0,0,250.08,467.76Z"/><path class="cls-1" d="M260.75,469.58a6.56,6.56,0,0,1-2.66.64,3.12,3.12,0,0,1-.95-.13,2.4,2.4,0,0,1-.78-.4,1.84,1.84,0,0,1-.53-.73,2.67,2.67,0,0,1-.2-1.06v-5.41H254.4v-1.86h1.23v-3.06h2.42v3.06h2v1.86h-2v4.6c0,.62.32.92.9.92a3.55,3.55,0,0,0,1.32-.34Z"/><path class="cls-1" d="M262,459.31v-2.39h2.4v2.39Zm0,10.75v-9.43h2.4v9.43Z"/><path class="cls-1" d="M271,470.24a5.41,5.41,0,0,1-2.07-.4,4.74,4.74,0,0,1-1.58-1.07,5.06,5.06,0,0,1-1-1.56,5.22,5.22,0,0,1,.24-4.29,4.57,4.57,0,0,1,1.74-1.78,5.14,5.14,0,0,1,2.64-.68,5,5,0,0,1,2.6.66,4.14,4.14,0,0,1,1.66,1.76l-2.35.72a2.12,2.12,0,0,0-.81-.79,2.25,2.25,0,0,0-1.12-.29,2.29,2.29,0,0,0-1.76.79,3.25,3.25,0,0,0,0,4.07,2.28,2.28,0,0,0,1.75.81,2.33,2.33,0,0,0,1.19-.32,1.69,1.69,0,0,0,.77-.8l2.36.72a3.9,3.9,0,0,1-1.64,1.78A5.13,5.13,0,0,1,271,470.24Z"/><path class="cls-1" d="M213.7,478.46h-4.09v10.6h-2.46v-10.6h-4.08v-2.18H213.7Z"/><path class="cls-1" d="M216.59,476.28l3.46,9.83,3.42-9.83h2.61l-4.85,12.78h-2.39L214,476.28Z"/><path class="cls-1" d="M438.59,457.28h2.52l4.7,12.78h-2.56l-1.19-3.18H437.6l-1.17,3.18h-2.56Zm3,7.85-1.76-5.27L438,465.13Z"/><path class="cls-1" d="M452.59,462.71a4.73,4.73,0,0,0-2,.44,2.63,2.63,0,0,0-1.23,1.21v5.7H447v-9.43h2.22v2a4.35,4.35,0,0,1,1.28-1.52,2.84,2.84,0,0,1,1.64-.61,2.59,2.59,0,0,1,.48,0Z"/><path class="cls-1" d="M459.59,469.58a6.56,6.56,0,0,1-2.67.64,3.21,3.21,0,0,1-.95-.13,2.46,2.46,0,0,1-.77-.4,1.67,1.67,0,0,1-.53-.73,2.67,2.67,0,0,1-.2-1.06v-5.41h-1.24v-1.86h1.24v-3.06h2.42v3.06h2v1.86h-2v4.6c0,.62.32.92.9.92a3.55,3.55,0,0,0,1.31-.34Z"/><path class="cls-1" d="M460.84,459.31v-2.39h2.41v2.39Zm0,10.75v-9.43h2.41v9.43Z"/><path class="cls-1" d="M466,463h-1.24v-1.84H466v-.57a3.78,3.78,0,0,1,1.05-2.72,3.65,3.65,0,0,1,2.79-1.1,6.29,6.29,0,0,1,3.49,1.18l-.95,1.79a4.22,4.22,0,0,0-1.12-.67,3.53,3.53,0,0,0-1.26-.25,1.48,1.48,0,0,0-1.17.48,1.79,1.79,0,0,0-.41,1.19v.67h5.05v8.93h-2.4V463h-2.65v7.09H466Z"/><path class="cls-1" d="M480.05,470.24a5.41,5.41,0,0,1-2.07-.4,4.74,4.74,0,0,1-1.58-1.07,5.06,5.06,0,0,1-1-1.56,5.22,5.22,0,0,1,.24-4.29,4.44,4.44,0,0,1,1.74-1.78,5.11,5.11,0,0,1,2.64-.68,5,5,0,0,1,2.6.66,4.14,4.14,0,0,1,1.66,1.76l-2.35.72a2.12,2.12,0,0,0-.81-.79,2.25,2.25,0,0,0-1.12-.29,2.29,2.29,0,0,0-1.76.79,3.25,3.25,0,0,0,0,4.07,2.27,2.27,0,0,0,1.75.81,2.33,2.33,0,0,0,1.19-.32,1.69,1.69,0,0,0,.77-.8l2.36.72a4,4,0,0,1-1.64,1.78A5.13,5.13,0,0,1,480.05,470.24Z"/><path class="cls-1" d="M485.8,459.31v-2.39h2.41v2.39Zm0,10.75v-9.43h2.41v9.43Z"/><path class="cls-1" d="M489.74,467.28a2.64,2.64,0,0,1,1.13-2.22,4.69,4.69,0,0,1,2.92-.85,5.79,5.79,0,0,1,2.27.38v-.5a1.79,1.79,0,0,0-.53-1.39,2.28,2.28,0,0,0-1.58-.49,4.13,4.13,0,0,0-1.44.26,7.49,7.49,0,0,0-1.5.81l-.78-1.58a7.18,7.18,0,0,1,4-1.24,4.51,4.51,0,0,1,3.14,1,3.66,3.66,0,0,1,1.12,2.88v3a.85.85,0,0,0,.13.55.63.63,0,0,0,.45.19v2a5.55,5.55,0,0,1-1,.13,1.68,1.68,0,0,1-1.07-.31,1.26,1.26,0,0,1-.48-.81l-.05-.48a4.11,4.11,0,0,1-1.52,1.21,4.35,4.35,0,0,1-1.88.44,3.35,3.35,0,0,1-2.35-.85A2.72,2.72,0,0,1,489.74,467.28Zm5.87.48a1.24,1.24,0,0,0,.45-.83V466a4.76,4.76,0,0,0-1.89-.38,2.65,2.65,0,0,0-1.55.41,1.24,1.24,0,0,0-.59,1.06,1.28,1.28,0,0,0,.45,1,1.77,1.77,0,0,0,1.23.42,3,3,0,0,0,1.05-.2A2.49,2.49,0,0,0,495.61,467.76Z"/><path class="cls-1" d="M500.7,456.92h2.41V467a1.39,1.39,0,0,0,.2.86.76.76,0,0,0,.61.24,2.67,2.67,0,0,0,1.13-.26l.33,1.84a5.1,5.1,0,0,1-1.12.35,5.74,5.74,0,0,1-1.18.13,2.41,2.41,0,0,1-1.75-.6,2.29,2.29,0,0,1-.63-1.72Z"/><path class="cls-1" d="M419,478.31v-2.39h2.41v2.39Zm0,10.75v-9.43h2.41v9.43Z"/><path class="cls-1" d="M432.34,489.06h-2.41v-5.29c0-1.45-.49-2.18-1.49-2.18a2.4,2.4,0,0,0-1.47.56,2.83,2.83,0,0,0-1,1.4v5.51h-2.41v-9.43h2.18v1.75a3.64,3.64,0,0,1,1.52-1.41,4.83,4.83,0,0,1,2.22-.51,3.13,3.13,0,0,1,1.2.22,2.17,2.17,0,0,1,.82.56,2.68,2.68,0,0,1,.5.84,4.76,4.76,0,0,1,.26,1,9.18,9.18,0,0,1,.06,1.09Z"/><path class="cls-1" d="M440,488.58a6.56,6.56,0,0,1-2.66.64,3.12,3.12,0,0,1-.95-.13,2.4,2.4,0,0,1-.78-.4,1.84,1.84,0,0,1-.53-.73,2.68,2.68,0,0,1-.19-1.06v-5.41h-1.24v-1.86h1.24v-3.06h2.41v3.06h2v1.86h-2v4.6c0,.62.32.92.9.92a3.55,3.55,0,0,0,1.32-.34Z"/><path class="cls-1" d="M445.55,489.24a5.12,5.12,0,0,1-2.63-.67,4.62,4.62,0,0,1-1.75-1.76,5,5,0,0,1-.59-2.41,5.26,5.26,0,0,1,.59-2.46,4.58,4.58,0,0,1,1.75-1.8,5.15,5.15,0,0,1,2.65-.68,5.29,5.29,0,0,1,2.06.4,4.47,4.47,0,0,1,1.56,1.07,4.79,4.79,0,0,1,.95,1.54,4.93,4.93,0,0,1,.34,1.84,5.82,5.82,0,0,1-.05.81h-7.3a2.48,2.48,0,0,0,.81,1.71,2.43,2.43,0,0,0,1.7.65,2.78,2.78,0,0,0,1.37-.36,1.82,1.82,0,0,0,.86-.92l2.07.58a4.07,4.07,0,0,1-1.69,1.78A5.31,5.31,0,0,1,445.55,489.24Zm-2.47-5.65H448a2.64,2.64,0,0,0-.79-1.72,2.47,2.47,0,0,0-3.36,0A2.59,2.59,0,0,0,443.08,483.59Z"/><path class="cls-1" d="M451.93,475.92h2.41V486a1.39,1.39,0,0,0,.2.86.76.76,0,0,0,.61.24,2.67,2.67,0,0,0,1.13-.26l.33,1.84a5.1,5.1,0,0,1-1.12.35,5.76,5.76,0,0,1-1.19.13,2.39,2.39,0,0,1-1.74-.6,2.29,2.29,0,0,1-.63-1.72Z"/><path class="cls-1" d="M457.64,475.92H460V486a1.32,1.32,0,0,0,.21.86.73.73,0,0,0,.6.24,2.71,2.71,0,0,0,1.14-.26l.32,1.84a5,5,0,0,1-1.11.35,5.84,5.84,0,0,1-1.19.13,2.43,2.43,0,0,1-1.75-.6,2.28,2.28,0,0,1-.62-1.72Z"/><path class="cls-1" d="M463.36,478.31v-2.39h2.41v2.39Zm0,10.75v-9.43h2.41v9.43Z"/><path class="cls-1" d="M467.38,484.34a5.43,5.43,0,0,1,.56-2.46,4.37,4.37,0,0,1,1.56-1.76,4.08,4.08,0,0,1,2.28-.66,3.76,3.76,0,0,1,1.9.49,4.2,4.2,0,0,1,1.39,1.33v-1.65h2.11v9a4.16,4.16,0,0,1-.68,2.39,4.23,4.23,0,0,1-1.86,1.55,6.59,6.59,0,0,1-2.69.53,6.06,6.06,0,0,1-2.56-.5,5.46,5.46,0,0,1-1.86-1.47l1.31-1.27a4,4,0,0,0,1.37,1,4.16,4.16,0,0,0,1.74.38,3.49,3.49,0,0,0,1.08-.16,2.62,2.62,0,0,0,.89-.47,2,2,0,0,0,.62-.83,2.94,2.94,0,0,0,.23-1.19v-1.18a3.2,3.2,0,0,1-1.31,1.24,4,4,0,0,1-4-.21,4.19,4.19,0,0,1-1.51-1.74A5.27,5.27,0,0,1,467.38,484.34Zm7.39,1.27v-2.25a3,3,0,0,0-1-1.33,2.42,2.42,0,0,0-1.46-.51,2.16,2.16,0,0,0-1.76.87,3.14,3.14,0,0,0-.69,2,2.77,2.77,0,0,0,.75,2,2.44,2.44,0,0,0,1.85.8,2.35,2.35,0,0,0,1.41-.46A2.51,2.51,0,0,0,474.77,485.61Z"/><path class="cls-1" d="M483.73,489.24a5.12,5.12,0,0,1-2.63-.67,4.62,4.62,0,0,1-1.75-1.76,5,5,0,0,1-.59-2.41,5.26,5.26,0,0,1,.59-2.46,4.58,4.58,0,0,1,1.75-1.8,5.15,5.15,0,0,1,2.65-.68,5.29,5.29,0,0,1,2.06.4,4.47,4.47,0,0,1,1.56,1.07,4.79,4.79,0,0,1,.95,1.54,4.93,4.93,0,0,1,.34,1.84,5.82,5.82,0,0,1-.05.81h-7.3a2.48,2.48,0,0,0,.81,1.71,2.43,2.43,0,0,0,1.7.65,2.78,2.78,0,0,0,1.37-.36,1.82,1.82,0,0,0,.86-.92l2.07.58a4.07,4.07,0,0,1-1.69,1.78A5.31,5.31,0,0,1,483.73,489.24Zm-2.47-5.65h4.93a2.64,2.64,0,0,0-.79-1.72,2.47,2.47,0,0,0-3.36,0A2.59,2.59,0,0,0,481.26,483.59Z"/><path class="cls-1" d="M498.89,489.06h-2.41v-5.29c0-1.45-.49-2.18-1.49-2.18a2.4,2.4,0,0,0-1.47.56,2.83,2.83,0,0,0-1,1.4v5.51h-2.41v-9.43h2.18v1.75a3.64,3.64,0,0,1,1.52-1.41,4.83,4.83,0,0,1,2.22-.51,3.13,3.13,0,0,1,1.2.22,2.09,2.09,0,0,1,.82.56,2.5,2.5,0,0,1,.5.84,4.76,4.76,0,0,1,.26,1,9.18,9.18,0,0,1,.06,1.09Z"/><path class="cls-1" d="M505.39,489.24a5.41,5.41,0,0,1-2.07-.4,4.74,4.74,0,0,1-1.58-1.07,5.06,5.06,0,0,1-1-1.56,5.12,5.12,0,0,1,.24-4.29,4.44,4.44,0,0,1,1.74-1.78,5.09,5.09,0,0,1,2.64-.68,5,5,0,0,1,2.6.66,4.14,4.14,0,0,1,1.66,1.76l-2.35.72a2.12,2.12,0,0,0-.81-.79,2.25,2.25,0,0,0-1.12-.29,2.29,2.29,0,0,0-1.76.79,3.25,3.25,0,0,0,0,4.07,2.27,2.27,0,0,0,1.75.81,2.33,2.33,0,0,0,1.19-.32,1.69,1.69,0,0,0,.77-.8l2.36.72a4,4,0,0,1-1.64,1.78A5.15,5.15,0,0,1,505.39,489.24Z"/><path class="cls-1" d="M515.43,489.24a5.12,5.12,0,0,1-2.63-.67,4.59,4.59,0,0,1-1.74-1.76,4.92,4.92,0,0,1-.6-2.41,5.15,5.15,0,0,1,.6-2.46,4.56,4.56,0,0,1,1.74-1.8,5.17,5.17,0,0,1,2.65-.68,5.29,5.29,0,0,1,2.06.4,4.47,4.47,0,0,1,1.56,1.07,5,5,0,0,1,1,1.54,5.13,5.13,0,0,1,.33,1.84,4.59,4.59,0,0,1-.05.81H513a2.47,2.47,0,0,0,2.5,2.36,2.75,2.75,0,0,0,1.37-.36,1.82,1.82,0,0,0,.86-.92l2.07.58a4.07,4.07,0,0,1-1.69,1.78A5.31,5.31,0,0,1,515.43,489.24ZM513,483.59h4.93a2.64,2.64,0,0,0-.79-1.72,2.46,2.46,0,0,0-3.35,0A2.55,2.55,0,0,0,513,483.59Z"/><path class="cls-1" d="M322.64,461.85v8.21h-2.48V457.28h2l6.6,8.42v-8.4h2.49v12.76h-2.07Z"/><path class="cls-1" d="M332.9,467.28a2.63,2.63,0,0,1,1.12-2.22,4.72,4.72,0,0,1,2.93-.85,5.77,5.77,0,0,1,2.26.38v-.5a1.75,1.75,0,0,0-.53-1.39,2.28,2.28,0,0,0-1.58-.49,4.13,4.13,0,0,0-1.44.26,8.07,8.07,0,0,0-1.5.81l-.78-1.58a7.2,7.2,0,0,1,4-1.24,4.48,4.48,0,0,1,3.14,1,3.66,3.66,0,0,1,1.12,2.88v3a.92.92,0,0,0,.13.55.63.63,0,0,0,.45.19v2a5.45,5.45,0,0,1-1,.13,1.68,1.68,0,0,1-1.07-.31,1.25,1.25,0,0,1-.47-.81l-.06-.48a4.11,4.11,0,0,1-1.52,1.21,4.35,4.35,0,0,1-1.88.44,3.32,3.32,0,0,1-2.34-.85A2.72,2.72,0,0,1,332.9,467.28Zm5.87.48a1.26,1.26,0,0,0,.44-.83V466a4.76,4.76,0,0,0-1.89-.38,2.62,2.62,0,0,0-1.54.41,1.23,1.23,0,0,0-.6,1.06,1.26,1.26,0,0,0,.46,1,1.72,1.72,0,0,0,1.22.42,2.92,2.92,0,0,0,1.05-.2A2.54,2.54,0,0,0,338.77,467.76Z"/><path class="cls-1" d="M349.44,469.58a6.6,6.6,0,0,1-2.67.64,3.21,3.21,0,0,1-.95-.13,2.46,2.46,0,0,1-.77-.4,1.77,1.77,0,0,1-.54-.73,2.86,2.86,0,0,1-.19-1.06v-5.41h-1.24v-1.86h1.24v-3.06h2.42v3.06h2v1.86h-2v4.6c0,.62.31.92.89.92a3.55,3.55,0,0,0,1.32-.34Z"/><path class="cls-1" d="M350.69,459.31v-2.39h2.41v2.39Zm0,10.75v-9.43h2.41v9.43Z"/><path class="cls-1" d="M357.82,470.06l-3.48-9.43h2.51l2.37,7.24,2.4-7.24h2.28l-3.45,9.43Z"/><path class="cls-1" d="M369.23,470.24a5.09,5.09,0,0,1-2.63-.67,4.55,4.55,0,0,1-1.75-1.76,4.92,4.92,0,0,1-.6-2.41,5.15,5.15,0,0,1,.6-2.46,4.52,4.52,0,0,1,1.75-1.8,5.15,5.15,0,0,1,2.65-.68,5.33,5.33,0,0,1,2.06.4,4.34,4.34,0,0,1,1.55,1.07,4.65,4.65,0,0,1,1,1.54,4.93,4.93,0,0,1,.34,1.84,5.82,5.82,0,0,1-.05.81h-7.3a2.48,2.48,0,0,0,.81,1.71,2.43,2.43,0,0,0,1.7.65,2.71,2.71,0,0,0,1.36-.36,1.8,1.8,0,0,0,.87-.92l2.07.58a4.1,4.1,0,0,1-1.7,1.78A5.24,5.24,0,0,1,369.23,470.24Zm-2.47-5.65h4.93a2.65,2.65,0,0,0-.8-1.72,2.46,2.46,0,0,0-3.35,0A2.59,2.59,0,0,0,366.76,464.59Z"/><path class="cls-1" d="M593.21,470.06v-8.38l-3.27,6.24h-1.39l-3.28-6.24v8.38h-2.48V457.28h2.66l3.78,7.27,3.82-7.27h2.64v12.78Z"/><path class="cls-1" d="M597.36,465.36a5.09,5.09,0,0,1,.35-1.87,5,5,0,0,1,1-1.56,4.42,4.42,0,0,1,1.57-1.07,5.36,5.36,0,0,1,2.06-.4,5,5,0,0,1,2.62.69,4.55,4.55,0,0,1,1.73,1.78,5.25,5.25,0,0,1,.58,2.43,5.07,5.07,0,0,1-.34,1.86,5,5,0,0,1-1,1.56,4.53,4.53,0,0,1-1.57,1.06,5.12,5.12,0,0,1-2.06.4,5.55,5.55,0,0,1-1.7-.26,4.53,4.53,0,0,1-1.38-.72,5.13,5.13,0,0,1-1-1.06,4.73,4.73,0,0,1-.64-1.34A5,5,0,0,1,597.36,465.36Zm5,2.83a2.22,2.22,0,0,0,1.75-.81,3,3,0,0,0,.71-2,3,3,0,0,0-.71-2,2.32,2.32,0,0,0-3.51,0,3,3,0,0,0-.71,2,2.91,2.91,0,0,0,.71,2A2.26,2.26,0,0,0,602.32,468.19Z"/><path class="cls-1" d="M611,468.43v1.63h-2.11V456.92h2.41v5.36a3.59,3.59,0,0,1,1.34-1.34,3.7,3.7,0,0,1,1.9-.48,3.64,3.64,0,0,1,2.15.68,4.4,4.4,0,0,1,1.46,1.8,5.84,5.84,0,0,1,.51,2.45,5.29,5.29,0,0,1-.57,2.45,4.44,4.44,0,0,1-1.59,1.76,4.18,4.18,0,0,1-2.25.64,3.79,3.79,0,0,1-1.91-.48A3.43,3.43,0,0,1,611,468.43Zm5.19-3a3.09,3.09,0,0,0-.7-2,2.24,2.24,0,0,0-3.19-.33,3.36,3.36,0,0,0-1,1.32v2.25a2.21,2.21,0,0,0,.9,1.14,2.53,2.53,0,0,0,1.38.44,2.41,2.41,0,0,0,1.87-.81A2.84,2.84,0,0,0,616.17,465.4Z"/><path class="cls-1" d="M620.28,459.31v-2.39h2.4v2.39Zm0,10.75v-9.43h2.4v9.43Z"/><path class="cls-1" d="M624.85,456.92h2.4V467a1.32,1.32,0,0,0,.21.86.73.73,0,0,0,.6.24,2.71,2.71,0,0,0,1.14-.26l.32,1.84a5,5,0,0,1-1.11.35,5.84,5.84,0,0,1-1.19.13,2.43,2.43,0,0,1-1.75-.6,2.28,2.28,0,0,1-.62-1.72Z"/><path class="cls-1" d="M634.94,470.24a5.06,5.06,0,0,1-2.62-.67,4.55,4.55,0,0,1-1.75-1.76,4.92,4.92,0,0,1-.6-2.41,5.15,5.15,0,0,1,.6-2.46,4.52,4.52,0,0,1,1.75-1.8,5.11,5.11,0,0,1,2.64-.68,5.29,5.29,0,0,1,2.06.4,4.29,4.29,0,0,1,1.56,1.07,5,5,0,0,1,1,1.54,5.14,5.14,0,0,1,.34,1.84,4.47,4.47,0,0,1-.06.81h-7.29a2.48,2.48,0,0,0,.81,1.71,2.41,2.41,0,0,0,1.69.65,2.75,2.75,0,0,0,1.37-.36,1.82,1.82,0,0,0,.86-.92l2.07.58a4.07,4.07,0,0,1-1.69,1.78A5.31,5.31,0,0,1,634.94,470.24Zm-2.47-5.65h4.94a2.7,2.7,0,0,0-.8-1.72,2.46,2.46,0,0,0-3.35,0A2.55,2.55,0,0,0,632.47,464.59Z"/><path class="cls-1" d="M694.13,457.28h2.52l4.69,12.78h-2.55l-1.19-3.18h-4.47L692,470.06h-2.55Zm3,7.85-1.77-5.27-1.83,5.27Z"/><path class="cls-1" d="M701.66,465.34a5.61,5.61,0,0,1,.54-2.46,4.23,4.23,0,0,1,1.5-1.76,3.79,3.79,0,0,1,2.18-.66,3.59,3.59,0,0,1,1.85.5,3.74,3.74,0,0,1,1.33,1.32v-5.36h2.42v10.44a.93.93,0,0,0,.12.55.56.56,0,0,0,.43.19v2a5.86,5.86,0,0,1-1,.13,1.76,1.76,0,0,1-1.07-.32,1.17,1.17,0,0,1-.47-.85l0-.59a3.47,3.47,0,0,1-1.4,1.34,4,4,0,0,1-1.88.47,4.28,4.28,0,0,1-2.31-.65,4.48,4.48,0,0,1-1.6-1.77A5.39,5.39,0,0,1,701.66,465.34Zm7.4,1.27v-2.25a2.91,2.91,0,0,0-1-1.31,2.35,2.35,0,0,0-1.43-.53,2.19,2.19,0,0,0-1.76.86,3.07,3.07,0,0,0-.71,2,2.81,2.81,0,0,0,.75,2,2.43,2.43,0,0,0,1.86.8,2.46,2.46,0,0,0,1.38-.45A2.25,2.25,0,0,0,709.06,466.61Z"/><path class="cls-1" d="M716.35,470.06l-3.48-9.43h2.5l2.37,7.24,2.4-7.24h2.29L719,470.06Z"/><path class="cls-1" d="M727.75,470.24a5.12,5.12,0,0,1-2.63-.67,4.59,4.59,0,0,1-1.74-1.76,4.92,4.92,0,0,1-.6-2.41,5.15,5.15,0,0,1,.6-2.46,4.56,4.56,0,0,1,1.74-1.8,5.17,5.17,0,0,1,2.65-.68,5.29,5.29,0,0,1,2.06.4,4.38,4.38,0,0,1,1.56,1.07,5,5,0,0,1,1,1.54,5.13,5.13,0,0,1,.33,1.84,4.59,4.59,0,0,1,0,.81h-7.29a2.47,2.47,0,0,0,2.5,2.36,2.75,2.75,0,0,0,1.37-.36,1.82,1.82,0,0,0,.86-.92l2.07.58a4.07,4.07,0,0,1-1.69,1.78A5.31,5.31,0,0,1,727.75,470.24Zm-2.47-5.65h4.93a2.64,2.64,0,0,0-.79-1.72,2.46,2.46,0,0,0-3.35,0A2.55,2.55,0,0,0,725.28,464.59Z"/><path class="cls-1" d="M739.77,462.71a4.73,4.73,0,0,0-2,.44,2.58,2.58,0,0,0-1.23,1.21v5.7h-2.41v-9.43h2.22v2a4.43,4.43,0,0,1,1.27-1.52,2.87,2.87,0,0,1,1.65-.61,2.59,2.59,0,0,1,.48,0Z"/><path class="cls-1" d="M746.76,469.58a6.52,6.52,0,0,1-2.66.64,3.21,3.21,0,0,1-1-.13,2.46,2.46,0,0,1-.77-.4,1.77,1.77,0,0,1-.54-.73,2.68,2.68,0,0,1-.19-1.06v-5.41h-1.24v-1.86h1.24v-3.06h2.42v3.06h2v1.86h-2v4.6c0,.62.31.92.89.92a3.55,3.55,0,0,0,1.32-.34Z"/><path class="cls-1" d="M748,459.31v-2.39h2.41v2.39Zm0,10.75v-9.43h2.41v9.43Z"/><path class="cls-1" d="M756.08,470.24a6.66,6.66,0,0,1-2.32-.41,5.1,5.1,0,0,1-1.87-1.16l.86-1.56a5.33,5.33,0,0,0,3.24,1.34,2.15,2.15,0,0,0,1.13-.26.85.85,0,0,0,.42-.76,1.23,1.23,0,0,0,0-.2.76.76,0,0,0-.09-.18l-.12-.14a.56.56,0,0,0-.18-.13l-.22-.11-.29-.1-.3-.1-.36-.1-.4-.12c-.46-.15-.84-.28-1.14-.4a6.13,6.13,0,0,1-.86-.41,2.57,2.57,0,0,1-.65-.5,2.18,2.18,0,0,1-.37-.63,2.31,2.31,0,0,1-.13-.82,2.7,2.7,0,0,1,1-2.22,4.38,4.38,0,0,1,2.78-.82,5,5,0,0,1,3.54,1.33l-1,1.53a4.5,4.5,0,0,0-2.68-1.08,2.18,2.18,0,0,0-1,.23.78.78,0,0,0-.41.75.75.75,0,0,0,.37.69,5.79,5.79,0,0,0,1.34.49l1.24.4a7.34,7.34,0,0,1,.94.4,2.71,2.71,0,0,1,.74.52,2,2,0,0,1,.41.65,2.29,2.29,0,0,1,.16.9,2.62,2.62,0,0,1-1,2.18A4.42,4.42,0,0,1,756.08,470.24Z"/><path class="cls-1" d="M761.49,459.31v-2.39h2.41v2.39Zm0,10.75v-9.43h2.41v9.43Z"/><path class="cls-1" d="M774.85,470.06h-2.41v-5.29c0-1.45-.5-2.18-1.5-2.18a2.44,2.44,0,0,0-1.47.56,2.9,2.9,0,0,0-1,1.4v5.51h-2.41v-9.43h2.18v1.75a3.61,3.61,0,0,1,1.53-1.41,4.78,4.78,0,0,1,2.22-.51,3.21,3.21,0,0,1,1.2.22,2.25,2.25,0,0,1,.82.56,2.88,2.88,0,0,1,.5.84,4.72,4.72,0,0,1,.25,1,9.08,9.08,0,0,1,.07,1.09Z"/><path class="cls-1" d="M776.38,465.34a5.43,5.43,0,0,1,.56-2.46,4.37,4.37,0,0,1,1.56-1.76,4.08,4.08,0,0,1,2.28-.66,3.76,3.76,0,0,1,1.9.49,4.2,4.2,0,0,1,1.39,1.33v-1.65h2.11v9a4.16,4.16,0,0,1-.68,2.39,4.23,4.23,0,0,1-1.86,1.55,6.59,6.59,0,0,1-2.69.53,6.06,6.06,0,0,1-2.56-.5,5.46,5.46,0,0,1-1.86-1.47l1.31-1.27a4,4,0,0,0,1.37,1,4.16,4.16,0,0,0,1.74.38,3.49,3.49,0,0,0,1.08-.16,2.62,2.62,0,0,0,.89-.47,2,2,0,0,0,.62-.83,2.94,2.94,0,0,0,.23-1.19v-1.18a3.2,3.2,0,0,1-1.31,1.24,4,4,0,0,1-4-.21,4.19,4.19,0,0,1-1.51-1.74A5.27,5.27,0,0,1,776.38,465.34Zm7.39,1.27v-2.25a3,3,0,0,0-1-1.33,2.42,2.42,0,0,0-1.46-.51,2.16,2.16,0,0,0-1.76.87,3.14,3.14,0,0,0-.69,2,2.77,2.77,0,0,0,.75,2,2.44,2.44,0,0,0,1.85.8,2.35,2.35,0,0,0,1.41-.46A2.51,2.51,0,0,0,783.77,466.61Z"/><path class="cls-1" d="M680.68,484.36a4.9,4.9,0,0,1,.35-1.87,5,5,0,0,1,1-1.56,4.42,4.42,0,0,1,1.57-1.07,5.36,5.36,0,0,1,2.06-.4,5,5,0,0,1,2.63.69,4.59,4.59,0,0,1,1.72,1.78,5.13,5.13,0,0,1,.58,2.43,5.07,5.07,0,0,1-.34,1.86,5,5,0,0,1-1,1.56,4.58,4.58,0,0,1-1.56,1.06,5.2,5.2,0,0,1-2.07.4,5.44,5.44,0,0,1-1.69-.26,4.31,4.31,0,0,1-1.38-.72,4.66,4.66,0,0,1-1-1.06,4.5,4.5,0,0,1-.65-1.34A5.33,5.33,0,0,1,680.68,484.36Zm5,2.83a2.22,2.22,0,0,0,1.75-.81,3,3,0,0,0,.71-2,2.9,2.9,0,0,0-.71-2,2.3,2.3,0,0,0-3.5,0,3.24,3.24,0,0,0,0,4.06A2.26,2.26,0,0,0,685.63,487.19Z"/><path class="cls-1" d="M694.59,487.41v5.48h-2.41V479.63h2.11v1.62a3.81,3.81,0,0,1,1.37-1.31,3.7,3.7,0,0,1,1.88-.48,4.07,4.07,0,0,1,2.26.66,4.53,4.53,0,0,1,1.59,1.77,5.3,5.3,0,0,1,.56,2.44,5.8,5.8,0,0,1-.52,2.48,4.48,4.48,0,0,1-1.48,1.78,3.88,3.88,0,0,1-4,.16A3.47,3.47,0,0,1,694.59,487.41Zm4.89-3.08a2.86,2.86,0,0,0-.74-2,2.45,2.45,0,0,0-3.24-.36,2.29,2.29,0,0,0-.91,1.13v2.22a3.16,3.16,0,0,0,1,1.34,2.31,2.31,0,0,0,1.43.53,2.2,2.2,0,0,0,1.77-.85A3.1,3.1,0,0,0,699.48,484.33Z"/><path class="cls-1" d="M706,487.41v5.48h-2.41V479.63h2.11v1.62a3.74,3.74,0,0,1,1.37-1.31,3.68,3.68,0,0,1,1.88-.48,4.07,4.07,0,0,1,2.26.66,4.43,4.43,0,0,1,1.58,1.77,5.31,5.31,0,0,1,.57,2.44,5.66,5.66,0,0,1-.53,2.48,4.37,4.37,0,0,1-1.47,1.78,3.88,3.88,0,0,1-4,.16A3.47,3.47,0,0,1,706,487.41Zm4.89-3.08a2.82,2.82,0,0,0-.75-2,2.4,2.4,0,0,0-1.86-.81,2.43,2.43,0,0,0-1.37.45,2.24,2.24,0,0,0-.91,1.13v2.22a3.16,3.16,0,0,0,1,1.34,2.31,2.31,0,0,0,1.43.53,2.16,2.16,0,0,0,1.76-.85A3.06,3.06,0,0,0,710.89,484.33Z"/><path class="cls-1" d="M714.4,484.36a5.09,5.09,0,0,1,.35-1.87,4.85,4.85,0,0,1,1-1.56,4.29,4.29,0,0,1,1.56-1.07,5.38,5.38,0,0,1,2.07-.4,5,5,0,0,1,2.62.69,4.52,4.52,0,0,1,1.72,1.78,5.14,5.14,0,0,1,.59,2.43,5.08,5.08,0,0,1-.35,1.86,5,5,0,0,1-1,1.56,4.4,4.4,0,0,1-1.56,1.06,5.15,5.15,0,0,1-2.06.4,5.5,5.5,0,0,1-1.7-.26,4.31,4.31,0,0,1-1.38-.72,5.13,5.13,0,0,1-1-1.06,4.47,4.47,0,0,1-.64-1.34A5,5,0,0,1,714.4,484.36Zm5,2.83a2.24,2.24,0,0,0,1.75-.81,3,3,0,0,0,.71-2,3,3,0,0,0-.71-2,2.32,2.32,0,0,0-3.51,0,3.28,3.28,0,0,0,0,4.06A2.27,2.27,0,0,0,719.36,487.19Z"/><path class="cls-1" d="M731.52,481.71a4.73,4.73,0,0,0-2,.44,2.63,2.63,0,0,0-1.23,1.21v5.7H725.9v-9.43h2.22v2a4.35,4.35,0,0,1,1.28-1.52,2.84,2.84,0,0,1,1.64-.61,2.59,2.59,0,0,1,.48,0Z"/><path class="cls-1" d="M738.52,488.58a6.6,6.6,0,0,1-2.67.64,3.21,3.21,0,0,1-1-.13,2.46,2.46,0,0,1-.77-.4,1.77,1.77,0,0,1-.54-.73,2.68,2.68,0,0,1-.19-1.06v-5.41h-1.24v-1.86h1.24v-3.06h2.42v3.06h2v1.86h-2v4.6c0,.62.31.92.89.92a3.55,3.55,0,0,0,1.32-.34Z"/><path class="cls-1" d="M739.69,485.54v-5.91h2.4V485c0,1.45.53,2.18,1.57,2.18a2.48,2.48,0,0,0,1.38-.44,3.18,3.18,0,0,0,1.05-1.27v-5.85h2.41v6.73a.85.85,0,0,0,.13.55.63.63,0,0,0,.45.19v2a6,6,0,0,1-1,.11,1.78,1.78,0,0,1-1.07-.3,1.11,1.11,0,0,1-.46-.82l-.06-.75a4.08,4.08,0,0,1-1.61,1.45,4.88,4.88,0,0,1-2.18.49,2.7,2.7,0,0,1-2.22-.94A4.36,4.36,0,0,1,739.69,485.54Z"/><path class="cls-1" d="M759.65,489.06h-2.4v-5.29c0-1.45-.5-2.18-1.5-2.18a2.4,2.4,0,0,0-1.47.56,2.83,2.83,0,0,0-1,1.4v5.51h-2.41v-9.43h2.18v1.75A3.61,3.61,0,0,1,754.6,480a4.76,4.76,0,0,1,2.21-.51,3.22,3.22,0,0,1,1.21.22,2.25,2.25,0,0,1,.82.56,2.66,2.66,0,0,1,.49.84,4.76,4.76,0,0,1,.26,1,9.18,9.18,0,0,1,.06,1.09Z"/><path class="cls-1" d="M761.75,478.31v-2.39h2.41v2.39Zm0,10.75v-9.43h2.41v9.43Z"/><path class="cls-1" d="M772,488.58a6.56,6.56,0,0,1-2.66.64,3.16,3.16,0,0,1-1-.13,2.35,2.35,0,0,1-.77-.4,1.77,1.77,0,0,1-.54-.73,2.68,2.68,0,0,1-.19-1.06v-5.41h-1.24v-1.86h1.24v-3.06h2.41v3.06h2v1.86h-2v4.6c0,.62.32.92.9.92a3.55,3.55,0,0,0,1.32-.34Z"/><path class="cls-1" d="M773.25,478.31v-2.39h2.41v2.39Zm0,10.75v-9.43h2.41v9.43Z"/><path class="cls-1" d="M782.21,489.24a5.08,5.08,0,0,1-2.62-.67,4.55,4.55,0,0,1-1.75-1.76,4.92,4.92,0,0,1-.6-2.41,5.15,5.15,0,0,1,.6-2.46,4.52,4.52,0,0,1,1.75-1.8,5.14,5.14,0,0,1,2.64-.68,5.29,5.29,0,0,1,2.06.4,4.29,4.29,0,0,1,1.56,1.07,5,5,0,0,1,1,1.54,5.14,5.14,0,0,1,.34,1.84,4.47,4.47,0,0,1-.06.81H779.8a2.48,2.48,0,0,0,.81,1.71,2.41,2.41,0,0,0,1.69.65,2.75,2.75,0,0,0,1.37-.36,1.88,1.88,0,0,0,.87-.92l2.06.58a4,4,0,0,1-1.69,1.78A5.31,5.31,0,0,1,782.21,489.24Zm-2.46-5.65h4.93a2.65,2.65,0,0,0-.8-1.72,2.46,2.46,0,0,0-3.35,0A2.5,2.5,0,0,0,779.75,483.59Z"/><path class="cls-1" d="M792.09,489.24a6.62,6.62,0,0,1-2.32-.41,5.14,5.14,0,0,1-1.88-1.16l.86-1.56a5.33,5.33,0,0,0,3.25,1.34,2.17,2.17,0,0,0,1.13-.26.86.86,0,0,0,.41-.76.65.65,0,0,0,0-.2.48.48,0,0,0-.08-.18l-.12-.14a.62.62,0,0,0-.19-.13l-.22-.11-.28-.1-.3-.1-.37-.1-.39-.12c-.47-.15-.85-.28-1.14-.4a5.75,5.75,0,0,1-.87-.41,2.57,2.57,0,0,1-.65-.5,2.16,2.16,0,0,1-.36-.63,2.31,2.31,0,0,1-.14-.82,2.68,2.68,0,0,1,1.05-2.22,4.33,4.33,0,0,1,2.77-.82,5,5,0,0,1,3.55,1.33l-1,1.53a4.47,4.47,0,0,0-2.68-1.08,2.2,2.2,0,0,0-1,.23.79.79,0,0,0-.41.75.77.77,0,0,0,.37.69,5.92,5.92,0,0,0,1.35.49l1.24.4a8,8,0,0,1,.94.4,2.88,2.88,0,0,1,.74.52,2.33,2.33,0,0,1,.41.65,2.49,2.49,0,0,1,.16.9,2.63,2.63,0,0,1-1,2.18A4.37,4.37,0,0,1,792.09,489.24Z"/><path class="cls-1" d="M683.36,498.63h2.28l-3.94,9.43h-2L678.1,504l-1.55,4.05h-2l-3.93-9.43h2.27l2.81,7.13,1.1-3.08-1.64-4h2l1,2.88,1-2.88h2l-1.64,4,1.12,3.08Z"/><path class="cls-1" d="M686.76,497.31v-2.39h2.41v2.39Zm0,10.75v-9.43h2.41v9.43Z"/><path class="cls-1" d="M697,507.58a6.56,6.56,0,0,1-2.67.64,3.21,3.21,0,0,1-1-.13,2.46,2.46,0,0,1-.77-.4,1.77,1.77,0,0,1-.54-.73,2.86,2.86,0,0,1-.19-1.06v-5.41h-1.24v-1.86h1.24v-3.06h2.42v3.06h2v1.86h-2v4.6c0,.62.32.92.9.92a3.51,3.51,0,0,0,1.31-.34Z"/><path class="cls-1" d="M707,508.06h-2.41v-5.29a2.7,2.7,0,0,0-.41-1.63,1.38,1.38,0,0,0-1.17-.55,2.28,2.28,0,0,0-1.4.56,3,3,0,0,0-1,1.4v5.51h-2.41V494.92h2.41v5.46a3.79,3.79,0,0,1,1.43-1.41,3.86,3.86,0,0,1,1.95-.51q3,0,3,3.71Z"/><path class="cls-1" d="M709.12,497.31v-2.39h2.41v2.39Zm0,10.75v-9.43h2.41v9.43Z"/><path class="cls-1" d="M722.47,508.06h-2.41v-5.29c0-1.45-.5-2.18-1.5-2.18a2.39,2.39,0,0,0-1.46.56,2.92,2.92,0,0,0-1,1.4v5.51h-2.4v-9.43h2.17v1.75a3.67,3.67,0,0,1,1.53-1.41,4.78,4.78,0,0,1,2.22-.51,3.17,3.17,0,0,1,1.2.22,2.17,2.17,0,0,1,.82.56,2.68,2.68,0,0,1,.5.84,4.72,4.72,0,0,1,.25,1,7.4,7.4,0,0,1,.07,1.09Z"/><path class="cls-1" d="M731.29,506.41v5.48h-2.41V498.63H731v1.62a3.9,3.9,0,0,1,1.37-1.31,3.73,3.73,0,0,1,1.88-.48,4.07,4.07,0,0,1,2.26.66,4.53,4.53,0,0,1,1.59,1.77,5.31,5.31,0,0,1,.57,2.44,5.81,5.81,0,0,1-.53,2.48,4.32,4.32,0,0,1-1.48,1.78,3.87,3.87,0,0,1-4,.16A3.43,3.43,0,0,1,731.29,506.41Zm4.9-3.08a2.82,2.82,0,0,0-.75-2,2.43,2.43,0,0,0-1.86-.81,2.46,2.46,0,0,0-1.38.45,2.29,2.29,0,0,0-.91,1.13v2.22a3.25,3.25,0,0,0,1,1.34,2.31,2.31,0,0,0,1.44.53,2.18,2.18,0,0,0,1.76-.85A3.06,3.06,0,0,0,736.19,503.33Z"/><path class="cls-1" d="M745.91,500.71a4.73,4.73,0,0,0-2,.44,2.63,2.63,0,0,0-1.23,1.21v5.7h-2.41v-9.43h2.22v2a4.35,4.35,0,0,1,1.28-1.52,2.81,2.81,0,0,1,1.63-.61,2.66,2.66,0,0,1,.49,0Z"/><path class="cls-1" d="M751.51,508.24a5.09,5.09,0,0,1-2.63-.67,4.55,4.55,0,0,1-1.75-1.76,4.92,4.92,0,0,1-.6-2.41,5.15,5.15,0,0,1,.6-2.46,4.52,4.52,0,0,1,1.75-1.8,5.14,5.14,0,0,1,2.64-.68,5.38,5.38,0,0,1,2.07.4,4.34,4.34,0,0,1,1.55,1.07,5,5,0,0,1,1,1.54,5.14,5.14,0,0,1,.34,1.84,4.47,4.47,0,0,1-.06.81h-7.29a2.48,2.48,0,0,0,.81,1.71,2.41,2.41,0,0,0,1.69.65,2.72,2.72,0,0,0,1.37-.36,1.88,1.88,0,0,0,.87-.92l2.06.58a4,4,0,0,1-1.69,1.78A5.27,5.27,0,0,1,751.51,508.24ZM749,502.59H754a2.65,2.65,0,0,0-.8-1.72,2.46,2.46,0,0,0-3.35,0A2.59,2.59,0,0,0,749,502.59Z"/><path class="cls-1" d="M772.56,508.06h-2.41v-5.29a2.9,2.9,0,0,0-.38-1.64,1.23,1.23,0,0,0-1.08-.54,2,2,0,0,0-1.35.56,3,3,0,0,0-.9,1.42v5.49H764v-5.29c0-1.45-.48-2.18-1.46-2.18a2,2,0,0,0-1.35.55,3,3,0,0,0-.9,1.41v5.51H757.9v-9.43h2.18v1.75a3.75,3.75,0,0,1,1.44-1.41,4.18,4.18,0,0,1,2.07-.51,2.72,2.72,0,0,1,1.79.56,2.51,2.51,0,0,1,.87,1.45,4,4,0,0,1,1.47-1.49,4,4,0,0,1,2-.52c1.88,0,2.83,1.24,2.83,3.71Z"/><path class="cls-1" d="M774.66,497.31v-2.39h2.4v2.39Zm0,10.75v-9.43h2.4v9.43Z"/><path class="cls-1" d="M779.16,504.54v-5.91h2.4V504c0,1.45.53,2.18,1.57,2.18a2.43,2.43,0,0,0,1.38-.44,3.18,3.18,0,0,0,1-1.27v-5.85H788v6.73a.92.92,0,0,0,.13.55.63.63,0,0,0,.45.19v2a5.85,5.85,0,0,1-1,.11,1.73,1.73,0,0,1-1.06-.3,1.12,1.12,0,0,1-.47-.82l-.06-.75a4.12,4.12,0,0,1-1.6,1.45,5,5,0,0,1-2.19.49,2.7,2.7,0,0,1-2.22-.94A4.36,4.36,0,0,1,779.16,504.54Z"/><path class="cls-1" d="M805,508.06h-2.4v-5.29a2.9,2.9,0,0,0-.38-1.64,1.23,1.23,0,0,0-1.08-.54,2,2,0,0,0-1.35.56,3,3,0,0,0-.9,1.42v5.49h-2.42v-5.29c0-1.45-.49-2.18-1.46-2.18a2,2,0,0,0-1.35.55,3,3,0,0,0-.9,1.41v5.51h-2.41v-9.43h2.18v1.75A3.62,3.62,0,0,1,794,499a4.18,4.18,0,0,1,2.07-.51,2.74,2.74,0,0,1,1.79.56,2.56,2.56,0,0,1,.87,1.45,4,4,0,0,1,1.47-1.49,4,4,0,0,1,2-.52q2.84,0,2.83,3.71Z"/><path class="cls-1" d="M696.5,525.41v5.48h-2.41V517.63h2.11v1.62a3.74,3.74,0,0,1,1.37-1.31,3.68,3.68,0,0,1,1.88-.48,4.07,4.07,0,0,1,2.26.66,4.43,4.43,0,0,1,1.58,1.77,5.31,5.31,0,0,1,.57,2.44,5.66,5.66,0,0,1-.53,2.48,4.37,4.37,0,0,1-1.47,1.78,3.88,3.88,0,0,1-4,.16A3.47,3.47,0,0,1,696.5,525.41Zm4.89-3.08a2.82,2.82,0,0,0-.75-2,2.4,2.4,0,0,0-1.86-.81,2.46,2.46,0,0,0-1.38.45,2.27,2.27,0,0,0-.9,1.13v2.22a3.16,3.16,0,0,0,1,1.34,2.31,2.31,0,0,0,1.43.53,2.16,2.16,0,0,0,1.76-.85A3.06,3.06,0,0,0,701.39,522.33Z"/><path class="cls-1" d="M705.41,523.54v-5.91h2.41V523c0,1.45.52,2.18,1.56,2.18a2.43,2.43,0,0,0,1.38-.44,3.18,3.18,0,0,0,1-1.27v-5.85h2.41v6.73a.85.85,0,0,0,.14.55.59.59,0,0,0,.44.19v2a5.85,5.85,0,0,1-1,.11,1.73,1.73,0,0,1-1.06-.3,1.12,1.12,0,0,1-.47-.82l-.05-.75a4.22,4.22,0,0,1-1.61,1.45,5,5,0,0,1-2.19.49,2.72,2.72,0,0,1-2.22-.94A4.36,4.36,0,0,1,705.41,523.54Z"/><path class="cls-1" d="M718.72,525.43v1.63h-2.11V513.92H719v5.36a3.66,3.66,0,0,1,1.34-1.34,3.76,3.76,0,0,1,1.91-.48,3.61,3.61,0,0,1,2.14.68,4.34,4.34,0,0,1,1.47,1.8,5.84,5.84,0,0,1,.51,2.45,5.29,5.29,0,0,1-.57,2.45,4.44,4.44,0,0,1-1.59,1.76,4.22,4.22,0,0,1-2.26.64,3.84,3.84,0,0,1-1.91-.48A3.56,3.56,0,0,1,718.72,525.43Zm5.2-3a3.1,3.1,0,0,0-.71-2,2.19,2.19,0,0,0-1.75-.85A2.21,2.21,0,0,0,720,520a3.48,3.48,0,0,0-1,1.32v2.25a2.23,2.23,0,0,0,.91,1.14,2.48,2.48,0,0,0,1.38.44,2.42,2.42,0,0,0,1.87-.81A2.84,2.84,0,0,0,723.92,522.4Z"/><path class="cls-1" d="M728,513.92h2.41V524a1.32,1.32,0,0,0,.21.86.73.73,0,0,0,.6.24,2.71,2.71,0,0,0,1.14-.26l.32,1.84a5.1,5.1,0,0,1-1.12.35,5.67,5.67,0,0,1-1.18.13,2.41,2.41,0,0,1-1.75-.6,2.29,2.29,0,0,1-.63-1.72Z"/><path class="cls-1" d="M733.73,516.31v-2.39h2.4v2.39Zm0,10.75v-9.43h2.4v9.43Z"/><path class="cls-1" d="M741.79,527.24a6.72,6.72,0,0,1-2.33-.41,5.19,5.19,0,0,1-1.87-1.16l.87-1.56a5.28,5.28,0,0,0,3.24,1.34,2.17,2.17,0,0,0,1.13-.26.84.84,0,0,0,.41-.76.65.65,0,0,0,0-.2.38.38,0,0,0-.09-.18l-.11-.14a.62.62,0,0,0-.19-.13l-.22-.11-.28-.1-.3-.1-.37-.1-.39-.12c-.47-.15-.85-.28-1.14-.4a5.75,5.75,0,0,1-.87-.41,2.76,2.76,0,0,1-.65-.5,2.16,2.16,0,0,1-.36-.63,2.31,2.31,0,0,1-.14-.82,2.68,2.68,0,0,1,1-2.22,4.36,4.36,0,0,1,2.78-.82,5,5,0,0,1,3.54,1.33l-1,1.53a4.47,4.47,0,0,0-2.68-1.08,2.13,2.13,0,0,0-1,.23.78.78,0,0,0-.42.75.75.75,0,0,0,.37.69,6.11,6.11,0,0,0,1.35.49c.52.16.93.29,1.23.4a7.45,7.45,0,0,1,1,.4,2.88,2.88,0,0,1,.74.52,2.33,2.33,0,0,1,.41.65,2.5,2.5,0,0,1,.15.9,2.62,2.62,0,0,1-1,2.18A4.37,4.37,0,0,1,741.79,527.24Z"/><path class="cls-1" d="M756,527.06h-2.41v-5.29a2.63,2.63,0,0,0-.41-1.63,1.36,1.36,0,0,0-1.17-.55,2.28,2.28,0,0,0-1.39.56,2.88,2.88,0,0,0-1,1.4v5.51H747.2V513.92h2.41v5.46A3.77,3.77,0,0,1,751,518a3.9,3.9,0,0,1,2-.51q3,0,3,3.71Z"/><path class="cls-1" d="M762.44,527.24a5.12,5.12,0,0,1-2.63-.67,4.55,4.55,0,0,1-1.75-1.76,4.92,4.92,0,0,1-.6-2.41,5.15,5.15,0,0,1,.6-2.46,4.52,4.52,0,0,1,1.75-1.8,5.15,5.15,0,0,1,2.65-.68,5.33,5.33,0,0,1,2.06.4,4.34,4.34,0,0,1,1.55,1.07,4.65,4.65,0,0,1,1,1.54,4.93,4.93,0,0,1,.34,1.84,5.82,5.82,0,0,1,0,.81H760a2.48,2.48,0,0,0,.81,1.71,2.43,2.43,0,0,0,1.7.65,2.71,2.71,0,0,0,1.36-.36,1.8,1.8,0,0,0,.87-.92l2.07.58a4.1,4.1,0,0,1-1.7,1.78A5.24,5.24,0,0,1,762.44,527.24ZM760,521.59h4.93a2.69,2.69,0,0,0-.79-1.72,2.38,2.38,0,0,0-1.69-.66,2.33,2.33,0,0,0-1.67.66A2.59,2.59,0,0,0,760,521.59Z"/><path class="cls-1" d="M774.46,519.71a4.78,4.78,0,0,0-2,.44,2.56,2.56,0,0,0-1.22,1.21v5.7h-2.41v-9.43h2.21v2a4.46,4.46,0,0,1,1.28-1.52,2.87,2.87,0,0,1,1.64-.61,2.79,2.79,0,0,1,.49,0Z"/><path class="cls-1" d="M779.27,527.24a6.66,6.66,0,0,1-2.32-.41,5.1,5.1,0,0,1-1.87-1.16l.86-1.56a5.31,5.31,0,0,0,3.24,1.34,2.15,2.15,0,0,0,1.13-.26.85.85,0,0,0,.42-.76,1.23,1.23,0,0,0,0-.2.76.76,0,0,0-.09-.18l-.12-.14a.56.56,0,0,0-.18-.13l-.22-.11-.28-.1-.31-.1-.36-.1-.4-.12c-.46-.15-.84-.28-1.13-.4a5.75,5.75,0,0,1-.87-.41,2.57,2.57,0,0,1-.65-.5,2.18,2.18,0,0,1-.37-.63,2.31,2.31,0,0,1-.13-.82,2.7,2.7,0,0,1,1-2.22,4.38,4.38,0,0,1,2.78-.82,5,5,0,0,1,3.54,1.33l-1,1.53a4.47,4.47,0,0,0-2.68-1.08,2.18,2.18,0,0,0-1,.23.78.78,0,0,0-.41.75.75.75,0,0,0,.37.69,5.79,5.79,0,0,0,1.34.49c.52.16.94.29,1.24.4a7.45,7.45,0,0,1,1,.4,2.64,2.64,0,0,1,.73.52,2,2,0,0,1,.41.65,2.29,2.29,0,0,1,.16.9,2.62,2.62,0,0,1-1,2.18A4.4,4.4,0,0,1,779.27,527.24Z"/><path class="cls-1" d="M830,457.21a5.93,5.93,0,0,1,3,.76,4.76,4.76,0,0,1,1.95,2L833,461.32a2.94,2.94,0,0,0-.85-1.13,3.2,3.2,0,0,0-1.1-.61,4.21,4.21,0,0,0-1.18-.17,3.58,3.58,0,0,0-1.62.37,3.33,3.33,0,0,0-1.17,1,4.82,4.82,0,0,0-.68,1.36,4.94,4.94,0,0,0-.24,1.53,4.86,4.86,0,0,0,.47,2.11,3.9,3.9,0,0,0,1.33,1.59,3.29,3.29,0,0,0,1.95.61,3.77,3.77,0,0,0,1.2-.19,3.31,3.31,0,0,0,1.13-.64,2.93,2.93,0,0,0,.82-1.11l2,1.17a3.93,3.93,0,0,1-1.24,1.6,6.1,6.1,0,0,1-1.91,1,6.59,6.59,0,0,1-2.1.34,5.85,5.85,0,0,1-2-.37,5.68,5.68,0,0,1-1.72-1,7.29,7.29,0,0,1-1.3-1.47,6.6,6.6,0,0,1-.85-1.8,6.74,6.74,0,0,1-.29-1.93,6.65,6.65,0,0,1,.43-2.31,7.27,7.27,0,0,1,1.22-2,5.79,5.79,0,0,1,2-1.46A6.29,6.29,0,0,1,830,457.21Z"/><path class="cls-1" d="M842.15,462.71a4.73,4.73,0,0,0-2,.44,2.63,2.63,0,0,0-1.23,1.21v5.7h-2.4v-9.43h2.21v2a4.35,4.35,0,0,1,1.28-1.52,2.84,2.84,0,0,1,1.64-.61,2.59,2.59,0,0,1,.48,0Z"/><path class="cls-1" d="M842.78,465.36a4.9,4.9,0,0,1,.35-1.87,5,5,0,0,1,1-1.56,4.42,4.42,0,0,1,1.57-1.07,5.36,5.36,0,0,1,2.06-.4,5,5,0,0,1,2.63.69,4.59,4.59,0,0,1,1.72,1.78,5.13,5.13,0,0,1,.58,2.43,5.07,5.07,0,0,1-.34,1.86,5,5,0,0,1-1,1.56,4.58,4.58,0,0,1-1.56,1.06,5.2,5.2,0,0,1-2.07.4A5.44,5.44,0,0,1,846,470a4.31,4.31,0,0,1-1.38-.72,4.66,4.66,0,0,1-1-1.06,4.5,4.5,0,0,1-.65-1.34A5.33,5.33,0,0,1,842.78,465.36Zm5,2.83a2.26,2.26,0,0,0,1.76-.81,3,3,0,0,0,.7-2,2.94,2.94,0,0,0-.7-2,2.33,2.33,0,0,0-3.52,0,3,3,0,0,0-.71,2,3,3,0,0,0,.71,2A2.26,2.26,0,0,0,847.73,468.19Z"/><path class="cls-1" d="M857.75,470.24a6.66,6.66,0,0,1-2.32-.41,5.19,5.19,0,0,1-1.87-1.16l.86-1.56a5.33,5.33,0,0,0,3.24,1.34,2.15,2.15,0,0,0,1.13-.26.85.85,0,0,0,.42-.76,1.23,1.23,0,0,0,0-.2.76.76,0,0,0-.09-.18l-.12-.14a.46.46,0,0,0-.18-.13l-.22-.11-.28-.1-.31-.1-.36-.1-.4-.12c-.46-.15-.84-.28-1.13-.4a5.75,5.75,0,0,1-.87-.41,2.57,2.57,0,0,1-.65-.5,2.18,2.18,0,0,1-.37-.63,2.31,2.31,0,0,1-.13-.82,2.7,2.7,0,0,1,1-2.22,4.38,4.38,0,0,1,2.78-.82,5,5,0,0,1,3.54,1.33l-1,1.53a4.47,4.47,0,0,0-2.68-1.08,2.2,2.2,0,0,0-1,.23.79.79,0,0,0-.41.75.75.75,0,0,0,.37.69,5.79,5.79,0,0,0,1.34.49c.52.16.94.29,1.24.4a7.45,7.45,0,0,1,1,.4,2.64,2.64,0,0,1,.73.52,2,2,0,0,1,.41.65,2.29,2.29,0,0,1,.16.9,2.62,2.62,0,0,1-1,2.18A4.4,4.4,0,0,1,857.75,470.24Z"/><path class="cls-1" d="M866.64,470.24a6.62,6.62,0,0,1-2.32-.41,5,5,0,0,1-1.87-1.16l.86-1.56a5.28,5.28,0,0,0,3.24,1.34,2.17,2.17,0,0,0,1.13-.26.85.85,0,0,0,.42-.76,1.23,1.23,0,0,0,0-.2.76.76,0,0,0-.09-.18l-.12-.14a.62.62,0,0,0-.19-.13l-.22-.11-.28-.1-.3-.1-.37-.1-.39-.12c-.46-.15-.84-.28-1.14-.4a5.64,5.64,0,0,1-.86-.41,2.64,2.64,0,0,1-.66-.5,2.16,2.16,0,0,1-.36-.63,2.31,2.31,0,0,1-.14-.82,2.68,2.68,0,0,1,1-2.22,4.36,4.36,0,0,1,2.78-.82,5,5,0,0,1,3.54,1.33l-1,1.53a4.45,4.45,0,0,0-2.68-1.08,2.13,2.13,0,0,0-1,.23.78.78,0,0,0-.42.75.77.77,0,0,0,.37.69,6.11,6.11,0,0,0,1.35.49c.52.16.93.29,1.24.4a7.34,7.34,0,0,1,.94.4,2.71,2.71,0,0,1,.74.52,2.12,2.12,0,0,1,.41.65,2.49,2.49,0,0,1,.16.9,2.6,2.6,0,0,1-1,2.18A4.37,4.37,0,0,1,866.64,470.24Z"/><path class="cls-1" d="M872,466.21V464h5.45v2.18Z"/><path class="cls-1" d="M879,465.34a5.6,5.6,0,0,1,.53-2.46,4.33,4.33,0,0,1,1.51-1.76,3.78,3.78,0,0,1,2.17-.66,3.56,3.56,0,0,1,1.85.5,3.77,3.77,0,0,1,1.34,1.32v-5.36h2.41v10.44a.85.85,0,0,0,.13.55.56.56,0,0,0,.43.19v2a5.86,5.86,0,0,1-1,.13,1.74,1.74,0,0,1-1.07-.32,1.22,1.22,0,0,1-.48-.85l0-.59a3.47,3.47,0,0,1-1.4,1.34,4,4,0,0,1-1.88.47,4.23,4.23,0,0,1-2.31-.65,4.48,4.48,0,0,1-1.6-1.77A5.39,5.39,0,0,1,879,465.34Zm7.4,1.27v-2.25a3,3,0,0,0-1-1.31,2.37,2.37,0,0,0-1.43-.53,2.21,2.21,0,0,0-1.77.86,3.07,3.07,0,0,0-.7,2,2.85,2.85,0,0,0,.74,2,2.48,2.48,0,0,0,3.25.35A2.3,2.3,0,0,0,886.4,466.61Z"/><path class="cls-1" d="M895.55,470.24a5.06,5.06,0,0,1-2.62-.67,4.55,4.55,0,0,1-1.75-1.76,4.92,4.92,0,0,1-.6-2.41,5.15,5.15,0,0,1,.6-2.46,4.52,4.52,0,0,1,1.75-1.8,5.11,5.11,0,0,1,2.64-.68,5.29,5.29,0,0,1,2.06.4,4.29,4.29,0,0,1,1.56,1.07,5,5,0,0,1,1,1.54,5.13,5.13,0,0,1,.33,1.84,4.59,4.59,0,0,1-.05.81h-7.29a2.44,2.44,0,0,0,.81,1.71,2.41,2.41,0,0,0,1.69.65,2.75,2.75,0,0,0,1.37-.36,1.82,1.82,0,0,0,.86-.92l2.07.58a4.07,4.07,0,0,1-1.69,1.78A5.31,5.31,0,0,1,895.55,470.24Zm-2.47-5.65H898a2.64,2.64,0,0,0-.79-1.72,2.46,2.46,0,0,0-3.35,0A2.55,2.55,0,0,0,893.08,464.59Z"/><path class="cls-1" d="M904.22,470.06l-3.48-9.43h2.5l2.38,7.24,2.4-7.24h2.28l-3.45,9.43Z"/><path class="cls-1" d="M911.58,459.31v-2.39H914v2.39Zm0,10.75v-9.43H914v9.43Z"/><path class="cls-1" d="M920.56,470.24a5.41,5.41,0,0,1-2.07-.4,4.74,4.74,0,0,1-1.58-1.07,5.06,5.06,0,0,1-1-1.56,5.22,5.22,0,0,1,.24-4.29,4.57,4.57,0,0,1,1.74-1.78,5.11,5.11,0,0,1,2.64-.68,5,5,0,0,1,2.6.66,4.14,4.14,0,0,1,1.66,1.76l-2.35.72a2.12,2.12,0,0,0-.81-.79,2.25,2.25,0,0,0-1.12-.29,2.29,2.29,0,0,0-1.76.79,3.25,3.25,0,0,0,0,4.07,2.27,2.27,0,0,0,1.75.81,2.33,2.33,0,0,0,1.19-.32,1.69,1.69,0,0,0,.77-.8l2.36.72a4,4,0,0,1-1.64,1.78A5.13,5.13,0,0,1,920.56,470.24Z"/><path class="cls-1" d="M930.6,470.24a5.06,5.06,0,0,1-2.62-.67,4.55,4.55,0,0,1-1.75-1.76,4.92,4.92,0,0,1-.6-2.41,5.15,5.15,0,0,1,.6-2.46,4.52,4.52,0,0,1,1.75-1.8,5.11,5.11,0,0,1,2.64-.68,5.29,5.29,0,0,1,2.06.4,4.29,4.29,0,0,1,1.56,1.07,5,5,0,0,1,1,1.54,5.14,5.14,0,0,1,.34,1.84,4.47,4.47,0,0,1-.06.81h-7.29a2.48,2.48,0,0,0,.81,1.71,2.41,2.41,0,0,0,1.69.65,2.75,2.75,0,0,0,1.37-.36,1.82,1.82,0,0,0,.86-.92l2.07.58a4.07,4.07,0,0,1-1.69,1.78A5.31,5.31,0,0,1,930.6,470.24Zm-2.47-5.65h4.94a2.65,2.65,0,0,0-.8-1.72,2.46,2.46,0,0,0-3.35,0A2.55,2.55,0,0,0,928.13,464.59Z"/><path class="cls-1" d="M992.61,457.28l3.46,9.83,3.42-9.83h2.61l-4.85,12.78h-2.39L990,457.28Z"/><path class="cls-1" d="M1003.23,459.31v-2.39h2.41v2.39Zm0,10.75v-9.43h2.41v9.43Z"/><path class="cls-1" d="M1007.24,465.34a5.75,5.75,0,0,1,.53-2.46,4.33,4.33,0,0,1,1.51-1.76,3.79,3.79,0,0,1,2.18-.66,3.59,3.59,0,0,1,1.85.5,3.74,3.74,0,0,1,1.33,1.32v-5.36h2.41v10.44a.92.92,0,0,0,.13.55.56.56,0,0,0,.43.19v2a5.86,5.86,0,0,1-1,.13,1.76,1.76,0,0,1-1.07-.32,1.22,1.22,0,0,1-.48-.85l0-.59a3.47,3.47,0,0,1-1.4,1.34,4,4,0,0,1-1.88.47,4.26,4.26,0,0,1-2.31-.65,4.48,4.48,0,0,1-1.6-1.77A5.39,5.39,0,0,1,1007.24,465.34Zm7.4,1.27v-2.25a2.91,2.91,0,0,0-1-1.31,2.37,2.37,0,0,0-1.43-.53,2.17,2.17,0,0,0-1.76.86,3.07,3.07,0,0,0-.71,2,2.85,2.85,0,0,0,.74,2,2.48,2.48,0,0,0,3.25.35A2.25,2.25,0,0,0,1014.64,466.61Z"/><path class="cls-1" d="M1023.8,470.24a5.09,5.09,0,0,1-2.63-.67,4.55,4.55,0,0,1-1.75-1.76,4.92,4.92,0,0,1-.6-2.41,5.15,5.15,0,0,1,.6-2.46,4.52,4.52,0,0,1,1.75-1.8,5.14,5.14,0,0,1,2.64-.68,5.38,5.38,0,0,1,2.07.4,4.34,4.34,0,0,1,1.55,1.07,5,5,0,0,1,1,1.54,5.14,5.14,0,0,1,.34,1.84,4.47,4.47,0,0,1-.06.81h-7.29a2.48,2.48,0,0,0,.81,1.71,2.41,2.41,0,0,0,1.69.65,2.72,2.72,0,0,0,1.37-.36,1.84,1.84,0,0,0,.87-.92l2.06.58a4,4,0,0,1-1.69,1.78A5.27,5.27,0,0,1,1023.8,470.24Zm-2.47-5.65h4.93a2.65,2.65,0,0,0-.8-1.72,2.46,2.46,0,0,0-3.35,0A2.54,2.54,0,0,0,1021.33,464.59Z"/><path class="cls-1" d="M1029.6,465.36a4.9,4.9,0,0,1,.35-1.87,5,5,0,0,1,1-1.56,4.42,4.42,0,0,1,1.57-1.07,5.36,5.36,0,0,1,2.06-.4,5,5,0,0,1,2.63.69,4.52,4.52,0,0,1,1.72,1.78,5.13,5.13,0,0,1,.58,2.43,5.07,5.07,0,0,1-.34,1.86,5,5,0,0,1-1,1.56,4.4,4.4,0,0,1-1.56,1.06,5.2,5.2,0,0,1-2.07.4,5.44,5.44,0,0,1-1.69-.26,4.31,4.31,0,0,1-1.38-.72,5.13,5.13,0,0,1-1-1.06,4.75,4.75,0,0,1-.65-1.34A5.33,5.33,0,0,1,1029.6,465.36Zm5,2.83a2.24,2.24,0,0,0,1.76-.81,3,3,0,0,0,.71-2,3,3,0,0,0-.71-2,2.26,2.26,0,0,0-1.76-.8,2.24,2.24,0,0,0-1.75.81,3.24,3.24,0,0,0,0,4.06A2.26,2.26,0,0,0,1034.55,468.19Z"/><path class="cls-1" d="M1100.86,460.63a4.23,4.23,0,0,0-1.37-.81,5.23,5.23,0,0,0-2.07-.45,2.61,2.61,0,0,0-1.52.37,1.41,1.41,0,0,0-.47,1.42.79.79,0,0,0,.14.31l.22.24a1.44,1.44,0,0,0,.34.21l.4.18.51.18.58.17.68.18c.55.14,1,.28,1.41.41a8.1,8.1,0,0,1,1.12.52,3.29,3.29,0,0,1,.87.7,2.81,2.81,0,0,1,.51.92,3.6,3.6,0,0,1,.2,1.23,3.84,3.84,0,0,1-.38,1.74,3.06,3.06,0,0,1-1.06,1.19,5.05,5.05,0,0,1-1.5.65,7.29,7.29,0,0,1-1.8.21,9.59,9.59,0,0,1-2.84-.43,8.93,8.93,0,0,1-2.52-1.22l1.1-2.14a6,6,0,0,0,1.73,1,6.43,6.43,0,0,0,2.57.55,2.8,2.8,0,0,0,1.53-.34,1.08,1.08,0,0,0,.52-1,1.2,1.2,0,0,0-.18-.67,1.62,1.62,0,0,0-.68-.52c-.34-.15-.63-.27-.89-.36l-1.28-.36-.1,0-.08,0-.1,0a13.71,13.71,0,0,1-1.6-.56,4.6,4.6,0,0,1-1.12-.69,2.55,2.55,0,0,1-.69-.95,3.48,3.48,0,0,1-.21-1.27,3.81,3.81,0,0,1,.63-2.19,3.86,3.86,0,0,1,1.67-1.37,6,6,0,0,1,2.37-.44,7.83,7.83,0,0,1,4.46,1.41Z"/><path class="cls-1" d="M1103.45,465.36a4.9,4.9,0,0,1,.35-1.87,5,5,0,0,1,1-1.56,4.42,4.42,0,0,1,1.57-1.07,5.36,5.36,0,0,1,2.06-.4,5,5,0,0,1,2.63.69,4.59,4.59,0,0,1,1.72,1.78,5.13,5.13,0,0,1,.58,2.43,5.07,5.07,0,0,1-.34,1.86,5,5,0,0,1-1,1.56,4.58,4.58,0,0,1-1.56,1.06,5.2,5.2,0,0,1-2.07.4,5.44,5.44,0,0,1-1.69-.26,4.31,4.31,0,0,1-1.38-.72,4.66,4.66,0,0,1-1-1.06,4.5,4.5,0,0,1-.65-1.34A5.33,5.33,0,0,1,1103.45,465.36Zm5,2.83a2.26,2.26,0,0,0,1.76-.81,3,3,0,0,0,.7-2,2.94,2.94,0,0,0-.7-2,2.33,2.33,0,0,0-3.52,0,3,3,0,0,0-.71,2,3,3,0,0,0,.71,2A2.26,2.26,0,0,0,1108.4,468.19Z"/><path class="cls-1" d="M1119.34,470.24a5.36,5.36,0,0,1-2.06-.4,4.74,4.74,0,0,1-1.58-1.07,5.06,5.06,0,0,1-1-1.56,5.12,5.12,0,0,1,.24-4.29,4.44,4.44,0,0,1,1.74-1.78,5.09,5.09,0,0,1,2.64-.68,5,5,0,0,1,2.6.66,4.14,4.14,0,0,1,1.66,1.76l-2.36.72a2,2,0,0,0-.8-.79,2.34,2.34,0,0,0-2.88.5,3.25,3.25,0,0,0,0,4.07,2.25,2.25,0,0,0,1.75.81,2.36,2.36,0,0,0,1.19-.32,1.74,1.74,0,0,0,.77-.8l2.35.72a3.88,3.88,0,0,1-1.63,1.78A5.19,5.19,0,0,1,1119.34,470.24Z"/><path class="cls-1" d="M1125.1,459.31v-2.39h2.41v2.39Zm0,10.75v-9.43h2.41v9.43Z"/><path class="cls-1" d="M1129,467.28a2.63,2.63,0,0,1,1.12-2.22,4.72,4.72,0,0,1,2.93-.85,5.82,5.82,0,0,1,2.27.38v-.5a1.79,1.79,0,0,0-.53-1.39,2.3,2.3,0,0,0-1.58-.49,4.08,4.08,0,0,0-1.44.26,7.82,7.82,0,0,0-1.51.81l-.78-1.58a7.2,7.2,0,0,1,4-1.24,4.52,4.52,0,0,1,3.15,1,3.69,3.69,0,0,1,1.12,2.88v3a.85.85,0,0,0,.13.55.63.63,0,0,0,.45.19v2a5.65,5.65,0,0,1-1,.13,1.73,1.73,0,0,1-1.08-.31,1.29,1.29,0,0,1-.47-.81l0-.48a4.14,4.14,0,0,1-1.53,1.21,4.31,4.31,0,0,1-1.87.44,3.33,3.33,0,0,1-2.35-.85A2.72,2.72,0,0,1,1129,467.28Zm5.87.48a1.24,1.24,0,0,0,.45-.83V466a4.83,4.83,0,0,0-1.89-.38,2.65,2.65,0,0,0-1.55.41,1.23,1.23,0,0,0-.6,1.06,1.29,1.29,0,0,0,.46,1,1.74,1.74,0,0,0,1.22.42,2.92,2.92,0,0,0,1-.2A2.44,2.44,0,0,0,1134.91,467.76Z"/><path class="cls-1" d="M1140,456.92h2.41V467a1.32,1.32,0,0,0,.2.86.75.75,0,0,0,.61.24,2.7,2.7,0,0,0,1.13-.26l.32,1.84a4.84,4.84,0,0,1-1.11.35,5.76,5.76,0,0,1-1.19.13,2.43,2.43,0,0,1-1.75-.6,2.32,2.32,0,0,1-.62-1.72Z"/><path class="cls-1" d="M1164.2,470.06h-2.4v-5.29a2.9,2.9,0,0,0-.38-1.64,1.23,1.23,0,0,0-1.08-.54,2,2,0,0,0-1.35.56,3,3,0,0,0-.9,1.42v5.49h-2.42v-5.29c0-1.45-.49-2.18-1.46-2.18a2,2,0,0,0-1.35.55,3,3,0,0,0-.9,1.41v5.51h-2.41v-9.43h2.18v1.75a3.62,3.62,0,0,1,1.44-1.41,4.18,4.18,0,0,1,2.07-.51,2.74,2.74,0,0,1,1.79.56,2.56,2.56,0,0,1,.87,1.45,4,4,0,0,1,1.47-1.49,4,4,0,0,1,2-.52q2.84,0,2.83,3.71Z"/><path class="cls-1" d="M1170.68,470.24a5.12,5.12,0,0,1-2.63-.67,4.62,4.62,0,0,1-1.75-1.76,5,5,0,0,1-.59-2.41,5.26,5.26,0,0,1,.59-2.46,4.58,4.58,0,0,1,1.75-1.8,5.15,5.15,0,0,1,2.65-.68,5.29,5.29,0,0,1,2.06.4,4.47,4.47,0,0,1,1.56,1.07,4.79,4.79,0,0,1,1,1.54,4.93,4.93,0,0,1,.34,1.84,5.82,5.82,0,0,1,0,.81h-7.3a2.48,2.48,0,0,0,.81,1.71,2.43,2.43,0,0,0,1.7.65,2.75,2.75,0,0,0,1.37-.36,1.82,1.82,0,0,0,.86-.92l2.07.58a4.07,4.07,0,0,1-1.69,1.78A5.31,5.31,0,0,1,1170.68,470.24Zm-2.47-5.65h4.93a2.64,2.64,0,0,0-.79-1.72,2.47,2.47,0,0,0-3.36,0A2.59,2.59,0,0,0,1168.21,464.59Z"/><path class="cls-1" d="M1176.5,465.34a5.61,5.61,0,0,1,.54-2.46,4.3,4.3,0,0,1,1.5-1.76,3.81,3.81,0,0,1,2.18-.66,3.59,3.59,0,0,1,1.85.5,3.74,3.74,0,0,1,1.33,1.32v-5.36h2.42v10.44a.93.93,0,0,0,.12.55.58.58,0,0,0,.43.19v2a5.75,5.75,0,0,1-1,.13,1.79,1.79,0,0,1-1.07-.32,1.17,1.17,0,0,1-.47-.85l0-.59a3.41,3.41,0,0,1-1.4,1.34,4,4,0,0,1-1.88.47,4.28,4.28,0,0,1-2.31-.65,4.56,4.56,0,0,1-1.6-1.77A5.39,5.39,0,0,1,1176.5,465.34Zm7.4,1.27v-2.25a2.91,2.91,0,0,0-1-1.31,2.35,2.35,0,0,0-1.43-.53,2.2,2.2,0,0,0-1.76.86,3.07,3.07,0,0,0-.71,2,2.81,2.81,0,0,0,.75,2,2.47,2.47,0,0,0,3.24.35A2.25,2.25,0,0,0,1183.9,466.61Z"/><path class="cls-1" d="M1188.68,459.31v-2.39h2.41v2.39Zm0,10.75v-9.43h2.41v9.43Z"/><path class="cls-1" d="M1192.62,467.28a2.63,2.63,0,0,1,1.12-2.22,4.72,4.72,0,0,1,2.93-.85,5.82,5.82,0,0,1,2.27.38v-.5a1.79,1.79,0,0,0-.53-1.39,2.3,2.3,0,0,0-1.58-.49,4.08,4.08,0,0,0-1.44.26,7.82,7.82,0,0,0-1.51.81l-.78-1.58a7.2,7.2,0,0,1,4-1.24,4.52,4.52,0,0,1,3.15,1,3.69,3.69,0,0,1,1.12,2.88v3a.85.85,0,0,0,.13.55.63.63,0,0,0,.45.19v2a5.65,5.65,0,0,1-1,.13,1.73,1.73,0,0,1-1.08-.31,1.29,1.29,0,0,1-.47-.81l0-.48a4.14,4.14,0,0,1-1.53,1.21,4.31,4.31,0,0,1-1.87.44,3.33,3.33,0,0,1-2.35-.85A2.72,2.72,0,0,1,1192.62,467.28Zm5.87.48a1.24,1.24,0,0,0,.45-.83V466a4.83,4.83,0,0,0-1.89-.38,2.65,2.65,0,0,0-1.55.41,1.23,1.23,0,0,0-.6,1.06,1.29,1.29,0,0,0,.46,1,1.74,1.74,0,0,0,1.22.42,2.92,2.92,0,0,0,1.05-.2A2.44,2.44,0,0,0,1198.49,467.76Z"/><path class="cls-2" d="M25.58,10.47V13.7H16.63V10.47h2.74V3.59A4.27,4.27,0,0,1,18,4.65a3.85,3.85,0,0,1-1.79.58V1.92A2.41,2.41,0,0,0,17,1.74a4.61,4.61,0,0,0,.86-.43c.26-.17.5-.34.73-.52l.53-.45a1.09,1.09,0,0,0,.21-.22h3.75V10.47Z"/><path class="cls-2" d="M27.55,7.05a7.38,7.38,0,0,1,2.36-5.36A5.68,5.68,0,0,1,31.65.61,5.88,5.88,0,0,1,36,.64a5.38,5.38,0,0,1,1.76,1.13A7.78,7.78,0,0,1,39,3.37a7.9,7.9,0,0,1,.77,1.84A7.46,7.46,0,0,1,40,7.05a7.05,7.05,0,0,1-.28,2,7.29,7.29,0,0,1-.81,1.86,7.39,7.39,0,0,1-1.28,1.55,5.45,5.45,0,0,1-1.74,1.06,5.63,5.63,0,0,1-2.12.4,5.77,5.77,0,0,1-2.22-.42,5.46,5.46,0,0,1-1.75-1.11,7.46,7.46,0,0,1-1.24-1.59,7.73,7.73,0,0,1-.77-1.84A7.65,7.65,0,0,1,27.55,7.05Zm6.23,3.55a2,2,0,0,0,1.12-.33,2.33,2.33,0,0,0,.75-.89A5.59,5.59,0,0,0,36,8.25a5.44,5.44,0,0,0,.13-1.2A5.21,5.21,0,0,0,36,5.8a4.31,4.31,0,0,0-.42-1.14,2.18,2.18,0,0,0-.75-.84,2,2,0,0,0-2.2,0,2.14,2.14,0,0,0-.75.88,5.07,5.07,0,0,0-.4,1.13,5.44,5.44,0,0,0-.13,1.2,5.86,5.86,0,0,0,.13,1.26,4.78,4.78,0,0,0,.42,1.13,2.18,2.18,0,0,0,.75.84A1.89,1.89,0,0,0,33.78,10.6Z"/><path class="cls-2" d="M42.23,7.05A7.28,7.28,0,0,1,42.5,5.1a8.07,8.07,0,0,1,.81-1.86,7.39,7.39,0,0,1,1.28-1.55A5.68,5.68,0,0,1,46.33.61a5.75,5.75,0,0,1,2.12-.4,5.85,5.85,0,0,1,2.22.43,5.34,5.34,0,0,1,1.75,1.13,7.45,7.45,0,0,1,1.24,1.6,7.13,7.13,0,0,1,.77,1.84,7,7,0,0,1,.25,1.84,7.42,7.42,0,0,1-.27,2,7,7,0,0,1-.82,1.86,7.1,7.1,0,0,1-1.28,1.55,5.52,5.52,0,0,1-1.73,1.06,5.64,5.64,0,0,1-2.13.4,5.85,5.85,0,0,1-2.22-.42,5.41,5.41,0,0,1-1.74-1.11,7.46,7.46,0,0,1-1.24-1.59,7.34,7.34,0,0,1-.77-1.84A7.2,7.2,0,0,1,42.23,7.05Zm6.22,3.55a1.94,1.94,0,0,0,1.12-.33,2.16,2.16,0,0,0,.75-.89,5.07,5.07,0,0,0,.4-1.13,5.44,5.44,0,0,0,.13-1.2,5.77,5.77,0,0,0-.14-1.25,5.15,5.15,0,0,0-.42-1.14,2.28,2.28,0,0,0-.76-.84,1.83,1.83,0,0,0-1.08-.32,1.9,1.9,0,0,0-1.12.34,2.29,2.29,0,0,0-.75.88,5,5,0,0,0-.39,1.13,5.46,5.46,0,0,0-.14,1.2,5.86,5.86,0,0,0,.14,1.26,4.76,4.76,0,0,0,.41,1.13,2.2,2.2,0,0,0,.76.84A1.86,1.86,0,0,0,48.45,10.6Z"/><path class="cls-2" d="M57.86,5.15a2.72,2.72,0,0,1-1-2.12,2.73,2.73,0,0,1,1-2.13,3.84,3.84,0,0,1,4.89,0,2.71,2.71,0,0,1,1,2.13,2.7,2.7,0,0,1-1,2.12,3.84,3.84,0,0,1-4.89,0Zm.63,7.32L64,6.41,68.81,0l1.61,1.43L65.18,7.3,60.1,13.89ZM61,3.93a1.44,1.44,0,0,0,.28-.9A1.45,1.45,0,0,0,61,2.12a.76.76,0,0,0-.65-.38.77.77,0,0,0-.65.38,1.51,1.51,0,0,0-.27.91,1.5,1.5,0,0,0,.27.9.77.77,0,0,0,.65.38A.76.76,0,0,0,61,3.93ZM66.16,13a2.71,2.71,0,0,1-1-2.13,2.74,2.74,0,0,1,1-2.13,3.86,3.86,0,0,1,4.88,0,2.74,2.74,0,0,1,1,2.13A2.71,2.71,0,0,1,71,13a3.86,3.86,0,0,1-4.88,0Zm3.1-1.22a1.53,1.53,0,0,0,.27-.91,1.55,1.55,0,0,0-.27-.91.83.83,0,0,0-.66-.38A.8.8,0,0,0,68,10a1.49,1.49,0,0,0-.28.91,1.47,1.47,0,0,0,.28.91.8.8,0,0,0,.65.38A.83.83,0,0,0,69.26,11.8Z"/><path class="cls-2" d="M168.59,124.19a4.09,4.09,0,0,1,1.38,3.16,4.44,4.44,0,0,1-1.48,3.37,5.14,5.14,0,0,1-3.66,1.38,4.54,4.54,0,0,1-3.82-1.75,7.83,7.83,0,0,1-1.35-4.9,8.3,8.3,0,0,1,1.48-5.23,4.84,4.84,0,0,1,4.06-1.91,6,6,0,0,1,4.36,1.82l-2,2.32a3.32,3.32,0,0,0-2.4-1,2,2,0,0,0-1.49.56,2.38,2.38,0,0,0-.6,1.58,3.11,3.11,0,0,1,2.09-.65A4.89,4.89,0,0,1,168.59,124.19Zm-4.91,4.37a1.53,1.53,0,0,0,1.15.52,1.54,1.54,0,0,0,1.15-.52,1.68,1.68,0,0,0,.49-1.21,1.53,1.53,0,0,0-.48-1.14,1.69,1.69,0,0,0-2.32,0,1.53,1.53,0,0,0-.48,1.14A1.68,1.68,0,0,0,163.68,128.56Z"/><path class="cls-2" d="M181.23,124.19a4.09,4.09,0,0,1,1.38,3.16,4.43,4.43,0,0,1-1.47,3.37,5.17,5.17,0,0,1-3.67,1.38,4.52,4.52,0,0,1-3.81-1.75,7.83,7.83,0,0,1-1.35-4.9,8.36,8.36,0,0,1,1.47-5.23,4.86,4.86,0,0,1,4.06-1.91,6,6,0,0,1,4.37,1.82l-2,2.32a3.31,3.31,0,0,0-2.39-1,2,2,0,0,0-1.5.56,2.38,2.38,0,0,0-.59,1.58,3.09,3.09,0,0,1,2.09-.65A4.89,4.89,0,0,1,181.23,124.19Zm-4.9,4.37a1.52,1.52,0,0,0,2.29,0,1.69,1.69,0,0,0,.5-1.21,1.53,1.53,0,0,0-.48-1.14,1.67,1.67,0,0,0-1.17-.46,1.65,1.65,0,0,0-1.16.46,1.53,1.53,0,0,0-.48,1.14A1.69,1.69,0,0,0,176.33,128.56Z"/><path class="cls-2" d="M185.16,131.91v-3.5h3v3.5Z"/><path class="cls-2" d="M199.66,124.19a4.09,4.09,0,0,1,1.38,3.16,4.4,4.4,0,0,1-1.48,3.37,5.14,5.14,0,0,1-3.66,1.38,4.56,4.56,0,0,1-3.82-1.75,7.83,7.83,0,0,1-1.34-4.9,8.36,8.36,0,0,1,1.47-5.23,4.84,4.84,0,0,1,4.06-1.91,6,6,0,0,1,4.36,1.82l-2,2.32a3.32,3.32,0,0,0-2.4-1,2,2,0,0,0-1.49.56,2.33,2.33,0,0,0-.59,1.58,3.07,3.07,0,0,1,2.08-.65A4.89,4.89,0,0,1,199.66,124.19Zm-4.91,4.37a1.53,1.53,0,0,0,2.3,0,1.68,1.68,0,0,0,.49-1.21,1.53,1.53,0,0,0-.48-1.14,1.69,1.69,0,0,0-2.32,0,1.53,1.53,0,0,0-.48,1.14A1.68,1.68,0,0,0,194.75,128.56Z"/><path class="cls-2" d="M204.26,123.36a2.73,2.73,0,0,1-1-2.13,2.76,2.76,0,0,1,1-2.13,3.87,3.87,0,0,1,4.89,0,2.74,2.74,0,0,1,1,2.13,2.71,2.71,0,0,1-1,2.13,3.84,3.84,0,0,1-4.89,0Zm.63,7.32,5.47-6.06,4.85-6.41,1.61,1.43-5.24,5.87-5.08,6.59Zm2.47-8.54a1.53,1.53,0,0,0,.27-.91,1.55,1.55,0,0,0-.27-.91.75.75,0,0,0-1.31,0,1.55,1.55,0,0,0-.27.91,1.53,1.53,0,0,0,.27.91.75.75,0,0,0,1.31,0Zm5.2,9.08a2.76,2.76,0,0,1,0-4.25,3.84,3.84,0,0,1,4.89,0,2.78,2.78,0,0,1,0,4.25,3.84,3.84,0,0,1-4.89,0Zm3.1-1.21a1.67,1.67,0,0,0,0-1.82.81.81,0,0,0-.66-.38.8.8,0,0,0-.65.38,1.62,1.62,0,0,0,0,1.82.8.8,0,0,0,.65.38A.81.81,0,0,0,215.66,130Z"/><path class="cls-2" d="M304.86,211.05v-2.58h-5v-3.23l6.13-7.67h2.52v7.67h1.7v3.23h-1.7v2.58Zm-1.36-5.81h1.78V203Z"/><path class="cls-2" d="M317.27,211.05v-2.58h-5v-3.23l6.13-7.67h2.52v7.67h1.7v3.23h-1.7v2.58Zm-1.36-5.81h1.78V203Z"/><path class="cls-2" d="M325.18,211.07v-3.49h3v3.49Z"/><path class="cls-2" d="M335.46,211.05v-2.58h-5v-3.23l6.13-7.67h2.52v7.67h1.7v3.23h-1.7v2.58Zm-1.37-5.81h1.79V203Z"/><path class="cls-2" d="M344.05,202.52a2.76,2.76,0,0,1,0-4.25,3.82,3.82,0,0,1,4.88,0,2.76,2.76,0,0,1,0,4.25,3.82,3.82,0,0,1-4.88,0Zm.62,7.32,5.47-6.06,4.85-6.41,1.61,1.43-5.24,5.87-5.08,6.59Zm2.47-8.54a1.65,1.65,0,0,0,0-1.81.77.77,0,0,0-.65-.38.79.79,0,0,0-.66.38,1.65,1.65,0,0,0,0,1.81.79.79,0,0,0,.66.38A.77.77,0,0,0,347.14,201.3Zm5.2,9.09a2.71,2.71,0,0,1-1-2.13,2.74,2.74,0,0,1,1-2.13,3.87,3.87,0,0,1,4.89,0,2.76,2.76,0,0,1,1,2.13,2.73,2.73,0,0,1-1,2.13,3.87,3.87,0,0,1-4.89,0Zm3.1-1.22a1.53,1.53,0,0,0,.27-.91,1.55,1.55,0,0,0-.27-.91.8.8,0,0,0-.65-.38.83.83,0,0,0-.66.38,1.49,1.49,0,0,0-.28.91,1.47,1.47,0,0,0,.28.91.83.83,0,0,0,.66.38A.8.8,0,0,0,355.44,209.17Z"/><path class="cls-2" d="M431.32,248.17a7,7,0,0,1-4.7-1.53L428.5,244a4.21,4.21,0,0,0,2.62.83,2.77,2.77,0,0,0,1.44-.29,1,1,0,0,0,.46-.94,1.09,1.09,0,0,0-.59-1,4.15,4.15,0,0,0-1.88-.32h-.61v-2.5h.68a2.74,2.74,0,0,0,1.49-.36,1.09,1.09,0,0,0,.56-.95.86.86,0,0,0-.33-.72,1.48,1.48,0,0,0-.92-.25,2.71,2.71,0,0,0-2.31,1.33l-2.32-2.68a4.8,4.8,0,0,1,2.08-1.23,9.06,9.06,0,0,1,3-.47,6,6,0,0,1,3.47.91,2.85,2.85,0,0,1,1.31,2.43,3.14,3.14,0,0,1-.71,2,2.94,2.94,0,0,1-1.79,1.08,3.15,3.15,0,0,1,1.95,1.16,3.54,3.54,0,0,1,.76,2.26,3.31,3.31,0,0,1-1.48,2.84A6.93,6.93,0,0,1,431.32,248.17Z"/><path class="cls-2" d="M443.52,248.17a7,7,0,0,1-4.7-1.53L440.7,244a4.21,4.21,0,0,0,2.62.83,2.77,2.77,0,0,0,1.44-.29,1,1,0,0,0,.46-.94,1.1,1.1,0,0,0-.58-1,4.2,4.2,0,0,0-1.89-.32h-.61v-2.5h.68a2.72,2.72,0,0,0,1.49-.36,1.09,1.09,0,0,0,.56-.95.86.86,0,0,0-.33-.72,1.48,1.48,0,0,0-.92-.25,2.71,2.71,0,0,0-2.31,1.33L439,236.14a4.8,4.8,0,0,1,2.08-1.23,9.15,9.15,0,0,1,3-.47,6,6,0,0,1,3.47.91,2.85,2.85,0,0,1,1.31,2.43,3.14,3.14,0,0,1-.71,2,2.94,2.94,0,0,1-1.79,1.08,3.15,3.15,0,0,1,1.95,1.16,3.54,3.54,0,0,1,.76,2.26,3.31,3.31,0,0,1-1.48,2.84A6.93,6.93,0,0,1,443.52,248.17Z"/><path class="cls-2" d="M451.63,248.07v-3.49h3v3.49Z"/><path class="cls-2" d="M461.5,248.17a7,7,0,0,1-4.7-1.53l1.88-2.61a4.21,4.21,0,0,0,2.62.83,2.84,2.84,0,0,0,1.45-.29,1,1,0,0,0,.45-.94,1.1,1.1,0,0,0-.58-1,4.2,4.2,0,0,0-1.89-.32h-.61v-2.5h.68a2.72,2.72,0,0,0,1.49-.36,1.07,1.07,0,0,0,.56-.95.86.86,0,0,0-.33-.72,1.48,1.48,0,0,0-.92-.25,2.71,2.71,0,0,0-2.31,1.33L457,236.14a4.8,4.8,0,0,1,2.08-1.23,9.15,9.15,0,0,1,3-.47,6,6,0,0,1,3.47.91,2.85,2.85,0,0,1,1.31,2.43,3.14,3.14,0,0,1-.71,2,2.91,2.91,0,0,1-1.79,1.08,3.15,3.15,0,0,1,1.95,1.16,3.54,3.54,0,0,1,.76,2.26,3.29,3.29,0,0,1-1.48,2.84A6.93,6.93,0,0,1,461.5,248.17Z"/><path class="cls-2" d="M470.29,239.52a2.78,2.78,0,0,1,0-4.25,3.84,3.84,0,0,1,4.89,0,2.76,2.76,0,0,1,0,4.25,3.84,3.84,0,0,1-4.89,0Zm.63,7.32,5.47-6.06,4.85-6.41,1.61,1.43-5.25,5.87-5.08,6.59Zm2.46-8.54a1.6,1.6,0,0,0,0-1.81.75.75,0,0,0-1.3,0,1.65,1.65,0,0,0,0,1.81.75.75,0,0,0,1.3,0Zm5.21,9.09a2.71,2.71,0,0,1-1-2.13,2.74,2.74,0,0,1,1-2.13,3.86,3.86,0,0,1,4.88,0,2.74,2.74,0,0,1,1,2.13,2.71,2.71,0,0,1-1,2.13,3.86,3.86,0,0,1-4.88,0Zm3.09-1.22a1.47,1.47,0,0,0,.28-.91,1.49,1.49,0,0,0-.28-.91.75.75,0,0,0-1.3,0,1.49,1.49,0,0,0-.28.91,1.47,1.47,0,0,0,.28.91.75.75,0,0,0,1.3,0Z"/><path class="cls-2" d="M567.93,284.17a7,7,0,0,1-4.7-1.53l1.88-2.61a4.21,4.21,0,0,0,2.63.83,2.82,2.82,0,0,0,1.44-.29,1,1,0,0,0,.45-.94,1.1,1.1,0,0,0-.58-1,4.2,4.2,0,0,0-1.89-.32h-.61v-2.5h.69a2.7,2.7,0,0,0,1.48-.36,1.08,1.08,0,0,0,.57-1,.86.86,0,0,0-.34-.72,1.46,1.46,0,0,0-.92-.25,2.73,2.73,0,0,0-2.31,1.33l-2.32-2.68a4.87,4.87,0,0,1,2.08-1.23,9.15,9.15,0,0,1,3-.47,6,6,0,0,1,3.47.91,2.85,2.85,0,0,1,1.31,2.43,3.14,3.14,0,0,1-.71,2,2.91,2.91,0,0,1-1.79,1.08,3.15,3.15,0,0,1,1.95,1.16,3.49,3.49,0,0,1,.76,2.26,3.29,3.29,0,0,1-1.48,2.84A6.91,6.91,0,0,1,567.93,284.17Z"/><path class="cls-2" d="M580.13,284.17a7,7,0,0,1-4.7-1.53l1.88-2.61a4.23,4.23,0,0,0,2.63.83,2.82,2.82,0,0,0,1.44-.29,1.05,1.05,0,0,0,.46-.94,1.11,1.11,0,0,0-.59-1,4.2,4.2,0,0,0-1.89-.32h-.6v-2.5h.68a2.7,2.7,0,0,0,1.48-.36,1.08,1.08,0,0,0,.57-1,.84.84,0,0,0-.34-.72,1.44,1.44,0,0,0-.92-.25,2.7,2.7,0,0,0-2.3,1.33l-2.33-2.68a4.85,4.85,0,0,1,2.09-1.23,9,9,0,0,1,3-.47,6,6,0,0,1,3.47.91,2.85,2.85,0,0,1,1.31,2.43,3.09,3.09,0,0,1-.71,2,2.91,2.91,0,0,1-1.79,1.08,3.15,3.15,0,0,1,2,1.16,3.49,3.49,0,0,1,.76,2.26,3.29,3.29,0,0,1-1.48,2.84A6.89,6.89,0,0,1,580.13,284.17Z"/><path class="cls-2" d="M588.25,284.07v-3.49h3v3.49Z"/><path class="cls-2" d="M598.12,284.17a7,7,0,0,1-4.71-1.53l1.88-2.61a4.23,4.23,0,0,0,2.63.83,2.82,2.82,0,0,0,1.44-.29,1.05,1.05,0,0,0,.46-.94,1.11,1.11,0,0,0-.59-1,4.2,4.2,0,0,0-1.89-.32h-.6v-2.5h.68a2.68,2.68,0,0,0,1.48-.36,1.08,1.08,0,0,0,.57-1,.86.86,0,0,0-.33-.72,1.49,1.49,0,0,0-.93-.25,2.71,2.71,0,0,0-2.3,1.33l-2.33-2.68a4.85,4.85,0,0,1,2.09-1.23,9.06,9.06,0,0,1,3-.47,5.93,5.93,0,0,1,3.46.91,2.83,2.83,0,0,1,1.31,2.43,3.09,3.09,0,0,1-.71,2,2.88,2.88,0,0,1-1.79,1.08,3.09,3.09,0,0,1,2,1.16,3.49,3.49,0,0,1,.76,2.26,3.29,3.29,0,0,1-1.48,2.84A6.88,6.88,0,0,1,598.12,284.17Z"/><path class="cls-2" d="M606.91,275.52a2.76,2.76,0,0,1,0-4.25,3.82,3.82,0,0,1,4.88,0,2.76,2.76,0,0,1,0,4.25,3.82,3.82,0,0,1-4.88,0Zm.62,7.32,5.47-6.06,4.85-6.41,1.61,1.43-5.24,5.87-5.08,6.59ZM610,274.3a1.65,1.65,0,0,0,0-1.81.79.79,0,0,0-.65-.38.76.76,0,0,0-.65.38,1.6,1.6,0,0,0,0,1.81.76.76,0,0,0,.65.38A.79.79,0,0,0,610,274.3Zm5.2,9.09a2.71,2.71,0,0,1-1-2.13,2.74,2.74,0,0,1,1-2.13,3.87,3.87,0,0,1,4.89,0,2.76,2.76,0,0,1,1,2.13,2.73,2.73,0,0,1-1,2.13,3.87,3.87,0,0,1-4.89,0Zm3.1-1.22a1.53,1.53,0,0,0,.27-.91,1.55,1.55,0,0,0-.27-.91.8.8,0,0,0-.65-.38.81.81,0,0,0-.66.38,1.49,1.49,0,0,0-.28.91,1.47,1.47,0,0,0,.28.91.81.81,0,0,0,.66.38A.8.8,0,0,0,618.3,282.17Z"/><path class="cls-2" d="M705.92,256.17a7,7,0,0,1-4.7-1.53L703.1,252a4.21,4.21,0,0,0,2.62.83,2.77,2.77,0,0,0,1.44-.29,1,1,0,0,0,.46-.94,1.1,1.1,0,0,0-.58-1,4.2,4.2,0,0,0-1.89-.32h-.61v-2.5h.68a2.72,2.72,0,0,0,1.49-.36,1.07,1.07,0,0,0,.56-.95.86.86,0,0,0-.33-.72,1.48,1.48,0,0,0-.92-.25,2.71,2.71,0,0,0-2.31,1.33l-2.32-2.68a4.8,4.8,0,0,1,2.08-1.23,9.15,9.15,0,0,1,3-.47,6,6,0,0,1,3.47.91,2.85,2.85,0,0,1,1.31,2.43,3.14,3.14,0,0,1-.71,2,2.91,2.91,0,0,1-1.79,1.08,3.15,3.15,0,0,1,1.95,1.16,3.54,3.54,0,0,1,.76,2.26,3.29,3.29,0,0,1-1.48,2.84A6.93,6.93,0,0,1,705.92,256.17Z"/><path class="cls-2" d="M718.12,256.17a7,7,0,0,1-4.7-1.53L715.3,252a4.21,4.21,0,0,0,2.63.83,2.82,2.82,0,0,0,1.44-.29,1,1,0,0,0,.45-.94,1.1,1.1,0,0,0-.58-1,4.2,4.2,0,0,0-1.89-.32h-.61v-2.5h.69a2.7,2.7,0,0,0,1.48-.36,1.07,1.07,0,0,0,.56-.95.86.86,0,0,0-.33-.72,1.46,1.46,0,0,0-.92-.25,2.73,2.73,0,0,0-2.31,1.33l-2.32-2.68a4.8,4.8,0,0,1,2.08-1.23,9.15,9.15,0,0,1,3-.47,6,6,0,0,1,3.47.91,2.85,2.85,0,0,1,1.31,2.43,3.14,3.14,0,0,1-.71,2,2.91,2.91,0,0,1-1.79,1.08,3.15,3.15,0,0,1,2,1.16,3.49,3.49,0,0,1,.76,2.26,3.29,3.29,0,0,1-1.48,2.84A6.91,6.91,0,0,1,718.12,256.17Z"/><path class="cls-2" d="M726.24,256.07v-3.49h3v3.49Z"/><path class="cls-2" d="M736.11,256.17a7,7,0,0,1-4.71-1.53l1.88-2.61a4.23,4.23,0,0,0,2.63.83,2.82,2.82,0,0,0,1.44-.29,1,1,0,0,0,.45-.94,1.1,1.1,0,0,0-.58-1,4.2,4.2,0,0,0-1.89-.32h-.6v-2.5h.68a2.7,2.7,0,0,0,1.48-.36,1.08,1.08,0,0,0,.57-.95.84.84,0,0,0-.34-.72,1.46,1.46,0,0,0-.92-.25,2.73,2.73,0,0,0-2.31,1.33l-2.32-2.68a4.87,4.87,0,0,1,2.08-1.23,9.15,9.15,0,0,1,3-.47,6,6,0,0,1,3.47.91,2.85,2.85,0,0,1,1.31,2.43,3.14,3.14,0,0,1-.71,2,2.91,2.91,0,0,1-1.79,1.08,3.15,3.15,0,0,1,2,1.16,3.49,3.49,0,0,1,.76,2.26,3.29,3.29,0,0,1-1.48,2.84A6.9,6.9,0,0,1,736.11,256.17Z"/><path class="cls-2" d="M744.89,247.52a2.78,2.78,0,0,1,0-4.25,3.84,3.84,0,0,1,4.89,0,2.76,2.76,0,0,1,0,4.25,3.84,3.84,0,0,1-4.89,0Zm.63,7.32,5.47-6.06,4.85-6.41,1.61,1.43-5.24,5.87-5.08,6.59ZM748,246.3a1.65,1.65,0,0,0,0-1.81.75.75,0,0,0-1.31,0,1.65,1.65,0,0,0,0,1.81.75.75,0,0,0,1.31,0Zm5.2,9.09a2.71,2.71,0,0,1-1-2.13,2.74,2.74,0,0,1,1-2.13,3.87,3.87,0,0,1,4.89,0,2.76,2.76,0,0,1,1,2.13,2.73,2.73,0,0,1-1,2.13,3.87,3.87,0,0,1-4.89,0Zm3.1-1.22a1.53,1.53,0,0,0,.27-.91,1.55,1.55,0,0,0-.27-.91.81.81,0,0,0-.66-.38.8.8,0,0,0-.65.38,1.49,1.49,0,0,0-.28.91,1.47,1.47,0,0,0,.28.91.8.8,0,0,0,.65.38A.81.81,0,0,0,756.29,254.17Z"/><path class="cls-2" d="M837.51,250.22a7.06,7.06,0,0,1-4.7-1.52l1.88-2.62a4.13,4.13,0,0,0,2.62.84,2.69,2.69,0,0,0,1.44-.3,1.05,1.05,0,0,0,.46-.94,1.09,1.09,0,0,0-.59-1,4.2,4.2,0,0,0-1.89-.32h-.6v-2.5h.68a2.74,2.74,0,0,0,1.49-.36,1.1,1.1,0,0,0,.56-.95.86.86,0,0,0-.33-.72,1.49,1.49,0,0,0-.93-.26,2.72,2.72,0,0,0-2.3,1.34L833,238.2a4.75,4.75,0,0,1,2.08-1.24,9.33,9.33,0,0,1,3-.47,5.93,5.93,0,0,1,3.46.92,2.82,2.82,0,0,1,1.32,2.42,3.08,3.08,0,0,1-.72,2,2.94,2.94,0,0,1-1.79,1.09,3,3,0,0,1,2,1.15,3.51,3.51,0,0,1,.76,2.26,3.29,3.29,0,0,1-1.47,2.84A6.93,6.93,0,0,1,837.51,250.22Z"/><path class="cls-2" d="M849.71,250.22a7.06,7.06,0,0,1-4.7-1.52l1.88-2.62a4.13,4.13,0,0,0,2.62.84,2.66,2.66,0,0,0,1.44-.3,1,1,0,0,0,.46-.94,1.09,1.09,0,0,0-.59-1,4.18,4.18,0,0,0-1.88-.32h-.61v-2.5H849a2.74,2.74,0,0,0,1.49-.36,1.1,1.1,0,0,0,.56-.95.86.86,0,0,0-.33-.72,1.49,1.49,0,0,0-.93-.26,2.72,2.72,0,0,0-2.3,1.34l-2.32-2.68a4.75,4.75,0,0,1,2.08-1.24,9.33,9.33,0,0,1,3-.47,6,6,0,0,1,3.47.92,2.83,2.83,0,0,1,1.31,2.42,3.08,3.08,0,0,1-.72,2,2.94,2.94,0,0,1-1.79,1.09,3.09,3.09,0,0,1,2,1.15,3.56,3.56,0,0,1,.75,2.26,3.29,3.29,0,0,1-1.47,2.84A6.93,6.93,0,0,1,849.71,250.22Z"/><path class="cls-2" d="M857.82,250.13v-3.5h3v3.5Z"/><path class="cls-2" d="M867.69,250.22a7.06,7.06,0,0,1-4.7-1.52l1.88-2.62a4.15,4.15,0,0,0,2.62.84,2.66,2.66,0,0,0,1.44-.3,1,1,0,0,0,.46-.94,1.08,1.08,0,0,0-.59-1,4.15,4.15,0,0,0-1.88-.32h-.61v-2.5H867a2.72,2.72,0,0,0,1.49-.36,1.1,1.1,0,0,0,.56-.95.86.86,0,0,0-.33-.72,1.48,1.48,0,0,0-.92-.26,2.72,2.72,0,0,0-2.31,1.34l-2.32-2.68a4.81,4.81,0,0,1,2.08-1.24,9.42,9.42,0,0,1,3-.47,6,6,0,0,1,3.47.92,2.83,2.83,0,0,1,1.31,2.42,3.12,3.12,0,0,1-.71,2,3,3,0,0,1-1.79,1.09,3.09,3.09,0,0,1,2,1.15,3.56,3.56,0,0,1,.76,2.26,3.3,3.3,0,0,1-1.48,2.84A6.93,6.93,0,0,1,867.69,250.22Z"/><path class="cls-2" d="M876.48,241.58a2.77,2.77,0,0,1,0-4.26,3.58,3.58,0,0,1,2.44-.88,3.63,3.63,0,0,1,2.45.88,2.77,2.77,0,0,1,0,4.26,3.63,3.63,0,0,1-2.45.88A3.58,3.58,0,0,1,876.48,241.58Zm.63,7.31,5.46-6,4.86-6.42,1.6,1.43-5.24,5.88-5.08,6.58Zm2.46-8.53a1.62,1.62,0,0,0,0-1.82.75.75,0,0,0-1.3,0,1.67,1.67,0,0,0,0,1.82.75.75,0,0,0,1.3,0Zm5.21,9.08a2.74,2.74,0,0,1,0-4.25,3.82,3.82,0,0,1,4.88,0,2.76,2.76,0,0,1,0,4.25,3.86,3.86,0,0,1-4.88,0Zm3.09-1.21a1.56,1.56,0,0,0,.28-.91,1.51,1.51,0,0,0-.28-.91.77.77,0,0,0-.65-.38.8.8,0,0,0-.66.38,1.51,1.51,0,0,0-.27.91,1.55,1.55,0,0,0,.27.91.83.83,0,0,0,.66.38A.8.8,0,0,0,887.87,248.23Z"/><path class="cls-2" d="M968.47,284.5a7.06,7.06,0,0,1-4.7-1.52l1.88-2.62a4.15,4.15,0,0,0,2.62.84,2.66,2.66,0,0,0,1.44-.3,1,1,0,0,0,.46-.94,1.09,1.09,0,0,0-.59-1,4.18,4.18,0,0,0-1.88-.32h-.61V276.1h.68a2.74,2.74,0,0,0,1.49-.35,1.1,1.1,0,0,0,.56-.95.86.86,0,0,0-.33-.72,1.49,1.49,0,0,0-.93-.26,2.72,2.72,0,0,0-2.3,1.34l-2.32-2.68a4.75,4.75,0,0,1,2.08-1.24,9.33,9.33,0,0,1,3-.47,6,6,0,0,1,3.47.92,2.83,2.83,0,0,1,1.31,2.42,3.08,3.08,0,0,1-.72,2,2.94,2.94,0,0,1-1.79,1.09,3,3,0,0,1,2,1.15,3.51,3.51,0,0,1,.76,2.26,3.29,3.29,0,0,1-1.47,2.84A6.93,6.93,0,0,1,968.47,284.5Z"/><path class="cls-2" d="M980.67,284.5A7.06,7.06,0,0,1,976,283l1.88-2.62a4.15,4.15,0,0,0,2.62.84,2.66,2.66,0,0,0,1.44-.3,1,1,0,0,0,.46-.94,1.08,1.08,0,0,0-.58-1,4.23,4.23,0,0,0-1.89-.32h-.61V276.1H980a2.74,2.74,0,0,0,1.49-.35,1.1,1.1,0,0,0,.56-.95.86.86,0,0,0-.33-.72,1.48,1.48,0,0,0-.92-.26,2.72,2.72,0,0,0-2.31,1.34l-2.32-2.68a4.81,4.81,0,0,1,2.08-1.24,9.42,9.42,0,0,1,3-.47,6,6,0,0,1,3.47.92,2.83,2.83,0,0,1,1.31,2.42,3.12,3.12,0,0,1-.71,2,3,3,0,0,1-1.79,1.09,3.09,3.09,0,0,1,1.95,1.15,3.56,3.56,0,0,1,.76,2.26,3.3,3.3,0,0,1-1.48,2.84A6.93,6.93,0,0,1,980.67,284.5Z"/><path class="cls-2" d="M988.78,284.41v-3.5h3v3.5Z"/><path class="cls-2" d="M998.65,284.5A7.06,7.06,0,0,1,994,283l1.88-2.62a4.15,4.15,0,0,0,2.62.84,2.66,2.66,0,0,0,1.44-.3,1,1,0,0,0,.46-.94,1.08,1.08,0,0,0-.58-1,4.2,4.2,0,0,0-1.89-.32h-.61V276.1H998a2.72,2.72,0,0,0,1.49-.35,1.08,1.08,0,0,0,.56-.95.86.86,0,0,0-.33-.72,1.48,1.48,0,0,0-.92-.26,2.72,2.72,0,0,0-2.31,1.34l-2.32-2.68a4.81,4.81,0,0,1,2.08-1.24,9.42,9.42,0,0,1,3-.47,6,6,0,0,1,3.47.92,2.83,2.83,0,0,1,1.31,2.42,3.12,3.12,0,0,1-.71,2,3,3,0,0,1-1.79,1.09,3.09,3.09,0,0,1,1.95,1.15,3.56,3.56,0,0,1,.76,2.26,3.28,3.28,0,0,1-1.48,2.84A6.93,6.93,0,0,1,998.65,284.5Z"/><path class="cls-2" d="M1007.44,275.86a2.76,2.76,0,0,1-1-2.13,2.73,2.73,0,0,1,1-2.13,3.84,3.84,0,0,1,4.89,0,2.71,2.71,0,0,1,1,2.13,2.74,2.74,0,0,1-1,2.13,3.84,3.84,0,0,1-4.89,0Zm.63,7.31,5.47-6.05,4.85-6.42,1.61,1.43-5.25,5.88-5.08,6.58Zm2.46-8.53a1.49,1.49,0,0,0,.28-.91,1.47,1.47,0,0,0-.28-.91.75.75,0,0,0-1.3,0,1.53,1.53,0,0,0-.27.91,1.55,1.55,0,0,0,.27.91.75.75,0,0,0,1.3,0Zm5.21,9.08a2.76,2.76,0,0,1,0-4.25,3.82,3.82,0,0,1,4.88,0,2.76,2.76,0,0,1,0,4.25,3.86,3.86,0,0,1-4.88,0Zm3.09-1.22a1.6,1.6,0,0,0,0-1.81.75.75,0,0,0-1.3,0,1.6,1.6,0,0,0,0,1.81.74.74,0,0,0,1.3,0Z"/><path class="cls-2" d="M1104.88,317.43v3.23h-9v-3.23h2.74v-6.89a4.41,4.41,0,0,1-1.4,1.07,3.94,3.94,0,0,1-1.79.57v-3.31a2.41,2.41,0,0,0,.86-.18,4.61,4.61,0,0,0,.86-.43c.26-.17.5-.34.73-.52s.4-.33.53-.45a1.09,1.09,0,0,0,.21-.22h3.75v10.36Z"/><path class="cls-2" d="M1116.38,317.43v3.23h-9v-3.23h2.75v-6.89a4.53,4.53,0,0,1-1.4,1.07,4,4,0,0,1-1.79.57v-3.31a2.4,2.4,0,0,0,.85-.18,4.61,4.61,0,0,0,.86-.43,8.54,8.54,0,0,0,.73-.52,6.22,6.22,0,0,0,.53-.45,1.33,1.33,0,0,0,.22-.22h3.75v10.36Z"/><path class="cls-2" d="M1118.64,320.66v-3.5h3v3.5Z"/><path class="cls-2" d="M1133.67,317.43v3.23h-9v-3.23h2.75v-6.89a4.41,4.41,0,0,1-1.4,1.07,3.94,3.94,0,0,1-1.79.57v-3.31a2.36,2.36,0,0,0,.85-.18,4.32,4.32,0,0,0,.86-.43,8.54,8.54,0,0,0,.73-.52q.35-.27.54-.45a1.09,1.09,0,0,0,.21-.22h3.75v10.36Z"/><path class="cls-2" d="M1136.6,312.11a2.74,2.74,0,0,1-1-2.13,2.71,2.71,0,0,1,1-2.13A3.54,3.54,0,0,1,1139,307a3.58,3.58,0,0,1,2.45.88,2.74,2.74,0,0,1,1,2.13,2.77,2.77,0,0,1-1,2.13,3.62,3.62,0,0,1-2.45.87A3.58,3.58,0,0,1,1136.6,312.11Zm.63,7.31,5.46-6.06,4.86-6.41,1.6,1.43-5.24,5.87-5.08,6.59Zm2.46-8.53a1.56,1.56,0,0,0,.28-.91,1.51,1.51,0,0,0-.28-.91.75.75,0,0,0-1.3,0,1.51,1.51,0,0,0-.27.91,1.55,1.55,0,0,0,.27.91.75.75,0,0,0,1.3,0Zm5.2,9.08a2.74,2.74,0,0,1-1-2.13,2.77,2.77,0,0,1,1-2.13,3.62,3.62,0,0,1,2.45-.87,3.58,3.58,0,0,1,2.44.87,2.74,2.74,0,0,1,1,2.13,2.71,2.71,0,0,1-1,2.13,3.58,3.58,0,0,1-2.44.87A3.62,3.62,0,0,1,1144.89,320Zm3.1-1.22a1.51,1.51,0,0,0,.28-.91,1.56,1.56,0,0,0-.28-.91.8.8,0,0,0-.65-.38.83.83,0,0,0-.66.38,1.55,1.55,0,0,0-.27.91,1.51,1.51,0,0,0,.27.91.8.8,0,0,0,.66.38A.77.77,0,0,0,1148,318.75Z"/><path class="cls-1" d="M339.61,242.66c0-.7,0-1.27.05-1.71a8.24,8.24,0,0,1,.2-1.32,3.69,3.69,0,0,1,.44-1.12,4.78,4.78,0,0,1,.76-.9,6.94,6.94,0,0,1,1.18-.86c.19-.12.45-.27.8-.46l.86-.48c.23-.12.49-.29.78-.48a4.72,4.72,0,0,0,.68-.57,2.5,2.5,0,0,0,.44-.64,1.66,1.66,0,0,0,.18-.75,1,1,0,0,0-.36-.88,1.41,1.41,0,0,0-.91-.28,3.24,3.24,0,0,0-1.47.39,6.15,6.15,0,0,0-1.37,1l-2.26-2.41a6.3,6.3,0,0,1,2.33-1.53,8.62,8.62,0,0,1,3.3-.61,5.44,5.44,0,0,1,3.63,1.09,3.7,3.7,0,0,1,1.3,3,4.12,4.12,0,0,1-.7,2.41,6.82,6.82,0,0,1-2,1.85c-1.57,1-2.63,1.65-3.17,2.05h5.92v3.23Z"/><path class="cls-1" d="M357.44,242.64v-2.59h-5v-3.23l6.13-7.67h2.53v7.67h1.69v3.23h-1.69v2.59Zm-1.36-5.82h1.79v-2.27Z"/><path class="cls-1" d="M365.36,242.66v-3.5h3v3.5Z"/><path class="cls-1" d="M370.87,242.66c0-.7,0-1.27.05-1.71a8.24,8.24,0,0,1,.2-1.32,3.69,3.69,0,0,1,.44-1.12,4.78,4.78,0,0,1,.76-.9,6.94,6.94,0,0,1,1.18-.86c.19-.12.45-.27.8-.46l.86-.48c.23-.12.49-.29.78-.48a4.72,4.72,0,0,0,.68-.57,2.5,2.5,0,0,0,.44-.64,1.66,1.66,0,0,0,.18-.75,1,1,0,0,0-.36-.88,1.41,1.41,0,0,0-.91-.28,3.24,3.24,0,0,0-1.47.39,6.15,6.15,0,0,0-1.37,1l-2.26-2.41a6.3,6.3,0,0,1,2.33-1.53,8.62,8.62,0,0,1,3.3-.61,5.46,5.46,0,0,1,3.63,1.09,3.7,3.7,0,0,1,1.3,3,4.12,4.12,0,0,1-.7,2.41,6.82,6.82,0,0,1-2,1.85c-1.57,1-2.63,1.65-3.17,2.05h5.92v3.23Z"/><path class="cls-1" d="M384.88,234.11a2.76,2.76,0,0,1-1-2.13,2.73,2.73,0,0,1,1-2.13,3.84,3.84,0,0,1,4.89,0,2.71,2.71,0,0,1,1,2.13,2.74,2.74,0,0,1-1,2.13,3.87,3.87,0,0,1-4.89,0Zm.63,7.31,5.47-6.06,4.85-6.41,1.61,1.43-5.24,5.87-5.08,6.59Zm2.46-8.53a1.49,1.49,0,0,0,.28-.91,1.45,1.45,0,0,0-.28-.91.75.75,0,0,0-1.3,0,1.51,1.51,0,0,0-.27.91,1.55,1.55,0,0,0,.27.91.75.75,0,0,0,1.3,0Zm5.21,9.08a2.71,2.71,0,0,1-1-2.13,2.74,2.74,0,0,1,1-2.13,3.86,3.86,0,0,1,4.88,0,2.74,2.74,0,0,1,1,2.13,2.71,2.71,0,0,1-1,2.13,3.86,3.86,0,0,1-4.88,0Zm3.1-1.22a1.51,1.51,0,0,0,.27-.91,1.55,1.55,0,0,0-.27-.91.81.81,0,0,0-.66-.38.8.8,0,0,0-.65.38,1.49,1.49,0,0,0-.28.91,1.45,1.45,0,0,0,.28.91.77.77,0,0,0,.65.38A.79.79,0,0,0,396.28,240.75Z"/><path class="cls-1" d="M468.8,217.33v-2.59h-5v-3.23l6.13-7.67h2.52v7.67h1.7v3.23h-1.7v2.59Zm-1.36-5.82h1.78v-2.27Z"/><path class="cls-1" d="M480.8,217.44a7.06,7.06,0,0,1-4.7-1.52L478,213.3a4.15,4.15,0,0,0,2.62.84,2.66,2.66,0,0,0,1.44-.3,1,1,0,0,0,.46-.93,1.09,1.09,0,0,0-.58-1,4.2,4.2,0,0,0-1.89-.32h-.61v-2.5h.68a2.72,2.72,0,0,0,1.49-.36,1.08,1.08,0,0,0,.56-.95.86.86,0,0,0-.33-.72,1.48,1.48,0,0,0-.92-.26,2.72,2.72,0,0,0-2.31,1.34l-2.32-2.68a4.81,4.81,0,0,1,2.08-1.24,9.42,9.42,0,0,1,3-.47,6,6,0,0,1,3.47.92,2.83,2.83,0,0,1,1.31,2.42,3.1,3.1,0,0,1-.71,2,3,3,0,0,1-1.79,1.09,3.13,3.13,0,0,1,1.95,1.15,3.56,3.56,0,0,1,.76,2.26,3.28,3.28,0,0,1-1.48,2.84A6.93,6.93,0,0,1,480.8,217.44Z"/><path class="cls-1" d="M488.92,217.35v-3.5h3v3.5Z"/><path class="cls-1" d="M498.78,217.44a7.06,7.06,0,0,1-4.7-1.52L496,213.3a4.16,4.16,0,0,0,2.63.84,2.71,2.71,0,0,0,1.44-.3,1,1,0,0,0,.45-.93,1.09,1.09,0,0,0-.58-1,4.2,4.2,0,0,0-1.89-.32h-.6v-2.5h.68a2.7,2.7,0,0,0,1.48-.36,1.08,1.08,0,0,0,.56-.95.86.86,0,0,0-.33-.72,1.46,1.46,0,0,0-.92-.26,2.74,2.74,0,0,0-2.31,1.34l-2.32-2.68a4.87,4.87,0,0,1,2.08-1.24,9.42,9.42,0,0,1,3-.47,6,6,0,0,1,3.47.92,2.83,2.83,0,0,1,1.31,2.42,3.1,3.1,0,0,1-.71,2,3,3,0,0,1-1.79,1.09,3.13,3.13,0,0,1,1.95,1.15,3.51,3.51,0,0,1,.76,2.26,3.28,3.28,0,0,1-1.48,2.84A6.91,6.91,0,0,1,498.78,217.44Z"/><path class="cls-1" d="M507.57,208.8a2.79,2.79,0,0,1,0-4.26,3.87,3.87,0,0,1,4.89,0,2.77,2.77,0,0,1,0,4.26,3.84,3.84,0,0,1-4.89,0Zm.63,7.31,5.47-6.05,4.85-6.41,1.61,1.43L514.89,211l-5.08,6.58Zm2.47-8.53a1.67,1.67,0,0,0,0-1.82.81.81,0,0,0-.66-.38.8.8,0,0,0-.65.38,1.67,1.67,0,0,0,0,1.82.8.8,0,0,0,.65.38A.81.81,0,0,0,510.67,207.58Zm5.2,9.08a2.76,2.76,0,0,1,0-4.25,3.82,3.82,0,0,1,4.88,0,2.76,2.76,0,0,1,0,4.25,3.86,3.86,0,0,1-4.88,0Zm3.1-1.21a1.55,1.55,0,0,0,.27-.91,1.51,1.51,0,0,0-.27-.91.81.81,0,0,0-.66-.38.8.8,0,0,0-.65.38,1.45,1.45,0,0,0-.28.91,1.49,1.49,0,0,0,.28.91.8.8,0,0,0,.65.38A.81.81,0,0,0,519,215.45Z"/><path class="cls-1" d="M603.63,255.44a7.06,7.06,0,0,1-4.7-1.52l1.88-2.62a4.15,4.15,0,0,0,2.62.84,2.73,2.73,0,0,0,1.45-.3,1,1,0,0,0,.45-.93,1.09,1.09,0,0,0-.58-1,4.2,4.2,0,0,0-1.89-.32h-.61v-2.5h.68a2.72,2.72,0,0,0,1.49-.36,1.1,1.1,0,0,0,.56-.95.86.86,0,0,0-.33-.72,1.48,1.48,0,0,0-.92-.26,2.72,2.72,0,0,0-2.31,1.34l-2.32-2.68a4.81,4.81,0,0,1,2.08-1.24,9.42,9.42,0,0,1,3-.47,6,6,0,0,1,3.47.92,2.83,2.83,0,0,1,1.31,2.42,3.1,3.1,0,0,1-.71,2,3,3,0,0,1-1.79,1.09,3.13,3.13,0,0,1,2,1.15,3.56,3.56,0,0,1,.76,2.26,3.3,3.3,0,0,1-1.48,2.84A6.93,6.93,0,0,1,603.63,255.44Z"/><path class="cls-1" d="M611.46,248.7a7.41,7.41,0,0,1,1.09-3.81,7.41,7.41,0,0,1,1.27-1.56,5.48,5.48,0,0,1,1.74-1.07,5.88,5.88,0,0,1,4.34,0,5.34,5.34,0,0,1,1.75,1.13,7.25,7.25,0,0,1,1.25,1.6,7.9,7.9,0,0,1,.77,1.84,6.95,6.95,0,0,1,0,3.8,7,7,0,0,1-.81,1.86,7.45,7.45,0,0,1-1.28,1.55,5.59,5.59,0,0,1-1.74,1.07,6.11,6.11,0,0,1-4.35,0,5.37,5.37,0,0,1-1.74-1.12,7.4,7.4,0,0,1-1.24-1.58,7.5,7.5,0,0,1-.77-1.84A7.26,7.26,0,0,1,611.46,248.7Zm6.22,3.55a1.86,1.86,0,0,0,1.12-.34,2.14,2.14,0,0,0,.75-.88,5,5,0,0,0,.4-1.14,5.63,5.63,0,0,0,0-2.45,4.38,4.38,0,0,0-.42-1.13,2.37,2.37,0,0,0-.75-.85,1.94,1.94,0,0,0-1.09-.32,2,2,0,0,0-1.12.34,2.37,2.37,0,0,0-.75.88,5.68,5.68,0,0,0-.39,1.14,5.38,5.38,0,0,0-.13,1.2,5.7,5.7,0,0,0,.13,1.25,4.68,4.68,0,0,0,.41,1.14,2.28,2.28,0,0,0,.76.84A2,2,0,0,0,617.68,252.25Z"/><path class="cls-1" d="M626.42,255.35v-3.5h3v3.5Z"/><path class="cls-1" d="M637.14,255.53a5.88,5.88,0,0,1-2-.32,5.4,5.4,0,0,1-1.66-.89,4,4,0,0,1-1.14-1.43A4.16,4.16,0,0,1,632,251a3,3,0,0,1,.48-1.65,4.77,4.77,0,0,1,1.18-1.23,2.48,2.48,0,0,1-.91-1,2.55,2.55,0,0,1-.37-1.3,3.37,3.37,0,0,1,.45-1.72,3.74,3.74,0,0,1,1.16-1.27,6,6,0,0,1,1.54-.75,5.28,5.28,0,0,1,1.65-.27,5.54,5.54,0,0,1,1.32.16,5.49,5.49,0,0,1,2.41,1.28,3.49,3.49,0,0,1,.79,1.12,3.37,3.37,0,0,1,.3,1.41,2.72,2.72,0,0,1-.38,1.33,2.48,2.48,0,0,1-.93,1,4.66,4.66,0,0,1,1.19,1.27,3.15,3.15,0,0,1,.48,1.73,3.93,3.93,0,0,1-.7,2.3,4.52,4.52,0,0,1-1.87,1.55A6.37,6.37,0,0,1,637.14,255.53Zm1-5.55a1.72,1.72,0,0,0-2.09,0,1.21,1.21,0,0,0-.4.95,1.2,1.2,0,0,0,.42.93,1.6,1.6,0,0,0,2.07,0,1.21,1.21,0,0,0,.4-.93A1.19,1.19,0,0,0,638.18,250Zm-1.79-3.29a1.21,1.21,0,0,0,1.5,0,.92.92,0,0,0,.33-.75.79.79,0,0,0-.31-.64,1.23,1.23,0,0,0-1.54,0,.81.81,0,0,0-.3.64A.94.94,0,0,0,636.39,246.69Z"/><path class="cls-1" d="M645.56,246.8a2.77,2.77,0,0,1,0-4.26,3.58,3.58,0,0,1,2.44-.87,3.62,3.62,0,0,1,2.45.87,2.77,2.77,0,0,1,0,4.26,3.63,3.63,0,0,1-2.45.88A3.58,3.58,0,0,1,645.56,246.8Zm.63,7.31,5.46-6.05,4.86-6.41,1.6,1.43L652.87,249l-5.08,6.58Zm2.46-8.53a1.62,1.62,0,0,0,0-1.82.75.75,0,0,0-1.3,0,1.62,1.62,0,0,0,0,1.82.75.75,0,0,0,1.3,0Zm5.2,9.08a2.76,2.76,0,0,1,0-4.25,3.58,3.58,0,0,1,2.45-.88,3.54,3.54,0,0,1,2.44.88,2.76,2.76,0,0,1,0,4.25,3.58,3.58,0,0,1-2.44.87A3.62,3.62,0,0,1,653.85,254.66Zm3.1-1.21a1.55,1.55,0,0,0,.27-.91,1.51,1.51,0,0,0-.27-.91.8.8,0,0,0-.65-.38.83.83,0,0,0-.66.38,1.51,1.51,0,0,0-.27.91,1.55,1.55,0,0,0,.27.91.83.83,0,0,0,.66.38A.8.8,0,0,0,657,253.45Z"/><path class="cls-1" d="M741,283.79c0-.69,0-1.26,0-1.7a8.24,8.24,0,0,1,.2-1.32,3.46,3.46,0,0,1,.45-1.12,4.13,4.13,0,0,1,.76-.9,7.41,7.41,0,0,1,1.17-.87l.8-.45.87-.48a8.3,8.3,0,0,0,.77-.48,4.35,4.35,0,0,0,.69-.57,2.47,2.47,0,0,0,.43-.64,1.66,1.66,0,0,0,.18-.75,1,1,0,0,0-.36-.88,1.4,1.4,0,0,0-.9-.28,3.24,3.24,0,0,0-1.48.39,6.39,6.39,0,0,0-1.37,1L741,272.3a6.17,6.17,0,0,1,2.32-1.53,8.69,8.69,0,0,1,3.3-.61,5.44,5.44,0,0,1,3.63,1.09,3.7,3.7,0,0,1,1.3,3,4.19,4.19,0,0,1-.69,2.41,6.74,6.74,0,0,1-2,1.85c-1.56,1-2.62,1.65-3.17,2.05h5.92v3.22Z"/><path class="cls-1" d="M758.81,283.78v-2.59h-5V278l6.13-7.67h2.52V278h1.7v3.23h-1.7v2.59ZM757.45,278h1.78v-2.27Z"/><path class="cls-1" d="M766.72,283.79V280.3h3v3.49Z"/><path class="cls-1" d="M776.78,284a6.27,6.27,0,0,1-2.72-.56,4.23,4.23,0,0,1-1.86-1.56l2-2.29a3.93,3.93,0,0,0,1.24.92,3,3,0,0,0,1.35.34,1.62,1.62,0,0,0,1.12-.38,1.36,1.36,0,0,0,.41-1,1.43,1.43,0,0,0-.37-1,1.27,1.27,0,0,0-1-.38,1.6,1.6,0,0,0-.75.18,1.28,1.28,0,0,0-.52.48h-3.15l1.63-8.39h6.88v3.28h-4.24l-.2,1.47a2.92,2.92,0,0,1,.88-.1,4.55,4.55,0,0,1,3.29,1.23,4.19,4.19,0,0,1,1.27,3.16,4.23,4.23,0,0,1-1.47,3.34A5.64,5.64,0,0,1,776.78,284Z"/><path class="cls-1" d="M785.29,275.25a2.76,2.76,0,0,1-1-2.13,2.73,2.73,0,0,1,1-2.13,3.84,3.84,0,0,1,4.89,0,2.71,2.71,0,0,1,1,2.13,2.74,2.74,0,0,1-1,2.13,3.87,3.87,0,0,1-4.89,0Zm.63,7.31,5.47-6.06,4.85-6.41,1.61,1.43-5.25,5.87L787.52,284Zm2.46-8.53a1.49,1.49,0,0,0,.28-.91,1.45,1.45,0,0,0-.28-.91.75.75,0,0,0-1.3,0,1.51,1.51,0,0,0-.27.91,1.55,1.55,0,0,0,.27.91.75.75,0,0,0,1.3,0Zm5.21,9.08a2.71,2.71,0,0,1-1-2.13,2.74,2.74,0,0,1,1-2.13,3.86,3.86,0,0,1,4.88,0,2.74,2.74,0,0,1,1,2.13,2.71,2.71,0,0,1-1,2.13,3.86,3.86,0,0,1-4.88,0Zm3.09-1.22A1.45,1.45,0,0,0,797,281a1.49,1.49,0,0,0-.28-.91.75.75,0,0,0-1.3,0,1.49,1.49,0,0,0-.28.91,1.45,1.45,0,0,0,.28.91.75.75,0,0,0,1.3,0Z"/><path class="cls-1" d="M874.77,222.58V220h-5v-3.23l6.13-7.67h2.52v7.67h1.7V220h-1.7v2.59Zm-1.37-5.82h1.79v-2.27Z"/><path class="cls-1" d="M891.39,214.88a4.09,4.09,0,0,1,1.38,3.16,4.43,4.43,0,0,1-1.47,3.37,5.14,5.14,0,0,1-3.66,1.38,4.56,4.56,0,0,1-3.82-1.75,7.83,7.83,0,0,1-1.35-4.9,8.3,8.3,0,0,1,1.48-5.23A4.82,4.82,0,0,1,888,209a6,6,0,0,1,4.36,1.82l-2,2.32a3.33,3.33,0,0,0-2.4-1,2,2,0,0,0-1.49.56,2.31,2.31,0,0,0-.6,1.58,3.09,3.09,0,0,1,2.09-.65A4.87,4.87,0,0,1,891.39,214.88Zm-4.9,4.37a1.52,1.52,0,0,0,2.29,0,1.67,1.67,0,0,0,.5-1.21,1.53,1.53,0,0,0-.48-1.14,1.61,1.61,0,0,0-1.16-.46,1.63,1.63,0,0,0-1.17.46A1.53,1.53,0,0,0,886,218,1.71,1.71,0,0,0,886.49,219.25Z"/><path class="cls-1" d="M895.32,222.6v-3.5h3v3.5Z"/><path class="cls-1" d="M905.19,222.69a7,7,0,0,1-4.7-1.52l1.88-2.62a4.16,4.16,0,0,0,2.63.84,2.71,2.71,0,0,0,1.44-.3,1,1,0,0,0,.45-.93,1.09,1.09,0,0,0-.58-1,4.2,4.2,0,0,0-1.89-.32h-.61v-2.5h.69a2.7,2.7,0,0,0,1.48-.36,1.08,1.08,0,0,0,.56-.95.86.86,0,0,0-.33-.72,1.46,1.46,0,0,0-.92-.26,2.74,2.74,0,0,0-2.31,1.34l-2.32-2.68a4.77,4.77,0,0,1,2.08-1.23,9.15,9.15,0,0,1,3-.48,6,6,0,0,1,3.47.92,2.83,2.83,0,0,1,1.31,2.42,3.1,3.1,0,0,1-.71,2A3,3,0,0,1,908,215.4a3.1,3.1,0,0,1,2,1.16,3.46,3.46,0,0,1,.76,2.25,3.28,3.28,0,0,1-1.48,2.84A6.84,6.84,0,0,1,905.19,222.69Z"/><path class="cls-1" d="M914,214.05a2.73,2.73,0,0,1-1-2.13,2.76,2.76,0,0,1,1-2.13,3.87,3.87,0,0,1,4.89,0,2.74,2.74,0,0,1,1,2.13,2.71,2.71,0,0,1-1,2.13,3.84,3.84,0,0,1-4.89,0Zm.63,7.32,5.47-6.06,4.85-6.41,1.61,1.43-5.25,5.87-5.08,6.59Zm2.46-8.54a1.47,1.47,0,0,0,.28-.91,1.49,1.49,0,0,0-.28-.91.75.75,0,0,0-1.3,0,1.55,1.55,0,0,0-.27.91,1.53,1.53,0,0,0,.27.91.75.75,0,0,0,1.3,0Zm5.21,9.08a2.76,2.76,0,0,1,0-4.25,3.82,3.82,0,0,1,4.88,0,2.76,2.76,0,0,1,0,4.25,3.82,3.82,0,0,1-4.88,0Zm3.1-1.21a1.55,1.55,0,0,0,.27-.91,1.53,1.53,0,0,0-.27-.91.83.83,0,0,0-.66-.38.8.8,0,0,0-.65.38,1.47,1.47,0,0,0-.28.91,1.49,1.49,0,0,0,.28.91.8.8,0,0,0,.65.38A.83.83,0,0,0,925.38,220.7Z"/><path class="cls-1" d="M1006,257.69a7,7,0,0,1-4.71-1.52l1.88-2.62a4.18,4.18,0,0,0,2.63.84,2.71,2.71,0,0,0,1.44-.3,1,1,0,0,0,.46-.93,1.1,1.1,0,0,0-.59-1,4.2,4.2,0,0,0-1.89-.32h-.6v-2.5h.68a2.7,2.7,0,0,0,1.48-.36,1.09,1.09,0,0,0,.57-.95.86.86,0,0,0-.33-.72,1.49,1.49,0,0,0-.93-.26,2.72,2.72,0,0,0-2.3,1.34l-2.33-2.68a4.75,4.75,0,0,1,2.09-1.23,9.07,9.07,0,0,1,3-.48,5.93,5.93,0,0,1,3.46.92,2.81,2.81,0,0,1,1.31,2.42,3.05,3.05,0,0,1-.71,2,2.94,2.94,0,0,1-1.79,1.09,3.1,3.1,0,0,1,2,1.16,3.46,3.46,0,0,1,.76,2.25,3.28,3.28,0,0,1-1.48,2.84A6.8,6.8,0,0,1,1006,257.69Z"/><path class="cls-1" d="M1018.2,257.69a7,7,0,0,1-4.7-1.52l1.87-2.62a4.18,4.18,0,0,0,2.63.84,2.71,2.71,0,0,0,1.44-.3,1,1,0,0,0,.46-.93,1.1,1.1,0,0,0-.59-1,4.2,4.2,0,0,0-1.89-.32h-.6v-2.5h.68a2.74,2.74,0,0,0,1.49-.36,1.1,1.1,0,0,0,.56-.95.86.86,0,0,0-.33-.72,1.49,1.49,0,0,0-.93-.26,2.72,2.72,0,0,0-2.3,1.34l-2.32-2.68a4.65,4.65,0,0,1,2.08-1.23,9.07,9.07,0,0,1,3-.48,5.93,5.93,0,0,1,3.46.92,2.82,2.82,0,0,1,1.32,2.42,3.06,3.06,0,0,1-.72,2,2.94,2.94,0,0,1-1.79,1.09,3.05,3.05,0,0,1,2,1.16,3.46,3.46,0,0,1,.76,2.25,3.28,3.28,0,0,1-1.48,2.84A6.8,6.8,0,0,1,1018.2,257.69Z"/><path class="cls-1" d="M1026.31,257.6v-3.5h3v3.5Z"/><path class="cls-1" d="M1041.34,254.37v3.23h-9v-3.23h2.75v-6.88a4.41,4.41,0,0,1-1.4,1.06,3.85,3.85,0,0,1-1.79.58v-3.31a2.36,2.36,0,0,0,.85-.18,4.93,4.93,0,0,0,.86-.43,8.75,8.75,0,0,0,.74-.52l.53-.45a1.49,1.49,0,0,0,.21-.22h3.75v10.35Z"/><path class="cls-1" d="M1044.27,249.05a2.71,2.71,0,0,1-1-2.13,2.74,2.74,0,0,1,1-2.13,3.86,3.86,0,0,1,4.88,0,2.75,2.75,0,0,1,1,2.13,2.72,2.72,0,0,1-1,2.13,3.82,3.82,0,0,1-4.88,0Zm.63,7.32,5.46-6.06,4.86-6.41,1.6,1.43-5.24,5.87-5.08,6.59Zm2.46-8.54a1.53,1.53,0,0,0,.27-.91,1.55,1.55,0,0,0-.27-.91.75.75,0,0,0-1.3,0,1.56,1.56,0,0,0-.28.91,1.54,1.54,0,0,0,.28.91.75.75,0,0,0,1.3,0Zm5.2,9.08a2.76,2.76,0,0,1,0-4.25,3.63,3.63,0,0,1,2.45-.88,3.58,3.58,0,0,1,2.44.88,2.76,2.76,0,0,1,0,4.25,3.58,3.58,0,0,1-2.44.88A3.63,3.63,0,0,1,1052.56,256.91Zm3.1-1.21a1.55,1.55,0,0,0,.27-.91,1.53,1.53,0,0,0-.27-.91.8.8,0,0,0-.65-.38.83.83,0,0,0-.66.38,1.54,1.54,0,0,0-.28.91,1.56,1.56,0,0,0,.28.91.83.83,0,0,0,.66.38A.8.8,0,0,0,1055.66,255.7Z"/><path class="cls-1" d="M1131.11,293.48c0-.69,0-1.26,0-1.7a9.93,9.93,0,0,1,.2-1.33,3.73,3.73,0,0,1,.44-1.11,4.5,4.5,0,0,1,.77-.9,7.41,7.41,0,0,1,1.17-.87l.8-.45.87-.48a8.59,8.59,0,0,0,.77-.49,3.86,3.86,0,0,0,.69-.56,2.47,2.47,0,0,0,.43-.64,1.66,1.66,0,0,0,.18-.75,1,1,0,0,0-.36-.88,1.4,1.4,0,0,0-.9-.28,3.24,3.24,0,0,0-1.48.39,6.06,6.06,0,0,0-1.37,1l-2.25-2.41a6.17,6.17,0,0,1,2.32-1.53,8.69,8.69,0,0,1,3.3-.61,5.49,5.49,0,0,1,3.64,1.09,3.72,3.72,0,0,1,1.29,3,4.16,4.16,0,0,1-.69,2.4,6.5,6.5,0,0,1-2,1.85c-1.56,1-2.62,1.66-3.17,2.05h5.92v3.23Z"/><path class="cls-1" d="M1148.53,293.58a7,7,0,0,1-4.7-1.53l1.88-2.61a4.13,4.13,0,0,0,2.62.83,2.77,2.77,0,0,0,1.44-.29,1,1,0,0,0,.46-.94,1.09,1.09,0,0,0-.59-1,4.18,4.18,0,0,0-1.88-.32h-.61v-2.5h.68a2.74,2.74,0,0,0,1.49-.36,1.09,1.09,0,0,0,.56-.95.86.86,0,0,0-.33-.72,1.49,1.49,0,0,0-.93-.25,2.71,2.71,0,0,0-2.3,1.33l-2.32-2.68a4.74,4.74,0,0,1,2.08-1.23,9.06,9.06,0,0,1,3-.47,6,6,0,0,1,3.47.91,2.85,2.85,0,0,1,1.31,2.43,3.14,3.14,0,0,1-.71,2,2.93,2.93,0,0,1-1.8,1.08,3.14,3.14,0,0,1,2,1.16,3.54,3.54,0,0,1,.76,2.26,3.31,3.31,0,0,1-1.48,2.84A6.93,6.93,0,0,1,1148.53,293.58Z"/><path class="cls-1" d="M1156.64,293.48V290h3v3.49Z"/><path class="cls-1" d="M1166.7,293.65a6.45,6.45,0,0,1-2.72-.56,4.36,4.36,0,0,1-1.86-1.56l2-2.29a4.21,4.21,0,0,0,1.24.92,3.2,3.2,0,0,0,1.35.34,1.62,1.62,0,0,0,1.12-.38,1.52,1.52,0,0,0,0-2,1.27,1.27,0,0,0-1-.39,1.56,1.56,0,0,0-.74.18,1.33,1.33,0,0,0-.53.49h-3.14l1.62-8.39H1171v3.28h-4.24l-.21,1.47a2.65,2.65,0,0,1,.89-.1,4.52,4.52,0,0,1,3.28,1.23A4.18,4.18,0,0,1,1172,289a4.24,4.24,0,0,1-1.48,3.34A5.64,5.64,0,0,1,1166.7,293.65Z"/><path class="cls-1" d="M1175.21,284.93a2.78,2.78,0,0,1,0-4.25,3.84,3.84,0,0,1,4.89,0,2.76,2.76,0,0,1,0,4.25,3.84,3.84,0,0,1-4.89,0Zm.63,7.32,5.47-6.06,4.85-6.41,1.61,1.43-5.24,5.87-5.08,6.59Zm2.47-8.54a1.65,1.65,0,0,0,0-1.81.75.75,0,0,0-1.31,0,1.65,1.65,0,0,0,0,1.81.75.75,0,0,0,1.31,0Zm5.2,9.09a2.71,2.71,0,0,1-1-2.13,2.74,2.74,0,0,1,1-2.13,3.87,3.87,0,0,1,4.89,0,2.76,2.76,0,0,1,1,2.13,2.73,2.73,0,0,1-1,2.13,3.87,3.87,0,0,1-4.89,0Zm3.1-1.22a1.53,1.53,0,0,0,.27-.91,1.55,1.55,0,0,0-.27-.91.81.81,0,0,0-.65-.38.8.8,0,0,0-.66.38,1.49,1.49,0,0,0-.28.91,1.47,1.47,0,0,0,.28.91.8.8,0,0,0,.66.38A.81.81,0,0,0,1186.61,291.58Z"/><path class="cls-1" d="M50,41.11V38.52H45V35.29l6.13-7.67h2.52v7.67h1.7v3.23h-1.7v2.59Zm-1.36-5.82H50.4V33Z"/><path class="cls-1" d="M57.62,41.13c0-.7,0-1.26.05-1.71a8.24,8.24,0,0,1,.2-1.32A3.45,3.45,0,0,1,58.31,37a4.44,4.44,0,0,1,.76-.9,6.56,6.56,0,0,1,1.18-.86c.18-.11.45-.27.8-.46l.86-.47c.23-.13.49-.29.78-.49a4.72,4.72,0,0,0,.68-.57,2.63,2.63,0,0,0,.44-.63,1.87,1.87,0,0,0,.17-.76,1.07,1.07,0,0,0-.35-.88,1.49,1.49,0,0,0-.91-.28,3.13,3.13,0,0,0-1.47.4,5.81,5.81,0,0,0-1.37,1l-2.26-2.41A6.22,6.22,0,0,1,60,28.1a8.62,8.62,0,0,1,3.3-.61,5.48,5.48,0,0,1,3.63,1.09,3.74,3.74,0,0,1,1.3,3,4.12,4.12,0,0,1-.7,2.41,6.82,6.82,0,0,1-2,1.85c-1.57,1-2.63,1.65-3.18,2H68.2v3.23Z"/><path class="cls-1" d="M71,41.13v-3.5h3v3.5Z"/><path class="cls-1" d="M85.45,33.4a4.12,4.12,0,0,1,1.38,3.16,4.45,4.45,0,0,1-1.47,3.38,5.22,5.22,0,0,1-3.67,1.37,4.54,4.54,0,0,1-3.81-1.74,7.85,7.85,0,0,1-1.35-4.9A8.39,8.39,0,0,1,78,29.43a4.85,4.85,0,0,1,4.06-1.9,6,6,0,0,1,4.36,1.81l-2,2.32a3.32,3.32,0,0,0-2.4-1,2,2,0,0,0-1.49.57,2.36,2.36,0,0,0-.59,1.58A3,3,0,0,1,82,32.14,4.93,4.93,0,0,1,85.45,33.4Zm-4.9,4.38a1.52,1.52,0,0,0,2.29,0,1.72,1.72,0,0,0,.5-1.22,1.49,1.49,0,0,0-.49-1.13A1.59,1.59,0,0,0,81.69,35a1.61,1.61,0,0,0-1.16.46,1.52,1.52,0,0,0-.48,1.13A1.68,1.68,0,0,0,80.55,37.78Z"/><path class="cls-1" d="M93.66,41.29a6.27,6.27,0,0,1-2.72-.56,4.23,4.23,0,0,1-1.86-1.56l2-2.28a4.26,4.26,0,0,0,1.24.92,3.12,3.12,0,0,0,1.35.33,1.62,1.62,0,0,0,1.12-.38,1.33,1.33,0,0,0,.41-1,1.43,1.43,0,0,0-.37-1,1.3,1.3,0,0,0-1-.38,1.6,1.6,0,0,0-.75.18,1.23,1.23,0,0,0-.52.49H89.47l1.62-8.4H98V30.9H93.73l-.2,1.47a3,3,0,0,1,.88-.09A4.54,4.54,0,0,1,97.7,33.5,4.19,4.19,0,0,1,99,36.66,4.23,4.23,0,0,1,97.5,40,5.64,5.64,0,0,1,93.66,41.29Z"/><path class="cls-1" d="M102.17,32.58a2.76,2.76,0,0,1-1-2.13,2.73,2.73,0,0,1,1-2.13,3.84,3.84,0,0,1,4.89,0,2.71,2.71,0,0,1,1,2.13,2.74,2.74,0,0,1-1,2.13,3.84,3.84,0,0,1-4.89,0Zm.63,7.31,5.47-6.06,4.85-6.41,1.61,1.43-5.25,5.88-5.08,6.58Zm2.46-8.53a1.49,1.49,0,0,0,.28-.91,1.47,1.47,0,0,0-.28-.91.75.75,0,0,0-1.3,0,1.53,1.53,0,0,0-.27.91,1.55,1.55,0,0,0,.27.91.75.75,0,0,0,1.3,0Zm5.21,9.08a2.76,2.76,0,0,1,0-4.25,3.82,3.82,0,0,1,4.88,0,2.76,2.76,0,0,1,0,4.25,3.86,3.86,0,0,1-4.88,0Zm3.09-1.22a1.6,1.6,0,0,0,0-1.81.75.75,0,0,0-1.3,0,1.6,1.6,0,0,0,0,1.81.74.74,0,0,0,1.3,0Z"/><path class="cls-1" d="M204,163.08a6.45,6.45,0,0,1-2.72-.56,4.49,4.49,0,0,1-1.86-1.56l2-2.29a4.13,4.13,0,0,0,1.25.92,3.11,3.11,0,0,0,1.34.33,1.55,1.55,0,0,0,1.12-.38,1.33,1.33,0,0,0,.41-1,1.36,1.36,0,0,0-.37-1,1.24,1.24,0,0,0-1-.39,1.56,1.56,0,0,0-.74.18,1.33,1.33,0,0,0-.53.49H199.8l1.62-8.4h6.89v3.29h-4.24l-.21,1.46a3.08,3.08,0,0,1,.89-.09,4.52,4.52,0,0,1,3.28,1.23,4.52,4.52,0,0,1-.2,6.5A5.61,5.61,0,0,1,204,163.08Z"/><path class="cls-1" d="M216.81,152.69h-5.24V149.4h11l-6.72,13.49h-4.15Z"/><path class="cls-1" d="M223.37,162.91v-3.5h3v3.5Z"/><path class="cls-1" d="M233.24,163a7,7,0,0,1-4.7-1.52l1.88-2.61a4.21,4.21,0,0,0,2.62.83,2.77,2.77,0,0,0,1.44-.29,1,1,0,0,0,.46-.94,1.09,1.09,0,0,0-.59-1,4.15,4.15,0,0,0-1.88-.32h-.61v-2.5h.68a2.74,2.74,0,0,0,1.49-.36,1.09,1.09,0,0,0,.56-.95.86.86,0,0,0-.33-.72,1.48,1.48,0,0,0-.92-.25,2.71,2.71,0,0,0-2.31,1.33L228.71,151a4.71,4.71,0,0,1,2.08-1.23,9.15,9.15,0,0,1,3-.48,6,6,0,0,1,3.47.92,2.83,2.83,0,0,1,1.31,2.42,3.15,3.15,0,0,1-.71,2,3,3,0,0,1-1.79,1.08,3.1,3.1,0,0,1,2,1.16,3.53,3.53,0,0,1,.76,2.26,3.31,3.31,0,0,1-1.48,2.84A6.93,6.93,0,0,1,233.24,163Z"/><path class="cls-1" d="M242,154.36a2.71,2.71,0,0,1-1-2.13,2.74,2.74,0,0,1,1-2.13,3.86,3.86,0,0,1,4.88,0,2.75,2.75,0,0,1,1,2.13,2.72,2.72,0,0,1-1,2.13,3.82,3.82,0,0,1-4.88,0Zm.63,7.32,5.46-6.06,4.86-6.41,1.6,1.43-5.24,5.87-5.08,6.59Zm2.46-8.54a1.51,1.51,0,0,0,.28-.91,1.56,1.56,0,0,0-.28-.91.75.75,0,0,0-1.3,0,1.56,1.56,0,0,0-.28.91,1.51,1.51,0,0,0,.28.91.75.75,0,0,0,1.3,0Zm5.2,9.09a2.77,2.77,0,0,1,0-4.26,3.62,3.62,0,0,1,2.45-.87,3.58,3.58,0,0,1,2.44.87,2.77,2.77,0,0,1,0,4.26,3.58,3.58,0,0,1-2.44.87A3.62,3.62,0,0,1,250.32,162.23Zm3.1-1.22a1.53,1.53,0,0,0,.27-.91,1.55,1.55,0,0,0-.27-.91.8.8,0,0,0-.65-.38.83.83,0,0,0-.66.38,1.56,1.56,0,0,0-.28.91,1.54,1.54,0,0,0,.28.91.83.83,0,0,0,.66.38A.8.8,0,0,0,253.42,161Z"/><polygon class="cls-2" points="21.47 423.4 44.02 57.8 66.57 423.4 21.47 423.4"/><polygon class="cls-1" points="58.65 423.4 81.2 267.65 103.75 423.4 58.65 423.4"/><polygon class="cls-2" points="166.44 423.4 188.99 179.91 211.54 423.4 166.44 423.4"/><polygon class="cls-1" points="203.62 423.4 226.17 213.91 248.72 423.4 203.62 423.4"/><polygon class="cls-2" points="306.58 423.4 329.13 261.07 351.68 423.4 306.58 423.4"/><polygon class="cls-1" points="343.75 423.4 366.3 334.92 388.85 423.4 343.75 423.4"/><polygon class="cls-2" points="433.14 423.4 455.69 301.65 478.24 423.4 433.14 423.4"/><polygon class="cls-1" points="470.31 423.4 492.86 266.19 515.41 423.4 470.31 423.4"/><polygon class="cls-2" points="569.75 423.4 592.3 301.65 614.85 423.4 569.75 423.4"/><polygon class="cls-1" points="606.93 423.4 629.48 310.8 652.02 423.4 606.93 423.4"/><polygon class="cls-2" points="707.74 423.4 730.29 301.65 752.84 423.4 707.74 423.4"/><polygon class="cls-1" points="744.91 423.4 767.46 336.88 790.01 423.4 744.91 423.4"/><polygon class="cls-2" points="839.32 423.4 861.87 301.65 884.42 423.4 839.32 423.4"/><polygon class="cls-1" points="876.5 423.4 899.05 254.13 921.6 423.4 876.5 423.4"/><polygon class="cls-2" points="970.28 423.4 992.84 301.65 1015.38 423.4 970.28 423.4"/><polygon class="cls-1" points="1007.46 423.4 1030.01 302.75 1052.56 423.4 1007.46 423.4"/><polygon class="cls-2" points="1100.49 423.4 1123.04 382.82 1145.59 423.4 1100.49 423.4"/><polygon class="cls-1" points="1137.67 423.4 1160.22 337.48 1182.77 423.4 1137.67 423.4"/><path class="cls-3" d="M1199.41,426.42H1.47a1.48,1.48,0,0,1,0-2.95H1199.41a1.48,1.48,0,0,1,0,2.95Z"/></g></g></svg>