<svg xmlns="http://www.w3.org/2000/svg" viewBox="0 0 1081.89 480.87"><defs><style>.cls-1{fill:#fff;}.cls-2{fill:#00d1c0;}</style></defs><title>14</title><g id="Capa_2" data-name="Capa 2"><g id="Layer_1" data-name="Layer 1"><path class="cls-1" d="M43.3,410.91l3.16,6,3.2-6h2.68l-4.64,8.32v4.46H45.24v-4.5l-4.63-8.28Z"/><path class="cls-1" d="M56.23,423.87a5.06,5.06,0,0,1-2.62-.67,4.48,4.48,0,0,1-1.75-1.76,4.92,4.92,0,0,1-.6-2.41,5.15,5.15,0,0,1,.6-2.46,4.45,4.45,0,0,1,1.75-1.8,5.09,5.09,0,0,1,2.64-.68,5.29,5.29,0,0,1,2.06.4,4.29,4.29,0,0,1,1.56,1.07,5,5,0,0,1,1,1.54,5.13,5.13,0,0,1,.33,1.84,4.59,4.59,0,0,1,0,.81H53.82a2.47,2.47,0,0,0,.8,1.71,2.45,2.45,0,0,0,1.7.65,2.75,2.75,0,0,0,1.37-.36,1.82,1.82,0,0,0,.86-.92l2.07.58a4.07,4.07,0,0,1-1.69,1.78A5.31,5.31,0,0,1,56.23,423.87Zm-2.47-5.65h4.93a2.64,2.64,0,0,0-.79-1.72,2.46,2.46,0,0,0-3.35,0A2.55,2.55,0,0,0,53.76,418.22Z"/><path class="cls-1" d="M66.1,423.87a6.71,6.71,0,0,1-2.32-.41,5.19,5.19,0,0,1-1.87-1.16l.86-1.56A5.33,5.33,0,0,0,66,422.08a2.11,2.11,0,0,0,1.12-.26.85.85,0,0,0,.42-.76,1.23,1.23,0,0,0,0-.2.38.38,0,0,0-.09-.18l-.12-.14a.46.46,0,0,0-.18-.13l-.22-.11-.28-.1-.3-.1L66,420l-.4-.12c-.46-.15-.84-.28-1.13-.4a5.75,5.75,0,0,1-.87-.41,2.57,2.57,0,0,1-.65-.5,2.16,2.16,0,0,1-.36-.63,2.11,2.11,0,0,1-.14-.82,2.68,2.68,0,0,1,1-2.22,4.33,4.33,0,0,1,2.77-.82,4.94,4.94,0,0,1,3.54,1.33l-1,1.53a4.47,4.47,0,0,0-2.68-1.08,2.2,2.2,0,0,0-1,.23.79.79,0,0,0-.41.75.75.75,0,0,0,.37.69,5.79,5.79,0,0,0,1.34.49c.53.16.94.29,1.24.4a7.45,7.45,0,0,1,1,.4,2.88,2.88,0,0,1,.74.52,2.1,2.1,0,0,1,.4.65,2.29,2.29,0,0,1,.16.9,2.62,2.62,0,0,1-1,2.18A4.38,4.38,0,0,1,66.1,423.87Z"/><path class="cls-1" d="M71.74,425.77l.48-2.15h-.76V421.1h2.09v2.52l-.74,2.15Z"/><path class="cls-1" d="M91.21,414.26h2.28l-3.94,9.43h-2L86,419.64l-1.55,4.05h-2l-3.93-9.43h2.27l2.81,7.13,1.1-3.08-1.64-4h2l1,2.88,1-2.88h2l-1.64,4,1.12,3.08Z"/><path class="cls-1" d="M98.66,423.87A5.09,5.09,0,0,1,96,423.2a4.55,4.55,0,0,1-1.75-1.76,4.92,4.92,0,0,1-.6-2.41,5.15,5.15,0,0,1,.6-2.46,4.52,4.52,0,0,1,1.75-1.8,5.15,5.15,0,0,1,2.65-.68,5.33,5.33,0,0,1,2.06.4,4.34,4.34,0,0,1,1.55,1.07,4.82,4.82,0,0,1,1,1.54,4.93,4.93,0,0,1,.34,1.84,5.82,5.82,0,0,1,0,.81h-7.3a2.48,2.48,0,0,0,.81,1.71,2.43,2.43,0,0,0,1.7.65,2.71,2.71,0,0,0,1.36-.36,1.8,1.8,0,0,0,.87-.92l2.06.58a4,4,0,0,1-1.69,1.78A5.24,5.24,0,0,1,98.66,423.87Zm-2.47-5.65h4.93a2.65,2.65,0,0,0-.8-1.72,2.46,2.46,0,0,0-3.35,0A2.59,2.59,0,0,0,96.19,418.22Z"/><path class="cls-1" d="M109.28,420.17v-5.91h2.41v5.38c0,1.45.52,2.18,1.57,2.18a2.48,2.48,0,0,0,1.38-.44,3.18,3.18,0,0,0,1-1.27v-5.85h2.41V421a.85.85,0,0,0,.13.55.63.63,0,0,0,.45.19v2a6.05,6.05,0,0,1-1.05.11,1.77,1.77,0,0,1-1.06-.3,1.15,1.15,0,0,1-.47-.82l0-.75a4.08,4.08,0,0,1-1.61,1.45,4.9,4.9,0,0,1-2.19.49,2.68,2.68,0,0,1-2.21-.94A4.36,4.36,0,0,1,109.28,420.17Z"/><path class="cls-1" d="M124,423.87a6.66,6.66,0,0,1-2.32-.41,5.19,5.19,0,0,1-1.87-1.16l.86-1.56a5.33,5.33,0,0,0,3.24,1.34,2.15,2.15,0,0,0,1.13-.26.85.85,0,0,0,.42-.76,1.23,1.23,0,0,0,0-.2.76.76,0,0,0-.09-.18l-.12-.14a.46.46,0,0,0-.18-.13l-.22-.11-.28-.1-.31-.1-.36-.1-.4-.12c-.46-.15-.84-.28-1.13-.4a5.75,5.75,0,0,1-.87-.41,2.57,2.57,0,0,1-.65-.5,2.18,2.18,0,0,1-.37-.63,2.31,2.31,0,0,1-.13-.82,2.7,2.7,0,0,1,1-2.22,4.38,4.38,0,0,1,2.78-.82,5,5,0,0,1,3.54,1.33l-1,1.53a4.47,4.47,0,0,0-2.68-1.08,2.2,2.2,0,0,0-1,.23.79.79,0,0,0-.41.75.75.75,0,0,0,.37.69,5.79,5.79,0,0,0,1.34.49c.52.16.94.29,1.24.4a7.45,7.45,0,0,1,1,.4,2.64,2.64,0,0,1,.73.52,2,2,0,0,1,.41.65,2.29,2.29,0,0,1,.16.9,2.62,2.62,0,0,1-1,2.18A4.4,4.4,0,0,1,124,423.87Z"/><path class="cls-1" d="M133.75,423.87a5.12,5.12,0,0,1-2.63-.67,4.52,4.52,0,0,1-1.74-1.76,4.92,4.92,0,0,1-.6-2.41,5.15,5.15,0,0,1,.6-2.46,4.49,4.49,0,0,1,1.74-1.8,5.15,5.15,0,0,1,2.65-.68,5.29,5.29,0,0,1,2.06.4,4.38,4.38,0,0,1,1.56,1.07,5,5,0,0,1,1,1.54,5.13,5.13,0,0,1,.33,1.84,4.59,4.59,0,0,1-.05.81h-7.29a2.47,2.47,0,0,0,2.5,2.36,2.75,2.75,0,0,0,1.37-.36,1.82,1.82,0,0,0,.86-.92l2.07.58a4.07,4.07,0,0,1-1.69,1.78A5.31,5.31,0,0,1,133.75,423.87Zm-2.47-5.65h4.93a2.64,2.64,0,0,0-.79-1.72,2.34,2.34,0,0,0-1.68-.66,2.32,2.32,0,0,0-1.67.66A2.55,2.55,0,0,0,131.28,418.22Z"/><path class="cls-1" d="M150.12,423.21a6.56,6.56,0,0,1-2.66.64,3.12,3.12,0,0,1-1-.13,2.4,2.4,0,0,1-.78-.4,1.75,1.75,0,0,1-.53-.73,2.67,2.67,0,0,1-.2-1.06v-5.41h-1.24v-1.86H145V411.2h2.42v3.06h2v1.86h-2v4.6c0,.62.32.92.9.92a3.46,3.46,0,0,0,1.31-.34Z"/><path class="cls-1" d="M160.14,423.69h-2.41V418.4a2.7,2.7,0,0,0-.41-1.63,1.38,1.38,0,0,0-1.17-.55,2.31,2.31,0,0,0-1.4.56,2.9,2.9,0,0,0-1,1.4v5.51h-2.4V410.55h2.4V416a3.79,3.79,0,0,1,1.43-1.41,3.87,3.87,0,0,1,2-.51q3,0,3,3.71Z"/><path class="cls-1" d="M166.62,423.87a5.07,5.07,0,0,1-2.63-.67,4.55,4.55,0,0,1-1.75-1.76,4.92,4.92,0,0,1-.6-2.41,5.15,5.15,0,0,1,.6-2.46,4.52,4.52,0,0,1,1.75-1.8,5.11,5.11,0,0,1,2.64-.68,5.29,5.29,0,0,1,2.06.4,4.29,4.29,0,0,1,1.56,1.07,5,5,0,0,1,1,1.54,5.14,5.14,0,0,1,.34,1.84,4.47,4.47,0,0,1-.06.81H164.2a2.48,2.48,0,0,0,.81,1.71,2.41,2.41,0,0,0,1.69.65,2.75,2.75,0,0,0,1.37-.36,1.88,1.88,0,0,0,.87-.92l2.06.58a4.07,4.07,0,0,1-1.69,1.78A5.3,5.3,0,0,1,166.62,423.87Zm-2.47-5.65h4.93a2.65,2.65,0,0,0-.8-1.72,2.46,2.46,0,0,0-3.35,0A2.5,2.5,0,0,0,164.15,418.22Z"/><path class="cls-1" d="M188,423.69v-8.38l-3.27,6.24h-1.39L180,415.31v8.38h-2.47V410.91h2.66l3.78,7.27,3.81-7.27h2.65v12.78Z"/><path class="cls-1" d="M193.13,423.69V410.91h5.65a3.72,3.72,0,0,1,2.09.63,4.34,4.34,0,0,1,1.35,5.87,3.51,3.51,0,0,1-1.68,1.47l2.92,4.81h-2.73l-2.63-4.28h-2.49v4.28Zm2.48-6.46h3.11a1.43,1.43,0,0,0,1.16-.6,2.33,2.33,0,0,0,.47-1.47,2.16,2.16,0,0,0-.53-1.47,1.56,1.56,0,0,0-1.2-.6h-3Z"/><path class="cls-1" d="M210.54,410.84a5.9,5.9,0,0,1,3,.76,4.71,4.71,0,0,1,2,2L213.6,415a2.94,2.94,0,0,0-.85-1.13,3.11,3.11,0,0,0-1.1-.61,4.21,4.21,0,0,0-1.18-.17,3.61,3.61,0,0,0-1.62.37,3.33,3.33,0,0,0-1.17,1,5.1,5.1,0,0,0-.68,1.36,4.94,4.94,0,0,0-.24,1.53,4.86,4.86,0,0,0,.47,2.11,3.92,3.92,0,0,0,1.34,1.59,3.26,3.26,0,0,0,1.94.61,3.77,3.77,0,0,0,1.2-.19,3.31,3.31,0,0,0,1.13-.64,2.83,2.83,0,0,0,.82-1.11l2,1.17a3.93,3.93,0,0,1-1.24,1.6,6.1,6.1,0,0,1-1.91,1,6.59,6.59,0,0,1-2.1.34,5.85,5.85,0,0,1-2-.37,5.68,5.68,0,0,1-1.72-1,7.29,7.29,0,0,1-1.3-1.47,6.6,6.6,0,0,1-.85-1.8,6.74,6.74,0,0,1-.29-1.93,6.44,6.44,0,0,1,.44-2.31,7,7,0,0,1,1.21-2,5.89,5.89,0,0,1,2-1.46A6.29,6.29,0,0,1,210.54,410.84Z"/><path class="cls-1" d="M94.18,442.87a6.71,6.71,0,0,1-2.32-.41A5.19,5.19,0,0,1,90,441.3l.86-1.56a5.33,5.33,0,0,0,3.25,1.34,2.17,2.17,0,0,0,1.13-.26.86.86,0,0,0,.41-.76.65.65,0,0,0,0-.2.38.38,0,0,0-.09-.18l-.11-.14a.62.62,0,0,0-.19-.13L95,439.3l-.28-.1-.3-.1-.37-.1-.39-.12c-.47-.15-.85-.28-1.14-.4a5.75,5.75,0,0,1-.87-.41,2.57,2.57,0,0,1-.65-.5,2.16,2.16,0,0,1-.36-.63,2.31,2.31,0,0,1-.14-.82,2.68,2.68,0,0,1,1-2.22,4.33,4.33,0,0,1,2.77-.82,5,5,0,0,1,3.55,1.33l-1,1.53a4.47,4.47,0,0,0-2.68-1.08,2.2,2.2,0,0,0-1,.23.79.79,0,0,0-.41.75.75.75,0,0,0,.37.69,6,6,0,0,0,1.34.49c.53.16.94.29,1.24.4a7.45,7.45,0,0,1,1,.4,2.88,2.88,0,0,1,.74.52,2.33,2.33,0,0,1,.41.65,2.5,2.5,0,0,1,.15.9,2.62,2.62,0,0,1-1,2.18A4.38,4.38,0,0,1,94.18,442.87Z"/><path class="cls-1" d="M105.2,442.21a6.56,6.56,0,0,1-2.67.64,3.21,3.21,0,0,1-1-.13,2.46,2.46,0,0,1-.77-.4,1.67,1.67,0,0,1-.53-.73,2.67,2.67,0,0,1-.2-1.06v-5.41H98.84v-1.86h1.24V430.2h2.42v3.06h2v1.86h-2v4.6c0,.62.32.92.9.92a3.51,3.51,0,0,0,1.31-.34Z"/><path class="cls-1" d="M105.8,439.91a2.64,2.64,0,0,1,1.13-2.22,4.7,4.7,0,0,1,2.93-.85,5.77,5.77,0,0,1,2.26.38v-.5a1.75,1.75,0,0,0-.53-1.39,2.23,2.23,0,0,0-1.58-.49,4.13,4.13,0,0,0-1.44.26,7.77,7.77,0,0,0-1.5.81l-.78-1.58a7.1,7.1,0,0,1,4-1.24,4.5,4.5,0,0,1,3.14,1,3.66,3.66,0,0,1,1.12,2.88v3a.92.92,0,0,0,.13.55.63.63,0,0,0,.45.19v2a5.55,5.55,0,0,1-1,.13,1.68,1.68,0,0,1-1.07-.31,1.21,1.21,0,0,1-.47-.81l-.06-.48a4.11,4.11,0,0,1-1.52,1.21,4.35,4.35,0,0,1-1.88.44,3.32,3.32,0,0,1-2.34-.85A2.69,2.69,0,0,1,105.8,439.91Zm5.87.48a1.24,1.24,0,0,0,.45-.83v-.95a4.76,4.76,0,0,0-1.89-.38,2.6,2.6,0,0,0-1.54.41,1.23,1.23,0,0,0-.6,1.06,1.27,1.27,0,0,0,.46,1,1.72,1.72,0,0,0,1.22.42,3,3,0,0,0,1-.2A2.4,2.4,0,0,0,111.67,440.39Z"/><path class="cls-1" d="M125.54,442.69h-2.4V437.4c0-1.45-.5-2.18-1.5-2.18a2.4,2.4,0,0,0-1.47.56,2.85,2.85,0,0,0-1,1.4v5.51h-2.41v-9.43H119V435a3.61,3.61,0,0,1,1.53-1.41,4.78,4.78,0,0,1,2.22-.51,3.21,3.21,0,0,1,1.2.22,2.25,2.25,0,0,1,.82.56,2.66,2.66,0,0,1,.49.84,4.76,4.76,0,0,1,.26,1,9.18,9.18,0,0,1,.06,1.09Z"/><path class="cls-1" d="M127.06,438a5.61,5.61,0,0,1,.54-2.46,4.33,4.33,0,0,1,1.51-1.76,3.76,3.76,0,0,1,2.17-.66,3.56,3.56,0,0,1,1.85.5,3.66,3.66,0,0,1,1.33,1.32v-5.36h2.42V440a.93.93,0,0,0,.12.55.61.61,0,0,0,.44.19v2a5.86,5.86,0,0,1-1,.13,1.74,1.74,0,0,1-1.07-.32,1.18,1.18,0,0,1-.48-.85l0-.59a3.54,3.54,0,0,1-1.4,1.34,4,4,0,0,1-1.88.47,4.23,4.23,0,0,1-2.31-.65,4.48,4.48,0,0,1-1.6-1.77A5.27,5.27,0,0,1,127.06,438Zm7.4,1.27V437a2.89,2.89,0,0,0-1-1.31,2.37,2.37,0,0,0-1.43-.53,2.21,2.21,0,0,0-1.77.86,3.07,3.07,0,0,0-.7,2,2.85,2.85,0,0,0,.74,2,2.48,2.48,0,0,0,3.25.35A2.23,2.23,0,0,0,134.46,439.24Z"/><path class="cls-1" d="M138.6,439.91a2.63,2.63,0,0,1,1.12-2.22,4.72,4.72,0,0,1,2.93-.85,5.82,5.82,0,0,1,2.27.38v-.5a1.76,1.76,0,0,0-.54-1.39,2.22,2.22,0,0,0-1.57-.49,4.14,4.14,0,0,0-1.45.26,8.07,8.07,0,0,0-1.5.81l-.78-1.58a7.12,7.12,0,0,1,4-1.24,4.48,4.48,0,0,1,3.14,1,3.66,3.66,0,0,1,1.12,2.88v3a.85.85,0,0,0,.14.55.59.59,0,0,0,.44.19v2a5.45,5.45,0,0,1-1,.13,1.69,1.69,0,0,1-1.08-.31,1.25,1.25,0,0,1-.47-.81l-.05-.48a4.22,4.22,0,0,1-1.53,1.21,4.35,4.35,0,0,1-1.88.44,3.32,3.32,0,0,1-2.34-.85A2.72,2.72,0,0,1,138.6,439.91Zm5.87.48a1.24,1.24,0,0,0,.45-.83v-.95a4.83,4.83,0,0,0-1.89-.38,2.63,2.63,0,0,0-1.55.41,1.23,1.23,0,0,0-.6,1.06,1.27,1.27,0,0,0,.46,1,1.72,1.72,0,0,0,1.22.42,2.92,2.92,0,0,0,1.05-.2A2.54,2.54,0,0,0,144.47,440.39Z"/><path class="cls-1" d="M155.19,435.34a4.73,4.73,0,0,0-2,.44A2.63,2.63,0,0,0,152,437v5.7h-2.41v-9.43h2.22v2a4.35,4.35,0,0,1,1.28-1.52,2.84,2.84,0,0,1,1.64-.61,2.59,2.59,0,0,1,.48,0Z"/><path class="cls-1" d="M155.87,438a5.6,5.6,0,0,1,.53-2.46,4.33,4.33,0,0,1,1.51-1.76,3.78,3.78,0,0,1,2.17-.66,3.6,3.6,0,0,1,1.86.5,3.82,3.82,0,0,1,1.33,1.32v-5.36h2.41V440a.85.85,0,0,0,.13.55.56.56,0,0,0,.43.19v2a5.86,5.86,0,0,1-1,.13,1.74,1.74,0,0,1-1.07-.32,1.22,1.22,0,0,1-.48-.85l0-.59a3.54,3.54,0,0,1-1.4,1.34,4,4,0,0,1-1.88.47,4.23,4.23,0,0,1-2.31-.65,4.48,4.48,0,0,1-1.6-1.77A5.39,5.39,0,0,1,155.87,438Zm7.4,1.27V437a3,3,0,0,0-1-1.31,2.37,2.37,0,0,0-1.43-.53,2.21,2.21,0,0,0-1.77.86,3.12,3.12,0,0,0-.7,2,2.85,2.85,0,0,0,.74,2,2.48,2.48,0,0,0,3.25.35A2.3,2.3,0,0,0,163.27,439.24Z"/><path class="cls-1" d="M318.89,410.91l3.15,6,3.2-6h2.68l-4.64,8.32v4.46h-2.46v-4.5l-4.63-8.28Z"/><path class="cls-1" d="M331.82,423.87a5.09,5.09,0,0,1-2.63-.67,4.55,4.55,0,0,1-1.75-1.76,4.92,4.92,0,0,1-.6-2.41,5.15,5.15,0,0,1,.6-2.46,4.52,4.52,0,0,1,1.75-1.8,5.14,5.14,0,0,1,2.64-.68,5.29,5.29,0,0,1,2.06.4,4.29,4.29,0,0,1,1.56,1.07,5,5,0,0,1,1,1.54,5.14,5.14,0,0,1,.34,1.84,4.47,4.47,0,0,1-.06.81H329.4a2.48,2.48,0,0,0,.81,1.71,2.41,2.41,0,0,0,1.69.65,2.75,2.75,0,0,0,1.37-.36,1.88,1.88,0,0,0,.87-.92l2.06.58a4,4,0,0,1-1.69,1.78A5.3,5.3,0,0,1,331.82,423.87Zm-2.47-5.65h4.93a2.65,2.65,0,0,0-.8-1.72,2.46,2.46,0,0,0-3.35,0A2.54,2.54,0,0,0,329.35,418.22Z"/><path class="cls-1" d="M341.69,423.87a6.62,6.62,0,0,1-2.32-.41,5.14,5.14,0,0,1-1.88-1.16l.86-1.56a5.33,5.33,0,0,0,3.25,1.34,2.17,2.17,0,0,0,1.13-.26.86.86,0,0,0,.41-.76.65.65,0,0,0,0-.2.48.48,0,0,0-.08-.18l-.12-.14a.62.62,0,0,0-.19-.13l-.22-.11-.28-.1-.3-.1-.37-.1-.39-.12c-.47-.15-.85-.28-1.14-.4a5.75,5.75,0,0,1-.87-.41,2.76,2.76,0,0,1-.65-.5,2.16,2.16,0,0,1-.36-.63,2.31,2.31,0,0,1-.14-.82,2.68,2.68,0,0,1,1.05-2.22,4.33,4.33,0,0,1,2.77-.82,5,5,0,0,1,3.55,1.33l-1,1.53a4.47,4.47,0,0,0-2.68-1.08,2.2,2.2,0,0,0-1.05.23.79.79,0,0,0-.41.75.75.75,0,0,0,.37.69A6.11,6.11,0,0,0,342,418c.52.16.93.29,1.23.4a7.45,7.45,0,0,1,1,.4,2.88,2.88,0,0,1,.74.52,2.33,2.33,0,0,1,.41.65,2.5,2.5,0,0,1,.15.9,2.62,2.62,0,0,1-1,2.18A4.37,4.37,0,0,1,341.69,423.87Z"/><path class="cls-1" d="M347.32,425.77l.48-2.15h-.75V421.1h2.08v2.52l-.74,2.15Z"/><path class="cls-1" d="M366.79,414.26h2.28l-3.94,9.43h-2l-1.58-4.05L360,423.69h-2L354,414.26h2.26l2.82,7.13,1.09-3.08-1.64-4h2l1,2.88,1-2.88h2l-1.64,4,1.12,3.08Z"/><path class="cls-1" d="M374.24,423.87a5.12,5.12,0,0,1-2.63-.67,4.55,4.55,0,0,1-1.75-1.76,4.92,4.92,0,0,1-.59-2.41,5.14,5.14,0,0,1,.59-2.46,4.52,4.52,0,0,1,1.75-1.8,5.15,5.15,0,0,1,2.65-.68,5.33,5.33,0,0,1,2.06.4,4.34,4.34,0,0,1,1.55,1.07,4.65,4.65,0,0,1,1,1.54,4.93,4.93,0,0,1,.34,1.84,5.82,5.82,0,0,1-.05.81h-7.3a2.48,2.48,0,0,0,.81,1.71,2.43,2.43,0,0,0,1.7.65,2.71,2.71,0,0,0,1.36-.36,1.8,1.8,0,0,0,.87-.92l2.07.58a4.1,4.1,0,0,1-1.7,1.78A5.24,5.24,0,0,1,374.24,423.87Zm-2.47-5.65h4.93a2.64,2.64,0,0,0-.79-1.72,2.47,2.47,0,0,0-3.36,0A2.59,2.59,0,0,0,371.77,418.22Z"/><path class="cls-1" d="M384.87,420.17v-5.91h2.4v5.38c0,1.45.53,2.18,1.57,2.18a2.43,2.43,0,0,0,1.38-.44,3.18,3.18,0,0,0,1-1.27v-5.85h2.41V421a.92.92,0,0,0,.13.55.63.63,0,0,0,.45.19v2a5.85,5.85,0,0,1-1,.11,1.73,1.73,0,0,1-1.06-.3,1.09,1.09,0,0,1-.47-.82l-.06-.75a4.12,4.12,0,0,1-1.6,1.45,5,5,0,0,1-2.19.49,2.7,2.7,0,0,1-2.22-.94A4.36,4.36,0,0,1,384.87,420.17Z"/><path class="cls-1" d="M399.54,423.87a6.71,6.71,0,0,1-2.32-.41,5.19,5.19,0,0,1-1.87-1.16l.86-1.56a5.33,5.33,0,0,0,3.25,1.34,2.11,2.11,0,0,0,1.12-.26.85.85,0,0,0,.42-.76.65.65,0,0,0,0-.2.38.38,0,0,0-.09-.18l-.12-.14a.46.46,0,0,0-.18-.13l-.22-.11-.28-.1-.3-.1-.37-.1-.39-.12c-.47-.15-.85-.28-1.14-.4a5.75,5.75,0,0,1-.87-.41,2.57,2.57,0,0,1-.65-.5,2.16,2.16,0,0,1-.36-.63,2.31,2.31,0,0,1-.14-.82,2.68,2.68,0,0,1,1.05-2.22,4.33,4.33,0,0,1,2.77-.82,5,5,0,0,1,3.55,1.33l-1,1.53a4.47,4.47,0,0,0-2.68-1.08,2.2,2.2,0,0,0-1.05.23.79.79,0,0,0-.41.75.75.75,0,0,0,.37.69,6,6,0,0,0,1.34.49c.53.16.94.29,1.24.4a7.45,7.45,0,0,1,.95.4,2.88,2.88,0,0,1,.74.52,2.33,2.33,0,0,1,.41.65,2.5,2.5,0,0,1,.15.9,2.62,2.62,0,0,1-1,2.18A4.38,4.38,0,0,1,399.54,423.87Z"/><path class="cls-1" d="M409.33,423.87a5.06,5.06,0,0,1-2.62-.67,4.55,4.55,0,0,1-1.75-1.76,4.92,4.92,0,0,1-.6-2.41,5.15,5.15,0,0,1,.6-2.46,4.52,4.52,0,0,1,1.75-1.8,5.11,5.11,0,0,1,2.64-.68,5.29,5.29,0,0,1,2.06.4,4.29,4.29,0,0,1,1.56,1.07,5,5,0,0,1,1,1.54,5.14,5.14,0,0,1,.34,1.84,4.47,4.47,0,0,1-.06.81h-7.29a2.48,2.48,0,0,0,.81,1.71,2.41,2.41,0,0,0,1.69.65,2.75,2.75,0,0,0,1.37-.36,1.88,1.88,0,0,0,.87-.92l2.06.58a4.07,4.07,0,0,1-1.69,1.78A5.31,5.31,0,0,1,409.33,423.87Zm-2.46-5.65h4.93a2.65,2.65,0,0,0-.8-1.72,2.46,2.46,0,0,0-3.35,0A2.5,2.5,0,0,0,406.87,418.22Z"/><path class="cls-1" d="M419.45,419a5.09,5.09,0,0,1,.35-1.87,5,5,0,0,1,1-1.56,4.33,4.33,0,0,1,1.57-1.07,5.33,5.33,0,0,1,2.06-.4,5,5,0,0,1,2.62.69,4.52,4.52,0,0,1,1.72,1.78,5.14,5.14,0,0,1,.59,2.43,5.29,5.29,0,0,1-.34,1.86,4.82,4.82,0,0,1-1,1.56,4.4,4.4,0,0,1-1.56,1.06,5.12,5.12,0,0,1-2.06.4,5.5,5.5,0,0,1-1.7-.26,4.31,4.31,0,0,1-1.38-.72,5.13,5.13,0,0,1-1-1.06,4.73,4.73,0,0,1-.64-1.34A5,5,0,0,1,419.45,419Zm5,2.83a2.22,2.22,0,0,0,1.75-.81,3,3,0,0,0,.71-2,3,3,0,0,0-.71-2,2.32,2.32,0,0,0-3.51,0,3,3,0,0,0-.71,2,2.91,2.91,0,0,0,.71,2A2.26,2.26,0,0,0,424.41,421.82Z"/><path class="cls-1" d="M430.87,420.17v-5.91h2.41v5.38c0,1.45.52,2.18,1.56,2.18a2.43,2.43,0,0,0,1.38-.44,3.2,3.2,0,0,0,1.06-1.27v-5.85h2.4V421a.85.85,0,0,0,.14.55.59.59,0,0,0,.44.19v2a5.85,5.85,0,0,1-1,.11,1.73,1.73,0,0,1-1.06-.3,1.12,1.12,0,0,1-.47-.82l-.05-.75a4.22,4.22,0,0,1-1.61,1.45,5,5,0,0,1-2.19.49,2.72,2.72,0,0,1-2.22-.94A4.36,4.36,0,0,1,430.87,420.17Z"/><path class="cls-1" d="M447.69,416.34a4.73,4.73,0,0,0-2,.44,2.63,2.63,0,0,0-1.23,1.21v5.7h-2.41v-9.43h2.22v2a4.35,4.35,0,0,1,1.28-1.52,2.84,2.84,0,0,1,1.64-.61,2.59,2.59,0,0,1,.48,0Z"/><path class="cls-1" d="M452.36,419a4.9,4.9,0,0,1,.35-1.87,5,5,0,0,1,1-1.56,4.42,4.42,0,0,1,1.57-1.07,5.36,5.36,0,0,1,2.06-.4,5,5,0,0,1,2.63.69,4.52,4.52,0,0,1,1.72,1.78,5.14,5.14,0,0,1,.59,2.43,5.08,5.08,0,0,1-.35,1.86,5,5,0,0,1-1,1.56,4.4,4.4,0,0,1-1.56,1.06,5.2,5.2,0,0,1-2.07.4,5.49,5.49,0,0,1-1.69-.26,4.31,4.31,0,0,1-1.38-.72,5.13,5.13,0,0,1-1-1.06,4.75,4.75,0,0,1-.65-1.34A5.38,5.38,0,0,1,452.36,419Zm4.95,2.83a2.24,2.24,0,0,0,1.76-.81,3,3,0,0,0,.71-2,3,3,0,0,0-.71-2,2.26,2.26,0,0,0-1.76-.8,2.24,2.24,0,0,0-1.75.81,3.24,3.24,0,0,0,0,4.06A2.26,2.26,0,0,0,457.31,421.82Z"/><path class="cls-1" d="M475.24,414.26h2.28l-3.94,9.43h-2L470,419.64l-1.55,4.05h-2l-3.93-9.43h2.27l2.81,7.13,1.1-3.08-1.64-4h2l1,2.88,1-2.88h2l-1.64,4,1.12,3.08Z"/><path class="cls-1" d="M487.4,423.69H485V418.4c0-1.45-.5-2.18-1.49-2.18a2.4,2.4,0,0,0-1.47.56,2.87,2.87,0,0,0-1,1.4v5.51h-2.4v-9.43h2.18V416a3.64,3.64,0,0,1,1.52-1.41,4.83,4.83,0,0,1,2.22-.51,3.13,3.13,0,0,1,1.2.22,2.17,2.17,0,0,1,.82.56,2.68,2.68,0,0,1,.5.84,4.72,4.72,0,0,1,.25,1,7.4,7.4,0,0,1,.07,1.09Z"/><path class="cls-1" d="M368.16,442.87a6.71,6.71,0,0,1-2.32-.41A5.19,5.19,0,0,1,364,441.3l.86-1.56a5.33,5.33,0,0,0,3.25,1.34,2.11,2.11,0,0,0,1.12-.26.85.85,0,0,0,.42-.76,1.23,1.23,0,0,0,0-.2.51.51,0,0,0-.09-.18l-.12-.14a.46.46,0,0,0-.18-.13l-.22-.11-.28-.1-.3-.1L368,439l-.4-.12c-.46-.15-.84-.28-1.13-.4a5.75,5.75,0,0,1-.87-.41,2.57,2.57,0,0,1-.65-.5,2.16,2.16,0,0,1-.36-.63,2.11,2.11,0,0,1-.14-.82,2.68,2.68,0,0,1,1.05-2.22,4.33,4.33,0,0,1,2.77-.82,5,5,0,0,1,3.54,1.33l-1,1.53a4.47,4.47,0,0,0-2.68-1.08,2.2,2.2,0,0,0-1.05.23.79.79,0,0,0-.41.75.75.75,0,0,0,.37.69,5.79,5.79,0,0,0,1.34.49c.52.16.94.29,1.24.4a7.45,7.45,0,0,1,.95.4,2.88,2.88,0,0,1,.74.52,2.1,2.1,0,0,1,.4.65,2.29,2.29,0,0,1,.16.9,2.62,2.62,0,0,1-1,2.18A4.38,4.38,0,0,1,368.16,442.87Z"/><path class="cls-1" d="M379.18,442.21a6.6,6.6,0,0,1-2.67.64,3.21,3.21,0,0,1-.95-.13,2.46,2.46,0,0,1-.77-.4,1.77,1.77,0,0,1-.54-.73,2.68,2.68,0,0,1-.19-1.06v-5.41h-1.24v-1.86h1.24V430.2h2.42v3.06h2v1.86h-2v4.6c0,.62.31.92.89.92a3.55,3.55,0,0,0,1.32-.34Z"/><path class="cls-1" d="M379.78,439.91a2.64,2.64,0,0,1,1.13-2.22,4.69,4.69,0,0,1,2.92-.85,5.79,5.79,0,0,1,2.27.38v-.5a1.79,1.79,0,0,0-.53-1.39,2.25,2.25,0,0,0-1.58-.49,4.13,4.13,0,0,0-1.44.26,7.49,7.49,0,0,0-1.5.81l-.78-1.58a7.1,7.1,0,0,1,4-1.24,4.51,4.51,0,0,1,3.14,1,3.66,3.66,0,0,1,1.12,2.88v3a.85.85,0,0,0,.13.55.63.63,0,0,0,.45.19v2a5.55,5.55,0,0,1-1,.13,1.73,1.73,0,0,1-1.08-.31,1.29,1.29,0,0,1-.47-.81l-.05-.48a4.11,4.11,0,0,1-1.52,1.21,4.38,4.38,0,0,1-1.88.44,3.35,3.35,0,0,1-2.35-.85A2.72,2.72,0,0,1,379.78,439.91Zm5.87.48a1.24,1.24,0,0,0,.45-.83v-.95a4.76,4.76,0,0,0-1.89-.38,2.6,2.6,0,0,0-1.54.41,1.23,1.23,0,0,0-.6,1.06,1.3,1.3,0,0,0,.45,1,1.77,1.77,0,0,0,1.23.42,3,3,0,0,0,1.05-.2A2.49,2.49,0,0,0,385.65,440.39Z"/><path class="cls-1" d="M399.52,442.69h-2.41V437.4c0-1.45-.49-2.18-1.49-2.18a2.4,2.4,0,0,0-1.47.56,2.79,2.79,0,0,0-1,1.4v5.51h-2.41v-9.43h2.18V435a3.64,3.64,0,0,1,1.52-1.41,4.83,4.83,0,0,1,2.22-.51,3.13,3.13,0,0,1,1.2.22,2.21,2.21,0,0,1,.83.56,2.66,2.66,0,0,1,.49.84,4.76,4.76,0,0,1,.26,1,9.18,9.18,0,0,1,.06,1.09Z"/><path class="cls-1" d="M401,438a5.61,5.61,0,0,1,.54-2.46,4.33,4.33,0,0,1,1.51-1.76,3.76,3.76,0,0,1,2.17-.66,3.56,3.56,0,0,1,1.85.5,3.66,3.66,0,0,1,1.33,1.32v-5.36h2.42V440a.93.93,0,0,0,.12.55.6.6,0,0,0,.43.19v2a5.66,5.66,0,0,1-1,.13,1.74,1.74,0,0,1-1.07-.32,1.15,1.15,0,0,1-.48-.85l0-.59a3.51,3.51,0,0,1-1.39,1.34,4,4,0,0,1-1.88.47,4.29,4.29,0,0,1-2.32-.65,4.64,4.64,0,0,1-1.6-1.77A5.39,5.39,0,0,1,401,438Zm7.4,1.27V437a3,3,0,0,0-1-1.31,2.39,2.39,0,0,0-1.43-.53,2.21,2.21,0,0,0-1.77.86,3.07,3.07,0,0,0-.7,2,2.81,2.81,0,0,0,.74,2,2.46,2.46,0,0,0,1.87.8,2.43,2.43,0,0,0,1.37-.45A2.2,2.2,0,0,0,408.44,439.24Z"/><path class="cls-1" d="M412.57,439.91a2.64,2.64,0,0,1,1.13-2.22,4.7,4.7,0,0,1,2.93-.85,5.77,5.77,0,0,1,2.26.38v-.5a1.75,1.75,0,0,0-.53-1.39,2.23,2.23,0,0,0-1.58-.49,4.13,4.13,0,0,0-1.44.26,7.77,7.77,0,0,0-1.5.81l-.78-1.58a7.1,7.1,0,0,1,4-1.24,4.5,4.5,0,0,1,3.14,1A3.66,3.66,0,0,1,421.3,437v3a.92.92,0,0,0,.13.55.63.63,0,0,0,.45.19v2a5.55,5.55,0,0,1-1,.13,1.68,1.68,0,0,1-1.07-.31,1.25,1.25,0,0,1-.47-.81l-.06-.48a4.11,4.11,0,0,1-1.52,1.21,4.35,4.35,0,0,1-1.88.44,3.32,3.32,0,0,1-2.34-.85A2.69,2.69,0,0,1,412.57,439.91Zm5.88.48a1.26,1.26,0,0,0,.44-.83v-.95a4.76,4.76,0,0,0-1.89-.38,2.62,2.62,0,0,0-1.54.41,1.23,1.23,0,0,0-.6,1.06,1.27,1.27,0,0,0,.46,1,1.72,1.72,0,0,0,1.22.42,2.92,2.92,0,0,0,1-.2A2.54,2.54,0,0,0,418.45,440.39Z"/><path class="cls-1" d="M429.17,435.34a4.73,4.73,0,0,0-2,.44A2.63,2.63,0,0,0,426,437v5.7h-2.41v-9.43h2.22v2a4.43,4.43,0,0,1,1.27-1.52,2.87,2.87,0,0,1,1.64-.61,2.66,2.66,0,0,1,.49,0Z"/><path class="cls-1" d="M429.84,438a5.61,5.61,0,0,1,.54-2.46,4.33,4.33,0,0,1,1.51-1.76,3.78,3.78,0,0,1,2.17-.66,3.56,3.56,0,0,1,1.85.5,3.77,3.77,0,0,1,1.34,1.32v-5.36h2.41V440a.85.85,0,0,0,.13.55.56.56,0,0,0,.43.19v2a5.86,5.86,0,0,1-1,.13,1.74,1.74,0,0,1-1.07-.32,1.18,1.18,0,0,1-.48-.85l0-.59a3.54,3.54,0,0,1-1.4,1.34,4,4,0,0,1-1.88.47,4.23,4.23,0,0,1-2.31-.65,4.48,4.48,0,0,1-1.6-1.77A5.39,5.39,0,0,1,429.84,438Zm7.41,1.27V437a3,3,0,0,0-1-1.31,2.37,2.37,0,0,0-1.43-.53,2.21,2.21,0,0,0-1.77.86,3.07,3.07,0,0,0-.7,2,2.85,2.85,0,0,0,.74,2,2.48,2.48,0,0,0,3.25.35A2.3,2.3,0,0,0,437.25,439.24Z"/><path class="cls-1" d="M592.71,415.48v8.21h-2.48V410.91h2l6.6,8.42v-8.4h2.49v12.76h-2.07Z"/><path class="cls-1" d="M603,419a4.9,4.9,0,0,1,.35-1.87,5,5,0,0,1,1-1.56,4.42,4.42,0,0,1,1.57-1.07,5.36,5.36,0,0,1,2.06-.4,5,5,0,0,1,2.63.69,4.52,4.52,0,0,1,1.72,1.78,5.13,5.13,0,0,1,.58,2.43,5.07,5.07,0,0,1-.34,1.86,5,5,0,0,1-1,1.56,4.4,4.4,0,0,1-1.56,1.06,5.2,5.2,0,0,1-2.07.4,5.44,5.44,0,0,1-1.69-.26,4.31,4.31,0,0,1-1.38-.72,5.13,5.13,0,0,1-1-1.06,4.75,4.75,0,0,1-.65-1.34A5.38,5.38,0,0,1,603,419Zm4.95,2.83a2.24,2.24,0,0,0,1.76-.81,3,3,0,0,0,.7-2,2.94,2.94,0,0,0-.7-2,2.26,2.26,0,0,0-1.76-.8,2.24,2.24,0,0,0-1.75.81,3.24,3.24,0,0,0,0,4.06A2.26,2.26,0,0,0,607.92,421.82Z"/><path class="cls-1" d="M614.49,425.77l.48-2.15h-.75V421.1h2.08v2.52l-.74,2.15Z"/><path class="cls-1" d="M624.87,422.06v1.63h-2.11V410.55h2.41v5.36a3.59,3.59,0,0,1,1.34-1.34,3.73,3.73,0,0,1,1.9-.48,3.64,3.64,0,0,1,2.15.68,4.32,4.32,0,0,1,1.46,1.8,5.84,5.84,0,0,1,.51,2.45,5.29,5.29,0,0,1-.57,2.45,4.49,4.49,0,0,1-1.58,1.76,4.22,4.22,0,0,1-2.26.64,3.79,3.79,0,0,1-1.91-.48A3.49,3.49,0,0,1,624.87,422.06Zm5.19-3a3.09,3.09,0,0,0-.7-2,2.21,2.21,0,0,0-1.76-.85,2.25,2.25,0,0,0-1.43.52,3.46,3.46,0,0,0-1,1.32v2.25a2.26,2.26,0,0,0,.9,1.14,2.53,2.53,0,0,0,1.38.44,2.44,2.44,0,0,0,1.88-.81A2.84,2.84,0,0,0,630.06,419Z"/><path class="cls-1" d="M634.08,420.17v-5.91h2.41v5.38c0,1.45.52,2.18,1.56,2.18a2.43,2.43,0,0,0,1.38-.44,3.12,3.12,0,0,0,1.06-1.27v-5.85h2.41V421a.85.85,0,0,0,.13.55.61.61,0,0,0,.45.19v2a6.05,6.05,0,0,1-1.05.11,1.75,1.75,0,0,1-1.06-.3,1.12,1.12,0,0,1-.47-.82l0-.75a4.15,4.15,0,0,1-1.61,1.45,5,5,0,0,1-2.19.49,2.68,2.68,0,0,1-2.21-.94A4.3,4.3,0,0,1,634.08,420.17Z"/><path class="cls-1" d="M650.9,423.21a6.56,6.56,0,0,1-2.66.64,3.16,3.16,0,0,1-1-.13,2.35,2.35,0,0,1-.77-.4,1.77,1.77,0,0,1-.54-.73,2.68,2.68,0,0,1-.19-1.06v-5.41h-1.24v-1.86h1.24V411.2h2.41v3.06h2v1.86h-2v4.6c0,.62.32.92.9.92a3.55,3.55,0,0,0,1.32-.34Z"/><path class="cls-1" d="M667.67,414.26H670L666,423.69h-2l-1.58-4.05-1.55,4.05h-2l-3.93-9.43h2.27l2.81,7.13,1.1-3.08-1.64-4h2l1,2.88,1-2.88h2l-1.63,4,1.12,3.08Z"/><path class="cls-1" d="M675.12,423.87a5.06,5.06,0,0,1-2.62-.67,4.55,4.55,0,0,1-1.75-1.76,4.92,4.92,0,0,1-.6-2.41,5.15,5.15,0,0,1,.6-2.46,4.52,4.52,0,0,1,1.75-1.8,5.11,5.11,0,0,1,2.64-.68,5.29,5.29,0,0,1,2.06.4,4.29,4.29,0,0,1,1.56,1.07,5,5,0,0,1,1,1.54,5.14,5.14,0,0,1,.34,1.84,4.47,4.47,0,0,1-.06.81h-7.29a2.48,2.48,0,0,0,.81,1.71,2.41,2.41,0,0,0,1.69.65,2.75,2.75,0,0,0,1.37-.36,1.88,1.88,0,0,0,.87-.92l2.06.58a4.07,4.07,0,0,1-1.69,1.78A5.31,5.31,0,0,1,675.12,423.87Zm-2.46-5.65h4.93a2.65,2.65,0,0,0-.8-1.72,2.46,2.46,0,0,0-3.35,0A2.5,2.5,0,0,0,672.66,418.22Z"/><path class="cls-1" d="M689.31,423.87a6.66,6.66,0,0,1-2.32-.41,5.1,5.1,0,0,1-1.87-1.16l.86-1.56a5.31,5.31,0,0,0,3.24,1.34,2.15,2.15,0,0,0,1.13-.26.85.85,0,0,0,.42-.76,1.23,1.23,0,0,0,0-.2.76.76,0,0,0-.09-.18l-.12-.14a.56.56,0,0,0-.18-.13l-.22-.11-.28-.1-.31-.1-.36-.1-.4-.12c-.46-.15-.84-.28-1.14-.4a6.13,6.13,0,0,1-.86-.41,2.57,2.57,0,0,1-.65-.5,2.18,2.18,0,0,1-.37-.63,2.31,2.31,0,0,1-.13-.82,2.7,2.7,0,0,1,1-2.22,4.38,4.38,0,0,1,2.78-.82,5,5,0,0,1,3.54,1.33l-1,1.53a4.47,4.47,0,0,0-2.68-1.08,2.18,2.18,0,0,0-1.05.23.78.78,0,0,0-.41.75.75.75,0,0,0,.37.69,5.79,5.79,0,0,0,1.34.49c.52.16.94.29,1.24.4a8.11,8.11,0,0,1,.95.4,2.64,2.64,0,0,1,.73.52,2,2,0,0,1,.41.65,2.29,2.29,0,0,1,.16.9,2.62,2.62,0,0,1-1,2.18A4.42,4.42,0,0,1,689.31,423.87Z"/><path class="cls-1" d="M703.49,423.69h-2.41V418.4a2.7,2.7,0,0,0-.41-1.63,1.38,1.38,0,0,0-1.17-.55,2.31,2.31,0,0,0-1.4.56,2.9,2.9,0,0,0-1,1.4v5.51h-2.41V410.55h2.41V416a3.79,3.79,0,0,1,1.43-1.41,3.87,3.87,0,0,1,2-.51q3,0,3,3.71Z"/><path class="cls-1" d="M705,419a5.09,5.09,0,0,1,.35-1.87,5,5,0,0,1,1-1.56,4.33,4.33,0,0,1,1.57-1.07,5.33,5.33,0,0,1,2.06-.4,5,5,0,0,1,2.62.69,4.52,4.52,0,0,1,1.72,1.78,5.14,5.14,0,0,1,.59,2.43,5.29,5.29,0,0,1-.34,1.86,4.82,4.82,0,0,1-1,1.56,4.4,4.4,0,0,1-1.56,1.06,5.12,5.12,0,0,1-2.06.4,5.5,5.5,0,0,1-1.7-.26,4.31,4.31,0,0,1-1.38-.72,5.13,5.13,0,0,1-1-1.06,4.47,4.47,0,0,1-.64-1.34A5,5,0,0,1,705,419Zm5,2.83a2.24,2.24,0,0,0,1.75-.81,3,3,0,0,0,.71-2,3,3,0,0,0-.71-2,2.32,2.32,0,0,0-3.51,0,3.28,3.28,0,0,0,0,4.06A2.29,2.29,0,0,0,710,421.82Z"/><path class="cls-1" d="M716.41,420.17v-5.91h2.41v5.38c0,1.45.52,2.18,1.56,2.18a2.43,2.43,0,0,0,1.38-.44,3.18,3.18,0,0,0,1-1.27v-5.85h2.41V421a.92.92,0,0,0,.13.55.63.63,0,0,0,.45.19v2a5.85,5.85,0,0,1-1,.11,1.73,1.73,0,0,1-1.06-.3,1.12,1.12,0,0,1-.47-.82l-.06-.75a4.12,4.12,0,0,1-1.6,1.45,5,5,0,0,1-2.19.49,2.72,2.72,0,0,1-2.22-.94A4.36,4.36,0,0,1,716.41,420.17Z"/><path class="cls-1" d="M727.6,410.55H730v10.12a1.33,1.33,0,0,0,.21.86.73.73,0,0,0,.6.24,2.71,2.71,0,0,0,1.14-.26l.32,1.84a5,5,0,0,1-1.11.35,5.84,5.84,0,0,1-1.19.13,2.43,2.43,0,0,1-1.75-.6,2.28,2.28,0,0,1-.62-1.72Z"/><path class="cls-1" d="M732.74,419a5.75,5.75,0,0,1,.53-2.46,4.33,4.33,0,0,1,1.51-1.76,3.79,3.79,0,0,1,2.18-.66,3.59,3.59,0,0,1,1.85.5,3.74,3.74,0,0,1,1.33,1.32v-5.36h2.41V421a.92.92,0,0,0,.13.55.56.56,0,0,0,.43.19v2a5.86,5.86,0,0,1-1,.13,1.76,1.76,0,0,1-1.07-.32,1.22,1.22,0,0,1-.48-.85l0-.59a3.54,3.54,0,0,1-1.4,1.34,4,4,0,0,1-1.88.47,4.23,4.23,0,0,1-2.31-.65,4.48,4.48,0,0,1-1.6-1.77A5.39,5.39,0,0,1,732.74,419Zm7.4,1.27V418a2.91,2.91,0,0,0-1-1.31,2.37,2.37,0,0,0-1.43-.53A2.17,2.17,0,0,0,736,417a3.07,3.07,0,0,0-.71,2,2.85,2.85,0,0,0,.74,2,2.48,2.48,0,0,0,3.25.35A2.25,2.25,0,0,0,740.14,420.24Z"/><path class="cls-1" d="M751.34,422.06v1.63h-2.11V410.55h2.41v5.36a3.66,3.66,0,0,1,1.34-1.34,3.76,3.76,0,0,1,1.91-.48,3.61,3.61,0,0,1,2.14.68,4.34,4.34,0,0,1,1.47,1.8A5.84,5.84,0,0,1,759,419a5.29,5.29,0,0,1-.57,2.45,4.44,4.44,0,0,1-1.59,1.76,4.21,4.21,0,0,1-2.25.64,3.85,3.85,0,0,1-1.92-.48A3.56,3.56,0,0,1,751.34,422.06Zm5.2-3a3.1,3.1,0,0,0-.71-2,2.19,2.19,0,0,0-1.75-.85,2.21,2.21,0,0,0-1.43.52,3.48,3.48,0,0,0-1,1.32v2.25a2.23,2.23,0,0,0,.91,1.14,2.48,2.48,0,0,0,1.38.44,2.42,2.42,0,0,0,1.87-.81A2.84,2.84,0,0,0,756.54,419Z"/><path class="cls-1" d="M765,423.87a5.12,5.12,0,0,1-2.63-.67,4.55,4.55,0,0,1-1.75-1.76A4.92,4.92,0,0,1,760,419a5.15,5.15,0,0,1,.6-2.46,4.52,4.52,0,0,1,1.75-1.8,5.15,5.15,0,0,1,2.65-.68,5.33,5.33,0,0,1,2.06.4,4.34,4.34,0,0,1,1.55,1.07,4.65,4.65,0,0,1,1,1.54,4.93,4.93,0,0,1,.34,1.84,5.82,5.82,0,0,1-.05.81h-7.3a2.48,2.48,0,0,0,.81,1.71,2.43,2.43,0,0,0,1.7.65,2.71,2.71,0,0,0,1.36-.36,1.8,1.8,0,0,0,.87-.92l2.07.58a4.1,4.1,0,0,1-1.7,1.78A5.24,5.24,0,0,1,765,423.87Zm-2.47-5.65h4.93a2.65,2.65,0,0,0-.8-1.72,2.46,2.46,0,0,0-3.35,0A2.59,2.59,0,0,0,762.55,418.22Z"/><path class="cls-1" d="M624.25,442.21a6.6,6.6,0,0,1-2.67.64,3.21,3.21,0,0,1-1-.13,2.46,2.46,0,0,1-.77-.4,1.77,1.77,0,0,1-.54-.73,2.68,2.68,0,0,1-.19-1.06v-5.41h-1.24v-1.86h1.24V430.2h2.42v3.06h2v1.86h-2v4.6c0,.62.31.92.89.92a3.55,3.55,0,0,0,1.32-.34Z"/><path class="cls-1" d="M631.12,435.34a4.73,4.73,0,0,0-2,.44,2.63,2.63,0,0,0-1.23,1.21v5.7H625.5v-9.43h2.22v2a4.35,4.35,0,0,1,1.28-1.52,2.81,2.81,0,0,1,1.63-.61,2.66,2.66,0,0,1,.49,0Z"/><path class="cls-1" d="M631.76,439.91a2.63,2.63,0,0,1,1.12-2.22,4.72,4.72,0,0,1,2.93-.85,5.82,5.82,0,0,1,2.27.38v-.5a1.79,1.79,0,0,0-.53-1.39,2.25,2.25,0,0,0-1.58-.49,4.13,4.13,0,0,0-1.44.26,7.49,7.49,0,0,0-1.5.81l-.79-1.58a7.12,7.12,0,0,1,4-1.24,4.52,4.52,0,0,1,3.15,1,3.69,3.69,0,0,1,1.12,2.88v3a.85.85,0,0,0,.13.55.63.63,0,0,0,.45.19v2a5.65,5.65,0,0,1-1,.13,1.73,1.73,0,0,1-1.08-.31,1.29,1.29,0,0,1-.47-.81l0-.48a4.11,4.11,0,0,1-1.52,1.21,4.38,4.38,0,0,1-1.88.44,3.33,3.33,0,0,1-2.35-.85A2.72,2.72,0,0,1,631.76,439.91Zm5.87.48a1.24,1.24,0,0,0,.45-.83v-.95a4.83,4.83,0,0,0-1.89-.38,2.65,2.65,0,0,0-1.55.41,1.23,1.23,0,0,0-.6,1.06,1.31,1.31,0,0,0,.46,1,1.74,1.74,0,0,0,1.22.42,2.92,2.92,0,0,0,1-.2A2.44,2.44,0,0,0,637.63,440.39Z"/><path class="cls-1" d="M651.5,442.69h-2.41V437.4c0-1.45-.5-2.18-1.49-2.18a2.4,2.4,0,0,0-1.47.56,2.79,2.79,0,0,0-1,1.4v5.51h-2.41v-9.43h2.18V435a3.64,3.64,0,0,1,1.52-1.41,4.83,4.83,0,0,1,2.22-.51,3.13,3.13,0,0,1,1.2.22,2.17,2.17,0,0,1,.82.56,2.68,2.68,0,0,1,.5.84,4.72,4.72,0,0,1,.25,1,7.4,7.4,0,0,1,.07,1.09Z"/><path class="cls-1" d="M657.07,442.87a6.66,6.66,0,0,1-2.32-.41,5.19,5.19,0,0,1-1.87-1.16l.86-1.56a5.33,5.33,0,0,0,3.24,1.34,2.15,2.15,0,0,0,1.13-.26.85.85,0,0,0,.42-.76,1.23,1.23,0,0,0,0-.2.76.76,0,0,0-.09-.18l-.12-.14a.46.46,0,0,0-.18-.13l-.22-.11-.28-.1-.31-.1L657,439l-.4-.12c-.46-.15-.84-.28-1.13-.4a5.75,5.75,0,0,1-.87-.41,2.57,2.57,0,0,1-.65-.5,2,2,0,0,1-.36-.63,2.11,2.11,0,0,1-.14-.82,2.7,2.7,0,0,1,1-2.22,4.38,4.38,0,0,1,2.78-.82,5,5,0,0,1,3.54,1.33l-1,1.53a4.47,4.47,0,0,0-2.68-1.08,2.2,2.2,0,0,0-1.05.23.79.79,0,0,0-.41.75.75.75,0,0,0,.37.69,5.79,5.79,0,0,0,1.34.49c.52.16.94.29,1.24.4a7.45,7.45,0,0,1,.95.4,2.88,2.88,0,0,1,.74.52,2.1,2.1,0,0,1,.4.65,2.29,2.29,0,0,1,.16.9,2.62,2.62,0,0,1-1,2.18A4.4,4.4,0,0,1,657.07,442.87Z"/><path class="cls-1" d="M661.84,439.91a2.63,2.63,0,0,1,1.12-2.22,4.72,4.72,0,0,1,2.93-.85,5.82,5.82,0,0,1,2.27.38v-.5a1.76,1.76,0,0,0-.54-1.39,2.22,2.22,0,0,0-1.57-.49,4.14,4.14,0,0,0-1.45.26,8.07,8.07,0,0,0-1.5.81l-.78-1.58a7.12,7.12,0,0,1,4-1.24,4.48,4.48,0,0,1,3.14,1,3.66,3.66,0,0,1,1.12,2.88v3a.85.85,0,0,0,.14.55.59.59,0,0,0,.44.19v2a5.45,5.45,0,0,1-1,.13,1.69,1.69,0,0,1-1.08-.31,1.25,1.25,0,0,1-.47-.81l-.05-.48a4.22,4.22,0,0,1-1.53,1.21,4.35,4.35,0,0,1-1.88.44,3.32,3.32,0,0,1-2.34-.85A2.72,2.72,0,0,1,661.84,439.91Zm5.87.48a1.24,1.24,0,0,0,.45-.83v-.95a4.83,4.83,0,0,0-1.89-.38,2.63,2.63,0,0,0-1.55.41,1.23,1.23,0,0,0-.6,1.06,1.27,1.27,0,0,0,.46,1,1.72,1.72,0,0,0,1.22.42,2.92,2.92,0,0,0,1.05-.2A2.54,2.54,0,0,0,667.71,440.39Z"/><path class="cls-1" d="M677.21,442.87a5.41,5.41,0,0,1-2.07-.4,4.74,4.74,0,0,1-1.58-1.07,5.06,5.06,0,0,1-1-1.56,5.22,5.22,0,0,1,.24-4.29,4.57,4.57,0,0,1,1.74-1.78,5.09,5.09,0,0,1,2.64-.68,5,5,0,0,1,2.6.66,4.14,4.14,0,0,1,1.66,1.76l-2.35.72a2.12,2.12,0,0,0-.81-.79,2.25,2.25,0,0,0-1.12-.29,2.29,2.29,0,0,0-1.76.79,3.25,3.25,0,0,0,0,4.07,2.27,2.27,0,0,0,1.75.81,2.33,2.33,0,0,0,1.19-.32,1.69,1.69,0,0,0,.77-.8l2.36.72a4,4,0,0,1-1.64,1.78A5.13,5.13,0,0,1,677.21,442.87Z"/><path class="cls-1" d="M688.62,442.21a6.56,6.56,0,0,1-2.67.64,3.21,3.21,0,0,1-1-.13,2.46,2.46,0,0,1-.77-.4,1.77,1.77,0,0,1-.54-.73,2.86,2.86,0,0,1-.19-1.06v-5.41h-1.24v-1.86h1.24V430.2h2.42v3.06h2v1.86h-2v4.6c0,.62.31.92.89.92a3.55,3.55,0,0,0,1.32-.34Z"/><path class="cls-1" d="M689.87,431.94v-2.39h2.41v2.39Zm0,10.75v-9.43h2.41v9.43Z"/><path class="cls-1" d="M703.22,442.69h-2.4V437.4c0-1.45-.5-2.18-1.5-2.18a2.4,2.4,0,0,0-1.47.56,2.79,2.79,0,0,0-1,1.4v5.51h-2.41v-9.43h2.18V435a3.61,3.61,0,0,1,1.53-1.41,4.76,4.76,0,0,1,2.21-.51,3.13,3.13,0,0,1,1.2.22,2.21,2.21,0,0,1,.83.56,2.66,2.66,0,0,1,.49.84,4.76,4.76,0,0,1,.26,1,9.18,9.18,0,0,1,.06,1.09Z"/><path class="cls-1" d="M704.76,438a5.43,5.43,0,0,1,.56-2.46,4.29,4.29,0,0,1,1.56-1.76,4.06,4.06,0,0,1,2.28-.66,3.69,3.69,0,0,1,1.89.49,4.13,4.13,0,0,1,1.4,1.33v-1.65h2.11v9a4.24,4.24,0,0,1-.68,2.39,4.29,4.29,0,0,1-1.86,1.55,6.6,6.6,0,0,1-2.7.53,6,6,0,0,1-2.55-.5,5.46,5.46,0,0,1-1.86-1.47l1.31-1.27a3.87,3.87,0,0,0,1.37,1,4.08,4.08,0,0,0,1.73.38,3.4,3.4,0,0,0,1.08-.16,2.58,2.58,0,0,0,.9-.47,2.11,2.11,0,0,0,.62-.83,3,3,0,0,0,.22-1.19v-1.18a3.14,3.14,0,0,1-1.31,1.24,3.76,3.76,0,0,1-1.81.45,3.86,3.86,0,0,1-2.21-.66,4.28,4.28,0,0,1-1.52-1.74A5.39,5.39,0,0,1,704.76,438Zm7.38,1.27V437a2.89,2.89,0,0,0-1-1.33,2.42,2.42,0,0,0-1.46-.51,2.16,2.16,0,0,0-1.76.87,3.14,3.14,0,0,0-.69,2,2.77,2.77,0,0,0,.75,2,2.43,2.43,0,0,0,1.84.8,2.56,2.56,0,0,0,2.32-1.58Z"/><path class="cls-1" d="M720.45,438a5.09,5.09,0,0,1,.35-1.87,5,5,0,0,1,1-1.56,4.33,4.33,0,0,1,1.57-1.07,5.33,5.33,0,0,1,2.06-.4,5,5,0,0,1,2.62.69,4.52,4.52,0,0,1,1.72,1.78,5.14,5.14,0,0,1,.59,2.43,5.29,5.29,0,0,1-.34,1.86,4.82,4.82,0,0,1-1,1.56,4.4,4.4,0,0,1-1.56,1.06,5.12,5.12,0,0,1-2.06.4,5.5,5.5,0,0,1-1.7-.26,4.31,4.31,0,0,1-1.38-.72,5.13,5.13,0,0,1-1-1.06,4.47,4.47,0,0,1-.64-1.34A5,5,0,0,1,720.45,438Zm5,2.83a2.24,2.24,0,0,0,1.75-.81,3,3,0,0,0,.71-2,3,3,0,0,0-.71-2,2.32,2.32,0,0,0-3.51,0,3.28,3.28,0,0,0,0,4.06A2.29,2.29,0,0,0,725.41,440.82Z"/><path class="cls-1" d="M740.72,442.69h-2.41V437.4c0-1.45-.5-2.18-1.49-2.18a2.4,2.4,0,0,0-1.47.56,2.87,2.87,0,0,0-1,1.4v5.51H732v-9.43h2.17V435a3.67,3.67,0,0,1,1.53-1.41,4.78,4.78,0,0,1,2.22-.51,3.13,3.13,0,0,1,1.2.22,2.17,2.17,0,0,1,.82.56,2.68,2.68,0,0,1,.5.84,4.72,4.72,0,0,1,.25,1,7.4,7.4,0,0,1,.07,1.09Z"/><path class="cls-1" d="M636.85,461.69l-3.48-9.43h2.51l2.37,7.24,2.4-7.24h2.28l-3.45,9.43Z"/><path class="cls-1" d="M644.21,450.94v-2.39h2.41v2.39Zm0,10.75v-9.43h2.41v9.43Z"/><path class="cls-1" d="M653.17,461.87a5.06,5.06,0,0,1-2.62-.67,4.55,4.55,0,0,1-1.75-1.76,4.92,4.92,0,0,1-.6-2.41,5.15,5.15,0,0,1,.6-2.46,4.52,4.52,0,0,1,1.75-1.8,5.11,5.11,0,0,1,2.64-.68,5.29,5.29,0,0,1,2.06.4,4.29,4.29,0,0,1,1.56,1.07,5,5,0,0,1,1,1.54,5.13,5.13,0,0,1,.33,1.84,4.59,4.59,0,0,1-.05.81h-7.29a2.44,2.44,0,0,0,.81,1.71,2.41,2.41,0,0,0,1.69.65,2.75,2.75,0,0,0,1.37-.36,1.82,1.82,0,0,0,.86-.92l2.07.58a4.07,4.07,0,0,1-1.69,1.78A5.31,5.31,0,0,1,653.17,461.87Zm-2.47-5.65h4.93a2.64,2.64,0,0,0-.79-1.72,2.46,2.46,0,0,0-3.35,0A2.55,2.55,0,0,0,650.7,456.22Z"/><path class="cls-1" d="M671,452.26h2.28l-3.93,9.43h-2l-1.58-4.05-1.54,4.05h-2l-3.93-9.43h2.26l2.82,7.13,1.1-3.08-1.65-4h2l1,2.88,1-2.88h2l-1.63,4,1.11,3.08Z"/><path class="cls-1" d="M673.51,458.91a2.64,2.64,0,0,1,1.13-2.22,4.69,4.69,0,0,1,2.92-.85,5.79,5.79,0,0,1,2.27.38v-.5a1.79,1.79,0,0,0-.53-1.39,2.25,2.25,0,0,0-1.58-.49,4.13,4.13,0,0,0-1.44.26,7.49,7.49,0,0,0-1.5.81l-.78-1.58a7.07,7.07,0,0,1,4-1.24,4.51,4.51,0,0,1,3.14,1,3.66,3.66,0,0,1,1.12,2.88v3a.85.85,0,0,0,.13.55.63.63,0,0,0,.45.19v2a5.55,5.55,0,0,1-1,.13,1.73,1.73,0,0,1-1.08-.31,1.29,1.29,0,0,1-.47-.81l0-.48a4.11,4.11,0,0,1-1.52,1.21,4.38,4.38,0,0,1-1.88.44,3.35,3.35,0,0,1-2.35-.85A2.72,2.72,0,0,1,673.51,458.91Zm5.87.48a1.24,1.24,0,0,0,.45-.83v-.95a4.76,4.76,0,0,0-1.89-.38,2.65,2.65,0,0,0-1.55.41,1.24,1.24,0,0,0-.59,1.06,1.3,1.3,0,0,0,.45,1,1.77,1.77,0,0,0,1.23.42,3,3,0,0,0,1-.2A2.49,2.49,0,0,0,679.38,459.39Z"/><path class="cls-1" d="M686.6,460.06v1.63h-2.11V448.55h2.41v5.36a3.59,3.59,0,0,1,1.34-1.34,3.73,3.73,0,0,1,1.9-.48,3.64,3.64,0,0,1,2.15.68,4.4,4.4,0,0,1,1.46,1.8,5.84,5.84,0,0,1,.51,2.45,5.29,5.29,0,0,1-.57,2.45,4.49,4.49,0,0,1-1.58,1.76,4.22,4.22,0,0,1-2.26.64,3.79,3.79,0,0,1-1.91-.48A3.49,3.49,0,0,1,686.6,460.06Zm5.19-3a3.09,3.09,0,0,0-.7-2,2.21,2.21,0,0,0-1.76-.85,2.25,2.25,0,0,0-1.43.52,3.46,3.46,0,0,0-1,1.32v2.25a2.26,2.26,0,0,0,.9,1.14,2.53,2.53,0,0,0,1.38.44,2.41,2.41,0,0,0,1.87-.81A2.8,2.8,0,0,0,691.79,457Z"/><path class="cls-1" d="M695.9,450.94v-2.39h2.41v2.39Zm0,10.75v-9.43h2.41v9.43Z"/><path class="cls-1" d="M700.47,448.55h2.41v10.12a1.34,1.34,0,0,0,.2.86.74.74,0,0,0,.6.24,2.71,2.71,0,0,0,1.14-.26l.32,1.84a4.84,4.84,0,0,1-1.11.35,5.84,5.84,0,0,1-1.19.13,2.43,2.43,0,0,1-1.75-.6,2.32,2.32,0,0,1-.62-1.72Z"/><path class="cls-1" d="M706.19,450.94v-2.39h2.41v2.39Zm0,10.75v-9.43h2.41v9.43Z"/><path class="cls-1" d="M716.43,461.21a6.56,6.56,0,0,1-2.66.64,3.12,3.12,0,0,1-.95-.13,2.4,2.4,0,0,1-.78-.4,1.75,1.75,0,0,1-.53-.73,2.67,2.67,0,0,1-.2-1.06v-5.41h-1.24v-1.86h1.24V449.2h2.42v3.06h2v1.86h-2v4.6c0,.62.32.92.9.92a3.55,3.55,0,0,0,1.32-.34Z"/><path class="cls-1" d="M717.84,463.53a4.59,4.59,0,0,0,1.08.18.94.94,0,0,0,.8-.42,5.94,5.94,0,0,0,.66-1.6l-3.72-9.43h2.5l2.54,7,2.23-7h2.31l-4,11.3a3.22,3.22,0,0,1-1.18,1.63,3.33,3.33,0,0,1-2,.62,3.76,3.76,0,0,1-1.22-.2Z"/><path class="cls-1" d="M868.1,415.48v8.21h-2.48V410.91h2l6.6,8.42v-8.4h2.49v12.76h-2.07Z"/><path class="cls-1" d="M878.36,419a5.09,5.09,0,0,1,.35-1.87,5,5,0,0,1,1-1.56,4.29,4.29,0,0,1,1.56-1.07,5.38,5.38,0,0,1,2.07-.4,5,5,0,0,1,2.62.69,4.52,4.52,0,0,1,1.72,1.78,5.14,5.14,0,0,1,.59,2.43,5.08,5.08,0,0,1-.35,1.86,4.8,4.8,0,0,1-1,1.56,4.4,4.4,0,0,1-1.56,1.06,5.15,5.15,0,0,1-2.06.4,5.5,5.5,0,0,1-1.7-.26,4.31,4.31,0,0,1-1.38-.72,5.13,5.13,0,0,1-1-1.06,4.47,4.47,0,0,1-.64-1.34A5,5,0,0,1,878.36,419Zm5,2.83a2.24,2.24,0,0,0,1.75-.81,3,3,0,0,0,.71-2,3,3,0,0,0-.71-2,2.32,2.32,0,0,0-3.51,0,3.28,3.28,0,0,0,0,4.06A2.29,2.29,0,0,0,883.32,421.82Z"/><path class="cls-1" d="M889.88,425.77l.49-2.15h-.76V421.1h2.08v2.52l-.74,2.15Z"/><path class="cls-1" d="M909.35,414.26h2.28l-3.93,9.43h-2l-1.59-4.05-1.54,4.05h-2l-3.93-9.43h2.27l2.81,7.13,1.1-3.08-1.65-4h2l1,2.88,1-2.88h2l-1.63,4,1.11,3.08Z"/><path class="cls-1" d="M916.8,423.87a5.12,5.12,0,0,1-2.63-.67,4.52,4.52,0,0,1-1.74-1.76,4.92,4.92,0,0,1-.6-2.41,5.15,5.15,0,0,1,.6-2.46,4.49,4.49,0,0,1,1.74-1.8,5.15,5.15,0,0,1,2.65-.68,5.29,5.29,0,0,1,2.06.4,4.47,4.47,0,0,1,1.56,1.07,5,5,0,0,1,1,1.54,5.13,5.13,0,0,1,.33,1.84,4.59,4.59,0,0,1-.05.81h-7.29a2.47,2.47,0,0,0,2.5,2.36,2.75,2.75,0,0,0,1.37-.36,1.82,1.82,0,0,0,.86-.92l2.07.58a4.07,4.07,0,0,1-1.69,1.78A5.31,5.31,0,0,1,916.8,423.87Zm-2.47-5.65h4.93a2.64,2.64,0,0,0-.79-1.72,2.34,2.34,0,0,0-1.68-.66,2.32,2.32,0,0,0-1.67.66A2.55,2.55,0,0,0,914.33,418.22Z"/><path class="cls-1" d="M926.94,419a5.75,5.75,0,0,1,.53-2.46,4.33,4.33,0,0,1,1.51-1.76,3.79,3.79,0,0,1,2.18-.66,3.59,3.59,0,0,1,1.85.5,3.82,3.82,0,0,1,1.33,1.32v-5.36h2.41V421a.85.85,0,0,0,.13.55.56.56,0,0,0,.43.19v2a5.86,5.86,0,0,1-1,.13,1.76,1.76,0,0,1-1.07-.32,1.22,1.22,0,0,1-.48-.85l0-.59a3.54,3.54,0,0,1-1.4,1.34,4,4,0,0,1-1.88.47,4.23,4.23,0,0,1-2.31-.65,4.48,4.48,0,0,1-1.6-1.77A5.39,5.39,0,0,1,926.94,419Zm7.4,1.27V418a3,3,0,0,0-1-1.31,2.37,2.37,0,0,0-1.43-.53,2.21,2.21,0,0,0-1.77.86,3.12,3.12,0,0,0-.7,2,2.85,2.85,0,0,0,.74,2,2.48,2.48,0,0,0,3.25.35A2.25,2.25,0,0,0,934.34,420.24Z"/><path class="cls-1" d="M938.52,419a5.09,5.09,0,0,1,.35-1.87,5,5,0,0,1,1-1.56,4.33,4.33,0,0,1,1.57-1.07,5.33,5.33,0,0,1,2.06-.4,5,5,0,0,1,2.62.69,4.52,4.52,0,0,1,1.72,1.78,5.14,5.14,0,0,1,.59,2.43,5.29,5.29,0,0,1-.34,1.86,4.82,4.82,0,0,1-1,1.56,4.4,4.4,0,0,1-1.56,1.06,5.12,5.12,0,0,1-2.06.4,5.5,5.5,0,0,1-1.7-.26,4.31,4.31,0,0,1-1.38-.72,5.13,5.13,0,0,1-1-1.06,4.47,4.47,0,0,1-.64-1.34A5,5,0,0,1,938.52,419Zm5,2.83a2.24,2.24,0,0,0,1.75-.81,3,3,0,0,0,.71-2,3,3,0,0,0-.71-2,2.32,2.32,0,0,0-3.51,0,3,3,0,0,0-.71,2,3,3,0,0,0,.7,2A2.29,2.29,0,0,0,943.48,421.82Z"/><path class="cls-1" d="M958.79,423.69h-2.41V418.4c0-1.45-.5-2.18-1.49-2.18a2.4,2.4,0,0,0-1.47.56,2.87,2.87,0,0,0-1,1.4v5.51H950v-9.43h2.18V416a3.58,3.58,0,0,1,1.52-1.41,4.78,4.78,0,0,1,2.22-.51,3.13,3.13,0,0,1,1.2.22,2.17,2.17,0,0,1,.82.56,2.68,2.68,0,0,1,.5.84,4.72,4.72,0,0,1,.25,1,7.4,7.4,0,0,1,.07,1.09Z"/><path class="cls-1" d="M959.88,415.18l.39-2.2h-.71v-2.43H962V413l-.65,2.16Z"/><path class="cls-1" d="M968.81,423.21a6.56,6.56,0,0,1-2.67.64,3.1,3.1,0,0,1-.94-.13,2.4,2.4,0,0,1-.78-.4,1.67,1.67,0,0,1-.53-.73,2.67,2.67,0,0,1-.2-1.06v-5.41h-1.24v-1.86h1.24V411.2h2.42v3.06h2v1.86h-2v4.6c0,.62.32.92.9.92a3.46,3.46,0,0,0,1.31-.34Z"/><path class="cls-1" d="M980,423.21a6.56,6.56,0,0,1-2.66.64,3.16,3.16,0,0,1-1-.13,2.26,2.26,0,0,1-.77-.4,1.77,1.77,0,0,1-.54-.73,2.68,2.68,0,0,1-.19-1.06v-5.41h-1.24v-1.86h1.24V411.2h2.41v3.06h2v1.86h-2v4.6c0,.62.32.92.9.92a3.55,3.55,0,0,0,1.32-.34Z"/><path class="cls-1" d="M986.9,416.34a4.73,4.73,0,0,0-2,.44A2.56,2.56,0,0,0,983.7,418v5.7h-2.41v-9.43h2.21v2a4.46,4.46,0,0,1,1.28-1.52,2.87,2.87,0,0,1,1.64-.61,2.59,2.59,0,0,1,.48,0Z"/><path class="cls-1" d="M987.55,420.91a2.63,2.63,0,0,1,1.12-2.22,4.72,4.72,0,0,1,2.93-.85,5.82,5.82,0,0,1,2.27.38v-.5a1.76,1.76,0,0,0-.54-1.39,2.22,2.22,0,0,0-1.57-.49,4.14,4.14,0,0,0-1.45.26,8.07,8.07,0,0,0-1.5.81l-.78-1.58a7.12,7.12,0,0,1,4-1.24,4.48,4.48,0,0,1,3.14,1,3.66,3.66,0,0,1,1.12,2.88v3a.85.85,0,0,0,.14.55.59.59,0,0,0,.44.19v2a5.45,5.45,0,0,1-1,.13,1.69,1.69,0,0,1-1.08-.31,1.25,1.25,0,0,1-.47-.81l0-.48a4.22,4.22,0,0,1-1.53,1.21,4.35,4.35,0,0,1-1.88.44,3.32,3.32,0,0,1-2.34-.85A2.72,2.72,0,0,1,987.55,420.91Zm5.87.48a1.24,1.24,0,0,0,.45-.83v-.95a4.83,4.83,0,0,0-1.89-.38,2.63,2.63,0,0,0-1.55.41,1.23,1.23,0,0,0-.6,1.06,1.27,1.27,0,0,0,.46,1,1.72,1.72,0,0,0,1.22.42,2.92,2.92,0,0,0,1-.2A2.54,2.54,0,0,0,993.42,421.39Z"/><path class="cls-1" d="M1007.29,423.69h-2.41V418.4c0-1.45-.5-2.18-1.5-2.18a2.39,2.39,0,0,0-1.46.56,2.87,2.87,0,0,0-1,1.4v5.51h-2.41v-9.43h2.18V416a3.61,3.61,0,0,1,1.53-1.41,4.78,4.78,0,0,1,2.22-.51,3.21,3.21,0,0,1,1.2.22,2.25,2.25,0,0,1,.82.56,2.88,2.88,0,0,1,.5.84,4.72,4.72,0,0,1,.25,1,9.08,9.08,0,0,1,.07,1.09Z"/><path class="cls-1" d="M1012.86,423.87a6.62,6.62,0,0,1-2.32-.41,5.1,5.1,0,0,1-1.87-1.16l.86-1.56a5.28,5.28,0,0,0,3.24,1.34,2.15,2.15,0,0,0,1.13-.26.85.85,0,0,0,.42-.76,1.23,1.23,0,0,0,0-.2.76.76,0,0,0-.09-.18l-.12-.14a.62.62,0,0,0-.19-.13l-.22-.11-.28-.1-.3-.1-.36-.1-.4-.12c-.46-.15-.84-.28-1.14-.4a6.13,6.13,0,0,1-.86-.41,2.4,2.4,0,0,1-.65-.5,2,2,0,0,1-.37-.63,2.31,2.31,0,0,1-.14-.82,2.68,2.68,0,0,1,1.05-2.22,4.36,4.36,0,0,1,2.78-.82,5,5,0,0,1,3.54,1.33l-1,1.53a4.45,4.45,0,0,0-2.68-1.08,2.13,2.13,0,0,0-1,.23.78.78,0,0,0-.42.75.77.77,0,0,0,.37.69,6.11,6.11,0,0,0,1.35.49c.52.16.93.29,1.24.4a7.34,7.34,0,0,1,.94.4,2.71,2.71,0,0,1,.74.52,2.12,2.12,0,0,1,.41.65,2.49,2.49,0,0,1,.16.9,2.6,2.6,0,0,1-1,2.18A4.37,4.37,0,0,1,1012.86,423.87Z"/><path class="cls-1" d="M1017.62,420.91a2.64,2.64,0,0,1,1.13-2.22,4.69,4.69,0,0,1,2.92-.85,5.79,5.79,0,0,1,2.27.38v-.5a1.79,1.79,0,0,0-.53-1.39,2.25,2.25,0,0,0-1.58-.49,4.13,4.13,0,0,0-1.44.26,7.49,7.49,0,0,0-1.5.81l-.78-1.58a7.1,7.1,0,0,1,4-1.24,4.51,4.51,0,0,1,3.14,1,3.66,3.66,0,0,1,1.12,2.88v3a.85.85,0,0,0,.13.55.63.63,0,0,0,.45.19v2a5.55,5.55,0,0,1-1,.13,1.73,1.73,0,0,1-1.08-.31,1.29,1.29,0,0,1-.47-.81l0-.48a4.11,4.11,0,0,1-1.52,1.21,4.38,4.38,0,0,1-1.88.44,3.35,3.35,0,0,1-2.35-.85A2.72,2.72,0,0,1,1017.62,420.91Zm5.87.48a1.24,1.24,0,0,0,.45-.83v-.95a4.76,4.76,0,0,0-1.89-.38,2.65,2.65,0,0,0-1.55.41,1.24,1.24,0,0,0-.59,1.06,1.3,1.3,0,0,0,.45,1,1.77,1.77,0,0,0,1.23.42,3,3,0,0,0,1-.2A2.49,2.49,0,0,0,1023.49,421.39Z"/><path class="cls-1" d="M1033,423.87a5.36,5.36,0,0,1-2.06-.4,4.61,4.61,0,0,1-2.57-2.63A5,5,0,0,1,1028,419a5.07,5.07,0,0,1,.59-2.42,4.57,4.57,0,0,1,1.74-1.78,5.15,5.15,0,0,1,2.65-.68,5,5,0,0,1,2.6.66,4.14,4.14,0,0,1,1.66,1.76l-2.36.72a2.09,2.09,0,0,0-.8-.79,2.34,2.34,0,0,0-2.88.5,2.91,2.91,0,0,0-.71,2,3,3,0,0,0,.72,2,2.25,2.25,0,0,0,1.75.81,2.36,2.36,0,0,0,1.19-.32,1.74,1.74,0,0,0,.77-.8l2.35.72a3.88,3.88,0,0,1-1.63,1.78A5.19,5.19,0,0,1,1033,423.87Z"/><path class="cls-1" d="M1044.4,423.21a6.56,6.56,0,0,1-2.66.64,3.16,3.16,0,0,1-1-.13,2.35,2.35,0,0,1-.77-.4,1.77,1.77,0,0,1-.54-.73,2.68,2.68,0,0,1-.19-1.06v-5.41h-1.24v-1.86h1.24V411.2h2.41v3.06h2v1.86h-2v4.6c0,.62.32.92.9.92a3.55,3.55,0,0,0,1.32-.34Z"/><path class="cls-1" d="M891.81,439.91a2.64,2.64,0,0,1,1.13-2.22,4.72,4.72,0,0,1,2.93-.85,5.77,5.77,0,0,1,2.26.38v-.5a1.75,1.75,0,0,0-.53-1.39,2.23,2.23,0,0,0-1.58-.49,4.13,4.13,0,0,0-1.44.26,7.77,7.77,0,0,0-1.5.81l-.78-1.58a7.1,7.1,0,0,1,4-1.24,4.5,4.5,0,0,1,3.14,1,3.66,3.66,0,0,1,1.12,2.88v3a.92.92,0,0,0,.13.55.63.63,0,0,0,.45.19v2a5.45,5.45,0,0,1-1,.13,1.68,1.68,0,0,1-1.07-.31,1.25,1.25,0,0,1-.47-.81l-.06-.48a4.11,4.11,0,0,1-1.52,1.21,4.35,4.35,0,0,1-1.88.44,3.32,3.32,0,0,1-2.34-.85A2.69,2.69,0,0,1,891.81,439.91Zm5.88.48a1.26,1.26,0,0,0,.44-.83v-.95a4.76,4.76,0,0,0-1.89-.38,2.62,2.62,0,0,0-1.54.41,1.23,1.23,0,0,0-.6,1.06,1.27,1.27,0,0,0,.46,1,1.72,1.72,0,0,0,1.22.42,2.92,2.92,0,0,0,1.05-.2A2.54,2.54,0,0,0,897.69,440.39Z"/><path class="cls-1" d="M908.36,442.21a6.6,6.6,0,0,1-2.67.64,3.21,3.21,0,0,1-1-.13,2.46,2.46,0,0,1-.77-.4,1.77,1.77,0,0,1-.54-.73,2.68,2.68,0,0,1-.19-1.06v-5.41H902v-1.86h1.24V430.2h2.42v3.06h2v1.86h-2v4.6c0,.62.31.92.89.92a3.55,3.55,0,0,0,1.32-.34Z"/><path class="cls-1" d="M913.28,439.91a2.63,2.63,0,0,1,1.12-2.22,4.72,4.72,0,0,1,2.93-.85,5.82,5.82,0,0,1,2.27.38v-.5a1.79,1.79,0,0,0-.53-1.39,2.27,2.27,0,0,0-1.58-.49,4,4,0,0,0-1.44.26,7.82,7.82,0,0,0-1.51.81l-.78-1.58a7.12,7.12,0,0,1,4-1.24,4.48,4.48,0,0,1,3.14,1A3.66,3.66,0,0,1,922,437v3a.85.85,0,0,0,.14.55.59.59,0,0,0,.44.19v2a5.45,5.45,0,0,1-1,.13,1.71,1.71,0,0,1-1.08-.31,1.29,1.29,0,0,1-.47-.81l0-.48a4.22,4.22,0,0,1-1.53,1.21,4.34,4.34,0,0,1-1.87.44,3.33,3.33,0,0,1-2.35-.85A2.72,2.72,0,0,1,913.28,439.91Zm5.87.48a1.24,1.24,0,0,0,.45-.83v-.95a4.83,4.83,0,0,0-1.89-.38,2.63,2.63,0,0,0-1.55.41,1.23,1.23,0,0,0-.6,1.06,1.27,1.27,0,0,0,.46,1,1.72,1.72,0,0,0,1.22.42,2.92,2.92,0,0,0,1-.2A2.54,2.54,0,0,0,919.15,440.39Z"/><path class="cls-1" d="M924.24,429.55h2.41v10.12a1.34,1.34,0,0,0,.2.86.73.73,0,0,0,.6.24,2.71,2.71,0,0,0,1.14-.26l.32,1.84a5,5,0,0,1-1.11.35,5.84,5.84,0,0,1-1.19.13,2.43,2.43,0,0,1-1.75-.6,2.32,2.32,0,0,1-.62-1.72Z"/><path class="cls-1" d="M929.94,429.55h2.41v10.12a1.41,1.41,0,0,0,.2.86.76.76,0,0,0,.61.24,2.7,2.7,0,0,0,1.13-.26l.33,1.84a5.1,5.1,0,0,1-1.12.35,5.76,5.76,0,0,1-1.19.13,2.39,2.39,0,0,1-1.74-.6,2.29,2.29,0,0,1-.63-1.72Z"/><path class="cls-1" d="M941.6,441.06v1.63h-2.1V429.55h2.4v5.36a3.66,3.66,0,0,1,1.34-1.34,3.76,3.76,0,0,1,1.91-.48,3.61,3.61,0,0,1,2.14.68,4.34,4.34,0,0,1,1.47,1.8,5.84,5.84,0,0,1,.51,2.45,5.29,5.29,0,0,1-.57,2.45,4.44,4.44,0,0,1-1.59,1.76,4.21,4.21,0,0,1-2.25.64,3.79,3.79,0,0,1-1.91-.48A3.52,3.52,0,0,1,941.6,441.06Zm5.2-3a3.15,3.15,0,0,0-.7-2,2.24,2.24,0,0,0-3.19-.33,3.48,3.48,0,0,0-1,1.32v2.25a2.23,2.23,0,0,0,.91,1.14,2.48,2.48,0,0,0,1.38.44,2.42,2.42,0,0,0,1.87-.81A2.84,2.84,0,0,0,946.8,438Z"/><path class="cls-1" d="M950.25,439.91a2.64,2.64,0,0,1,1.13-2.22,4.69,4.69,0,0,1,2.92-.85,5.79,5.79,0,0,1,2.27.38v-.5a1.79,1.79,0,0,0-.53-1.39,2.23,2.23,0,0,0-1.58-.49,4.13,4.13,0,0,0-1.44.26,7.49,7.49,0,0,0-1.5.81l-.78-1.58a7.1,7.1,0,0,1,4-1.24,4.5,4.5,0,0,1,3.14,1A3.66,3.66,0,0,1,959,437v3a.85.85,0,0,0,.13.55.63.63,0,0,0,.45.19v2a5.55,5.55,0,0,1-1,.13,1.68,1.68,0,0,1-1.07-.31,1.21,1.21,0,0,1-.47-.81l-.06-.48a4.11,4.11,0,0,1-1.52,1.21,4.38,4.38,0,0,1-1.88.44,3.36,3.36,0,0,1-2.35-.85A2.72,2.72,0,0,1,950.25,439.91Zm5.87.48a1.24,1.24,0,0,0,.45-.83v-.95a4.76,4.76,0,0,0-1.89-.38,2.6,2.6,0,0,0-1.54.41,1.23,1.23,0,0,0-.6,1.06,1.27,1.27,0,0,0,.46,1,1.72,1.72,0,0,0,1.22.42,3,3,0,0,0,1-.2A2.4,2.4,0,0,0,956.12,440.39Z"/><path class="cls-1" d="M964.7,442.87a6.66,6.66,0,0,1-2.32-.41,5.19,5.19,0,0,1-1.87-1.16l.86-1.56a5.33,5.33,0,0,0,3.24,1.34,2.15,2.15,0,0,0,1.13-.26.85.85,0,0,0,.42-.76,1.23,1.23,0,0,0,0-.2.76.76,0,0,0-.09-.18l-.12-.14a.46.46,0,0,0-.18-.13l-.22-.11-.28-.1-.31-.1-.36-.1-.4-.12c-.46-.15-.84-.28-1.13-.4a5.75,5.75,0,0,1-.87-.41,2.57,2.57,0,0,1-.65-.5,2,2,0,0,1-.36-.63,2.11,2.11,0,0,1-.14-.82,2.7,2.7,0,0,1,1-2.22,4.38,4.38,0,0,1,2.78-.82,5,5,0,0,1,3.54,1.33l-1,1.53a4.47,4.47,0,0,0-2.68-1.08,2.2,2.2,0,0,0-1,.23.79.79,0,0,0-.41.75.75.75,0,0,0,.37.69A5.79,5.79,0,0,0,965,437c.52.16.94.29,1.24.4a7.45,7.45,0,0,1,.95.4,2.88,2.88,0,0,1,.74.52,2.1,2.1,0,0,1,.4.65,2.29,2.29,0,0,1,.16.9,2.62,2.62,0,0,1-1,2.18A4.4,4.4,0,0,1,964.7,442.87Z"/><path class="cls-1" d="M974.49,442.87a5.06,5.06,0,0,1-2.62-.67,4.48,4.48,0,0,1-1.75-1.76,4.92,4.92,0,0,1-.6-2.41,5.15,5.15,0,0,1,.6-2.46,4.45,4.45,0,0,1,1.75-1.8,5.09,5.09,0,0,1,2.64-.68,5.29,5.29,0,0,1,2.06.4,4.38,4.38,0,0,1,1.56,1.07,5,5,0,0,1,1,1.54,5.13,5.13,0,0,1,.33,1.84,4.59,4.59,0,0,1,0,.81h-7.29a2.47,2.47,0,0,0,2.5,2.36,2.75,2.75,0,0,0,1.37-.36,1.82,1.82,0,0,0,.86-.92l2.07.58a4.07,4.07,0,0,1-1.69,1.78A5.31,5.31,0,0,1,974.49,442.87ZM972,437.22H977a2.64,2.64,0,0,0-.79-1.72,2.46,2.46,0,0,0-3.35,0A2.55,2.55,0,0,0,972,437.22Z"/><path class="cls-1" d="M980.31,438a5.61,5.61,0,0,1,.54-2.46,4.33,4.33,0,0,1,1.51-1.76,3.76,3.76,0,0,1,2.17-.66,3.59,3.59,0,0,1,1.85.5,3.74,3.74,0,0,1,1.33,1.32v-5.36h2.42V440a.93.93,0,0,0,.12.55.58.58,0,0,0,.43.19v2a5.75,5.75,0,0,1-1,.13,1.73,1.73,0,0,1-1.06-.32,1.15,1.15,0,0,1-.48-.85l0-.59a3.47,3.47,0,0,1-1.4,1.34,4,4,0,0,1-1.88.47,4.28,4.28,0,0,1-2.31-.65,4.56,4.56,0,0,1-1.6-1.77A5.39,5.39,0,0,1,980.31,438Zm7.4,1.27V437a2.91,2.91,0,0,0-1-1.31,2.34,2.34,0,0,0-1.42-.53,2.21,2.21,0,0,0-1.77.86,3.07,3.07,0,0,0-.7,2,2.81,2.81,0,0,0,.74,2,2.47,2.47,0,0,0,3.24.35A2.25,2.25,0,0,0,987.71,439.24Z"/><path class="cls-1" d="M996.21,438a5.09,5.09,0,0,1,.35-1.87,5,5,0,0,1,1-1.56,4.33,4.33,0,0,1,1.57-1.07,5.33,5.33,0,0,1,2.06-.4,5,5,0,0,1,2.62.69,4.52,4.52,0,0,1,1.72,1.78,5.14,5.14,0,0,1,.59,2.43,5.29,5.29,0,0,1-.34,1.86,4.82,4.82,0,0,1-1,1.56,4.4,4.4,0,0,1-1.56,1.06,5.12,5.12,0,0,1-2.06.4,5.5,5.5,0,0,1-1.7-.26,4.31,4.31,0,0,1-1.38-.72,5.13,5.13,0,0,1-1-1.06,4.73,4.73,0,0,1-.64-1.34A5,5,0,0,1,996.21,438Zm5,2.83a2.22,2.22,0,0,0,1.75-.81,3,3,0,0,0,.71-2,3,3,0,0,0-.71-2,2.32,2.32,0,0,0-3.51,0,3,3,0,0,0-.71,2,2.91,2.91,0,0,0,.71,2A2.25,2.25,0,0,0,1001.17,440.82Z"/><path class="cls-1" d="M1016.48,442.69h-2.41V437.4c0-1.45-.5-2.18-1.49-2.18a2.4,2.4,0,0,0-1.47.56,2.87,2.87,0,0,0-1,1.4v5.51h-2.4v-9.43h2.18V435a3.58,3.58,0,0,1,1.52-1.41,4.8,4.8,0,0,1,2.22-.51,3.13,3.13,0,0,1,1.2.22,2.17,2.17,0,0,1,.82.56,2.68,2.68,0,0,1,.5.84,4.72,4.72,0,0,1,.25,1,7.4,7.4,0,0,1,.07,1.09Z"/><path class="cls-1" d="M869.68,461.69l-3.48-9.43h2.51l2.37,7.24,2.4-7.24h2.29l-3.46,9.43Z"/><path class="cls-1" d="M877,450.94v-2.39h2.41v2.39Zm0,10.75v-9.43h2.41v9.43Z"/><path class="cls-1" d="M886,461.87a5.09,5.09,0,0,1-2.63-.67,4.55,4.55,0,0,1-1.75-1.76A4.92,4.92,0,0,1,881,457a5.15,5.15,0,0,1,.6-2.46,4.52,4.52,0,0,1,1.75-1.8,5.14,5.14,0,0,1,2.64-.68,5.29,5.29,0,0,1,2.06.4,4.29,4.29,0,0,1,1.56,1.07,5,5,0,0,1,1,1.54,5.14,5.14,0,0,1,.34,1.84,4.47,4.47,0,0,1-.06.81h-7.29a2.48,2.48,0,0,0,.81,1.71,2.41,2.41,0,0,0,1.69.65,2.72,2.72,0,0,0,1.37-.36,1.88,1.88,0,0,0,.87-.92l2.06.58a4,4,0,0,1-1.69,1.78A5.27,5.27,0,0,1,886,461.87Zm-2.47-5.65h4.93a2.65,2.65,0,0,0-.8-1.72,2.46,2.46,0,0,0-3.35,0A2.54,2.54,0,0,0,883.54,456.22Z"/><path class="cls-1" d="M903.83,452.26h2.29l-3.94,9.43h-2l-1.59-4.05L897,461.69h-2l-3.93-9.43h2.27l2.81,7.13,1.1-3.08-1.65-4h2l1,2.88,1-2.88h2l-1.63,4,1.11,3.08Z"/><path class="cls-1" d="M906.34,458.91a2.64,2.64,0,0,1,1.13-2.22,4.7,4.7,0,0,1,2.93-.85,5.77,5.77,0,0,1,2.26.38v-.5a1.75,1.75,0,0,0-.53-1.39,2.23,2.23,0,0,0-1.58-.49,4.13,4.13,0,0,0-1.44.26,7.77,7.77,0,0,0-1.5.81l-.78-1.58a7.1,7.1,0,0,1,4-1.24,4.5,4.5,0,0,1,3.14,1,3.66,3.66,0,0,1,1.12,2.88v3a.92.92,0,0,0,.13.55.63.63,0,0,0,.45.19v2a5.55,5.55,0,0,1-1,.13,1.68,1.68,0,0,1-1.07-.31,1.21,1.21,0,0,1-.47-.81l-.06-.48a4.11,4.11,0,0,1-1.52,1.21,4.35,4.35,0,0,1-1.88.44,3.32,3.32,0,0,1-2.34-.85A2.69,2.69,0,0,1,906.34,458.91Zm5.87.48a1.24,1.24,0,0,0,.45-.83v-.95a4.76,4.76,0,0,0-1.89-.38,2.6,2.6,0,0,0-1.54.41,1.23,1.23,0,0,0-.6,1.06,1.27,1.27,0,0,0,.46,1,1.72,1.72,0,0,0,1.22.42,3,3,0,0,0,1.05-.2A2.4,2.4,0,0,0,912.21,459.39Z"/><path class="cls-1" d="M919.43,460.06v1.63h-2.11V448.55h2.41v5.36a3.66,3.66,0,0,1,1.34-1.34,3.73,3.73,0,0,1,1.9-.48,3.62,3.62,0,0,1,2.15.68,4.25,4.25,0,0,1,1.46,1.8,5.84,5.84,0,0,1,.51,2.45,5.29,5.29,0,0,1-.57,2.45,4.49,4.49,0,0,1-1.58,1.76,4.22,4.22,0,0,1-2.26.64,3.82,3.82,0,0,1-1.91-.48A3.56,3.56,0,0,1,919.43,460.06Zm5.19-3a3.09,3.09,0,0,0-.7-2,2.23,2.23,0,0,0-3.18-.33,3.39,3.39,0,0,0-1,1.32v2.25a2.26,2.26,0,0,0,.9,1.14,2.53,2.53,0,0,0,1.38.44,2.44,2.44,0,0,0,1.88-.81A2.84,2.84,0,0,0,924.62,457Z"/><path class="cls-1" d="M928.73,450.94v-2.39h2.41v2.39Zm0,10.75v-9.43h2.41v9.43Z"/><path class="cls-1" d="M933.3,448.55h2.41v10.12a1.41,1.41,0,0,0,.2.86.75.75,0,0,0,.61.24,2.7,2.7,0,0,0,1.13-.26l.33,1.84a5.1,5.1,0,0,1-1.12.35,5.76,5.76,0,0,1-1.19.13,2.43,2.43,0,0,1-1.75-.6,2.32,2.32,0,0,1-.62-1.72Z"/><path class="cls-1" d="M939,450.94v-2.39h2.41v2.39Zm0,10.75v-9.43h2.41v9.43Z"/><path class="cls-1" d="M949.26,461.21a6.56,6.56,0,0,1-2.66.64,3.16,3.16,0,0,1-1-.13,2.26,2.26,0,0,1-.77-.4,1.77,1.77,0,0,1-.54-.73,2.68,2.68,0,0,1-.19-1.06v-5.41h-1.24v-1.86h1.24V449.2h2.41v3.06h2v1.86h-2v4.6c0,.62.32.92.9.92a3.55,3.55,0,0,0,1.32-.34Z"/><path class="cls-1" d="M950.68,463.53a4.44,4.44,0,0,0,1.08.18.94.94,0,0,0,.79-.42,5.87,5.87,0,0,0,.67-1.6l-3.73-9.43H952l2.54,7,2.24-7h2.3l-4,11.3a3.27,3.27,0,0,1-3.22,2.25,3.7,3.7,0,0,1-1.21-.2Z"/><path class="cls-1" d="M963.6,458.91a2.63,2.63,0,0,1,1.12-2.22,4.72,4.72,0,0,1,2.93-.85,5.82,5.82,0,0,1,2.27.38v-.5a1.76,1.76,0,0,0-.54-1.39,2.22,2.22,0,0,0-1.57-.49,4.14,4.14,0,0,0-1.45.26,8.07,8.07,0,0,0-1.5.81l-.78-1.58a7.12,7.12,0,0,1,4-1.24,4.48,4.48,0,0,1,3.14,1,3.66,3.66,0,0,1,1.12,2.88v3a.85.85,0,0,0,.14.55.59.59,0,0,0,.44.19v2a5.45,5.45,0,0,1-1,.13,1.69,1.69,0,0,1-1.08-.31,1.25,1.25,0,0,1-.47-.81l-.05-.48a4.22,4.22,0,0,1-1.53,1.21,4.35,4.35,0,0,1-1.88.44,3.32,3.32,0,0,1-2.34-.85A2.72,2.72,0,0,1,963.6,458.91Zm5.87.48a1.24,1.24,0,0,0,.45-.83v-.95a4.83,4.83,0,0,0-1.89-.38,2.63,2.63,0,0,0-1.55.41,1.23,1.23,0,0,0-.6,1.06,1.27,1.27,0,0,0,.46,1,1.72,1.72,0,0,0,1.22.42,2.92,2.92,0,0,0,1.05-.2A2.54,2.54,0,0,0,969.47,459.39Z"/><path class="cls-1" d="M983.34,461.69h-2.41V456.4c0-1.45-.5-2.18-1.5-2.18a2.39,2.39,0,0,0-1.46.56,2.87,2.87,0,0,0-1,1.4v5.51h-2.41v-9.43h2.18V454a3.61,3.61,0,0,1,1.53-1.41,4.78,4.78,0,0,1,2.22-.51,3.21,3.21,0,0,1,1.2.22,2.25,2.25,0,0,1,.82.56,2.88,2.88,0,0,1,.5.84,4.72,4.72,0,0,1,.25,1,9.08,9.08,0,0,1,.07,1.09Z"/><path class="cls-1" d="M984.86,457a5.75,5.75,0,0,1,.53-2.46,4.33,4.33,0,0,1,1.51-1.76,3.79,3.79,0,0,1,2.18-.66,3.59,3.59,0,0,1,1.85.5,3.82,3.82,0,0,1,1.33,1.32v-5.36h2.41V459a.85.85,0,0,0,.13.55.56.56,0,0,0,.43.19v2a5.86,5.86,0,0,1-1,.13,1.76,1.76,0,0,1-1.07-.32,1.22,1.22,0,0,1-.48-.85l0-.59a3.54,3.54,0,0,1-1.4,1.34,4,4,0,0,1-1.88.47,4.23,4.23,0,0,1-2.31-.65,4.48,4.48,0,0,1-1.6-1.77A5.39,5.39,0,0,1,984.86,457Zm7.4,1.27V456a3,3,0,0,0-1-1.31,2.37,2.37,0,0,0-1.43-.53,2.21,2.21,0,0,0-1.77.86,3.12,3.12,0,0,0-.7,2,2.85,2.85,0,0,0,.74,2,2.48,2.48,0,0,0,3.25.35A2.3,2.3,0,0,0,992.26,458.24Z"/><path class="cls-1" d="M1000.77,457a5.61,5.61,0,0,1,.54-2.46,4.33,4.33,0,0,1,1.51-1.76,3.76,3.76,0,0,1,2.17-.66,3.56,3.56,0,0,1,1.85.5,3.66,3.66,0,0,1,1.33,1.32v-5.36h2.42V459a.93.93,0,0,0,.12.55.6.6,0,0,0,.43.19v2a5.66,5.66,0,0,1-1,.13,1.74,1.74,0,0,1-1.07-.32,1.15,1.15,0,0,1-.48-.85l0-.59a3.51,3.51,0,0,1-1.39,1.34,4,4,0,0,1-1.88.47,4.29,4.29,0,0,1-2.32-.65,4.64,4.64,0,0,1-1.6-1.77A5.39,5.39,0,0,1,1000.77,457Zm7.4,1.27V456a3,3,0,0,0-1-1.31,2.39,2.39,0,0,0-1.43-.53,2.21,2.21,0,0,0-1.77.86,3.07,3.07,0,0,0-.7,2,2.85,2.85,0,0,0,.74,2,2.46,2.46,0,0,0,1.87.8,2.41,2.41,0,0,0,1.37-.45A2.2,2.2,0,0,0,1008.17,458.24Z"/><path class="cls-1" d="M1012.36,457a4.9,4.9,0,0,1,.35-1.87,5,5,0,0,1,1-1.56,4.42,4.42,0,0,1,1.57-1.07,5.36,5.36,0,0,1,2.06-.4,5,5,0,0,1,2.63.69,4.52,4.52,0,0,1,1.72,1.78,5.14,5.14,0,0,1,.59,2.43,5.08,5.08,0,0,1-.35,1.86,5,5,0,0,1-1,1.56,4.4,4.4,0,0,1-1.56,1.06,5.2,5.2,0,0,1-2.07.4,5.49,5.49,0,0,1-1.69-.26,4.31,4.31,0,0,1-1.38-.72,5.13,5.13,0,0,1-1-1.06,4.75,4.75,0,0,1-.65-1.34A5.38,5.38,0,0,1,1012.36,457Zm4.95,2.83a2.24,2.24,0,0,0,1.76-.81,3,3,0,0,0,.71-2,3,3,0,0,0-.71-2,2.26,2.26,0,0,0-1.76-.8,2.24,2.24,0,0,0-1.75.81,3.24,3.24,0,0,0,0,4.06A2.26,2.26,0,0,0,1017.31,459.82Z"/><path class="cls-1" d="M1032.62,461.69h-2.4V456.4c0-1.45-.5-2.18-1.5-2.18a2.42,2.42,0,0,0-1.47.56,2.85,2.85,0,0,0-1,1.4v5.51h-2.41v-9.43H1026V454a3.61,3.61,0,0,1,1.53-1.41,4.78,4.78,0,0,1,2.22-.51,3.21,3.21,0,0,1,1.2.22,2.25,2.25,0,0,1,.82.56,2.66,2.66,0,0,1,.49.84,4.22,4.22,0,0,1,.26,1,9.18,9.18,0,0,1,.06,1.09Z"/><path class="cls-1" d="M1033.71,453.18l.4-2.2h-.71v-2.43h2.42V451l-.65,2.16Z"/><path class="cls-1" d="M1042.64,461.21a6.52,6.52,0,0,1-2.66.64,3.21,3.21,0,0,1-1-.13,2.46,2.46,0,0,1-.77-.4,1.77,1.77,0,0,1-.54-.73,2.68,2.68,0,0,1-.19-1.06v-5.41h-1.24v-1.86h1.24V449.2H1040v3.06h2v1.86h-2v4.6c0,.62.31.92.89.92a3.55,3.55,0,0,0,1.32-.34Z"/><path class="cls-1" d="M916.81,469.94v-2.39h2.4v2.39Zm0,10.75v-9.43h2.4v9.43Z"/><path class="cls-1" d="M930.16,480.69h-2.41V475.4c0-1.45-.5-2.18-1.5-2.18a2.39,2.39,0,0,0-1.46.56,2.87,2.87,0,0,0-1,1.4v5.51h-2.41v-9.43h2.18V473a3.67,3.67,0,0,1,1.53-1.41,4.78,4.78,0,0,1,2.22-.51,3.17,3.17,0,0,1,1.2.22,2.25,2.25,0,0,1,.82.56,2.88,2.88,0,0,1,.5.84,4.72,4.72,0,0,1,.25,1,7.4,7.4,0,0,1,.07,1.09Z"/><path class="cls-1" d="M937.86,480.21a6.56,6.56,0,0,1-2.67.64,3.21,3.21,0,0,1-1-.13,2.46,2.46,0,0,1-.77-.4,1.77,1.77,0,0,1-.54-.73,2.86,2.86,0,0,1-.19-1.06v-5.41H931.5v-1.86h1.24V468.2h2.42v3.06h2v1.86h-2v4.6c0,.62.31.92.89.92a3.55,3.55,0,0,0,1.32-.34Z"/><path class="cls-1" d="M943.37,480.87a5.09,5.09,0,0,1-2.63-.67,4.55,4.55,0,0,1-1.75-1.76,4.92,4.92,0,0,1-.6-2.41,5.15,5.15,0,0,1,.6-2.46,4.52,4.52,0,0,1,1.75-1.8,5.14,5.14,0,0,1,2.64-.68,5.38,5.38,0,0,1,2.07.4,4.34,4.34,0,0,1,1.55,1.07,4.82,4.82,0,0,1,1,1.54,5.14,5.14,0,0,1,.34,1.84,5.82,5.82,0,0,1,0,.81H941a2.48,2.48,0,0,0,.81,1.71,2.41,2.41,0,0,0,1.7.65,2.71,2.71,0,0,0,1.36-.36,1.8,1.8,0,0,0,.87-.92l2.06.58a4,4,0,0,1-1.69,1.78A5.27,5.27,0,0,1,943.37,480.87Zm-2.47-5.65h4.93a2.65,2.65,0,0,0-.8-1.72,2.46,2.46,0,0,0-3.35,0A2.59,2.59,0,0,0,940.9,475.22Z"/><path class="cls-1" d="M958.53,480.69h-2.41V475.4c0-1.45-.5-2.18-1.49-2.18a2.4,2.4,0,0,0-1.47.56,2.87,2.87,0,0,0-1,1.4v5.51h-2.4v-9.43H952V473a3.58,3.58,0,0,1,1.52-1.41,4.8,4.8,0,0,1,2.22-.51,3.13,3.13,0,0,1,1.2.22,2.17,2.17,0,0,1,.82.56,2.68,2.68,0,0,1,.5.84,4.72,4.72,0,0,1,.25,1,7.4,7.4,0,0,1,.07,1.09Z"/><path class="cls-1" d="M960.05,476a5.75,5.75,0,0,1,.53-2.46,4.33,4.33,0,0,1,1.51-1.76,3.79,3.79,0,0,1,2.18-.66,3.59,3.59,0,0,1,1.85.5,3.74,3.74,0,0,1,1.33,1.32v-5.36h2.42V478a.93.93,0,0,0,.12.55.56.56,0,0,0,.43.19v2a5.86,5.86,0,0,1-1,.13,1.76,1.76,0,0,1-1.07-.32,1.22,1.22,0,0,1-.48-.85l0-.59a3.54,3.54,0,0,1-1.4,1.34,4,4,0,0,1-1.88.47,4.28,4.28,0,0,1-2.31-.65,4.48,4.48,0,0,1-1.6-1.77A5.39,5.39,0,0,1,960.05,476Zm7.4,1.27V475a2.91,2.91,0,0,0-1-1.31,2.35,2.35,0,0,0-1.43-.53,2.19,2.19,0,0,0-1.76.86,3.07,3.07,0,0,0-.71,2,2.81,2.81,0,0,0,.75,2,2.43,2.43,0,0,0,1.86.8,2.46,2.46,0,0,0,1.38-.45A2.25,2.25,0,0,0,967.45,477.24Z"/><path class="cls-1" d="M982.2,480.21a6.56,6.56,0,0,1-2.67.64,3.21,3.21,0,0,1-.95-.13,2.46,2.46,0,0,1-.77-.4,1.67,1.67,0,0,1-.53-.73,2.67,2.67,0,0,1-.2-1.06v-5.41h-1.24v-1.86h1.24V468.2h2.42v3.06h2v1.86h-2v4.6c0,.62.32.92.9.92a3.51,3.51,0,0,0,1.31-.34Z"/><path class="cls-1" d="M982.73,476a5.09,5.09,0,0,1,.35-1.87,5,5,0,0,1,1-1.56,4.42,4.42,0,0,1,1.57-1.07,5.36,5.36,0,0,1,2.06-.4,5,5,0,0,1,2.62.69,4.55,4.55,0,0,1,1.73,1.78,5.13,5.13,0,0,1,.58,2.43,5.07,5.07,0,0,1-.34,1.86,5,5,0,0,1-1,1.56,4.58,4.58,0,0,1-1.56,1.06,5.2,5.2,0,0,1-2.07.4,5.55,5.55,0,0,1-1.7-.26,4.53,4.53,0,0,1-1.38-.72,5.13,5.13,0,0,1-1-1.06,4.73,4.73,0,0,1-.64-1.34A5,5,0,0,1,982.73,476Zm5,2.83a2.22,2.22,0,0,0,1.75-.81,3,3,0,0,0,.71-2,2.9,2.9,0,0,0-.71-2,2.32,2.32,0,0,0-3.51,0,3,3,0,0,0-.71,2,3,3,0,0,0,.71,2A2.26,2.26,0,0,0,987.69,478.82Z"/><path class="cls-2" d="M63.94,134.09v-3.81H56.6v-4.76l9-11.3h3.72v11.3h2.5v4.76h-2.5v3.81Zm-2-8.57h2.63v-3.35Z"/><path class="cls-2" d="M82.93,119.06H75.21v-4.84H91.45l-9.89,19.87H75.43Z"/><path class="cls-2" d="M92.61,134.12V129H97v5.15Z"/><path class="cls-2" d="M107.15,134.26a10.4,10.4,0,0,1-6.93-2.24l2.77-3.86a6.17,6.17,0,0,0,3.87,1.23A3.92,3.92,0,0,0,109,129a1.52,1.52,0,0,0,.68-1.38,1.6,1.6,0,0,0-.87-1.52,6,6,0,0,0-2.78-.47h-.89v-3.69h1a4,4,0,0,0,2.19-.53,1.58,1.58,0,0,0,.83-1.4,1.24,1.24,0,0,0-.49-1.06,2.16,2.16,0,0,0-1.36-.38,4,4,0,0,0-3.39,2l-3.43-3.95a7.09,7.09,0,0,1,3.07-1.82,13.76,13.76,0,0,1,4.38-.7,8.74,8.74,0,0,1,5.1,1.36A4.16,4.16,0,0,1,115,119a4.56,4.56,0,0,1-1,3,4.32,4.32,0,0,1-2.64,1.6,4.54,4.54,0,0,1,2.87,1.7,5.17,5.17,0,0,1,1.12,3.33,4.85,4.85,0,0,1-2.17,4.19A10.19,10.19,0,0,1,107.15,134.26Z"/><path class="cls-2" d="M120.1,121.52a4.08,4.08,0,0,1,0-6.27,5.67,5.67,0,0,1,7.2,0,4.06,4.06,0,0,1,0,6.27,5.63,5.63,0,0,1-7.2,0ZM121,132.3l8.05-8.92,7.16-9.45,2.36,2.1-7.72,8.66-7.49,9.71Zm3.63-12.57a2.44,2.44,0,0,0,0-2.68,1.1,1.1,0,0,0-1.92,0,2.39,2.39,0,0,0,0,2.68,1.1,1.1,0,0,0,1.92,0Zm7.67,13.38a4.06,4.06,0,0,1,0-6.27,5.67,5.67,0,0,1,7.2,0,4.08,4.08,0,0,1,0,6.27,5.67,5.67,0,0,1-7.2,0Zm4.56-1.79a2.44,2.44,0,0,0,0-2.68,1.18,1.18,0,0,0-1-.56,1.21,1.21,0,0,0-1,.56,2.39,2.39,0,0,0,0,2.68,1.21,1.21,0,0,0,1,.56A1.18,1.18,0,0,0,136.89,131.32Z"/><path class="cls-2" d="M317.12,199.89c0-1,0-1.86.07-2.52a13.12,13.12,0,0,1,.29-2,5.21,5.21,0,0,1,.66-1.64,6.44,6.44,0,0,1,1.12-1.33,10.21,10.21,0,0,1,1.73-1.27l1.18-.67,1.28-.7q.49-.28,1.14-.72a6,6,0,0,0,1-.84,3.51,3.51,0,0,0,.65-.93,2.59,2.59,0,0,0,.26-1.12,1.56,1.56,0,0,0-.53-1.29,2.08,2.08,0,0,0-1.34-.42,4.76,4.76,0,0,0-2.17.59,8.48,8.48,0,0,0-2,1.42L317.12,183a9.15,9.15,0,0,1,3.43-2.26,12.82,12.82,0,0,1,4.86-.9,8.06,8.06,0,0,1,5.35,1.61,5.47,5.47,0,0,1,1.92,4.43,6.15,6.15,0,0,1-1,3.55,10,10,0,0,1-3,2.73q-3.46,2.14-4.68,3h8.73v4.76Z"/><path class="cls-2" d="M344.05,200.16a9,9,0,0,1-2.89-.47,7.94,7.94,0,0,1-2.44-1.31,5.92,5.92,0,0,1-1.68-2.11,6,6,0,0,1-.63-2.74,4.28,4.28,0,0,1,.72-2.43,6.82,6.82,0,0,1,1.73-1.82,3.67,3.67,0,0,1-1.34-1.44,3.86,3.86,0,0,1-.54-1.92,5,5,0,0,1,.66-2.54,5.59,5.59,0,0,1,1.71-1.87,8.77,8.77,0,0,1,2.26-1.1,7.74,7.74,0,0,1,2.44-.4,8.64,8.64,0,0,1,1.94.23,8.25,8.25,0,0,1,1.91.73,7.18,7.18,0,0,1,1.64,1.17,5.07,5.07,0,0,1,1.61,3.72,4,4,0,0,1-.56,2,3.79,3.79,0,0,1-1.36,1.46,6.92,6.92,0,0,1,1.74,1.87,4.58,4.58,0,0,1,.72,2.55,5.9,5.9,0,0,1-1,3.39,6.68,6.68,0,0,1-2.77,2.28A9.13,9.13,0,0,1,344.05,200.16Zm1.54-8.18a2.58,2.58,0,0,0-3.09,0,1.8,1.8,0,0,0-.59,1.4,1.76,1.76,0,0,0,.62,1.38,2.19,2.19,0,0,0,1.52.55,2.12,2.12,0,0,0,1.53-.56,1.8,1.8,0,0,0,.6-1.37A1.78,1.78,0,0,0,345.59,192ZM343,187.13a1.66,1.66,0,0,0,1.1.39,1.73,1.73,0,0,0,1.11-.39,1.36,1.36,0,0,0,.47-1.1,1.18,1.18,0,0,0-.44-.95,1.68,1.68,0,0,0-1.14-.39,1.62,1.62,0,0,0-1.13.39,1.18,1.18,0,0,0-.44.95A1.33,1.33,0,0,0,343,187.13Z"/><path class="cls-2" d="M355.46,199.89v-5.16h4.4v5.16Z"/><path class="cls-2" d="M370.6,199.86v-3.81h-7.33v-4.76l9-11.31H376v11.31h2.5v4.76H376v3.81Zm-2-8.57h2.63v-3.35Z"/><path class="cls-2" d="M383.26,187.29a4.09,4.09,0,0,1,0-6.28,5.67,5.67,0,0,1,7.2,0,4.07,4.07,0,0,1,0,6.28,5.67,5.67,0,0,1-7.2,0Zm.93,10.78,8.06-8.93,7.15-9.44,2.36,2.1L394,190.46l-7.49,9.7Zm3.63-12.58a2.44,2.44,0,0,0,0-2.68,1.1,1.1,0,0,0-1.92,0,2.44,2.44,0,0,0,0,2.68,1.1,1.1,0,0,0,1.92,0Zm7.67,13.39a4.06,4.06,0,0,1,0-6.27,5.67,5.67,0,0,1,7.2,0,4.08,4.08,0,0,1,0,6.27,5.7,5.7,0,0,1-7.2,0Zm4.56-1.79a2.39,2.39,0,0,0,0-2.68,1.15,1.15,0,0,0-1-.56,1.18,1.18,0,0,0-1,.56,2.39,2.39,0,0,0,0,2.68,1.21,1.21,0,0,0,1,.56A1.18,1.18,0,0,0,400.05,197.09Z"/><path class="cls-1" d="M403.75,259.38v4.76H390.56v-4.76h4.05V249.24a6.53,6.53,0,0,1-2.07,1.56,5.72,5.72,0,0,1-2.64.86v-4.88a3.49,3.49,0,0,0,1.26-.27,7.19,7.19,0,0,0,1.27-.64c.38-.24.74-.5,1.08-.76l.78-.66a2.51,2.51,0,0,0,.32-.33h5.52v15.26Z"/><path class="cls-1" d="M406.69,264.14c0-1,0-1.86.07-2.52a11.65,11.65,0,0,1,.29-1.94,5.41,5.41,0,0,1,.65-1.65,7.13,7.13,0,0,1,1.12-1.33,10.33,10.33,0,0,1,1.74-1.27l1.18-.67,1.27-.7q.51-.28,1.14-.72a5.74,5.74,0,0,0,1-.84,3.49,3.49,0,0,0,.64-.93,2.46,2.46,0,0,0,.27-1.12,1.56,1.56,0,0,0-.53-1.29,2.08,2.08,0,0,0-1.34-.41,4.71,4.71,0,0,0-2.17.58,8.75,8.75,0,0,0-2,1.42l-3.32-3.55a9.27,9.27,0,0,1,3.43-2.26A12.82,12.82,0,0,1,415,244a8.08,8.08,0,0,1,5.35,1.61,5.47,5.47,0,0,1,1.92,4.43,6.16,6.16,0,0,1-1,3.55,9.79,9.79,0,0,1-3,2.73c-2.31,1.43-3.86,2.44-4.67,3h8.72v4.76Z"/><path class="cls-1" d="M426.34,264.14V259h4.4v5.15Z"/><path class="cls-1" d="M441.73,249.07H434v-4.84h16.24l-9.9,19.88h-6.12Z"/><path class="cls-1" d="M453.71,251.54a4.08,4.08,0,0,1,0-6.27,5.63,5.63,0,0,1,7.2,0,4.08,4.08,0,0,1,0,6.27,5.67,5.67,0,0,1-7.2,0Zm.92,10.78,8.06-8.93,7.15-9.44,2.37,2.1-7.72,8.66-7.49,9.7Zm3.64-12.58a2.44,2.44,0,0,0,0-2.68,1.18,1.18,0,0,0-1-.56,1.15,1.15,0,0,0-1,.56,2.39,2.39,0,0,0,0,2.68,1.13,1.13,0,0,0,1,.56A1.15,1.15,0,0,0,458.27,249.74Zm7.66,13.39a4.08,4.08,0,0,1,0-6.27,5.31,5.31,0,0,1,3.61-1.29,5.22,5.22,0,0,1,3.59,1.29,4.08,4.08,0,0,1,0,6.27,5.26,5.26,0,0,1-3.59,1.28A5.35,5.35,0,0,1,465.93,263.13Zm4.57-1.79a2.44,2.44,0,0,0,0-2.68,1.15,1.15,0,0,0-1-.56,1.17,1.17,0,0,0-1,.56,2.39,2.39,0,0,0,0,2.68,1.19,1.19,0,0,0,1,.56A1.18,1.18,0,0,0,470.5,261.34Z"/><path class="cls-2" d="M622.34,254.13h-7.72v-4.84h16.24L621,269.17h-6.13Z"/><path class="cls-2" d="M632,269.2V264h4.4v5.16Z"/><path class="cls-2" d="M653.38,257.82a6,6,0,0,1,2,4.65,6.53,6.53,0,0,1-2.17,5,7.62,7.62,0,0,1-5.4,2,6.68,6.68,0,0,1-5.62-2.57q-2-2.56-2-7.22,0-4.9,2.17-7.71a7.12,7.12,0,0,1,6-2.81,8.84,8.84,0,0,1,6.43,2.68l-3,3.41a4.9,4.9,0,0,0-3.53-1.5,2.94,2.94,0,0,0-2.2.83,3.49,3.49,0,0,0-.88,2.33,4.54,4.54,0,0,1,3.08-1A7.2,7.2,0,0,1,653.38,257.82Zm-7.23,6.44a2.24,2.24,0,0,0,3.38,0,2.49,2.49,0,0,0,.73-1.79,2.22,2.22,0,0,0-.71-1.67,2.49,2.49,0,0,0-3.42,0,2.26,2.26,0,0,0-.71,1.67A2.49,2.49,0,0,0,646.15,264.26Z"/><path class="cls-2" d="M660.17,256.6a4.08,4.08,0,0,1,0-6.27,5.2,5.2,0,0,1,3.59-1.3,5.27,5.27,0,0,1,3.61,1.3,4.08,4.08,0,0,1,0,6.27,5.31,5.31,0,0,1-3.61,1.29A5.24,5.24,0,0,1,660.17,256.6Zm.92,10.78,8.06-8.93L676.3,249l2.37,2.1L671,259.77l-7.49,9.7Zm3.63-12.58a2.39,2.39,0,0,0,0-2.68,1.15,1.15,0,0,0-1-.56,1.18,1.18,0,0,0-1,.56,2.44,2.44,0,0,0,0,2.68,1.15,1.15,0,0,0,1,.56A1.13,1.13,0,0,0,664.72,254.8Zm7.67,13.39a4.08,4.08,0,0,1,0-6.27,5.31,5.31,0,0,1,3.61-1.29,5.24,5.24,0,0,1,3.59,1.29,4.08,4.08,0,0,1,0,6.27,5.28,5.28,0,0,1-3.59,1.28A5.35,5.35,0,0,1,672.39,268.19ZM677,266.4a2.44,2.44,0,0,0,0-2.68,1.11,1.11,0,0,0-1.93,0,2.39,2.39,0,0,0,0,2.68,1.11,1.11,0,0,0,1.93,0Z"/><path class="cls-1" d="M693.7,296.87v-3.82h-7.34V288.3l9-11.31h3.71V288.3h2.51v4.75h-2.51v3.82Zm-2-8.57h2.63V285Z"/><path class="cls-1" d="M705.36,296.9v-5.16h4.4v5.16Z"/><path class="cls-1" d="M715.52,288.51a6.09,6.09,0,0,1-2-4.66,6.51,6.51,0,0,1,2.17-5,7.63,7.63,0,0,1,5.4-2,6.71,6.71,0,0,1,5.62,2.57c1.33,1.72,2,4.12,2,7.22q0,4.92-2.16,7.73a7.13,7.13,0,0,1-6,2.8,8.87,8.87,0,0,1-6.44-2.68l3-3.42a4.92,4.92,0,0,0,3.53,1.52,2.89,2.89,0,0,0,2.2-.84,3.49,3.49,0,0,0,.88-2.33,4.53,4.53,0,0,1-3.08,1A7.27,7.27,0,0,1,715.52,288.51Zm7.24-6.45a2.27,2.27,0,0,0-3.39,0,2.5,2.5,0,0,0-.73,1.79,2.23,2.23,0,0,0,.71,1.67,2.35,2.35,0,0,0,1.71.69,2.39,2.39,0,0,0,1.72-.69,2.2,2.2,0,0,0,.72-1.67A2.51,2.51,0,0,0,722.76,282.06Z"/><path class="cls-1" d="M733.48,284.3a4.09,4.09,0,0,1,0-6.28,5.67,5.67,0,0,1,7.2,0,4.07,4.07,0,0,1,0,6.28,5.67,5.67,0,0,1-7.2,0Zm.93,10.78,8.05-8.93,7.16-9.45,2.36,2.11-7.72,8.65-7.49,9.71ZM738,282.5a2.44,2.44,0,0,0,0-2.68,1.1,1.1,0,0,0-1.92,0,2.44,2.44,0,0,0,0,2.68,1.1,1.1,0,0,0,1.92,0Zm7.67,13.38a4,4,0,0,1,0-6.26,5.63,5.63,0,0,1,7.2,0,4.07,4.07,0,0,1,0,6.26,5.67,5.67,0,0,1-7.2,0Zm4.56-1.79a2.39,2.39,0,0,0,0-2.68,1.18,1.18,0,0,0-1-.56,1.21,1.21,0,0,0-1,.56,2.39,2.39,0,0,0,0,2.68,1.18,1.18,0,0,0,1,.56A1.15,1.15,0,0,0,750.27,294.09Z"/><path class="cls-2" d="M904.54,236.44v4.76H891.35v-4.76h4V226.3a6.42,6.42,0,0,1-2.07,1.56,5.72,5.72,0,0,1-2.63.86v-4.88a3.49,3.49,0,0,0,1.26-.27,6.76,6.76,0,0,0,1.26-.64,11.43,11.43,0,0,0,1.08-.76c.34-.27.6-.49.79-.67a1.83,1.83,0,0,0,.31-.32h5.53v15.26Z"/><path class="cls-2" d="M914.5,241.17v-3.81h-7.34V232.6l9-11.31h3.72V232.6h2.5v4.76h-2.5v3.81Zm-2-8.57h2.63v-3.35Z"/><path class="cls-2" d="M926.16,241.2V236h4.4v5.16Z"/><path class="cls-2" d="M947.52,229.82a6,6,0,0,1,2,4.65,6.53,6.53,0,0,1-2.17,5,7.59,7.59,0,0,1-5.4,2,6.68,6.68,0,0,1-5.62-2.57c-1.32-1.71-2-4.12-2-7.22a12.35,12.35,0,0,1,2.17-7.71,7.13,7.13,0,0,1,6-2.81,8.88,8.88,0,0,1,6.43,2.68l-3,3.41a4.9,4.9,0,0,0-3.53-1.5,2.94,2.94,0,0,0-2.2.83,3.49,3.49,0,0,0-.88,2.33,4.54,4.54,0,0,1,3.08-1A7.2,7.2,0,0,1,947.52,229.82Zm-7.23,6.44a2.24,2.24,0,0,0,3.38,0,2.5,2.5,0,0,0,.74-1.79,2.26,2.26,0,0,0-.71-1.67,2.5,2.5,0,0,0-3.43,0,2.26,2.26,0,0,0-.71,1.67A2.53,2.53,0,0,0,940.29,236.26Z"/><path class="cls-2" d="M954.31,228.6a4.08,4.08,0,0,1,0-6.27,5.63,5.63,0,0,1,7.2,0,4.08,4.08,0,0,1,0,6.27,5.67,5.67,0,0,1-7.2,0Zm.92,10.78,8.06-8.93,7.15-9.44,2.37,2.1-7.72,8.66-7.49,9.7Zm3.64-12.58a2.44,2.44,0,0,0,0-2.68,1.18,1.18,0,0,0-1-.56,1.15,1.15,0,0,0-1,.56,2.39,2.39,0,0,0,0,2.68,1.13,1.13,0,0,0,1,.56A1.15,1.15,0,0,0,958.87,226.8Zm7.66,13.39a4.08,4.08,0,0,1,0-6.27,5.31,5.31,0,0,1,3.61-1.29,5.24,5.24,0,0,1,3.59,1.29,4.08,4.08,0,0,1,0,6.27,5.28,5.28,0,0,1-3.59,1.28A5.35,5.35,0,0,1,966.53,240.19Zm4.57-1.79a2.44,2.44,0,0,0,0-2.68,1.15,1.15,0,0,0-1-.56,1.17,1.17,0,0,0-1,.56,2.39,2.39,0,0,0,0,2.68,1.19,1.19,0,0,0,1,.56A1.18,1.18,0,0,0,971.1,238.4Z"/><path class="cls-1" d="M978.34,294.87v-3.82H971V286.3L980,275h3.71V286.3h2.51v4.75h-2.51v3.82Zm-2-8.57H979V283Z"/><path class="cls-1" d="M990,294.9v-5.16h4.4v5.16Z"/><path class="cls-1" d="M1000.17,286.51a6.07,6.07,0,0,1-2-4.66,6.53,6.53,0,0,1,2.17-5,7.63,7.63,0,0,1,5.4-2,6.71,6.71,0,0,1,5.63,2.57,11.61,11.61,0,0,1,2,7.22,12.39,12.39,0,0,1-2.17,7.73,7.14,7.14,0,0,1-6,2.8,8.89,8.89,0,0,1-6.45-2.68l3-3.42a4.92,4.92,0,0,0,3.54,1.52,2.91,2.91,0,0,0,2.2-.84,3.43,3.43,0,0,0,.87-2.33,4.55,4.55,0,0,1-3.07.95A7.24,7.24,0,0,1,1000.17,286.51Zm7.23-6.45a2.27,2.27,0,0,0-3.39,0,2.54,2.54,0,0,0-.73,1.79,2.24,2.24,0,0,0,.71,1.67,2.5,2.5,0,0,0,3.43,0,2.22,2.22,0,0,0,.72-1.67A2.51,2.51,0,0,0,1007.4,280.06Z"/><path class="cls-1" d="M1018.13,282.3a4.09,4.09,0,0,1,0-6.28,5.24,5.24,0,0,1,3.59-1.29,5.31,5.31,0,0,1,3.61,1.29,4.09,4.09,0,0,1,0,6.28,5.31,5.31,0,0,1-3.61,1.29A5.24,5.24,0,0,1,1018.13,282.3Zm.92,10.78,8.06-8.93,7.15-9.45,2.37,2.11-7.72,8.65-7.49,9.71Zm3.63-12.58a2.39,2.39,0,0,0,0-2.68,1.15,1.15,0,0,0-1-.56,1.18,1.18,0,0,0-1,.56,2.44,2.44,0,0,0,0,2.68,1.18,1.18,0,0,0,1,.56A1.15,1.15,0,0,0,1022.68,280.5Zm7.67,13.38a4.07,4.07,0,0,1,0-6.26,5.63,5.63,0,0,1,7.2,0,4.07,4.07,0,0,1,0,6.26,5.67,5.67,0,0,1-7.2,0Zm4.57-1.79a2.44,2.44,0,0,0,0-2.68,1.11,1.11,0,0,0-1.93,0,2.39,2.39,0,0,0,0,2.68,1.11,1.11,0,0,0,1.93,0Z"/><path class="cls-1" d="M135.94,5.13h-7.73V.29h16.24l-9.89,19.88h-6.12Z"/><path class="cls-1" d="M152.94,20.33A10.42,10.42,0,0,1,146,18.09l2.77-3.86a6.17,6.17,0,0,0,3.87,1.23,4,4,0,0,0,2.12-.43,1.55,1.55,0,0,0,.68-1.39,1.6,1.6,0,0,0-.87-1.52,6.15,6.15,0,0,0-2.78-.47h-.89V8h1a4,4,0,0,0,2.19-.53,1.58,1.58,0,0,0,.83-1.4A1.26,1.26,0,0,0,154.45,5a2.21,2.21,0,0,0-1.37-.38,4,4,0,0,0-3.39,2l-3.43-3.95A7.09,7.09,0,0,1,149.33.79,13.76,13.76,0,0,1,153.71.1a8.77,8.77,0,0,1,5.11,1.35A4.18,4.18,0,0,1,160.75,5a4.56,4.56,0,0,1-1.05,3,4.32,4.32,0,0,1-2.64,1.6,4.56,4.56,0,0,1,2.88,1.71,5.19,5.19,0,0,1,1.12,3.33,4.86,4.86,0,0,1-2.18,4.18A10.17,10.17,0,0,1,152.94,20.33Z"/><path class="cls-1" d="M164.9,20.19V15h4.39v5.15Z"/><path class="cls-1" d="M175.06,11.81a6.09,6.09,0,0,1-2-4.66,6.53,6.53,0,0,1,2.17-5,7.66,7.66,0,0,1,5.4-2,6.71,6.71,0,0,1,5.62,2.57q2,2.57,2,7.22c0,3.28-.72,5.86-2.16,7.72a7.15,7.15,0,0,1-6,2.81,8.89,8.89,0,0,1-6.44-2.68l3-3.42a4.92,4.92,0,0,0,3.53,1.52,2.91,2.91,0,0,0,2.2-.84,3.49,3.49,0,0,0,.88-2.34,4.53,4.53,0,0,1-3.08,1A7.24,7.24,0,0,1,175.06,11.81Zm7.24-6.45a2.32,2.32,0,0,0-1.7-.77,2.27,2.27,0,0,0-1.69.77,2.5,2.5,0,0,0-.73,1.79,2.21,2.21,0,0,0,.71,1.67,2.39,2.39,0,0,0,1.71.68,2.43,2.43,0,0,0,1.72-.68A2.24,2.24,0,0,0,183,7.15,2.5,2.5,0,0,0,182.3,5.36Z"/><path class="cls-1" d="M193,7.59a4,4,0,0,1-1.47-3.13A4,4,0,0,1,193,1.32a5.67,5.67,0,0,1,7.2,0,4.06,4.06,0,0,1,0,6.27,5.63,5.63,0,0,1-7.2,0ZM194,18.38,202,9.45,209.16,0l2.36,2.11-7.72,8.65-7.49,9.71ZM197.58,5.8a2.24,2.24,0,0,0,.4-1.34,2.22,2.22,0,0,0-.4-1.34,1.1,1.1,0,0,0-1.92,0,2.22,2.22,0,0,0-.41,1.34,2.24,2.24,0,0,0,.41,1.34,1.1,1.1,0,0,0,1.92,0Zm7.66,13.38a4.08,4.08,0,0,1,0-6.27,5.68,5.68,0,0,1,7.21,0,4.1,4.1,0,0,1,0,6.27,5.68,5.68,0,0,1-7.21,0Zm4.57-1.79a2.44,2.44,0,0,0,0-2.68,1.18,1.18,0,0,0-1-.56,1.21,1.21,0,0,0-1,.56,2.39,2.39,0,0,0,0,2.68,1.21,1.21,0,0,0,1,.56A1.18,1.18,0,0,0,209.81,17.39Z"/><polygon class="cls-1" points="172.01 58.19 107.48 363.88 236.55 363.88 172.01 58.19"/><polygon class="cls-2" points="99.91 168.12 35.38 363.88 164.44 363.88 99.91 168.12"/><polygon class="cls-1" points="433.12 302.92 368.59 363.88 497.65 363.88 433.12 302.92"/><polygon class="cls-2" points="361.02 238.52 296.49 363.88 425.55 363.88 361.02 238.52"/><polygon class="cls-1" points="720.9 333.4 656.36 363.88 785.43 363.88 720.9 333.4"/><polygon class="cls-2" points="648.79 313.07 584.26 363.88 713.33 363.88 648.79 313.07"/><polygon class="cls-1" points="1006.13 333.4 941.6 363.88 1070.66 363.88 1006.13 333.4"/><polygon class="cls-2" points="934.03 279.91 869.5 363.88 998.56 363.88 934.03 279.91"/><path class="cls-1" d="M1080.3,365.52H1.59a1.59,1.59,0,0,1,0-3.18H1080.3a1.59,1.59,0,1,1,0,3.18Z"/></g></g></svg>