<svg xmlns="http://www.w3.org/2000/svg" viewBox="0 0 1072.16 464.48"><defs><style>.cls-1{fill:#00324a;}.cls-2{fill:#ff574a;}.cls-3{fill:#fff;}</style></defs><title>16</title><g id="Capa_2" data-name="Capa 2"><g id="Layer_1" data-name="Layer 1"><path class="cls-1" d="M995.35,61.38a9.43,9.43,0,0,1-4-.82,6.33,6.33,0,0,1-2.75-2.3l2.95-3.37a6,6,0,0,0,1.84,1.35,4.51,4.51,0,0,0,2,.49,2.3,2.3,0,0,0,1.65-.57,1.94,1.94,0,0,0,.6-1.5,2,2,0,0,0-.55-1.49,1.89,1.89,0,0,0-1.42-.56,2.29,2.29,0,0,0-1.09.27,1.92,1.92,0,0,0-.77.72h-4.63l2.36-12.38,10.14,0v4.84h-6.24l-.3,2.16a4.35,4.35,0,0,1,1.3-.14,6.72,6.72,0,0,1,4.85,1.8,6.13,6.13,0,0,1,1.89,4.65,6.2,6.2,0,0,1-2.16,4.93A8.31,8.31,0,0,1,995.35,61.38Z"/><path class="cls-1" d="M1014.19,46l-7.72,0,0-4.84,16.24,0-9.84,19.9-6.12,0Z"/><path class="cls-1" d="M1023.9,61.05V55.9h4.4V61Z"/><path class="cls-1" d="M1038.73,61.26a9.43,9.43,0,0,1-4-.82,6.38,6.38,0,0,1-2.75-2.29l3-3.38a5.83,5.83,0,0,0,1.83,1.35,4.51,4.51,0,0,0,2,.49,2.3,2.3,0,0,0,1.65-.57,1.94,1.94,0,0,0,.6-1.5,2,2,0,0,0-.54-1.48,1.9,1.9,0,0,0-1.43-.57,2.29,2.29,0,0,0-1.09.27,1.92,1.92,0,0,0-.77.72l-4.63,0,2.36-12.38,10.14,0,0,4.84h-6.25l-.3,2.17a4.07,4.07,0,0,1,1.31-.14,6.66,6.66,0,0,1,4.84,1.79,6.13,6.13,0,0,1,1.89,4.65,6.2,6.2,0,0,1-2.16,4.93A8.31,8.31,0,0,1,1038.73,61.26Z"/><path class="cls-1" d="M1051.24,48.38a4.09,4.09,0,0,1,0-6.28,5.32,5.32,0,0,1,3.6-1.3,5.26,5.26,0,0,1,3.6,1.28,4.07,4.07,0,0,1,0,6.28,5.27,5.27,0,0,1-3.6,1.3A5.21,5.21,0,0,1,1051.24,48.38Zm1,10.78,8-8.95,7.13-9.47,2.37,2.1-7.7,8.67-7.46,9.73Zm3.59-12.59a2.24,2.24,0,0,0,.4-1.34,2.28,2.28,0,0,0-.4-1.34,1.19,1.19,0,0,0-1-.56,1.15,1.15,0,0,0-1,.56,2.39,2.39,0,0,0,0,2.68,1.1,1.1,0,0,0,1.92,0Zm7.71,13.36a4,4,0,0,1-1.49-3.12,4.07,4.07,0,0,1,1.47-3.15,5.67,5.67,0,0,1,7.2,0,4.08,4.08,0,0,1,0,6.27,5.67,5.67,0,0,1-7.2,0Zm4.56-1.8a2.31,2.31,0,0,0,.4-1.34,2.22,2.22,0,0,0-.41-1.34,1.18,1.18,0,0,0-1-.56,1.19,1.19,0,0,0-1,.56,2.26,2.26,0,0,0-.41,1.34,2.23,2.23,0,0,0,.42,1.34,1.11,1.11,0,0,0,1.93,0Z"/><path class="cls-1" d="M953.55,151.2a9.46,9.46,0,0,1-4-.82,6.44,6.44,0,0,1-2.75-2.29l3-3.37a6.08,6.08,0,0,0,1.83,1.34,4.59,4.59,0,0,0,2,.49,2.33,2.33,0,0,0,1.64-.56,2,2,0,0,0,.61-1.51,2.11,2.11,0,0,0-.55-1.48,1.83,1.83,0,0,0-1.42-.56,2.26,2.26,0,0,0-1.09.27,1.77,1.77,0,0,0-.77.71l-4.64,0,2.36-12.38,10.15,0v4.84l-6.25,0-.3,2.16a4.42,4.42,0,0,1,1.31-.14,6.7,6.7,0,0,1,4.85,1.79,6.68,6.68,0,0,1-.28,9.58A8.26,8.26,0,0,1,953.55,151.2Z"/><path class="cls-1" d="M971.13,151a10.38,10.38,0,0,1-6.94-2.22L967,145a6.23,6.23,0,0,0,3.87,1.22,4,4,0,0,0,2.12-.45,1.52,1.52,0,0,0,.68-1.38,1.63,1.63,0,0,0-.87-1.52,6.09,6.09,0,0,0-2.79-.47h-.89v-3.7h1a4,4,0,0,0,2.18-.53,1.58,1.58,0,0,0,.83-1.4,1.24,1.24,0,0,0-.49-1.06,2.15,2.15,0,0,0-1.37-.37,4,4,0,0,0-3.39,2l-3.43-3.94a7.12,7.12,0,0,1,3.06-1.83,13.76,13.76,0,0,1,4.38-.7,8.7,8.7,0,0,1,5.11,1.34,4.14,4.14,0,0,1,1.94,3.56,4.55,4.55,0,0,1-1,3,4.36,4.36,0,0,1-2.63,1.61A4.53,4.53,0,0,1,978.1,142a5.2,5.2,0,0,1,1.13,3.33,4.88,4.88,0,0,1-2.17,4.19A10.15,10.15,0,0,1,971.13,151Z"/><path class="cls-1" d="M983.08,150.87v-5.15h4.4v5.15Z"/><path class="cls-1" d="M998.44,135.76l-7.73,0V131l16.24,0-9.84,19.91H991Z"/><path class="cls-1" d="M1010.42,138.2a4.09,4.09,0,0,1,0-6.28,5.65,5.65,0,0,1,7.2,0,4.06,4.06,0,0,1,0,6.27,5.27,5.27,0,0,1-3.6,1.3A5.21,5.21,0,0,1,1010.42,138.2Zm1,10.78,8-8.95,7.12-9.47,2.37,2.1-7.69,8.67-7.46,9.73Zm3.6-12.59a2.42,2.42,0,0,0,0-2.68,1.1,1.1,0,0,0-1.92,0,2.34,2.34,0,0,0-.4,1.35,2.19,2.19,0,0,0,.41,1.33,1.15,1.15,0,0,0,1,.56A1.18,1.18,0,0,0,1015,136.39Zm7.7,13.36a4.06,4.06,0,0,1,0-6.26,5.63,5.63,0,0,1,7.2,0,4.07,4.07,0,0,1,0,6.26,5.68,5.68,0,0,1-7.21,0Zm4.56-1.8a2.15,2.15,0,0,0,.4-1.34,2.22,2.22,0,0,0-.4-1.34,1.11,1.11,0,0,0-1.93,0,2.22,2.22,0,0,0-.41,1.34,2.18,2.18,0,0,0,.42,1.34,1.18,1.18,0,0,0,1,.55A1.13,1.13,0,0,0,1027.23,148Z"/><path class="cls-1" d="M923.66,245.33a9.46,9.46,0,0,1-4-.82,6.37,6.37,0,0,1-2.75-2.29l3-3.37a6.08,6.08,0,0,0,1.83,1.34,4.59,4.59,0,0,0,2,.49,2.33,2.33,0,0,0,1.64-.56,1.91,1.91,0,0,0,.6-1.51,2.06,2.06,0,0,0-.54-1.48,1.85,1.85,0,0,0-1.42-.56,2.37,2.37,0,0,0-1.09.26,1.81,1.81,0,0,0-.77.73h-4.64l2.36-12.38,10.14,0,0,4.84-6.25,0-.3,2.16a4.38,4.38,0,0,1,1.31-.14,6.66,6.66,0,0,1,4.84,1.79,6.18,6.18,0,0,1,1.9,4.66,6.27,6.27,0,0,1-2.17,4.93A8.31,8.31,0,0,1,923.66,245.33Z"/><path class="cls-1" d="M948.82,240.26l0,4.75-13.2,0v-4.76h4l0-10.14a6.46,6.46,0,0,1-2.06,1.57,5.72,5.72,0,0,1-2.63.86l0-4.88a3.49,3.49,0,0,0,1.26-.27,7.19,7.19,0,0,0,1.27-.64,12.75,12.75,0,0,0,1.07-.77c.34-.26.6-.49.79-.66a2.12,2.12,0,0,0,.31-.33h5.52l0,15.26Z"/><path class="cls-1" d="M952.16,245v-5.16h4.4V245Z"/><path class="cls-1" d="M960.24,235.18a10.68,10.68,0,0,1,1.58-5.61,10.5,10.5,0,0,1,1.88-2.3,8.09,8.09,0,0,1,2.55-1.59,8.23,8.23,0,0,1,3.13-.6,8.5,8.5,0,0,1,3.27.62,8.17,8.17,0,0,1,2.59,1.66,11.44,11.44,0,0,1,1.84,2.35,11.17,11.17,0,0,1,1.14,2.71,10.7,10.7,0,0,1-3.1,10.64,8.07,8.07,0,0,1-2.55,1.58,8.45,8.45,0,0,1-3.13.59,8.6,8.6,0,0,1-3.27-.6,7.87,7.87,0,0,1-2.58-1.64,10.7,10.7,0,0,1-1.83-2.33,10.29,10.29,0,0,1-1.14-2.71A10.68,10.68,0,0,1,960.24,235.18Zm9.18,5.21a2.85,2.85,0,0,0,1.65-.5,3.23,3.23,0,0,0,1.1-1.3,7.59,7.59,0,0,0,.58-1.68,7.47,7.47,0,0,0,.19-1.76,8.14,8.14,0,0,0-.21-1.85,6.93,6.93,0,0,0-.62-1.67,3.36,3.36,0,0,0-1.12-1.24,2.76,2.76,0,0,0-1.6-.47,2.79,2.79,0,0,0-1.64.5,3.36,3.36,0,0,0-1.11,1.31,8.05,8.05,0,0,0-.58,1.67,8.8,8.8,0,0,0-.19,1.77,9.45,9.45,0,0,0,.21,1.85,7,7,0,0,0,.61,1.66,3.19,3.19,0,0,0,1.12,1.24A2.79,2.79,0,0,0,969.42,240.39Z"/><path class="cls-1" d="M983.27,232.32a4.08,4.08,0,0,1,0-6.27,5.67,5.67,0,0,1,7.2,0,4.06,4.06,0,0,1,0,6.27,5.67,5.67,0,0,1-7.2,0Zm1,10.78,8-8.95,7.12-9.47,2.38,2.1-7.7,8.68-7.46,9.73Zm3.59-12.59a2.22,2.22,0,0,0,.4-1.34,2.31,2.31,0,0,0-.4-1.34,1.21,1.21,0,0,0-1-.56,1.16,1.16,0,0,0-1,.57,2.15,2.15,0,0,0-.4,1.34,2.22,2.22,0,0,0,.4,1.34,1.18,1.18,0,0,0,1,.56A1.15,1.15,0,0,0,987.82,230.51Zm7.71,13.37a4.06,4.06,0,0,1,0-6.27,5.67,5.67,0,0,1,7.2,0,4.08,4.08,0,0,1,0,6.27,5.7,5.7,0,0,1-7.2,0Zm4.56-1.81a2.28,2.28,0,0,0,.4-1.34,2.24,2.24,0,0,0-.41-1.34,1.18,1.18,0,0,0-1-.56,1.21,1.21,0,0,0-1,.57,2.37,2.37,0,0,0,0,2.68,1.11,1.11,0,0,0,1.93,0Z"/><path class="cls-1" d="M840,335.81V332h-7.33v-4.75l9-11.33h3.71l0,11.3h2.51V332h-2.5v3.81Zm-2-8.57h2.63v-3.35Z"/><path class="cls-1" d="M857.69,335.92a10.34,10.34,0,0,1-6.93-2.22l2.76-3.86a6.15,6.15,0,0,0,3.87,1.22,4,4,0,0,0,2.12-.44,1.55,1.55,0,0,0,.67-1.39,1.6,1.6,0,0,0-.87-1.52,6,6,0,0,0-2.78-.46h-.89v-3.69h1a4,4,0,0,0,2.19-.53,1.57,1.57,0,0,0,.82-1.4,1.24,1.24,0,0,0-.49-1.06,2.18,2.18,0,0,0-1.36-.37,4,4,0,0,0-3.39,2L851,318.22A7.08,7.08,0,0,1,854,316.4a13.39,13.39,0,0,1,4.37-.71,8.68,8.68,0,0,1,5.11,1.34,4.16,4.16,0,0,1,2,3.56,4.66,4.66,0,0,1-1,3,4.38,4.38,0,0,1-2.64,1.61,4.57,4.57,0,0,1,2.88,1.69,5.14,5.14,0,0,1,1.13,3.33,4.86,4.86,0,0,1-2.17,4.19A10.13,10.13,0,0,1,857.69,335.92Z"/><path class="cls-1" d="M869.65,335.76l0-5.16H874v5.15Z"/><path class="cls-1" d="M877.72,325.93a10.59,10.59,0,0,1,.4-2.88,10.89,10.89,0,0,1,1.19-2.74,10.64,10.64,0,0,1,1.87-2.29,8,8,0,0,1,2.56-1.59,8.19,8.19,0,0,1,3.13-.6,8.45,8.45,0,0,1,3.26.62,8.06,8.06,0,0,1,2.59,1.66,10.8,10.8,0,0,1,1.84,2.35,11.17,11.17,0,0,1,1.14,2.71,10.35,10.35,0,0,1,.38,2.71,10.73,10.73,0,0,1-.4,2.9,10.26,10.26,0,0,1-1.19,2.74,10.5,10.5,0,0,1-1.88,2.29,8.23,8.23,0,0,1-2.56,1.58,8.38,8.38,0,0,1-3.13.59,8.6,8.6,0,0,1-3.27-.6,8.08,8.08,0,0,1-2.58-1.64,10.7,10.7,0,0,1-1.83-2.33,11,11,0,0,1-1.14-2.71A11.19,11.19,0,0,1,877.72,325.93Zm9.19,5.21a2.85,2.85,0,0,0,1.65-.5,3.47,3.47,0,0,0,1.1-1.3,7.77,7.77,0,0,0,.58-1.68,8,8,0,0,0,.19-1.76,8.14,8.14,0,0,0-.22-1.85,6.54,6.54,0,0,0-.62-1.67,3.27,3.27,0,0,0-1.12-1.24,2.75,2.75,0,0,0-1.59-.47,2.85,2.85,0,0,0-1.65.5,3.34,3.34,0,0,0-1.1,1.31,7.51,7.51,0,0,0-.58,1.67,8.3,8.3,0,0,0,0,3.62,7,7,0,0,0,.6,1.66,3.36,3.36,0,0,0,1.12,1.24A2.82,2.82,0,0,0,886.91,331.14Z"/><path class="cls-1" d="M900.75,323.07a4.09,4.09,0,0,1,0-6.27,5.18,5.18,0,0,1,3.59-1.3,5.25,5.25,0,0,1,3.61,1.28,4.08,4.08,0,0,1,0,6.27,5.68,5.68,0,0,1-7.21,0Zm1,10.78,8-9,7.13-9.47,2.37,2.1-7.7,8.68-7.46,9.72Zm3.6-12.59a2.22,2.22,0,0,0,.4-1.34,2.24,2.24,0,0,0-.41-1.34,1.18,1.18,0,0,0-1-.56,1.19,1.19,0,0,0-1,.57,2.22,2.22,0,0,0-.4,1.34,2.24,2.24,0,0,0,.41,1.34,1.18,1.18,0,0,0,1,.56A1.19,1.19,0,0,0,905.31,321.26Zm7.7,13.37a4.08,4.08,0,0,1,0-6.27,5.68,5.68,0,0,1,7.21,0,4.09,4.09,0,0,1,0,6.27,5.22,5.22,0,0,1-3.59,1.29A5.29,5.29,0,0,1,913,334.63Zm4.56-1.81a2.22,2.22,0,0,0,.4-1.34,2.24,2.24,0,0,0-.41-1.34,1.18,1.18,0,0,0-1-.56,1.17,1.17,0,0,0-1,.57,2.16,2.16,0,0,0-.41,1.34,2.24,2.24,0,0,0,.41,1.34,1.21,1.21,0,0,0,1,.56A1.19,1.19,0,0,0,917.57,332.82Z"/><path class="cls-1" d="M820.33,423.83v-3.37l-6.47,0,0-4.21,7.95-10h3.28l0,10h2.21v4.2H825.1v3.37Zm-1.79-7.57h2.32V413.3Z"/><path class="cls-1" d="M842.65,419.59v4.2l-11.65,0v-4.2h3.58l0-9a5.73,5.73,0,0,1-1.82,1.39,5.11,5.11,0,0,1-2.33.76v-4.31a3,3,0,0,0,1.11-.24,6.16,6.16,0,0,0,1.12-.56c.34-.22.66-.45,1-.68s.53-.43.69-.59a3.18,3.18,0,0,0,.28-.28l4.88,0,0,13.48Z"/><path class="cls-1" d="M845.6,423.78l0-4.55h3.89v4.55Z"/><path class="cls-1" d="M852.78,423.76c0-.9,0-1.64.05-2.22a12.51,12.51,0,0,1,.25-1.72,4.84,4.84,0,0,1,.58-1.46,6.09,6.09,0,0,1,1-1.17,9.49,9.49,0,0,1,1.53-1.13l1-.59,1.13-.63c.29-.16.63-.38,1-.63a6.1,6.1,0,0,0,.89-.74,3.27,3.27,0,0,0,.56-.83,2.19,2.19,0,0,0,.24-1,1.39,1.39,0,0,0-.48-1.14,1.86,1.86,0,0,0-1.18-.36,4.07,4.07,0,0,0-1.91.52,7.54,7.54,0,0,0-1.78,1.26l-2.94-3.13a8,8,0,0,1,3-2,11.26,11.26,0,0,1,4.29-.8,7.14,7.14,0,0,1,4.73,1.4,4.85,4.85,0,0,1,1.7,3.91,5.45,5.45,0,0,1-.9,3.14,8.54,8.54,0,0,1-2.64,2.41c-2,1.27-3.41,2.17-4.12,2.68l7.71,0v4.2Z"/><path class="cls-1" d="M871,412.59a3.6,3.6,0,0,1,0-5.54,5,5,0,0,1,6.36,0,3.59,3.59,0,0,1,0,5.54,5,5,0,0,1-6.35,0Zm.84,9.51,7.09-7.9,6.29-8.36,2.1,1.85-6.8,7.67-6.59,8.58ZM875,411a2,2,0,0,0,.35-1.19,1.94,1.94,0,0,0-.36-1.18,1,1,0,0,0-.85-.49,1,1,0,0,0-.85.5,2,2,0,0,0-.35,1.18,1.94,1.94,0,0,0,.36,1.18,1,1,0,0,0,.85.5A1.07,1.07,0,0,0,875,411Zm6.8,11.8a3.6,3.6,0,0,1,0-5.54A4.72,4.72,0,0,1,885,416.1a4.63,4.63,0,0,1,3.18,1.14,3.61,3.61,0,0,1,0,5.53,5,5,0,0,1-6.36,0Zm4-1.59a2,2,0,0,0,.36-1.19,2,2,0,0,0-.36-1.18,1,1,0,0,0-1.7,0,1.87,1.87,0,0,0-.36,1.19,1.94,1.94,0,0,0,.36,1.18,1,1,0,0,0,.86.49A1,1,0,0,0,885.82,421.2Z"/><rect class="cls-2" x="340.55" y="23.9" width="617.27" height="53.59"/><rect class="cls-2" x="340.55" y="207.31" width="547.5" height="53.59"/><polygon class="cls-2" points="782.96 444.31 340.55 444.31 340.55 390.72 340.55 390.72 782.96 390.72 782.96 390.72 782.96 444.31"/><rect class="cls-2" x="340.55" y="115.6" width="576.48" height="53.59"/><polygon class="cls-2" points="802.07 352.61 340.55 352.61 340.55 299.01 340.55 299.01 802.07 299.01 802.07 352.61"/><path class="cls-1" d="M41.84,28.34a5.9,5.9,0,0,1,3,.76,4.71,4.71,0,0,1,2,2L44.9,32.44a3,3,0,0,0-.85-1.12A3.31,3.31,0,0,0,43,30.7a4.2,4.2,0,0,0-1.18-.16,3.45,3.45,0,0,0-1.62.37,3.33,3.33,0,0,0-1.17,1,5,5,0,0,0-.68,1.36,5,5,0,0,0,.23,3.64,3.92,3.92,0,0,0,1.34,1.59,3.26,3.26,0,0,0,1.94.61,3.77,3.77,0,0,0,1.2-.19,3.48,3.48,0,0,0,1.13-.64A2.9,2.9,0,0,0,45,37.16l2,1.17a4,4,0,0,1-1.24,1.6,6.1,6.1,0,0,1-1.91,1,6.89,6.89,0,0,1-2.1.34,5.85,5.85,0,0,1-2-.37,5.68,5.68,0,0,1-1.72-1,7.08,7.08,0,0,1-1.3-1.48,6.54,6.54,0,0,1-.85-1.79,6.74,6.74,0,0,1-.29-1.93A6.44,6.44,0,0,1,36,32.4a7,7,0,0,1,1.21-2,5.79,5.79,0,0,1,2-1.46A6.29,6.29,0,0,1,41.84,28.34Z"/><path class="cls-1" d="M54.49,33.84a4.58,4.58,0,0,0-2,.44,2.54,2.54,0,0,0-1.23,1.21v5.7h-2.4V31.76h2.21v2a4.3,4.3,0,0,1,1.28-1.53,2.9,2.9,0,0,1,1.64-.6h.48Z"/><path class="cls-1" d="M55.57,36.49a4.9,4.9,0,0,1,.35-1.87,4.78,4.78,0,0,1,1-1.56A4.42,4.42,0,0,1,58.46,32a5.18,5.18,0,0,1,2.06-.4,5.07,5.07,0,0,1,2.63.68,4.54,4.54,0,0,1,1.72,1.79,5.33,5.33,0,0,1,.24,4.29,4.93,4.93,0,0,1-1,1.55A4.29,4.29,0,0,1,62.59,41a5.38,5.38,0,0,1-2.07.4,5.44,5.44,0,0,1-1.69-.26,4.64,4.64,0,0,1-2.4-1.79A4.33,4.33,0,0,1,55.78,38,5.43,5.43,0,0,1,55.57,36.49Zm5,2.83a2.26,2.26,0,0,0,1.76-.81,3,3,0,0,0,.7-2,2.94,2.94,0,0,0-.7-2,2.28,2.28,0,0,0-1.76-.8,2.24,2.24,0,0,0-1.75.81,3.24,3.24,0,0,0,0,4.06A2.26,2.26,0,0,0,60.52,39.32Z"/><path class="cls-1" d="M71,41.37A6.66,6.66,0,0,1,68.67,41,5.19,5.19,0,0,1,66.8,39.8l.86-1.56a5.31,5.31,0,0,0,3.24,1.33A2.06,2.06,0,0,0,72,39.31a.82.82,0,0,0,.42-.75,1.23,1.23,0,0,0,0-.2.61.61,0,0,0-.09-.18L72.22,38a.46.46,0,0,0-.18-.12l-.22-.11-.28-.1-.31-.1-.36-.11-.4-.11c-.46-.15-.84-.28-1.13-.4a6.9,6.9,0,0,1-.87-.41,2.57,2.57,0,0,1-.65-.5,2,2,0,0,1-.36-.63,2.11,2.11,0,0,1-.14-.82,2.7,2.7,0,0,1,1-2.22,4.38,4.38,0,0,1,2.78-.82,5,5,0,0,1,3.54,1.33l-1,1.53A4.47,4.47,0,0,0,71,33.36a2.09,2.09,0,0,0-1,.23.79.79,0,0,0-.41.74.73.73,0,0,0,.37.69,5.69,5.69,0,0,0,1.34.5c.52.15.94.28,1.24.39a9.4,9.4,0,0,1,1,.41,3.15,3.15,0,0,1,.74.51,2.15,2.15,0,0,1,.4.66,2.29,2.29,0,0,1,.16.9,2.62,2.62,0,0,1-1,2.18A4.4,4.4,0,0,1,71,41.37Z"/><path class="cls-1" d="M80.33,41.37A6.62,6.62,0,0,1,78,41a5.1,5.1,0,0,1-1.87-1.16L77,38.24a5.27,5.27,0,0,0,3.24,1.33,2.08,2.08,0,0,0,1.13-.26.82.82,0,0,0,.42-.75,1.23,1.23,0,0,0,0-.2.61.61,0,0,0-.09-.18,1.31,1.31,0,0,1-.12-.15.62.62,0,0,0-.19-.12l-.22-.11-.28-.1-.3-.1-.36-.11-.4-.11c-.46-.15-.84-.28-1.14-.4a7.49,7.49,0,0,1-.86-.41,2.4,2.4,0,0,1-.65-.5,2,2,0,0,1-.37-.63,2.31,2.31,0,0,1-.14-.82,2.68,2.68,0,0,1,1-2.22,4.36,4.36,0,0,1,2.78-.82A5,5,0,0,1,84,32.91l-1,1.53a4.45,4.45,0,0,0-2.68-1.08,2,2,0,0,0-1,.23.78.78,0,0,0-.42.74.74.74,0,0,0,.37.69,6,6,0,0,0,1.35.5c.52.15.93.28,1.24.39a9.27,9.27,0,0,1,.94.41,3,3,0,0,1,.74.51,2.17,2.17,0,0,1,.41.66,2.49,2.49,0,0,1,.16.9,2.6,2.6,0,0,1-1,2.18A4.37,4.37,0,0,1,80.33,41.37Z"/><path class="cls-1" d="M86.14,37.34V35.16h5.45v2.18Z"/><path class="cls-1" d="M93.59,36.47A5.54,5.54,0,0,1,94.12,34a4.36,4.36,0,0,1,1.51-1.77,3.84,3.84,0,0,1,2.17-.65,3.63,3.63,0,0,1,1.86.5A3.82,3.82,0,0,1,101,33.41V28.05h2.41V38.49a.87.87,0,0,0,.13.55.56.56,0,0,0,.43.19v2a5.71,5.71,0,0,1-1,.12,1.68,1.68,0,0,1-1.07-.32,1.18,1.18,0,0,1-.48-.85l0-.58A3.54,3.54,0,0,1,100,40.9a4,4,0,0,1-1.88.47,4.23,4.23,0,0,1-2.31-.65,4.44,4.44,0,0,1-1.6-1.78A5.35,5.35,0,0,1,93.59,36.47Zm7.4,1.27V35.49a2.93,2.93,0,0,0-1-1.31,2.37,2.37,0,0,0-1.43-.53,2.18,2.18,0,0,0-1.77.86,3.12,3.12,0,0,0-.7,2,2.81,2.81,0,0,0,.74,2,2.47,2.47,0,0,0,3.25.36A2.35,2.35,0,0,0,101,37.74Z"/><path class="cls-1" d="M110.59,41.37A5.16,5.16,0,0,1,108,40.7a4.55,4.55,0,0,1-1.75-1.76,4.92,4.92,0,0,1-.6-2.41,5.12,5.12,0,0,1,.6-2.46,4.52,4.52,0,0,1,1.75-1.8,5.48,5.48,0,0,1,4.7-.28,4.29,4.29,0,0,1,1.56,1.07,4.88,4.88,0,0,1,1,1.54,5.12,5.12,0,0,1,.34,1.83,4.32,4.32,0,0,1-.06.81h-7.29A2.48,2.48,0,0,0,109,39a2.45,2.45,0,0,0,1.69.65,2.75,2.75,0,0,0,1.37-.36,1.92,1.92,0,0,0,.87-.92l2.06.58a4.13,4.13,0,0,1-1.69,1.78A5.31,5.31,0,0,1,110.59,41.37Zm-2.47-5.66h4.94a2.6,2.6,0,0,0-.8-1.71,2.46,2.46,0,0,0-3.35,0A2.55,2.55,0,0,0,108.12,35.71Z"/><path class="cls-1" d="M119.71,41.19l-3.48-9.43h2.5L121.11,39l2.4-7.23h2.28l-3.45,9.43Z"/><path class="cls-1" d="M127.52,30.44V28.05h2.4v2.39Zm0,10.75V31.76h2.4v9.43Z"/><path class="cls-1" d="M137,41.37a5.45,5.45,0,0,1-2.07-.4,4.62,4.62,0,0,1-1.58-1.08,4.94,4.94,0,0,1-1-1.56,5.22,5.22,0,0,1,.24-4.29,4.62,4.62,0,0,1,1.74-1.77,5.14,5.14,0,0,1,2.64-.68,5.07,5.07,0,0,1,2.6.65A4.1,4.1,0,0,1,141.19,34l-2.35.72a2.14,2.14,0,0,0-.81-.8,2.36,2.36,0,0,0-2.88.51,3.22,3.22,0,0,0,0,4.06,2.22,2.22,0,0,0,1.74.82A2.33,2.33,0,0,0,138.1,39a1.74,1.74,0,0,0,.77-.8l2.36.72a3.83,3.83,0,0,1-1.64,1.77A5,5,0,0,1,137,41.37Z"/><path class="cls-1" d="M147.45,41.37a5.17,5.17,0,0,1-2.63-.67,4.55,4.55,0,0,1-1.75-1.76,4.92,4.92,0,0,1-.6-2.41,5.12,5.12,0,0,1,.6-2.46,4.52,4.52,0,0,1,1.75-1.8,5.48,5.48,0,0,1,4.7-.28,4.29,4.29,0,0,1,1.56,1.07,4.88,4.88,0,0,1,1,1.54,5.12,5.12,0,0,1,.34,1.83,4.32,4.32,0,0,1-.06.81H145a2.48,2.48,0,0,0,.81,1.72,2.45,2.45,0,0,0,1.69.65,2.75,2.75,0,0,0,1.37-.36,1.92,1.92,0,0,0,.87-.92l2.06.58a4.07,4.07,0,0,1-1.69,1.78A5.3,5.3,0,0,1,147.45,41.37ZM145,35.71h4.93a2.6,2.6,0,0,0-.8-1.71,2.46,2.46,0,0,0-3.35,0A2.49,2.49,0,0,0,145,35.71Z"/><path class="cls-1" d="M154.51,43.26l.49-2.14h-.76V38.6h2.08v2.52l-.73,2.14Z"/><path class="cls-1" d="M178.33,41.19h-2.4V35.9a2.9,2.9,0,0,0-.38-1.64,1.23,1.23,0,0,0-1.08-.54,2,2,0,0,0-1.35.55,3.08,3.08,0,0,0-.9,1.43v5.49H169.8V35.9c0-1.45-.49-2.18-1.46-2.18a2.08,2.08,0,0,0-1.35.54,3,3,0,0,0-.9,1.42v5.51h-2.41V31.76h2.18v1.75a3.71,3.71,0,0,1,1.44-1.42,4.28,4.28,0,0,1,2.07-.5,2.74,2.74,0,0,1,1.79.56A2.5,2.5,0,0,1,172,33.6a4,4,0,0,1,1.47-1.49,3.85,3.85,0,0,1,2-.52q2.83,0,2.83,3.71Z"/><path class="cls-1" d="M180.8,37.67V31.76h2.41v5.38c0,1.45.52,2.18,1.56,2.18a2.43,2.43,0,0,0,1.38-.44,3.23,3.23,0,0,0,1.06-1.28V31.76h2.4v6.73a.87.87,0,0,0,.14.55.59.59,0,0,0,.44.19v2a5.85,5.85,0,0,1-1,.11,1.73,1.73,0,0,1-1.06-.3,1.14,1.14,0,0,1-.47-.82l-.05-.76A4.07,4.07,0,0,1,186,40.87a4.83,4.83,0,0,1-2.19.5,2.69,2.69,0,0,1-2.22-.95A4.31,4.31,0,0,1,180.8,37.67Z"/><path class="cls-1" d="M192.44,28.05h2.4V38.17a1.33,1.33,0,0,0,.21.86.72.72,0,0,0,.6.23,2.7,2.7,0,0,0,1.14-.25l.32,1.84a5.59,5.59,0,0,1-1.11.35,5.84,5.84,0,0,1-1.19.13,2.39,2.39,0,0,1-1.75-.61,2.24,2.24,0,0,1-.62-1.71Z"/><path class="cls-1" d="M204.15,40.71a6.69,6.69,0,0,1-2.66.64,3.57,3.57,0,0,1-1-.13,2.35,2.35,0,0,1-.77-.4,1.77,1.77,0,0,1-.54-.73A2.68,2.68,0,0,1,199,39V33.61H197.8V31.76H199V28.7h2.42v3.06h2v1.85h-2v4.61c0,.61.31.92.89.92a3.55,3.55,0,0,0,1.32-.34Z"/><path class="cls-1" d="M205.86,30.44V28.05h2.41v2.39Zm0,10.75V31.76h2.41v9.43Z"/><path class="cls-1" d="M210.85,37.34V35.16h5.44v2.18Z"/><path class="cls-1" d="M221.28,39.54V45h-2.41V31.76H221v1.62a3.93,3.93,0,0,1,1.37-1.32,3.83,3.83,0,0,1,1.88-.47,4.07,4.07,0,0,1,2.26.66A4.53,4.53,0,0,1,228.08,34a5.24,5.24,0,0,1,.57,2.43,5.82,5.82,0,0,1-.53,2.49,4.4,4.4,0,0,1-1.48,1.78,3.69,3.69,0,0,1-2.12.65,3.81,3.81,0,0,1-1.92-.49A3.47,3.47,0,0,1,221.28,39.54Zm4.9-3.09a2.81,2.81,0,0,0-.75-2,2.43,2.43,0,0,0-1.86-.81,2.46,2.46,0,0,0-1.38.45,2.25,2.25,0,0,0-.91,1.13v2.22a3.25,3.25,0,0,0,1,1.34,2.31,2.31,0,0,0,1.43.53,2.23,2.23,0,0,0,1.77-.85A3.12,3.12,0,0,0,226.18,36.45Z"/><path class="cls-1" d="M230.71,28.05h2.41V38.17a1.41,1.41,0,0,0,.2.86.76.76,0,0,0,.61.23,2.65,2.65,0,0,0,1.13-.25l.33,1.84a6.12,6.12,0,0,1-2.3.48,2.38,2.38,0,0,1-1.75-.61,2.25,2.25,0,0,1-.63-1.71Z"/><path class="cls-1" d="M236.23,38.4a2.67,2.67,0,0,1,1.13-2.22,4.76,4.76,0,0,1,2.93-.84,6,6,0,0,1,2.26.37v-.5a1.74,1.74,0,0,0-.53-1.38,2.23,2.23,0,0,0-1.58-.49,4.13,4.13,0,0,0-1.44.26,7.25,7.25,0,0,0-1.5.81l-.78-1.59a7.17,7.17,0,0,1,4-1.23,4.54,4.54,0,0,1,3.14,1A3.69,3.69,0,0,1,245,35.49v3a.94.94,0,0,0,.13.55.63.63,0,0,0,.45.19v2a5.43,5.43,0,0,1-1,.12,1.68,1.68,0,0,1-1.07-.3,1.25,1.25,0,0,1-.47-.81l-.06-.49a4,4,0,0,1-1.52,1.22,4.35,4.35,0,0,1-1.88.44,3.37,3.37,0,0,1-2.34-.85A2.72,2.72,0,0,1,236.23,38.4Zm5.88.49a1.28,1.28,0,0,0,.44-.83v-1a4.93,4.93,0,0,0-1.89-.37,2.69,2.69,0,0,0-1.54.4,1.25,1.25,0,0,0-.6,1.07,1.29,1.29,0,0,0,.46,1,1.72,1.72,0,0,0,1.22.42,2.92,2.92,0,0,0,1.05-.2A2.7,2.7,0,0,0,242.11,38.89Z"/><path class="cls-1" d="M253.22,40.71a6.69,6.69,0,0,1-2.66.64,3.57,3.57,0,0,1-.95-.13,2.46,2.46,0,0,1-.77-.4,1.77,1.77,0,0,1-.54-.73,2.68,2.68,0,0,1-.19-1.06V33.61h-1.24V31.76h1.24V28.7h2.42v3.06h2v1.85h-2v4.61c0,.61.31.92.89.92a3.55,3.55,0,0,0,1.32-.34Z"/><path class="cls-1" d="M255.47,41.19V34.1h-1.24V32.26h1.24v-.57a4.19,4.19,0,0,1,.86-2.79,2.81,2.81,0,0,1,2.29-1,5.27,5.27,0,0,1,2.32.56l-.48,1.82a2.65,2.65,0,0,0-1.32-.34,1.09,1.09,0,0,0-.93.42,2.06,2.06,0,0,0-.33,1.26v.67h2.31V34.1h-2.31v7.09Z"/><path class="cls-1" d="M261.28,36.49a5.09,5.09,0,0,1,.35-1.87,4.81,4.81,0,0,1,1-1.56A4.29,4.29,0,0,1,264.17,32a5.2,5.2,0,0,1,2.07-.4,5,5,0,0,1,2.62.68,4.54,4.54,0,0,1,1.72,1.79,5.22,5.22,0,0,1,.24,4.29,4.75,4.75,0,0,1-1,1.55A4.29,4.29,0,0,1,268.3,41a5.33,5.33,0,0,1-2.06.4,5.5,5.5,0,0,1-1.7-.26,4.75,4.75,0,0,1-1.38-.72,5.18,5.18,0,0,1-1-1.07A4.31,4.31,0,0,1,261.5,38,5.09,5.09,0,0,1,261.28,36.49Zm5,2.83a2.24,2.24,0,0,0,1.75-.81,3,3,0,0,0,.71-2,3,3,0,0,0-.71-2,2.32,2.32,0,0,0-3.51,0,3.28,3.28,0,0,0,0,4.06A2.29,2.29,0,0,0,266.24,39.32Z"/><path class="cls-1" d="M278.85,33.84a4.58,4.58,0,0,0-2,.44,2.54,2.54,0,0,0-1.23,1.21v5.7h-2.41V31.76h2.22v2a4.3,4.3,0,0,1,1.28-1.53,2.9,2.9,0,0,1,1.64-.6h.48Z"/><path class="cls-1" d="M295.3,41.19h-2.41V35.9a2.9,2.9,0,0,0-.38-1.64,1.23,1.23,0,0,0-1.08-.54,2,2,0,0,0-1.35.55,3.08,3.08,0,0,0-.9,1.43v5.49h-2.42V35.9c0-1.45-.48-2.18-1.46-2.18a2,2,0,0,0-1.34.54,3,3,0,0,0-.91,1.42v5.51h-2.4V31.76h2.18v1.75a3.75,3.75,0,0,1,1.43-1.42,4.28,4.28,0,0,1,2.07-.5,2.72,2.72,0,0,1,1.79.56A2.46,2.46,0,0,1,289,33.6a4,4,0,0,1,1.46-1.49,3.86,3.86,0,0,1,2-.52c1.88,0,2.83,1.24,2.83,3.71Z"/><path class="cls-1" d="M92.28,67.72A2.63,2.63,0,0,1,93.4,65.5a4.72,4.72,0,0,1,2.93-.85A6,6,0,0,1,98.6,65v-.5a1.79,1.79,0,0,0-.53-1.39,2.3,2.3,0,0,0-1.58-.48,4,4,0,0,0-1.44.25,7.82,7.82,0,0,0-1.51.81l-.78-1.58a7.19,7.19,0,0,1,4-1.23,4.48,4.48,0,0,1,3.14,1A3.66,3.66,0,0,1,101,64.8v3a.84.84,0,0,0,.13.54.59.59,0,0,0,.45.19v2a5.65,5.65,0,0,1-1,.13,1.65,1.65,0,0,1-1.08-.31,1.29,1.29,0,0,1-.47-.81L99,69a4.22,4.22,0,0,1-1.53,1.21,4.31,4.31,0,0,1-1.87.44,3.33,3.33,0,0,1-2.35-.85A2.72,2.72,0,0,1,92.28,67.72Zm5.87.48a1.24,1.24,0,0,0,.45-.83v-1A5,5,0,0,0,96.71,66a2.65,2.65,0,0,0-1.55.41,1.24,1.24,0,0,0-.6,1.06,1.29,1.29,0,0,0,.46,1,1.74,1.74,0,0,0,1.22.42,2.72,2.72,0,0,0,1.05-.2A2.54,2.54,0,0,0,98.15,68.2Z"/><path class="cls-1" d="M103.13,65.78a5.6,5.6,0,0,1,.53-2.46,4.33,4.33,0,0,1,1.51-1.76,3.77,3.77,0,0,1,2.17-.65,3.62,3.62,0,0,1,1.86.49,3.77,3.77,0,0,1,1.33,1.33V57.36h2.41V67.81a.84.84,0,0,0,.13.54.53.53,0,0,0,.43.19v2a5.86,5.86,0,0,1-1,.13,1.74,1.74,0,0,1-1.07-.32,1.22,1.22,0,0,1-.48-.85l0-.59a3.47,3.47,0,0,1-1.4,1.34,4,4,0,0,1-1.88.47A4.23,4.23,0,0,1,105.3,70a4.48,4.48,0,0,1-1.6-1.77A5.39,5.39,0,0,1,103.13,65.78Zm7.4,1.27V64.8a3,3,0,0,0-1-1.31A2.37,2.37,0,0,0,108.1,63a2.21,2.21,0,0,0-1.77.86,3.14,3.14,0,0,0-.7,2,2.85,2.85,0,0,0,.74,2,2.48,2.48,0,0,0,3.25.35A2.3,2.3,0,0,0,110.53,67.05Z"/><path class="cls-1" d="M118.26,70.5l-3.48-9.43h2.51l2.37,7.24,2.4-7.24h2.28l-3.45,9.43Z"/><path class="cls-1" d="M130.12,70.68a5.12,5.12,0,0,1-2.63-.67,4.48,4.48,0,0,1-1.75-1.76,4.92,4.92,0,0,1-.59-2.41,5.14,5.14,0,0,1,.59-2.46,4.52,4.52,0,0,1,1.75-1.8,5.14,5.14,0,0,1,2.65-.67,5.32,5.32,0,0,1,2.06.39,4.47,4.47,0,0,1,1.55,1.07,4.65,4.65,0,0,1,1,1.54,4.93,4.93,0,0,1,.34,1.84,5.82,5.82,0,0,1-.05.81h-7.3a2.53,2.53,0,0,0,.81,1.72,2.47,2.47,0,0,0,1.7.64,2.81,2.81,0,0,0,1.36-.35,1.85,1.85,0,0,0,.87-.93l2.07.58a4.1,4.1,0,0,1-1.7,1.78A5.24,5.24,0,0,1,130.12,70.68ZM127.65,65h4.93a2.64,2.64,0,0,0-.79-1.72,2.5,2.5,0,0,0-3.36,0A2.61,2.61,0,0,0,127.65,65Z"/><path class="cls-1" d="M142.58,63.16a4.58,4.58,0,0,0-2,.43,2.56,2.56,0,0,0-1.22,1.21v5.7H137V61.07h2.21v2a4.46,4.46,0,0,1,1.28-1.52A2.87,2.87,0,0,1,142.1,61a4.06,4.06,0,0,1,.48,0Z"/><path class="cls-1" d="M150,70a6.56,6.56,0,0,1-2.66.64,3.16,3.16,0,0,1-1-.13,2.26,2.26,0,0,1-.77-.4,1.8,1.8,0,0,1-.54-.72,2.73,2.73,0,0,1-.19-1.07V62.93h-1.24V61.07h1.24V58h2.41v3.06h2v1.86h-2v4.6q0,.93.9.93a3.6,3.6,0,0,0,1.32-.35Z"/><path class="cls-1" d="M151.74,59.75V57.36h2.41v2.39Zm0,10.75V61.07h2.41V70.5Z"/><path class="cls-1" d="M160.25,70.68a6.62,6.62,0,0,1-2.32-.41,5.14,5.14,0,0,1-1.88-1.16l.87-1.56a5.28,5.28,0,0,0,3.24,1.34,2.17,2.17,0,0,0,1.13-.26.85.85,0,0,0,.42-.75.66.66,0,0,0,0-.21.48.48,0,0,0-.08-.18l-.12-.14a.62.62,0,0,0-.19-.13l-.22-.1a1.8,1.8,0,0,0-.28-.11l-.3-.1-.37-.1-.39-.12c-.46-.15-.84-.28-1.14-.4a6.24,6.24,0,0,1-.87-.41,2.52,2.52,0,0,1-.65-.5,2,2,0,0,1-.36-.63,2.31,2.31,0,0,1-.14-.82,2.68,2.68,0,0,1,1.05-2.22,4.36,4.36,0,0,1,2.78-.82,5,5,0,0,1,3.54,1.33l-1,1.53a4.45,4.45,0,0,0-2.68-1.08,2.13,2.13,0,0,0-1,.23.78.78,0,0,0-.42.75.77.77,0,0,0,.37.69,6.11,6.11,0,0,0,1.35.49l1.24.4a7.34,7.34,0,0,1,.94.4,2.71,2.71,0,0,1,.74.52,2.25,2.25,0,0,1,.41.65,2.49,2.49,0,0,1,.16.9,2.61,2.61,0,0,1-1,2.18A4.37,4.37,0,0,1,160.25,70.68Z"/><path class="cls-1" d="M166.11,59.75V57.36h2.41v2.39Zm0,10.75V61.07h2.41V70.5Z"/><path class="cls-1" d="M179.91,70.5H177.5V65.21C177.5,63.76,177,63,176,63a2.4,2.4,0,0,0-1.47.56,2.83,2.83,0,0,0-1,1.4V70.5h-2.41V61.07h2.18v1.75a3.56,3.56,0,0,1,1.52-1.4,4.83,4.83,0,0,1,2.22-.51,3.14,3.14,0,0,1,1.2.21,2.09,2.09,0,0,1,.82.56,2.68,2.68,0,0,1,.5.84,4.76,4.76,0,0,1,.26,1,9.18,9.18,0,0,1,.06,1.09Z"/><path class="cls-1" d="M181.9,65.78a5.42,5.42,0,0,1,.55-2.46A4.32,4.32,0,0,1,184,61.56a4,4,0,0,1,2.27-.65,3.73,3.73,0,0,1,1.9.48,4.07,4.07,0,0,1,1.4,1.34V61.07h2.11v9a4.23,4.23,0,0,1-.68,2.38A4.35,4.35,0,0,1,189.16,74a6.6,6.6,0,0,1-2.7.53,6,6,0,0,1-2.55-.5,5.35,5.35,0,0,1-1.86-1.47l1.31-1.27a3.87,3.87,0,0,0,1.37,1,4.08,4.08,0,0,0,1.73.38,3.4,3.4,0,0,0,1.08-.16,2.58,2.58,0,0,0,.9-.47,2.11,2.11,0,0,0,.62-.83,2.92,2.92,0,0,0,.22-1.18V68.87A3.14,3.14,0,0,1,188,70.11a3.8,3.8,0,0,1-1.82.45,4,4,0,0,1-2.21-.65,4.47,4.47,0,0,1-1.51-1.74A5.44,5.44,0,0,1,181.9,65.78Zm7.38,1.27V64.8a2.89,2.89,0,0,0-1-1.33,2.42,2.42,0,0,0-1.46-.51,2.16,2.16,0,0,0-1.76.87,3.16,3.16,0,0,0-.69,2,2.77,2.77,0,0,0,.75,2,2.43,2.43,0,0,0,1.84.8,2.35,2.35,0,0,0,1.41-.46A2.4,2.4,0,0,0,189.28,67.05Z"/><path class="cls-1" d="M203.48,70.68a5.18,5.18,0,0,1-2.06-.4,4.55,4.55,0,0,1-1.59-1.07,5.06,5.06,0,0,1-1-1.56,5.13,5.13,0,0,1-.35-1.87,5.07,5.07,0,0,1,.59-2.42,4.64,4.64,0,0,1,1.74-1.78,5.13,5.13,0,0,1,2.64-.67,5,5,0,0,1,2.6.65,4.16,4.16,0,0,1,1.67,1.76l-2.36.72a2.12,2.12,0,0,0-.81-.79,2.24,2.24,0,0,0-1.11-.29,2.29,2.29,0,0,0-1.77.79,3.27,3.27,0,0,0,0,4.07,2.25,2.25,0,0,0,1.75.81,2.38,2.38,0,0,0,1.19-.31,1.87,1.87,0,0,0,.77-.81l2.35.73A4,4,0,0,1,206.13,70,5.09,5.09,0,0,1,203.48,70.68Z"/><path class="cls-1" d="M209,67.72a2.63,2.63,0,0,1,1.12-2.22,4.72,4.72,0,0,1,2.93-.85,6,6,0,0,1,2.27.38v-.5a1.79,1.79,0,0,0-.53-1.39,2.31,2.31,0,0,0-1.58-.48,4,4,0,0,0-1.44.25,7.82,7.82,0,0,0-1.51.81l-.78-1.58a7.19,7.19,0,0,1,4-1.23,4.48,4.48,0,0,1,3.14,1,3.66,3.66,0,0,1,1.12,2.88v3a.83.83,0,0,0,.14.54.55.55,0,0,0,.44.19v2a5.45,5.45,0,0,1-1,.13,1.65,1.65,0,0,1-1.08-.31,1.29,1.29,0,0,1-.47-.81l-.05-.48a4.22,4.22,0,0,1-1.53,1.21,4.34,4.34,0,0,1-1.87.44,3.33,3.33,0,0,1-2.35-.85A2.72,2.72,0,0,1,209,67.72Zm5.87.48a1.24,1.24,0,0,0,.45-.83v-1a5,5,0,0,0-1.89-.38,2.63,2.63,0,0,0-1.55.41,1.24,1.24,0,0,0-.6,1.06,1.26,1.26,0,0,0,.46,1,1.72,1.72,0,0,0,1.22.42,2.72,2.72,0,0,0,1.05-.2A2.54,2.54,0,0,0,214.91,68.2Z"/><path class="cls-1" d="M235.12,70.5h-2.41V65.21a2.9,2.9,0,0,0-.38-1.64,1.23,1.23,0,0,0-1.08-.54,2,2,0,0,0-1.35.56A3,3,0,0,0,229,65V70.5h-2.42V65.21c0-1.45-.48-2.18-1.46-2.18a2,2,0,0,0-1.35.55,3,3,0,0,0-.9,1.41V70.5h-2.41V61.07h2.18v1.75a3.75,3.75,0,0,1,1.44-1.41,4.17,4.17,0,0,1,2.07-.5,2.72,2.72,0,0,1,1.79.55,2.46,2.46,0,0,1,.87,1.45,4.12,4.12,0,0,1,1.47-1.49,4,4,0,0,1,2-.51c1.88,0,2.83,1.23,2.83,3.7Z"/><path class="cls-1" d="M240.08,68.85v5.48h-2.41V61.07h2.11v1.62a3.74,3.74,0,0,1,1.37-1.31,3.67,3.67,0,0,1,1.88-.47,4.09,4.09,0,0,1,2.26.66,4.31,4.31,0,0,1,1.58,1.77,5.24,5.24,0,0,1,.57,2.43,5.81,5.81,0,0,1-.53,2.48A4.37,4.37,0,0,1,245.44,70a3.71,3.71,0,0,1-2.12.65,3.8,3.8,0,0,1-1.92-.48A3.56,3.56,0,0,1,240.08,68.85ZM245,65.77a2.84,2.84,0,0,0-.75-2,2.44,2.44,0,0,0-3.24-.35,2.21,2.21,0,0,0-.9,1.12v2.22a3.1,3.1,0,0,0,1,1.34,2.31,2.31,0,0,0,1.43.53,2.16,2.16,0,0,0,1.76-.85A3.06,3.06,0,0,0,245,65.77Z"/><path class="cls-1" d="M248.88,67.72A2.63,2.63,0,0,1,250,65.5a4.72,4.72,0,0,1,2.93-.85,6,6,0,0,1,2.26.38v-.5a1.75,1.75,0,0,0-.53-1.39,2.28,2.28,0,0,0-1.58-.48,4.12,4.12,0,0,0-1.44.25,8.07,8.07,0,0,0-1.5.81l-.78-1.58a7.19,7.19,0,0,1,4-1.23,4.48,4.48,0,0,1,3.14,1,3.66,3.66,0,0,1,1.12,2.88v3a.91.91,0,0,0,.13.54.59.59,0,0,0,.45.19v2a5.45,5.45,0,0,1-1,.13,1.63,1.63,0,0,1-1.07-.31,1.25,1.25,0,0,1-.47-.81l-.06-.48A4.11,4.11,0,0,1,254,70.24a4.35,4.35,0,0,1-1.88.44,3.32,3.32,0,0,1-2.34-.85A2.72,2.72,0,0,1,248.88,67.72Zm5.87.48a1.26,1.26,0,0,0,.44-.83v-1A4.94,4.94,0,0,0,253.3,66a2.62,2.62,0,0,0-1.54.41,1.24,1.24,0,0,0-.6,1.06,1.26,1.26,0,0,0,.46,1,1.72,1.72,0,0,0,1.22.42,2.72,2.72,0,0,0,1-.2A2.54,2.54,0,0,0,254.75,68.2Z"/><path class="cls-1" d="M260.3,59.75V57.36h2.41v2.39Zm0,10.75V61.07h2.41V70.5Z"/><path class="cls-1" d="M264.78,65.78a5.42,5.42,0,0,1,.55-2.46,4.32,4.32,0,0,1,1.57-1.76,4,4,0,0,1,2.27-.65,3.75,3.75,0,0,1,1.9.48,4.16,4.16,0,0,1,1.4,1.34V61.07h2.11v9a4.23,4.23,0,0,1-.68,2.38A4.32,4.32,0,0,1,272,74a6.55,6.55,0,0,1-2.69.53,6,6,0,0,1-2.55-.5,5.17,5.17,0,0,1-1.86-1.47l1.31-1.27a3.83,3.83,0,0,0,1.36,1,4.16,4.16,0,0,0,1.74.38,3.4,3.4,0,0,0,1.08-.16,2.77,2.77,0,0,0,.9-.47,2.11,2.11,0,0,0,.62-.83,3.1,3.1,0,0,0,.22-1.18V68.87a3.2,3.2,0,0,1-1.31,1.24,3.8,3.8,0,0,1-1.82.45,3.93,3.93,0,0,1-2.21-.65,4.39,4.39,0,0,1-1.51-1.74A5.3,5.3,0,0,1,264.78,65.78Zm7.38,1.27V64.8a2.91,2.91,0,0,0-1-1.33A2.4,2.4,0,0,0,269.7,63a2.14,2.14,0,0,0-1.76.87,3.16,3.16,0,0,0-.69,2,2.8,2.8,0,0,0,.74,2,2.45,2.45,0,0,0,1.85.8,2.35,2.35,0,0,0,1.41-.46A2.46,2.46,0,0,0,272.16,67.05Z"/><path class="cls-1" d="M286,70.5h-2.41V65.21c0-1.45-.5-2.18-1.49-2.18a2.4,2.4,0,0,0-1.47.56,2.83,2.83,0,0,0-1,1.4V70.5H277.2V61.07h2.18v1.75a3.56,3.56,0,0,1,1.52-1.4,4.83,4.83,0,0,1,2.22-.51,3.14,3.14,0,0,1,1.2.21,2.17,2.17,0,0,1,.82.56,2.68,2.68,0,0,1,.5.84,4.19,4.19,0,0,1,.25,1,7.4,7.4,0,0,1,.07,1.09Z"/><path class="cls-1" d="M292,70.68a6.71,6.71,0,0,1-2.32-.41,5.19,5.19,0,0,1-1.87-1.16l.86-1.56a5.33,5.33,0,0,0,3.25,1.34,2.11,2.11,0,0,0,1.12-.26.85.85,0,0,0,.42-.75,1.25,1.25,0,0,0,0-.21.38.38,0,0,0-.09-.18l-.12-.14a.46.46,0,0,0-.18-.13l-.22-.1a1.8,1.8,0,0,0-.28-.11l-.3-.1-.37-.1-.4-.12c-.46-.15-.84-.28-1.13-.4a5.75,5.75,0,0,1-.87-.41,2.36,2.36,0,0,1-.65-.5,2,2,0,0,1-.36-.63,2.11,2.11,0,0,1-.14-.82,2.68,2.68,0,0,1,1.05-2.22,4.33,4.33,0,0,1,2.77-.82,5,5,0,0,1,3.54,1.33l-1,1.53A4.47,4.47,0,0,0,292,62.67a2.2,2.2,0,0,0-1,.23.79.79,0,0,0-.41.75.75.75,0,0,0,.37.69,5.79,5.79,0,0,0,1.34.49c.52.16.94.29,1.24.4a7.45,7.45,0,0,1,.95.4,2.88,2.88,0,0,1,.74.52,2.23,2.23,0,0,1,.4.65,2.29,2.29,0,0,1,.16.9,2.6,2.6,0,0,1-1,2.18A4.38,4.38,0,0,1,292,70.68Z"/><path class="cls-1" d="M35.71,149V136.21h5.41a3.7,3.7,0,0,1,1.63.37,4.22,4.22,0,0,1,1.3,1,4.85,4.85,0,0,1,.84,1.36,4.23,4.23,0,0,1,.3,1.55,4.44,4.44,0,0,1-.49,2.06,4.07,4.07,0,0,1-1.42,1.58,3.67,3.67,0,0,1-2.07.61h-3V149Zm2.48-6.46h2.88a1.41,1.41,0,0,0,1.15-.57,2.35,2.35,0,0,0,.45-1.5,2.2,2.2,0,0,0-.5-1.51,1.59,1.59,0,0,0-1.2-.56H38.19Z"/><path class="cls-1" d="M52.75,141.64a4.78,4.78,0,0,0-2,.44,2.52,2.52,0,0,0-1.22,1.21V149H47.13v-9.43h2.21v2A4.4,4.4,0,0,1,50.62,140a2.92,2.92,0,0,1,1.64-.6,2.79,2.79,0,0,1,.49,0Z"/><path class="cls-1" d="M53.82,144.29a5.09,5.09,0,0,1,.35-1.87,5,5,0,0,1,1-1.56,4.29,4.29,0,0,1,1.56-1.07,5.38,5.38,0,0,1,2.07-.4,5,5,0,0,1,2.62.69,4.45,4.45,0,0,1,1.72,1.78,5.22,5.22,0,0,1,.24,4.29,4.65,4.65,0,0,1-1,1.55,4.29,4.29,0,0,1-1.56,1.07,5.15,5.15,0,0,1-2.06.4,5.5,5.5,0,0,1-1.7-.26,4.31,4.31,0,0,1-1.38-.72,4.94,4.94,0,0,1-1-1.07,4.31,4.31,0,0,1-.64-1.33A5,5,0,0,1,53.82,144.29Zm5,2.83a2.24,2.24,0,0,0,1.75-.81,3,3,0,0,0,.71-2,3,3,0,0,0-.71-2,2.32,2.32,0,0,0-3.51,0,3.28,3.28,0,0,0,0,4.06A2.29,2.29,0,0,0,58.78,147.12Z"/><path class="cls-1" d="M65.21,144.27a5.55,5.55,0,0,1,.55-2.46A4.49,4.49,0,0,1,67.33,140a4.13,4.13,0,0,1,2.28-.65,3.72,3.72,0,0,1,1.89.49,4.13,4.13,0,0,1,1.4,1.33v-1.65H75v9a4.24,4.24,0,0,1-.68,2.39,4.29,4.29,0,0,1-1.86,1.55,6.6,6.6,0,0,1-2.7.53,6,6,0,0,1-2.55-.5A5.46,5.46,0,0,1,65.36,151l1.31-1.28A3.89,3.89,0,0,0,68,150.81a4.08,4.08,0,0,0,1.73.38,3.4,3.4,0,0,0,1.08-.16,2.76,2.76,0,0,0,.9-.47,2.11,2.11,0,0,0,.62-.83,3,3,0,0,0,.22-1.19v-1.18a3.2,3.2,0,0,1-1.31,1.24,3.77,3.77,0,0,1-1.82.44,3.87,3.87,0,0,1-2.21-.65,4.33,4.33,0,0,1-1.51-1.74A5.39,5.39,0,0,1,65.21,144.27Zm7.38,1.27v-2.25a2.89,2.89,0,0,0-1-1.33,2.42,2.42,0,0,0-1.46-.51,2.16,2.16,0,0,0-1.76.87,3.14,3.14,0,0,0-.69,2,2.77,2.77,0,0,0,.75,2,2.43,2.43,0,0,0,1.84.8,2.35,2.35,0,0,0,1.41-.46A2.45,2.45,0,0,0,72.59,145.54Z"/><path class="cls-1" d="M83.25,141.64a4.73,4.73,0,0,0-2,.44A2.58,2.58,0,0,0,80,143.29V149H77.63v-9.43h2.22v2A4.38,4.38,0,0,1,81.12,140a2.92,2.92,0,0,1,1.64-.6,2.66,2.66,0,0,1,.49,0Z"/><path class="cls-1" d="M84.34,146.21A2.63,2.63,0,0,1,85.46,144a4.72,4.72,0,0,1,2.93-.85,5.82,5.82,0,0,1,2.27.38V143a1.78,1.78,0,0,0-.53-1.38,2.25,2.25,0,0,0-1.58-.49,4.13,4.13,0,0,0-1.44.26,7.49,7.49,0,0,0-1.5.81l-.79-1.59a7.19,7.19,0,0,1,4-1.23,4.52,4.52,0,0,1,3.15,1,3.69,3.69,0,0,1,1.12,2.88v3a.87.87,0,0,0,.13.55.63.63,0,0,0,.45.19v2a5.52,5.52,0,0,1-1,.12,1.73,1.73,0,0,1-1.08-.3,1.29,1.29,0,0,1-.47-.81l0-.49a4,4,0,0,1-1.52,1.22,4.38,4.38,0,0,1-1.88.44,3.33,3.33,0,0,1-2.35-.85A2.72,2.72,0,0,1,84.34,146.21Zm5.87.48a1.26,1.26,0,0,0,.45-.83v-1a4.83,4.83,0,0,0-1.89-.38,2.65,2.65,0,0,0-1.55.41,1.23,1.23,0,0,0-.6,1.06,1.32,1.32,0,0,0,.46,1,1.74,1.74,0,0,0,1.22.42,2.92,2.92,0,0,0,1-.2A2.44,2.44,0,0,0,90.21,146.69Z"/><path class="cls-1" d="M110.42,149H108V143.7a2.9,2.9,0,0,0-.38-1.64,1.23,1.23,0,0,0-1.08-.54,2,2,0,0,0-1.35.56,3,3,0,0,0-.9,1.42V149h-2.42V143.7c0-1.45-.48-2.18-1.45-2.18a2,2,0,0,0-1.35.55,2.83,2.83,0,0,0-.9,1.41V149H95.77v-9.43H98v1.75a3.66,3.66,0,0,1,1.43-1.41,4.18,4.18,0,0,1,2.07-.51,2.75,2.75,0,0,1,1.8.56,2.53,2.53,0,0,1,.87,1.45,4.1,4.1,0,0,1,1.46-1.49,4,4,0,0,1,2-.52q2.84,0,2.83,3.71Z"/><path class="cls-1" d="M127.62,149h-2.41V143.7a2.82,2.82,0,0,0-.38-1.64,1.23,1.23,0,0,0-1.08-.54,2,2,0,0,0-1.35.56,3.16,3.16,0,0,0-.9,1.42V149h-2.41V143.7c0-1.45-.49-2.18-1.46-2.18a2,2,0,0,0-1.35.55,2.83,2.83,0,0,0-.9,1.41V149H113v-9.43h2.18v1.75a3.62,3.62,0,0,1,1.44-1.41,4.13,4.13,0,0,1,2.07-.51,2.74,2.74,0,0,1,1.79.56,2.53,2.53,0,0,1,.87,1.45,4.1,4.1,0,0,1,1.46-1.49,4,4,0,0,1,2-.52q2.83,0,2.83,3.71Z"/><path class="cls-1" d="M129.52,146.21a2.64,2.64,0,0,1,1.13-2.22,4.69,4.69,0,0,1,2.92-.85,5.82,5.82,0,0,1,2.27.38V143a1.78,1.78,0,0,0-.53-1.38,2.25,2.25,0,0,0-1.58-.49,4.13,4.13,0,0,0-1.44.26,7.49,7.49,0,0,0-1.5.81l-.79-1.59a7.2,7.2,0,0,1,4-1.23,4.51,4.51,0,0,1,3.14,1,3.66,3.66,0,0,1,1.12,2.88v3a.87.87,0,0,0,.13.55.63.63,0,0,0,.45.19v2a5.52,5.52,0,0,1-1,.12,1.73,1.73,0,0,1-1.08-.3,1.29,1.29,0,0,1-.47-.81l-.05-.49a4,4,0,0,1-1.52,1.22,4.38,4.38,0,0,1-1.88.44,3.35,3.35,0,0,1-2.35-.85A2.72,2.72,0,0,1,129.52,146.21Zm5.87.48a1.26,1.26,0,0,0,.45-.83v-1a4.83,4.83,0,0,0-1.89-.38,2.65,2.65,0,0,0-1.55.41,1.22,1.22,0,0,0-.59,1.06,1.31,1.31,0,0,0,.45,1,1.74,1.74,0,0,0,1.22.42,3,3,0,0,0,1.06-.2A2.49,2.49,0,0,0,135.39,146.69Z"/><path class="cls-1" d="M146.51,148.51a6.56,6.56,0,0,1-2.66.64,3.16,3.16,0,0,1-.95-.13,2.26,2.26,0,0,1-.77-.4,1.77,1.77,0,0,1-.54-.73,2.68,2.68,0,0,1-.19-1.06v-5.41h-1.24v-1.86h1.24V136.5h2.41v3.06h2v1.86h-2V146c0,.62.32.92.9.92a3.55,3.55,0,0,0,1.32-.34Z"/><path class="cls-1" d="M148.22,138.24v-2.39h2.41v2.39Zm0,10.75v-9.43h2.41V149Z"/><path class="cls-1" d="M157.65,149.17a5.36,5.36,0,0,1-2.06-.4A4.78,4.78,0,0,1,154,147.7a4.85,4.85,0,0,1-1-1.56,5,5,0,0,1-.36-1.87,5.07,5.07,0,0,1,.59-2.42,4.57,4.57,0,0,1,1.74-1.78,5.51,5.51,0,0,1,5.25,0,4.28,4.28,0,0,1,1.66,1.77l-2.36.72a2.12,2.12,0,0,0-.81-.79,2.24,2.24,0,0,0-1.11-.29,2.28,2.28,0,0,0-1.77.79,3.27,3.27,0,0,0,0,4.07,2.25,2.25,0,0,0,1.75.81,2.39,2.39,0,0,0,1.19-.32,1.79,1.79,0,0,0,.77-.8l2.35.72a3.93,3.93,0,0,1-1.63,1.78A5.19,5.19,0,0,1,157.65,149.17Z"/><path class="cls-1" d="M177.9,138.39h-4.09V149h-2.46v-10.6h-4.09v-2.18H177.9Z"/><path class="cls-1" d="M181.24,136.21l3.45,9.83,3.42-9.83h2.61L185.88,149h-2.39l-4.86-12.78Z"/><path class="cls-1" d="M195.8,146.21a2.64,2.64,0,0,1,1.13-2.22,4.72,4.72,0,0,1,2.93-.85,5.77,5.77,0,0,1,2.26.38V143a1.74,1.74,0,0,0-.53-1.38,2.23,2.23,0,0,0-1.58-.49,4.13,4.13,0,0,0-1.44.26,8.07,8.07,0,0,0-1.5.81l-.78-1.59a7.19,7.19,0,0,1,4-1.23,4.48,4.48,0,0,1,3.14,1,3.66,3.66,0,0,1,1.12,2.88v3a.94.94,0,0,0,.13.55.63.63,0,0,0,.45.19v2a5.34,5.34,0,0,1-1,.12,1.68,1.68,0,0,1-1.07-.3,1.25,1.25,0,0,1-.47-.81l-.06-.49a4,4,0,0,1-1.52,1.22,4.35,4.35,0,0,1-1.88.44,3.32,3.32,0,0,1-2.34-.85A2.73,2.73,0,0,1,195.8,146.21Zm5.88.48a1.28,1.28,0,0,0,.44-.83v-1a4.76,4.76,0,0,0-1.89-.38,2.62,2.62,0,0,0-1.54.41,1.23,1.23,0,0,0-.6,1.06,1.29,1.29,0,0,0,.46,1,1.72,1.72,0,0,0,1.22.42,2.92,2.92,0,0,0,1-.2A2.54,2.54,0,0,0,201.68,146.69Z"/><path class="cls-1" d="M206.65,144.27a5.61,5.61,0,0,1,.54-2.46A4.42,4.42,0,0,1,208.7,140a3.82,3.82,0,0,1,2.17-.65,3.59,3.59,0,0,1,1.85.5,3.74,3.74,0,0,1,1.33,1.32v-5.36h2.42v10.44a1,1,0,0,0,.12.55.58.58,0,0,0,.43.19v2a5.61,5.61,0,0,1-1,.12,1.68,1.68,0,0,1-1.07-.32,1.11,1.11,0,0,1-.48-.84l0-.59A3.51,3.51,0,0,1,213,148.7a4,4,0,0,1-1.89.47,4.28,4.28,0,0,1-2.31-.65,4.56,4.56,0,0,1-1.6-1.77A5.42,5.42,0,0,1,206.65,144.27Zm7.4,1.27v-2.25a3,3,0,0,0-1-1.31,2.39,2.39,0,0,0-1.43-.53,2.21,2.21,0,0,0-1.77.86,3.07,3.07,0,0,0-.7,2,2.81,2.81,0,0,0,.74,2,2.47,2.47,0,0,0,3.24.35A2.25,2.25,0,0,0,214.05,145.54Z"/><path class="cls-1" d="M221.79,149l-3.48-9.43h2.5l2.38,7.23,2.39-7.23h2.29L224.42,149Z"/><path class="cls-1" d="M233.65,149.17a5.19,5.19,0,0,1-2.63-.67,4.55,4.55,0,0,1-1.75-1.76,4.92,4.92,0,0,1-.6-2.41,5.15,5.15,0,0,1,.6-2.46,4.52,4.52,0,0,1,1.75-1.8,5.14,5.14,0,0,1,2.64-.68,5.38,5.38,0,0,1,2.07.4,4.34,4.34,0,0,1,1.55,1.07,5,5,0,0,1,1,1.54,5.14,5.14,0,0,1,.34,1.84,4.47,4.47,0,0,1-.06.81h-7.29a2.48,2.48,0,0,0,.81,1.71,2.45,2.45,0,0,0,1.69.65,2.72,2.72,0,0,0,1.37-.36,1.84,1.84,0,0,0,.87-.92l2.06.58a4.07,4.07,0,0,1-1.69,1.78A5.27,5.27,0,0,1,233.65,149.17Zm-2.47-5.65h4.93a2.63,2.63,0,0,0-.8-1.72,2.46,2.46,0,0,0-3.35,0A2.59,2.59,0,0,0,231.18,143.52Z"/><path class="cls-1" d="M246.11,141.64a4.73,4.73,0,0,0-2,.44,2.58,2.58,0,0,0-1.23,1.21V149h-2.4v-9.43h2.21v2A4.3,4.3,0,0,1,244,140a2.9,2.9,0,0,1,1.64-.6,2.59,2.59,0,0,1,.48,0Z"/><path class="cls-1" d="M253.56,148.51a6.56,6.56,0,0,1-2.67.64A3.1,3.1,0,0,1,250,149a2.4,2.4,0,0,1-.78-.4,1.67,1.67,0,0,1-.53-.73,2.67,2.67,0,0,1-.2-1.06v-5.41H247.2v-1.86h1.24V136.5h2.42v3.06h2v1.86h-2V146c0,.62.32.92.9.92a3.46,3.46,0,0,0,1.31-.34Z"/><path class="cls-1" d="M255.26,138.24v-2.39h2.41v2.39Zm0,10.75v-9.43h2.41V149Z"/><path class="cls-1" d="M263.77,149.17a6.71,6.71,0,0,1-2.32-.41,5.19,5.19,0,0,1-1.87-1.16l.86-1.56a5.31,5.31,0,0,0,3.25,1.33,2.11,2.11,0,0,0,1.12-.25.85.85,0,0,0,.42-.76,1.23,1.23,0,0,0,0-.2.38.38,0,0,0-.09-.18l-.12-.14a.46.46,0,0,0-.18-.13l-.22-.11-.28-.1-.3-.1-.37-.1-.4-.12c-.46-.15-.84-.28-1.13-.4a5.75,5.75,0,0,1-.87-.41,2.57,2.57,0,0,1-.65-.5,2.16,2.16,0,0,1-.36-.63,2.11,2.11,0,0,1-.14-.82,2.68,2.68,0,0,1,1-2.22,4.33,4.33,0,0,1,2.77-.82,5,5,0,0,1,3.54,1.33l-1,1.53a4.47,4.47,0,0,0-2.68-1.08,2.2,2.2,0,0,0-1.05.23.79.79,0,0,0-.41.75.75.75,0,0,0,.37.69,5.79,5.79,0,0,0,1.34.49l1.24.39a9.4,9.4,0,0,1,.95.41,2.88,2.88,0,0,1,.74.52,2.1,2.1,0,0,1,.4.65,2.29,2.29,0,0,1,.16.9,2.62,2.62,0,0,1-1,2.18A4.38,4.38,0,0,1,263.77,149.17Z"/><path class="cls-1" d="M269.64,138.24v-2.39h2.41v2.39Zm0,10.75v-9.43h2.41V149Z"/><path class="cls-1" d="M283.44,149H281V143.7c0-1.45-.5-2.18-1.49-2.18a2.4,2.4,0,0,0-1.47.56,2.87,2.87,0,0,0-1,1.4V149h-2.4v-9.43h2.18v1.75a3.58,3.58,0,0,1,1.52-1.41,4.8,4.8,0,0,1,2.22-.51,3.13,3.13,0,0,1,1.2.22,2.17,2.17,0,0,1,.82.56,2.68,2.68,0,0,1,.5.84,4.58,4.58,0,0,1,.25,1,7.31,7.31,0,0,1,.07,1.09Z"/><path class="cls-1" d="M285.43,144.27a5.42,5.42,0,0,1,.55-2.46,4.46,4.46,0,0,1,1.56-1.77,4.18,4.18,0,0,1,2.28-.65,3.76,3.76,0,0,1,1.9.49,4.23,4.23,0,0,1,1.4,1.33v-1.65h2.11v9a4.17,4.17,0,0,1-.69,2.39,4.23,4.23,0,0,1-1.86,1.55A6.55,6.55,0,0,1,290,153a6,6,0,0,1-2.55-.5,5.28,5.28,0,0,1-1.86-1.47l1.31-1.28a3.85,3.85,0,0,0,1.36,1.05,4.16,4.16,0,0,0,1.74.38,3.4,3.4,0,0,0,1.08-.16,3,3,0,0,0,.9-.47,2.11,2.11,0,0,0,.62-.83,3.16,3.16,0,0,0,.22-1.19v-1.18a3.26,3.26,0,0,1-1.31,1.24,3.8,3.8,0,0,1-1.82.44,3.85,3.85,0,0,1-2.21-.65,4.26,4.26,0,0,1-1.51-1.74A5.26,5.26,0,0,1,285.43,144.27Zm7.38,1.27v-2.25a2.91,2.91,0,0,0-1-1.33,2.4,2.4,0,0,0-1.45-.51,2.14,2.14,0,0,0-1.76.87,3.14,3.14,0,0,0-.69,2,2.8,2.8,0,0,0,.74,2,2.45,2.45,0,0,0,1.85.8,2.35,2.35,0,0,0,1.41-.46A2.51,2.51,0,0,0,292.81,145.54Z"/><path class="cls-1" d="M63.54,237.61V224.83H69a3.84,3.84,0,0,1,1.62.37,4.22,4.22,0,0,1,1.3,1,4.85,4.85,0,0,1,.84,1.36,4.24,4.24,0,0,1,.31,1.55,4.44,4.44,0,0,1-.5,2.06,4,4,0,0,1-1.42,1.58,3.62,3.62,0,0,1-2.07.61H66v4.28ZM66,231.15H68.9a1.4,1.4,0,0,0,1.15-.57,2.35,2.35,0,0,0,.45-1.5,2.18,2.18,0,0,0-.5-1.51,1.59,1.59,0,0,0-1.2-.56H66Z"/><path class="cls-1" d="M80.58,230.26a4.81,4.81,0,0,0-2,.44,2.6,2.6,0,0,0-1.22,1.21v5.7H75v-9.43h2.22v2a4.43,4.43,0,0,1,1.27-1.52,2.87,2.87,0,0,1,1.64-.61,2.66,2.66,0,0,1,.49,0Z"/><path class="cls-1" d="M81.65,232.91A5.09,5.09,0,0,1,82,231a5,5,0,0,1,1-1.56,4.33,4.33,0,0,1,1.57-1.07,5.33,5.33,0,0,1,2.06-.4,5,5,0,0,1,2.62.69A4.55,4.55,0,0,1,91,230.48a5.19,5.19,0,0,1,.58,2.43,5.29,5.29,0,0,1-.34,1.86,4.68,4.68,0,0,1-1,1.55,4.29,4.29,0,0,1-1.56,1.07,5.12,5.12,0,0,1-2.06.4,5.5,5.5,0,0,1-1.7-.26,4.31,4.31,0,0,1-1.38-.72,4.94,4.94,0,0,1-1-1.07,4.54,4.54,0,0,1-.64-1.33A5.09,5.09,0,0,1,81.65,232.91Zm5,2.83a2.22,2.22,0,0,0,1.75-.81,3,3,0,0,0,.71-2,3,3,0,0,0-.71-2,2.32,2.32,0,0,0-3.51,0,3,3,0,0,0-.71,2,2.91,2.91,0,0,0,.71,2A2.26,2.26,0,0,0,86.61,235.74Z"/><path class="cls-1" d="M93,232.89a5.43,5.43,0,0,1,.56-2.46,4.37,4.37,0,0,1,1.56-1.76,4.06,4.06,0,0,1,2.28-.66,3.66,3.66,0,0,1,1.9.49,4.1,4.1,0,0,1,1.39,1.33v-1.65h2.11v9a4.16,4.16,0,0,1-.68,2.39,4.23,4.23,0,0,1-1.86,1.55,6.6,6.6,0,0,1-2.7.53,6,6,0,0,1-2.55-.5,5.46,5.46,0,0,1-1.86-1.47l1.31-1.27a4,4,0,0,0,1.37,1,4.15,4.15,0,0,0,1.73.38,3.5,3.5,0,0,0,1.09-.16,2.62,2.62,0,0,0,.89-.47,2,2,0,0,0,.62-.83,3,3,0,0,0,.23-1.19V236a3.26,3.26,0,0,1-1.31,1.24,4,4,0,0,1-4-.21,4.19,4.19,0,0,1-1.51-1.74A5.27,5.27,0,0,1,93,232.89Zm7.39,1.27v-2.25a3,3,0,0,0-1-1.33,2.42,2.42,0,0,0-1.46-.51,2.16,2.16,0,0,0-1.76.87,3.14,3.14,0,0,0-.69,2,2.77,2.77,0,0,0,.75,2,2.44,2.44,0,0,0,1.85.8,2.38,2.38,0,0,0,1.41-.46A2.51,2.51,0,0,0,100.43,234.16Z"/><path class="cls-1" d="M111.08,230.26a4.73,4.73,0,0,0-2,.44,2.63,2.63,0,0,0-1.23,1.21v5.7h-2.41v-9.43h2.22v2a4.35,4.35,0,0,1,1.28-1.52,2.84,2.84,0,0,1,1.64-.61,2.59,2.59,0,0,1,.48,0Z"/><path class="cls-1" d="M112.17,234.83a2.64,2.64,0,0,1,1.13-2.22,4.69,4.69,0,0,1,2.92-.85,5.79,5.79,0,0,1,2.27.38v-.5a1.79,1.79,0,0,0-.53-1.39,2.25,2.25,0,0,0-1.58-.49,4.13,4.13,0,0,0-1.44.26,7.49,7.49,0,0,0-1.5.81l-.78-1.58a7.1,7.1,0,0,1,4-1.24,4.56,4.56,0,0,1,3.14,1,3.69,3.69,0,0,1,1.12,2.89v3a.87.87,0,0,0,.13.55.63.63,0,0,0,.45.19v2a5.55,5.55,0,0,1-1,.13,1.73,1.73,0,0,1-1.08-.31,1.29,1.29,0,0,1-.47-.81l-.05-.48a4.11,4.11,0,0,1-1.52,1.21,4.38,4.38,0,0,1-1.88.44,3.35,3.35,0,0,1-2.35-.85A2.73,2.73,0,0,1,112.17,234.83Zm5.87.48a1.24,1.24,0,0,0,.45-.83v-1a4.93,4.93,0,0,0-1.89-.37,2.65,2.65,0,0,0-1.55.41,1.24,1.24,0,0,0-.59,1.06,1.31,1.31,0,0,0,.45,1,1.77,1.77,0,0,0,1.23.42,3,3,0,0,0,1-.2A2.49,2.49,0,0,0,118,235.31Z"/><path class="cls-1" d="M138.25,237.61h-2.41v-5.29a2.82,2.82,0,0,0-.38-1.64,1.23,1.23,0,0,0-1.08-.54,2.05,2.05,0,0,0-1.35.55,3.25,3.25,0,0,0-.9,1.43v5.49h-2.41v-5.29c0-1.45-.49-2.18-1.46-2.18a2,2,0,0,0-1.35.55,2.83,2.83,0,0,0-.9,1.41v5.51H123.6v-9.43h2.18v1.75a3.71,3.71,0,0,1,1.44-1.42,4.23,4.23,0,0,1,2.07-.5,2.74,2.74,0,0,1,1.79.56A2.53,2.53,0,0,1,132,230a4.1,4.1,0,0,1,1.46-1.49,4,4,0,0,1,2-.52q2.84,0,2.83,3.71Z"/><path class="cls-1" d="M155.45,237.61H153v-5.29a2.91,2.91,0,0,0-.37-1.64,1.25,1.25,0,0,0-1.08-.54,2.05,2.05,0,0,0-1.35.55,3.08,3.08,0,0,0-.9,1.43v5.49h-2.42v-5.29c0-1.45-.49-2.18-1.46-2.18a2,2,0,0,0-1.35.55,3,3,0,0,0-.9,1.41v5.51H140.8v-9.43H143v1.75a3.71,3.71,0,0,1,1.44-1.42,4.25,4.25,0,0,1,2.07-.5,2.74,2.74,0,0,1,1.79.56,2.53,2.53,0,0,1,.87,1.45,4,4,0,0,1,1.47-1.49,4,4,0,0,1,2-.52q2.83,0,2.83,3.71Z"/><path class="cls-1" d="M157.35,234.83a2.64,2.64,0,0,1,1.13-2.22,4.69,4.69,0,0,1,2.92-.85,5.79,5.79,0,0,1,2.27.38v-.5a1.79,1.79,0,0,0-.53-1.39,2.23,2.23,0,0,0-1.58-.49,4.13,4.13,0,0,0-1.44.26,7.49,7.49,0,0,0-1.5.81l-.78-1.58a7.1,7.1,0,0,1,4-1.24,4.54,4.54,0,0,1,3.14,1,3.69,3.69,0,0,1,1.12,2.89v3a.87.87,0,0,0,.13.55.63.63,0,0,0,.45.19v2a5.55,5.55,0,0,1-1,.13,1.73,1.73,0,0,1-1.08-.31,1.29,1.29,0,0,1-.47-.81l-.05-.48a4.11,4.11,0,0,1-1.52,1.21,4.38,4.38,0,0,1-1.88.44,3.36,3.36,0,0,1-2.35-.85A2.73,2.73,0,0,1,157.35,234.83Zm5.87.48a1.24,1.24,0,0,0,.45-.83v-1a4.93,4.93,0,0,0-1.89-.37,2.6,2.6,0,0,0-1.54.41,1.23,1.23,0,0,0-.6,1.06,1.31,1.31,0,0,0,.45,1,1.77,1.77,0,0,0,1.23.42,3,3,0,0,0,1.05-.2A2.4,2.4,0,0,0,163.22,235.31Z"/><path class="cls-1" d="M174.34,237.13a6.52,6.52,0,0,1-2.66.64,3.16,3.16,0,0,1-1-.13,2.35,2.35,0,0,1-.77-.4,1.77,1.77,0,0,1-.54-.73,2.68,2.68,0,0,1-.19-1.06V230H168v-1.86h1.24v-3.06h2.42v3.06h2V230h-2v4.6c0,.62.31.92.89.92a3.55,3.55,0,0,0,1.32-.34Z"/><path class="cls-1" d="M176.05,226.86v-2.39h2.41v2.39Zm0,10.75v-9.43h2.41v9.43Z"/><path class="cls-1" d="M185.48,237.79a5.36,5.36,0,0,1-2.06-.4,4.74,4.74,0,0,1-1.58-1.07,4.65,4.65,0,0,1-1-1.57,4.89,4.89,0,0,1-.36-1.86,5.07,5.07,0,0,1,.59-2.42,4.57,4.57,0,0,1,1.74-1.78,5.15,5.15,0,0,1,2.65-.68,5,5,0,0,1,2.6.66,4.14,4.14,0,0,1,1.66,1.76l-2.36.72a2.12,2.12,0,0,0-.81-.79,2.32,2.32,0,0,0-2.87.5,2.91,2.91,0,0,0-.71,2,3,3,0,0,0,.72,2,2.25,2.25,0,0,0,1.75.81,2.36,2.36,0,0,0,1.19-.32,1.79,1.79,0,0,0,.77-.8l2.35.72a3.93,3.93,0,0,1-1.63,1.78A5.19,5.19,0,0,1,185.48,237.79Z"/><path class="cls-1" d="M195.8,234.83a2.64,2.64,0,0,1,1.13-2.22,4.72,4.72,0,0,1,2.93-.85,5.77,5.77,0,0,1,2.26.38v-.5a1.75,1.75,0,0,0-.53-1.39,2.23,2.23,0,0,0-1.58-.49,4.13,4.13,0,0,0-1.44.26,8.07,8.07,0,0,0-1.5.81l-.78-1.58a7.12,7.12,0,0,1,4-1.24,4.52,4.52,0,0,1,3.14,1,3.69,3.69,0,0,1,1.12,2.89v3a.94.94,0,0,0,.13.55.63.63,0,0,0,.45.19v2a5.45,5.45,0,0,1-1,.13,1.68,1.68,0,0,1-1.07-.31,1.25,1.25,0,0,1-.47-.81l-.06-.48a4.11,4.11,0,0,1-1.52,1.21,4.35,4.35,0,0,1-1.88.44,3.32,3.32,0,0,1-2.34-.85A2.74,2.74,0,0,1,195.8,234.83Zm5.88.48a1.26,1.26,0,0,0,.44-.83v-1a4.93,4.93,0,0,0-1.89-.37,2.62,2.62,0,0,0-1.54.41,1.23,1.23,0,0,0-.6,1.06,1.29,1.29,0,0,0,.46,1,1.72,1.72,0,0,0,1.22.42,2.92,2.92,0,0,0,1-.2A2.54,2.54,0,0,0,201.68,235.31Z"/><path class="cls-1" d="M206.65,232.89a5.58,5.58,0,0,1,.54-2.46,4.33,4.33,0,0,1,1.51-1.76,3.76,3.76,0,0,1,2.17-.66,3.59,3.59,0,0,1,1.85.5,3.74,3.74,0,0,1,1.33,1.32v-5.36h2.42v10.44a1,1,0,0,0,.12.55.58.58,0,0,0,.43.19v2a5.77,5.77,0,0,1-1,.13,1.69,1.69,0,0,1-1.07-.33,1.11,1.11,0,0,1-.48-.84l0-.59a3.51,3.51,0,0,1-1.39,1.34,4,4,0,0,1-1.89.47,4.28,4.28,0,0,1-2.31-.65,4.56,4.56,0,0,1-1.6-1.77A5.42,5.42,0,0,1,206.65,232.89Zm7.4,1.27v-2.25a3,3,0,0,0-1-1.31,2.39,2.39,0,0,0-1.43-.53,2.21,2.21,0,0,0-1.77.86,3.07,3.07,0,0,0-.7,2,2.81,2.81,0,0,0,.74,2,2.47,2.47,0,0,0,3.24.35A2.25,2.25,0,0,0,214.05,234.16Z"/><path class="cls-1" d="M221.79,237.61l-3.48-9.43h2.5l2.38,7.24,2.4-7.24h2.28l-3.45,9.43Z"/><path class="cls-1" d="M233.65,237.79a5.09,5.09,0,0,1-2.63-.67,4.55,4.55,0,0,1-1.75-1.76,4.92,4.92,0,0,1-.6-2.41,5.15,5.15,0,0,1,.6-2.46,4.52,4.52,0,0,1,1.75-1.8,5.15,5.15,0,0,1,2.65-.68,5.33,5.33,0,0,1,2.06.4,4.34,4.34,0,0,1,1.55,1.07,4.82,4.82,0,0,1,1,1.54,5.14,5.14,0,0,1,.34,1.84,5.82,5.82,0,0,1-.05.81h-7.3a2.49,2.49,0,0,0,2.51,2.36,2.71,2.71,0,0,0,1.36-.36,1.8,1.8,0,0,0,.87-.92l2.06.58a4,4,0,0,1-1.69,1.78A5.27,5.27,0,0,1,233.65,237.79Zm-2.47-5.65h4.93a2.63,2.63,0,0,0-.8-1.72,2.46,2.46,0,0,0-3.35,0A2.59,2.59,0,0,0,231.18,232.14Z"/><path class="cls-1" d="M246.11,230.26a4.73,4.73,0,0,0-2,.44,2.63,2.63,0,0,0-1.23,1.21v5.7h-2.4v-9.43h2.21v2a4.35,4.35,0,0,1,1.28-1.52,2.84,2.84,0,0,1,1.64-.61,2.59,2.59,0,0,1,.48,0Z"/><path class="cls-1" d="M253.56,237.13a6.56,6.56,0,0,1-2.67.64,3.1,3.1,0,0,1-.94-.13,2.4,2.4,0,0,1-.78-.4,1.67,1.67,0,0,1-.53-.73,2.67,2.67,0,0,1-.2-1.06V230H247.2v-1.86h1.24v-3.06h2.42v3.06h2V230h-2v4.6c0,.62.32.92.9.92a3.46,3.46,0,0,0,1.31-.34Z"/><path class="cls-1" d="M255.26,226.86v-2.39h2.41v2.39Zm0,10.75v-9.43h2.41v9.43Z"/><path class="cls-1" d="M263.77,237.79a6.71,6.71,0,0,1-2.32-.41,5.19,5.19,0,0,1-1.87-1.16l.86-1.56a5.33,5.33,0,0,0,3.25,1.34,2.17,2.17,0,0,0,1.13-.26.86.86,0,0,0,.41-.76.65.65,0,0,0,0-.2.38.38,0,0,0-.09-.18l-.12-.14a.46.46,0,0,0-.18-.13l-.22-.11-.28-.1-.3-.1-.37-.1-.39-.12c-.47-.15-.85-.28-1.14-.4a6.9,6.9,0,0,1-.87-.41,2.57,2.57,0,0,1-.65-.5,2.16,2.16,0,0,1-.36-.63,2.31,2.31,0,0,1-.14-.82,2.68,2.68,0,0,1,1-2.22,4.33,4.33,0,0,1,2.77-.82,5,5,0,0,1,3.55,1.33l-1,1.53a4.47,4.47,0,0,0-2.68-1.08,2.2,2.2,0,0,0-1.05.23.79.79,0,0,0-.41.75.75.75,0,0,0,.37.69,6,6,0,0,0,1.34.49c.53.15.94.29,1.24.39a9.4,9.4,0,0,1,.95.41,2.88,2.88,0,0,1,.74.52,2.33,2.33,0,0,1,.41.65,2.5,2.5,0,0,1,.15.9,2.62,2.62,0,0,1-1,2.18A4.38,4.38,0,0,1,263.77,237.79Z"/><path class="cls-1" d="M269.64,226.86v-2.39h2.41v2.39Zm0,10.75v-9.43h2.41v9.43Z"/><path class="cls-1" d="M283.44,237.61H281v-5.29c0-1.45-.5-2.18-1.49-2.18a2.4,2.4,0,0,0-1.47.56,2.87,2.87,0,0,0-1,1.4v5.51h-2.4v-9.43h2.18v1.75a3.64,3.64,0,0,1,1.52-1.41,4.83,4.83,0,0,1,2.22-.51,3.13,3.13,0,0,1,1.2.22,2.17,2.17,0,0,1,.82.56,2.68,2.68,0,0,1,.5.84,4.72,4.72,0,0,1,.25,1,7.4,7.4,0,0,1,.07,1.09Z"/><path class="cls-1" d="M285.43,232.89a5.42,5.42,0,0,1,.55-2.46,4.37,4.37,0,0,1,1.56-1.76,4.11,4.11,0,0,1,2.28-.66,3.66,3.66,0,0,1,1.9.49,4.13,4.13,0,0,1,1.4,1.33v-1.65h2.11v9a4.17,4.17,0,0,1-.69,2.39,4.23,4.23,0,0,1-1.86,1.55,6.55,6.55,0,0,1-2.69.53,6,6,0,0,1-2.55-.5,5.28,5.28,0,0,1-1.86-1.47l1.31-1.27a3.83,3.83,0,0,0,1.36,1,4.16,4.16,0,0,0,1.74.38,3.4,3.4,0,0,0,1.08-.16,2.77,2.77,0,0,0,.9-.47,2.11,2.11,0,0,0,.62-.83,3.16,3.16,0,0,0,.22-1.19V236a3.26,3.26,0,0,1-1.31,1.24,3.8,3.8,0,0,1-1.82.45,3.86,3.86,0,0,1-2.21-.66,4.26,4.26,0,0,1-1.51-1.74A5.26,5.26,0,0,1,285.43,232.89Zm7.38,1.27v-2.25a2.91,2.91,0,0,0-1-1.33,2.4,2.4,0,0,0-1.45-.51,2.14,2.14,0,0,0-1.76.87,3.14,3.14,0,0,0-.69,2,2.8,2.8,0,0,0,.74,2,2.45,2.45,0,0,0,1.85.8,2.35,2.35,0,0,0,1.41-.46A2.51,2.51,0,0,0,292.81,234.16Z"/><path class="cls-1" d="M10.42,330.34V322L7.15,328.2H5.76L2.48,322v8.38H0V317.56H2.66l3.78,7.27,3.82-7.27H12.9v12.78Z"/><path class="cls-1" d="M15.69,326.82v-5.91H18.1v5.38c0,1.46.52,2.18,1.56,2.18A2.36,2.36,0,0,0,21,328a3.12,3.12,0,0,0,1.06-1.27v-5.85h2.41v6.74a.84.84,0,0,0,.13.54.59.59,0,0,0,.45.19v2a6.05,6.05,0,0,1-1.05.11,1.82,1.82,0,0,1-1.06-.29,1.16,1.16,0,0,1-.47-.83l-.05-.75A4.08,4.08,0,0,1,20.85,330a4.82,4.82,0,0,1-2.19.49,2.65,2.65,0,0,1-2.21-.94A4.3,4.3,0,0,1,15.69,326.82Z"/><path class="cls-1" d="M27.33,317.2h2.41v10.12a1.32,1.32,0,0,0,.2.86.75.75,0,0,0,.61.24,2.7,2.7,0,0,0,1.13-.26L32,330a4.84,4.84,0,0,1-1.11.35,5.76,5.76,0,0,1-1.19.13,2.43,2.43,0,0,1-1.75-.6,2.32,2.32,0,0,1-.62-1.72Z"/><path class="cls-1" d="M39.05,329.86a6.6,6.6,0,0,1-2.67.64,3.21,3.21,0,0,1-1-.13,2.46,2.46,0,0,1-.77-.4,1.8,1.8,0,0,1-.54-.72,2.92,2.92,0,0,1-.19-1.07v-5.41H32.69v-1.86h1.24v-3.06h2.42v3.06h2v1.86h-2v4.6c0,.62.31.93.89.93a3.6,3.6,0,0,0,1.32-.35Z"/><path class="cls-1" d="M40.75,319.59V317.2h2.41v2.39Zm0,10.75v-9.43h2.41v9.43Z"/><path class="cls-1" d="M45.74,326.49v-2.18h5.45v2.18Z"/><path class="cls-1" d="M59.42,329.86a6.56,6.56,0,0,1-2.67.64,3.21,3.21,0,0,1-1-.13A2.46,2.46,0,0,1,55,330a1.8,1.8,0,0,1-.54-.72,2.92,2.92,0,0,1-.19-1.07v-5.41H53.06v-1.86H54.3v-3.06h2.42v3.06h2v1.86h-2v4.6c0,.62.31.93.89.93a3.6,3.6,0,0,0,1.32-.35Z"/><path class="cls-1" d="M60.4,325.64a5.13,5.13,0,0,1,.35-1.87,5,5,0,0,1,1-1.56,4.55,4.55,0,0,1,1.57-1.07,5.36,5.36,0,0,1,2.06-.39,5,5,0,0,1,2.62.68,4.55,4.55,0,0,1,1.73,1.78,5.25,5.25,0,0,1,.58,2.43A5.07,5.07,0,0,1,70,327.5a5,5,0,0,1-1,1.56,4.53,4.53,0,0,1-1.57,1.06,5.12,5.12,0,0,1-2.06.4,5.55,5.55,0,0,1-1.7-.26,4.53,4.53,0,0,1-1.38-.72,5.13,5.13,0,0,1-1-1.06,4.73,4.73,0,0,1-.64-1.34A5,5,0,0,1,60.4,325.64Zm5,2.83a2.22,2.22,0,0,0,1.75-.81,3,3,0,0,0,.71-2,3,3,0,0,0-.71-2,2.32,2.32,0,0,0-3.51,0,3,3,0,0,0-.71,2,2.91,2.91,0,0,0,.71,2A2.23,2.23,0,0,0,65.36,328.47Z"/><path class="cls-1" d="M72.27,326.82v-5.91h2.41v5.38c0,1.46.52,2.18,1.56,2.18a2.36,2.36,0,0,0,1.38-.44,3.2,3.2,0,0,0,1.06-1.27v-5.85h2.4v6.74a.83.83,0,0,0,.14.54.55.55,0,0,0,.44.19v2a5.85,5.85,0,0,1-1,.11,1.8,1.8,0,0,1-1.06-.29,1.16,1.16,0,0,1-.47-.83l0-.75A4.14,4.14,0,0,1,77.43,330a4.82,4.82,0,0,1-2.19.49,2.69,2.69,0,0,1-2.22-.94A4.36,4.36,0,0,1,72.27,326.82Z"/><path class="cls-1" d="M88.32,330.52a5.27,5.27,0,0,1-2.07-.4,4.6,4.6,0,0,1-1.58-1.07,5.06,5.06,0,0,1-1-1.56,5.13,5.13,0,0,1-.35-1.87,5.07,5.07,0,0,1,.59-2.42,4.64,4.64,0,0,1,1.74-1.78,5.13,5.13,0,0,1,2.64-.67,5,5,0,0,1,2.6.65,4.08,4.08,0,0,1,1.66,1.76l-2.35.72a2.12,2.12,0,0,0-.81-.79,2.25,2.25,0,0,0-1.12-.29,2.29,2.29,0,0,0-1.76.79,3,3,0,0,0-.71,2,2.92,2.92,0,0,0,.73,2,2.25,2.25,0,0,0,1.74.81,2.32,2.32,0,0,0,1.19-.31,1.79,1.79,0,0,0,.77-.8l2.36.72A3.93,3.93,0,0,1,91,329.85,5,5,0,0,1,88.32,330.52Z"/><path class="cls-1" d="M103.29,330.34h-2.41v-5.29a2.72,2.72,0,0,0-.41-1.63,1.38,1.38,0,0,0-1.17-.55,2.22,2.22,0,0,0-1.39.57,2.83,2.83,0,0,0-1,1.39v5.51h-2.4V317.2h2.4v5.46a3.87,3.87,0,0,1,1.43-1.41,4,4,0,0,1,2-.5c2,0,3,1.23,3,3.71Z"/><path class="cls-1" d="M110,327.56a2.63,2.63,0,0,1,1.12-2.22,4.72,4.72,0,0,1,2.93-.85,5.92,5.92,0,0,1,2.26.38v-.5a1.75,1.75,0,0,0-.53-1.39,2.27,2.27,0,0,0-1.57-.48,4.13,4.13,0,0,0-1.45.25,8.71,8.71,0,0,0-1.5.81l-.78-1.58a7.19,7.19,0,0,1,4-1.23,4.48,4.48,0,0,1,3.14,1,3.66,3.66,0,0,1,1.12,2.88v3a.91.91,0,0,0,.13.54.59.59,0,0,0,.45.19v2a4.74,4.74,0,0,1-1,.13,1.63,1.63,0,0,1-1.07-.31,1.25,1.25,0,0,1-.47-.81l-.06-.48a4.11,4.11,0,0,1-1.52,1.21,4.35,4.35,0,0,1-1.88.44,3.36,3.36,0,0,1-2.34-.84A2.75,2.75,0,0,1,110,327.56Zm5.87.48a1.26,1.26,0,0,0,.44-.83v-.95a4.76,4.76,0,0,0-1.89-.38,2.62,2.62,0,0,0-1.54.41,1.24,1.24,0,0,0-.6,1.07,1.25,1.25,0,0,0,.46,1,1.72,1.72,0,0,0,1.22.42,2.72,2.72,0,0,0,1-.2A2.54,2.54,0,0,0,115.83,328Z"/><path class="cls-1" d="M127,329.86a6.6,6.6,0,0,1-2.67.64,3.21,3.21,0,0,1-1-.13,2.46,2.46,0,0,1-.77-.4,1.8,1.8,0,0,1-.54-.72,2.73,2.73,0,0,1-.19-1.07v-5.41h-1.24v-1.86h1.24v-3.06h2.42v3.06h2v1.86h-2v4.6c0,.62.31.93.89.93a3.6,3.6,0,0,0,1.32-.35Z"/><path class="cls-1" d="M134.27,329.86a6.56,6.56,0,0,1-2.66.64,3.12,3.12,0,0,1-1-.13,2.4,2.4,0,0,1-.78-.4,1.78,1.78,0,0,1-.53-.72,2.72,2.72,0,0,1-.2-1.07v-5.41h-1.24v-1.86h1.24v-3.06h2.42v3.06h2v1.86h-2v4.6q0,.93.9.93a3.6,3.6,0,0,0,1.32-.35Z"/><path class="cls-1" d="M141.59,323a4.44,4.44,0,0,0-2,.44,2.56,2.56,0,0,0-1.23,1.2v5.7H136v-9.43h2.21v2a4.3,4.3,0,0,1,1.28-1.53,2.91,2.91,0,0,1,1.64-.61,4.06,4.06,0,0,1,.48,0Z"/><path class="cls-1" d="M143.39,319.59V317.2h2.4v2.39Zm0,10.75v-9.43h2.4v9.43Z"/><path class="cls-1" d="M150.53,328.71v1.63h-2.11V317.2h2.41v5.37a3.69,3.69,0,0,1,1.34-1.35,3.76,3.76,0,0,1,1.91-.47,3.6,3.6,0,0,1,2.14.67,4.34,4.34,0,0,1,1.47,1.8,5.84,5.84,0,0,1,.51,2.45,5.29,5.29,0,0,1-.57,2.45,4.37,4.37,0,0,1-1.59,1.76,4.12,4.12,0,0,1-2.25.64,3.79,3.79,0,0,1-1.91-.48A3.52,3.52,0,0,1,150.53,328.71Zm5.2-3a3.11,3.11,0,0,0-.7-2,2.2,2.2,0,0,0-1.76-.86,2.29,2.29,0,0,0-1.43.52,3.48,3.48,0,0,0-1,1.32v2.25a2.23,2.23,0,0,0,.91,1.14,2.48,2.48,0,0,0,1.38.44,2.42,2.42,0,0,0,1.87-.81A2.84,2.84,0,0,0,155.73,325.69Z"/><path class="cls-1" d="M160.19,326.82v-5.91h2.41v5.38c0,1.46.52,2.18,1.57,2.18a2.4,2.4,0,0,0,1.38-.44,3.18,3.18,0,0,0,1-1.27v-5.85H169v6.74a.84.84,0,0,0,.13.54.59.59,0,0,0,.45.19v2a6.05,6.05,0,0,1-1.05.11,1.84,1.84,0,0,1-1.06-.29,1.19,1.19,0,0,1-.47-.83l0-.75a4,4,0,0,1-1.61,1.45,4.75,4.75,0,0,1-2.18.49,2.66,2.66,0,0,1-2.22-.94A4.36,4.36,0,0,1,160.19,326.82Z"/><path class="cls-1" d="M177.47,329.86a6.56,6.56,0,0,1-2.67.64,3.21,3.21,0,0,1-1-.13,2.46,2.46,0,0,1-.77-.4,1.8,1.8,0,0,1-.54-.72,2.92,2.92,0,0,1-.19-1.07v-5.41h-1.24v-1.86h1.24v-3.06h2.42v3.06h2v1.86h-2v4.6c0,.62.31.93.9.93A3.6,3.6,0,0,0,177,328Z"/><path class="cls-1" d="M179.17,319.59V317.2h2.41v2.39Zm0,10.75v-9.43h2.41v9.43Z"/><path class="cls-1" d="M183.61,325.64a4.94,4.94,0,0,1,.36-1.87,5,5,0,0,1,1-1.56,4.55,4.55,0,0,1,1.57-1.07,5.36,5.36,0,0,1,2.06-.39,5,5,0,0,1,2.63.68,4.59,4.59,0,0,1,1.72,1.78,5.13,5.13,0,0,1,.58,2.43,5.07,5.07,0,0,1-.34,1.86,5,5,0,0,1-1,1.56,4.58,4.58,0,0,1-1.56,1.06,5.2,5.2,0,0,1-2.07.4,5.44,5.44,0,0,1-1.69-.26,4.31,4.31,0,0,1-1.38-.72,4.66,4.66,0,0,1-1-1.06,4.5,4.5,0,0,1-.65-1.34A5.34,5.34,0,0,1,183.61,325.64Zm5,2.83a2.22,2.22,0,0,0,1.75-.81,3,3,0,0,0,.71-2,2.92,2.92,0,0,0-.71-2,2.32,2.32,0,0,0-3.51,0,3,3,0,0,0-.71,2,3,3,0,0,0,.71,2A2.23,2.23,0,0,0,188.57,328.47Z"/><path class="cls-1" d="M204.33,330.34h-2.41v-5.29c0-1.45-.49-2.18-1.49-2.18a2.35,2.35,0,0,0-1.47.57,2.77,2.77,0,0,0-1,1.39v5.51h-2.41v-9.43h2.18v1.75a3.62,3.62,0,0,1,1.52-1.4,4.83,4.83,0,0,1,2.22-.51,3.14,3.14,0,0,1,1.2.21,2.09,2.09,0,0,1,.82.56,2.68,2.68,0,0,1,.5.84,4.76,4.76,0,0,1,.26,1,9.23,9.23,0,0,1,.06,1.1Z"/><path class="cls-1" d="M226.3,330.34h-2.41v-5.29a2.9,2.9,0,0,0-.38-1.64,1.23,1.23,0,0,0-1.08-.54,2,2,0,0,0-1.35.56,3,3,0,0,0-.9,1.42v5.49h-2.42v-5.29c0-1.45-.48-2.18-1.45-2.18a2,2,0,0,0-1.35.55,2.83,2.83,0,0,0-.9,1.41v5.51h-2.41v-9.43h2.18v1.75a3.66,3.66,0,0,1,1.43-1.41,4.17,4.17,0,0,1,2.07-.5,2.74,2.74,0,0,1,1.8.55,2.56,2.56,0,0,1,.87,1.45,4.17,4.17,0,0,1,1.46-1.49,4,4,0,0,1,2-.51c1.89,0,2.83,1.23,2.83,3.71Z"/><path class="cls-1" d="M228.25,325.64a5.13,5.13,0,0,1,.35-1.87,5,5,0,0,1,1-1.56,4.55,4.55,0,0,1,1.57-1.07,5.32,5.32,0,0,1,2.06-.39,5,5,0,0,1,2.62.68,4.55,4.55,0,0,1,1.73,1.78,5.25,5.25,0,0,1,.58,2.43,5.07,5.07,0,0,1-.34,1.86,4.82,4.82,0,0,1-1,1.56,4.4,4.4,0,0,1-1.56,1.06,5.12,5.12,0,0,1-2.06.4,5.55,5.55,0,0,1-1.7-.26,4.53,4.53,0,0,1-1.38-.72,5.13,5.13,0,0,1-1-1.06,4.73,4.73,0,0,1-.64-1.34A5,5,0,0,1,228.25,325.64Zm5,2.83a2.22,2.22,0,0,0,1.75-.81,3,3,0,0,0,.71-2,3,3,0,0,0-.71-2,2.32,2.32,0,0,0-3.51,0,3,3,0,0,0-.71,2,2.91,2.91,0,0,0,.71,2A2.23,2.23,0,0,0,233.21,328.47Z"/><path class="cls-1" d="M239.63,325.62a5.75,5.75,0,0,1,.53-2.46,4.33,4.33,0,0,1,1.51-1.76,3.78,3.78,0,0,1,2.18-.65,3.58,3.58,0,0,1,1.85.49,3.77,3.77,0,0,1,1.33,1.33V317.2h2.41v10.45a.91.91,0,0,0,.13.54.53.53,0,0,0,.43.19v2a5,5,0,0,1-1,.13,1.76,1.76,0,0,1-1.07-.32,1.22,1.22,0,0,1-.48-.85l0-.59a3.47,3.47,0,0,1-1.4,1.34,4,4,0,0,1-1.88.47,4.23,4.23,0,0,1-2.31-.65,4.42,4.42,0,0,1-1.6-1.77A5.39,5.39,0,0,1,239.63,325.62Zm7.4,1.27v-2.25a2.91,2.91,0,0,0-1-1.31,2.37,2.37,0,0,0-1.43-.53,2.21,2.21,0,0,0-1.77.86,3.15,3.15,0,0,0-.7,2,2.84,2.84,0,0,0,.74,2,2.48,2.48,0,0,0,3.25.35A2.25,2.25,0,0,0,247,326.89Z"/><path class="cls-1" d="M256.64,330.52a5.09,5.09,0,0,1-2.63-.67,4.48,4.48,0,0,1-1.75-1.76,4.91,4.91,0,0,1-.6-2.4,5.16,5.16,0,0,1,.6-2.47,4.52,4.52,0,0,1,1.75-1.8,5.13,5.13,0,0,1,2.64-.67,5.29,5.29,0,0,1,2.06.39,4.42,4.42,0,0,1,1.56,1.07,5,5,0,0,1,1,1.54,5.14,5.14,0,0,1,.34,1.84,4.47,4.47,0,0,1-.06.81h-7.29a2.53,2.53,0,0,0,.81,1.72,2.44,2.44,0,0,0,1.69.64,2.82,2.82,0,0,0,1.37-.35,1.94,1.94,0,0,0,.87-.93l2.06.58a4,4,0,0,1-1.69,1.78A5.27,5.27,0,0,1,256.64,330.52Zm-2.47-5.65h4.93a2.65,2.65,0,0,0-.8-1.72,2.48,2.48,0,0,0-3.35,0A2.56,2.56,0,0,0,254.17,324.87Z"/><path class="cls-1" d="M263.47,317.2h2.4v10.12a1.32,1.32,0,0,0,.21.86.73.73,0,0,0,.6.24,2.71,2.71,0,0,0,1.14-.26l.32,1.84a5,5,0,0,1-1.11.35,5.84,5.84,0,0,1-1.19.13,2.43,2.43,0,0,1-1.75-.6,2.28,2.28,0,0,1-.62-1.72Z"/><path class="cls-1" d="M269.64,319.59V317.2h2.41v2.39Zm0,10.75v-9.43h2.41v9.43Z"/><path class="cls-1" d="M283.44,330.34H281v-5.29c0-1.45-.5-2.18-1.49-2.18a2.35,2.35,0,0,0-1.47.57,2.85,2.85,0,0,0-1,1.39v5.51h-2.4v-9.43h2.18v1.75a3.56,3.56,0,0,1,1.52-1.4,4.8,4.8,0,0,1,2.22-.51,3.14,3.14,0,0,1,1.2.21,2.17,2.17,0,0,1,.82.56,2.68,2.68,0,0,1,.5.84,4.72,4.72,0,0,1,.25,1,7.45,7.45,0,0,1,.07,1.1Z"/><path class="cls-1" d="M285.43,325.62a5.42,5.42,0,0,1,.55-2.46,4.37,4.37,0,0,1,1.56-1.76,4.1,4.1,0,0,1,2.28-.65,3.75,3.75,0,0,1,1.9.48,4.16,4.16,0,0,1,1.4,1.34v-1.66h2.11v9a4.16,4.16,0,0,1-.69,2.38,4.23,4.23,0,0,1-1.86,1.55,6.55,6.55,0,0,1-2.69.53,6,6,0,0,1-2.55-.5,5.06,5.06,0,0,1-1.86-1.47l1.31-1.27a3.83,3.83,0,0,0,1.36,1,4.16,4.16,0,0,0,1.74.38,3.4,3.4,0,0,0,1.08-.16,2.77,2.77,0,0,0,.9-.47,2.11,2.11,0,0,0,.62-.83,3.1,3.1,0,0,0,.22-1.18v-1.19A3.2,3.2,0,0,1,291.5,330a3.8,3.8,0,0,1-1.82.45,3.93,3.93,0,0,1-2.21-.65A4.39,4.39,0,0,1,286,328,5.3,5.3,0,0,1,285.43,325.62Zm7.38,1.27v-2.25a2.91,2.91,0,0,0-1-1.33,2.4,2.4,0,0,0-1.45-.51,2.14,2.14,0,0,0-1.76.87,3.16,3.16,0,0,0-.69,2,2.8,2.8,0,0,0,.74,2,2.42,2.42,0,0,0,1.85.8,2.35,2.35,0,0,0,1.41-.46A2.51,2.51,0,0,0,292.81,326.89Z"/><path class="cls-1" d="M140.85,422.73v-8.38l-3.27,6.24h-1.39l-3.27-6.24v8.38h-2.48V410h2.66l3.78,7.26,3.81-7.26h2.65v12.77Z"/><path class="cls-1" d="M145.46,418a5.13,5.13,0,0,1,.35-1.87,4.85,4.85,0,0,1,1-1.56,4.42,4.42,0,0,1,1.56-1.07,5.37,5.37,0,0,1,2.07-.39,5,5,0,0,1,2.62.68,4.52,4.52,0,0,1,1.72,1.78,5.14,5.14,0,0,1,.59,2.43,5.08,5.08,0,0,1-.35,1.86,4.8,4.8,0,0,1-1,1.56,4.27,4.27,0,0,1-1.56,1.06,5.15,5.15,0,0,1-2.06.4,5.5,5.5,0,0,1-1.7-.26,4.31,4.31,0,0,1-1.38-.72,5.13,5.13,0,0,1-1-1.06,4.75,4.75,0,0,1-.65-1.34A5.33,5.33,0,0,1,145.46,418Zm5,2.83a2.24,2.24,0,0,0,1.75-.81,3,3,0,0,0,.71-2,3,3,0,0,0-.71-2,2.32,2.32,0,0,0-3.51,0,3.28,3.28,0,0,0,0,4.06A2.24,2.24,0,0,0,150.42,420.86Z"/><path class="cls-1" d="M159.52,421.1v1.63h-2.11V409.59h2.41V415a3.69,3.69,0,0,1,1.34-1.35,3.76,3.76,0,0,1,1.91-.47,3.6,3.6,0,0,1,2.14.67,4.34,4.34,0,0,1,1.47,1.8,5.84,5.84,0,0,1,.51,2.45,5.26,5.26,0,0,1-.57,2.45,4.37,4.37,0,0,1-1.59,1.76,4.12,4.12,0,0,1-2.25.64,3.85,3.85,0,0,1-1.92-.48A3.56,3.56,0,0,1,159.52,421.1Zm5.2-3a3.06,3.06,0,0,0-.71-2,2.17,2.17,0,0,0-1.75-.86,2.27,2.27,0,0,0-1.43.52,3.48,3.48,0,0,0-1,1.32v2.25a2.23,2.23,0,0,0,.91,1.14,2.48,2.48,0,0,0,1.38.44,2.42,2.42,0,0,0,1.87-.81A2.84,2.84,0,0,0,164.72,418.08Z"/><path class="cls-1" d="M169.27,412v-2.4h2.41V412Zm0,10.74V413.3h2.41v9.43Z"/><path class="cls-1" d="M174.29,409.59h2.41v10.12a1.39,1.39,0,0,0,.2.86.76.76,0,0,0,.61.24,2.67,2.67,0,0,0,1.13-.26l.33,1.84a4.61,4.61,0,0,1-1.12.35,5.8,5.8,0,0,1-1.18.14,2.42,2.42,0,0,1-1.75-.61,2.29,2.29,0,0,1-.63-1.72Z"/><path class="cls-1" d="M184.84,422.91a5.12,5.12,0,0,1-2.63-.67,4.55,4.55,0,0,1-1.75-1.76,5,5,0,0,1-.59-2.4,5.27,5.27,0,0,1,.59-2.47,4.58,4.58,0,0,1,1.75-1.8,5.14,5.14,0,0,1,2.65-.67,5.32,5.32,0,0,1,2.06.39,4.47,4.47,0,0,1,1.55,1.07,4.65,4.65,0,0,1,1,1.54,4.93,4.93,0,0,1,.34,1.84,5.82,5.82,0,0,1-.05.81h-7.3a2.5,2.5,0,0,0,.81,1.72,2.47,2.47,0,0,0,1.7.64,2.78,2.78,0,0,0,1.36-.35,1.85,1.85,0,0,0,.87-.93l2.07.58a4.07,4.07,0,0,1-1.69,1.78A5.31,5.31,0,0,1,184.84,422.91Zm-2.47-5.65h4.93a2.64,2.64,0,0,0-.79-1.72,2.34,2.34,0,0,0-1.69-.65,2.38,2.38,0,0,0-1.67.65A2.61,2.61,0,0,0,182.37,417.26Z"/><path class="cls-1" d="M195.8,420a2.64,2.64,0,0,1,1.13-2.22,4.72,4.72,0,0,1,2.93-.85,6,6,0,0,1,2.26.38v-.5a1.75,1.75,0,0,0-.53-1.39,2.28,2.28,0,0,0-1.58-.48,3.91,3.91,0,0,0-1.44.26,8,8,0,0,0-1.5.8l-.78-1.58a7.19,7.19,0,0,1,4-1.23,4.48,4.48,0,0,1,3.14,1,3.66,3.66,0,0,1,1.12,2.88v3a.91.91,0,0,0,.13.54.59.59,0,0,0,.45.19v2a4.74,4.74,0,0,1-1,.13,1.63,1.63,0,0,1-1.07-.31,1.25,1.25,0,0,1-.47-.81l-.06-.48a4.24,4.24,0,0,1-1.52,1.22,4.49,4.49,0,0,1-1.88.43,3.36,3.36,0,0,1-2.34-.84A2.76,2.76,0,0,1,195.8,420Zm5.88.48a1.26,1.26,0,0,0,.44-.82v-1a4.94,4.94,0,0,0-1.89-.38,2.69,2.69,0,0,0-1.54.41,1.24,1.24,0,0,0-.6,1.07,1.29,1.29,0,0,0,.46,1,1.76,1.76,0,0,0,1.22.41,2.72,2.72,0,0,0,1-.2A2.54,2.54,0,0,0,201.68,420.43Z"/><path class="cls-1" d="M206.65,418a5.61,5.61,0,0,1,.54-2.46,4.25,4.25,0,0,1,1.51-1.76,3.75,3.75,0,0,1,2.17-.65,3.58,3.58,0,0,1,1.85.49,3.77,3.77,0,0,1,1.33,1.33v-5.37h2.42V420a.92.92,0,0,0,.12.54.55.55,0,0,0,.43.19v2a5,5,0,0,1-1,.13,1.73,1.73,0,0,1-1.06-.32,1.15,1.15,0,0,1-.48-.85l0-.59a3.41,3.41,0,0,1-1.4,1.34,4,4,0,0,1-1.88.47,4.28,4.28,0,0,1-2.31-.65,4.42,4.42,0,0,1-1.6-1.77A5.39,5.39,0,0,1,206.65,418Zm7.4,1.27V417a2.91,2.91,0,0,0-1-1.31,2.34,2.34,0,0,0-1.42-.53,2.21,2.21,0,0,0-1.77.86,3.09,3.09,0,0,0-.7,2,2.8,2.8,0,0,0,.74,2,2.47,2.47,0,0,0,3.24.35A2.25,2.25,0,0,0,214.05,419.28Z"/><path class="cls-1" d="M221.79,422.73l-3.48-9.43h2.5l2.38,7.24,2.39-7.24h2.29l-3.45,9.43Z"/><path class="cls-1" d="M233.65,422.91a5.09,5.09,0,0,1-2.63-.67,4.48,4.48,0,0,1-1.75-1.76,4.91,4.91,0,0,1-.6-2.4,5.16,5.16,0,0,1,.6-2.47,4.52,4.52,0,0,1,1.75-1.8,5.13,5.13,0,0,1,2.64-.67,5.37,5.37,0,0,1,2.07.39,4.47,4.47,0,0,1,1.55,1.07,5,5,0,0,1,1,1.54,5.14,5.14,0,0,1,.34,1.84,4.47,4.47,0,0,1-.06.81h-7.29a2.5,2.5,0,0,0,.81,1.72,2.44,2.44,0,0,0,1.69.64,2.82,2.82,0,0,0,1.37-.35,1.9,1.9,0,0,0,.87-.93l2.06.58a4,4,0,0,1-1.69,1.78A5.27,5.27,0,0,1,233.65,422.91Zm-2.47-5.65h4.93a2.65,2.65,0,0,0-.8-1.72,2.33,2.33,0,0,0-1.68-.65,2.37,2.37,0,0,0-1.67.65A2.61,2.61,0,0,0,231.18,417.26Z"/><path class="cls-1" d="M246.11,415.39a4.44,4.44,0,0,0-2,.44,2.56,2.56,0,0,0-1.23,1.2v5.7h-2.4V413.3h2.21v2a4.3,4.3,0,0,1,1.28-1.53,2.91,2.91,0,0,1,1.64-.61,4.06,4.06,0,0,1,.48,0Z"/><path class="cls-1" d="M253.56,422.25a6.56,6.56,0,0,1-2.67.64,3.1,3.1,0,0,1-.94-.13,2.4,2.4,0,0,1-.78-.4,1.7,1.7,0,0,1-.53-.72,2.72,2.72,0,0,1-.2-1.07v-5.41H247.2V413.3h1.24v-3.05h2.42v3.05h2v1.86h-2v4.6q0,.93.9.93a3.51,3.51,0,0,0,1.31-.35Z"/><path class="cls-1" d="M255.26,412v-2.4h2.41V412Zm0,10.74V413.3h2.41v9.43Z"/><path class="cls-1" d="M263.77,422.91a6.7,6.7,0,0,1-2.32-.4,5.33,5.33,0,0,1-1.87-1.16l.86-1.57a5.33,5.33,0,0,0,3.25,1.34,2.11,2.11,0,0,0,1.12-.26.85.85,0,0,0,.42-.75,1.25,1.25,0,0,0,0-.21.38.38,0,0,0-.09-.18l-.12-.14a.59.59,0,0,0-.18-.13l-.22-.1a1.8,1.8,0,0,0-.28-.11l-.3-.1-.37-.1-.4-.12c-.46-.15-.84-.28-1.13-.4a5.75,5.75,0,0,1-.87-.41,2.36,2.36,0,0,1-.65-.5,2.1,2.1,0,0,1-.36-.62,2.16,2.16,0,0,1-.14-.83,2.66,2.66,0,0,1,1-2.21,4.27,4.27,0,0,1,2.77-.83,4.92,4.92,0,0,1,3.54,1.34l-1,1.52a4.47,4.47,0,0,0-2.68-1.08,2.2,2.2,0,0,0-1.05.23.79.79,0,0,0-.41.75.75.75,0,0,0,.37.69,6.18,6.18,0,0,0,1.34.5c.52.15.94.28,1.24.39a7.57,7.57,0,0,1,.95.41,2.65,2.65,0,0,1,.74.51,2.23,2.23,0,0,1,.4.65,2.29,2.29,0,0,1,.16.9,2.6,2.6,0,0,1-1,2.18A4.32,4.32,0,0,1,263.77,422.91Z"/><path class="cls-1" d="M269.64,412v-2.4h2.41V412Zm0,10.74V413.3h2.41v9.43Z"/><path class="cls-1" d="M283.44,422.73H281v-5.29c0-1.45-.5-2.18-1.49-2.18a2.35,2.35,0,0,0-1.47.57,2.85,2.85,0,0,0-1,1.39v5.51h-2.4V413.3h2.18v1.75a3.63,3.63,0,0,1,1.52-1.4,4.8,4.8,0,0,1,2.22-.51,3.14,3.14,0,0,1,1.2.21,2.29,2.29,0,0,1,.82.56,2.68,2.68,0,0,1,.5.84,4.72,4.72,0,0,1,.25,1,7.45,7.45,0,0,1,.07,1.1Z"/><path class="cls-1" d="M285.43,418a5.42,5.42,0,0,1,.55-2.46,4.37,4.37,0,0,1,1.56-1.76,4.1,4.1,0,0,1,2.28-.65,3.75,3.75,0,0,1,1.9.48,4.16,4.16,0,0,1,1.4,1.34V413.3h2.11v9a4.16,4.16,0,0,1-.69,2.38,4.23,4.23,0,0,1-1.86,1.55,6.4,6.4,0,0,1-2.69.53,6,6,0,0,1-2.55-.5,5.06,5.06,0,0,1-1.86-1.47l1.31-1.27a3.83,3.83,0,0,0,1.36,1,4.16,4.16,0,0,0,1.74.38,3.4,3.4,0,0,0,1.08-.16,2.77,2.77,0,0,0,.9-.47,2.11,2.11,0,0,0,.62-.83,3.1,3.1,0,0,0,.22-1.18V421.1a3.2,3.2,0,0,1-1.31,1.24,3.8,3.8,0,0,1-1.82.45,3.93,3.93,0,0,1-2.21-.65A4.39,4.39,0,0,1,286,420.4,5.3,5.3,0,0,1,285.43,418Zm7.38,1.27V417a3,3,0,0,0-1-1.33,2.4,2.4,0,0,0-1.45-.51,2.14,2.14,0,0,0-1.76.87,3.16,3.16,0,0,0-.69,2,2.8,2.8,0,0,0,.74,2,2.49,2.49,0,0,0,3.26.35A2.54,2.54,0,0,0,292.81,419.28Z"/><path class="cls-3" d="M340.55,464.48a1.35,1.35,0,0,1-1.35-1.35V1.34a1.35,1.35,0,0,1,2.69,0V463.13A1.34,1.34,0,0,1,340.55,464.48Z"/></g></g></svg>