<svg xmlns="http://www.w3.org/2000/svg" viewBox="0 0 1126.3 549.58"><defs><style>.cls-1{fill:#00324a;}.cls-2{fill:#ff574a;}.cls-3{fill:#fff;}</style></defs><title>17</title><g id="Capa_2" data-name="Capa 2"><g id="Layer_1" data-name="Layer 1"><path class="cls-1" d="M62.6,475.72a6,6,0,0,1,3,.75,4.76,4.76,0,0,1,1.95,2l-1.91,1.32a3,3,0,0,0-.86-1.13,3.27,3.27,0,0,0-1.1-.61,4.09,4.09,0,0,0-1.17-.17,3.46,3.46,0,0,0-1.62.38,3.16,3.16,0,0,0-1.17,1,4.79,4.79,0,0,0-.69,1.35,5.3,5.3,0,0,0-.23,1.53,4.9,4.9,0,0,0,.46,2.12,4.06,4.06,0,0,0,1.34,1.59,3.35,3.35,0,0,0,1.94.6,4.17,4.17,0,0,0,1.21-.18,3.44,3.44,0,0,0,1.13-.65,3,3,0,0,0,.82-1.11l2,1.17a3.9,3.9,0,0,1-1.25,1.6,5.67,5.67,0,0,1-1.9,1,6.7,6.7,0,0,1-2.11.34,5.82,5.82,0,0,1-3.76-1.38,7.38,7.38,0,0,1-1.3-1.48,6.71,6.71,0,0,1-1.14-3.72,6.36,6.36,0,0,1,.44-2.31,6.79,6.79,0,0,1,1.22-2,5.63,5.63,0,0,1,2-1.46A6.19,6.19,0,0,1,62.6,475.72Z"/><path class="cls-1" d="M74.8,481.22a4.66,4.66,0,0,0-2,.44,2.5,2.5,0,0,0-1.22,1.2v5.71H69.18v-9.43h2.21v2a4.51,4.51,0,0,1,1.28-1.53,3,3,0,0,1,1.64-.61,4.28,4.28,0,0,1,.49,0Z"/><path class="cls-1" d="M75.42,483.86a5.13,5.13,0,0,1,.35-1.87,5,5,0,0,1,1-1.56,4.46,4.46,0,0,1,1.57-1.07,5.32,5.32,0,0,1,2.06-.39,5,5,0,0,1,2.62.68,4.52,4.52,0,0,1,1.72,1.78,5.14,5.14,0,0,1,.59,2.43,5.08,5.08,0,0,1-.35,1.86,4.63,4.63,0,0,1-1,1.56,4.42,4.42,0,0,1-1.56,1.07,5.29,5.29,0,0,1-2.06.39,5.22,5.22,0,0,1-1.7-.26,4.5,4.5,0,0,1-1.38-.71,5.18,5.18,0,0,1-1-1.07,4.36,4.36,0,0,1-.64-1.34A5,5,0,0,1,75.42,483.86Zm5,2.83a2.26,2.26,0,0,0,1.75-.8,3,3,0,0,0,.71-2,2.93,2.93,0,0,0-.71-2,2.33,2.33,0,0,0-3.51,0,3.28,3.28,0,0,0,0,4.06A2.25,2.25,0,0,0,80.38,486.69Z"/><path class="cls-1" d="M90.4,488.74a6.62,6.62,0,0,1-2.32-.4,5.28,5.28,0,0,1-1.88-1.16l.87-1.57A5.28,5.28,0,0,0,90.31,487a2.17,2.17,0,0,0,1.13-.26.82.82,0,0,0,.42-.75.66.66,0,0,0,0-.21.38.38,0,0,0-.08-.17l-.12-.15a.87.87,0,0,0-.19-.13l-.22-.1-.28-.11-.3-.09-.37-.11-.39-.12c-.46-.14-.84-.28-1.14-.39a7.71,7.71,0,0,1-.87-.42,2.32,2.32,0,0,1-.65-.5,2,2,0,0,1-.36-.62,2.37,2.37,0,0,1-.14-.83,2.67,2.67,0,0,1,1-2.21,4.36,4.36,0,0,1,2.78-.83,5,5,0,0,1,3.54,1.34l-1,1.53a4.47,4.47,0,0,0-2.68-1.08,2.14,2.14,0,0,0-1,.22.8.8,0,0,0-.42.75.77.77,0,0,0,.37.69,6,6,0,0,0,1.35.5c.52.15.93.28,1.24.39a8.15,8.15,0,0,1,.94.41,2.51,2.51,0,0,1,.74.51,2.17,2.17,0,0,1,.41.66,2.4,2.4,0,0,1,.16.89,2.63,2.63,0,0,1-1,2.19A4.36,4.36,0,0,1,90.4,488.74Z"/><path class="cls-1" d="M99.28,488.74a6.66,6.66,0,0,1-2.32-.4,5.33,5.33,0,0,1-1.87-1.16l.86-1.57A5.33,5.33,0,0,0,99.19,487a2.15,2.15,0,0,0,1.13-.26.82.82,0,0,0,.42-.75,1.25,1.25,0,0,0,0-.21.56.56,0,0,0-.09-.17,1,1,0,0,0-.12-.15.59.59,0,0,0-.18-.13l-.22-.1-.28-.11-.31-.09-.36-.11-.4-.12c-.46-.14-.84-.28-1.13-.39a7,7,0,0,1-.87-.42,2.18,2.18,0,0,1-.65-.5,1.81,1.81,0,0,1-.36-.62,2.16,2.16,0,0,1-.14-.83,2.69,2.69,0,0,1,1-2.21,4.38,4.38,0,0,1,2.78-.83,5,5,0,0,1,3.54,1.34l-1,1.53a4.47,4.47,0,0,0-2.68-1.08,2.21,2.21,0,0,0-1,.22.81.81,0,0,0-.41.75.75.75,0,0,0,.37.69,5.69,5.69,0,0,0,1.34.5c.52.15.94.28,1.24.39a7.57,7.57,0,0,1,1,.41,2.65,2.65,0,0,1,.74.51,2.15,2.15,0,0,1,.4.66,2.21,2.21,0,0,1,.16.89,2.62,2.62,0,0,1-1,2.19A4.39,4.39,0,0,1,99.28,488.74Z"/><path class="cls-1" d="M104.64,484.72v-2.18h5.45v2.18Z"/><path class="cls-1" d="M111.64,483.85a5.55,5.55,0,0,1,.54-2.46,4.27,4.27,0,0,1,1.5-1.77,3.88,3.88,0,0,1,2.18-.65,3.58,3.58,0,0,1,1.85.49,3.85,3.85,0,0,1,1.33,1.33v-5.36h2.42v10.44a1,1,0,0,0,.12.55.58.58,0,0,0,.43.19v2a5.71,5.71,0,0,1-1,.12,1.76,1.76,0,0,1-1.07-.32,1.15,1.15,0,0,1-.47-.85l0-.59a3.47,3.47,0,0,1-1.4,1.34,4,4,0,0,1-1.88.47,4.2,4.2,0,0,1-2.31-.65,4.35,4.35,0,0,1-1.6-1.77A5.38,5.38,0,0,1,111.64,483.85Zm7.4,1.26v-2.25a2.91,2.91,0,0,0-1-1.31,2.33,2.33,0,0,0-1.43-.52,2.19,2.19,0,0,0-1.76.85,3.1,3.1,0,0,0-.71,2,2.81,2.81,0,0,0,.75,2,2.39,2.39,0,0,0,1.86.8,2.46,2.46,0,0,0,1.38-.45A2.25,2.25,0,0,0,119,485.11Z"/><path class="cls-1" d="M128.2,488.74a5.09,5.09,0,0,1-2.63-.67,4.48,4.48,0,0,1-1.75-1.76,4.91,4.91,0,0,1-.6-2.4,5.16,5.16,0,0,1,.6-2.47,4.56,4.56,0,0,1,1.75-1.79,5.05,5.05,0,0,1,2.65-.68,5.32,5.32,0,0,1,2.06.39,4.47,4.47,0,0,1,1.55,1.07,4.82,4.82,0,0,1,1,1.54,5,5,0,0,1,.34,1.84,5.61,5.61,0,0,1,0,.81h-7.3a2.5,2.5,0,0,0,.81,1.72,2.47,2.47,0,0,0,1.7.64,2.7,2.7,0,0,0,1.36-.35,1.85,1.85,0,0,0,.87-.93l2.06.58a4.09,4.09,0,0,1-1.69,1.79A5.24,5.24,0,0,1,128.2,488.74Zm-2.47-5.65h4.93a2.65,2.65,0,0,0-.8-1.72,2.37,2.37,0,0,0-1.68-.65,2.33,2.33,0,0,0-1.67.66A2.58,2.58,0,0,0,125.73,483.09Z"/><path class="cls-1" d="M136.86,488.57l-3.48-9.43h2.51l2.37,7.23,2.4-7.23H143l-3.46,9.43Z"/><path class="cls-1" d="M144.22,477.82v-2.39h2.41v2.39Zm0,10.75v-9.43h2.41v9.43Z"/><path class="cls-1" d="M153.2,488.74a5.18,5.18,0,0,1-2.06-.4,4.37,4.37,0,0,1-1.58-1.07,4.71,4.71,0,0,1-1-1.56,4.89,4.89,0,0,1-.36-1.86,5.08,5.08,0,0,1,.59-2.43,4.62,4.62,0,0,1,1.74-1.77,5.51,5.51,0,0,1,5.25,0,4.11,4.11,0,0,1,1.66,1.77l-2.36.72a2.14,2.14,0,0,0-.81-.8,2.35,2.35,0,0,0-2.87.51,2.87,2.87,0,0,0-.71,2,3,3,0,0,0,.72,2,2.25,2.25,0,0,0,1.75.81,2.35,2.35,0,0,0,1.19-.31,1.84,1.84,0,0,0,.77-.8l2.35.72a4,4,0,0,1-1.63,1.77A5.09,5.09,0,0,1,153.2,488.74Z"/><path class="cls-1" d="M163.25,488.74a5.09,5.09,0,0,1-2.63-.67,4.48,4.48,0,0,1-1.75-1.76,4.91,4.91,0,0,1-.6-2.4,5.16,5.16,0,0,1,.6-2.47,4.56,4.56,0,0,1,1.75-1.79,5.05,5.05,0,0,1,2.65-.68,5.32,5.32,0,0,1,2.06.39,4.47,4.47,0,0,1,1.55,1.07,4.65,4.65,0,0,1,1,1.54,5,5,0,0,1,.34,1.84,5.61,5.61,0,0,1-.05.81h-7.3a2.5,2.5,0,0,0,.81,1.72,2.47,2.47,0,0,0,1.7.64,2.7,2.7,0,0,0,1.36-.35,1.85,1.85,0,0,0,.87-.93l2.06.58a4.09,4.09,0,0,1-1.69,1.79A5.24,5.24,0,0,1,163.25,488.74Zm-2.47-5.65h4.93a2.65,2.65,0,0,0-.8-1.72,2.37,2.37,0,0,0-1.68-.65,2.33,2.33,0,0,0-1.67.66A2.58,2.58,0,0,0,160.78,483.09Z"/><path class="cls-1" d="M169.87,490.64l.48-2.14h-.76V486h2.09v2.53l-.74,2.14Z"/><path class="cls-1" d="M66.05,507.57H63.64v-5.29a2.8,2.8,0,0,0-.38-1.64,1.23,1.23,0,0,0-1.08-.54,2,2,0,0,0-1.35.55,3.21,3.21,0,0,0-.9,1.42v5.5H57.52v-5.29c0-1.46-.49-2.18-1.46-2.18a2,2,0,0,0-1.35.54,2.85,2.85,0,0,0-.9,1.42v5.51H51.4v-9.43h2.18v1.74A3.68,3.68,0,0,1,55,498.47a4.23,4.23,0,0,1,2.07-.5,2.74,2.74,0,0,1,1.79.56,2.51,2.51,0,0,1,.87,1.44,4.07,4.07,0,0,1,1.46-1.48,3.91,3.91,0,0,1,2-.52q2.84,0,2.83,3.71Z"/><path class="cls-1" d="M68.06,504v-5.9h2.41v5.37c0,1.46.52,2.18,1.57,2.18a2.4,2.4,0,0,0,1.38-.44,3.11,3.11,0,0,0,1-1.27v-5.84h2.41v6.73a.87.87,0,0,0,.13.55.63.63,0,0,0,.45.19v2a6,6,0,0,1-1,.1,1.84,1.84,0,0,1-1.06-.29,1.14,1.14,0,0,1-.47-.82l0-.76a4,4,0,0,1-1.61,1.45,4.77,4.77,0,0,1-2.19.49,2.65,2.65,0,0,1-2.21-.94A4.36,4.36,0,0,1,68.06,504Z"/><path class="cls-1" d="M79.25,494.43h2.41v10.11a1.37,1.37,0,0,0,.2.86.76.76,0,0,0,.61.24,2.65,2.65,0,0,0,1.13-.25l.33,1.83a5.08,5.08,0,0,1-1.12.36,6.54,6.54,0,0,1-1.19.13,2.41,2.41,0,0,1-1.74-.61,2.26,2.26,0,0,1-.63-1.71Z"/><path class="cls-1" d="M90.52,507.08a6.56,6.56,0,0,1-2.66.64,3.12,3.12,0,0,1-1-.13,2.4,2.4,0,0,1-.78-.4,1.88,1.88,0,0,1-.53-.72,2.72,2.72,0,0,1-.2-1.07V500H84.17v-1.85H85.4v-3.06h2.42v3.06h2V500h-2v4.61c0,.61.32.92.9.92a3.76,3.76,0,0,0,1.32-.34Z"/><path class="cls-1" d="M91.78,496.82v-2.39h2.4v2.39Zm0,10.75v-9.43h2.4v9.43Z"/><path class="cls-1" d="M96.31,503.72v-2.18h5.45v2.18Z"/><path class="cls-1" d="M106.3,505.91v5.49h-2.41V498.14H106v1.61a3.74,3.74,0,0,1,3.25-1.78,4.07,4.07,0,0,1,2.26.66,4.43,4.43,0,0,1,1.58,1.77,5.24,5.24,0,0,1,.57,2.43,5.67,5.67,0,0,1-.53,2.49,4.28,4.28,0,0,1-1.47,1.77,3.64,3.64,0,0,1-2.12.65,3.8,3.8,0,0,1-1.92-.48A3.43,3.43,0,0,1,106.3,505.91Zm4.89-3.08a2.84,2.84,0,0,0-.75-2,2.45,2.45,0,0,0-3.23-.35,2.2,2.2,0,0,0-.91,1.13v2.21a3.1,3.1,0,0,0,1,1.34,2.25,2.25,0,0,0,1.43.53,2.16,2.16,0,0,0,1.76-.85A3.06,3.06,0,0,0,111.19,502.83Z"/><path class="cls-1" d="M115.28,494.43h2.41v10.11a1.3,1.3,0,0,0,.2.86.75.75,0,0,0,.61.24,2.69,2.69,0,0,0,1.13-.25l.32,1.83a4.82,4.82,0,0,1-1.11.36,6.64,6.64,0,0,1-1.19.13,2.43,2.43,0,0,1-1.75-.61,2.3,2.3,0,0,1-.62-1.71Z"/><path class="cls-1" d="M120.35,504.78a2.66,2.66,0,0,1,1.12-2.22,4.78,4.78,0,0,1,2.93-.85,6,6,0,0,1,2.27.38v-.5a1.8,1.8,0,0,0-.53-1.39,2.3,2.3,0,0,0-1.58-.48,3.91,3.91,0,0,0-1.44.26,7.4,7.4,0,0,0-1.5.8l-.79-1.58a7.19,7.19,0,0,1,4-1.23,4.57,4.57,0,0,1,3.15,1,3.69,3.69,0,0,1,1.12,2.88v3a.87.87,0,0,0,.13.55.63.63,0,0,0,.45.19v2a5.52,5.52,0,0,1-1,.12,1.73,1.73,0,0,1-1.08-.3,1.34,1.34,0,0,1-.47-.82l0-.48a4.17,4.17,0,0,1-1.53,1.22,4.29,4.29,0,0,1-1.87.43,3.37,3.37,0,0,1-2.35-.84A2.74,2.74,0,0,1,120.35,504.78Zm5.87.48a1.24,1.24,0,0,0,.45-.82v-1a5,5,0,0,0-1.89-.38,2.73,2.73,0,0,0-1.55.41,1.24,1.24,0,0,0-.6,1.07,1.32,1.32,0,0,0,.46,1,1.73,1.73,0,0,0,1.22.41,2.91,2.91,0,0,0,1-.19A2.61,2.61,0,0,0,126.22,505.26Z"/><path class="cls-1" d="M136.89,507.08a6.56,6.56,0,0,1-2.66.64,3.16,3.16,0,0,1-.95-.13,2.4,2.4,0,0,1-.78-.4,1.88,1.88,0,0,1-.53-.72,2.73,2.73,0,0,1-.19-1.07V500h-1.24v-1.85h1.24v-3.06h2.41v3.06h2V500h-2v4.61c0,.61.32.92.9.92a3.76,3.76,0,0,0,1.32-.34Z"/><path class="cls-1" d="M138.68,507.57v-7.1h-1.24v-1.83h1.24v-.57a4.25,4.25,0,0,1,.86-2.79,2.84,2.84,0,0,1,2.3-1,5.44,5.44,0,0,1,2.32.56l-.48,1.82a2.76,2.76,0,0,0-1.32-.34,1.09,1.09,0,0,0-.94.43,2.13,2.13,0,0,0-.32,1.26v.67h2.3v1.83h-2.3v7.1Z"/><path class="cls-1" d="M144,502.86a4.94,4.94,0,0,1,.36-1.87,5,5,0,0,1,1-1.56,4.55,4.55,0,0,1,1.57-1.07A5.36,5.36,0,0,1,149,498a5.07,5.07,0,0,1,2.63.68,4.59,4.59,0,0,1,1.72,1.78,5.13,5.13,0,0,1,.58,2.43,5.07,5.07,0,0,1-.34,1.86,5,5,0,0,1-1,1.56,4.61,4.61,0,0,1-1.56,1.07,5.37,5.37,0,0,1-2.07.39,5.16,5.16,0,0,1-1.69-.26,4.5,4.5,0,0,1-1.38-.71,4.7,4.7,0,0,1-1-1.07,4.38,4.38,0,0,1-.65-1.34A5.34,5.34,0,0,1,144,502.86Zm5,2.83a2.24,2.24,0,0,0,1.75-.8,3,3,0,0,0,.71-2,2.88,2.88,0,0,0-.71-2A2.21,2.21,0,0,0,149,500a2.25,2.25,0,0,0-1.76.8,3,3,0,0,0-.71,2,3,3,0,0,0,.71,2A2.23,2.23,0,0,0,149,505.69Z"/><path class="cls-1" d="M161.17,500.22a4.66,4.66,0,0,0-2,.44,2.5,2.5,0,0,0-1.22,1.2v5.71h-2.41v-9.43h2.21v2a4.51,4.51,0,0,1,1.28-1.53,3,3,0,0,1,1.64-.61,4.28,4.28,0,0,1,.49,0Z"/><path class="cls-1" d="M177.16,507.57h-2.41v-5.29a2.88,2.88,0,0,0-.37-1.64,1.26,1.26,0,0,0-1.09-.54,2,2,0,0,0-1.34.55,3.14,3.14,0,0,0-.91,1.42v5.5h-2.41v-5.29c0-1.46-.49-2.18-1.46-2.18a2,2,0,0,0-1.35.54,2.85,2.85,0,0,0-.9,1.42v5.51h-2.41v-9.43h2.18v1.74a3.68,3.68,0,0,1,1.44-1.41,4.23,4.23,0,0,1,2.07-.5,2.74,2.74,0,0,1,1.79.56,2.51,2.51,0,0,1,.87,1.44,4.07,4.07,0,0,1,1.46-1.48,3.91,3.91,0,0,1,2-.52q2.83,0,2.83,3.71Z"/><path class="cls-1" d="M66.46,523.78a2.66,2.66,0,0,1,1.12-2.22,4.78,4.78,0,0,1,2.93-.85,6,6,0,0,1,2.27.38v-.5a1.8,1.8,0,0,0-.53-1.39,2.3,2.3,0,0,0-1.58-.48,3.87,3.87,0,0,0-1.44.26,7.72,7.72,0,0,0-1.51.8l-.78-1.58a7.19,7.19,0,0,1,4-1.23,4.57,4.57,0,0,1,3.15,1,3.69,3.69,0,0,1,1.12,2.88v3a.87.87,0,0,0,.13.55.63.63,0,0,0,.45.19v2a5.52,5.52,0,0,1-1,.12,1.73,1.73,0,0,1-1.08-.3,1.34,1.34,0,0,1-.47-.82l0-.48a4.17,4.17,0,0,1-1.53,1.22,4.29,4.29,0,0,1-1.87.43,3.37,3.37,0,0,1-2.35-.84A2.74,2.74,0,0,1,66.46,523.78Zm5.87.48a1.24,1.24,0,0,0,.45-.82v-1a5,5,0,0,0-1.89-.38,2.73,2.73,0,0,0-1.55.41,1.24,1.24,0,0,0-.6,1.07,1.32,1.32,0,0,0,.46,1,1.73,1.73,0,0,0,1.22.41,2.91,2.91,0,0,0,1-.19A2.61,2.61,0,0,0,72.33,524.26Z"/><path class="cls-1" d="M76.86,521.85a5.68,5.68,0,0,1,.53-2.46,4.29,4.29,0,0,1,1.51-1.77,3.85,3.85,0,0,1,2.18-.65,3.58,3.58,0,0,1,1.85.49,3.94,3.94,0,0,1,1.33,1.33v-5.36h2.41v10.44a.87.87,0,0,0,.13.55.56.56,0,0,0,.43.19v2a5.71,5.71,0,0,1-1,.12,1.76,1.76,0,0,1-1.07-.32,1.2,1.2,0,0,1-.48-.85l0-.59a3.47,3.47,0,0,1-1.4,1.34,4,4,0,0,1-1.88.47,4.15,4.15,0,0,1-2.31-.65,4.35,4.35,0,0,1-1.6-1.77A5.38,5.38,0,0,1,76.86,521.85Zm7.4,1.26v-2.25a3,3,0,0,0-1-1.31,2.36,2.36,0,0,0-1.43-.52,2.2,2.2,0,0,0-1.77.85,3.15,3.15,0,0,0-.7,2,2.84,2.84,0,0,0,.74,2,2.43,2.43,0,0,0,1.87.8,2.46,2.46,0,0,0,1.38-.45A2.3,2.3,0,0,0,84.26,523.11Z"/><path class="cls-1" d="M91.54,526.57l-3.48-9.43h2.51l2.37,7.23,2.4-7.23h2.28l-3.45,9.43Z"/><path class="cls-1" d="M103,526.74a5.12,5.12,0,0,1-2.63-.67,4.55,4.55,0,0,1-1.75-1.76,5,5,0,0,1-.59-2.4,5.27,5.27,0,0,1,.59-2.47,4.63,4.63,0,0,1,1.75-1.79A5.05,5.05,0,0,1,103,517a5.29,5.29,0,0,1,2.06.39,4.47,4.47,0,0,1,1.55,1.07,4.65,4.65,0,0,1,1,1.54,5,5,0,0,1,.34,1.84,5.61,5.61,0,0,1,0,.81h-7.3a2.5,2.5,0,0,0,.81,1.72,2.47,2.47,0,0,0,1.7.64,2.74,2.74,0,0,0,1.37-.35,1.87,1.87,0,0,0,.86-.93l2.07.58a4.15,4.15,0,0,1-1.69,1.79A5.3,5.3,0,0,1,103,526.74Zm-2.47-5.65h4.93a2.64,2.64,0,0,0-.79-1.72,2.38,2.38,0,0,0-1.69-.65,2.35,2.35,0,0,0-1.67.66A2.58,2.58,0,0,0,100.48,521.09Z"/><path class="cls-1" d="M115,519.22a4.66,4.66,0,0,0-2,.44,2.5,2.5,0,0,0-1.22,1.2v5.71h-2.41v-9.43h2.21v2a4.51,4.51,0,0,1,1.28-1.53,3,3,0,0,1,1.64-.61,4.28,4.28,0,0,1,.49,0Z"/><path class="cls-1" d="M122,526.08a6.56,6.56,0,0,1-2.66.64,3.16,3.16,0,0,1-1-.13,2.26,2.26,0,0,1-.77-.4,1.8,1.8,0,0,1-.54-.72,2.73,2.73,0,0,1-.19-1.07V519h-1.24v-1.85h1.24v-3.06h2.41v3.06h2V519h-2v4.61c0,.61.32.92.9.92a3.76,3.76,0,0,0,1.32-.34Z"/><path class="cls-1" d="M123.22,515.82v-2.39h2.41v2.39Zm0,10.75v-9.43h2.41v9.43Z"/><path class="cls-1" d="M131.28,526.74a6.62,6.62,0,0,1-2.32-.4,5.24,5.24,0,0,1-1.87-1.16l.86-1.57a5.28,5.28,0,0,0,3.24,1.34,2.15,2.15,0,0,0,1.13-.26.82.82,0,0,0,.42-.75,1.25,1.25,0,0,0,0-.21.56.56,0,0,0-.09-.17l-.12-.15a.87.87,0,0,0-.19-.13l-.22-.1a2.72,2.72,0,0,0-.28-.11l-.3-.09-.36-.11-.4-.12c-.46-.14-.84-.28-1.14-.39a7.58,7.58,0,0,1-.86-.42,2.06,2.06,0,0,1-.65-.5,1.83,1.83,0,0,1-.37-.62,2.37,2.37,0,0,1-.14-.83,2.67,2.67,0,0,1,1.05-2.21,4.36,4.36,0,0,1,2.78-.83,5,5,0,0,1,3.54,1.34l-1,1.53a4.45,4.45,0,0,0-2.68-1.08,2.14,2.14,0,0,0-1,.22.8.8,0,0,0-.42.75.77.77,0,0,0,.37.69,6,6,0,0,0,1.35.5c.52.15.93.28,1.24.39a7.46,7.46,0,0,1,.94.41,2.51,2.51,0,0,1,.74.51,2.17,2.17,0,0,1,.41.66,2.4,2.4,0,0,1,.16.89,2.6,2.6,0,0,1-1,2.19A4.36,4.36,0,0,1,131.28,526.74Z"/><path class="cls-1" d="M136.69,515.82v-2.39h2.41v2.39Zm0,10.75v-9.43h2.41v9.43Z"/><path class="cls-1" d="M150,526.57h-2.41v-5.29c0-1.46-.49-2.18-1.49-2.18a2.34,2.34,0,0,0-1.47.56,2.75,2.75,0,0,0-1,1.4v5.51h-2.41v-9.43h2.18v1.74a3.69,3.69,0,0,1,1.52-1.4,4.83,4.83,0,0,1,2.22-.51,3.14,3.14,0,0,1,1.2.21,2.33,2.33,0,0,1,.83.56,2.6,2.6,0,0,1,.49.85,4.53,4.53,0,0,1,.26,1,9.36,9.36,0,0,1,.06,1.1Z"/><path class="cls-1" d="M151.58,521.85a5.57,5.57,0,0,1,.55-2.47,4.39,4.39,0,0,1,1.57-1.76A4.13,4.13,0,0,1,156,517a3.71,3.71,0,0,1,1.89.48,4.07,4.07,0,0,1,1.4,1.34v-1.65h2.11v9a4.21,4.21,0,0,1-.68,2.38,4.31,4.31,0,0,1-1.86,1.56,6.6,6.6,0,0,1-2.7.52,5.86,5.86,0,0,1-2.55-.5,5.23,5.23,0,0,1-1.86-1.47l1.31-1.27a3.75,3.75,0,0,0,1.37,1,3.94,3.94,0,0,0,1.73.38,3.71,3.71,0,0,0,1.08-.15,2.78,2.78,0,0,0,.9-.48,2,2,0,0,0,.62-.83,2.92,2.92,0,0,0,.22-1.18v-1.19a3.22,3.22,0,0,1-1.31,1.25,3.88,3.88,0,0,1-1.82.44,4,4,0,0,1-2.21-.65,4.33,4.33,0,0,1-1.51-1.74A5.43,5.43,0,0,1,151.58,521.85Zm7.38,1.26v-2.25a2.92,2.92,0,0,0-1-1.32,2.42,2.42,0,0,0-1.46-.51,2.15,2.15,0,0,0-1.76.86,3.19,3.19,0,0,0-.69,2,2.74,2.74,0,0,0,.75,2,2.48,2.48,0,0,0,3.25.35A2.47,2.47,0,0,0,159,523.11Z"/><path class="cls-1" d="M72.37,545.74a5.27,5.27,0,0,1-2.07-.4,4.46,4.46,0,0,1-1.58-1.07,5.14,5.14,0,0,1-.75-5.85,4.62,4.62,0,0,1,1.74-1.77,5.49,5.49,0,0,1,5.24,0,4.13,4.13,0,0,1,1.67,1.77l-2.36.72a2.14,2.14,0,0,0-.81-.8,2.36,2.36,0,0,0-2.88.51,2.91,2.91,0,0,0-.7,2,3,3,0,0,0,.72,2,2.25,2.25,0,0,0,1.74.81,2.39,2.39,0,0,0,1.2-.31,1.77,1.77,0,0,0,.76-.8l2.36.72A4,4,0,0,1,75,545.07,5.09,5.09,0,0,1,72.37,545.74Z"/><path class="cls-1" d="M77.48,542.78a2.66,2.66,0,0,1,1.12-2.22,4.78,4.78,0,0,1,2.93-.85,6,6,0,0,1,2.27.38v-.5a1.77,1.77,0,0,0-.54-1.39,2.27,2.27,0,0,0-1.57-.48,3.84,3.84,0,0,0-1.44.26,7.72,7.72,0,0,0-1.51.8L78,537.2a7.19,7.19,0,0,1,4-1.23,4.52,4.52,0,0,1,3.14,1,3.66,3.66,0,0,1,1.12,2.88v3a.87.87,0,0,0,.14.55.59.59,0,0,0,.44.19v2a5.34,5.34,0,0,1-1,.12,1.69,1.69,0,0,1-1.08-.3,1.29,1.29,0,0,1-.47-.82l0-.48a4.25,4.25,0,0,1-1.53,1.22,4.34,4.34,0,0,1-1.88.43,3.36,3.36,0,0,1-2.34-.84A2.74,2.74,0,0,1,77.48,542.78Zm5.87.48a1.24,1.24,0,0,0,.45-.82v-1a5,5,0,0,0-1.89-.38,2.7,2.7,0,0,0-1.55.41,1.24,1.24,0,0,0-.6,1.07,1.29,1.29,0,0,0,.46,1,1.72,1.72,0,0,0,1.22.41,2.91,2.91,0,0,0,1-.19A2.72,2.72,0,0,0,83.35,543.26Z"/><path class="cls-1" d="M103.11,545.57H100.7v-5.29a2.88,2.88,0,0,0-.38-1.64,1.23,1.23,0,0,0-1.08-.54,2,2,0,0,0-1.35.55,3,3,0,0,0-.9,1.42v5.5H94.57v-5.29c0-1.46-.49-2.18-1.46-2.18a2.08,2.08,0,0,0-1.35.54,3,3,0,0,0-.9,1.42v5.51H88.45v-9.43h2.18v1.74a3.75,3.75,0,0,1,1.44-1.41,4.28,4.28,0,0,1,2.07-.5,2.74,2.74,0,0,1,1.79.56A2.51,2.51,0,0,1,96.8,538a4,4,0,0,1,1.47-1.48,3.86,3.86,0,0,1,2-.52c1.88,0,2.83,1.24,2.83,3.71Z"/><path class="cls-1" d="M107.61,543.91v5.49h-2.4V536.14h2.11v1.61a3.74,3.74,0,0,1,3.25-1.78,4.09,4.09,0,0,1,2.26.66,4.43,4.43,0,0,1,1.58,1.77,5.24,5.24,0,0,1,.57,2.43,5.82,5.82,0,0,1-.53,2.49,4.28,4.28,0,0,1-1.47,1.77,3.64,3.64,0,0,1-2.12.65,3.8,3.8,0,0,1-1.92-.48A3.52,3.52,0,0,1,107.61,543.91Zm4.9-3.08a2.84,2.84,0,0,0-.75-2,2.42,2.42,0,0,0-1.86-.8,2.46,2.46,0,0,0-1.38.45,2.3,2.3,0,0,0-.91,1.13v2.21a3.2,3.2,0,0,0,1,1.34,2.23,2.23,0,0,0,1.43.53,2.16,2.16,0,0,0,1.76-.85A3.06,3.06,0,0,0,112.51,540.83Z"/><path class="cls-1" d="M116,542.78a2.67,2.67,0,0,1,1.13-2.22,4.76,4.76,0,0,1,2.93-.85,6,6,0,0,1,2.26.38v-.5a1.77,1.77,0,0,0-.53-1.39,2.28,2.28,0,0,0-1.58-.48,3.91,3.91,0,0,0-1.44.26,7.67,7.67,0,0,0-1.5.8l-.78-1.58a7.17,7.17,0,0,1,4-1.23,4.54,4.54,0,0,1,3.14,1,3.66,3.66,0,0,1,1.12,2.88v3a.94.94,0,0,0,.13.55.63.63,0,0,0,.45.19v2a5.43,5.43,0,0,1-1,.12,1.68,1.68,0,0,1-1.07-.3,1.25,1.25,0,0,1-.47-.82l-.06-.48a4.13,4.13,0,0,1-1.52,1.22,4.34,4.34,0,0,1-1.88.43,3.36,3.36,0,0,1-2.34-.84A2.72,2.72,0,0,1,116,542.78Zm5.87.48a1.24,1.24,0,0,0,.45-.82v-1a4.94,4.94,0,0,0-1.89-.38,2.69,2.69,0,0,0-1.54.41,1.24,1.24,0,0,0-.6,1.07,1.29,1.29,0,0,0,.46,1,1.72,1.72,0,0,0,1.22.41,3,3,0,0,0,1-.19A2.57,2.57,0,0,0,121.83,543.26Z"/><path class="cls-1" d="M126.94,534.82v-2.39h2.41v2.39Zm0,10.75v-9.43h2.41v9.43Z"/><path class="cls-1" d="M131,540.85a5.43,5.43,0,0,1,.55-2.47,4.37,4.37,0,0,1,1.56-1.76,4.18,4.18,0,0,1,2.28-.65,3.75,3.75,0,0,1,1.9.48,4.16,4.16,0,0,1,1.4,1.34v-1.65h2.11v9a4.14,4.14,0,0,1-.69,2.38,4.26,4.26,0,0,1-1.86,1.56,6.55,6.55,0,0,1-2.69.52,5.86,5.86,0,0,1-2.55-.5,5.06,5.06,0,0,1-1.86-1.47l1.31-1.27a3.72,3.72,0,0,0,1.36,1,4,4,0,0,0,1.74.38,3.71,3.71,0,0,0,1.08-.15,3,3,0,0,0,.9-.48,2,2,0,0,0,.62-.83,3.1,3.1,0,0,0,.22-1.18v-1.19a3.29,3.29,0,0,1-1.31,1.25,4,4,0,0,1-4-.21,4.26,4.26,0,0,1-1.51-1.74A5.29,5.29,0,0,1,131,540.85Zm7.38,1.26v-2.25a2.94,2.94,0,0,0-1-1.32,2.4,2.4,0,0,0-1.45-.51,2.13,2.13,0,0,0-1.76.86,3.19,3.19,0,0,0-.69,2,2.78,2.78,0,0,0,.74,2,2.49,2.49,0,0,0,3.26.35A2.54,2.54,0,0,0,138.35,542.11Z"/><path class="cls-1" d="M151.7,545.57h-2.41v-5.29c0-1.46-.5-2.18-1.49-2.18a2.34,2.34,0,0,0-1.47.56,2.75,2.75,0,0,0-1,1.4v5.51h-2.41v-9.43h2.18v1.74a3.69,3.69,0,0,1,1.52-1.4,4.83,4.83,0,0,1,2.22-.51,3.14,3.14,0,0,1,1.2.21,2.29,2.29,0,0,1,.82.56,2.62,2.62,0,0,1,.5.85,4.49,4.49,0,0,1,.25,1,7.54,7.54,0,0,1,.07,1.1Z"/><path class="cls-1" d="M157.27,545.74a6.66,6.66,0,0,1-2.32-.4,5.33,5.33,0,0,1-1.87-1.16l.86-1.57a5.33,5.33,0,0,0,3.24,1.34,2.12,2.12,0,0,0,1.13-.26.82.82,0,0,0,.42-.75,1.25,1.25,0,0,0,0-.21.4.4,0,0,0-.09-.17l-.12-.15a.59.59,0,0,0-.18-.13l-.22-.1-.28-.11-.31-.09-.36-.11-.4-.12c-.46-.14-.84-.28-1.13-.39a7,7,0,0,1-.87-.42,2.18,2.18,0,0,1-.65-.5,2,2,0,0,1-.36-.62,2.16,2.16,0,0,1-.14-.83,2.69,2.69,0,0,1,1-2.21,4.38,4.38,0,0,1,2.78-.83,5,5,0,0,1,3.54,1.34l-1,1.53a4.47,4.47,0,0,0-2.68-1.08,2.21,2.21,0,0,0-1.05.22.81.81,0,0,0-.41.75.75.75,0,0,0,.37.69,5.69,5.69,0,0,0,1.34.5c.52.15.94.28,1.24.39a7.57,7.57,0,0,1,.95.41,2.65,2.65,0,0,1,.74.51,2.15,2.15,0,0,1,.4.66,2.21,2.21,0,0,1,.16.89,2.62,2.62,0,0,1-1,2.19A4.39,4.39,0,0,1,157.27,545.74Z"/><path class="cls-1" d="M239.37,488.57V475.79h5.42a3.63,3.63,0,0,1,1.62.37,3.93,3.93,0,0,1,1.3,1,4.9,4.9,0,0,1,.84,1.37,4.19,4.19,0,0,1,.31,1.54,4.63,4.63,0,0,1-.49,2.07,4.22,4.22,0,0,1-1.42,1.58,3.75,3.75,0,0,1-2.07.61h-3v4.28Zm2.48-6.46h2.89a1.39,1.39,0,0,0,1.14-.57,2.4,2.4,0,0,0,.45-1.51,2.13,2.13,0,0,0-.5-1.5,1.55,1.55,0,0,0-1.2-.56h-2.78Z"/><path class="cls-1" d="M256,481.22a4.58,4.58,0,0,0-2,.44,2.56,2.56,0,0,0-1.23,1.2v5.71h-2.41v-9.43h2.22v2a4.3,4.3,0,0,1,1.28-1.53,3,3,0,0,1,1.64-.61,4.06,4.06,0,0,1,.48,0Z"/><path class="cls-1" d="M256.58,483.86a5.13,5.13,0,0,1,.35-1.87,5,5,0,0,1,1-1.56,4.55,4.55,0,0,1,1.57-1.07,5.36,5.36,0,0,1,2.06-.39,5,5,0,0,1,2.62.68,4.55,4.55,0,0,1,1.73,1.78,5.13,5.13,0,0,1,.58,2.43,5.07,5.07,0,0,1-.34,1.86,5,5,0,0,1-1,1.56,4.61,4.61,0,0,1-1.56,1.07,5.37,5.37,0,0,1-2.07.39,5.26,5.26,0,0,1-1.7-.26,4.74,4.74,0,0,1-1.38-.71,5.18,5.18,0,0,1-1-1.07,4.6,4.6,0,0,1-.64-1.34A5,5,0,0,1,256.58,483.86Zm5,2.83a2.24,2.24,0,0,0,1.75-.8,3,3,0,0,0,.71-2,2.93,2.93,0,0,0-.71-2,2.21,2.21,0,0,0-1.75-.8,2.25,2.25,0,0,0-1.76.8,3,3,0,0,0-.71,2,3,3,0,0,0,.71,2A2.23,2.23,0,0,0,261.54,486.69Z"/><path class="cls-1" d="M267.53,483.85a5.43,5.43,0,0,1,.55-2.47,4.37,4.37,0,0,1,1.56-1.76,4.18,4.18,0,0,1,2.28-.65,3.75,3.75,0,0,1,1.9.48,4.16,4.16,0,0,1,1.4,1.34v-1.65h2.11v9a4.14,4.14,0,0,1-.69,2.38,4.26,4.26,0,0,1-1.86,1.56,6.59,6.59,0,0,1-2.69.52,5.94,5.94,0,0,1-2.56-.5,5.23,5.23,0,0,1-1.86-1.47l1.31-1.27a3.84,3.84,0,0,0,1.37,1,4,4,0,0,0,1.74.38,3.81,3.81,0,0,0,1.08-.15,2.83,2.83,0,0,0,.89-.48,2,2,0,0,0,.62-.83,2.92,2.92,0,0,0,.23-1.18v-1.19a3.29,3.29,0,0,1-1.31,1.25,4,4,0,0,1-4-.21,4.26,4.26,0,0,1-1.51-1.74A5.29,5.29,0,0,1,267.53,483.85Zm7.38,1.26v-2.25a2.94,2.94,0,0,0-1-1.32,2.4,2.4,0,0,0-1.45-.51,2.15,2.15,0,0,0-1.77.86,3.18,3.18,0,0,0-.68,2,2.73,2.73,0,0,0,.74,2,2.49,2.49,0,0,0,3.26.35A2.54,2.54,0,0,0,274.91,485.11Z"/><path class="cls-1" d="M285.11,481.22a4.58,4.58,0,0,0-2,.44,2.56,2.56,0,0,0-1.23,1.2v5.71h-2.4v-9.43h2.21v2a4.3,4.3,0,0,1,1.28-1.53,3,3,0,0,1,1.64-.61,4.06,4.06,0,0,1,.48,0Z"/><path class="cls-1" d="M285.75,485.78a2.67,2.67,0,0,1,1.13-2.22,4.76,4.76,0,0,1,2.93-.85,6,6,0,0,1,2.26.38v-.5a1.77,1.77,0,0,0-.53-1.39,2.28,2.28,0,0,0-1.58-.48,3.91,3.91,0,0,0-1.44.26,7.67,7.67,0,0,0-1.5.8l-.78-1.58a7.17,7.17,0,0,1,4-1.23,4.54,4.54,0,0,1,3.14,1,3.66,3.66,0,0,1,1.12,2.88v3a.94.94,0,0,0,.13.55.63.63,0,0,0,.45.19v2a5.43,5.43,0,0,1-1,.12,1.68,1.68,0,0,1-1.07-.3,1.25,1.25,0,0,1-.47-.82l-.06-.48a4.13,4.13,0,0,1-1.52,1.22,4.34,4.34,0,0,1-1.88.43,3.36,3.36,0,0,1-2.34-.84A2.72,2.72,0,0,1,285.75,485.78Zm5.87.48a1.24,1.24,0,0,0,.45-.82v-1a4.94,4.94,0,0,0-1.89-.38,2.69,2.69,0,0,0-1.54.41,1.24,1.24,0,0,0-.6,1.07,1.29,1.29,0,0,0,.46,1,1.72,1.72,0,0,0,1.22.41,3,3,0,0,0,1-.19A2.57,2.57,0,0,0,291.62,486.26Z"/><path class="cls-1" d="M311.38,488.57H309v-5.29a2.88,2.88,0,0,0-.37-1.64,1.26,1.26,0,0,0-1.08-.54,2,2,0,0,0-1.35.55,3,3,0,0,0-.9,1.42v5.5h-2.42v-5.29c0-1.46-.49-2.18-1.46-2.18a2.06,2.06,0,0,0-1.35.54,3,3,0,0,0-.9,1.42v5.51h-2.41v-9.43h2.18v1.74a3.68,3.68,0,0,1,1.44-1.41,4.25,4.25,0,0,1,2.07-.5,2.74,2.74,0,0,1,1.79.56,2.51,2.51,0,0,1,.87,1.44,4.07,4.07,0,0,1,1.46-1.48,3.91,3.91,0,0,1,2-.52q2.83,0,2.83,3.71Z"/><path class="cls-1" d="M328.13,488.57h-2.4v-5.29a2.88,2.88,0,0,0-.38-1.64,1.23,1.23,0,0,0-1.08-.54,2,2,0,0,0-1.35.55,3,3,0,0,0-.9,1.42v5.5H319.6v-5.29c0-1.46-.49-2.18-1.46-2.18a2.08,2.08,0,0,0-1.35.54,3,3,0,0,0-.9,1.42v5.51h-2.41v-9.43h2.18v1.74a3.68,3.68,0,0,1,1.44-1.41,4.28,4.28,0,0,1,2.07-.5,2.74,2.74,0,0,1,1.79.56,2.51,2.51,0,0,1,.87,1.44,4,4,0,0,1,1.47-1.48,3.85,3.85,0,0,1,2-.52q2.83,0,2.83,3.71Z"/><path class="cls-1" d="M329.58,485.78a2.67,2.67,0,0,1,1.13-2.22,4.78,4.78,0,0,1,2.93-.85,6,6,0,0,1,2.26.38v-.5a1.77,1.77,0,0,0-.53-1.39,2.28,2.28,0,0,0-1.58-.48,3.91,3.91,0,0,0-1.44.26,8,8,0,0,0-1.5.8l-.78-1.58a7.19,7.19,0,0,1,4-1.23,4.52,4.52,0,0,1,3.14,1,3.66,3.66,0,0,1,1.12,2.88v3a.94.94,0,0,0,.13.55.63.63,0,0,0,.45.19v2a5.34,5.34,0,0,1-1,.12,1.68,1.68,0,0,1-1.07-.3,1.29,1.29,0,0,1-.47-.82l-.06-.48a4.13,4.13,0,0,1-1.52,1.22,4.34,4.34,0,0,1-1.88.43,3.36,3.36,0,0,1-2.34-.84A2.75,2.75,0,0,1,329.58,485.78Zm5.88.48a1.26,1.26,0,0,0,.44-.82v-1a4.94,4.94,0,0,0-1.89-.38,2.69,2.69,0,0,0-1.54.41,1.24,1.24,0,0,0-.6,1.07,1.29,1.29,0,0,0,.46,1,1.72,1.72,0,0,0,1.22.41,2.91,2.91,0,0,0,1.05-.19A2.72,2.72,0,0,0,335.46,486.26Z"/><path class="cls-1" d="M346.13,488.08a6.56,6.56,0,0,1-2.67.64,3.21,3.21,0,0,1-.95-.13,2.46,2.46,0,0,1-.77-.4,1.8,1.8,0,0,1-.54-.72,2.92,2.92,0,0,1-.19-1.07V481h-1.24v-1.85H341v-3.06h2.42v3.06h2V481h-2v4.61c0,.61.31.92.89.92a3.76,3.76,0,0,0,1.32-.34Z"/><path class="cls-1" d="M347.38,477.82v-2.39h2.41v2.39Zm0,10.75v-9.43h2.41v9.43Z"/><path class="cls-1" d="M356.37,488.74a5.2,5.2,0,0,1-2.07-.4,4.46,4.46,0,0,1-1.58-1.07,5.06,5.06,0,0,1-1-1.56,4.89,4.89,0,0,1-.36-1.86,5,5,0,0,1,.6-2.43,4.48,4.48,0,0,1,1.74-1.77,5,5,0,0,1,2.64-.68,5.09,5.09,0,0,1,2.6.65,4.11,4.11,0,0,1,1.66,1.77l-2.36.72a2.05,2.05,0,0,0-.8-.8,2.36,2.36,0,0,0-2.88.51,3.24,3.24,0,0,0,0,4.06,2.25,2.25,0,0,0,1.75.81,2.35,2.35,0,0,0,1.19-.31,1.79,1.79,0,0,0,.77-.8l2.36.72a4,4,0,0,1-1.64,1.77A5.08,5.08,0,0,1,356.37,488.74Z"/><path class="cls-1" d="M375.71,478h-4.09v10.6h-2.46V478h-4.08v-2.18h10.63Z"/><path class="cls-1" d="M378.6,475.79l3.46,9.82,3.41-9.82h2.61l-4.84,12.78h-2.39L376,475.79Z"/><path class="cls-1" d="M265,504.78a2.66,2.66,0,0,1,1.12-2.22,4.78,4.78,0,0,1,2.93-.85,6,6,0,0,1,2.27.38v-.5a1.8,1.8,0,0,0-.53-1.39,2.3,2.3,0,0,0-1.58-.48,3.84,3.84,0,0,0-1.44.26,7.72,7.72,0,0,0-1.51.8l-.78-1.58a7.19,7.19,0,0,1,4-1.23,4.52,4.52,0,0,1,3.14,1,3.66,3.66,0,0,1,1.13,2.88v3a.87.87,0,0,0,.13.55.61.61,0,0,0,.45.19v2a5.52,5.52,0,0,1-1,.12,1.71,1.71,0,0,1-1.08-.3,1.34,1.34,0,0,1-.47-.82l-.05-.48a4.25,4.25,0,0,1-1.53,1.22,4.29,4.29,0,0,1-1.87.43,3.37,3.37,0,0,1-2.35-.84A2.74,2.74,0,0,1,265,504.78Zm5.87.48a1.24,1.24,0,0,0,.45-.82v-1a5,5,0,0,0-1.89-.38,2.7,2.7,0,0,0-1.55.41,1.24,1.24,0,0,0-.6,1.07,1.32,1.32,0,0,0,.46,1A1.72,1.72,0,0,0,269,506a2.91,2.91,0,0,0,1.05-.19A2.72,2.72,0,0,0,270.87,505.26Z"/><path class="cls-1" d="M275.4,502.85a5.54,5.54,0,0,1,.53-2.46,4.29,4.29,0,0,1,1.51-1.77,3.84,3.84,0,0,1,2.17-.65,3.56,3.56,0,0,1,1.85.49,3.88,3.88,0,0,1,1.34,1.33v-5.36h2.41v10.44a.87.87,0,0,0,.13.55.56.56,0,0,0,.43.19v2a5.71,5.71,0,0,1-1,.12,1.74,1.74,0,0,1-1.07-.32,1.2,1.2,0,0,1-.48-.85l0-.59a3.47,3.47,0,0,1-1.4,1.34,4,4,0,0,1-1.88.47,4.15,4.15,0,0,1-2.31-.65,4.35,4.35,0,0,1-1.6-1.77A5.38,5.38,0,0,1,275.4,502.85Zm7.4,1.26v-2.25a3,3,0,0,0-1-1.31,2.36,2.36,0,0,0-1.43-.52,2.2,2.2,0,0,0-1.77.85,3.09,3.09,0,0,0-.7,2,2.84,2.84,0,0,0,.74,2,2.43,2.43,0,0,0,1.87.8,2.46,2.46,0,0,0,1.38-.45A2.3,2.3,0,0,0,282.8,504.11Z"/><path class="cls-1" d="M290.08,507.57l-3.48-9.43h2.51l2.37,7.23,2.4-7.23h2.28l-3.45,9.43Z"/><path class="cls-1" d="M301.49,507.74a5.12,5.12,0,0,1-2.63-.67,4.48,4.48,0,0,1-1.75-1.76,4.9,4.9,0,0,1-.59-2.4,5.15,5.15,0,0,1,.59-2.47,4.56,4.56,0,0,1,1.75-1.79,5.05,5.05,0,0,1,2.65-.68,5.32,5.32,0,0,1,2.06.39,4.47,4.47,0,0,1,1.55,1.07,4.65,4.65,0,0,1,1,1.54,5,5,0,0,1,.34,1.84,5.61,5.61,0,0,1-.05.81h-7.3a2.5,2.5,0,0,0,.81,1.72,2.47,2.47,0,0,0,1.7.64,2.7,2.7,0,0,0,1.36-.35,1.85,1.85,0,0,0,.87-.93l2.07.58a4.17,4.17,0,0,1-1.7,1.79A5.24,5.24,0,0,1,301.49,507.74ZM299,502.09H304a2.64,2.64,0,0,0-.79-1.72,2.4,2.4,0,0,0-1.69-.65,2.35,2.35,0,0,0-1.67.66A2.58,2.58,0,0,0,299,502.09Z"/><path class="cls-1" d="M313.5,500.22a4.58,4.58,0,0,0-2,.44,2.5,2.5,0,0,0-1.22,1.2v5.71h-2.41v-9.43h2.21v2a4.4,4.4,0,0,1,1.28-1.53A3,3,0,0,1,313,498a4.06,4.06,0,0,1,.48,0Z"/><path class="cls-1" d="M320.5,507.08a6.56,6.56,0,0,1-2.66.64,3.16,3.16,0,0,1-.95-.13,2.26,2.26,0,0,1-.77-.4,1.8,1.8,0,0,1-.54-.72,2.73,2.73,0,0,1-.19-1.07V500h-1.24v-1.85h1.24v-3.06h2.41v3.06h2V500h-2v4.61c0,.61.32.92.9.92a3.76,3.76,0,0,0,1.32-.34Z"/><path class="cls-1" d="M321.76,496.82v-2.39h2.41v2.39Zm0,10.75v-9.43h2.41v9.43Z"/><path class="cls-1" d="M329.82,507.74a6.62,6.62,0,0,1-2.32-.4,5.28,5.28,0,0,1-1.88-1.16l.87-1.57a5.28,5.28,0,0,0,3.24,1.34,2.17,2.17,0,0,0,1.13-.26.82.82,0,0,0,.42-.75.66.66,0,0,0,0-.21.38.38,0,0,0-.08-.17l-.12-.15a.87.87,0,0,0-.19-.13l-.22-.1-.28-.11-.3-.09-.37-.11-.39-.12c-.46-.14-.84-.28-1.14-.39a7.71,7.71,0,0,1-.87-.42,2.32,2.32,0,0,1-.65-.5,2,2,0,0,1-.36-.62,2.37,2.37,0,0,1-.14-.83,2.67,2.67,0,0,1,1.05-2.21A4.36,4.36,0,0,1,330,498a5,5,0,0,1,3.54,1.34l-1,1.53a4.45,4.45,0,0,0-2.68-1.08,2.14,2.14,0,0,0-1,.22.8.8,0,0,0-.42.75.77.77,0,0,0,.37.69,6,6,0,0,0,1.35.5c.52.15.93.28,1.24.39a7.46,7.46,0,0,1,.94.41,2.51,2.51,0,0,1,.74.51,2.17,2.17,0,0,1,.41.66,2.4,2.4,0,0,1,.16.89,2.63,2.63,0,0,1-1,2.19A4.36,4.36,0,0,1,329.82,507.74Z"/><path class="cls-1" d="M335.23,496.82v-2.39h2.41v2.39Zm0,10.75v-9.43h2.41v9.43Z"/><path class="cls-1" d="M348.58,507.57h-2.41v-5.29c0-1.46-.49-2.18-1.49-2.18a2.34,2.34,0,0,0-1.47.56,2.75,2.75,0,0,0-1,1.4v5.51h-2.41v-9.43H342v1.74a3.69,3.69,0,0,1,1.52-1.4,4.83,4.83,0,0,1,2.22-.51,3.14,3.14,0,0,1,1.2.21,2.2,2.2,0,0,1,.82.56,2.62,2.62,0,0,1,.5.85,4.53,4.53,0,0,1,.26,1,9.36,9.36,0,0,1,.06,1.1Z"/><path class="cls-1" d="M350.12,502.85a5.43,5.43,0,0,1,.55-2.47,4.32,4.32,0,0,1,1.57-1.76,4.12,4.12,0,0,1,2.27-.65,3.73,3.73,0,0,1,1.9.48,4.07,4.07,0,0,1,1.4,1.34v-1.65h2.11v9a4.21,4.21,0,0,1-.68,2.38,4.37,4.37,0,0,1-1.86,1.56,6.6,6.6,0,0,1-2.7.52,5.86,5.86,0,0,1-2.55-.5,5.23,5.23,0,0,1-1.86-1.47l1.31-1.27a3.75,3.75,0,0,0,1.37,1,3.94,3.94,0,0,0,1.73.38,3.71,3.71,0,0,0,1.08-.15,2.78,2.78,0,0,0,.9-.48,2,2,0,0,0,.62-.83,2.92,2.92,0,0,0,.22-1.18v-1.19a3.22,3.22,0,0,1-1.31,1.25,4,4,0,0,1-4-.21,4.33,4.33,0,0,1-1.51-1.74A5.43,5.43,0,0,1,350.12,502.85Zm7.38,1.26v-2.25a2.92,2.92,0,0,0-1-1.32A2.42,2.42,0,0,0,355,500a2.15,2.15,0,0,0-1.76.86,3.19,3.19,0,0,0-.69,2,2.74,2.74,0,0,0,.75,2,2.38,2.38,0,0,0,1.84.8,2.41,2.41,0,0,0,1.41-.45A2.47,2.47,0,0,0,357.5,504.11Z"/><path class="cls-1" d="M478.18,488.57v-8.39l-3.27,6.24h-1.39l-3.27-6.24v8.39h-2.48V475.79h2.66l3.78,7.27,3.81-7.27h2.65v12.78Z"/><path class="cls-1" d="M483,485v-5.9h2.41v5.37c0,1.46.52,2.18,1.56,2.18a2.36,2.36,0,0,0,1.38-.44,3.13,3.13,0,0,0,1.06-1.27v-5.84h2.4v6.73a.87.87,0,0,0,.14.55.59.59,0,0,0,.44.19v2a5.77,5.77,0,0,1-1,.1,1.8,1.8,0,0,1-1.06-.29,1.14,1.14,0,0,1-.47-.82l-.05-.76a4.14,4.14,0,0,1-1.61,1.45,4.82,4.82,0,0,1-2.19.49,2.69,2.69,0,0,1-2.22-.94A4.36,4.36,0,0,1,483,485Z"/><path class="cls-1" d="M494.2,475.43h2.4v10.11a1.3,1.3,0,0,0,.21.86.73.73,0,0,0,.6.24,2.7,2.7,0,0,0,1.14-.25l.32,1.83a5,5,0,0,1-1.11.36,6.64,6.64,0,0,1-1.19.13,2.43,2.43,0,0,1-1.75-.61,2.26,2.26,0,0,1-.62-1.71Z"/><path class="cls-1" d="M505.46,488.08a6.52,6.52,0,0,1-2.66.64,3.21,3.21,0,0,1-.95-.13,2.35,2.35,0,0,1-.77-.4,1.8,1.8,0,0,1-.54-.72,2.73,2.73,0,0,1-.19-1.07V481h-1.24v-1.85h1.24v-3.06h2.42v3.06h2V481h-2v4.61c0,.61.31.92.89.92a3.76,3.76,0,0,0,1.32-.34Z"/><path class="cls-1" d="M506.72,477.82v-2.39h2.41v2.39Zm0,10.75v-9.43h2.41v9.43Z"/><path class="cls-1" d="M511.26,484.72v-2.18h5.45v2.18Z"/><path class="cls-1" d="M524.48,488.08a6.56,6.56,0,0,1-2.66.64,3.16,3.16,0,0,1-1-.13,2.35,2.35,0,0,1-.77-.4,1.8,1.8,0,0,1-.54-.72,2.73,2.73,0,0,1-.19-1.07V481h-1.24v-1.85h1.24v-3.06h2.42v3.06h2V481h-2v4.61c0,.61.31.92.89.92a3.76,3.76,0,0,0,1.32-.34Z"/><path class="cls-1" d="M525,483.86a5.13,5.13,0,0,1,.35-1.87,5,5,0,0,1,1-1.56,4.46,4.46,0,0,1,1.57-1.07A5.29,5.29,0,0,1,530,479a5,5,0,0,1,2.62.68,4.52,4.52,0,0,1,1.72,1.78,5.14,5.14,0,0,1,.59,2.43,5.08,5.08,0,0,1-.35,1.86,4.8,4.8,0,0,1-1,1.56,4.42,4.42,0,0,1-1.56,1.07,5.29,5.29,0,0,1-2.06.39,5.22,5.22,0,0,1-1.7-.26,4.5,4.5,0,0,1-1.38-.71,5.18,5.18,0,0,1-1-1.07,4.36,4.36,0,0,1-.64-1.34A5,5,0,0,1,525,483.86Zm5,2.83a2.26,2.26,0,0,0,1.75-.8,3,3,0,0,0,.71-2,2.93,2.93,0,0,0-.71-2,2.33,2.33,0,0,0-3.51,0,3.28,3.28,0,0,0,0,4.06A2.25,2.25,0,0,0,530,486.69Z"/><path class="cls-1" d="M536.44,485v-5.9h2.4v5.37c0,1.46.53,2.18,1.57,2.18a2.36,2.36,0,0,0,1.38-.44,3.11,3.11,0,0,0,1.05-1.27v-5.84h2.41v6.73a.94.94,0,0,0,.13.55.63.63,0,0,0,.45.19v2a5.77,5.77,0,0,1-1,.1,1.8,1.8,0,0,1-1.06-.29,1.14,1.14,0,0,1-.47-.82l-.06-.76a4,4,0,0,1-1.6,1.45,4.82,4.82,0,0,1-2.19.49,2.67,2.67,0,0,1-2.22-.94A4.36,4.36,0,0,1,536.44,485Z"/><path class="cls-1" d="M552,488.74a5.2,5.2,0,0,1-2.07-.4,4.46,4.46,0,0,1-1.58-1.07,5.06,5.06,0,0,1-1-1.56,4.89,4.89,0,0,1-.36-1.86,5,5,0,0,1,.6-2.43,4.48,4.48,0,0,1,1.74-1.77A5,5,0,0,1,552,479a5.07,5.07,0,0,1,2.6.65,4.11,4.11,0,0,1,1.66,1.77l-2.35.72a2.14,2.14,0,0,0-.81-.8,2.36,2.36,0,0,0-2.88.51,3.24,3.24,0,0,0,0,4.06,2.27,2.27,0,0,0,1.75.81,2.32,2.32,0,0,0,1.19-.31,1.74,1.74,0,0,0,.77-.8l2.36.72a4,4,0,0,1-1.64,1.77A5.06,5.06,0,0,1,552,488.74Z"/><path class="cls-1" d="M566.56,488.57h-2.41v-5.29a2.73,2.73,0,0,0-.41-1.64,1.4,1.4,0,0,0-1.17-.54,2.22,2.22,0,0,0-1.4.56,2.85,2.85,0,0,0-1,1.4v5.51h-2.41V475.43h2.41v5.45a3.79,3.79,0,0,1,1.43-1.41,4,4,0,0,1,2-.5q3,0,3,3.71Z"/><path class="cls-1" d="M471.78,504.78a2.66,2.66,0,0,1,1.12-2.22,4.78,4.78,0,0,1,2.93-.85,6,6,0,0,1,2.27.38v-.5a1.8,1.8,0,0,0-.53-1.39,2.3,2.3,0,0,0-1.58-.48,3.87,3.87,0,0,0-1.44.26,7.72,7.72,0,0,0-1.51.8l-.78-1.58a7.19,7.19,0,0,1,4-1.23,4.57,4.57,0,0,1,3.15,1,3.69,3.69,0,0,1,1.12,2.88v3a.87.87,0,0,0,.13.55.63.63,0,0,0,.45.19v2a5.52,5.52,0,0,1-1,.12,1.73,1.73,0,0,1-1.08-.3,1.34,1.34,0,0,1-.47-.82l-.05-.48a4.17,4.17,0,0,1-1.53,1.22,4.29,4.29,0,0,1-1.87.43,3.37,3.37,0,0,1-2.35-.84A2.74,2.74,0,0,1,471.78,504.78Zm5.87.48a1.24,1.24,0,0,0,.45-.82v-1a5,5,0,0,0-1.89-.38,2.73,2.73,0,0,0-1.55.41,1.24,1.24,0,0,0-.6,1.07,1.32,1.32,0,0,0,.46,1,1.73,1.73,0,0,0,1.22.41,2.91,2.91,0,0,0,1.05-.19A2.61,2.61,0,0,0,477.65,505.26Z"/><path class="cls-1" d="M488.32,507.08a6.56,6.56,0,0,1-2.66.64,3.16,3.16,0,0,1-1-.13,2.4,2.4,0,0,1-.78-.4,1.88,1.88,0,0,1-.53-.72,2.73,2.73,0,0,1-.19-1.07V500H482v-1.85h1.24v-3.06h2.41v3.06h2V500h-2v4.61c0,.61.32.92.9.92a3.76,3.76,0,0,0,1.32-.34Z"/><path class="cls-1" d="M495.19,507.08a6.56,6.56,0,0,1-2.66.64,3.16,3.16,0,0,1-.95-.13,2.35,2.35,0,0,1-.77-.4,1.8,1.8,0,0,1-.54-.72,2.73,2.73,0,0,1-.19-1.07V500h-1.24v-1.85h1.24v-3.06h2.42v3.06h2V500h-2v4.61c0,.61.31.92.89.92a3.76,3.76,0,0,0,1.32-.34Z"/><path class="cls-1" d="M502.07,500.22a4.66,4.66,0,0,0-2,.44,2.5,2.5,0,0,0-1.22,1.2v5.71h-2.41v-9.43h2.22v2a4.38,4.38,0,0,1,1.27-1.53,3,3,0,0,1,1.64-.61,4.28,4.28,0,0,1,.49,0Z"/><path class="cls-1" d="M503.41,496.82v-2.39h2.41v2.39Zm0,10.75v-9.43h2.41v9.43Z"/><path class="cls-1" d="M510.11,505.93v1.64H508V494.43h2.41v5.36a3.62,3.62,0,0,1,1.34-1.35,3.82,3.82,0,0,1,1.9-.47,3.57,3.57,0,0,1,2.15.68,4.43,4.43,0,0,1,1.46,1.79,5.87,5.87,0,0,1,.51,2.45,5.31,5.31,0,0,1-.57,2.46,4.46,4.46,0,0,1-1.58,1.75,4.13,4.13,0,0,1-2.26.64,3.79,3.79,0,0,1-1.91-.48A3.49,3.49,0,0,1,510.11,505.93Zm5.19-3a3.07,3.07,0,0,0-.7-2,2.19,2.19,0,0,0-1.76-.85,2.3,2.3,0,0,0-1.43.51,3.46,3.46,0,0,0-1,1.32v2.25a2.18,2.18,0,0,0,.9,1.14,2.45,2.45,0,0,0,1.38.44,2.41,2.41,0,0,0,1.87-.81A2.79,2.79,0,0,0,515.3,502.91Z"/><path class="cls-1" d="M519.32,504v-5.9h2.41v5.37c0,1.46.52,2.18,1.56,2.18a2.36,2.36,0,0,0,1.38-.44,3.06,3.06,0,0,0,1.06-1.27v-5.84h2.4v6.73a.87.87,0,0,0,.14.55.59.59,0,0,0,.44.19v2a5.77,5.77,0,0,1-1,.1,1.82,1.82,0,0,1-1.06-.29,1.14,1.14,0,0,1-.47-.82l0-.76a4.14,4.14,0,0,1-1.61,1.45,4.82,4.82,0,0,1-2.19.49,2.65,2.65,0,0,1-2.21-.94A4.3,4.3,0,0,1,519.32,504Z"/><path class="cls-1" d="M536.14,507.08a6.56,6.56,0,0,1-2.66.64,3.16,3.16,0,0,1-1-.13,2.26,2.26,0,0,1-.77-.4,1.8,1.8,0,0,1-.54-.72,2.73,2.73,0,0,1-.19-1.07V500h-1.24v-1.85H531v-3.06h2.41v3.06h2V500h-2v4.61c0,.61.32.92.9.92a3.76,3.76,0,0,0,1.32-.34Z"/><path class="cls-1" d="M537.4,496.82v-2.39h2.41v2.39Zm0,10.75v-9.43h2.41v9.43Z"/><path class="cls-1" d="M541.39,502.86a5.13,5.13,0,0,1,.35-1.87,4.85,4.85,0,0,1,1-1.56,4.42,4.42,0,0,1,1.56-1.07,5.37,5.37,0,0,1,2.07-.39,5,5,0,0,1,2.62.68,4.52,4.52,0,0,1,1.72,1.78,5.14,5.14,0,0,1,.59,2.43,5.08,5.08,0,0,1-.35,1.86,4.8,4.8,0,0,1-1,1.56,4.42,4.42,0,0,1-1.56,1.07,5.32,5.32,0,0,1-2.06.39,5.22,5.22,0,0,1-1.7-.26,4.5,4.5,0,0,1-1.38-.71,5.18,5.18,0,0,1-1-1.07,4.63,4.63,0,0,1-.65-1.34A5.33,5.33,0,0,1,541.39,502.86Zm5,2.83a2.26,2.26,0,0,0,1.75-.8,3,3,0,0,0,.71-2,2.93,2.93,0,0,0-.71-2,2.33,2.33,0,0,0-3.51,0,3.28,3.28,0,0,0,0,4.06A2.24,2.24,0,0,0,546.35,505.69Z"/><path class="cls-1" d="M561.66,507.57h-2.41v-5.29c0-1.46-.5-2.18-1.5-2.18a2.33,2.33,0,0,0-1.46.56,2.83,2.83,0,0,0-1,1.4v5.51h-2.41v-9.43h2.18v1.74a3.65,3.65,0,0,1,1.53-1.4,4.78,4.78,0,0,1,2.22-.51,3.21,3.21,0,0,1,1.2.21,2.38,2.38,0,0,1,.82.56,2.81,2.81,0,0,1,.5.85,4.49,4.49,0,0,1,.25,1,9.25,9.25,0,0,1,.07,1.1Z"/><path class="cls-1" d="M491.45,526.57H489v-5.29a2.88,2.88,0,0,0-.38-1.64,1.23,1.23,0,0,0-1.08-.54,2,2,0,0,0-1.35.55,3,3,0,0,0-.9,1.42v5.5h-2.42v-5.29c0-1.46-.49-2.18-1.46-2.18a2.08,2.08,0,0,0-1.35.54,3,3,0,0,0-.9,1.42v5.51h-2.41v-9.43H479v1.74a3.75,3.75,0,0,1,1.44-1.41,4.28,4.28,0,0,1,2.07-.5,2.74,2.74,0,0,1,1.79.56,2.51,2.51,0,0,1,.87,1.44,4,4,0,0,1,1.47-1.48,3.86,3.86,0,0,1,2-.52c1.88,0,2.83,1.24,2.83,3.71Z"/><path class="cls-1" d="M493,521.86a5.13,5.13,0,0,1,.35-1.87,4.85,4.85,0,0,1,1-1.56,4.42,4.42,0,0,1,1.56-1.07,5.37,5.37,0,0,1,2.07-.39,5,5,0,0,1,2.62.68,4.52,4.52,0,0,1,1.72,1.78,5.14,5.14,0,0,1,.59,2.43,5.08,5.08,0,0,1-.35,1.86,5,5,0,0,1-1,1.56,4.42,4.42,0,0,1-1.56,1.07,5.32,5.32,0,0,1-2.06.39,5.22,5.22,0,0,1-1.7-.26,4.5,4.5,0,0,1-1.38-.71,5.18,5.18,0,0,1-1-1.07,4.63,4.63,0,0,1-.65-1.34A5.33,5.33,0,0,1,493,521.86Zm5,2.83a2.26,2.26,0,0,0,1.75-.8,3,3,0,0,0,.71-2,2.93,2.93,0,0,0-.71-2,2.33,2.33,0,0,0-3.51,0,3.28,3.28,0,0,0,0,4.06A2.24,2.24,0,0,0,497.91,524.69Z"/><path class="cls-1" d="M503.87,521.85a5.55,5.55,0,0,1,.54-2.46,4.29,4.29,0,0,1,1.51-1.77,3.82,3.82,0,0,1,2.17-.65,3.56,3.56,0,0,1,1.85.49,3.77,3.77,0,0,1,1.33,1.33v-5.36h2.42v10.44a1,1,0,0,0,.12.55.6.6,0,0,0,.43.19v2a5.52,5.52,0,0,1-1,.12,1.74,1.74,0,0,1-1.07-.32,1.13,1.13,0,0,1-.48-.85l0-.59a3.45,3.45,0,0,1-1.39,1.34,4,4,0,0,1-1.88.47,4.21,4.21,0,0,1-2.32-.65,4.5,4.5,0,0,1-1.6-1.77A5.38,5.38,0,0,1,503.87,521.85Zm7.4,1.26v-2.25a3,3,0,0,0-1-1.31,2.38,2.38,0,0,0-1.43-.52,2.2,2.2,0,0,0-1.77.85,3.09,3.09,0,0,0-.7,2,2.8,2.8,0,0,0,.74,2,2.47,2.47,0,0,0,3.24.35A2.2,2.2,0,0,0,511.27,523.11Z"/><path class="cls-1" d="M520.43,526.74a5.12,5.12,0,0,1-2.63-.67,4.55,4.55,0,0,1-1.75-1.76,5,5,0,0,1-.59-2.4,5.27,5.27,0,0,1,.59-2.47,4.63,4.63,0,0,1,1.75-1.79,5.05,5.05,0,0,1,2.65-.68,5.29,5.29,0,0,1,2.06.39,4.61,4.61,0,0,1,1.56,1.07A4.79,4.79,0,0,1,525,520a5,5,0,0,1,.34,1.84,5.61,5.61,0,0,1-.05.81H518a2.5,2.5,0,0,0,.81,1.72,2.47,2.47,0,0,0,1.7.64,2.74,2.74,0,0,0,1.37-.35,1.87,1.87,0,0,0,.86-.93l2.07.58a4.15,4.15,0,0,1-1.69,1.79A5.3,5.3,0,0,1,520.43,526.74ZM518,521.09h4.93a2.64,2.64,0,0,0-.79-1.72,2.38,2.38,0,0,0-1.69-.65,2.35,2.35,0,0,0-1.67.66A2.58,2.58,0,0,0,518,521.09Z"/><path class="cls-1" d="M526.81,513.43h2.41v10.11a1.37,1.37,0,0,0,.2.86.76.76,0,0,0,.61.24,2.65,2.65,0,0,0,1.13-.25l.33,1.83a5.08,5.08,0,0,1-1.12.36,6.54,6.54,0,0,1-1.18.13,2.42,2.42,0,0,1-1.75-.61,2.26,2.26,0,0,1-.63-1.71Z"/><path class="cls-1" d="M532.53,515.82v-2.39h2.41v2.39Zm0,10.75v-9.43h2.41v9.43Z"/><path class="cls-1" d="M545.88,526.57h-2.4v-5.29c0-1.46-.5-2.18-1.5-2.18a2.36,2.36,0,0,0-1.47.56,2.81,2.81,0,0,0-1,1.4v5.51h-2.41v-9.43h2.18v1.74a3.65,3.65,0,0,1,1.53-1.4,4.78,4.78,0,0,1,2.22-.51,3.21,3.21,0,0,1,1.2.21,2.38,2.38,0,0,1,.82.56,2.6,2.6,0,0,1,.49.85,4,4,0,0,1,.26,1,9.36,9.36,0,0,1,.06,1.1Z"/><path class="cls-1" d="M547.42,521.85a5.44,5.44,0,0,1,.56-2.47,4.37,4.37,0,0,1,1.56-1.76,4.13,4.13,0,0,1,2.28-.65,3.75,3.75,0,0,1,1.9.48,4.13,4.13,0,0,1,1.39,1.34v-1.65h2.11v9a4.13,4.13,0,0,1-.68,2.38,4.26,4.26,0,0,1-1.86,1.56,6.6,6.6,0,0,1-2.7.52,5.86,5.86,0,0,1-2.55-.5,5.23,5.23,0,0,1-1.86-1.47l1.31-1.27a3.84,3.84,0,0,0,1.37,1,4,4,0,0,0,1.73.38,3.83,3.83,0,0,0,1.09-.15,2.83,2.83,0,0,0,.89-.48,2,2,0,0,0,.62-.83,2.92,2.92,0,0,0,.23-1.18v-1.19a3.29,3.29,0,0,1-1.31,1.25,4,4,0,0,1-4-.21,4.19,4.19,0,0,1-1.51-1.74A5.3,5.3,0,0,1,547.42,521.85Zm7.39,1.26v-2.25a3,3,0,0,0-1-1.32,2.42,2.42,0,0,0-1.46-.51,2.15,2.15,0,0,0-1.76.86,3.19,3.19,0,0,0-.69,2,2.74,2.74,0,0,0,.75,2,2.4,2.4,0,0,0,1.85.8,2.44,2.44,0,0,0,1.41-.45A2.54,2.54,0,0,0,554.81,523.11Z"/><path class="cls-1" d="M632.68,488.57V475.79h5.41a3.63,3.63,0,0,1,1.62.37,3.93,3.93,0,0,1,1.3,1,4.48,4.48,0,0,1,.84,1.37,4,4,0,0,1,.31,1.54,4.51,4.51,0,0,1-.49,2.07,4.14,4.14,0,0,1-1.42,1.58,3.75,3.75,0,0,1-2.07.61h-3v4.28Zm2.48-6.46H638a1.39,1.39,0,0,0,1.14-.57,2.34,2.34,0,0,0,.46-1.51,2.13,2.13,0,0,0-.51-1.5,1.54,1.54,0,0,0-1.2-.56h-2.77Z"/><path class="cls-1" d="M649.26,481.22a4.58,4.58,0,0,0-2,.44,2.56,2.56,0,0,0-1.23,1.2v5.71h-2.4v-9.43h2.21v2a4.3,4.3,0,0,1,1.28-1.53,3,3,0,0,1,1.64-.61,4.06,4.06,0,0,1,.48,0Z"/><path class="cls-1" d="M649.89,483.86a4.93,4.93,0,0,1,.35-1.87,5,5,0,0,1,1-1.56,4.55,4.55,0,0,1,1.57-1.07,5.36,5.36,0,0,1,2.06-.39,5.07,5.07,0,0,1,2.63.68,4.59,4.59,0,0,1,1.72,1.78,5.13,5.13,0,0,1,.58,2.43,5.07,5.07,0,0,1-.34,1.86,5,5,0,0,1-1,1.56,4.51,4.51,0,0,1-1.56,1.07,5.37,5.37,0,0,1-2.07.39,5.16,5.16,0,0,1-1.69-.26,4.5,4.5,0,0,1-1.38-.71,4.7,4.7,0,0,1-1-1.07,4.38,4.38,0,0,1-.65-1.34A5.33,5.33,0,0,1,649.89,483.86Zm5,2.83a2.28,2.28,0,0,0,1.76-.8,3,3,0,0,0,.7-2,2.92,2.92,0,0,0-.7-2,2.34,2.34,0,0,0-3.52,0,3,3,0,0,0-.71,2,3,3,0,0,0,.71,2A2.23,2.23,0,0,0,654.84,486.69Z"/><path class="cls-1" d="M660.83,483.85a5.43,5.43,0,0,1,.55-2.47,4.32,4.32,0,0,1,1.57-1.76,4.12,4.12,0,0,1,2.27-.65,3.75,3.75,0,0,1,1.9.48,4.16,4.16,0,0,1,1.4,1.34v-1.65h2.11v9a4.21,4.21,0,0,1-.68,2.38,4.34,4.34,0,0,1-1.87,1.56,6.55,6.55,0,0,1-2.69.52,5.86,5.86,0,0,1-2.55-.5,5.06,5.06,0,0,1-1.86-1.47l1.31-1.27a3.8,3.8,0,0,0,1.36,1,4,4,0,0,0,1.74.38,3.71,3.71,0,0,0,1.08-.15,3,3,0,0,0,.9-.48,2,2,0,0,0,.62-.83,2.92,2.92,0,0,0,.22-1.18v-1.19a3.29,3.29,0,0,1-1.31,1.25,4,4,0,0,1-4-.21,4.26,4.26,0,0,1-1.51-1.74A5.29,5.29,0,0,1,660.83,483.85Zm7.38,1.26v-2.25a2.94,2.94,0,0,0-1-1.32,2.4,2.4,0,0,0-1.45-.51,2.15,2.15,0,0,0-1.76.86,3.19,3.19,0,0,0-.69,2,2.78,2.78,0,0,0,.74,2,2.49,2.49,0,0,0,3.26.35A2.47,2.47,0,0,0,668.21,485.11Z"/><path class="cls-1" d="M678.42,481.22a4.63,4.63,0,0,0-2,.44,2.5,2.5,0,0,0-1.22,1.2v5.71H672.8v-9.43H675v2a4.4,4.4,0,0,1,1.28-1.53,3,3,0,0,1,1.64-.61,4.42,4.42,0,0,1,.49,0Z"/><path class="cls-1" d="M679.06,485.78a2.66,2.66,0,0,1,1.12-2.22,4.78,4.78,0,0,1,2.93-.85,6,6,0,0,1,2.27.38v-.5a1.77,1.77,0,0,0-.54-1.39,2.27,2.27,0,0,0-1.57-.48,3.84,3.84,0,0,0-1.44.26,7.72,7.72,0,0,0-1.51.8l-.78-1.58a7.19,7.19,0,0,1,4-1.23,4.52,4.52,0,0,1,3.14,1,3.66,3.66,0,0,1,1.12,2.88v3a.87.87,0,0,0,.14.55.59.59,0,0,0,.44.19v2a5.34,5.34,0,0,1-1,.12,1.69,1.69,0,0,1-1.08-.3,1.29,1.29,0,0,1-.47-.82l0-.48a4.25,4.25,0,0,1-1.53,1.22,4.34,4.34,0,0,1-1.88.43,3.36,3.36,0,0,1-2.34-.84A2.74,2.74,0,0,1,679.06,485.78Zm5.87.48a1.24,1.24,0,0,0,.45-.82v-1a5,5,0,0,0-1.89-.38,2.7,2.7,0,0,0-1.55.41,1.24,1.24,0,0,0-.6,1.07,1.29,1.29,0,0,0,.46,1A1.72,1.72,0,0,0,683,487a2.91,2.91,0,0,0,1.05-.19A2.72,2.72,0,0,0,684.93,486.26Z"/><path class="cls-1" d="M704.69,488.57h-2.41v-5.29a2.88,2.88,0,0,0-.38-1.64,1.23,1.23,0,0,0-1.08-.54,2,2,0,0,0-1.35.55,3,3,0,0,0-.9,1.42v5.5h-2.42v-5.29c0-1.46-.48-2.18-1.46-2.18a2.08,2.08,0,0,0-1.35.54,3,3,0,0,0-.9,1.42v5.51H690v-9.43h2.18v1.74a3.75,3.75,0,0,1,1.44-1.41,4.28,4.28,0,0,1,2.07-.5,2.74,2.74,0,0,1,1.79.56,2.51,2.51,0,0,1,.87,1.44,4,4,0,0,1,1.47-1.48,3.86,3.86,0,0,1,2-.52c1.88,0,2.83,1.24,2.83,3.71Z"/><path class="cls-1" d="M721.44,488.57H719v-5.29a2.88,2.88,0,0,0-.38-1.64,1.23,1.23,0,0,0-1.08-.54,2,2,0,0,0-1.35.55,3,3,0,0,0-.9,1.42v5.5H712.9v-5.29c0-1.46-.48-2.18-1.46-2.18a2,2,0,0,0-1.34.54,2.94,2.94,0,0,0-.91,1.42v5.51h-2.4v-9.43H709v1.74a3.72,3.72,0,0,1,1.43-1.41,4.28,4.28,0,0,1,2.07-.5,2.77,2.77,0,0,1,1.8.56,2.51,2.51,0,0,1,.87,1.44,4,4,0,0,1,1.46-1.48,3.86,3.86,0,0,1,2-.52c1.88,0,2.83,1.24,2.83,3.71Z"/><path class="cls-1" d="M722.89,485.78a2.66,2.66,0,0,1,1.12-2.22,4.78,4.78,0,0,1,2.93-.85,6,6,0,0,1,2.27.38v-.5a1.8,1.8,0,0,0-.53-1.39,2.31,2.31,0,0,0-1.58-.48,3.84,3.84,0,0,0-1.44.26,7.72,7.72,0,0,0-1.51.8l-.78-1.58a7.19,7.19,0,0,1,4-1.23,4.52,4.52,0,0,1,3.14,1,3.66,3.66,0,0,1,1.13,2.88v3a.87.87,0,0,0,.13.55.59.59,0,0,0,.45.19v2a5.52,5.52,0,0,1-1,.12,1.71,1.71,0,0,1-1.08-.3,1.34,1.34,0,0,1-.47-.82l0-.48a4.25,4.25,0,0,1-1.53,1.22,4.33,4.33,0,0,1-1.87.43,3.37,3.37,0,0,1-2.35-.84A2.74,2.74,0,0,1,722.89,485.78Zm5.87.48a1.24,1.24,0,0,0,.45-.82v-1a5,5,0,0,0-1.89-.38,2.7,2.7,0,0,0-1.55.41,1.24,1.24,0,0,0-.6,1.07,1.32,1.32,0,0,0,.46,1,1.72,1.72,0,0,0,1.22.41,2.91,2.91,0,0,0,1-.19A2.72,2.72,0,0,0,728.76,486.26Z"/><path class="cls-1" d="M739.43,488.08a6.56,6.56,0,0,1-2.66.64,3.12,3.12,0,0,1-.95-.13,2.4,2.4,0,0,1-.78-.4,1.78,1.78,0,0,1-.53-.72,2.72,2.72,0,0,1-.2-1.07V481h-1.24v-1.85h1.24v-3.06h2.42v3.06h2V481h-2v4.61c0,.61.32.92.9.92a3.76,3.76,0,0,0,1.32-.34Z"/><path class="cls-1" d="M740.69,477.82v-2.39h2.4v2.39Zm0,10.75v-9.43h2.4v9.43Z"/><path class="cls-1" d="M749.67,488.74a5.23,5.23,0,0,1-2.07-.4,4.46,4.46,0,0,1-1.58-1.07,5.06,5.06,0,0,1-1-1.56,4.88,4.88,0,0,1-.35-1.86,5,5,0,0,1,.59-2.43,4.62,4.62,0,0,1,1.74-1.77,5,5,0,0,1,2.64-.68,5.07,5.07,0,0,1,2.6.65,4.11,4.11,0,0,1,1.66,1.77l-2.35.72a2.14,2.14,0,0,0-.81-.8,2.36,2.36,0,0,0-2.88.51,3.24,3.24,0,0,0,0,4.06,2.27,2.27,0,0,0,1.75.81,2.32,2.32,0,0,0,1.19-.31,1.74,1.74,0,0,0,.77-.8l2.36.72a4,4,0,0,1-1.64,1.77A5,5,0,0,1,749.67,488.74Z"/><path class="cls-1" d="M645.06,504.78a2.67,2.67,0,0,1,1.13-2.22,4.75,4.75,0,0,1,2.92-.85,6,6,0,0,1,2.27.38v-.5a1.8,1.8,0,0,0-.53-1.39,2.3,2.3,0,0,0-1.58-.48,3.91,3.91,0,0,0-1.44.26,7.4,7.4,0,0,0-1.5.8l-.79-1.58a7.2,7.2,0,0,1,4-1.23,4.56,4.56,0,0,1,3.14,1,3.66,3.66,0,0,1,1.12,2.88v3a.87.87,0,0,0,.13.55.63.63,0,0,0,.45.19v2a5.52,5.52,0,0,1-1,.12,1.73,1.73,0,0,1-1.08-.3,1.34,1.34,0,0,1-.47-.82l0-.48a4.13,4.13,0,0,1-1.52,1.22,4.37,4.37,0,0,1-1.88.43,3.38,3.38,0,0,1-2.35-.84A2.74,2.74,0,0,1,645.06,504.78Zm5.87.48a1.24,1.24,0,0,0,.45-.82v-1a5,5,0,0,0-1.89-.38,2.73,2.73,0,0,0-1.55.41,1.23,1.23,0,0,0-.59,1.07,1.31,1.31,0,0,0,.45,1A1.73,1.73,0,0,0,649,506a3,3,0,0,0,1.06-.19A2.67,2.67,0,0,0,650.93,505.26Z"/><path class="cls-1" d="M655.46,502.85a5.68,5.68,0,0,1,.53-2.46,4.29,4.29,0,0,1,1.51-1.77,3.85,3.85,0,0,1,2.18-.65,3.58,3.58,0,0,1,1.85.49,3.85,3.85,0,0,1,1.33,1.33v-5.36h2.42v10.44a1,1,0,0,0,.12.55.56.56,0,0,0,.43.19v2a5.71,5.71,0,0,1-1,.12,1.76,1.76,0,0,1-1.07-.32,1.2,1.2,0,0,1-.48-.85l0-.59a3.47,3.47,0,0,1-1.4,1.34,4,4,0,0,1-1.88.47,4.15,4.15,0,0,1-2.31-.65,4.35,4.35,0,0,1-1.6-1.77A5.38,5.38,0,0,1,655.46,502.85Zm7.4,1.26v-2.25a2.91,2.91,0,0,0-1-1.31,2.36,2.36,0,0,0-1.43-.52,2.16,2.16,0,0,0-1.76.85,3.1,3.1,0,0,0-.71,2,2.81,2.81,0,0,0,.75,2,2.39,2.39,0,0,0,1.86.8,2.46,2.46,0,0,0,1.38-.45A2.25,2.25,0,0,0,662.86,504.11Z"/><path class="cls-1" d="M670.14,507.57l-3.48-9.43h2.51l2.37,7.23,2.4-7.23h2.29l-3.46,9.43Z"/><path class="cls-1" d="M681.55,507.74a5.12,5.12,0,0,1-2.63-.67,4.46,4.46,0,0,1-1.74-1.76,4.91,4.91,0,0,1-.6-2.4,5.16,5.16,0,0,1,.6-2.47,4.53,4.53,0,0,1,1.74-1.79,5.05,5.05,0,0,1,2.65-.68,5.29,5.29,0,0,1,2.06.39,4.61,4.61,0,0,1,1.56,1.07,5,5,0,0,1,1,1.54,5.17,5.17,0,0,1,.33,1.84,4.46,4.46,0,0,1-.05.81h-7.29a2.46,2.46,0,0,0,2.5,2.36,2.74,2.74,0,0,0,1.37-.35,1.87,1.87,0,0,0,.86-.93l2.07.58a4.15,4.15,0,0,1-1.69,1.79A5.3,5.3,0,0,1,681.55,507.74Zm-2.47-5.65H684a2.64,2.64,0,0,0-.79-1.72,2.37,2.37,0,0,0-1.68-.65,2.32,2.32,0,0,0-1.67.66A2.55,2.55,0,0,0,679.08,502.09Z"/><path class="cls-1" d="M693.57,500.22a4.66,4.66,0,0,0-2,.44,2.54,2.54,0,0,0-1.22,1.2v5.71H688v-9.43h2.22v2a4.38,4.38,0,0,1,1.27-1.53,3,3,0,0,1,1.64-.61,4.14,4.14,0,0,1,.49,0Z"/><path class="cls-1" d="M700.56,507.08a6.56,6.56,0,0,1-2.66.64,3.16,3.16,0,0,1-.95-.13,2.35,2.35,0,0,1-.77-.4,1.8,1.8,0,0,1-.54-.72,2.73,2.73,0,0,1-.19-1.07V500h-1.24v-1.85h1.24v-3.06h2.42v3.06h2V500h-2v4.61c0,.61.31.92.89.92a3.76,3.76,0,0,0,1.32-.34Z"/><path class="cls-1" d="M701.82,496.82v-2.39h2.41v2.39Zm0,10.75v-9.43h2.41v9.43Z"/><path class="cls-1" d="M709.88,507.74a6.66,6.66,0,0,1-2.32-.4,5.24,5.24,0,0,1-1.87-1.16l.86-1.57a5.28,5.28,0,0,0,3.24,1.34,2.15,2.15,0,0,0,1.13-.26.82.82,0,0,0,.42-.75,1.25,1.25,0,0,0,0-.21.56.56,0,0,0-.09-.17l-.12-.15a.76.76,0,0,0-.18-.13l-.22-.1-.29-.11-.3-.09-.36-.11-.4-.12c-.46-.14-.84-.28-1.14-.39a7.58,7.58,0,0,1-.86-.42,2.18,2.18,0,0,1-.65-.5,1.83,1.83,0,0,1-.37-.62,2.37,2.37,0,0,1-.13-.83,2.66,2.66,0,0,1,1-2.21A4.38,4.38,0,0,1,710,498a5,5,0,0,1,3.54,1.34l-1,1.53a4.5,4.5,0,0,0-2.68-1.08,2.15,2.15,0,0,0-1,.22.8.8,0,0,0-.41.75.75.75,0,0,0,.37.69,5.69,5.69,0,0,0,1.34.5c.52.15.93.28,1.24.39a7.46,7.46,0,0,1,.94.41,2.51,2.51,0,0,1,.74.51,2,2,0,0,1,.41.66,2.21,2.21,0,0,1,.16.89,2.62,2.62,0,0,1-1,2.19A4.41,4.41,0,0,1,709.88,507.74Z"/><path class="cls-1" d="M715.29,496.82v-2.39h2.41v2.39Zm0,10.75v-9.43h2.41v9.43Z"/><path class="cls-1" d="M728.64,507.57h-2.4v-5.29c0-1.46-.5-2.18-1.5-2.18a2.34,2.34,0,0,0-1.47.56,2.81,2.81,0,0,0-1,1.4v5.51h-2.41v-9.43h2.18v1.74a3.65,3.65,0,0,1,1.53-1.4,4.78,4.78,0,0,1,2.22-.51,3.21,3.21,0,0,1,1.2.21,2.38,2.38,0,0,1,.82.56,2.6,2.6,0,0,1,.49.85,4,4,0,0,1,.26,1,9.36,9.36,0,0,1,.06,1.1Z"/><path class="cls-1" d="M730.18,502.85a5.44,5.44,0,0,1,.56-2.47,4.37,4.37,0,0,1,1.56-1.76,4.13,4.13,0,0,1,2.28-.65,3.75,3.75,0,0,1,1.9.48,4.13,4.13,0,0,1,1.39,1.34v-1.65H740v9a4.21,4.21,0,0,1-.68,2.38,4.26,4.26,0,0,1-1.86,1.56,6.6,6.6,0,0,1-2.7.52,5.86,5.86,0,0,1-2.55-.5,5.23,5.23,0,0,1-1.86-1.47l1.31-1.27a3.75,3.75,0,0,0,1.37,1,4,4,0,0,0,1.73.38,3.83,3.83,0,0,0,1.09-.15,2.83,2.83,0,0,0,.89-.48,2,2,0,0,0,.62-.83,2.92,2.92,0,0,0,.23-1.18v-1.19a3.35,3.35,0,0,1-1.31,1.25,4,4,0,0,1-4-.21,4.28,4.28,0,0,1-1.52-1.74A5.43,5.43,0,0,1,730.18,502.85Zm7.39,1.26v-2.25a3,3,0,0,0-1-1.32,2.42,2.42,0,0,0-1.46-.51,2.15,2.15,0,0,0-1.76.86,3.19,3.19,0,0,0-.69,2,2.74,2.74,0,0,0,.75,2,2.4,2.4,0,0,0,1.85.8,2.46,2.46,0,0,0,1.41-.45A2.54,2.54,0,0,0,737.57,504.11Z"/><path class="cls-1" d="M839.92,475.79h2.52l4.7,12.78h-2.56l-1.19-3.19h-4.46l-1.17,3.19H835.2Zm3,7.85-1.76-5.28-1.84,5.28Z"/><path class="cls-1" d="M853.92,481.22a4.58,4.58,0,0,0-2,.44,2.56,2.56,0,0,0-1.23,1.2v5.71H848.3v-9.43h2.22v2a4.3,4.3,0,0,1,1.28-1.53,3,3,0,0,1,1.64-.61,4.06,4.06,0,0,1,.48,0Z"/><path class="cls-1" d="M860.92,488.08a6.56,6.56,0,0,1-2.67.64,3.21,3.21,0,0,1-1-.13,2.46,2.46,0,0,1-.77-.4,1.7,1.7,0,0,1-.53-.72,2.72,2.72,0,0,1-.2-1.07V481h-1.24v-1.85h1.24v-3.06h2.42v3.06h2V481h-2v4.61c0,.61.32.92.9.92a3.71,3.71,0,0,0,1.31-.34Z"/><path class="cls-1" d="M862.17,477.82v-2.39h2.41v2.39Zm0,10.75v-9.43h2.41v9.43Z"/><path class="cls-1" d="M867.33,481.47h-1.24v-1.83h1.24v-.57a3.79,3.79,0,0,1,1-2.73,3.69,3.69,0,0,1,2.79-1.1,6.29,6.29,0,0,1,3.49,1.18l-.95,1.79a4.36,4.36,0,0,0-1.13-.66,3.24,3.24,0,0,0-1.25-.25,1.45,1.45,0,0,0-1.17.48,1.77,1.77,0,0,0-.41,1.19v.67h5v8.93h-2.4v-7.1h-2.65v7.1h-2.42Z"/><path class="cls-1" d="M881.38,488.74a5.23,5.23,0,0,1-2.07-.4,4.46,4.46,0,0,1-1.58-1.07,5.06,5.06,0,0,1-1-1.56,4.88,4.88,0,0,1-.35-1.86,5,5,0,0,1,.59-2.43,4.62,4.62,0,0,1,1.74-1.77,5,5,0,0,1,2.64-.68,5.07,5.07,0,0,1,2.6.65,4.11,4.11,0,0,1,1.66,1.77l-2.35.72a2.14,2.14,0,0,0-.81-.8,2.36,2.36,0,0,0-2.88.51,3.24,3.24,0,0,0,0,4.06,2.27,2.27,0,0,0,1.75.81,2.32,2.32,0,0,0,1.19-.31,1.74,1.74,0,0,0,.77-.8l2.36.72a4,4,0,0,1-1.64,1.77A5,5,0,0,1,881.38,488.74Z"/><path class="cls-1" d="M887.13,477.82v-2.39h2.41v2.39Zm0,10.75v-9.43h2.41v9.43Z"/><path class="cls-1" d="M891.07,485.78a2.67,2.67,0,0,1,1.13-2.22,4.75,4.75,0,0,1,2.92-.85,6,6,0,0,1,2.27.38v-.5a1.8,1.8,0,0,0-.53-1.39,2.3,2.3,0,0,0-1.58-.48,3.91,3.91,0,0,0-1.44.26,7.4,7.4,0,0,0-1.5.8l-.78-1.58a7.17,7.17,0,0,1,4-1.23,4.56,4.56,0,0,1,3.14,1,3.66,3.66,0,0,1,1.12,2.88v3a.87.87,0,0,0,.13.55.63.63,0,0,0,.45.19v2a5.43,5.43,0,0,1-1,.12,1.73,1.73,0,0,1-1.08-.3,1.34,1.34,0,0,1-.47-.82l0-.48a4.13,4.13,0,0,1-1.52,1.22,4.37,4.37,0,0,1-1.88.43,3.38,3.38,0,0,1-2.35-.84A2.74,2.74,0,0,1,891.07,485.78Zm5.87.48a1.24,1.24,0,0,0,.45-.82v-1a4.94,4.94,0,0,0-1.89-.38,2.67,2.67,0,0,0-1.54.41,1.24,1.24,0,0,0-.6,1.07,1.31,1.31,0,0,0,.45,1A1.76,1.76,0,0,0,895,487a3,3,0,0,0,1.05-.19A2.67,2.67,0,0,0,896.94,486.26Z"/><path class="cls-1" d="M902,475.43h2.41v10.11a1.37,1.37,0,0,0,.2.86.76.76,0,0,0,.61.24,2.65,2.65,0,0,0,1.13-.25l.33,1.83a5.08,5.08,0,0,1-1.12.36,6.54,6.54,0,0,1-1.18.13,2.42,2.42,0,0,1-1.75-.61,2.26,2.26,0,0,1-.63-1.71Z"/><path class="cls-1" d="M820.28,507.57V494.79h2.48v12.78Z"/><path class="cls-1" d="M834,507.57h-2.41v-5.29c0-1.46-.5-2.18-1.5-2.18a2.33,2.33,0,0,0-1.46.56,2.83,2.83,0,0,0-1,1.4v5.51h-2.41v-9.43h2.18v1.74a3.71,3.71,0,0,1,1.53-1.4,4.78,4.78,0,0,1,2.22-.51,3.17,3.17,0,0,1,1.2.21,2.38,2.38,0,0,1,.82.56,2.81,2.81,0,0,1,.5.85,4.49,4.49,0,0,1,.25,1,7.54,7.54,0,0,1,.07,1.1Z"/><path class="cls-1" d="M841.65,507.08a6.56,6.56,0,0,1-2.67.64,3.21,3.21,0,0,1-1-.13,2.46,2.46,0,0,1-.77-.4,1.8,1.8,0,0,1-.54-.72,2.92,2.92,0,0,1-.19-1.07V500h-1.24v-1.85h1.24v-3.06H839v3.06h2V500h-2v4.61c0,.61.31.92.89.92a3.76,3.76,0,0,0,1.32-.34Z"/><path class="cls-1" d="M847.16,507.74a5.09,5.09,0,0,1-2.63-.67,4.48,4.48,0,0,1-1.75-1.76,4.91,4.91,0,0,1-.6-2.4,5.16,5.16,0,0,1,.6-2.47,4.56,4.56,0,0,1,1.75-1.79,5,5,0,0,1,2.64-.68,5.37,5.37,0,0,1,2.07.39,4.47,4.47,0,0,1,1.55,1.07,4.82,4.82,0,0,1,1,1.54,5.18,5.18,0,0,1,.34,1.84,5.61,5.61,0,0,1-.05.81h-7.3a2.5,2.5,0,0,0,.81,1.72,2.45,2.45,0,0,0,1.7.64,2.7,2.7,0,0,0,1.36-.35,1.85,1.85,0,0,0,.87-.93l2.06.58a4.09,4.09,0,0,1-1.69,1.79A5.27,5.27,0,0,1,847.16,507.74Zm-2.47-5.65h4.93a2.65,2.65,0,0,0-.8-1.72,2.37,2.37,0,0,0-1.68-.65,2.33,2.33,0,0,0-1.67.66A2.58,2.58,0,0,0,844.69,502.09Z"/><path class="cls-1" d="M853.54,494.43H856v10.11a1.3,1.3,0,0,0,.2.86.74.74,0,0,0,.6.24,2.7,2.7,0,0,0,1.14-.25l.32,1.83a4.82,4.82,0,0,1-1.11.36,6.64,6.64,0,0,1-1.19.13,2.43,2.43,0,0,1-1.75-.61,2.3,2.3,0,0,1-.62-1.71Z"/><path class="cls-1" d="M859.24,494.43h2.41v10.11a1.37,1.37,0,0,0,.2.86.76.76,0,0,0,.61.24,2.65,2.65,0,0,0,1.13-.25l.33,1.83a5.08,5.08,0,0,1-1.12.36,6.54,6.54,0,0,1-1.18.13,2.42,2.42,0,0,1-1.75-.61,2.26,2.26,0,0,1-.63-1.71Z"/><path class="cls-1" d="M865,496.82v-2.39h2.41v2.39Zm0,10.75v-9.43h2.41v9.43Z"/><path class="cls-1" d="M869,502.85a5.43,5.43,0,0,1,.55-2.47,4.32,4.32,0,0,1,1.57-1.76,4.12,4.12,0,0,1,2.27-.65,3.73,3.73,0,0,1,1.9.48,4.16,4.16,0,0,1,1.4,1.34v-1.65h2.11v9a4.21,4.21,0,0,1-.68,2.38,4.34,4.34,0,0,1-1.87,1.56,6.52,6.52,0,0,1-2.69.52,5.86,5.86,0,0,1-2.55-.5,5.23,5.23,0,0,1-1.86-1.47l1.31-1.27a3.8,3.8,0,0,0,1.36,1,4,4,0,0,0,1.74.38,3.71,3.71,0,0,0,1.08-.15,2.88,2.88,0,0,0,.9-.48,2,2,0,0,0,.62-.83,2.92,2.92,0,0,0,.22-1.18v-1.19a3.29,3.29,0,0,1-1.31,1.25,4,4,0,0,1-4-.21,4.33,4.33,0,0,1-1.51-1.74A5.43,5.43,0,0,1,869,502.85Zm7.38,1.26v-2.25a2.92,2.92,0,0,0-1-1.32,2.42,2.42,0,0,0-1.46-.51,2.15,2.15,0,0,0-1.76.86,3.19,3.19,0,0,0-.69,2,2.74,2.74,0,0,0,.75,2,2.38,2.38,0,0,0,1.84.8,2.41,2.41,0,0,0,1.41-.45A2.47,2.47,0,0,0,876.37,504.11Z"/><path class="cls-1" d="M885.34,507.74a5.09,5.09,0,0,1-2.63-.67,4.48,4.48,0,0,1-1.75-1.76,4.91,4.91,0,0,1-.6-2.4,5.16,5.16,0,0,1,.6-2.47,4.56,4.56,0,0,1,1.75-1.79,5,5,0,0,1,2.64-.68,5.37,5.37,0,0,1,2.07.39,4.47,4.47,0,0,1,1.55,1.07,5,5,0,0,1,1,1.54,5.18,5.18,0,0,1,.34,1.84,4.32,4.32,0,0,1-.06.81h-7.29a2.5,2.5,0,0,0,.81,1.72,2.44,2.44,0,0,0,1.69.64,2.71,2.71,0,0,0,1.37-.35,1.9,1.9,0,0,0,.87-.93l2.06.58a4.09,4.09,0,0,1-1.69,1.79A5.27,5.27,0,0,1,885.34,507.74Zm-2.47-5.65h4.93a2.65,2.65,0,0,0-.8-1.72,2.37,2.37,0,0,0-1.68-.65,2.33,2.33,0,0,0-1.67.66A2.58,2.58,0,0,0,882.87,502.09Z"/><path class="cls-1" d="M900.5,507.57h-2.41v-5.29c0-1.46-.5-2.18-1.49-2.18a2.34,2.34,0,0,0-1.47.56,2.83,2.83,0,0,0-1,1.4v5.51h-2.4v-9.43h2.18v1.74a3.63,3.63,0,0,1,1.52-1.4,4.78,4.78,0,0,1,2.22-.51,3.14,3.14,0,0,1,1.2.21,2.29,2.29,0,0,1,.82.56,2.62,2.62,0,0,1,.5.85,4.49,4.49,0,0,1,.25,1,7.54,7.54,0,0,1,.07,1.1Z"/><path class="cls-1" d="M907,507.74a5.18,5.18,0,0,1-2.06-.4,4.37,4.37,0,0,1-1.58-1.07,4.71,4.71,0,0,1-1-1.56,4.89,4.89,0,0,1-.36-1.86,5.08,5.08,0,0,1,.59-2.43,4.62,4.62,0,0,1,1.74-1.77,5.51,5.51,0,0,1,5.25,0,4.11,4.11,0,0,1,1.66,1.77l-2.36.72a2.14,2.14,0,0,0-.81-.8,2.35,2.35,0,0,0-2.87.51,2.87,2.87,0,0,0-.71,2,3,3,0,0,0,.72,2,2.25,2.25,0,0,0,1.75.81,2.35,2.35,0,0,0,1.19-.31,1.84,1.84,0,0,0,.77-.8l2.35.72a4,4,0,0,1-1.63,1.77A5.09,5.09,0,0,1,907,507.74Z"/><path class="cls-1" d="M917,507.74a5.09,5.09,0,0,1-2.63-.67,4.48,4.48,0,0,1-1.75-1.76,4.91,4.91,0,0,1-.6-2.4,5.16,5.16,0,0,1,.6-2.47,4.56,4.56,0,0,1,1.75-1.79,5.05,5.05,0,0,1,2.65-.68,5.32,5.32,0,0,1,2.06.39,4.47,4.47,0,0,1,1.55,1.07,4.65,4.65,0,0,1,1,1.54,5,5,0,0,1,.34,1.84,5.61,5.61,0,0,1-.05.81h-7.3a2.5,2.5,0,0,0,.81,1.72,2.47,2.47,0,0,0,1.7.64,2.7,2.7,0,0,0,1.36-.35,1.85,1.85,0,0,0,.87-.93l2.06.58a4.09,4.09,0,0,1-1.69,1.79A5.24,5.24,0,0,1,917,507.74Zm-2.47-5.65h4.93a2.65,2.65,0,0,0-.8-1.72,2.37,2.37,0,0,0-1.68-.65,2.33,2.33,0,0,0-1.67.66A2.58,2.58,0,0,0,914.57,502.09Z"/><path class="cls-1" d="M999.59,479.14a4.21,4.21,0,0,0-1.37-.82,5.23,5.23,0,0,0-2.07-.45,2.68,2.68,0,0,0-1.52.37,1.25,1.25,0,0,0-.51,1.07,1.37,1.37,0,0,0,0,.36.69.69,0,0,0,.14.3l.22.25a1.44,1.44,0,0,0,.34.21l.4.18a4.27,4.27,0,0,0,.51.17l.58.17.68.18c.55.14,1,.28,1.4.42a6.79,6.79,0,0,1,1.13.52,3.48,3.48,0,0,1,.87.69,2.92,2.92,0,0,1,.51.92,3.6,3.6,0,0,1,.2,1.23,3.72,3.72,0,0,1-.39,1.74,3,3,0,0,1-1,1.2,5.05,5.05,0,0,1-1.5.65,7.29,7.29,0,0,1-1.8.21,9.61,9.61,0,0,1-2.84-.44,8.67,8.67,0,0,1-2.52-1.22l1.1-2.14a6,6,0,0,0,1.73,1,6.43,6.43,0,0,0,2.57.55,2.9,2.9,0,0,0,1.53-.33,1.09,1.09,0,0,0,.52-1,1.23,1.23,0,0,0-.18-.68,1.69,1.69,0,0,0-.68-.51,6.92,6.92,0,0,0-.89-.36c-.25-.08-.68-.21-1.28-.37l-.1,0-.08,0-.1,0a12.08,12.08,0,0,1-1.6-.56,4.6,4.6,0,0,1-1.12-.69,2.52,2.52,0,0,1-.69-.94,3.52,3.52,0,0,1-.21-1.27,3.73,3.73,0,0,1,2.3-3.56,6,6,0,0,1,2.36-.45,7.86,7.86,0,0,1,4.47,1.41Z"/><path class="cls-1" d="M1002.17,483.86a4.94,4.94,0,0,1,.36-1.87,5,5,0,0,1,1-1.56,4.55,4.55,0,0,1,1.57-1.07,5.36,5.36,0,0,1,2.06-.39,5.07,5.07,0,0,1,2.63.68,4.59,4.59,0,0,1,1.72,1.78,5.13,5.13,0,0,1,.58,2.43,5.07,5.07,0,0,1-.34,1.86,5,5,0,0,1-1,1.56,4.61,4.61,0,0,1-1.56,1.07,5.37,5.37,0,0,1-2.07.39,5.16,5.16,0,0,1-1.69-.26,4.5,4.5,0,0,1-1.38-.71,4.7,4.7,0,0,1-1-1.07,4.38,4.38,0,0,1-.65-1.34A5.34,5.34,0,0,1,1002.17,483.86Zm5,2.83a2.24,2.24,0,0,0,1.75-.8,3,3,0,0,0,.71-2,2.88,2.88,0,0,0-.71-2,2.21,2.21,0,0,0-1.75-.8,2.25,2.25,0,0,0-1.76.8,3,3,0,0,0-.71,2,3,3,0,0,0,.71,2A2.23,2.23,0,0,0,1007.13,486.69Z"/><path class="cls-1" d="M1018.07,488.74a5.18,5.18,0,0,1-2.06-.4,4.46,4.46,0,0,1-1.58-1.07,4.71,4.71,0,0,1-1-1.56,4.89,4.89,0,0,1-.36-1.86,5.08,5.08,0,0,1,.59-2.43,4.57,4.57,0,0,1,1.75-1.77,5,5,0,0,1,2.64-.68,5.09,5.09,0,0,1,2.6.65,4.11,4.11,0,0,1,1.66,1.77l-2.36.72a2.12,2.12,0,0,0-.8-.8,2.36,2.36,0,0,0-2.88.51,2.87,2.87,0,0,0-.71,2,3,3,0,0,0,.72,2,2.25,2.25,0,0,0,1.75.81,2.35,2.35,0,0,0,1.19-.31,1.79,1.79,0,0,0,.77-.8l2.35.72a3.91,3.91,0,0,1-1.63,1.77A5.09,5.09,0,0,1,1018.07,488.74Z"/><path class="cls-1" d="M1023.83,477.82v-2.39h2.41v2.39Zm0,10.75v-9.43h2.41v9.43Z"/><path class="cls-1" d="M1027.77,485.78a2.66,2.66,0,0,1,1.12-2.22,4.78,4.78,0,0,1,2.93-.85,6,6,0,0,1,2.27.38v-.5a1.8,1.8,0,0,0-.53-1.39,2.3,2.3,0,0,0-1.58-.48,3.84,3.84,0,0,0-1.44.26,7.72,7.72,0,0,0-1.51.8l-.78-1.58a7.19,7.19,0,0,1,4-1.23,4.57,4.57,0,0,1,3.15,1,3.69,3.69,0,0,1,1.12,2.88v3a.87.87,0,0,0,.13.55.63.63,0,0,0,.45.19v2a5.52,5.52,0,0,1-1,.12,1.71,1.71,0,0,1-1.08-.3,1.34,1.34,0,0,1-.47-.82l0-.48a4.17,4.17,0,0,1-1.53,1.22,4.29,4.29,0,0,1-1.87.43,3.37,3.37,0,0,1-2.35-.84A2.74,2.74,0,0,1,1027.77,485.78Zm5.87.48a1.24,1.24,0,0,0,.45-.82v-1a5,5,0,0,0-1.89-.38,2.73,2.73,0,0,0-1.55.41,1.24,1.24,0,0,0-.6,1.07,1.32,1.32,0,0,0,.46,1,1.73,1.73,0,0,0,1.22.41,2.91,2.91,0,0,0,1-.19A2.72,2.72,0,0,0,1033.64,486.26Z"/><path class="cls-1" d="M1038.73,475.43h2.41v10.11a1.3,1.3,0,0,0,.2.86.75.75,0,0,0,.61.24,2.69,2.69,0,0,0,1.13-.25l.32,1.83a4.82,4.82,0,0,1-1.11.36,6.64,6.64,0,0,1-1.19.13,2.43,2.43,0,0,1-1.75-.61,2.3,2.3,0,0,1-.62-1.71Z"/><path class="cls-1" d="M1062.93,488.57h-2.4v-5.29a2.88,2.88,0,0,0-.38-1.64,1.23,1.23,0,0,0-1.08-.54,2,2,0,0,0-1.35.55,3,3,0,0,0-.9,1.42v5.5h-2.42v-5.29c0-1.46-.49-2.18-1.46-2.18a2.08,2.08,0,0,0-1.35.54,3,3,0,0,0-.9,1.42v5.51h-2.41v-9.43h2.18v1.74a3.68,3.68,0,0,1,1.44-1.41,4.28,4.28,0,0,1,2.07-.5,2.74,2.74,0,0,1,1.79.56,2.51,2.51,0,0,1,.87,1.44,4,4,0,0,1,1.47-1.48,3.85,3.85,0,0,1,2-.52q2.84,0,2.83,3.71Z"/><path class="cls-1" d="M1069.41,488.74a5.12,5.12,0,0,1-2.63-.67,4.55,4.55,0,0,1-1.75-1.76,5,5,0,0,1-.59-2.4,5.27,5.27,0,0,1,.59-2.47,4.63,4.63,0,0,1,1.75-1.79,5.05,5.05,0,0,1,2.65-.68,5.29,5.29,0,0,1,2.06.39,4.47,4.47,0,0,1,1.55,1.07,4.65,4.65,0,0,1,1,1.54,5,5,0,0,1,.34,1.84,5.61,5.61,0,0,1,0,.81H1067a2.5,2.5,0,0,0,.81,1.72,2.47,2.47,0,0,0,1.7.64,2.74,2.74,0,0,0,1.37-.35,1.87,1.87,0,0,0,.86-.93l2.07.58a4.15,4.15,0,0,1-1.69,1.79A5.3,5.3,0,0,1,1069.41,488.74Zm-2.47-5.65h4.93a2.64,2.64,0,0,0-.79-1.72,2.38,2.38,0,0,0-1.69-.65,2.35,2.35,0,0,0-1.67.66A2.58,2.58,0,0,0,1066.94,483.09Z"/><path class="cls-1" d="M1075.23,483.85a5.55,5.55,0,0,1,.54-2.46,4.2,4.2,0,0,1,1.5-1.77,3.88,3.88,0,0,1,2.18-.65,3.58,3.58,0,0,1,1.85.49,3.85,3.85,0,0,1,1.33,1.33v-5.36h2.42v10.44a1,1,0,0,0,.12.55.58.58,0,0,0,.43.19v2a5.71,5.71,0,0,1-1,.12,1.76,1.76,0,0,1-1.07-.32,1.15,1.15,0,0,1-.47-.85l0-.59a3.47,3.47,0,0,1-1.4,1.34,4,4,0,0,1-1.88.47,4.2,4.2,0,0,1-2.31-.65,4.35,4.35,0,0,1-1.6-1.77A5.38,5.38,0,0,1,1075.23,483.85Zm7.4,1.26v-2.25a2.91,2.91,0,0,0-1-1.31,2.33,2.33,0,0,0-1.43-.52,2.19,2.19,0,0,0-1.76.85,3.1,3.1,0,0,0-.71,2,2.81,2.81,0,0,0,.75,2,2.39,2.39,0,0,0,1.86.8,2.46,2.46,0,0,0,1.38-.45A2.25,2.25,0,0,0,1082.63,485.11Z"/><path class="cls-1" d="M1087.41,477.82v-2.39h2.41v2.39Zm0,10.75v-9.43h2.41v9.43Z"/><path class="cls-1" d="M1091.35,485.78a2.66,2.66,0,0,1,1.12-2.22,4.78,4.78,0,0,1,2.93-.85,6,6,0,0,1,2.27.38v-.5a1.8,1.8,0,0,0-.53-1.39,2.3,2.3,0,0,0-1.58-.48,3.84,3.84,0,0,0-1.44.26,7.72,7.72,0,0,0-1.51.8l-.78-1.58a7.19,7.19,0,0,1,4-1.23,4.57,4.57,0,0,1,3.15,1,3.69,3.69,0,0,1,1.12,2.88v3a.87.87,0,0,0,.13.55.63.63,0,0,0,.45.19v2a5.52,5.52,0,0,1-1,.12,1.73,1.73,0,0,1-1.08-.3,1.34,1.34,0,0,1-.47-.82l0-.48a4.17,4.17,0,0,1-1.53,1.22,4.29,4.29,0,0,1-1.87.43,3.37,3.37,0,0,1-2.35-.84A2.74,2.74,0,0,1,1091.35,485.78Zm5.87.48a1.24,1.24,0,0,0,.45-.82v-1a5,5,0,0,0-1.89-.38,2.73,2.73,0,0,0-1.55.41,1.24,1.24,0,0,0-.6,1.07,1.32,1.32,0,0,0,.46,1,1.73,1.73,0,0,0,1.22.41,2.91,2.91,0,0,0,1-.19A2.61,2.61,0,0,0,1097.22,486.26Z"/><path class="cls-1" d="M998.16,504.78a2.67,2.67,0,0,1,1.13-2.22,4.75,4.75,0,0,1,2.92-.85,6,6,0,0,1,2.27.38v-.5a1.8,1.8,0,0,0-.53-1.39,2.3,2.3,0,0,0-1.58-.48,3.91,3.91,0,0,0-1.44.26,7.4,7.4,0,0,0-1.5.8l-.78-1.58a7.17,7.17,0,0,1,4-1.23,4.56,4.56,0,0,1,3.14,1,3.66,3.66,0,0,1,1.12,2.88v3a.87.87,0,0,0,.13.55.63.63,0,0,0,.45.19v2a5.43,5.43,0,0,1-1,.12,1.73,1.73,0,0,1-1.08-.3,1.34,1.34,0,0,1-.47-.82l0-.48a4.13,4.13,0,0,1-1.52,1.22,4.37,4.37,0,0,1-1.88.43,3.38,3.38,0,0,1-2.35-.84A2.74,2.74,0,0,1,998.16,504.78Zm5.87.48a1.24,1.24,0,0,0,.45-.82v-1a4.94,4.94,0,0,0-1.89-.38,2.73,2.73,0,0,0-1.55.41,1.25,1.25,0,0,0-.59,1.07,1.31,1.31,0,0,0,.45,1,1.76,1.76,0,0,0,1.23.41,3,3,0,0,0,1-.19A2.67,2.67,0,0,0,1004,505.26Z"/><path class="cls-1" d="M1008.56,502.85a5.55,5.55,0,0,1,.54-2.46,4.27,4.27,0,0,1,1.5-1.77,3.88,3.88,0,0,1,2.18-.65,3.58,3.58,0,0,1,1.85.49,3.85,3.85,0,0,1,1.33,1.33v-5.36h2.42v10.44a1,1,0,0,0,.12.55.58.58,0,0,0,.43.19v2a5.71,5.71,0,0,1-1,.12,1.76,1.76,0,0,1-1.07-.32,1.15,1.15,0,0,1-.47-.85l0-.59a3.47,3.47,0,0,1-1.4,1.34,4,4,0,0,1-1.88.47,4.2,4.2,0,0,1-2.31-.65,4.35,4.35,0,0,1-1.6-1.77A5.38,5.38,0,0,1,1008.56,502.85Zm7.4,1.26v-2.25a2.91,2.91,0,0,0-1-1.31,2.33,2.33,0,0,0-1.43-.52,2.19,2.19,0,0,0-1.76.85,3.1,3.1,0,0,0-.71,2,2.81,2.81,0,0,0,.75,2,2.39,2.39,0,0,0,1.86.8,2.46,2.46,0,0,0,1.38-.45A2.25,2.25,0,0,0,1016,504.11Z"/><path class="cls-1" d="M1023.25,507.57l-3.48-9.43h2.5l2.37,7.23,2.4-7.23h2.29l-3.46,9.43Z"/><path class="cls-1" d="M1034.65,507.74a5.06,5.06,0,0,1-2.62-.67,4.48,4.48,0,0,1-1.75-1.76,4.91,4.91,0,0,1-.6-2.4,5.16,5.16,0,0,1,.6-2.47,4.56,4.56,0,0,1,1.75-1.79,5,5,0,0,1,2.64-.68,5.29,5.29,0,0,1,2.06.39,4.42,4.42,0,0,1,1.56,1.07,5,5,0,0,1,1,1.54,5.17,5.17,0,0,1,.33,1.84,4.46,4.46,0,0,1,0,.81h-7.29a2.5,2.5,0,0,0,.81,1.72,2.44,2.44,0,0,0,1.69.64,2.74,2.74,0,0,0,1.37-.35,1.87,1.87,0,0,0,.86-.93l2.07.58a4.15,4.15,0,0,1-1.69,1.79A5.3,5.3,0,0,1,1034.65,507.74Zm-2.47-5.65h4.94a2.7,2.7,0,0,0-.8-1.72,2.37,2.37,0,0,0-1.68-.65,2.33,2.33,0,0,0-1.67.66A2.55,2.55,0,0,0,1032.18,502.09Z"/><path class="cls-1" d="M1046.67,500.22a4.58,4.58,0,0,0-2,.44,2.56,2.56,0,0,0-1.23,1.2v5.71h-2.41v-9.43h2.22v2a4.3,4.3,0,0,1,1.28-1.53,3,3,0,0,1,1.64-.61,4.06,4.06,0,0,1,.48,0Z"/><path class="cls-1" d="M1053.67,507.08a6.6,6.6,0,0,1-2.67.64,3.21,3.21,0,0,1-1-.13,2.46,2.46,0,0,1-.77-.4,1.8,1.8,0,0,1-.54-.72,2.73,2.73,0,0,1-.19-1.07V500h-1.24v-1.85h1.24v-3.06H1051v3.06h2V500h-2v4.61c0,.61.31.92.89.92a3.76,3.76,0,0,0,1.32-.34Z"/><path class="cls-1" d="M1054.92,496.82v-2.39h2.41v2.39Zm0,10.75v-9.43h2.41v9.43Z"/><path class="cls-1" d="M1063,507.74a6.66,6.66,0,0,1-2.32-.4,5.24,5.24,0,0,1-1.87-1.16l.86-1.57a5.33,5.33,0,0,0,3.24,1.34,2.15,2.15,0,0,0,1.13-.26.82.82,0,0,0,.42-.75,1.25,1.25,0,0,0,0-.21.56.56,0,0,0-.09-.17,1,1,0,0,0-.12-.15.59.59,0,0,0-.18-.13l-.22-.1-.28-.11-.31-.09-.36-.11-.4-.12c-.46-.14-.84-.28-1.13-.39a7,7,0,0,1-.87-.42,2.18,2.18,0,0,1-.65-.5,2,2,0,0,1-.37-.62,2.37,2.37,0,0,1-.13-.83,2.69,2.69,0,0,1,1-2.21,4.38,4.38,0,0,1,2.78-.83,5,5,0,0,1,3.54,1.34l-1,1.53a4.47,4.47,0,0,0-2.68-1.08,2.18,2.18,0,0,0-1,.22.81.81,0,0,0-.41.75.75.75,0,0,0,.37.69,5.69,5.69,0,0,0,1.34.5c.52.15.94.28,1.24.39a7.57,7.57,0,0,1,1,.41,2.44,2.44,0,0,1,.73.51,2,2,0,0,1,.41.66,2.21,2.21,0,0,1,.16.89,2.62,2.62,0,0,1-1,2.19A4.39,4.39,0,0,1,1063,507.74Z"/><path class="cls-1" d="M1068.4,496.82v-2.39h2.4v2.39Zm0,10.75v-9.43h2.4v9.43Z"/><path class="cls-1" d="M1081.75,507.57h-2.41v-5.29c0-1.46-.5-2.18-1.5-2.18a2.33,2.33,0,0,0-1.46.56,2.83,2.83,0,0,0-1,1.4v5.51H1073v-9.43h2.18v1.74a3.65,3.65,0,0,1,1.53-1.4,4.78,4.78,0,0,1,2.22-.51,3.21,3.21,0,0,1,1.2.21,2.38,2.38,0,0,1,.82.56,2.81,2.81,0,0,1,.5.85,4.49,4.49,0,0,1,.25,1,9.25,9.25,0,0,1,.07,1.1Z"/><path class="cls-1" d="M1083.28,502.85a5.44,5.44,0,0,1,.56-2.47,4.37,4.37,0,0,1,1.56-1.76,4.16,4.16,0,0,1,2.28-.65,3.75,3.75,0,0,1,1.9.48,4.13,4.13,0,0,1,1.39,1.34v-1.65h2.11v9a4.13,4.13,0,0,1-.68,2.38,4.26,4.26,0,0,1-1.86,1.56,6.59,6.59,0,0,1-2.69.52,5.91,5.91,0,0,1-2.56-.5,5.23,5.23,0,0,1-1.86-1.47l1.31-1.27a3.84,3.84,0,0,0,1.37,1,4,4,0,0,0,1.74.38,3.81,3.81,0,0,0,1.08-.15,2.83,2.83,0,0,0,.89-.48,2,2,0,0,0,.62-.83,2.92,2.92,0,0,0,.23-1.18v-1.19a3.29,3.29,0,0,1-1.31,1.25,4,4,0,0,1-4-.21,4.19,4.19,0,0,1-1.51-1.74A5.3,5.3,0,0,1,1083.28,502.85Zm7.39,1.26v-2.25a2.94,2.94,0,0,0-1-1.32,2.4,2.4,0,0,0-1.45-.51,2.15,2.15,0,0,0-1.77.86,3.19,3.19,0,0,0-.69,2,2.74,2.74,0,0,0,.75,2,2.49,2.49,0,0,0,3.26.35A2.54,2.54,0,0,0,1090.67,504.11Z"/><path class="cls-2" d="M32.29,8.81a6.06,6.06,0,0,1,2,4.66,6.51,6.51,0,0,1-2.17,5,7.59,7.59,0,0,1-5.4,2,6.71,6.71,0,0,1-5.62-2.57,11.61,11.61,0,0,1-2-7.22A12.38,12.38,0,0,1,21.31,3a7.16,7.16,0,0,1,6-2.81,8.88,8.88,0,0,1,6.43,2.68l-3,3.42A4.9,4.9,0,0,0,27.2,4.74a2.91,2.91,0,0,0-2.2.84,3.44,3.44,0,0,0-.88,2.32A4.54,4.54,0,0,1,27.2,7,7.24,7.24,0,0,1,32.29,8.81Zm-7.23,6.45a2.27,2.27,0,0,0,3.39,0,2.54,2.54,0,0,0,.73-1.79,2.23,2.23,0,0,0-.71-1.67,2.5,2.5,0,0,0-3.43,0,2.23,2.23,0,0,0-.71,1.67A2.54,2.54,0,0,0,25.06,15.26Z"/><path class="cls-2" d="M45.42,5.13H37.69V.29H53.93L44,20.17H37.92Z"/><path class="cls-2" d="M55.09,20.19V15h4.4v5.15Z"/><path class="cls-2" d="M63.22,20.19c0-1,0-1.86.07-2.51a12.74,12.74,0,0,1,.29-1.95,5.37,5.37,0,0,1,.66-1.65,6.4,6.4,0,0,1,1.12-1.32,10.22,10.22,0,0,1,1.73-1.28l1.18-.67,1.27-.7c.34-.19.72-.43,1.15-.72a6.55,6.55,0,0,0,1-.83,3.47,3.47,0,0,0,.64-.94,2.45,2.45,0,0,0,.27-1.11,1.53,1.53,0,0,0-.53-1.29,2.08,2.08,0,0,0-1.34-.42,4.74,4.74,0,0,0-2.17.58,8.52,8.52,0,0,0-2,1.43L63.22,3.25A9.14,9.14,0,0,1,66.65,1,12.82,12.82,0,0,1,71.51.1a8.08,8.08,0,0,1,5.35,1.6,5.47,5.47,0,0,1,1.92,4.44,6.08,6.08,0,0,1-1,3.55,10,10,0,0,1-3,2.72q-3.47,2.14-4.68,3h8.73v4.75Z"/><path class="cls-2" d="M83.87,7.59A4,4,0,0,1,82.4,4.46a4,4,0,0,1,1.47-3.14A5.22,5.22,0,0,1,87.46,0a5.31,5.31,0,0,1,3.61,1.29,4,4,0,0,1,1.47,3.14,4,4,0,0,1-1.47,3.13,5.27,5.27,0,0,1-3.61,1.3A5.18,5.18,0,0,1,83.87,7.59Zm.92,10.79,8.06-8.93L100,0l2.37,2.11-7.73,8.65-7.48,9.71ZM88.42,5.8a2.24,2.24,0,0,0,.41-1.34,2.22,2.22,0,0,0-.41-1.34,1.1,1.1,0,0,0-1.92,0,2.22,2.22,0,0,0-.4,1.34,2.24,2.24,0,0,0,.4,1.34,1.1,1.1,0,0,0,1.92,0Zm7.67,13.38a4.08,4.08,0,0,1,0-6.27,5.67,5.67,0,0,1,7.2,0,4.08,4.08,0,0,1,0,6.27,5.67,5.67,0,0,1-7.2,0Zm4.56-1.79a2.39,2.39,0,0,0,0-2.68,1.15,1.15,0,0,0-1-.56,1.18,1.18,0,0,0-1,.56,2.39,2.39,0,0,0,0,2.68,1.18,1.18,0,0,0,1,.56A1.15,1.15,0,0,0,100.65,17.39Z"/><path class="cls-1" d="M97.23,70.45a9.31,9.31,0,0,1-4-.83,6.36,6.36,0,0,1-2.74-2.3l3-3.36a6,6,0,0,0,1.83,1.35,4.51,4.51,0,0,0,2,.49,2.31,2.31,0,0,0,1.65-.56,1.94,1.94,0,0,0,.6-1.5A2,2,0,0,0,99,62.26a1.86,1.86,0,0,0-1.42-.57,2.29,2.29,0,0,0-1.09.27,1.77,1.77,0,0,0-.77.71H91.05l2.4-12.37h10.14v4.84H97.34L97,57.3a4.35,4.35,0,0,1,1.3-.14A6.68,6.68,0,0,1,103.19,59a6.68,6.68,0,0,1-.3,9.58A8.28,8.28,0,0,1,97.23,70.45Z"/><path class="cls-1" d="M116.06,70.48a9.07,9.07,0,0,1-2.89-.47,8.28,8.28,0,0,1-2.44-1.31,6.33,6.33,0,0,1-1.68-2.11,6.06,6.06,0,0,1-.63-2.74,4.26,4.26,0,0,1,.72-2.43,7,7,0,0,1,1.73-1.82,3.67,3.67,0,0,1-1.34-1.44,3.89,3.89,0,0,1-.54-1.93,5,5,0,0,1,.66-2.53,5.5,5.5,0,0,1,1.71-1.87,9,9,0,0,1,2.27-1.11,7.91,7.91,0,0,1,2.43-.39,8.26,8.26,0,0,1,3.85,1,7.66,7.66,0,0,1,1.65,1.17,5.16,5.16,0,0,1,1.6,3.73,4,4,0,0,1-.56,2,3.71,3.71,0,0,1-1.36,1.46A6.87,6.87,0,0,1,123,61.46,4.63,4.63,0,0,1,123.7,64a5.78,5.78,0,0,1-1,3.39,6.63,6.63,0,0,1-2.77,2.29A9.29,9.29,0,0,1,116.06,70.48Zm1.54-8.18a2.28,2.28,0,0,0-1.54-.52,2.25,2.25,0,0,0-1.54.53,1.89,1.89,0,0,0,0,2.78,2.37,2.37,0,0,0,3,0,1.8,1.8,0,0,0,.6-1.37A1.78,1.78,0,0,0,117.6,62.3ZM115,57.44a1.68,1.68,0,0,0,1.1.39,1.71,1.71,0,0,0,1.11-.39,1.33,1.33,0,0,0,.48-1.1,1.22,1.22,0,0,0-.45-1,1.85,1.85,0,0,0-2.27,0,1.21,1.21,0,0,0-.44,1A1.35,1.35,0,0,0,115,57.44Z"/><path class="cls-1" d="M127.47,70.21V65.05h4.4v5.16Z"/><path class="cls-1" d="M135.58,60.4a10.77,10.77,0,0,1,1.6-5.61,11,11,0,0,1,1.87-2.29,8.35,8.35,0,0,1,2.57-1.58,8.18,8.18,0,0,1,3.13-.59A8.45,8.45,0,0,1,148,51a8.06,8.06,0,0,1,2.59,1.66A11.13,11.13,0,0,1,152.43,55a10.75,10.75,0,0,1,1.13,2.71,10.33,10.33,0,0,1,.37,2.71,10.68,10.68,0,0,1-.4,2.9A10.32,10.32,0,0,1,152.32,66a10.74,10.74,0,0,1-1.88,2.29,8.48,8.48,0,0,1-5.69,2.15,8.61,8.61,0,0,1-3.27-.62,7.81,7.81,0,0,1-2.58-1.64,11,11,0,0,1-1.82-2.33,11,11,0,0,1-1.5-5.49Zm9.17,5.24a2.85,2.85,0,0,0,1.65-.5,3.32,3.32,0,0,0,1.1-1.3,7.54,7.54,0,0,0,.59-1.67,8.25,8.25,0,0,0,0-3.61,6.75,6.75,0,0,0-.62-1.68,3.32,3.32,0,0,0-1.11-1.24,2.95,2.95,0,0,0-3.24,0A3.3,3.3,0,0,0,142,57a7.77,7.77,0,0,0-.58,1.68,8.05,8.05,0,0,0-.2,1.76,8.76,8.76,0,0,0,.2,1.86,7,7,0,0,0,.61,1.66,3.35,3.35,0,0,0,1.11,1.25A2.9,2.9,0,0,0,144.75,65.64Z"/><path class="cls-1" d="M158.62,57.61a4.09,4.09,0,0,1,0-6.28A5.22,5.22,0,0,1,162.21,50a5.31,5.31,0,0,1,3.61,1.29,4.09,4.09,0,0,1,0,6.28,5.31,5.31,0,0,1-3.61,1.29A5.22,5.22,0,0,1,158.62,57.61Zm.92,10.78,8.06-8.93L174.75,50l2.37,2.11-7.73,8.65-7.48,9.71Zm3.63-12.58a2.39,2.39,0,0,0,0-2.68,1.1,1.1,0,0,0-1.92,0,2.44,2.44,0,0,0,0,2.68,1.1,1.1,0,0,0,1.92,0Zm7.67,13.38a4.07,4.07,0,0,1,0-6.26,5.63,5.63,0,0,1,7.2,0,4.07,4.07,0,0,1,0,6.26,5.67,5.67,0,0,1-7.2,0Zm4.56-1.79a2.39,2.39,0,0,0,0-2.68,1.15,1.15,0,0,0-1-.56,1.18,1.18,0,0,0-1,.56,2.39,2.39,0,0,0,0,2.68,1.15,1.15,0,0,0,1,.56A1.13,1.13,0,0,0,175.4,67.4Z"/><path class="cls-2" d="M235.29,106.87a9.39,9.39,0,0,1-4-.82,6.39,6.39,0,0,1-2.74-2.31l3-3.36a6.29,6.29,0,0,0,1.83,1.35,4.51,4.51,0,0,0,2,.49,2.29,2.29,0,0,0,1.65-.56,1.92,1.92,0,0,0,.61-1.5,2,2,0,0,0-.54-1.48,1.89,1.89,0,0,0-1.42-.57,2.33,2.33,0,0,0-1.1.27,1.83,1.83,0,0,0-.77.71h-4.63l2.39-12.37h10.14v4.84H235.4l-.31,2.16a4.42,4.42,0,0,1,1.31-.14,6.7,6.7,0,0,1,4.84,1.81,6.68,6.68,0,0,1-.3,9.58A8.27,8.27,0,0,1,235.29,106.87Z"/><path class="cls-2" d="M260.46,101.87v4.76H247.27v-4.76h4V91.72a6.39,6.39,0,0,1-2.07,1.57,5.69,5.69,0,0,1-2.64.85V89.26a3.59,3.59,0,0,0,1.26-.26,7.19,7.19,0,0,0,1.27-.64,12.89,12.89,0,0,0,1.08-.76c.33-.27.59-.49.78-.67a2.08,2.08,0,0,0,.32-.32h5.52v15.26Z"/><path class="cls-2" d="M263.79,106.63v-5.16h4.4v5.16Z"/><path class="cls-2" d="M279.18,91.56h-7.72V86.72H287.7l-9.9,19.88h-6.12Z"/><path class="cls-2" d="M291.16,94a4.09,4.09,0,0,1,0-6.28,5.67,5.67,0,0,1,7.2,0,4.09,4.09,0,0,1,0,6.28,5.67,5.67,0,0,1-7.2,0Zm.92,10.78,8.06-8.93,7.15-9.45,2.37,2.11-7.72,8.65-7.49,9.71Zm3.64-12.58a2.44,2.44,0,0,0,0-2.68,1.18,1.18,0,0,0-1-.56,1.15,1.15,0,0,0-1,.56,2.39,2.39,0,0,0,0,2.68,1.15,1.15,0,0,0,1,.56A1.18,1.18,0,0,0,295.72,92.23Zm7.66,13.39a4.08,4.08,0,0,1,0-6.27,5.32,5.32,0,0,1,3.61-1.3,5.23,5.23,0,0,1,3.59,1.3,4.08,4.08,0,0,1,0,6.27A5.26,5.26,0,0,1,307,106.9,5.35,5.35,0,0,1,303.38,105.62Zm4.57-1.8a2.44,2.44,0,0,0,0-2.68,1.18,1.18,0,0,0-1-.56,1.19,1.19,0,0,0-1,.56,2.39,2.39,0,0,0,0,2.68,1.17,1.17,0,0,0,1,.56A1.15,1.15,0,0,0,308,103.82Z"/><path class="cls-1" d="M307.59,68.73a9.28,9.28,0,0,1-4-.83,6.37,6.37,0,0,1-2.74-2.3l3-3.36a6.29,6.29,0,0,0,1.83,1.35,4.51,4.51,0,0,0,2,.49,2.29,2.29,0,0,0,1.65-.56,1.92,1.92,0,0,0,.61-1.5,2,2,0,0,0-.54-1.48,1.89,1.89,0,0,0-1.42-.57,2.44,2.44,0,0,0-1.1.26A2,2,0,0,0,306,61h-4.63l2.39-12.37H314v4.84H307.7l-.31,2.16a4.42,4.42,0,0,1,1.31-.14,6.66,6.66,0,0,1,4.84,1.81,6.17,6.17,0,0,1,1.88,4.66,6.24,6.24,0,0,1-2.18,4.92A8.25,8.25,0,0,1,307.59,68.73Z"/><path class="cls-1" d="M326.42,68.76a9,9,0,0,1-2.89-.47A8,8,0,0,1,321.09,67a6.11,6.11,0,0,1-1.69-2.1,6.19,6.19,0,0,1-.62-2.74,4.31,4.31,0,0,1,.71-2.44,7,7,0,0,1,1.74-1.81,3.77,3.77,0,0,1-1.35-1.44,4,4,0,0,1-.53-1.93A5,5,0,0,1,320,52a5.58,5.58,0,0,1,1.7-1.87A9.2,9.2,0,0,1,324,49a8,8,0,0,1,2.44-.39,8.15,8.15,0,0,1,1.94.23,8,8,0,0,1,1.9.72,7.66,7.66,0,0,1,1.65,1.17,5.06,5.06,0,0,1,1.16,1.65,4.89,4.89,0,0,1,.44,2.08,4,4,0,0,1-.55,2,3.81,3.81,0,0,1-1.37,1.46,6.91,6.91,0,0,1,1.75,1.86,4.6,4.6,0,0,1,.72,2.55,5.85,5.85,0,0,1-1,3.39A6.63,6.63,0,0,1,330.26,68,9.29,9.29,0,0,1,326.42,68.76ZM328,60.58a2.2,2.2,0,0,0-1.53-.52,2.28,2.28,0,0,0-1.55.53,1.89,1.89,0,0,0,0,2.78,2.24,2.24,0,0,0,1.53.55,2.17,2.17,0,0,0,1.53-.56,1.8,1.8,0,0,0,.59-1.37A1.74,1.74,0,0,0,328,60.58Zm-2.63-4.86a1.66,1.66,0,0,0,1.1.39,1.7,1.7,0,0,0,1.1-.39,1.33,1.33,0,0,0,.48-1.1,1.24,1.24,0,0,0-.44-.95,1.68,1.68,0,0,0-1.14-.39,1.64,1.64,0,0,0-1.14.39,1.24,1.24,0,0,0-.44.95A1.33,1.33,0,0,0,325.32,55.72Z"/><path class="cls-1" d="M337.83,68.49V63.33h4.4v5.16Z"/><path class="cls-1" d="M352.65,68.73a9.31,9.31,0,0,1-4-.83,6.43,6.43,0,0,1-2.74-2.3l3-3.36a6,6,0,0,0,1.83,1.35,4.51,4.51,0,0,0,2,.49,2.31,2.31,0,0,0,1.65-.56,1.94,1.94,0,0,0,.6-1.5,2,2,0,0,0-.54-1.48A1.86,1.86,0,0,0,353,60a2.4,2.4,0,0,0-1.09.26,1.85,1.85,0,0,0-.77.72h-4.64l2.4-12.37H359v4.84h-6.25l-.3,2.16a4.35,4.35,0,0,1,1.3-.14,6.68,6.68,0,0,1,4.85,1.81,6.17,6.17,0,0,1,1.88,4.66,6.24,6.24,0,0,1-2.18,4.92A8.28,8.28,0,0,1,352.65,68.73Z"/><path class="cls-1" d="M365.2,55.89a4.09,4.09,0,0,1,0-6.28,5.67,5.67,0,0,1,7.2,0,4.07,4.07,0,0,1,0,6.28,5.67,5.67,0,0,1-7.2,0Zm.92,10.78,8.06-8.93,7.15-9.45,2.37,2.11L376,59.05l-7.49,9.71Zm3.64-12.58a2.44,2.44,0,0,0,0-2.68,1.18,1.18,0,0,0-1-.56,1.15,1.15,0,0,0-1,.56,2.39,2.39,0,0,0,0,2.68,1.15,1.15,0,0,0,1,.56A1.18,1.18,0,0,0,369.76,54.09Zm7.66,13.38a4.07,4.07,0,0,1,0-6.26,5.27,5.27,0,0,1,3.61-1.3,5.18,5.18,0,0,1,3.59,1.3,4.07,4.07,0,0,1,0,6.26A5.22,5.22,0,0,1,381,68.76,5.31,5.31,0,0,1,377.42,67.47ZM382,65.68A2.44,2.44,0,0,0,382,63a1.18,1.18,0,0,0-1-.56,1.19,1.19,0,0,0-1,.56,2.39,2.39,0,0,0,0,2.68,1.17,1.17,0,0,0,1,.56A1.15,1.15,0,0,0,382,65.68Z"/><path class="cls-2" d="M426.57,153.87v-3.81h-7.33V145.3l9-11.31H432V145.3h2.51v4.76H432v3.81Zm-2-8.57h2.63V142Z"/><path class="cls-2" d="M445.51,154.17a9.07,9.07,0,0,1-2.89-.47,8.06,8.06,0,0,1-2.44-1.31,6.24,6.24,0,0,1-1.68-2.11,6,6,0,0,1-.63-2.74,4.28,4.28,0,0,1,.72-2.43,7,7,0,0,1,1.73-1.82,3.67,3.67,0,0,1-1.34-1.44,3.86,3.86,0,0,1-.54-1.92,5,5,0,0,1,.66-2.54,5.59,5.59,0,0,1,1.71-1.87,8.68,8.68,0,0,1,2.27-1.1,7.64,7.64,0,0,1,2.43-.4,8.64,8.64,0,0,1,1.94.23,8.08,8.08,0,0,1,1.91.73,7.24,7.24,0,0,1,1.65,1.17,5.13,5.13,0,0,1,1.16,1.64,5,5,0,0,1,.44,2.08,4,4,0,0,1-.56,2,3.71,3.71,0,0,1-1.36,1.46,6.77,6.77,0,0,1,1.74,1.87,4.58,4.58,0,0,1,.72,2.55,5.82,5.82,0,0,1-1,3.39,6.68,6.68,0,0,1-2.77,2.28A9.13,9.13,0,0,1,445.51,154.17Zm1.54-8.18a2.29,2.29,0,0,0-1.54-.51A2.24,2.24,0,0,0,444,146a1.89,1.89,0,0,0,0,2.78,2.19,2.19,0,0,0,1.52.55,2.12,2.12,0,0,0,1.53-.56,1.8,1.8,0,0,0,.6-1.37A1.78,1.78,0,0,0,447.05,146Zm-2.64-4.85a1.68,1.68,0,0,0,1.1.39,1.71,1.71,0,0,0,1.11-.39,1.34,1.34,0,0,0,.48-1.1,1.22,1.22,0,0,0-.45-1,1.72,1.72,0,0,0-1.14-.38,1.68,1.68,0,0,0-1.13.38,1.21,1.21,0,0,0-.44,1A1.36,1.36,0,0,0,444.41,141.14Z"/><path class="cls-2" d="M456.92,153.9v-5.16h4.4v5.16Z"/><path class="cls-2" d="M471.47,154a10.35,10.35,0,0,1-6.93-2.25l2.77-3.85a6.13,6.13,0,0,0,3.86,1.23,4,4,0,0,0,2.13-.44,1.52,1.52,0,0,0,.67-1.38,1.61,1.61,0,0,0-.86-1.52,6,6,0,0,0-2.78-.48h-.89v-3.69h1a4,4,0,0,0,2.19-.52,1.61,1.61,0,0,0,.83-1.41,1.3,1.3,0,0,0-.49-1.06,2.18,2.18,0,0,0-1.36-.37,4,4,0,0,0-3.4,2l-3.42-4a7,7,0,0,1,3.07-1.82,13.39,13.39,0,0,1,4.37-.7,8.75,8.75,0,0,1,5.11,1.35,4.18,4.18,0,0,1,1.93,3.57,4.61,4.61,0,0,1-1,3,4.33,4.33,0,0,1-2.63,1.6,4.59,4.59,0,0,1,2.87,1.7,5.17,5.17,0,0,1,1.12,3.33,4.84,4.84,0,0,1-2.18,4.18A10.15,10.15,0,0,1,471.47,154Z"/><path class="cls-2" d="M484.42,141.3a4.09,4.09,0,0,1,0-6.28,5.67,5.67,0,0,1,7.2,0,4.09,4.09,0,0,1,0,6.28,5.67,5.67,0,0,1-7.2,0Zm.92,10.78,8.06-8.93,7.15-9.44,2.37,2.1-7.72,8.65-7.49,9.71ZM489,139.5a2.44,2.44,0,0,0,0-2.68,1.18,1.18,0,0,0-1-.56,1.15,1.15,0,0,0-1,.56,2.39,2.39,0,0,0,0,2.68,1.13,1.13,0,0,0,1,.56A1.15,1.15,0,0,0,489,139.5Zm7.66,13.39a4.08,4.08,0,0,1,0-6.27,5.31,5.31,0,0,1,3.61-1.29,5.22,5.22,0,0,1,3.59,1.29,4.08,4.08,0,0,1,0,6.27,5.26,5.26,0,0,1-3.59,1.28A5.35,5.35,0,0,1,496.64,152.89Zm4.57-1.79a2.44,2.44,0,0,0,0-2.68,1.15,1.15,0,0,0-1-.56,1.17,1.17,0,0,0-1,.56,2.39,2.39,0,0,0,0,2.68,1.19,1.19,0,0,0,1,.56A1.18,1.18,0,0,0,501.21,151.1Z"/><path class="cls-1" d="M497.94,117.83a9.46,9.46,0,0,1-4-.83,6.43,6.43,0,0,1-2.74-2.3l3-3.37a5.91,5.91,0,0,0,1.83,1.36,4.66,4.66,0,0,0,2,.49,2.37,2.37,0,0,0,1.65-.56,2,2,0,0,0,.6-1.51,2.06,2.06,0,0,0-.54-1.48,1.86,1.86,0,0,0-1.42-.57,2.29,2.29,0,0,0-1.09.27,1.85,1.85,0,0,0-.77.72h-4.64l2.4-12.38H504.3v4.84h-6.25l-.3,2.16a4.43,4.43,0,0,1,1.3-.13,6.73,6.73,0,0,1,4.85,1.8,6.19,6.19,0,0,1,1.88,4.66,6.25,6.25,0,0,1-2.18,4.93A8.33,8.33,0,0,1,497.94,117.83Z"/><path class="cls-1" d="M516.12,117.55v-3.81h-7.34V109l9-11.31h3.72V109H524v4.76h-2.5v3.81Zm-2-8.57h2.63v-3.35Z"/><path class="cls-1" d="M527.78,117.58v-5.15h4.4v5.15Z"/><path class="cls-1" d="M542.92,117.55v-3.81h-7.33V109l9-11.31h3.71V109h2.51v4.76h-2.51v3.81Zm-2-8.57h2.63v-3.35Z"/><path class="cls-1" d="M555.58,105a4.08,4.08,0,0,1,0-6.27,5.63,5.63,0,0,1,7.2,0,4.06,4.06,0,0,1,0,6.27,5.67,5.67,0,0,1-7.2,0Zm.93,10.78,8-8.93,7.16-9.44,2.36,2.1-7.72,8.66-7.49,9.7Zm3.63-12.58a2.44,2.44,0,0,0,0-2.68,1.1,1.1,0,0,0-1.92,0,2.39,2.39,0,0,0,0,2.68,1.1,1.1,0,0,0,1.92,0Zm7.66,13.39a4.08,4.08,0,0,1,0-6.27,5.68,5.68,0,0,1,7.21,0,4.1,4.1,0,0,1,0,6.27,5.72,5.72,0,0,1-7.21,0Zm4.57-1.79a2.44,2.44,0,0,0,0-2.68,1.15,1.15,0,0,0-1-.56,1.18,1.18,0,0,0-1,.56,2.39,2.39,0,0,0,0,2.68,1.21,1.21,0,0,0,1,.56A1.18,1.18,0,0,0,572.37,114.78Z"/><path class="cls-2" d="M609.12,217.22a10.35,10.35,0,0,1-6.93-2.24l2.77-3.85a6.17,6.17,0,0,0,3.87,1.23,4,4,0,0,0,2.12-.44,1.52,1.52,0,0,0,.67-1.38,1.61,1.61,0,0,0-.86-1.53,6.15,6.15,0,0,0-2.78-.47h-.89v-3.69h1a4,4,0,0,0,2.19-.52,1.62,1.62,0,0,0,.83-1.41,1.27,1.27,0,0,0-.49-1.06,2.18,2.18,0,0,0-1.36-.37,4,4,0,0,0-3.4,2l-3.42-4a7,7,0,0,1,3.07-1.82,13.43,13.43,0,0,1,4.37-.7,8.75,8.75,0,0,1,5.11,1.35,4.19,4.19,0,0,1,1.94,3.57,4.61,4.61,0,0,1-1,3,4.35,4.35,0,0,1-2.64,1.6,4.54,4.54,0,0,1,2.87,1.7,5.16,5.16,0,0,1,1.12,3.33,4.82,4.82,0,0,1-2.18,4.18A10.15,10.15,0,0,1,609.12,217.22Z"/><path class="cls-2" d="M622.72,208.7a6,6,0,0,1-2-4.66,6.53,6.53,0,0,1,2.17-5,7.59,7.59,0,0,1,5.4-2,6.69,6.69,0,0,1,5.62,2.58,11.58,11.58,0,0,1,2,7.21c0,3.29-.72,5.86-2.17,7.73a7.11,7.11,0,0,1-6,2.8,8.89,8.89,0,0,1-6.45-2.68l3-3.42a4.86,4.86,0,0,0,3.53,1.52,2.91,2.91,0,0,0,2.2-.84,3.49,3.49,0,0,0,.88-2.33,4.54,4.54,0,0,1-3.08,1A7.25,7.25,0,0,1,622.72,208.7Zm7.23-6.45a2.26,2.26,0,0,0-3.38,0,2.51,2.51,0,0,0-.74,1.79,2.23,2.23,0,0,0,.71,1.67,2.48,2.48,0,0,0,3.43,0,2.2,2.2,0,0,0,.72-1.67A2.47,2.47,0,0,0,630,202.25Z"/><path class="cls-2" d="M639.68,217.09v-5.16h4.4v5.16Z"/><path class="cls-2" d="M655.08,202h-7.73v-4.84h16.24l-9.89,19.88h-6.13Z"/><path class="cls-2" d="M667.05,204.49a4.09,4.09,0,0,1,0-6.28,5.67,5.67,0,0,1,7.2,0,4.07,4.07,0,0,1,0,6.28,5.67,5.67,0,0,1-7.2,0Zm.93,10.78,8-8.93,7.16-9.45,2.36,2.11-7.72,8.65-7.49,9.71Zm3.63-12.58a2.44,2.44,0,0,0,0-2.68,1.1,1.1,0,0,0-1.92,0,2.44,2.44,0,0,0,0,2.68,1.1,1.1,0,0,0,1.92,0Zm7.67,13.39a4.06,4.06,0,0,1,0-6.27,5.67,5.67,0,0,1,7.2,0,4.08,4.08,0,0,1,0,6.27,5.7,5.7,0,0,1-7.2,0Zm4.56-1.79a2.26,2.26,0,0,0,.41-1.34,2.22,2.22,0,0,0-.41-1.34,1.17,1.17,0,0,0-1-.57,1.19,1.19,0,0,0-1,.57,2.22,2.22,0,0,0-.41,1.34,2.26,2.26,0,0,0,.41,1.34,1.21,1.21,0,0,0,1,.56A1.18,1.18,0,0,0,683.84,214.29Z"/><path class="cls-1" d="M683,173.54a9.24,9.24,0,0,1-4-.83,6.4,6.4,0,0,1-2.75-2.3l3-3.36a6.16,6.16,0,0,0,1.83,1.35,4.51,4.51,0,0,0,2,.49,2.29,2.29,0,0,0,1.65-.56,1.94,1.94,0,0,0,.6-1.5,2.08,2.08,0,0,0-.54-1.49,1.89,1.89,0,0,0-1.42-.56,2.4,2.4,0,0,0-1.09.26,1.85,1.85,0,0,0-.77.72h-4.64l2.4-12.37h10.14v4.84h-6.25l-.3,2.16a4.38,4.38,0,0,1,1.31-.14,6.68,6.68,0,0,1,4.84,1.81,6.17,6.17,0,0,1,1.88,4.66,6.24,6.24,0,0,1-2.18,4.92A8.28,8.28,0,0,1,683,173.54Z"/><path class="cls-1" d="M708.18,168.54v4.75H695v-4.75h4V158.39A6.5,6.5,0,0,1,697,160a5.76,5.76,0,0,1-2.64.85v-4.88a3.68,3.68,0,0,0,1.26-.26,7.19,7.19,0,0,0,1.27-.64c.38-.25.74-.5,1.08-.77s.59-.48.78-.66a2.8,2.8,0,0,0,.32-.32h5.52v15.26Z"/><path class="cls-1" d="M711.5,173.29v-5.15h4.4v5.15Z"/><path class="cls-1" d="M726.33,173.54a9.28,9.28,0,0,1-4-.83,6.37,6.37,0,0,1-2.74-2.3l3-3.36a6.29,6.29,0,0,0,1.83,1.35,4.52,4.52,0,0,0,2,.49,2.28,2.28,0,0,0,1.64-.56,1.92,1.92,0,0,0,.61-1.5,2.08,2.08,0,0,0-.54-1.49,1.91,1.91,0,0,0-1.42-.56,2.37,2.37,0,0,0-1.09.26,2,2,0,0,0-.78.72h-4.63l2.39-12.37h10.15v4.84h-6.25l-.31,2.16a4.42,4.42,0,0,1,1.31-.14,6.66,6.66,0,0,1,4.84,1.81,6.13,6.13,0,0,1,1.88,4.66,6.21,6.21,0,0,1-2.18,4.92A8.25,8.25,0,0,1,726.33,173.54Z"/><path class="cls-1" d="M738.88,160.7a4.09,4.09,0,0,1,0-6.28,5.22,5.22,0,0,1,3.59-1.29,5.31,5.31,0,0,1,3.61,1.29,4.09,4.09,0,0,1,0,6.28,5.31,5.31,0,0,1-3.61,1.29A5.22,5.22,0,0,1,738.88,160.7Zm.92,10.78,8.06-8.93L755,153.1l2.37,2.11-7.73,8.65-7.48,9.71Zm3.63-12.58a2.39,2.39,0,0,0,0-2.68,1.1,1.1,0,0,0-1.92,0,2.44,2.44,0,0,0,0,2.68,1.1,1.1,0,0,0,1.92,0Zm7.67,13.38a4,4,0,0,1-1.48-3.13A4.06,4.06,0,0,1,751.1,166a5.67,5.67,0,0,1,7.2,0,4,4,0,0,1,1.47,3.14,4,4,0,0,1-1.47,3.13,5.67,5.67,0,0,1-7.2,0Zm4.56-1.79a2.39,2.39,0,0,0,0-2.68,1.15,1.15,0,0,0-1-.56,1.18,1.18,0,0,0-1,.56,2.39,2.39,0,0,0,0,2.68,1.15,1.15,0,0,0,1,.56A1.13,1.13,0,0,0,755.66,170.49Z"/><path class="cls-2" d="M779.2,239.23a10.39,10.39,0,0,1-6.93-2.25l2.77-3.85a6.17,6.17,0,0,0,3.87,1.23,4,4,0,0,0,2.12-.44,1.52,1.52,0,0,0,.68-1.38,1.61,1.61,0,0,0-.86-1.52,6.07,6.07,0,0,0-2.79-.48h-.89v-3.69h1a4.1,4.1,0,0,0,2.2-.52,1.6,1.6,0,0,0,.82-1.41,1.26,1.26,0,0,0-.48-1,2.15,2.15,0,0,0-1.37-.38,4,4,0,0,0-3.39,2l-3.43-4a7,7,0,0,1,3.07-1.82A13.49,13.49,0,0,1,780,219a8.77,8.77,0,0,1,5.11,1.35,4.18,4.18,0,0,1,1.93,3.57,4.59,4.59,0,0,1-1,3,4.32,4.32,0,0,1-2.64,1.6,4.58,4.58,0,0,1,2.88,1.7,5.23,5.23,0,0,1,1.12,3.33,4.84,4.84,0,0,1-2.18,4.18A10.16,10.16,0,0,1,779.2,239.23Z"/><path class="cls-2" d="M798.49,224h-7.72v-4.84H807l-9.89,19.88H791Z"/><path class="cls-2" d="M808.17,239.09v-5.16h4.39v5.16Z"/><path class="cls-2" d="M818.33,230.7a6,6,0,0,1-2-4.65,6.54,6.54,0,0,1,2.18-5,7.59,7.59,0,0,1,5.4-2,6.68,6.68,0,0,1,5.62,2.57,11.58,11.58,0,0,1,2,7.21c0,3.29-.72,5.86-2.17,7.73a7.11,7.11,0,0,1-6,2.8,8.89,8.89,0,0,1-6.45-2.68l3-3.42a4.86,4.86,0,0,0,3.53,1.52,2.91,2.91,0,0,0,2.2-.84,3.49,3.49,0,0,0,.88-2.33,4.54,4.54,0,0,1-3.08,1A7.2,7.2,0,0,1,818.33,230.7Zm7.23-6.45a2.27,2.27,0,0,0-3.39,0,2.57,2.57,0,0,0-.73,1.8,2.22,2.22,0,0,0,.71,1.66,2.48,2.48,0,0,0,3.43,0,2.2,2.2,0,0,0,.72-1.66A2.53,2.53,0,0,0,825.56,224.25Z"/><path class="cls-2" d="M836.29,226.49a4.09,4.09,0,0,1,0-6.28,5.24,5.24,0,0,1,3.59-1.29,5.31,5.31,0,0,1,3.61,1.29,4.09,4.09,0,0,1,0,6.28,5.31,5.31,0,0,1-3.61,1.29A5.24,5.24,0,0,1,836.29,226.49Zm.92,10.78,8.06-8.93,7.15-9.44,2.37,2.1-7.72,8.66-7.49,9.7Zm3.63-12.58a2.39,2.39,0,0,0,0-2.68,1.15,1.15,0,0,0-1-.56,1.18,1.18,0,0,0-1,.56,2.44,2.44,0,0,0,0,2.68,1.15,1.15,0,0,0,1,.56A1.13,1.13,0,0,0,840.84,224.69Zm7.67,13.39a4.08,4.08,0,0,1,0-6.27,5.31,5.31,0,0,1,3.61-1.29,5.24,5.24,0,0,1,3.59,1.29,4.08,4.08,0,0,1,0,6.27,5.28,5.28,0,0,1-3.59,1.28A5.35,5.35,0,0,1,848.51,238.08Zm4.57-1.79a2.44,2.44,0,0,0,0-2.68,1.15,1.15,0,0,0-1-.56,1.17,1.17,0,0,0-1,.56,2.39,2.39,0,0,0,0,2.68,1.19,1.19,0,0,0,1,.56A1.18,1.18,0,0,0,853.08,236.29Z"/><path class="cls-1" d="M852,198.69v-3.82h-7.34v-4.75l9-11.31h3.71v11.31h2.51v4.75h-2.51v3.82Zm-2-8.57h2.63v-3.35Z"/><path class="cls-1" d="M869.7,198.85a10.35,10.35,0,0,1-6.93-2.24l2.77-3.86A6.07,6.07,0,0,0,869.4,194a4,4,0,0,0,2.13-.44,1.52,1.52,0,0,0,.67-1.38,1.62,1.62,0,0,0-.86-1.53,6.18,6.18,0,0,0-2.78-.47h-.89v-3.69h1a4,4,0,0,0,2.19-.53,1.6,1.6,0,0,0,.83-1.4,1.28,1.28,0,0,0-.49-1.06,2.18,2.18,0,0,0-1.36-.37,4,4,0,0,0-3.4,2l-3.42-4a7.08,7.08,0,0,1,3.07-1.81,13.39,13.39,0,0,1,4.37-.7,8.75,8.75,0,0,1,5.11,1.35,4.16,4.16,0,0,1,1.93,3.57,4.61,4.61,0,0,1-1,3,4.38,4.38,0,0,1-2.63,1.6,4.54,4.54,0,0,1,2.87,1.7,5.14,5.14,0,0,1,1.12,3.33,4.84,4.84,0,0,1-2.18,4.18A10.15,10.15,0,0,1,869.7,198.85Z"/><path class="cls-1" d="M881.65,198.72v-5.16h4.4v5.16Z"/><path class="cls-1" d="M889.78,198.72c0-1,0-1.86.07-2.52a14.1,14.1,0,0,1,.29-1.95,5.37,5.37,0,0,1,.66-1.65,6.67,6.67,0,0,1,1.12-1.32,10.21,10.21,0,0,1,1.73-1.27c.28-.17.67-.39,1.18-.67l1.28-.71a11.72,11.72,0,0,0,1.14-.71,6.68,6.68,0,0,0,1-.84,3.79,3.79,0,0,0,.64-.94,2.58,2.58,0,0,0,.26-1.11,1.56,1.56,0,0,0-.53-1.29,2.07,2.07,0,0,0-1.33-.42,4.75,4.75,0,0,0-2.18.58,8.81,8.81,0,0,0-2,1.43l-3.33-3.55a9,9,0,0,1,3.43-2.26,12.83,12.83,0,0,1,4.87-.9,8.1,8.1,0,0,1,5.35,1.6,5.51,5.51,0,0,1,1.91,4.44,6.15,6.15,0,0,1-1,3.55,10,10,0,0,1-3,2.73q-3.47,2.15-4.68,3h8.73v4.76Z"/><path class="cls-1" d="M910.43,186.12a4.09,4.09,0,0,1,0-6.28,5.24,5.24,0,0,1,3.59-1.29,5.31,5.31,0,0,1,3.61,1.29,4.09,4.09,0,0,1,0,6.28,5.31,5.31,0,0,1-3.61,1.29A5.24,5.24,0,0,1,910.43,186.12Zm.92,10.78,8.06-8.93,7.15-9.45,2.37,2.11-7.72,8.65L913.72,199ZM915,184.32a2.39,2.39,0,0,0,0-2.68,1.16,1.16,0,0,0-1-.56,1.18,1.18,0,0,0-1,.56,2.44,2.44,0,0,0,0,2.68,1.18,1.18,0,0,0,1,.56A1.16,1.16,0,0,0,915,184.32Zm7.67,13.38a4.07,4.07,0,0,1,0-6.26,5.63,5.63,0,0,1,7.2,0,4.07,4.07,0,0,1,0,6.26,5.67,5.67,0,0,1-7.2,0Zm4.57-1.79a2.44,2.44,0,0,0,0-2.68,1.11,1.11,0,0,0-1.93,0,2.39,2.39,0,0,0,0,2.68,1.11,1.11,0,0,0,1.93,0Z"/><path class="cls-2" d="M948.11,286.93c0-1,0-1.86.07-2.51a14.1,14.1,0,0,1,.29-1.95,5.37,5.37,0,0,1,.66-1.65,6.72,6.72,0,0,1,1.12-1.32,10.64,10.64,0,0,1,1.73-1.28l1.18-.67,1.28-.7q.51-.28,1.14-.72a6.69,6.69,0,0,0,1-.83,4,4,0,0,0,.64-.94,2.58,2.58,0,0,0,.26-1.11A1.5,1.5,0,0,0,957,272a2.06,2.06,0,0,0-1.33-.42,4.68,4.68,0,0,0-2.17.58,8.57,8.57,0,0,0-2,1.43L948.11,270a9.14,9.14,0,0,1,3.43-2.25,12.83,12.83,0,0,1,4.87-.91,8.1,8.1,0,0,1,5.35,1.61,5.5,5.5,0,0,1,1.91,4.44,6.15,6.15,0,0,1-1,3.55,9.9,9.9,0,0,1-3,2.72q-3.46,2.14-4.68,3h8.73v4.76Z"/><path class="cls-2" d="M974.07,287.18a9.43,9.43,0,0,1-4-.83,6.37,6.37,0,0,1-2.74-2.3l3-3.37a6.15,6.15,0,0,0,1.83,1.36,4.55,4.55,0,0,0,2,.49,2.37,2.37,0,0,0,1.65-.56,2,2,0,0,0,.6-1.5,2.08,2.08,0,0,0-.54-1.49,1.87,1.87,0,0,0-1.42-.56,2.25,2.25,0,0,0-1.09.26,2,2,0,0,0-.78.72h-4.63L970.28,267h10.15v4.84h-6.25l-.31,2.16a4.42,4.42,0,0,1,1.31-.14,6.69,6.69,0,0,1,4.84,1.8,6.69,6.69,0,0,1-.3,9.59A8.3,8.3,0,0,1,974.07,287.18Z"/><path class="cls-2" d="M985.62,286.93v-5.15H990v5.15Z"/><path class="cls-2" d="M995.78,278.54a6.06,6.06,0,0,1-2-4.65,6.53,6.53,0,0,1,2.17-5,7.62,7.62,0,0,1,5.4-2,6.71,6.71,0,0,1,5.62,2.57q2,2.57,2,7.22c0,3.28-.72,5.86-2.16,7.72a7.15,7.15,0,0,1-6,2.81,8.91,8.91,0,0,1-6.44-2.68l3-3.42a4.92,4.92,0,0,0,3.53,1.52,2.91,2.91,0,0,0,2.2-.84,3.51,3.51,0,0,0,.88-2.34,4.53,4.53,0,0,1-3.08,1A7.2,7.2,0,0,1,995.78,278.54Zm7.24-6.44a2.32,2.32,0,0,0-1.7-.77,2.28,2.28,0,0,0-1.69.77,2.5,2.5,0,0,0-.73,1.79,2.21,2.21,0,0,0,.71,1.67,2.39,2.39,0,0,0,1.71.68,2.43,2.43,0,0,0,1.72-.68,2.24,2.24,0,0,0,.71-1.67A2.5,2.5,0,0,0,1003,272.1Z"/><path class="cls-2" d="M1013.74,274.33a4.08,4.08,0,0,1,0-6.27,5.67,5.67,0,0,1,7.2,0,4.06,4.06,0,0,1,0,6.27,5.63,5.63,0,0,1-7.2,0Zm.93,10.78,8.05-8.92,7.16-9.45,2.36,2.1-7.72,8.66-7.49,9.71Zm3.63-12.57a2.44,2.44,0,0,0,0-2.68,1.1,1.1,0,0,0-1.92,0,2.39,2.39,0,0,0,0,2.68,1.1,1.1,0,0,0,1.92,0Zm7.66,13.38a4.08,4.08,0,0,1,0-6.27,5.68,5.68,0,0,1,7.21,0,4.1,4.1,0,0,1,0,6.27,5.68,5.68,0,0,1-7.21,0Zm4.57-1.79a2.44,2.44,0,0,0,0-2.68,1.18,1.18,0,0,0-1-.56,1.21,1.21,0,0,0-1,.56,2.39,2.39,0,0,0,0,2.68,1.21,1.21,0,0,0,1,.56A1.18,1.18,0,0,0,1030.53,284.13Z"/><path class="cls-1" d="M1027.92,250.36a10.34,10.34,0,0,1-6.92-2.25l2.76-3.85a6.17,6.17,0,0,0,3.87,1.23,4,4,0,0,0,2.12-.44,1.5,1.5,0,0,0,.68-1.38,1.61,1.61,0,0,0-.86-1.52,6.07,6.07,0,0,0-2.79-.48h-.89V238h1a4.06,4.06,0,0,0,2.19-.52,1.6,1.6,0,0,0,.83-1.4,1.27,1.27,0,0,0-.49-1.06,2.21,2.21,0,0,0-1.37-.38,4,4,0,0,0-3.39,2l-3.42-4a7,7,0,0,1,3.06-1.82,13.49,13.49,0,0,1,4.38-.7,8.68,8.68,0,0,1,5.11,1.36,4.15,4.15,0,0,1,1.93,3.56,4.59,4.59,0,0,1-1,3,4.32,4.32,0,0,1-2.64,1.6,4.58,4.58,0,0,1,2.88,1.7,5.23,5.23,0,0,1,1.12,3.33,4.87,4.87,0,0,1-2.18,4.19A10.17,10.17,0,0,1,1027.92,250.36Z"/><path class="cls-1" d="M1045.91,250.36a10.35,10.35,0,0,1-6.93-2.25l2.77-3.85a6.13,6.13,0,0,0,3.86,1.23,4,4,0,0,0,2.13-.44,1.52,1.52,0,0,0,.67-1.38,1.61,1.61,0,0,0-.86-1.52,6,6,0,0,0-2.78-.48h-.89V238h1a4,4,0,0,0,2.19-.52,1.6,1.6,0,0,0,.83-1.4,1.27,1.27,0,0,0-.49-1.06,2.2,2.2,0,0,0-1.36-.38,4,4,0,0,0-3.4,2l-3.42-4a7,7,0,0,1,3.07-1.82,13.39,13.39,0,0,1,4.37-.7,8.68,8.68,0,0,1,5.11,1.36,4.15,4.15,0,0,1,1.93,3.56,4.59,4.59,0,0,1-1,3,4.33,4.33,0,0,1-2.63,1.6,4.59,4.59,0,0,1,2.87,1.7,5.17,5.17,0,0,1,1.12,3.33,4.87,4.87,0,0,1-2.18,4.19A10.15,10.15,0,0,1,1045.91,250.36Z"/><path class="cls-1" d="M1057.86,250.22v-5.15h4.4v5.15Z"/><path class="cls-1" d="M1072.68,250.47a9.38,9.38,0,0,1-4-.83,6.41,6.41,0,0,1-2.75-2.31l3-3.36a6.15,6.15,0,0,0,1.83,1.36,4.66,4.66,0,0,0,2,.49,2.34,2.34,0,0,0,1.65-.56,2,2,0,0,0,.61-1.51,2,2,0,0,0-.55-1.48,1.86,1.86,0,0,0-1.42-.57,2.29,2.29,0,0,0-1.09.27,1.92,1.92,0,0,0-.77.72h-4.63l2.39-12.38H1079v4.84h-6.25l-.3,2.16a4.46,4.46,0,0,1,1.31-.13,6.71,6.71,0,0,1,4.84,1.8,6.19,6.19,0,0,1,1.88,4.66,6.25,6.25,0,0,1-2.18,4.93A8.33,8.33,0,0,1,1072.68,250.47Z"/><path class="cls-1" d="M1085.23,237.62a4.08,4.08,0,0,1,0-6.27,5.63,5.63,0,0,1,7.2,0,4.06,4.06,0,0,1,0,6.27,5.67,5.67,0,0,1-7.2,0Zm.93,10.78,8-8.93,7.16-9.44,2.36,2.1-7.72,8.66-7.49,9.7Zm3.63-12.58a2.44,2.44,0,0,0,0-2.68,1.1,1.1,0,0,0-1.92,0,2.39,2.39,0,0,0,0,2.68,1.1,1.1,0,0,0,1.92,0Zm7.67,13.39a4.06,4.06,0,0,1,0-6.27,5.67,5.67,0,0,1,7.2,0,4.08,4.08,0,0,1,0,6.27,5.7,5.7,0,0,1-7.2,0Zm4.56-1.79a2.44,2.44,0,0,0,0-2.68,1.15,1.15,0,0,0-1-.56,1.18,1.18,0,0,0-1,.56,2.39,2.39,0,0,0,0,2.68,1.21,1.21,0,0,0,1,.56A1.18,1.18,0,0,0,1102,247.42Z"/><polygon class="cls-2" points="21.47 443.45 61.8 40.16 102.13 443.45 21.47 443.45"/><polygon class="cls-1" points="94.64 443.45 134.97 92.5 175.31 443.45 94.64 443.45"/><polygon class="cls-2" points="229.94 443.45 270.27 127.01 310.6 443.45 229.94 443.45"/><polygon class="cls-1" points="303.12 443.45 343.44 92.5 383.78 443.45 303.12 443.45"/><polygon class="cls-2" points="422.05 443.45 462.38 177.79 502.72 443.45 422.05 443.45"/><polygon class="cls-1" points="495.23 443.45 535.56 148.82 575.89 443.45 495.23 443.45"/><polygon class="cls-2" points="606.04 443.45 646.37 240.08 686.7 443.45 606.04 443.45"/><polygon class="cls-1" points="679.21 443.45 719.54 194.15 759.87 443.45 679.21 443.45"/><polygon class="cls-2" points="775.7 443.45 816.03 261.67 856.36 443.45 775.7 443.45"/><polygon class="cls-1" points="848.87 443.45 889.2 220.61 929.53 443.45 848.87 443.45"/><polygon class="cls-2" points="950.99 443.45 991.32 309.31 1031.66 443.45 950.99 443.45"/><polygon class="cls-1" points="1024.17 443.45 1064.5 279.01 1104.83 443.45 1024.17 443.45"/><path class="cls-3" d="M1124.83,444.92H1.47a1.47,1.47,0,1,1,0-2.94H1124.83a1.47,1.47,0,1,1,0,2.94Z"/></g></g></svg>