<svg xmlns="http://www.w3.org/2000/svg" viewBox="0 0 835.94 577.86"><defs><style>.cls-1{fill:#00324a;}.cls-2{fill:#ff574a;}</style></defs><title>18</title><g id="Capa_2" data-name="Capa 2"><g id="Layer_1" data-name="Layer 1"><path class="cls-1" d="M24.27,535.74v-8.39L21,533.59H19.61l-3.27-6.24v8.39H13.86V523h2.66l3.78,7.27L24.11,523h2.65v12.78Z"/><path class="cls-1" d="M28.88,533A2.66,2.66,0,0,1,30,530.73a4.78,4.78,0,0,1,2.93-.85,6,6,0,0,1,2.27.38v-.5a1.8,1.8,0,0,0-.53-1.39,2.3,2.3,0,0,0-1.58-.48,3.87,3.87,0,0,0-1.44.26,7.72,7.72,0,0,0-1.51.8l-.78-1.58a7.19,7.19,0,0,1,4-1.23,4.57,4.57,0,0,1,3.15,1A3.69,3.69,0,0,1,37.61,530v3a.87.87,0,0,0,.13.55.63.63,0,0,0,.45.19v2a5.52,5.52,0,0,1-1,.12,1.73,1.73,0,0,1-1.08-.3,1.34,1.34,0,0,1-.47-.82l0-.48A4.17,4.17,0,0,1,34,535.48a4.29,4.29,0,0,1-1.87.43,3.37,3.37,0,0,1-2.35-.84A2.74,2.74,0,0,1,28.88,533Zm5.87.48a1.24,1.24,0,0,0,.45-.82v-1a5,5,0,0,0-1.89-.38,2.73,2.73,0,0,0-1.55.41,1.24,1.24,0,0,0-.6,1.07,1.32,1.32,0,0,0,.46,1,1.73,1.73,0,0,0,1.22.41,2.91,2.91,0,0,0,1-.19A2.61,2.61,0,0,0,34.75,533.43Z"/><path class="cls-1" d="M44.7,535.91a5.18,5.18,0,0,1-2.06-.4,4.5,4.5,0,0,1-1.59-1.07A5.08,5.08,0,0,1,39.71,531a5.08,5.08,0,0,1,.59-2.43A4.62,4.62,0,0,1,42,526.82a5,5,0,0,1,2.64-.68,5.1,5.1,0,0,1,2.61.65A4.17,4.17,0,0,1,49,528.56l-2.36.72a2.14,2.14,0,0,0-.81-.8,2.23,2.23,0,0,0-1.11-.28,2.28,2.28,0,0,0-1.77.79,2.91,2.91,0,0,0-.7,2,3,3,0,0,0,.72,2,2.25,2.25,0,0,0,1.75.81,2.38,2.38,0,0,0,1.19-.31,1.84,1.84,0,0,0,.77-.8l2.35.72a4,4,0,0,1-1.63,1.77A5.09,5.09,0,0,1,44.7,535.91Z"/><path class="cls-1" d="M59.67,535.74H57.26v-5.29a2.73,2.73,0,0,0-.41-1.64,1.4,1.4,0,0,0-1.17-.54,2.2,2.2,0,0,0-1.39.56,2.73,2.73,0,0,0-1,1.4v5.51H50.91V522.6h2.41v5.45a3.77,3.77,0,0,1,1.42-1.41,4,4,0,0,1,2-.5c2,0,3,1.23,3,3.71Z"/><path class="cls-1" d="M62.22,525V522.6h2.41V525Zm0,10.75v-9.43h2.41v9.43Z"/><path class="cls-1" d="M76,535.74H73.61v-5.29c0-1.46-.49-2.18-1.49-2.18a2.34,2.34,0,0,0-1.47.56,2.75,2.75,0,0,0-1,1.4v5.51H67.26v-9.43h2.18v1.74a3.69,3.69,0,0,1,1.52-1.4,4.83,4.83,0,0,1,2.22-.51,3.14,3.14,0,0,1,1.2.21,2.29,2.29,0,0,1,.82.56,2.62,2.62,0,0,1,.5.85,4.53,4.53,0,0,1,.26,1,9.23,9.23,0,0,1,.06,1.1Z"/><path class="cls-1" d="M83,535.91a5.12,5.12,0,0,1-2.63-.67,4.48,4.48,0,0,1-1.75-1.76,4.91,4.91,0,0,1-.6-2.4,5.16,5.16,0,0,1,.6-2.47,4.56,4.56,0,0,1,1.75-1.79,5.05,5.05,0,0,1,2.65-.68,5.32,5.32,0,0,1,2.06.39,4.47,4.47,0,0,1,1.55,1.07,4.65,4.65,0,0,1,1,1.54,5,5,0,0,1,.34,1.84,5.71,5.71,0,0,1,0,.81h-7.3a2.5,2.5,0,0,0,.81,1.72,2.47,2.47,0,0,0,1.7.64,2.81,2.81,0,0,0,1.36-.35,1.85,1.85,0,0,0,.87-.93l2.07.58a4.17,4.17,0,0,1-1.7,1.79A5.24,5.24,0,0,1,83,535.91Zm-2.47-5.65h4.93a2.65,2.65,0,0,0-.8-1.72,2.37,2.37,0,0,0-1.68-.65,2.33,2.33,0,0,0-1.67.66A2.58,2.58,0,0,0,80.48,530.26Z"/><path class="cls-1" d="M94.55,522.6H97v10.11a1.3,1.3,0,0,0,.21.86.73.73,0,0,0,.6.24,2.7,2.7,0,0,0,1.14-.25l.32,1.83a4.61,4.61,0,0,1-1.12.35,5.72,5.72,0,0,1-1.18.14,2.43,2.43,0,0,1-1.75-.61,2.26,2.26,0,0,1-.62-1.71Z"/><path class="cls-1" d="M105.09,535.91a5.06,5.06,0,0,1-2.62-.67,4.48,4.48,0,0,1-1.75-1.76,4.91,4.91,0,0,1-.6-2.4,5.16,5.16,0,0,1,.6-2.47,4.56,4.56,0,0,1,1.75-1.79,5,5,0,0,1,2.64-.68,5.29,5.29,0,0,1,2.06.39,4.42,4.42,0,0,1,1.56,1.07,5,5,0,0,1,1,1.54A5.17,5.17,0,0,1,110,531a4.53,4.53,0,0,1,0,.81h-7.29a2.5,2.5,0,0,0,.81,1.72,2.44,2.44,0,0,0,1.69.64,2.85,2.85,0,0,0,1.37-.35,1.87,1.87,0,0,0,.86-.93l2.07.58a4.15,4.15,0,0,1-1.69,1.79A5.3,5.3,0,0,1,105.09,535.91Zm-2.47-5.65h4.93a2.64,2.64,0,0,0-.79-1.72,2.37,2.37,0,0,0-1.68-.65,2.33,2.33,0,0,0-1.67.66A2.55,2.55,0,0,0,102.62,530.26Z"/><path class="cls-1" d="M111.29,533a2.67,2.67,0,0,1,1.13-2.22,4.75,4.75,0,0,1,2.92-.85,6,6,0,0,1,2.27.38v-.5a1.8,1.8,0,0,0-.53-1.39,2.3,2.3,0,0,0-1.58-.48,3.91,3.91,0,0,0-1.44.26,7.4,7.4,0,0,0-1.5.8l-.78-1.58a7.17,7.17,0,0,1,4-1.23,4.56,4.56,0,0,1,3.14,1A3.66,3.66,0,0,1,120,530v3a.87.87,0,0,0,.13.55.63.63,0,0,0,.45.19v2a5.43,5.43,0,0,1-1,.12,1.73,1.73,0,0,1-1.08-.3,1.34,1.34,0,0,1-.47-.82l0-.48a4.13,4.13,0,0,1-1.52,1.22,4.37,4.37,0,0,1-1.88.43,3.4,3.4,0,0,1-2.35-.84A2.74,2.74,0,0,1,111.29,533Zm5.87.48a1.24,1.24,0,0,0,.45-.82v-1a4.94,4.94,0,0,0-1.89-.38,2.67,2.67,0,0,0-1.54.41,1.24,1.24,0,0,0-.6,1.07,1.31,1.31,0,0,0,.45,1,1.76,1.76,0,0,0,1.23.41,3,3,0,0,0,1-.19A2.67,2.67,0,0,0,117.16,533.43Z"/><path class="cls-1" d="M128.34,528.39a4.66,4.66,0,0,0-2,.44,2.5,2.5,0,0,0-1.22,1.2v5.71h-2.41v-9.43h2.21v2a4.51,4.51,0,0,1,1.28-1.53,3,3,0,0,1,1.64-.61,4.28,4.28,0,0,1,.49,0Z"/><path class="cls-1" d="M138.89,535.74h-2.4v-5.29c0-1.46-.5-2.18-1.5-2.18a2.34,2.34,0,0,0-1.47.56,2.81,2.81,0,0,0-1,1.4v5.51h-2.41v-9.43h2.18v1.74a3.65,3.65,0,0,1,1.53-1.4,4.76,4.76,0,0,1,2.21-.51,3.23,3.23,0,0,1,1.21.21,2.38,2.38,0,0,1,.82.56,2.6,2.6,0,0,1,.49.85,4.53,4.53,0,0,1,.26,1,9.23,9.23,0,0,1,.06,1.1Z"/><path class="cls-1" d="M141.44,525V522.6h2.41V525Zm0,10.75v-9.43h2.41v9.43Z"/><path class="cls-1" d="M155.24,535.74h-2.4v-5.29c0-1.46-.5-2.18-1.5-2.18a2.34,2.34,0,0,0-1.47.56,2.81,2.81,0,0,0-1,1.4v5.51h-2.41v-9.43h2.18v1.74a3.65,3.65,0,0,1,1.53-1.4,4.78,4.78,0,0,1,2.22-.51,3.21,3.21,0,0,1,1.2.21,2.38,2.38,0,0,1,.82.56,2.6,2.6,0,0,1,.49.85,4,4,0,0,1,.26,1,9.23,9.23,0,0,1,.06,1.1Z"/><path class="cls-1" d="M157.23,531a5.44,5.44,0,0,1,.56-2.47,4.37,4.37,0,0,1,1.56-1.76,4.13,4.13,0,0,1,2.28-.65,3.75,3.75,0,0,1,1.9.48,4.13,4.13,0,0,1,1.39,1.34v-1.65H167v9a4.21,4.21,0,0,1-.68,2.38,4.26,4.26,0,0,1-1.86,1.56,6.6,6.6,0,0,1-2.7.52,5.86,5.86,0,0,1-2.55-.5,5.23,5.23,0,0,1-1.86-1.47l1.31-1.27a3.75,3.75,0,0,0,1.37,1,4,4,0,0,0,1.73.38,3.83,3.83,0,0,0,1.09-.15,2.83,2.83,0,0,0,.89-.48,2,2,0,0,0,.62-.83,2.92,2.92,0,0,0,.23-1.18V534.1a3.35,3.35,0,0,1-1.31,1.25,4,4,0,0,1-4-.21,4.42,4.42,0,0,1-1.52-1.74A5.43,5.43,0,0,1,157.23,531Zm7.39,1.26V530a3,3,0,0,0-1-1.33,2.48,2.48,0,0,0-1.46-.5,2.15,2.15,0,0,0-1.76.86,3.19,3.19,0,0,0-.69,2,2.76,2.76,0,0,0,.75,2,2.4,2.4,0,0,0,1.85.8,2.46,2.46,0,0,0,1.41-.45A2.54,2.54,0,0,0,164.62,532.28Z"/><path class="cls-1" d="M274.46,523H277l4.69,12.78h-2.55l-1.19-3.19h-4.46l-1.17,3.19h-2.56Zm3,7.85-1.76-5.28-1.84,5.28Z"/><path class="cls-1" d="M288.91,528.39a4.58,4.58,0,0,0-2,.44,2.56,2.56,0,0,0-1.23,1.2v5.71h-2.41v-9.43h2.22v2a4.3,4.3,0,0,1,1.28-1.53,3,3,0,0,1,1.64-.61,4.06,4.06,0,0,1,.48,0Z"/><path class="cls-1" d="M296.36,535.25a6.6,6.6,0,0,1-2.67.64,3.21,3.21,0,0,1-.95-.13,2.46,2.46,0,0,1-.77-.4,1.8,1.8,0,0,1-.54-.72,2.73,2.73,0,0,1-.19-1.07v-5.41H290v-1.85h1.24v-3.06h2.42v3.06h2v1.85h-2v4.61c0,.61.31.92.89.92a3.76,3.76,0,0,0,1.32-.34Z"/><path class="cls-1" d="M298.06,525V522.6h2.41V525Zm0,10.75v-9.43h2.41v9.43Z"/><path class="cls-1" d="M303.67,528.64h-1.24v-1.83h1.24v-.57a3.79,3.79,0,0,1,1.05-2.73,3.67,3.67,0,0,1,2.79-1.1,6.29,6.29,0,0,1,3.49,1.18l-1,1.79a4.14,4.14,0,0,0-1.12-.66,3.28,3.28,0,0,0-1.25-.25,1.45,1.45,0,0,0-1.17.48,1.72,1.72,0,0,0-.41,1.19v.67h5.05v8.93h-2.41v-7.1h-2.64v7.1h-2.42Z"/><path class="cls-1" d="M318.17,535.91a5.2,5.2,0,0,1-2.07-.4,4.46,4.46,0,0,1-1.58-1.07,5.06,5.06,0,0,1-1-1.56,4.89,4.89,0,0,1-.36-1.86,5,5,0,0,1,.6-2.43,4.48,4.48,0,0,1,1.74-1.77,5,5,0,0,1,2.64-.68,5.09,5.09,0,0,1,2.6.65,4.11,4.11,0,0,1,1.66,1.77l-2.35.72a2.14,2.14,0,0,0-.81-.8,2.36,2.36,0,0,0-2.88.51,3.24,3.24,0,0,0,0,4.06,2.27,2.27,0,0,0,1.75.81,2.32,2.32,0,0,0,1.19-.31,1.79,1.79,0,0,0,.77-.8l2.36.72a4,4,0,0,1-1.64,1.77A5.06,5.06,0,0,1,318.17,535.91Z"/><path class="cls-1" d="M324.37,525V522.6h2.41V525Zm0,10.75v-9.43h2.41v9.43Z"/><path class="cls-1" d="M328.76,533a2.67,2.67,0,0,1,1.13-2.22,4.75,4.75,0,0,1,2.92-.85,6,6,0,0,1,2.27.38v-.5a1.8,1.8,0,0,0-.53-1.39,2.3,2.3,0,0,0-1.58-.48,3.91,3.91,0,0,0-1.44.26,7.4,7.4,0,0,0-1.5.8l-.79-1.58a7.2,7.2,0,0,1,4-1.23,4.56,4.56,0,0,1,3.14,1,3.66,3.66,0,0,1,1.12,2.88v3a.87.87,0,0,0,.13.55.63.63,0,0,0,.45.19v2a5.52,5.52,0,0,1-1,.12,1.73,1.73,0,0,1-1.08-.3,1.34,1.34,0,0,1-.47-.82l-.05-.48a4.13,4.13,0,0,1-1.52,1.22,4.37,4.37,0,0,1-1.88.43,3.38,3.38,0,0,1-2.35-.84A2.74,2.74,0,0,1,328.76,533Zm5.87.48a1.24,1.24,0,0,0,.45-.82v-1a4.94,4.94,0,0,0-1.89-.38,2.73,2.73,0,0,0-1.55.41,1.25,1.25,0,0,0-.59,1.07,1.31,1.31,0,0,0,.45,1,1.75,1.75,0,0,0,1.22.41,3,3,0,0,0,1.06-.19A2.67,2.67,0,0,0,334.63,533.43Z"/><path class="cls-1" d="M340.17,522.6h2.41v10.11a1.37,1.37,0,0,0,.2.86.76.76,0,0,0,.61.24,2.69,2.69,0,0,0,1.13-.25l.33,1.83a4.61,4.61,0,0,1-1.12.35,5.81,5.81,0,0,1-1.19.14,2.43,2.43,0,0,1-1.75-.61,2.3,2.3,0,0,1-.62-1.71Z"/><path class="cls-1" d="M254.18,544V541.6h2.41V544Zm0,10.75v-9.43h2.41v9.43Z"/><path class="cls-1" d="M268,554.74h-2.4v-5.29c0-1.46-.5-2.18-1.5-2.18a2.36,2.36,0,0,0-1.47.56,2.81,2.81,0,0,0-1,1.4v5.51h-2.41v-9.43h2.18v1.74a3.65,3.65,0,0,1,1.53-1.4,4.78,4.78,0,0,1,2.22-.51,3.21,3.21,0,0,1,1.2.21,2.38,2.38,0,0,1,.82.56,2.6,2.6,0,0,1,.49.85,4,4,0,0,1,.26,1,9.23,9.23,0,0,1,.06,1.1Z"/><path class="cls-1" d="M276.13,554.25a6.52,6.52,0,0,1-2.66.64,3.21,3.21,0,0,1-1-.13,2.35,2.35,0,0,1-.77-.4,1.8,1.8,0,0,1-.54-.72,2.73,2.73,0,0,1-.19-1.07v-5.41h-1.24v-1.85H271v-3.06h2.42v3.06h2v1.85h-2v4.61c0,.61.31.92.89.92a3.76,3.76,0,0,0,1.32-.34Z"/><path class="cls-1" d="M282.09,554.91a5.06,5.06,0,0,1-2.62-.67,4.48,4.48,0,0,1-1.75-1.76,4.91,4.91,0,0,1-.6-2.4,5.16,5.16,0,0,1,.6-2.47,4.56,4.56,0,0,1,1.75-1.79,5,5,0,0,1,2.64-.68,5.29,5.29,0,0,1,2.06.39,4.42,4.42,0,0,1,1.56,1.07,5,5,0,0,1,1,1.54A5.17,5.17,0,0,1,287,550a4.53,4.53,0,0,1,0,.81h-7.29a2.5,2.5,0,0,0,.81,1.72,2.44,2.44,0,0,0,1.69.64,2.85,2.85,0,0,0,1.37-.35,1.87,1.87,0,0,0,.86-.93l2.07.58a4.15,4.15,0,0,1-1.69,1.79A5.3,5.3,0,0,1,282.09,554.91Zm-2.47-5.65h4.93a2.64,2.64,0,0,0-.79-1.72,2.37,2.37,0,0,0-1.68-.65,2.33,2.33,0,0,0-1.67.66A2.55,2.55,0,0,0,279.62,549.26Z"/><path class="cls-1" d="M288.93,541.6h2.4v10.11a1.3,1.3,0,0,0,.21.86.73.73,0,0,0,.6.24,2.7,2.7,0,0,0,1.14-.25l.32,1.83a4.61,4.61,0,0,1-1.12.35,5.72,5.72,0,0,1-1.18.14,2.43,2.43,0,0,1-1.75-.61,2.26,2.26,0,0,1-.62-1.71Z"/><path class="cls-1" d="M295.08,541.6h2.41v10.11a1.3,1.3,0,0,0,.2.86.75.75,0,0,0,.61.24,2.69,2.69,0,0,0,1.13-.25l.33,1.83a4.61,4.61,0,0,1-1.12.35,5.81,5.81,0,0,1-1.19.14,2.43,2.43,0,0,1-1.75-.61,2.3,2.3,0,0,1-.62-1.71Z"/><path class="cls-1" d="M301.25,544V541.6h2.41V544Zm0,10.75v-9.43h2.41v9.43Z"/><path class="cls-1" d="M305.73,550a5.43,5.43,0,0,1,.55-2.47,4.32,4.32,0,0,1,1.57-1.76,4.12,4.12,0,0,1,2.27-.65,3.75,3.75,0,0,1,1.9.48,4.16,4.16,0,0,1,1.4,1.34v-1.65h2.11v9a4.21,4.21,0,0,1-.68,2.38,4.34,4.34,0,0,1-1.87,1.56,6.55,6.55,0,0,1-2.69.52,5.86,5.86,0,0,1-2.55-.5,5.06,5.06,0,0,1-1.86-1.47l1.31-1.27a3.72,3.72,0,0,0,1.36,1,4,4,0,0,0,1.74.38,3.71,3.71,0,0,0,1.08-.15,3,3,0,0,0,.9-.48,2,2,0,0,0,.62-.83,3.1,3.1,0,0,0,.22-1.18V553.1a3.29,3.29,0,0,1-1.31,1.25,4,4,0,0,1-4-.21,4.39,4.39,0,0,1-1.51-1.74A5.29,5.29,0,0,1,305.73,550Zm7.38,1.26V549a3,3,0,0,0-1-1.33,2.45,2.45,0,0,0-1.45-.5,2.13,2.13,0,0,0-1.76.86,3.19,3.19,0,0,0-.69,2,2.79,2.79,0,0,0,.74,2,2.49,2.49,0,0,0,3.26.35A2.54,2.54,0,0,0,313.11,551.28Z"/><path class="cls-1" d="M322.52,554.91a5.06,5.06,0,0,1-2.62-.67,4.48,4.48,0,0,1-1.75-1.76,4.91,4.91,0,0,1-.6-2.4,5.16,5.16,0,0,1,.6-2.47,4.56,4.56,0,0,1,1.75-1.79,5,5,0,0,1,2.64-.68,5.29,5.29,0,0,1,2.06.39,4.42,4.42,0,0,1,1.56,1.07,5,5,0,0,1,1,1.54,5.17,5.17,0,0,1,.33,1.84,4.53,4.53,0,0,1-.05.81h-7.29a2.47,2.47,0,0,0,2.5,2.36,2.85,2.85,0,0,0,1.37-.35,1.87,1.87,0,0,0,.86-.93l2.07.58a4.15,4.15,0,0,1-1.69,1.79A5.3,5.3,0,0,1,322.52,554.91Zm-2.47-5.65H325a2.64,2.64,0,0,0-.79-1.72,2.37,2.37,0,0,0-1.68-.65,2.33,2.33,0,0,0-1.67.66A2.55,2.55,0,0,0,320.05,549.26Z"/><path class="cls-1" d="M338.14,554.74h-2.41v-5.29c0-1.46-.5-2.18-1.5-2.18a2.36,2.36,0,0,0-1.47.56,2.81,2.81,0,0,0-1,1.4v5.51h-2.41v-9.43h2.18v1.74a3.65,3.65,0,0,1,1.53-1.4,4.78,4.78,0,0,1,2.22-.51,3.21,3.21,0,0,1,1.2.21,2.38,2.38,0,0,1,.82.56,2.6,2.6,0,0,1,.49.85,4,4,0,0,1,.26,1,9.12,9.12,0,0,1,.07,1.1Z"/><path class="cls-1" d="M345.08,554.91a5.27,5.27,0,0,1-2.07-.4,4.46,4.46,0,0,1-1.58-1.07,5.14,5.14,0,0,1-.75-5.85,4.62,4.62,0,0,1,1.74-1.77,5.49,5.49,0,0,1,5.24,0,4.13,4.13,0,0,1,1.67,1.77l-2.36.72a2.14,2.14,0,0,0-.81-.8,2.23,2.23,0,0,0-1.11-.28,2.26,2.26,0,0,0-1.77.79,2.91,2.91,0,0,0-.7,2,3,3,0,0,0,.72,2,2.25,2.25,0,0,0,1.75.81,2.38,2.38,0,0,0,1.19-.31,1.84,1.84,0,0,0,.77-.8l2.35.72a4,4,0,0,1-1.63,1.77A5.09,5.09,0,0,1,345.08,554.91Z"/><path class="cls-1" d="M355.58,554.91a5.09,5.09,0,0,1-2.63-.67,4.48,4.48,0,0,1-1.75-1.76,4.91,4.91,0,0,1-.6-2.4,5.16,5.16,0,0,1,.6-2.47,4.56,4.56,0,0,1,1.75-1.79,5,5,0,0,1,2.64-.68,5.37,5.37,0,0,1,2.07.39,4.47,4.47,0,0,1,1.55,1.07,5,5,0,0,1,1,1.54,5.18,5.18,0,0,1,.34,1.84,4.39,4.39,0,0,1-.06.81h-7.29a2.5,2.5,0,0,0,.81,1.72,2.44,2.44,0,0,0,1.69.64,2.82,2.82,0,0,0,1.37-.35,1.9,1.9,0,0,0,.87-.93l2.06.58a4.09,4.09,0,0,1-1.69,1.79A5.27,5.27,0,0,1,355.58,554.91Zm-2.47-5.65H358a2.65,2.65,0,0,0-.8-1.72,2.37,2.37,0,0,0-1.68-.65,2.33,2.33,0,0,0-1.67.66A2.58,2.58,0,0,0,353.11,549.26Z"/><path class="cls-1" d="M438.37,523h2.52l4.7,12.78H443l-1.19-3.19h-4.46l-1.17,3.19h-2.56Zm3,7.85-1.77-5.28-1.84,5.28Z"/><path class="cls-1" d="M446.94,532.21v-5.9h2.41v5.37c0,1.46.52,2.18,1.57,2.18a2.4,2.4,0,0,0,1.38-.44,3.11,3.11,0,0,0,1.05-1.27v-5.84h2.41V533a.87.87,0,0,0,.13.55.63.63,0,0,0,.45.19v2a6,6,0,0,1-1,.1,1.84,1.84,0,0,1-1.06-.29,1.14,1.14,0,0,1-.47-.82l-.05-.76a4,4,0,0,1-1.61,1.45,4.77,4.77,0,0,1-2.19.49,2.65,2.65,0,0,1-2.21-.94A4.36,4.36,0,0,1,446.94,532.21Z"/><path class="cls-1" d="M458,531a5.43,5.43,0,0,1,.55-2.47,4.32,4.32,0,0,1,1.57-1.76,4.12,4.12,0,0,1,2.27-.65,3.75,3.75,0,0,1,1.9.48,4.16,4.16,0,0,1,1.4,1.34v-1.65h2.11v9a4.21,4.21,0,0,1-.68,2.38,4.34,4.34,0,0,1-1.87,1.56,6.55,6.55,0,0,1-2.69.52,5.86,5.86,0,0,1-2.55-.5,5.06,5.06,0,0,1-1.86-1.47l1.31-1.27a3.72,3.72,0,0,0,1.36,1,4,4,0,0,0,1.74.38,3.71,3.71,0,0,0,1.08-.15,3,3,0,0,0,.9-.48,2,2,0,0,0,.62-.83,2.92,2.92,0,0,0,.22-1.18V534.1a3.29,3.29,0,0,1-1.31,1.25,4,4,0,0,1-4-.21,4.39,4.39,0,0,1-1.51-1.74A5.29,5.29,0,0,1,458,531Zm7.38,1.26V530a3,3,0,0,0-1-1.33,2.45,2.45,0,0,0-1.45-.5,2.13,2.13,0,0,0-1.76.86,3.19,3.19,0,0,0-.69,2,2.79,2.79,0,0,0,.74,2,2.49,2.49,0,0,0,3.26.35A2.54,2.54,0,0,0,465.42,532.28Z"/><path class="cls-1" d="M485.11,535.74H482.7v-5.29a2.88,2.88,0,0,0-.38-1.64,1.23,1.23,0,0,0-1.08-.54,2,2,0,0,0-1.35.55,3,3,0,0,0-.9,1.42v5.5h-2.42v-5.29c0-1.46-.48-2.18-1.45-2.18a2,2,0,0,0-1.35.54,2.85,2.85,0,0,0-.9,1.42v5.51h-2.41v-9.43h2.18v1.74a3.72,3.72,0,0,1,1.43-1.41,4.28,4.28,0,0,1,2.07-.5,2.69,2.69,0,0,1,1.8.56,2.51,2.51,0,0,1,.87,1.44,4.07,4.07,0,0,1,1.46-1.48,3.86,3.86,0,0,1,2-.52c1.89,0,2.83,1.23,2.83,3.71Z"/><path class="cls-1" d="M492,535.91a5.09,5.09,0,0,1-2.63-.67,4.48,4.48,0,0,1-1.75-1.76,4.91,4.91,0,0,1-.6-2.4,5.16,5.16,0,0,1,.6-2.47,4.56,4.56,0,0,1,1.75-1.79,5,5,0,0,1,2.64-.68,5.37,5.37,0,0,1,2.07.39,4.47,4.47,0,0,1,1.55,1.07,5,5,0,0,1,1,1.54A5.18,5.18,0,0,1,497,531a4.39,4.39,0,0,1-.06.81h-7.29a2.5,2.5,0,0,0,.81,1.72,2.44,2.44,0,0,0,1.69.64,2.82,2.82,0,0,0,1.37-.35,1.9,1.9,0,0,0,.87-.93l2.06.58a4.09,4.09,0,0,1-1.69,1.79A5.27,5.27,0,0,1,492,535.91Zm-2.47-5.65h4.93a2.65,2.65,0,0,0-.8-1.72,2.37,2.37,0,0,0-1.68-.65,2.33,2.33,0,0,0-1.67.66A2.58,2.58,0,0,0,489.57,530.26Z"/><path class="cls-1" d="M507.65,535.74h-2.41v-5.29c0-1.46-.5-2.18-1.49-2.18a2.34,2.34,0,0,0-1.47.56,2.83,2.83,0,0,0-1,1.4v5.51h-2.4v-9.43h2.17v1.74a3.71,3.71,0,0,1,1.53-1.4,4.78,4.78,0,0,1,2.22-.51,3.14,3.14,0,0,1,1.2.21,2.29,2.29,0,0,1,.82.56,2.62,2.62,0,0,1,.5.85,4.49,4.49,0,0,1,.25,1,7.45,7.45,0,0,1,.07,1.1Z"/><path class="cls-1" d="M515.8,535.25a6.56,6.56,0,0,1-2.67.64,3.21,3.21,0,0,1-1-.13,2.46,2.46,0,0,1-.77-.4,1.7,1.7,0,0,1-.53-.72,2.72,2.72,0,0,1-.2-1.07v-5.41h-1.24v-1.85h1.24v-3.06h2.42v3.06h2v1.85h-2v4.61c0,.61.32.92.9.92a3.71,3.71,0,0,0,1.31-.34Z"/><path class="cls-1" d="M521.76,535.91a5.09,5.09,0,0,1-2.63-.67,4.48,4.48,0,0,1-1.75-1.76,4.91,4.91,0,0,1-.6-2.4,5.16,5.16,0,0,1,.6-2.47,4.56,4.56,0,0,1,1.75-1.79,5.05,5.05,0,0,1,2.65-.68,5.32,5.32,0,0,1,2.06.39,4.47,4.47,0,0,1,1.55,1.07,4.82,4.82,0,0,1,1,1.54,5,5,0,0,1,.34,1.84,5.71,5.71,0,0,1-.05.81h-7.3a2.5,2.5,0,0,0,.81,1.72,2.47,2.47,0,0,0,1.7.64,2.81,2.81,0,0,0,1.36-.35,1.85,1.85,0,0,0,.87-.93l2.06.58a4.09,4.09,0,0,1-1.69,1.79A5.24,5.24,0,0,1,521.76,535.91Zm-2.47-5.65h4.93a2.65,2.65,0,0,0-.8-1.72,2.37,2.37,0,0,0-1.68-.65,2.33,2.33,0,0,0-1.67.66A2.58,2.58,0,0,0,519.29,530.26Z"/><path class="cls-1" d="M528,531a5.54,5.54,0,0,1,.53-2.46,4.29,4.29,0,0,1,1.51-1.77,3.84,3.84,0,0,1,2.17-.65,3.62,3.62,0,0,1,1.86.49,3.94,3.94,0,0,1,1.33,1.33V522.6h2.41V533a.87.87,0,0,0,.13.55.56.56,0,0,0,.43.19v2a5.71,5.71,0,0,1-1,.12,1.74,1.74,0,0,1-1.07-.32,1.22,1.22,0,0,1-.48-.85l0-.59a3.47,3.47,0,0,1-1.4,1.34,4,4,0,0,1-1.88.47,4.15,4.15,0,0,1-2.31-.65,4.35,4.35,0,0,1-1.6-1.77A5.38,5.38,0,0,1,528,531Zm7.4,1.26V530a3,3,0,0,0-1-1.31,2.36,2.36,0,0,0-1.43-.52,2.2,2.2,0,0,0-1.77.85,3.09,3.09,0,0,0-.7,2,2.84,2.84,0,0,0,.74,2,2.43,2.43,0,0,0,1.87.8,2.46,2.46,0,0,0,1.38-.45A2.3,2.3,0,0,0,535.43,532.28Z"/><path class="cls-1" d="M464.43,547.39a4.63,4.63,0,0,0-2,.44,2.5,2.5,0,0,0-1.22,1.2v5.71h-2.41v-9.43H461v2a4.4,4.4,0,0,1,1.28-1.53,3,3,0,0,1,1.64-.61,4.42,4.42,0,0,1,.49,0Z"/><path class="cls-1" d="M470.47,554.91a5.06,5.06,0,0,1-2.62-.67,4.48,4.48,0,0,1-1.75-1.76,4.91,4.91,0,0,1-.6-2.4,5.16,5.16,0,0,1,.6-2.47,4.56,4.56,0,0,1,1.75-1.79,5,5,0,0,1,2.64-.68,5.29,5.29,0,0,1,2.06.39,4.42,4.42,0,0,1,1.56,1.07,5,5,0,0,1,1,1.54,5.17,5.17,0,0,1,.33,1.84,4.53,4.53,0,0,1,0,.81h-7.29a2.5,2.5,0,0,0,.81,1.72,2.44,2.44,0,0,0,1.69.64,2.85,2.85,0,0,0,1.37-.35,1.87,1.87,0,0,0,.86-.93l2.07.58a4.15,4.15,0,0,1-1.69,1.79A5.3,5.3,0,0,1,470.47,554.91ZM468,549.26h4.93a2.64,2.64,0,0,0-.79-1.72,2.37,2.37,0,0,0-1.68-.65,2.33,2.33,0,0,0-1.67.66A2.55,2.55,0,0,0,468,549.26Z"/><path class="cls-1" d="M476.67,552a2.67,2.67,0,0,1,1.13-2.22,4.75,4.75,0,0,1,2.92-.85,6,6,0,0,1,2.27.38v-.5a1.8,1.8,0,0,0-.53-1.39,2.3,2.3,0,0,0-1.58-.48,3.91,3.91,0,0,0-1.44.26,7.4,7.4,0,0,0-1.5.8l-.78-1.58a7.17,7.17,0,0,1,4-1.23,4.56,4.56,0,0,1,3.14,1A3.66,3.66,0,0,1,485.4,549v3a.87.87,0,0,0,.13.55.63.63,0,0,0,.45.19v2a5.43,5.43,0,0,1-1,.12,1.73,1.73,0,0,1-1.08-.3,1.34,1.34,0,0,1-.47-.82l0-.48a4.13,4.13,0,0,1-1.52,1.22,4.37,4.37,0,0,1-1.88.43,3.38,3.38,0,0,1-2.35-.84A2.74,2.74,0,0,1,476.67,552Zm5.87.48a1.24,1.24,0,0,0,.45-.82v-1a4.94,4.94,0,0,0-1.89-.38,2.73,2.73,0,0,0-1.55.41,1.25,1.25,0,0,0-.59,1.07,1.31,1.31,0,0,0,.45,1,1.76,1.76,0,0,0,1.23.41,3,3,0,0,0,1.05-.19A2.67,2.67,0,0,0,482.54,552.43Z"/><path class="cls-1" d="M488.08,541.6h2.41v10.11a1.37,1.37,0,0,0,.2.86.76.76,0,0,0,.61.24,2.69,2.69,0,0,0,1.13-.25l.33,1.83a4.61,4.61,0,0,1-1.12.35,5.81,5.81,0,0,1-1.19.14,2.39,2.39,0,0,1-1.74-.61,2.26,2.26,0,0,1-.63-1.71Z"/><path class="cls-1" d="M494.25,544V541.6h2.41V544Zm0,10.75v-9.43h2.41v9.43Z"/><path class="cls-1" d="M504.94,554.25a6.56,6.56,0,0,1-2.66.64,3.16,3.16,0,0,1-.95-.13,2.35,2.35,0,0,1-.77-.4,1.8,1.8,0,0,1-.54-.72,2.73,2.73,0,0,1-.19-1.07v-5.41h-1.24v-1.85h1.24v-3.06h2.41v3.06h2v1.85h-2v4.61c0,.61.32.92.9.92a3.76,3.76,0,0,0,1.32-.34Z"/><path class="cls-1" d="M506.81,556.57a4.51,4.51,0,0,0,1.08.18.94.94,0,0,0,.79-.41,5.7,5.7,0,0,0,.67-1.6l-3.73-9.43h2.51l2.54,7,2.23-7h2.3l-4,11.3a3.23,3.23,0,0,1-1.19,1.62,3.31,3.31,0,0,1-2,.63,4,4,0,0,1-1.21-.2Z"/><path class="cls-1" d="M614.75,523l3.45,9.82,3.42-9.82h2.61l-4.84,12.78H617L612.14,523Z"/><path class="cls-1" d="M625.81,525V522.6h2.41V525Zm0,10.75v-9.43h2.41v9.43Z"/><path class="cls-1" d="M636.47,528.39a4.58,4.58,0,0,0-2,.44,2.56,2.56,0,0,0-1.23,1.2v5.71h-2.41v-9.43h2.22v2a4.3,4.3,0,0,1,1.28-1.53,3,3,0,0,1,1.63-.61,4.14,4.14,0,0,1,.49,0Z"/><path class="cls-1" d="M643.91,535.25a6.56,6.56,0,0,1-2.66.64,3.16,3.16,0,0,1-1-.13,2.35,2.35,0,0,1-.77-.4,1.8,1.8,0,0,1-.54-.72,2.73,2.73,0,0,1-.19-1.07v-5.41h-1.24v-1.85h1.24v-3.06h2.41v3.06h2v1.85h-2v4.61c0,.61.32.92.9.92a3.76,3.76,0,0,0,1.32-.34Z"/><path class="cls-1" d="M645.53,532.21v-5.9h2.41v5.37c0,1.46.52,2.18,1.57,2.18a2.35,2.35,0,0,0,1.37-.44,3.06,3.06,0,0,0,1.06-1.27v-5.84h2.41V533a.87.87,0,0,0,.13.55.63.63,0,0,0,.45.19v2a6,6,0,0,1-1,.1,1.84,1.84,0,0,1-1.06-.29,1.14,1.14,0,0,1-.47-.82l-.05-.76a4.08,4.08,0,0,1-1.61,1.45,4.8,4.8,0,0,1-2.19.49,2.65,2.65,0,0,1-2.21-.94A4.3,4.3,0,0,1,645.53,532.21Z"/><path class="cls-1" d="M656.54,533a2.66,2.66,0,0,1,1.12-2.22,4.78,4.78,0,0,1,2.93-.85,6,6,0,0,1,2.27.38v-.5a1.8,1.8,0,0,0-.53-1.39,2.31,2.31,0,0,0-1.58-.48,3.84,3.84,0,0,0-1.44.26,7.72,7.72,0,0,0-1.51.8l-.78-1.58a7.19,7.19,0,0,1,4-1.23,4.52,4.52,0,0,1,3.14,1,3.66,3.66,0,0,1,1.12,2.88v3a.87.87,0,0,0,.14.55.61.61,0,0,0,.45.19v2a5.52,5.52,0,0,1-1,.12,1.71,1.71,0,0,1-1.08-.3,1.34,1.34,0,0,1-.47-.82l0-.48a4.25,4.25,0,0,1-1.53,1.22,4.33,4.33,0,0,1-1.87.43,3.37,3.37,0,0,1-2.35-.84A2.74,2.74,0,0,1,656.54,533Zm5.87.48a1.24,1.24,0,0,0,.45-.82v-1a5,5,0,0,0-1.89-.38,2.73,2.73,0,0,0-1.55.41,1.24,1.24,0,0,0-.6,1.07,1.32,1.32,0,0,0,.46,1,1.73,1.73,0,0,0,1.22.41,2.91,2.91,0,0,0,1-.19A2.72,2.72,0,0,0,662.41,533.43Z"/><path class="cls-1" d="M668,522.6h2.41v10.11a1.3,1.3,0,0,0,.2.86.75.75,0,0,0,.61.24,2.69,2.69,0,0,0,1.13-.25l.32,1.83a4.53,4.53,0,0,1-1.11.35,5.89,5.89,0,0,1-1.19.14,2.43,2.43,0,0,1-1.75-.61,2.3,2.3,0,0,1-.62-1.71Z"/><path class="cls-1" d="M620.18,547.39a4.58,4.58,0,0,0-2,.44A2.56,2.56,0,0,0,617,549v5.71h-2.4v-9.43h2.21v2a4.3,4.3,0,0,1,1.28-1.53,3,3,0,0,1,1.64-.61,4.06,4.06,0,0,1,.48,0Z"/><path class="cls-1" d="M626.23,554.91a5.12,5.12,0,0,1-2.63-.67,4.55,4.55,0,0,1-1.75-1.76,4.9,4.9,0,0,1-.59-2.4,5.15,5.15,0,0,1,.59-2.47,4.63,4.63,0,0,1,1.75-1.79,5.05,5.05,0,0,1,2.65-.68,5.32,5.32,0,0,1,2.06.39,4.47,4.47,0,0,1,1.55,1.07,4.65,4.65,0,0,1,1,1.54,5,5,0,0,1,.34,1.84,5.71,5.71,0,0,1,0,.81h-7.3a2.5,2.5,0,0,0,.81,1.72,2.47,2.47,0,0,0,1.7.64,2.81,2.81,0,0,0,1.36-.35,1.85,1.85,0,0,0,.87-.93l2.07.58a4.21,4.21,0,0,1-1.69,1.79A5.3,5.3,0,0,1,626.23,554.91Zm-2.47-5.65h4.93a2.69,2.69,0,0,0-.79-1.72,2.42,2.42,0,0,0-1.69-.65,2.35,2.35,0,0,0-1.67.66A2.58,2.58,0,0,0,623.76,549.26Z"/><path class="cls-1" d="M632.43,552a2.66,2.66,0,0,1,1.12-2.22,4.78,4.78,0,0,1,2.93-.85,6,6,0,0,1,2.27.38v-.5a1.8,1.8,0,0,0-.53-1.39,2.3,2.3,0,0,0-1.58-.48,3.84,3.84,0,0,0-1.44.26,7.72,7.72,0,0,0-1.51.8l-.78-1.58a7.19,7.19,0,0,1,4-1.23,4.52,4.52,0,0,1,3.14,1,3.66,3.66,0,0,1,1.13,2.88v3a.87.87,0,0,0,.13.55.61.61,0,0,0,.45.19v2a5.52,5.52,0,0,1-1,.12,1.73,1.73,0,0,1-1.08-.3,1.34,1.34,0,0,1-.47-.82l0-.48a4.25,4.25,0,0,1-1.53,1.22,4.29,4.29,0,0,1-1.87.43,3.37,3.37,0,0,1-2.35-.84A2.74,2.74,0,0,1,632.43,552Zm5.87.48a1.24,1.24,0,0,0,.45-.82v-1a5,5,0,0,0-1.89-.38,2.73,2.73,0,0,0-1.55.41,1.24,1.24,0,0,0-.6,1.07,1.32,1.32,0,0,0,.46,1,1.73,1.73,0,0,0,1.22.41,2.91,2.91,0,0,0,1.05-.19A2.72,2.72,0,0,0,638.3,552.43Z"/><path class="cls-1" d="M643.84,541.6h2.41v10.11a1.3,1.3,0,0,0,.2.86.73.73,0,0,0,.6.24,2.7,2.7,0,0,0,1.14-.25l.32,1.83a4.39,4.39,0,0,1-1.11.35,5.89,5.89,0,0,1-1.19.14,2.43,2.43,0,0,1-1.75-.61,2.3,2.3,0,0,1-.62-1.71Z"/><path class="cls-1" d="M650,544V541.6h2.41V544Zm0,10.75v-9.43h2.41v9.43Z"/><path class="cls-1" d="M660.7,554.25a6.56,6.56,0,0,1-2.66.64,3.12,3.12,0,0,1-.95-.13,2.4,2.4,0,0,1-.78-.4,1.88,1.88,0,0,1-.53-.72,2.72,2.72,0,0,1-.2-1.07v-5.41h-1.23v-1.85h1.23v-3.06H658v3.06h2v1.85h-2v4.61c0,.61.32.92.9.92a3.76,3.76,0,0,0,1.32-.34Z"/><path class="cls-1" d="M662.56,556.57a4.58,4.58,0,0,0,1.09.18,1,1,0,0,0,.79-.41,6.09,6.09,0,0,0,.66-1.6l-3.72-9.43h2.5l2.54,7,2.24-7H671l-4,11.3a3.15,3.15,0,0,1-1.18,1.62,3.33,3.33,0,0,1-2,.63,4,4,0,0,1-1.22-.2Z"/><path class="cls-1" d="M759.9,535.74V523h8.58v2.18h-6.1v3.29h5.08v2h-5.08v5.29Z"/><path class="cls-1" d="M769,533a2.67,2.67,0,0,1,1.13-2.22,4.78,4.78,0,0,1,2.93-.85,6,6,0,0,1,2.26.38v-.5a1.77,1.77,0,0,0-.53-1.39,2.28,2.28,0,0,0-1.58-.48,3.91,3.91,0,0,0-1.44.26,8,8,0,0,0-1.5.8l-.78-1.58a7.19,7.19,0,0,1,4-1.23,4.52,4.52,0,0,1,3.14,1,3.66,3.66,0,0,1,1.12,2.88v3a.94.94,0,0,0,.13.55.63.63,0,0,0,.45.19v2a5.34,5.34,0,0,1-1,.12,1.68,1.68,0,0,1-1.07-.3,1.29,1.29,0,0,1-.47-.82l-.06-.48a4.13,4.13,0,0,1-1.52,1.22,4.34,4.34,0,0,1-1.88.43,3.36,3.36,0,0,1-2.34-.84A2.75,2.75,0,0,1,769,533Zm5.88.48a1.26,1.26,0,0,0,.44-.82v-1a4.94,4.94,0,0,0-1.89-.38,2.69,2.69,0,0,0-1.54.41,1.24,1.24,0,0,0-.6,1.07,1.29,1.29,0,0,0,.46,1,1.72,1.72,0,0,0,1.22.41,2.91,2.91,0,0,0,1-.19A2.72,2.72,0,0,0,774.89,533.43Z"/><path class="cls-1" d="M784.84,535.91a5.2,5.2,0,0,1-2.07-.4,4.46,4.46,0,0,1-1.58-1.07,5.06,5.06,0,0,1-1-1.56,4.88,4.88,0,0,1-.35-1.86,5,5,0,0,1,.59-2.43,4.48,4.48,0,0,1,1.74-1.77,5,5,0,0,1,2.64-.68,5.07,5.07,0,0,1,2.6.65,4.11,4.11,0,0,1,1.66,1.77l-2.35.72a2.14,2.14,0,0,0-.81-.8A2.36,2.36,0,0,0,783,529a3.24,3.24,0,0,0,0,4.06,2.27,2.27,0,0,0,1.75.81,2.32,2.32,0,0,0,1.19-.31,1.74,1.74,0,0,0,.77-.8l2.36.72a4,4,0,0,1-1.64,1.77A5,5,0,0,1,784.84,535.91Z"/><path class="cls-1" d="M791,525V522.6h2.41V525Zm0,10.75v-9.43h2.41v9.43Z"/><path class="cls-1" d="M795.43,533a2.67,2.67,0,0,1,1.13-2.22,4.75,4.75,0,0,1,2.92-.85,6,6,0,0,1,2.27.38v-.5a1.8,1.8,0,0,0-.53-1.39,2.3,2.3,0,0,0-1.58-.48,3.91,3.91,0,0,0-1.44.26,7.4,7.4,0,0,0-1.5.8l-.79-1.58a7.2,7.2,0,0,1,4-1.23,4.56,4.56,0,0,1,3.14,1,3.66,3.66,0,0,1,1.12,2.88v3a.87.87,0,0,0,.13.55.63.63,0,0,0,.45.19v2a5.52,5.52,0,0,1-1,.12,1.73,1.73,0,0,1-1.08-.3,1.34,1.34,0,0,1-.47-.82l0-.48a4.13,4.13,0,0,1-1.52,1.22,4.37,4.37,0,0,1-1.88.43,3.38,3.38,0,0,1-2.35-.84A2.74,2.74,0,0,1,795.43,533Zm5.87.48a1.24,1.24,0,0,0,.45-.82v-1a4.94,4.94,0,0,0-1.89-.38,2.73,2.73,0,0,0-1.55.41,1.25,1.25,0,0,0-.59,1.07,1.31,1.31,0,0,0,.45,1,1.75,1.75,0,0,0,1.22.41,3,3,0,0,0,1.06-.19A2.67,2.67,0,0,0,801.3,533.43Z"/><path class="cls-1" d="M806.84,522.6h2.41v10.11a1.37,1.37,0,0,0,.2.86.76.76,0,0,0,.61.24,2.69,2.69,0,0,0,1.13-.25l.33,1.83a4.61,4.61,0,0,1-1.12.35,5.81,5.81,0,0,1-1.19.14,2.39,2.39,0,0,1-1.74-.61,2.26,2.26,0,0,1-.63-1.71Z"/><path class="cls-1" d="M739.88,547.39a4.58,4.58,0,0,0-2,.44,2.56,2.56,0,0,0-1.23,1.2v5.71h-2.41v-9.43h2.22v2a4.3,4.3,0,0,1,1.28-1.53,3,3,0,0,1,1.64-.61,4.06,4.06,0,0,1,.48,0Z"/><path class="cls-1" d="M745.93,554.91a5.12,5.12,0,0,1-2.63-.67,4.48,4.48,0,0,1-1.75-1.76,4.9,4.9,0,0,1-.59-2.4,5.15,5.15,0,0,1,.59-2.47,4.56,4.56,0,0,1,1.75-1.79,5.05,5.05,0,0,1,2.65-.68,5.32,5.32,0,0,1,2.06.39,4.47,4.47,0,0,1,1.55,1.07,4.65,4.65,0,0,1,1,1.54,5,5,0,0,1,.34,1.84,5.71,5.71,0,0,1-.05.81h-7.3a2.5,2.5,0,0,0,.81,1.72,2.47,2.47,0,0,0,1.7.64,2.81,2.81,0,0,0,1.36-.35,1.85,1.85,0,0,0,.87-.93l2.07.58a4.17,4.17,0,0,1-1.7,1.79A5.24,5.24,0,0,1,745.93,554.91Zm-2.47-5.65h4.93a2.69,2.69,0,0,0-.79-1.72,2.4,2.4,0,0,0-1.69-.65,2.35,2.35,0,0,0-1.67.66A2.58,2.58,0,0,0,743.46,549.26Z"/><path class="cls-1" d="M757.17,554.91a5.18,5.18,0,0,1-2.06-.4,4.37,4.37,0,0,1-1.58-1.07,4.71,4.71,0,0,1-1-1.56,4.89,4.89,0,0,1-.36-1.86,5.08,5.08,0,0,1,.59-2.43,4.62,4.62,0,0,1,1.74-1.77,5.51,5.51,0,0,1,5.25,0,4.11,4.11,0,0,1,1.66,1.77l-2.36.72a2.14,2.14,0,0,0-.81-.8,2.35,2.35,0,0,0-2.87.51,2.87,2.87,0,0,0-.71,2,3,3,0,0,0,.72,2,2.25,2.25,0,0,0,1.75.81,2.35,2.35,0,0,0,1.19-.31,1.84,1.84,0,0,0,.77-.8l2.35.72a4,4,0,0,1-1.63,1.77A5.09,5.09,0,0,1,757.17,554.91Z"/><path class="cls-1" d="M762.69,550a4.94,4.94,0,0,1,.36-1.87,4.82,4.82,0,0,1,1-1.56,4.55,4.55,0,0,1,1.57-1.07,5.36,5.36,0,0,1,2.06-.39,5,5,0,0,1,2.62.68A4.55,4.55,0,0,1,772,547.6a5.13,5.13,0,0,1,.58,2.43,5.07,5.07,0,0,1-.34,1.86,5,5,0,0,1-1,1.56,4.61,4.61,0,0,1-1.56,1.07,5.37,5.37,0,0,1-2.07.39,5.55,5.55,0,0,1-1.7-.26,4.74,4.74,0,0,1-1.38-.71,5.18,5.18,0,0,1-1-1.07,4.6,4.6,0,0,1-.64-1.34A5,5,0,0,1,762.69,550Zm5,2.83a2.24,2.24,0,0,0,1.75-.8,3.27,3.27,0,0,0,0-4.07,2.33,2.33,0,0,0-3.51,0,3,3,0,0,0-.71,2,3,3,0,0,0,.71,2A2.23,2.23,0,0,0,767.65,552.86Z"/><path class="cls-1" d="M774.09,550a5.43,5.43,0,0,1,.55-2.47,4.37,4.37,0,0,1,1.56-1.76,4.18,4.18,0,0,1,2.28-.65,3.75,3.75,0,0,1,1.9.48,4.16,4.16,0,0,1,1.4,1.34v-1.65h2.11v9a4.14,4.14,0,0,1-.69,2.38,4.26,4.26,0,0,1-1.86,1.56,6.55,6.55,0,0,1-2.69.52,5.86,5.86,0,0,1-2.55-.5,5.06,5.06,0,0,1-1.86-1.47l1.31-1.27a3.72,3.72,0,0,0,1.36,1,4,4,0,0,0,1.74.38,3.81,3.81,0,0,0,1.08-.15,3,3,0,0,0,.9-.48,2,2,0,0,0,.62-.83,3.1,3.1,0,0,0,.22-1.18V553.1a3.29,3.29,0,0,1-1.31,1.25,4,4,0,0,1-4-.21,4.39,4.39,0,0,1-1.51-1.74A5.29,5.29,0,0,1,774.09,550Zm7.38,1.26V549a3,3,0,0,0-1-1.33,2.45,2.45,0,0,0-1.45-.5,2.13,2.13,0,0,0-1.76.86,3.19,3.19,0,0,0-.69,2,2.75,2.75,0,0,0,.74,2,2.49,2.49,0,0,0,3.26.35A2.54,2.54,0,0,0,781.47,551.28Z"/><path class="cls-1" d="M795.27,554.74h-2.41v-5.29c0-1.46-.5-2.18-1.49-2.18a2.34,2.34,0,0,0-1.47.56,2.75,2.75,0,0,0-1,1.4v5.51h-2.41v-9.43h2.18v1.74a3.69,3.69,0,0,1,1.52-1.4,4.83,4.83,0,0,1,2.22-.51,3.14,3.14,0,0,1,1.2.21,2.29,2.29,0,0,1,.82.56,2.62,2.62,0,0,1,.5.85,4.49,4.49,0,0,1,.25,1,7.45,7.45,0,0,1,.07,1.1Z"/><path class="cls-1" d="M797.82,544V541.6h2.41V544Zm0,10.75v-9.43h2.41v9.43Z"/><path class="cls-1" d="M808.51,554.25a6.56,6.56,0,0,1-2.66.64,3.12,3.12,0,0,1-1-.13,2.4,2.4,0,0,1-.78-.4,1.88,1.88,0,0,1-.53-.72,2.72,2.72,0,0,1-.2-1.07v-5.41h-1.23v-1.85h1.23v-3.06h2.42v3.06h2v1.85h-2v4.61c0,.61.32.92.9.92a3.76,3.76,0,0,0,1.32-.34Z"/><path class="cls-1" d="M810.22,544V541.6h2.4V544Zm0,10.75v-9.43h2.4v9.43Z"/><path class="cls-1" d="M814.66,550a4.93,4.93,0,0,1,.35-1.87,5,5,0,0,1,1-1.56,4.55,4.55,0,0,1,1.57-1.07,5.36,5.36,0,0,1,2.06-.39,5.07,5.07,0,0,1,2.63.68A4.52,4.52,0,0,1,824,547.6a5.13,5.13,0,0,1,.58,2.43,5.07,5.07,0,0,1-.34,1.86,5,5,0,0,1-1,1.56,4.42,4.42,0,0,1-1.56,1.07,5.37,5.37,0,0,1-2.07.39,5.44,5.44,0,0,1-1.69-.26,4.5,4.5,0,0,1-1.38-.71,4.7,4.7,0,0,1-1-1.07,4.38,4.38,0,0,1-.65-1.34A5.33,5.33,0,0,1,814.66,550Zm5,2.83a2.28,2.28,0,0,0,1.76-.8,3.31,3.31,0,0,0,0-4.07,2.27,2.27,0,0,0-1.76-.79,2.23,2.23,0,0,0-1.75.8,3.24,3.24,0,0,0,0,4.06A2.23,2.23,0,0,0,819.61,552.86Z"/><path class="cls-1" d="M835.37,554.74H833v-5.29c0-1.46-.5-2.18-1.5-2.18a2.34,2.34,0,0,0-1.47.56,2.81,2.81,0,0,0-1,1.4v5.51h-2.41v-9.43h2.18v1.74a3.65,3.65,0,0,1,1.53-1.4,4.78,4.78,0,0,1,2.22-.51,3.21,3.21,0,0,1,1.2.21,2.38,2.38,0,0,1,.82.56,2.6,2.6,0,0,1,.49.85,4.53,4.53,0,0,1,.26,1,9.23,9.23,0,0,1,.06,1.1Z"/><path class="cls-1" d="M740.59,573.25a6.56,6.56,0,0,1-2.66.64,3.12,3.12,0,0,1-.95-.13,2.4,2.4,0,0,1-.78-.4,1.88,1.88,0,0,1-.53-.72,2.72,2.72,0,0,1-.2-1.07v-5.41h-1.23v-1.85h1.23v-3.06h2.42v3.06h2v1.85h-2v4.61c0,.61.32.92.9.92a3.76,3.76,0,0,0,1.32-.34Z"/><path class="cls-1" d="M746.55,573.91a5.12,5.12,0,0,1-2.63-.67,4.55,4.55,0,0,1-1.75-1.76,5,5,0,0,1-.59-2.4,5.27,5.27,0,0,1,.59-2.47,4.63,4.63,0,0,1,1.75-1.79,5.05,5.05,0,0,1,2.65-.68,5.29,5.29,0,0,1,2.06.39,4.47,4.47,0,0,1,1.55,1.07,4.65,4.65,0,0,1,1,1.54,5,5,0,0,1,.34,1.84,5.71,5.71,0,0,1-.05.81h-7.3a2.5,2.5,0,0,0,.81,1.72,2.47,2.47,0,0,0,1.7.64,2.85,2.85,0,0,0,1.37-.35,1.87,1.87,0,0,0,.86-.93l2.07.58a4.15,4.15,0,0,1-1.69,1.79A5.3,5.3,0,0,1,746.55,573.91Zm-2.47-5.65H749a2.64,2.64,0,0,0-.79-1.72,2.38,2.38,0,0,0-1.69-.65,2.35,2.35,0,0,0-1.67.66A2.58,2.58,0,0,0,744.08,568.26Z"/><path class="cls-1" d="M757.79,573.91a5.18,5.18,0,0,1-2.06-.4,4.46,4.46,0,0,1-1.58-1.07,4.71,4.71,0,0,1-1-1.56,4.89,4.89,0,0,1-.36-1.86,5.08,5.08,0,0,1,.59-2.43,4.57,4.57,0,0,1,1.75-1.77,5,5,0,0,1,2.64-.68,5.09,5.09,0,0,1,2.6.65,4.11,4.11,0,0,1,1.66,1.77l-2.36.72a2.12,2.12,0,0,0-.8-.8A2.36,2.36,0,0,0,756,567a2.87,2.87,0,0,0-.71,2,3,3,0,0,0,.72,2,2.25,2.25,0,0,0,1.75.81,2.35,2.35,0,0,0,1.19-.31,1.79,1.79,0,0,0,.77-.8l2.35.72a3.91,3.91,0,0,1-1.63,1.77A5.09,5.09,0,0,1,757.79,573.91Z"/><path class="cls-1" d="M772.76,573.74h-2.41v-5.29a2.66,2.66,0,0,0-.41-1.64,1.37,1.37,0,0,0-1.17-.54,2.22,2.22,0,0,0-1.39.56,2.79,2.79,0,0,0-1,1.4v5.51H764V560.6h2.41v5.45a3.77,3.77,0,0,1,1.42-1.41,4,4,0,0,1,2-.5c2,0,3,1.23,3,3.71Z"/><path class="cls-1" d="M784.08,573.74h-2.41v-5.29c0-1.46-.5-2.18-1.5-2.18a2.33,2.33,0,0,0-1.46.56,2.83,2.83,0,0,0-1,1.4v5.51h-2.41v-9.43h2.18v1.74a3.71,3.71,0,0,1,1.53-1.4,4.78,4.78,0,0,1,2.22-.51,3.21,3.21,0,0,1,1.2.21,2.38,2.38,0,0,1,.82.56,2.81,2.81,0,0,1,.5.85,4.49,4.49,0,0,1,.25,1,9.12,9.12,0,0,1,.07,1.1Z"/><path class="cls-1" d="M786,569a5.13,5.13,0,0,1,.35-1.87,5,5,0,0,1,1-1.56,4.46,4.46,0,0,1,1.57-1.07,5.29,5.29,0,0,1,2.06-.39,5,5,0,0,1,2.62.68,4.52,4.52,0,0,1,1.72,1.78,5.14,5.14,0,0,1,.59,2.43,5.08,5.08,0,0,1-.35,1.86,4.8,4.8,0,0,1-1,1.56,4.42,4.42,0,0,1-1.56,1.07,5.29,5.29,0,0,1-2.06.39,5.5,5.5,0,0,1-1.7-.26,4.5,4.5,0,0,1-1.38-.71,5.18,5.18,0,0,1-1-1.07,4.36,4.36,0,0,1-.64-1.34A5,5,0,0,1,786,569Zm5,2.83a2.26,2.26,0,0,0,1.75-.8,3.27,3.27,0,0,0,0-4.07,2.33,2.33,0,0,0-3.51,0,3.28,3.28,0,0,0,0,4.06A2.25,2.25,0,0,0,791,571.86Z"/><path class="cls-1" d="M798,560.6h2.41v10.11a1.3,1.3,0,0,0,.2.86.73.73,0,0,0,.6.24,2.7,2.7,0,0,0,1.14-.25l.32,1.83a4.53,4.53,0,0,1-1.11.35,5.89,5.89,0,0,1-1.19.14,2.43,2.43,0,0,1-1.75-.61,2.3,2.3,0,0,1-.62-1.71Z"/><path class="cls-1" d="M803.54,569a5.13,5.13,0,0,1,.35-1.87,5,5,0,0,1,1-1.56,4.46,4.46,0,0,1,1.57-1.07,5.32,5.32,0,0,1,2.06-.39,5,5,0,0,1,2.62.68,4.61,4.61,0,0,1,1.73,1.78,5.33,5.33,0,0,1,.24,4.29,4.82,4.82,0,0,1-1,1.56,4.42,4.42,0,0,1-1.56,1.07,5.29,5.29,0,0,1-2.06.39,5.5,5.5,0,0,1-1.7-.26,4.5,4.5,0,0,1-1.38-.71,5.18,5.18,0,0,1-1-1.07,4.6,4.6,0,0,1-.64-1.34A5,5,0,0,1,803.54,569Zm5,2.83a2.24,2.24,0,0,0,1.75-.8,3.27,3.27,0,0,0,0-4.07,2.33,2.33,0,0,0-3.51,0,3,3,0,0,0-.71,2,2.91,2.91,0,0,0,.71,2A2.23,2.23,0,0,0,808.5,571.86Z"/><path class="cls-1" d="M814.93,569a5.44,5.44,0,0,1,.56-2.47,4.37,4.37,0,0,1,1.56-1.76,4.13,4.13,0,0,1,2.28-.65,3.75,3.75,0,0,1,1.9.48,4.13,4.13,0,0,1,1.39,1.34v-1.65h2.11v9a4.13,4.13,0,0,1-.68,2.38,4.26,4.26,0,0,1-1.86,1.56,6.6,6.6,0,0,1-2.7.52,5.86,5.86,0,0,1-2.55-.5,5.23,5.23,0,0,1-1.86-1.47l1.31-1.27a3.84,3.84,0,0,0,1.37,1,4,4,0,0,0,1.73.38,3.83,3.83,0,0,0,1.09-.15,2.83,2.83,0,0,0,.89-.48,2,2,0,0,0,.62-.83,2.92,2.92,0,0,0,.23-1.18V572.1a3.29,3.29,0,0,1-1.31,1.25,4,4,0,0,1-4-.21,4.31,4.31,0,0,1-1.51-1.74A5.3,5.3,0,0,1,814.93,569Zm7.39,1.26V568a3,3,0,0,0-1-1.33,2.48,2.48,0,0,0-1.46-.5,2.15,2.15,0,0,0-1.76.86,3.19,3.19,0,0,0-.69,2,2.76,2.76,0,0,0,.75,2,2.4,2.4,0,0,0,1.85.8,2.44,2.44,0,0,0,1.41-.45A2.54,2.54,0,0,0,822.32,570.28Z"/><path class="cls-1" d="M827.55,575.57a4.44,4.44,0,0,0,1.08.18.94.94,0,0,0,.79-.41,5.7,5.7,0,0,0,.67-1.6l-3.73-9.43h2.51l2.54,7,2.23-7h2.3l-4,11.3a3.23,3.23,0,0,1-1.19,1.62,3.31,3.31,0,0,1-2,.63,4,4,0,0,1-1.21-.2Z"/><path class="cls-2" d="M181.05,90.53A90.53,90.53,0,1,1,90.53,0,90.52,90.52,0,0,1,181.05,90.53Z"/><path class="cls-2" d="M393.73,90.53A86.54,86.54,0,1,1,307.19,4,86.54,86.54,0,0,1,393.73,90.53Z"/><path class="cls-1" d="M159.75,351.17a69.23,69.23,0,1,1-69.22-69.23A69.22,69.22,0,0,1,159.75,351.17Z"/><path class="cls-1" d="M531.81,351.16a45.26,45.26,0,1,1-45.26-45.26A45.26,45.26,0,0,1,531.81,351.16Z"/><path class="cls-1" d="M814.27,351.16A29.29,29.29,0,1,1,785,321.88,29.29,29.29,0,0,1,814.27,351.16Z"/><path class="cls-1" d="M688.94,351.16a46.6,46.6,0,1,1-46.59-46.59A46.59,46.59,0,0,1,688.94,351.16Z"/><path class="cls-1" d="M380.41,351.17a73.22,73.22,0,1,1-73.22-73.23A73.22,73.22,0,0,1,380.41,351.17Z"/><path class="cls-2" d="M67.34,225.57a6.06,6.06,0,0,1,2,4.66,6.53,6.53,0,0,1-2.17,5,7.63,7.63,0,0,1-5.4,2,6.71,6.71,0,0,1-5.62-2.57q-2-2.57-2-7.22a12.4,12.4,0,0,1,2.17-7.72,7.16,7.16,0,0,1,6-2.81,8.88,8.88,0,0,1,6.42,2.68l-3,3.42a4.88,4.88,0,0,0-3.53-1.5,2.9,2.9,0,0,0-2.2.83,3.46,3.46,0,0,0-.88,2.32,4.59,4.59,0,0,1,3.08-.95A7.24,7.24,0,0,1,67.34,225.57ZM60.11,232a2.25,2.25,0,0,0,3.39,0,2.54,2.54,0,0,0,.73-1.79,2.22,2.22,0,0,0-.72-1.67,2.39,2.39,0,0,0-1.71-.68,2.42,2.42,0,0,0-1.71.68,2.24,2.24,0,0,0-.71,1.67A2.54,2.54,0,0,0,60.11,232Z"/><path class="cls-2" d="M80.13,237.23a9,9,0,0,1-2.89-.47,8.16,8.16,0,0,1-2.44-1.31,6.24,6.24,0,0,1-1.69-2.11,6.05,6.05,0,0,1-.62-2.74,4.31,4.31,0,0,1,.71-2.44,7.28,7.28,0,0,1,1.73-1.81,3.82,3.82,0,0,1-1.34-1.44,4,4,0,0,1-.53-1.93,5,5,0,0,1,.66-2.53,5.58,5.58,0,0,1,1.7-1.87,9.2,9.2,0,0,1,2.27-1.11,8,8,0,0,1,2.44-.39,8.22,8.22,0,0,1,1.94.23A8,8,0,0,1,84,218a7.66,7.66,0,0,1,1.65,1.17,5.06,5.06,0,0,1,1.16,1.65,4.89,4.89,0,0,1,.44,2.08,4,4,0,0,1-.55,2,3.81,3.81,0,0,1-1.37,1.46,6.91,6.91,0,0,1,1.75,1.86,4.62,4.62,0,0,1,.71,2.55,5.84,5.84,0,0,1-1,3.39A6.63,6.63,0,0,1,84,236.44,9.29,9.29,0,0,1,80.13,237.23Zm1.53-8.18a2.2,2.2,0,0,0-1.53-.52,2.28,2.28,0,0,0-1.55.53,1.89,1.89,0,0,0,0,2.78,2.24,2.24,0,0,0,1.53.55,2.17,2.17,0,0,0,1.53-.56,1.81,1.81,0,0,0,.6-1.37A1.75,1.75,0,0,0,81.66,229.05ZM79,224.19a1.66,1.66,0,0,0,1.1.39,1.7,1.7,0,0,0,1.1-.39,1.33,1.33,0,0,0,.48-1.1,1.24,1.24,0,0,0-.44-1,1.68,1.68,0,0,0-1.14-.39,1.64,1.64,0,0,0-1.14.39,1.24,1.24,0,0,0-.44,1A1.33,1.33,0,0,0,79,224.19Z"/><path class="cls-2" d="M91.25,237V231.8h4.4V237Z"/><path class="cls-2" d="M113.11,232.2V237H99.92V232.2h4V222.05a6.39,6.39,0,0,1-2.07,1.57,5.69,5.69,0,0,1-2.64.85v-4.88a3.59,3.59,0,0,0,1.26-.26,6.86,6.86,0,0,0,1.27-.64,13,13,0,0,0,1.08-.77c.33-.26.59-.48.79-.66a2.32,2.32,0,0,0,.31-.32h5.52V232.2Z"/><path class="cls-2" d="M117.15,224.36a4.09,4.09,0,0,1,0-6.28,5.67,5.67,0,0,1,7.2,0,4.07,4.07,0,0,1,0,6.28,5.67,5.67,0,0,1-7.2,0Zm.93,10.78,8-8.93,7.15-9.45,2.37,2.11-7.72,8.65-7.49,9.71Zm3.63-12.58a2.44,2.44,0,0,0,0-2.68,1.1,1.1,0,0,0-1.92,0,2.39,2.39,0,0,0,0,2.68,1.1,1.1,0,0,0,1.92,0Zm7.66,13.38a4.07,4.07,0,0,1,0-6.26,5.65,5.65,0,0,1,7.21,0,4.09,4.09,0,0,1,0,6.26,5.68,5.68,0,0,1-7.21,0Zm4.57-1.79a2.44,2.44,0,0,0,0-2.68,1.18,1.18,0,0,0-1-.56,1.19,1.19,0,0,0-1,.56,2.39,2.39,0,0,0,0,2.68,1.17,1.17,0,0,0,1,.56A1.15,1.15,0,0,0,133.94,234.15Z"/><path class="cls-1" d="M60.06,480.24a9.38,9.38,0,0,1-4-.83,6.46,6.46,0,0,1-2.75-2.3l3-3.37a6.15,6.15,0,0,0,1.83,1.36,4.51,4.51,0,0,0,2,.49,2.34,2.34,0,0,0,1.65-.56,2,2,0,0,0,.61-1.5A2,2,0,0,0,61.8,472a1.86,1.86,0,0,0-1.42-.57,2.29,2.29,0,0,0-1.09.27,1.92,1.92,0,0,0-.77.72H53.89l2.39-12.37H66.42v4.84H60.18l-.31,2.16a4.07,4.07,0,0,1,1.31-.14,6.71,6.71,0,0,1,4.84,1.8,6.69,6.69,0,0,1-.3,9.59A8.33,8.33,0,0,1,60.06,480.24Z"/><path class="cls-1" d="M70.94,480c0-1,0-1.86.07-2.51a12.74,12.74,0,0,1,.29-2,5.37,5.37,0,0,1,.66-1.65,6.44,6.44,0,0,1,1.12-1.33,10.79,10.79,0,0,1,1.73-1.27l1.18-.67,1.28-.7q.49-.29,1.14-.72a6.69,6.69,0,0,0,1-.83,4,4,0,0,0,.64-.94,2.58,2.58,0,0,0,.26-1.11,1.56,1.56,0,0,0-.53-1.3,2.13,2.13,0,0,0-1.33-.41,4.75,4.75,0,0,0-2.18.58,8.52,8.52,0,0,0-2,1.43l-3.33-3.56a9.14,9.14,0,0,1,3.43-2.25,12.82,12.82,0,0,1,4.86-.91,8.11,8.11,0,0,1,5.36,1.61,5.5,5.5,0,0,1,1.91,4.44,6.17,6.17,0,0,1-1,3.55,10.14,10.14,0,0,1-3,2.72q-3.47,2.15-4.68,3h8.73V480Z"/><path class="cls-1" d="M90.31,480v-5.15H94.7V480Z"/><path class="cls-1" d="M111.39,468.61a6.08,6.08,0,0,1,2,4.66,6.56,6.56,0,0,1-2.17,5,7.63,7.63,0,0,1-5.4,2,6.73,6.73,0,0,1-5.63-2.57,11.63,11.63,0,0,1-2-7.22q0-4.92,2.18-7.72a7.14,7.14,0,0,1,6-2.81,8.86,8.86,0,0,1,6.43,2.68l-3,3.42a4.88,4.88,0,0,0-3.54-1.51,2.91,2.91,0,0,0-2.2.84,3.39,3.39,0,0,0-.87,2.32,4.5,4.5,0,0,1,3.07-1A7.29,7.29,0,0,1,111.39,468.61Zm-7.23,6.45a2.26,2.26,0,0,0,3.38,0,2.54,2.54,0,0,0,.73-1.79,2.23,2.23,0,0,0-.71-1.67,2.46,2.46,0,0,0-3.42,0,2.19,2.19,0,0,0-.71,1.67A2.5,2.5,0,0,0,104.16,475.06Z"/><path class="cls-1" d="M117.89,467.39a4.08,4.08,0,0,1,0-6.27,5.22,5.22,0,0,1,3.59-1.29,5.31,5.31,0,0,1,3.61,1.29,4.08,4.08,0,0,1,0,6.27,5.32,5.32,0,0,1-3.61,1.3A5.23,5.23,0,0,1,117.89,467.39Zm.92,10.78,8.06-8.92L134,459.8l2.37,2.1-7.73,8.66-7.48,9.71Zm3.63-12.57a2.39,2.39,0,0,0,0-2.68,1.1,1.1,0,0,0-1.92,0,2.44,2.44,0,0,0,0,2.68,1.1,1.1,0,0,0,1.92,0ZM130.11,479a4.08,4.08,0,0,1,0-6.27,5.67,5.67,0,0,1,7.2,0,4.08,4.08,0,0,1,0,6.27,5.67,5.67,0,0,1-7.2,0Zm4.57-1.79a2.44,2.44,0,0,0,0-2.68,1.11,1.11,0,0,0-1.93,0,2.39,2.39,0,0,0,0,2.68,1.11,1.11,0,0,0,1.93,0Z"/><path class="cls-2" d="M283.27,225.57a6.06,6.06,0,0,1,2,4.66,6.53,6.53,0,0,1-2.17,5,7.63,7.63,0,0,1-5.4,2,6.71,6.71,0,0,1-5.62-2.57c-1.32-1.71-2-4.12-2-7.22a12.4,12.4,0,0,1,2.17-7.72,7.16,7.16,0,0,1,6-2.81,8.92,8.92,0,0,1,6.43,2.68l-3,3.42a4.9,4.9,0,0,0-3.53-1.5,2.9,2.9,0,0,0-2.2.83,3.46,3.46,0,0,0-.88,2.32,4.59,4.59,0,0,1,3.08-.95A7.24,7.24,0,0,1,283.27,225.57ZM276,232a2.25,2.25,0,0,0,3.39,0,2.54,2.54,0,0,0,.73-1.79,2.24,2.24,0,0,0-.71-1.67,2.5,2.5,0,0,0-3.43,0,2.24,2.24,0,0,0-.71,1.67A2.54,2.54,0,0,0,276,232Z"/><path class="cls-2" d="M295.08,237.2a9.31,9.31,0,0,1-4-.83,6.36,6.36,0,0,1-2.74-2.3l3-3.36a6,6,0,0,0,1.83,1.35,4.51,4.51,0,0,0,2,.49,2.33,2.33,0,0,0,1.65-.56,1.94,1.94,0,0,0,.6-1.5,2,2,0,0,0-.54-1.48,1.86,1.86,0,0,0-1.42-.57,2.4,2.4,0,0,0-1.09.26,1.85,1.85,0,0,0-.77.72H288.9l2.4-12.37h10.14v4.84h-6.25l-.3,2.16a4.35,4.35,0,0,1,1.3-.14,6.68,6.68,0,0,1,4.85,1.81,6.17,6.17,0,0,1,1.88,4.66,6.24,6.24,0,0,1-2.18,4.92A8.28,8.28,0,0,1,295.08,237.2Z"/><path class="cls-2" d="M306.35,237V231.8h4.4V237Z"/><path class="cls-2" d="M314.19,237c0-1,0-1.86.07-2.52a14.1,14.1,0,0,1,.29-1.95,5.37,5.37,0,0,1,.66-1.65,7,7,0,0,1,1.12-1.32,10.63,10.63,0,0,1,1.73-1.27c.28-.17.67-.39,1.18-.67l1.28-.71a11.72,11.72,0,0,0,1.14-.71,6.68,6.68,0,0,0,1-.84,3.79,3.79,0,0,0,.64-.94,2.58,2.58,0,0,0,.26-1.11A1.53,1.53,0,0,0,323,222a2.06,2.06,0,0,0-1.33-.42,4.68,4.68,0,0,0-2.17.58,8.87,8.87,0,0,0-2,1.43L314.19,220a9,9,0,0,1,3.43-2.26,12.83,12.83,0,0,1,4.87-.9,8.1,8.1,0,0,1,5.35,1.6,5.51,5.51,0,0,1,1.91,4.44,6.15,6.15,0,0,1-1,3.55,9.79,9.79,0,0,1-3,2.73q-3.47,2.15-4.68,3h8.73V237Z"/><path class="cls-2" d="M334.55,224.36a4.11,4.11,0,0,1,0-6.28,5.68,5.68,0,0,1,7.21,0,4.09,4.09,0,0,1,0,6.28,5.68,5.68,0,0,1-7.21,0Zm.93,10.78,8.06-8.93,7.15-9.45,2.36,2.11-7.72,8.65-7.48,9.71Zm3.63-12.58a2.44,2.44,0,0,0,0-2.68,1.1,1.1,0,0,0-1.92,0,2.44,2.44,0,0,0,0,2.68,1.1,1.1,0,0,0,1.92,0Zm7.67,13.38a4,4,0,0,1,0-6.26,5.63,5.63,0,0,1,7.2,0,4.07,4.07,0,0,1,0,6.26,5.67,5.67,0,0,1-7.2,0Zm4.56-1.79a2.39,2.39,0,0,0,0-2.68,1.1,1.1,0,0,0-1.92,0,2.39,2.39,0,0,0,0,2.68,1.1,1.1,0,0,0,1.92,0Z"/><path class="cls-1" d="M277.82,480.24a9.38,9.38,0,0,1-4-.83,6.46,6.46,0,0,1-2.75-2.3l3-3.37a6.15,6.15,0,0,0,1.83,1.36,4.51,4.51,0,0,0,2,.49,2.34,2.34,0,0,0,1.65-.56,2,2,0,0,0,.61-1.5,2,2,0,0,0-.55-1.49,1.86,1.86,0,0,0-1.42-.57,2.29,2.29,0,0,0-1.09.27,1.92,1.92,0,0,0-.77.72h-4.63L274,460.09h10.14v4.84h-6.25l-.3,2.16a4.07,4.07,0,0,1,1.31-.14,6.71,6.71,0,0,1,4.84,1.8,6.69,6.69,0,0,1-.3,9.59A8.33,8.33,0,0,1,277.82,480.24Z"/><path class="cls-1" d="M295.39,480.24a9.38,9.38,0,0,1-4-.83,6.46,6.46,0,0,1-2.75-2.3l3-3.37a6.15,6.15,0,0,0,1.83,1.36,4.51,4.51,0,0,0,2,.49,2.34,2.34,0,0,0,1.65-.56,2,2,0,0,0,.61-1.5,2,2,0,0,0-.55-1.49,1.86,1.86,0,0,0-1.42-.57,2.29,2.29,0,0,0-1.09.27,1.92,1.92,0,0,0-.77.72h-4.63l2.39-12.37h10.14v4.84h-6.24l-.31,2.16a4.07,4.07,0,0,1,1.31-.14,6.71,6.71,0,0,1,4.84,1.8,6.69,6.69,0,0,1-.3,9.59A8.33,8.33,0,0,1,295.39,480.24Z"/><path class="cls-1" d="M306.66,480v-5.15h4.4V480Z"/><path class="cls-1" d="M321.77,464.93h-7.72v-4.84h16.24L320.39,480h-6.12Z"/><path class="cls-1" d="M333.46,467.39a4.08,4.08,0,0,1,0-6.27,5.67,5.67,0,0,1,7.2,0,4.06,4.06,0,0,1,0,6.27,5.63,5.63,0,0,1-7.2,0Zm.93,10.78,8.05-8.92,7.16-9.45,2.36,2.1-7.72,8.66-7.49,9.71ZM338,465.6a2.44,2.44,0,0,0,0-2.68,1.1,1.1,0,0,0-1.92,0,2.39,2.39,0,0,0,0,2.68,1.1,1.1,0,0,0,1.92,0ZM345.69,479a4.06,4.06,0,0,1,0-6.27,5.67,5.67,0,0,1,7.2,0,4.08,4.08,0,0,1,0,6.27,5.67,5.67,0,0,1-7.2,0Zm4.56-1.79a2.44,2.44,0,0,0,0-2.68,1.18,1.18,0,0,0-1-.56,1.21,1.21,0,0,0-1,.56,2.39,2.39,0,0,0,0,2.68,1.21,1.21,0,0,0,1,.56A1.18,1.18,0,0,0,350.25,477.19Z"/><path class="cls-2" d="M449.08,237c0-1,0-1.86.07-2.52a12.74,12.74,0,0,1,.29-1.95,5.37,5.37,0,0,1,.66-1.65,6.67,6.67,0,0,1,1.12-1.32,10.21,10.21,0,0,1,1.73-1.27c.28-.17.67-.39,1.18-.67l1.28-.71c.33-.18.71-.42,1.14-.71a6.55,6.55,0,0,0,1-.84,3.57,3.57,0,0,0,.65-.94,2.58,2.58,0,0,0,.26-1.11,1.56,1.56,0,0,0-.53-1.29,2.07,2.07,0,0,0-1.33-.42,4.75,4.75,0,0,0-2.18.58,8.81,8.81,0,0,0-2,1.43L449.08,220a9,9,0,0,1,3.43-2.26,12.82,12.82,0,0,1,4.86-.9,8.06,8.06,0,0,1,5.35,1.6,5.49,5.49,0,0,1,1.92,4.44,6.15,6.15,0,0,1-1,3.55,10,10,0,0,1-3,2.73q-3.47,2.15-4.68,3h8.73V237Z"/><path class="cls-2" d="M474.75,237.2a9.28,9.28,0,0,1-4-.83,6.3,6.3,0,0,1-2.74-2.3l3-3.36a6.12,6.12,0,0,0,1.82,1.35,4.59,4.59,0,0,0,2,.49,2.33,2.33,0,0,0,1.65-.56,1.94,1.94,0,0,0,.6-1.5,2,2,0,0,0-.54-1.48,1.88,1.88,0,0,0-1.42-.57,2.4,2.4,0,0,0-1.09.26,1.85,1.85,0,0,0-.77.72h-4.64l2.4-12.37h10.14v4.84h-6.25l-.31,2.16a4.42,4.42,0,0,1,1.31-.14,6.7,6.7,0,0,1,4.85,1.81,6.16,6.16,0,0,1,1.87,4.66,6.23,6.23,0,0,1-2.17,4.92A8.3,8.3,0,0,1,474.75,237.2Z"/><path class="cls-2" d="M486,237V231.8h4.39V237Z"/><path class="cls-2" d="M493.86,237c0-1,0-1.86.07-2.52a12.74,12.74,0,0,1,.29-1.95,5.37,5.37,0,0,1,.66-1.65,6.67,6.67,0,0,1,1.12-1.32,10.21,10.21,0,0,1,1.73-1.27c.28-.17.67-.39,1.18-.67l1.28-.71c.33-.18.71-.42,1.14-.71a6.68,6.68,0,0,0,1-.84,3.79,3.79,0,0,0,.64-.94,2.58,2.58,0,0,0,.26-1.11,1.56,1.56,0,0,0-.53-1.29,2.07,2.07,0,0,0-1.33-.42,4.75,4.75,0,0,0-2.18.58,8.81,8.81,0,0,0-2,1.43L493.86,220a9,9,0,0,1,3.43-2.26,12.82,12.82,0,0,1,4.86-.9,8.11,8.11,0,0,1,5.36,1.6,5.51,5.51,0,0,1,1.91,4.44,6.15,6.15,0,0,1-1,3.55,10,10,0,0,1-3,2.73q-3.47,2.15-4.68,3h8.73V237Z"/><path class="cls-2" d="M514.22,224.36a4.09,4.09,0,0,1,0-6.28,5.67,5.67,0,0,1,7.2,0,4.07,4.07,0,0,1,0,6.28,5.67,5.67,0,0,1-7.2,0Zm.93,10.78,8.05-8.93,7.16-9.45,2.36,2.11L525,227.52l-7.49,9.71Zm3.63-12.58a2.44,2.44,0,0,0,0-2.68,1.1,1.1,0,0,0-1.92,0,2.44,2.44,0,0,0,0,2.68,1.1,1.1,0,0,0,1.92,0Zm7.67,13.38a4,4,0,0,1,0-6.26,5.63,5.63,0,0,1,7.2,0,4.07,4.07,0,0,1,0,6.26,5.67,5.67,0,0,1-7.2,0Zm4.56-1.79a2.39,2.39,0,0,0,0-2.68,1.18,1.18,0,0,0-1-.56,1.21,1.21,0,0,0-1,.56,2.39,2.39,0,0,0,0,2.68,1.18,1.18,0,0,0,1,.56A1.15,1.15,0,0,0,531,234.15Z"/><path class="cls-1" d="M454.74,480.13a10.4,10.4,0,0,1-6.93-2.24l2.77-3.86a6.14,6.14,0,0,0,3.87,1.23,3.92,3.92,0,0,0,2.12-.44,1.52,1.52,0,0,0,.67-1.38,1.59,1.59,0,0,0-.86-1.52,6,6,0,0,0-2.78-.47h-.89v-3.69h1a4,4,0,0,0,2.19-.53,1.6,1.6,0,0,0,.83-1.4,1.24,1.24,0,0,0-.49-1.06,2.18,2.18,0,0,0-1.36-.38,4,4,0,0,0-3.4,2l-3.42-3.95a7.09,7.09,0,0,1,3.07-1.82,13.66,13.66,0,0,1,4.37-.7,8.75,8.75,0,0,1,5.11,1.36,4.16,4.16,0,0,1,1.93,3.57,4.56,4.56,0,0,1-1.05,3,4.33,4.33,0,0,1-2.63,1.6,4.56,4.56,0,0,1,2.87,1.7,5.17,5.17,0,0,1,1.12,3.33,4.86,4.86,0,0,1-2.18,4.19A10.15,10.15,0,0,1,454.74,480.13Z"/><path class="cls-1" d="M473,480v-3.81H465.7v-4.76l9-11.3h3.71v11.3H481v4.76h-2.51V480Zm-2-8.57h2.63V468Z"/><path class="cls-1" d="M484.41,480v-5.15h4.4V480Z"/><path class="cls-1" d="M492.23,470.19a10.59,10.59,0,0,1,.4-2.88,10.71,10.71,0,0,1,1.2-2.73,10.45,10.45,0,0,1,1.88-2.29,8,8,0,0,1,2.56-1.59,8.67,8.67,0,0,1,6.39,0,8.08,8.08,0,0,1,2.59,1.67,10.88,10.88,0,0,1,1.83,2.36,10.75,10.75,0,0,1,1.13,2.71,10.33,10.33,0,0,1,.37,2.71,10.73,10.73,0,0,1-.4,2.9,10.46,10.46,0,0,1-1.21,2.74,10.68,10.68,0,0,1-1.88,2.28,8.21,8.21,0,0,1-2.56,1.57,8.45,8.45,0,0,1-3.13.59,8.61,8.61,0,0,1-3.27-.62,8.08,8.08,0,0,1-2.58-1.64,10.79,10.79,0,0,1-1.82-2.34A10.6,10.6,0,0,1,492.6,473,10.72,10.72,0,0,1,492.23,470.19Zm9.17,5.24a2.85,2.85,0,0,0,1.65-.5,3.47,3.47,0,0,0,1.1-1.3,7.62,7.62,0,0,0,.59-1.68,8,8,0,0,0,.19-1.76,8.2,8.2,0,0,0-.21-1.85,6.54,6.54,0,0,0-.62-1.67,3.35,3.35,0,0,0-1.11-1.25,2.95,2.95,0,0,0-3.24,0,3.33,3.33,0,0,0-1.11,1.3,7.42,7.42,0,0,0-.58,1.68,8.05,8.05,0,0,0-.2,1.76,8.6,8.6,0,0,0,.2,1.85,6.91,6.91,0,0,0,.61,1.67,3.32,3.32,0,0,0,1.11,1.24A2.83,2.83,0,0,0,501.4,475.43Z"/><path class="cls-1" d="M515,467.39a4.08,4.08,0,0,1,0-6.27,5.67,5.67,0,0,1,7.2,0,4.06,4.06,0,0,1,0,6.27,5.63,5.63,0,0,1-7.2,0Zm.93,10.78,8.05-8.92,7.16-9.45,2.36,2.1-7.72,8.66-7.49,9.71Zm3.63-12.57a2.44,2.44,0,0,0,0-2.68,1.1,1.1,0,0,0-1.92,0,2.44,2.44,0,0,0,0,2.68,1.1,1.1,0,0,0,1.92,0ZM527.21,479a4.06,4.06,0,0,1,0-6.27,5.67,5.67,0,0,1,7.2,0,4.08,4.08,0,0,1,0,6.27,5.67,5.67,0,0,1-7.2,0Zm4.56-1.79a2.39,2.39,0,0,0,0-2.68,1.18,1.18,0,0,0-1-.56,1.21,1.21,0,0,0-1,.56,2.39,2.39,0,0,0,0,2.68,1.21,1.21,0,0,0,1,.56A1.18,1.18,0,0,0,531.77,477.19Z"/><path class="cls-2" d="M605.62,237c0-1,0-1.86.07-2.52a11.61,11.61,0,0,1,.29-1.95,5.37,5.37,0,0,1,.65-1.65,7,7,0,0,1,1.12-1.32,10.63,10.63,0,0,1,1.73-1.27c.28-.17.68-.39,1.19-.67l1.27-.71a11.72,11.72,0,0,0,1.14-.71,6.68,6.68,0,0,0,1-.84,3.79,3.79,0,0,0,.64-.94,2.45,2.45,0,0,0,.27-1.11,1.56,1.56,0,0,0-.53-1.29,2.1,2.1,0,0,0-1.34-.42,4.68,4.68,0,0,0-2.17.58,9.1,9.1,0,0,0-2,1.43L605.62,220a9,9,0,0,1,3.43-2.26,12.82,12.82,0,0,1,4.86-.9,8.1,8.1,0,0,1,5.35,1.6,5.48,5.48,0,0,1,1.91,4.44,6.15,6.15,0,0,1-1,3.55,9.79,9.79,0,0,1-3,2.73q-3.46,2.15-4.67,3h8.72V237Z"/><path class="cls-2" d="M638.6,232.2V237H625.41V232.2h4.05V222.05a6.32,6.32,0,0,1-2.06,1.57,5.76,5.76,0,0,1-2.64.85v-4.88a3.68,3.68,0,0,0,1.26-.26,6.76,6.76,0,0,0,1.26-.64,11.48,11.48,0,0,0,1.08-.77,10,10,0,0,0,.79-.66,2.32,2.32,0,0,0,.31-.32H635V232.2Z"/><path class="cls-2" d="M641.65,237V231.8h4.4V237Z"/><path class="cls-2" d="M657.16,237.23a9,9,0,0,1-2.89-.47,8.16,8.16,0,0,1-2.44-1.31,6.22,6.22,0,0,1-2.31-4.85,4.31,4.31,0,0,1,.72-2.44,6.93,6.93,0,0,1,1.73-1.81,3.67,3.67,0,0,1-1.34-1.44,3.89,3.89,0,0,1-.54-1.93,5,5,0,0,1,.66-2.53,5.5,5.5,0,0,1,1.71-1.87,9.14,9.14,0,0,1,2.26-1.11,8,8,0,0,1,4.38-.16,7.95,7.95,0,0,1,3.56,1.89,5.16,5.16,0,0,1,1.6,3.73,4,4,0,0,1-.56,2,3.79,3.79,0,0,1-1.36,1.46,7,7,0,0,1,1.74,1.86,4.63,4.63,0,0,1,.72,2.55,5.78,5.78,0,0,1-1,3.39,6.63,6.63,0,0,1-2.77,2.29A9.29,9.29,0,0,1,657.16,237.23Zm1.54-8.18a2.24,2.24,0,0,0-1.54-.52,2.28,2.28,0,0,0-1.55.53,1.8,1.8,0,0,0-.59,1.4,1.76,1.76,0,0,0,.62,1.38,2.23,2.23,0,0,0,1.52.55,2.17,2.17,0,0,0,1.53-.56,1.81,1.81,0,0,0,.6-1.37A1.78,1.78,0,0,0,658.7,229.05Zm-2.64-4.86a1.68,1.68,0,0,0,1.1.39,1.71,1.71,0,0,0,1.11-.39,1.33,1.33,0,0,0,.48-1.1,1.22,1.22,0,0,0-.45-1,1.68,1.68,0,0,0-1.14-.39,1.63,1.63,0,0,0-1.13.39,1.21,1.21,0,0,0-.44,1A1.32,1.32,0,0,0,656.06,224.19Z"/><path class="cls-2" d="M669.28,224.36a4.09,4.09,0,0,1,0-6.28,5.67,5.67,0,0,1,7.2,0,4.07,4.07,0,0,1,0,6.28,5.67,5.67,0,0,1-7.2,0Zm.93,10.78,8-8.93,7.16-9.45,2.36,2.11-7.72,8.65-7.49,9.71Zm3.63-12.58a2.44,2.44,0,0,0,0-2.68,1.1,1.1,0,0,0-1.92,0,2.44,2.44,0,0,0,0,2.68,1.1,1.1,0,0,0,1.92,0Zm7.67,13.38a4,4,0,0,1,0-6.26,5.63,5.63,0,0,1,7.2,0,4.07,4.07,0,0,1,0,6.26,5.67,5.67,0,0,1-7.2,0Zm4.56-1.79a2.39,2.39,0,0,0,0-2.68,1.18,1.18,0,0,0-1-.56,1.21,1.21,0,0,0-1,.56,2.39,2.39,0,0,0,0,2.68,1.18,1.18,0,0,0,1,.56A1.15,1.15,0,0,0,686.07,234.15Z"/><path class="cls-1" d="M612.25,480.13a10.4,10.4,0,0,1-6.93-2.24l2.77-3.86a6.13,6.13,0,0,0,3.86,1.23,3.94,3.94,0,0,0,2.13-.44,1.52,1.52,0,0,0,.67-1.38,1.61,1.61,0,0,0-.86-1.52,6,6,0,0,0-2.78-.47h-.89v-3.69h1a4,4,0,0,0,2.19-.53,1.6,1.6,0,0,0,.83-1.4,1.27,1.27,0,0,0-.49-1.06,2.18,2.18,0,0,0-1.36-.38,4,4,0,0,0-3.4,2l-3.42-3.95a7.09,7.09,0,0,1,3.07-1.82,13.66,13.66,0,0,1,4.37-.7,8.75,8.75,0,0,1,5.11,1.36,4.16,4.16,0,0,1,1.93,3.57,4.56,4.56,0,0,1-1,3,4.33,4.33,0,0,1-2.63,1.6,4.59,4.59,0,0,1,2.87,1.7,5.17,5.17,0,0,1,1.12,3.33,4.86,4.86,0,0,1-2.18,4.19A10.15,10.15,0,0,1,612.25,480.13Z"/><path class="cls-1" d="M630.22,480.24a9.46,9.46,0,0,1-4-.83,6.43,6.43,0,0,1-2.74-2.3l3-3.37a6,6,0,0,0,1.82,1.36,4.59,4.59,0,0,0,2,.49,2.37,2.37,0,0,0,1.65-.56,2,2,0,0,0,.6-1.5A2.07,2.07,0,0,0,632,472a1.86,1.86,0,0,0-1.42-.57,2.29,2.29,0,0,0-1.09.27,1.85,1.85,0,0,0-.77.72H624l2.4-12.37h10.14v4.84h-6.25l-.3,2.16a4,4,0,0,1,1.3-.14,6.73,6.73,0,0,1,4.85,1.8,6.71,6.71,0,0,1-.3,9.59A8.33,8.33,0,0,1,630.22,480.24Z"/><path class="cls-1" d="M641.49,480v-5.15h4.4V480Z"/><path class="cls-1" d="M662.57,468.61a6.08,6.08,0,0,1,2,4.66,6.56,6.56,0,0,1-2.17,5,7.63,7.63,0,0,1-5.4,2,6.7,6.7,0,0,1-5.62-2.57q-2-2.58-2-7.22,0-4.92,2.17-7.72a7.14,7.14,0,0,1,6-2.81,8.86,8.86,0,0,1,6.43,2.68l-3,3.42a4.88,4.88,0,0,0-3.54-1.51,2.91,2.91,0,0,0-2.2.84,3.44,3.44,0,0,0-.87,2.32,4.5,4.5,0,0,1,3.07-1A7.29,7.29,0,0,1,662.57,468.61Zm-7.23,6.45a2.26,2.26,0,0,0,3.38,0,2.54,2.54,0,0,0,.73-1.79,2.23,2.23,0,0,0-.71-1.67,2.46,2.46,0,0,0-3.42,0,2.19,2.19,0,0,0-.71,1.67A2.5,2.5,0,0,0,655.34,475.06Z"/><path class="cls-1" d="M669.07,467.39a4.08,4.08,0,0,1,0-6.27,5.24,5.24,0,0,1,3.59-1.29,5.31,5.31,0,0,1,3.61,1.29,4.08,4.08,0,0,1,0,6.27,5.32,5.32,0,0,1-3.61,1.3A5.25,5.25,0,0,1,669.07,467.39Zm.92,10.78,8.06-8.92,7.15-9.45,2.37,2.1-7.72,8.66-7.49,9.71Zm3.63-12.57a2.39,2.39,0,0,0,0-2.68,1.14,1.14,0,0,0-1-.56,1.15,1.15,0,0,0-1,.56,2.44,2.44,0,0,0,0,2.68,1.18,1.18,0,0,0,1,.56A1.16,1.16,0,0,0,673.62,465.6ZM681.29,479a4.08,4.08,0,0,1,0-6.27,5.67,5.67,0,0,1,7.2,0,4.08,4.08,0,0,1,0,6.27,5.67,5.67,0,0,1-7.2,0Zm4.57-1.79a2.44,2.44,0,0,0,0-2.68,1.11,1.11,0,0,0-1.93,0,2.39,2.39,0,0,0,0,2.68,1.11,1.11,0,0,0,1.93,0Z"/><path class="cls-2" d="M762.59,232.2V237H749.4V232.2h4.05V222.05a6.32,6.32,0,0,1-2.06,1.57,5.76,5.76,0,0,1-2.64.85v-4.88a3.68,3.68,0,0,0,1.26-.26,6.76,6.76,0,0,0,1.26-.64,11.48,11.48,0,0,0,1.08-.77,10,10,0,0,0,.79-.66,2.32,2.32,0,0,0,.31-.32H759V232.2Z"/><path class="cls-2" d="M767.28,228.57a6.06,6.06,0,0,1-2-4.66,6.5,6.5,0,0,1,2.17-5,7.59,7.59,0,0,1,5.4-2,6.71,6.71,0,0,1,5.62,2.57,11.61,11.61,0,0,1,2,7.22q0,4.92-2.17,7.73a7.14,7.14,0,0,1-6,2.8,8.85,8.85,0,0,1-6.44-2.68l3-3.42a4.92,4.92,0,0,0,3.53,1.52,2.91,2.91,0,0,0,2.2-.84,3.49,3.49,0,0,0,.88-2.33,4.54,4.54,0,0,1-3.08,1A7.24,7.24,0,0,1,767.28,228.57Zm7.23-6.45a2.26,2.26,0,0,0-3.38,0,2.5,2.5,0,0,0-.73,1.79,2.24,2.24,0,0,0,.7,1.67,2.52,2.52,0,0,0,3.44,0,2.24,2.24,0,0,0,.71-1.67A2.47,2.47,0,0,0,774.51,222.12Z"/><path class="cls-2" d="M784,237V231.8h4.4V237Z"/><path class="cls-2" d="M799.47,237.23a9.07,9.07,0,0,1-2.89-.47,8.28,8.28,0,0,1-2.44-1.31,6.33,6.33,0,0,1-1.68-2.11,6.06,6.06,0,0,1-.63-2.74,4.31,4.31,0,0,1,.72-2.44,7.1,7.1,0,0,1,1.73-1.81,3.67,3.67,0,0,1-1.34-1.44,3.89,3.89,0,0,1-.54-1.93,5,5,0,0,1,.66-2.53,5.5,5.5,0,0,1,1.71-1.87,9,9,0,0,1,2.27-1.11,7.91,7.91,0,0,1,2.43-.39,8.26,8.26,0,0,1,3.85.95A7.91,7.91,0,0,1,805,219.2a5.16,5.16,0,0,1,1.6,3.73,4,4,0,0,1-.56,2,3.71,3.71,0,0,1-1.36,1.46,6.87,6.87,0,0,1,1.74,1.86,4.63,4.63,0,0,1,.72,2.55,5.78,5.78,0,0,1-1,3.39,6.63,6.63,0,0,1-2.77,2.29A9.29,9.29,0,0,1,799.47,237.23Zm1.54-8.18a2.52,2.52,0,0,0-3.08,0,1.89,1.89,0,0,0,0,2.78,2.23,2.23,0,0,0,1.52.55,2.17,2.17,0,0,0,1.53-.56,1.81,1.81,0,0,0,.6-1.37A1.78,1.78,0,0,0,801,229.05Zm-2.64-4.86a1.68,1.68,0,0,0,1.1.39,1.71,1.71,0,0,0,1.11-.39,1.33,1.33,0,0,0,.48-1.1,1.22,1.22,0,0,0-.45-1,1.68,1.68,0,0,0-1.14-.39,1.63,1.63,0,0,0-1.13.39,1.21,1.21,0,0,0-.44,1A1.35,1.35,0,0,0,798.37,224.19Z"/><path class="cls-2" d="M811.59,224.36a4.11,4.11,0,0,1,0-6.28,5.68,5.68,0,0,1,7.21,0,4.09,4.09,0,0,1,0,6.28,5.68,5.68,0,0,1-7.21,0Zm.93,10.78,8.06-8.93,7.15-9.45,2.37,2.11-7.73,8.65-7.48,9.71Zm3.63-12.58a2.44,2.44,0,0,0,0-2.68,1.1,1.1,0,0,0-1.92,0,2.44,2.44,0,0,0,0,2.68,1.1,1.1,0,0,0,1.92,0Zm7.67,13.38a4,4,0,0,1,0-6.26,5.63,5.63,0,0,1,7.2,0,4.07,4.07,0,0,1,0,6.26,5.67,5.67,0,0,1-7.2,0Zm4.56-1.79a2.39,2.39,0,0,0,0-2.68,1.1,1.1,0,0,0-1.92,0,2.39,2.39,0,0,0,0,2.68,1.1,1.1,0,0,0,1.92,0Z"/><path class="cls-1" d="M746.81,480c0-1,0-1.86.07-2.51a12.75,12.75,0,0,1,.3-2,5,5,0,0,1,.65-1.65,6.77,6.77,0,0,1,1.12-1.33,10.63,10.63,0,0,1,1.73-1.27l1.18-.67,1.28-.7q.51-.29,1.14-.72a6.69,6.69,0,0,0,1-.83,4,4,0,0,0,.64-.94,2.58,2.58,0,0,0,.26-1.11,1.53,1.53,0,0,0-.53-1.3,2.11,2.11,0,0,0-1.33-.41,4.68,4.68,0,0,0-2.17.58,8.57,8.57,0,0,0-2,1.43l-3.33-3.56a9.14,9.14,0,0,1,3.43-2.25,12.68,12.68,0,0,1,4.87-.91,8.1,8.1,0,0,1,5.35,1.61,5.5,5.5,0,0,1,1.91,4.44,6.12,6.12,0,0,1-1,3.54,9.79,9.79,0,0,1-3,2.73q-3.47,2.15-4.68,3h8.73V480Z"/><path class="cls-1" d="M765.79,480c0-1,0-1.86.07-2.51a12.74,12.74,0,0,1,.29-2,5.27,5.27,0,0,1,.66-1.65,6.44,6.44,0,0,1,1.12-1.33,9.82,9.82,0,0,1,1.73-1.27l1.18-.67,1.27-.7c.34-.19.72-.43,1.15-.72a6.55,6.55,0,0,0,1-.83,3.71,3.71,0,0,0,.64-.94,2.45,2.45,0,0,0,.27-1.11,1.56,1.56,0,0,0-.53-1.3,2.14,2.14,0,0,0-1.34-.41,4.71,4.71,0,0,0-2.17.58,8.78,8.78,0,0,0-2,1.43l-3.32-3.56a9.14,9.14,0,0,1,3.43-2.25,12.63,12.63,0,0,1,4.86-.91,8.08,8.08,0,0,1,5.35,1.61,5.47,5.47,0,0,1,1.92,4.44,6.05,6.05,0,0,1-1,3.54,9.86,9.86,0,0,1-3,2.73c-2.32,1.43-3.87,2.44-4.68,3h8.72V480Z"/><path class="cls-1" d="M785.16,480v-5.15h4.39V480Z"/><path class="cls-1" d="M793,480c0-1,0-1.86.07-2.51a11.61,11.61,0,0,1,.29-2,5.52,5.52,0,0,1,.65-1.65,6.83,6.83,0,0,1,1.13-1.33,10.21,10.21,0,0,1,1.73-1.27l1.18-.67,1.27-.7q.51-.29,1.14-.72a6.22,6.22,0,0,0,1-.83,3.71,3.71,0,0,0,.64-.94,2.45,2.45,0,0,0,.27-1.11,1.56,1.56,0,0,0-.53-1.3,2.14,2.14,0,0,0-1.34-.41,4.74,4.74,0,0,0-2.17.58,8.52,8.52,0,0,0-2,1.43L793,463.05a9.14,9.14,0,0,1,3.43-2.25,12.63,12.63,0,0,1,4.86-.91,8.08,8.08,0,0,1,5.35,1.61,5.47,5.47,0,0,1,1.92,4.44,6.05,6.05,0,0,1-1,3.54,9.79,9.79,0,0,1-3,2.73q-3.45,2.15-4.67,3h8.73V480Z"/><path class="cls-1" d="M813.36,467.39a4.08,4.08,0,0,1,0-6.27,5.63,5.63,0,0,1,7.2,0,4.06,4.06,0,0,1,0,6.27,5.67,5.67,0,0,1-7.2,0Zm.93,10.78,8.05-8.93,7.16-9.44,2.36,2.1-7.72,8.66-7.49,9.7Zm3.63-12.58a2.22,2.22,0,0,0,.4-1.34,2.26,2.26,0,0,0-.4-1.34,1.1,1.1,0,0,0-1.92,0,2.26,2.26,0,0,0-.41,1.34,2.22,2.22,0,0,0,.41,1.34,1.09,1.09,0,0,0,1.92,0ZM825.59,479a4.06,4.06,0,0,1,0-6.27,5.67,5.67,0,0,1,7.2,0,4.08,4.08,0,0,1,0,6.27,5.7,5.7,0,0,1-7.2,0Zm4.56-1.79a2.44,2.44,0,0,0,0-2.68,1.15,1.15,0,0,0-1-.56,1.18,1.18,0,0,0-1,.56,2.39,2.39,0,0,0,0,2.68,1.21,1.21,0,0,0,1,.56A1.18,1.18,0,0,0,830.15,477.19Z"/><path class="cls-2" d="M519.83,90.53a33.28,33.28,0,1,1-33.28-33.29A33.28,33.28,0,0,1,519.83,90.53Z"/><path class="cls-2" d="M670.3,90.53a28,28,0,1,1-27.95-28A28,28,0,0,1,670.3,90.53Z"/><ellipse class="cls-2" cx="784.98" cy="90.53" rx="19.64" ry="19.67"/></g></g></svg>