<svg xmlns="http://www.w3.org/2000/svg" viewBox="0 0 1039.79 496.64"><defs><style>.cls-1{fill:#00324a;}.cls-2{fill:#ff574a;}.cls-3{fill:#fff;}</style></defs><title>2</title><g id="Capa_2" data-name="Capa 2"><g id="Layer_1" data-name="Layer 1"><path class="cls-1" d="M54.06,486.34h4.63v6.58H56.63v-1.46A4.89,4.89,0,0,1,53.07,493a5.63,5.63,0,0,1-3-.86,6,6,0,0,1-2.2-2.37,6.87,6.87,0,0,1-.81-3.31,6.66,6.66,0,0,1,1.78-4.52,6.28,6.28,0,0,1,2-1.38,6,6,0,0,1,2.46-.51,6.13,6.13,0,0,1,3.06.74,4.86,4.86,0,0,1,2,2l-1.86,1.37a3.5,3.5,0,0,0-1.35-1.45,3.72,3.72,0,0,0-1.91-.51,3.17,3.17,0,0,0-1.9.59A3.8,3.8,0,0,0,50,484.4a5,5,0,0,0-.45,2.13,4.46,4.46,0,0,0,1.08,3.05,3.44,3.44,0,0,0,2.7,1.23,4.34,4.34,0,0,0,3.35-1.76v-.89H54.06Z"/><path class="cls-1" d="M60.81,492.92V480.14h4.64a7.27,7.27,0,0,1,2.74.49,5.31,5.31,0,0,1,2,1.37,6.2,6.2,0,0,1,1.17,2,7.37,7.37,0,0,1,.41,2.48A6.35,6.35,0,0,1,70,491.17a6.16,6.16,0,0,1-4.58,1.75Zm4.64-10.6H63.28v8.42h2.17a3.49,3.49,0,0,0,2.79-1.18,4.56,4.56,0,0,0,1-3.05,4.41,4.41,0,0,0-1-3A3.49,3.49,0,0,0,65.45,482.32Z"/><path class="cls-1" d="M73.69,492.92V480.14H79.1a3.7,3.7,0,0,1,1.63.37,4.19,4.19,0,0,1,1.3,1,4.9,4.9,0,0,1,.84,1.37,4.18,4.18,0,0,1,.3,1.54,4.48,4.48,0,0,1-.49,2.07A4.14,4.14,0,0,1,81.26,488a3.75,3.75,0,0,1-2.07.61h-3v4.28Zm2.48-6.46h2.88a1.4,1.4,0,0,0,1.15-.57,2.4,2.4,0,0,0,.45-1.51,2.17,2.17,0,0,0-.5-1.5,1.55,1.55,0,0,0-1.2-.56H76.17Z"/><path class="cls-1" d="M84.9,492.92V480.14h5.65a3.69,3.69,0,0,1,2.08.63,4.35,4.35,0,0,1,1.46,1.59,4.28,4.28,0,0,1-.11,4.28,3.64,3.64,0,0,1-1.67,1.47l2.91,4.81H92.49l-2.63-4.28H87.38v4.28Zm2.48-6.46h3.11a1.4,1.4,0,0,0,1.15-.61,2.27,2.27,0,0,0,.47-1.47,2.11,2.11,0,0,0-.52-1.46,1.6,1.6,0,0,0-1.21-.6h-3Z"/><path class="cls-1" d="M248,481.92h-4.08v10.6h-2.47v-10.6h-4.08v-2.18H248Z"/><path class="cls-1" d="M254,485.17a4.58,4.58,0,0,0-2,.44,2.54,2.54,0,0,0-1.23,1.21v5.7h-2.41v-9.43h2.22v2a4.3,4.3,0,0,1,1.28-1.53,2.87,2.87,0,0,1,1.63-.6H254Z"/><path class="cls-1" d="M254.68,489.73a2.66,2.66,0,0,1,1.12-2.22,4.78,4.78,0,0,1,2.93-.84A6,6,0,0,1,261,487v-.5a1.82,1.82,0,0,0-.53-1.39,2.3,2.3,0,0,0-1.58-.48,4.13,4.13,0,0,0-1.44.26,7.72,7.72,0,0,0-1.51.8l-.78-1.58a7.19,7.19,0,0,1,4-1.23,4.57,4.57,0,0,1,3.15,1,3.73,3.73,0,0,1,1.12,2.89v3a.87.87,0,0,0,.13.55.63.63,0,0,0,.45.19v2a5.52,5.52,0,0,1-1,.12,1.73,1.73,0,0,1-1.08-.3,1.29,1.29,0,0,1-.47-.81l-.05-.49a4.17,4.17,0,0,1-1.53,1.22,4.31,4.31,0,0,1-1.87.44,3.37,3.37,0,0,1-2.35-.85A2.74,2.74,0,0,1,254.68,489.73Zm5.87.49a1.26,1.26,0,0,0,.45-.83v-1a5,5,0,0,0-1.89-.38,2.73,2.73,0,0,0-1.55.41,1.25,1.25,0,0,0-.6,1.07,1.32,1.32,0,0,0,.46,1,1.74,1.74,0,0,0,1.22.42,2.92,2.92,0,0,0,1.05-.2A2.6,2.6,0,0,0,260.55,490.22Z"/><path class="cls-1" d="M274.42,492.52H272v-5.29c0-1.45-.5-2.18-1.49-2.18a2.4,2.4,0,0,0-1.47.56,2.79,2.79,0,0,0-1,1.4v5.51h-2.41v-9.43h2.18v1.75a3.64,3.64,0,0,1,1.52-1.41,4.83,4.83,0,0,1,2.22-.51,3,3,0,0,1,1.2.22,2.17,2.17,0,0,1,.82.56,2.57,2.57,0,0,1,.5.84,4.58,4.58,0,0,1,.25,1,7.31,7.31,0,0,1,.07,1.09Z"/><path class="cls-1" d="M280,492.7a6.66,6.66,0,0,1-2.32-.41,5.33,5.33,0,0,1-1.87-1.16l.86-1.56a5.31,5.31,0,0,0,3.24,1.33,2.06,2.06,0,0,0,1.13-.26.82.82,0,0,0,.42-.75,1.23,1.23,0,0,0,0-.2.61.61,0,0,0-.09-.18c0-.06-.08-.1-.12-.15a.46.46,0,0,0-.18-.12l-.22-.11-.28-.1-.31-.1-.36-.11-.4-.11c-.46-.15-.84-.28-1.14-.4s-.58-.26-.86-.41a2.57,2.57,0,0,1-.65-.5,2.18,2.18,0,0,1-.37-.63,2.31,2.31,0,0,1-.13-.82,2.7,2.7,0,0,1,1-2.22,4.38,4.38,0,0,1,2.78-.83,5,5,0,0,1,3.54,1.34l-1,1.53a4.47,4.47,0,0,0-2.68-1.08,2.07,2.07,0,0,0-1,.23.79.79,0,0,0-.41.74.74.74,0,0,0,.37.69,5.69,5.69,0,0,0,1.34.5c.52.15.94.28,1.24.39a9.4,9.4,0,0,1,1,.41,2.64,2.64,0,0,1,.73.51,2,2,0,0,1,.41.66,2.29,2.29,0,0,1,.16.9,2.62,2.62,0,0,1-1,2.18A4.4,4.4,0,0,1,280,492.7Z"/><path class="cls-1" d="M287.81,490.87v5.48h-2.4V483.09h2.1v1.62a3.87,3.87,0,0,1,1.38-1.32,3.77,3.77,0,0,1,1.88-.47,4.09,4.09,0,0,1,2.26.66,4.43,4.43,0,0,1,1.58,1.77,5.24,5.24,0,0,1,.57,2.43,5.82,5.82,0,0,1-.53,2.49,4.23,4.23,0,0,1-1.48,1.77,3.59,3.59,0,0,1-2.11.66,3.81,3.81,0,0,1-1.92-.49A3.56,3.56,0,0,1,287.81,490.87Zm4.9-3.09a2.81,2.81,0,0,0-.75-2,2.43,2.43,0,0,0-1.86-.81,2.46,2.46,0,0,0-1.38.45,2.3,2.3,0,0,0-.91,1.13v2.22a3.25,3.25,0,0,0,1,1.34,2.31,2.31,0,0,0,1.43.53,2.17,2.17,0,0,0,1.76-.86A3,3,0,0,0,292.71,487.78Z"/><path class="cls-1" d="M296.16,489.73a2.67,2.67,0,0,1,1.13-2.22,4.76,4.76,0,0,1,2.93-.84,6,6,0,0,1,2.26.37v-.5a1.78,1.78,0,0,0-.53-1.39,2.28,2.28,0,0,0-1.58-.48,4.13,4.13,0,0,0-1.44.26,7.67,7.67,0,0,0-1.5.8l-.78-1.58a7.17,7.17,0,0,1,4-1.23,4.54,4.54,0,0,1,3.14,1,3.69,3.69,0,0,1,1.12,2.89v3a.87.87,0,0,0,.13.55.63.63,0,0,0,.45.19v2a5.43,5.43,0,0,1-1,.12,1.68,1.68,0,0,1-1.07-.3,1.21,1.21,0,0,1-.47-.81l-.06-.49a4.13,4.13,0,0,1-1.52,1.22,4.35,4.35,0,0,1-1.88.44,3.41,3.41,0,0,1-2.35-.85A2.74,2.74,0,0,1,296.16,489.73Zm5.87.49a1.26,1.26,0,0,0,.45-.83v-1a4.94,4.94,0,0,0-1.89-.38,2.67,2.67,0,0,0-1.54.41,1.25,1.25,0,0,0-.6,1.07,1.29,1.29,0,0,0,.46,1,1.72,1.72,0,0,0,1.22.42,3,3,0,0,0,1.05-.2A2.55,2.55,0,0,0,302,490.22Z"/><path class="cls-1" d="M312.76,485.17a4.66,4.66,0,0,0-2,.44,2.52,2.52,0,0,0-1.22,1.21v5.7h-2.41v-9.43h2.22v2a4.38,4.38,0,0,1,1.27-1.53,2.92,2.92,0,0,1,1.64-.6h.49Z"/><path class="cls-1" d="M318.36,492.7a5.19,5.19,0,0,1-2.63-.67,4.62,4.62,0,0,1-1.75-1.76,5,5,0,0,1-.6-2.41,5.09,5.09,0,0,1,.6-2.46,4.52,4.52,0,0,1,1.75-1.8,5.48,5.48,0,0,1,4.7-.28,4.4,4.4,0,0,1,1.56,1.06,5,5,0,0,1,1,1.55,5.12,5.12,0,0,1,.34,1.83,4.32,4.32,0,0,1-.06.81h-7.29a2.48,2.48,0,0,0,.81,1.72,2.45,2.45,0,0,0,1.69.65,2.72,2.72,0,0,0,1.37-.36,1.86,1.86,0,0,0,.87-.93l2.06.58a4,4,0,0,1-1.69,1.79A5.27,5.27,0,0,1,318.36,492.7ZM315.89,487h4.93a2.6,2.6,0,0,0-.8-1.71,2.46,2.46,0,0,0-3.35,0A2.54,2.54,0,0,0,315.89,487Z"/><path class="cls-1" d="M333.52,492.52h-2.41v-5.29c0-1.45-.5-2.18-1.5-2.18a2.39,2.39,0,0,0-1.46.56,2.87,2.87,0,0,0-1,1.4v5.51h-2.41v-9.43h2.18v1.75a3.67,3.67,0,0,1,1.53-1.41,4.78,4.78,0,0,1,2.22-.51,3,3,0,0,1,1.2.22,2.17,2.17,0,0,1,.82.56,2.57,2.57,0,0,1,.5.84,4.58,4.58,0,0,1,.25,1,7.31,7.31,0,0,1,.07,1.09Z"/><path class="cls-1" d="M340,492.7a5.19,5.19,0,0,1-2.06-.41,4.5,4.5,0,0,1-1.59-1.07,4.75,4.75,0,0,1-1-1.56,4.89,4.89,0,0,1-.36-1.86,5.14,5.14,0,0,1,.59-2.43,4.62,4.62,0,0,1,1.74-1.77,5.15,5.15,0,0,1,2.65-.68,5.09,5.09,0,0,1,2.6.65,4.22,4.22,0,0,1,1.66,1.77l-2.36.72A2.17,2.17,0,0,0,340,485a2.28,2.28,0,0,0-1.77.79,3.26,3.26,0,0,0,0,4.06,2.23,2.23,0,0,0,1.75.82,2.36,2.36,0,0,0,1.19-.32,1.84,1.84,0,0,0,.77-.8l2.35.72a4,4,0,0,1-1.63,1.77A5.1,5.1,0,0,1,340,492.7Z"/><path class="cls-1" d="M345.79,494.36a4.87,4.87,0,0,0,1.08.17.94.94,0,0,0,.79-.41,5.7,5.7,0,0,0,.67-1.6l-3.73-9.43h2.5l2.55,7,2.23-7h2.3l-4,11.3A3.3,3.3,0,0,1,349,496a3.39,3.39,0,0,1-2,.62,4,4,0,0,1-1.21-.2Z"/><path class="cls-1" d="M464.46,492.52h-6.17V479.74h6.84a2.58,2.58,0,0,1,1.55.49,3.11,3.11,0,0,1,1,1.22,3.76,3.76,0,0,1,.34,1.55,3.47,3.47,0,0,1-.48,1.78,2.91,2.91,0,0,1-1.36,1.19,3.27,3.27,0,0,1,1.74,1.17,3.4,3.4,0,0,1,.63,2.08A2.9,2.9,0,0,1,468,491a3.43,3.43,0,0,1-1.49,1.13A5.49,5.49,0,0,1,464.46,492.52Zm-3.69-10.65v3.21h3.31a1.43,1.43,0,0,0,1.08-.44,1.58,1.58,0,0,0,.44-1.17,1.68,1.68,0,0,0-.4-1.16,1.3,1.3,0,0,0-1-.44Zm3.82,5.17h-3.82v3.37h3.69a1.56,1.56,0,0,0,1.15-.48,1.66,1.66,0,0,0,.47-1.17,1.75,1.75,0,0,0-.44-1.21A1.32,1.32,0,0,0,464.59,487Z"/><path class="cls-1" d="M475.91,485.17a4.66,4.66,0,0,0-2,.44,2.48,2.48,0,0,0-1.22,1.21v5.7h-2.41v-9.43h2.21v2a4.51,4.51,0,0,1,1.28-1.53,2.92,2.92,0,0,1,1.64-.6h.49Z"/><path class="cls-1" d="M476.55,489.73a2.66,2.66,0,0,1,1.12-2.22,4.78,4.78,0,0,1,2.93-.84,6,6,0,0,1,2.27.37v-.5a1.82,1.82,0,0,0-.53-1.39,2.3,2.3,0,0,0-1.58-.48,4,4,0,0,0-1.44.26,7.72,7.72,0,0,0-1.51.8l-.78-1.58a7.19,7.19,0,0,1,4-1.23,4.52,4.52,0,0,1,3.14,1,3.7,3.7,0,0,1,1.13,2.89v3a.87.87,0,0,0,.13.55.61.61,0,0,0,.45.19v2a5.52,5.52,0,0,1-1,.12,1.71,1.71,0,0,1-1.08-.3,1.29,1.29,0,0,1-.47-.81l0-.49a4.25,4.25,0,0,1-1.53,1.22,4.34,4.34,0,0,1-1.87.44,3.37,3.37,0,0,1-2.35-.85A2.74,2.74,0,0,1,476.55,489.73Zm5.87.49a1.26,1.26,0,0,0,.45-.83v-1a5,5,0,0,0-1.89-.38,2.7,2.7,0,0,0-1.55.41,1.25,1.25,0,0,0-.6,1.07,1.32,1.32,0,0,0,.46,1,1.72,1.72,0,0,0,1.22.42,2.92,2.92,0,0,0,1.05-.2A2.7,2.7,0,0,0,482.42,490.22Z"/><path class="cls-1" d="M496.29,492.52h-2.41v-5.29c0-1.45-.5-2.18-1.49-2.18a2.4,2.4,0,0,0-1.47.56,2.87,2.87,0,0,0-1,1.4v5.51h-2.4v-9.43h2.18v1.75a3.58,3.58,0,0,1,1.52-1.41,4.78,4.78,0,0,1,2.22-.51,3,3,0,0,1,1.2.22,2.17,2.17,0,0,1,.82.56,2.57,2.57,0,0,1,.5.84,4.58,4.58,0,0,1,.25,1,7.31,7.31,0,0,1,.07,1.09Z"/><path class="cls-1" d="M497.81,487.8a5.68,5.68,0,0,1,.53-2.46,4.36,4.36,0,0,1,1.51-1.77,3.85,3.85,0,0,1,2.18-.65,3.59,3.59,0,0,1,1.85.5,3.74,3.74,0,0,1,1.33,1.32v-5.36h2.42v10.44a1,1,0,0,0,.12.55.56.56,0,0,0,.43.19v2a5.71,5.71,0,0,1-1,.12,1.7,1.7,0,0,1-1.07-.32,1.18,1.18,0,0,1-.48-.85l0-.59a3.47,3.47,0,0,1-1.4,1.34,3.89,3.89,0,0,1-1.88.48A4.21,4.21,0,0,1,500,492a4.35,4.35,0,0,1-1.6-1.77A5.35,5.35,0,0,1,497.81,487.8Zm7.4,1.27v-2.25a2.86,2.86,0,0,0-1-1.31,2.29,2.29,0,0,0-1.43-.53,2.16,2.16,0,0,0-1.76.86,3.07,3.07,0,0,0-.71,2,2.77,2.77,0,0,0,.75,2,2.4,2.4,0,0,0,1.86.81,2.46,2.46,0,0,0,1.38-.45A2.29,2.29,0,0,0,505.21,489.07Z"/><path class="cls-1" d="M517.78,492.7a6.62,6.62,0,0,1-2.32-.41,5.28,5.28,0,0,1-1.88-1.16l.87-1.56a5.27,5.27,0,0,0,3.24,1.33,2.08,2.08,0,0,0,1.13-.26.82.82,0,0,0,.42-.75.64.64,0,0,0,0-.2.42.42,0,0,0-.08-.18,1.31,1.31,0,0,1-.12-.15.62.62,0,0,0-.19-.12l-.22-.11-.28-.1-.3-.1-.37-.11-.39-.11c-.46-.15-.84-.28-1.14-.4s-.58-.26-.87-.41a2.76,2.76,0,0,1-.65-.5,2.16,2.16,0,0,1-.36-.63,2.31,2.31,0,0,1-.14-.82,2.68,2.68,0,0,1,1-2.22,4.36,4.36,0,0,1,2.78-.83,5,5,0,0,1,3.54,1.34l-1,1.53a4.45,4.45,0,0,0-2.68-1.08,2,2,0,0,0-1,.23.78.78,0,0,0-.42.74.75.75,0,0,0,.37.69,6,6,0,0,0,1.35.5c.52.15.93.28,1.24.39a9.27,9.27,0,0,1,.94.41,2.71,2.71,0,0,1,.74.51,2.17,2.17,0,0,1,.41.66,2.49,2.49,0,0,1,.16.9,2.63,2.63,0,0,1-1,2.18A4.37,4.37,0,0,1,517.78,492.7Z"/><path class="cls-1" d="M522.54,489.73a2.67,2.67,0,0,1,1.13-2.22,4.75,4.75,0,0,1,2.92-.84,6,6,0,0,1,2.27.37v-.5a1.82,1.82,0,0,0-.53-1.39,2.3,2.3,0,0,0-1.58-.48,4.13,4.13,0,0,0-1.44.26,7.4,7.4,0,0,0-1.5.8l-.79-1.58a7.2,7.2,0,0,1,4-1.23,4.56,4.56,0,0,1,3.14,1,3.69,3.69,0,0,1,1.12,2.89v3a.87.87,0,0,0,.13.55.63.63,0,0,0,.45.19v2a5.52,5.52,0,0,1-1,.12,1.73,1.73,0,0,1-1.08-.3,1.29,1.29,0,0,1-.47-.81l0-.49a4.13,4.13,0,0,1-1.52,1.22,4.38,4.38,0,0,1-1.88.44,3.39,3.39,0,0,1-2.35-.85A2.74,2.74,0,0,1,522.54,489.73Zm5.87.49a1.26,1.26,0,0,0,.45-.83v-1a4.94,4.94,0,0,0-1.89-.38,2.73,2.73,0,0,0-1.55.41,1.27,1.27,0,0,0-.59,1.07,1.31,1.31,0,0,0,.45,1,1.76,1.76,0,0,0,1.22.42,3,3,0,0,0,1.06-.2A2.65,2.65,0,0,0,528.41,490.22Z"/><path class="cls-1" d="M534.05,492.52v-7.09h-1.23v-1.84h1.23V483a4.25,4.25,0,0,1,.86-2.79,2.83,2.83,0,0,1,2.3-1,5.27,5.27,0,0,1,2.32.56l-.48,1.82a2.66,2.66,0,0,0-1.32-.35,1.11,1.11,0,0,0-.94.44,2.07,2.07,0,0,0-.32,1.25v.67h2.3v1.84h-2.3v7.09Z"/><path class="cls-1" d="M544.39,492.7a5.22,5.22,0,0,1-2.63-.67,4.69,4.69,0,0,1-1.75-1.76,5.06,5.06,0,0,1-.59-2.41,5.2,5.2,0,0,1,.59-2.46,4.58,4.58,0,0,1,1.75-1.8,5.5,5.5,0,0,1,4.71-.28,4.45,4.45,0,0,1,1.55,1.06,4.69,4.69,0,0,1,1,1.55,4.92,4.92,0,0,1,.34,1.83,5.61,5.61,0,0,1-.05.81H542a2.49,2.49,0,0,0,2.51,2.37,2.71,2.71,0,0,0,1.36-.36,1.81,1.81,0,0,0,.87-.93l2.07.58a4.12,4.12,0,0,1-1.7,1.79A5.24,5.24,0,0,1,544.39,492.7ZM541.92,487h4.93a2.59,2.59,0,0,0-.79-1.71,2.47,2.47,0,0,0-3.36,0A2.58,2.58,0,0,0,541.92,487Z"/><path class="cls-1" d="M556.35,492a6.73,6.73,0,0,1-2.66.64,3.52,3.52,0,0,1-1-.13,2.35,2.35,0,0,1-.77-.4,1.77,1.77,0,0,1-.54-.73,2.68,2.68,0,0,1-.19-1.06v-5.42H550v-1.85h1.24V480h2.41v3.06h2v1.85h-2v4.61c0,.61.32.92.9.92a3.55,3.55,0,0,0,1.32-.34Z"/><path class="cls-1" d="M557.77,494.36a4.87,4.87,0,0,0,1.08.17.94.94,0,0,0,.79-.41,5.7,5.7,0,0,0,.67-1.6l-3.73-9.43h2.51l2.54,7,2.23-7h2.3l-4,11.3A3.3,3.3,0,0,1,561,496a3.37,3.37,0,0,1-2,.62,4,4,0,0,1-1.21-.2Z"/><path class="cls-1" d="M700,479.74h2.52l4.69,12.78h-2.56l-1.18-3.18H699l-1.17,3.18h-2.55Zm3,7.85-1.77-5.27-1.83,5.27Z"/><path class="cls-1" d="M707.57,487.8a5.68,5.68,0,0,1,.53-2.46,4.36,4.36,0,0,1,1.51-1.77,3.88,3.88,0,0,1,2.18-.65,3.59,3.59,0,0,1,1.85.5,3.74,3.74,0,0,1,1.33,1.32v-5.36h2.42v10.44a1,1,0,0,0,.12.55.58.58,0,0,0,.43.19v2a5.71,5.71,0,0,1-1,.12,1.7,1.7,0,0,1-1.07-.32,1.18,1.18,0,0,1-.48-.85l0-.59a3.47,3.47,0,0,1-1.4,1.34,3.89,3.89,0,0,1-1.88.48,4.18,4.18,0,0,1-2.31-.66,4.35,4.35,0,0,1-1.6-1.77A5.35,5.35,0,0,1,707.57,487.8Zm7.4,1.27v-2.25a2.86,2.86,0,0,0-1-1.31,2.31,2.31,0,0,0-1.43-.53,2.16,2.16,0,0,0-1.76.86,3.07,3.07,0,0,0-.71,2,2.77,2.77,0,0,0,.75,2,2.4,2.4,0,0,0,1.86.81,2.46,2.46,0,0,0,1.38-.45A2.29,2.29,0,0,0,715,489.07Z"/><path class="cls-1" d="M724.64,492.52v-7.09H723.4v-1.84h1.24V483a4.19,4.19,0,0,1,.86-2.79,2.81,2.81,0,0,1,2.29-1,5.27,5.27,0,0,1,2.32.56l-.48,1.82a2.66,2.66,0,0,0-1.32-.35,1.08,1.08,0,0,0-.93.44,2,2,0,0,0-.33,1.25v.67h2.31v1.84h-2.31v7.09Z"/><path class="cls-1" d="M736.33,485.17a4.58,4.58,0,0,0-2,.44,2.48,2.48,0,0,0-1.22,1.21v5.7h-2.41v-9.43h2.21v2a4.4,4.4,0,0,1,1.28-1.53,2.92,2.92,0,0,1,1.64-.6h.48Z"/><path class="cls-1" d="M737,489.73a2.66,2.66,0,0,1,1.12-2.22,4.78,4.78,0,0,1,2.93-.84,6,6,0,0,1,2.27.37v-.5a1.79,1.79,0,0,0-.54-1.39,2.27,2.27,0,0,0-1.57-.48,4,4,0,0,0-1.44.26,7.72,7.72,0,0,0-1.51.8l-.78-1.58a7.19,7.19,0,0,1,4-1.23,4.52,4.52,0,0,1,3.14,1,3.69,3.69,0,0,1,1.12,2.89v3a.87.87,0,0,0,.14.55.59.59,0,0,0,.44.19v2a5.34,5.34,0,0,1-1,.12,1.69,1.69,0,0,1-1.08-.3,1.25,1.25,0,0,1-.47-.81l-.05-.49a4.25,4.25,0,0,1-1.53,1.22,4.35,4.35,0,0,1-1.88.44,3.37,3.37,0,0,1-2.34-.85A2.74,2.74,0,0,1,737,489.73Zm5.87.49a1.26,1.26,0,0,0,.45-.83v-1a5,5,0,0,0-1.89-.38,2.7,2.7,0,0,0-1.55.41,1.25,1.25,0,0,0-.6,1.07,1.32,1.32,0,0,0,.46,1,1.72,1.72,0,0,0,1.22.42,2.92,2.92,0,0,0,1-.2A2.7,2.7,0,0,0,742.85,490.22Z"/><path class="cls-1" d="M747.87,489v-5.91h2.4v5.38c0,1.45.53,2.18,1.57,2.18a2.43,2.43,0,0,0,1.38-.44,3.15,3.15,0,0,0,1-1.28v-5.84h2.41v6.73a.94.94,0,0,0,.13.55.63.63,0,0,0,.45.19v2a5.77,5.77,0,0,1-1,.1,1.73,1.73,0,0,1-1.06-.29,1.14,1.14,0,0,1-.47-.82l-.06-.76a4,4,0,0,1-1.6,1.45,4.83,4.83,0,0,1-2.19.5,2.68,2.68,0,0,1-2.22-.95A4.31,4.31,0,0,1,747.87,489Z"/><path class="cls-1" d="M758.49,487.8a5.55,5.55,0,0,1,.54-2.46,4.36,4.36,0,0,1,1.51-1.77,3.82,3.82,0,0,1,2.17-.65,3.56,3.56,0,0,1,1.85.5,3.66,3.66,0,0,1,1.33,1.32v-5.36h2.42v10.44a1,1,0,0,0,.12.55.58.58,0,0,0,.43.19v2a5.61,5.61,0,0,1-1,.12,1.67,1.67,0,0,1-1.06-.32,1.11,1.11,0,0,1-.48-.85l0-.59a3.45,3.45,0,0,1-1.39,1.34,3.92,3.92,0,0,1-1.88.48,4.22,4.22,0,0,1-2.32-.66,4.42,4.42,0,0,1-1.6-1.77A5.35,5.35,0,0,1,758.49,487.8Zm7.4,1.27v-2.25a2.9,2.9,0,0,0-1-1.31,2.33,2.33,0,0,0-1.43-.53,2.18,2.18,0,0,0-1.77.86,3.07,3.07,0,0,0-.7,2,2.81,2.81,0,0,0,.74,2,2.45,2.45,0,0,0,3.24.36A2.24,2.24,0,0,0,765.89,489.07Z"/><path class="cls-1" d="M902.78,492.52V479.74h8.58v2.18h-6.1v3.3h5.08v2h-5.08v5.29Z"/><path class="cls-1" d="M911.44,489.73a2.67,2.67,0,0,1,1.13-2.22,4.76,4.76,0,0,1,2.93-.84,6,6,0,0,1,2.26.37v-.5a1.82,1.82,0,0,0-.53-1.39,2.28,2.28,0,0,0-1.58-.48,4.13,4.13,0,0,0-1.44.26,7.4,7.4,0,0,0-1.5.8l-.78-1.58a7.17,7.17,0,0,1,4-1.23,4.54,4.54,0,0,1,3.14,1,3.69,3.69,0,0,1,1.12,2.89v3a.94.94,0,0,0,.13.55.63.63,0,0,0,.45.19v2a5.43,5.43,0,0,1-1,.12,1.68,1.68,0,0,1-1.07-.3,1.25,1.25,0,0,1-.47-.81l-.06-.49a4.13,4.13,0,0,1-1.52,1.22,4.35,4.35,0,0,1-1.88.44,3.37,3.37,0,0,1-2.34-.85A2.72,2.72,0,0,1,911.44,489.73Zm5.88.49a1.28,1.28,0,0,0,.44-.83v-1a4.94,4.94,0,0,0-1.89-.38,2.69,2.69,0,0,0-1.54.41,1.25,1.25,0,0,0-.6,1.07,1.29,1.29,0,0,0,.46,1,1.72,1.72,0,0,0,1.22.42,3,3,0,0,0,1.05-.2A2.7,2.7,0,0,0,917.32,490.22Z"/><path class="cls-1" d="M928.86,492.52l-2.75-4.07-1.28,1.27v2.8h-2.41V479.38h2.41v7.95l3.8-4.22h2.55l-3.5,4,3.76,5.41Z"/><path class="cls-1" d="M936.35,492.7a5.22,5.22,0,0,1-2.63-.67,4.59,4.59,0,0,1-1.74-1.76,5,5,0,0,1-.6-2.41,5.09,5.09,0,0,1,.6-2.46,4.49,4.49,0,0,1,1.74-1.8,5.5,5.5,0,0,1,4.71-.28,4.58,4.58,0,0,1,1.56,1.06,4.83,4.83,0,0,1,1,1.55,4.92,4.92,0,0,1,.34,1.83,5.61,5.61,0,0,1,0,.81h-7.3a2.49,2.49,0,0,0,2.51,2.37,2.75,2.75,0,0,0,1.37-.36,1.84,1.84,0,0,0,.86-.93l2.07.58a4.1,4.1,0,0,1-1.69,1.79A5.31,5.31,0,0,1,936.35,492.7ZM933.88,487h4.93a2.59,2.59,0,0,0-.79-1.71,2.35,2.35,0,0,0-1.69-.66,2.31,2.31,0,0,0-1.66.66A2.55,2.55,0,0,0,933.88,487Z"/><path class="cls-1" d="M955.83,492.52h-2.41v-5.29c0-1.45-.5-2.18-1.49-2.18a2.4,2.4,0,0,0-1.47.56,2.87,2.87,0,0,0-1,1.4v5.51h-2.4v-9.43h2.18v1.75a3.58,3.58,0,0,1,1.52-1.41,4.78,4.78,0,0,1,2.22-.51,3,3,0,0,1,1.2.22,2.17,2.17,0,0,1,.82.56,2.57,2.57,0,0,1,.5.84,4.58,4.58,0,0,1,.25,1,7.31,7.31,0,0,1,.07,1.09Z"/><path class="cls-1" d="M962.31,492.7a5.19,5.19,0,0,1-2.63-.67,4.62,4.62,0,0,1-1.75-1.76,5,5,0,0,1-.6-2.41,5.09,5.09,0,0,1,.6-2.46,4.52,4.52,0,0,1,1.75-1.8,5.14,5.14,0,0,1,2.64-.68,5.2,5.2,0,0,1,2.07.4,4.45,4.45,0,0,1,1.55,1.06,5,5,0,0,1,1,1.55,5.12,5.12,0,0,1,.34,1.83,4.32,4.32,0,0,1-.06.81h-7.29a2.48,2.48,0,0,0,.81,1.72,2.45,2.45,0,0,0,1.69.65,2.75,2.75,0,0,0,1.37-.36,1.9,1.9,0,0,0,.87-.93l2.06.58A4,4,0,0,1,965,492,5.27,5.27,0,0,1,962.31,492.7ZM959.84,487h4.93a2.6,2.6,0,0,0-.8-1.71,2.46,2.46,0,0,0-3.35,0A2.58,2.58,0,0,0,959.84,487Z"/><path class="cls-1" d="M980.13,483.09h2.29l-3.94,9.43h-2l-1.59-4-1.54,4h-2l-3.93-9.43h2.27l2.81,7.13,1.1-3.08-1.65-4h2l1,2.88,1-2.88h2l-1.63,4,1.11,3.08Z"/><path class="cls-1" d="M986.77,492.7a6.62,6.62,0,0,1-2.32-.41,5.28,5.28,0,0,1-1.88-1.16l.86-1.56a5.31,5.31,0,0,0,3.25,1.33,2.08,2.08,0,0,0,1.13-.26.84.84,0,0,0,.42-.75.64.64,0,0,0,0-.2.42.42,0,0,0-.08-.18,1.31,1.31,0,0,1-.12-.15.62.62,0,0,0-.19-.12l-.22-.11-.28-.1-.3-.1-.37-.11-.39-.11c-.47-.15-.84-.28-1.14-.4a8.65,8.65,0,0,1-.87-.41,2.76,2.76,0,0,1-.65-.5,2.16,2.16,0,0,1-.36-.63,2.31,2.31,0,0,1-.14-.82,2.68,2.68,0,0,1,1-2.22,4.34,4.34,0,0,1,2.78-.83,5,5,0,0,1,3.54,1.34l-1,1.53a4.47,4.47,0,0,0-2.68-1.08,2.09,2.09,0,0,0-1,.23.79.79,0,0,0-.41.74.75.75,0,0,0,.37.69,6,6,0,0,0,1.35.5c.52.15.93.28,1.24.39a9.27,9.27,0,0,1,.94.41,2.71,2.71,0,0,1,.74.51,2.17,2.17,0,0,1,.41.66,2.49,2.49,0,0,1,.16.9,2.63,2.63,0,0,1-1,2.18A4.37,4.37,0,0,1,986.77,492.7Z"/><path class="cls-1" d="M35.3,20.47A9,9,0,0,1,32.41,20,8.18,8.18,0,0,1,30,18.68a6.11,6.11,0,0,1-1.69-2.1,6.22,6.22,0,0,1-.62-2.74,4.29,4.29,0,0,1,.72-2.44,7,7,0,0,1,1.73-1.82,3.74,3.74,0,0,1-1.35-1.43,4,4,0,0,1-.53-1.93,5.07,5.07,0,0,1,.66-2.54,5.54,5.54,0,0,1,1.7-1.86A9,9,0,0,1,32.86.71,8,8,0,0,1,35.3.31a8.17,8.17,0,0,1,1.94.24,7.85,7.85,0,0,1,3.55,1.89A5.09,5.09,0,0,1,42,4.09a5,5,0,0,1,.43,2.08,4,4,0,0,1-.55,2,3.7,3.7,0,0,1-1.37,1.45,7,7,0,0,1,1.75,1.87A4.58,4.58,0,0,1,42.94,14a5.85,5.85,0,0,1-1,3.39,6.61,6.61,0,0,1-2.77,2.28A9.13,9.13,0,0,1,35.3,20.47Zm1.53-8.19a2.24,2.24,0,0,0-1.53-.51,2.28,2.28,0,0,0-1.55.53,1.9,1.9,0,0,0,0,2.77,2.22,2.22,0,0,0,1.53.56,2.17,2.17,0,0,0,1.53-.56,1.81,1.81,0,0,0,.6-1.37A1.79,1.79,0,0,0,36.83,12.28ZM34.2,7.43a1.66,1.66,0,0,0,1.1.39,1.7,1.7,0,0,0,1.1-.39,1.34,1.34,0,0,0,.48-1.1,1.21,1.21,0,0,0-.44-1A1.68,1.68,0,0,0,35.3,5a1.66,1.66,0,0,0-1.14.39,1.23,1.23,0,0,0-.43,1A1.33,1.33,0,0,0,34.2,7.43Z"/><path class="cls-1" d="M54,20.47A9,9,0,0,1,51.1,20a8.18,8.18,0,0,1-2.44-1.32A6.11,6.11,0,0,1,47,16.58a6.22,6.22,0,0,1-.62-2.74,4.29,4.29,0,0,1,.72-2.44A7,7,0,0,1,48.8,9.58a3.64,3.64,0,0,1-1.34-1.43,3.89,3.89,0,0,1-.54-1.93,5.07,5.07,0,0,1,.66-2.54,5.47,5.47,0,0,1,1.71-1.86A8.8,8.8,0,0,1,51.55.71,7.78,7.78,0,0,1,55.93.55a7.85,7.85,0,0,1,3.55,1.89,5.09,5.09,0,0,1,1.17,1.65,5,5,0,0,1,.43,2.08,4,4,0,0,1-.55,2,3.76,3.76,0,0,1-1.36,1.45,7.07,7.07,0,0,1,1.74,1.87A4.58,4.58,0,0,1,61.63,14a5.85,5.85,0,0,1-1,3.39,6.61,6.61,0,0,1-2.77,2.28A9.13,9.13,0,0,1,54,20.47Zm1.54-8.19a2.56,2.56,0,0,0-3.09,0,1.9,1.9,0,0,0,0,2.77,2.22,2.22,0,0,0,1.53.56,2.17,2.17,0,0,0,1.53-.56,1.93,1.93,0,0,0,0-2.79ZM52.89,7.43a1.66,1.66,0,0,0,1.1.39,1.68,1.68,0,0,0,1.1-.39,1.34,1.34,0,0,0,.48-1.1,1.21,1.21,0,0,0-.44-1A1.68,1.68,0,0,0,54,5a1.66,1.66,0,0,0-1.14.39,1.23,1.23,0,0,0-.43,1A1.33,1.33,0,0,0,52.89,7.43Z"/><path class="cls-1" d="M65.4,20.19V15h4.4v5.15Z"/><path class="cls-1" d="M75.56,11.81a6.09,6.09,0,0,1-2-4.66,6.53,6.53,0,0,1,2.17-5,7.66,7.66,0,0,1,5.4-2,6.7,6.7,0,0,1,5.62,2.57q2,2.57,2,7.22c0,3.28-.72,5.86-2.16,7.72a7.14,7.14,0,0,1-6,2.81,8.91,8.91,0,0,1-6.44-2.68l3-3.42a4.92,4.92,0,0,0,3.54,1.52,2.89,2.89,0,0,0,2.19-.84,3.49,3.49,0,0,0,.88-2.34,4.52,4.52,0,0,1-3.07,1A7.27,7.27,0,0,1,75.56,11.81ZM82.8,5.36a2.25,2.25,0,0,0-3.39,0,2.5,2.5,0,0,0-.73,1.79,2.24,2.24,0,0,0,.71,1.67,2.39,2.39,0,0,0,1.71.68,2.43,2.43,0,0,0,1.72-.68,2.22,2.22,0,0,0,.72-1.67A2.51,2.51,0,0,0,82.8,5.36Z"/><path class="cls-1" d="M93.52,7.59a4,4,0,0,1-1.47-3.13,4,4,0,0,1,1.47-3.14,5.67,5.67,0,0,1,7.2,0,4,4,0,0,1,1.48,3.14,4,4,0,0,1-1.48,3.13,5.63,5.63,0,0,1-7.2,0Zm.93,10.79,8-8.93L109.66,0,112,2.11l-7.72,8.65-7.49,9.71ZM98.08,5.8a2.24,2.24,0,0,0,.4-1.34,2.22,2.22,0,0,0-.4-1.34,1.1,1.1,0,0,0-1.92,0,2.22,2.22,0,0,0-.41,1.34,2.24,2.24,0,0,0,.41,1.34,1.1,1.1,0,0,0,1.92,0Zm7.67,13.38a4.06,4.06,0,0,1,0-6.27,5.67,5.67,0,0,1,7.2,0,4.08,4.08,0,0,1,0,6.27,5.67,5.67,0,0,1-7.2,0Zm4.56-1.79a2.44,2.44,0,0,0,0-2.68,1.18,1.18,0,0,0-1-.56,1.21,1.21,0,0,0-1,.56,2.39,2.39,0,0,0,0,2.68,1.21,1.21,0,0,0,1,.56A1.18,1.18,0,0,0,110.31,17.39Z"/><path class="cls-2" d="M96.26,96.38a6.09,6.09,0,0,1,2,4.66,6.57,6.57,0,0,1-2.17,5,7.62,7.62,0,0,1-5.4,2,6.7,6.7,0,0,1-5.62-2.57q-2-2.56-2-7.22,0-4.91,2.17-7.72a7.14,7.14,0,0,1,6-2.81,8.9,8.9,0,0,1,6.43,2.68l-3,3.42a4.91,4.91,0,0,0-3.54-1.5,2.94,2.94,0,0,0-2.2.83,3.46,3.46,0,0,0-.87,2.33,4.5,4.5,0,0,1,3.07-1A7.28,7.28,0,0,1,96.26,96.38ZM89,102.83a2.24,2.24,0,0,0,3.38,0,2.54,2.54,0,0,0,.73-1.79,2.24,2.24,0,0,0-.71-1.67,2.49,2.49,0,0,0-3.42,0A2.21,2.21,0,0,0,88.3,101,2.5,2.5,0,0,0,89,102.83Z"/><path class="cls-2" d="M109.32,108a9,9,0,0,1-2.88-.47,8.21,8.21,0,0,1-2.45-1.31,6.24,6.24,0,0,1-1.68-2.11,6.06,6.06,0,0,1-.63-2.74A4.28,4.28,0,0,1,102.4,99a7.15,7.15,0,0,1,1.73-1.82,3.82,3.82,0,0,1-1.34-1.44,3.89,3.89,0,0,1-.54-1.93,5,5,0,0,1,.67-2.53,5.57,5.57,0,0,1,1.7-1.87,9.2,9.2,0,0,1,2.27-1.11,8,8,0,0,1,2.43-.39,8.24,8.24,0,0,1,2,.23,8.62,8.62,0,0,1,1.9.72A7.66,7.66,0,0,1,114.82,90,5.06,5.06,0,0,1,116,91.66a4.89,4.89,0,0,1,.44,2.08,3.88,3.88,0,0,1-.56,2,3.71,3.71,0,0,1-1.36,1.46A6.91,6.91,0,0,1,116.25,99a4.71,4.71,0,0,1,.71,2.55,5.78,5.78,0,0,1-1,3.39,6.6,6.6,0,0,1-2.76,2.29A9.21,9.21,0,0,1,109.32,108Zm1.54-8.18a2.52,2.52,0,0,0-3.08,0,1.89,1.89,0,0,0,0,2.78,2.19,2.19,0,0,0,1.52.55,2.13,2.13,0,0,0,1.53-.56,1.8,1.8,0,0,0,.6-1.37A1.74,1.74,0,0,0,110.86,99.86ZM108.22,95a1.76,1.76,0,0,0,2.21,0,1.33,1.33,0,0,0,.48-1.1,1.22,1.22,0,0,0-.45-1,1.85,1.85,0,0,0-2.27,0,1.24,1.24,0,0,0-.44,1A1.35,1.35,0,0,0,108.22,95Z"/><path class="cls-2" d="M120.74,107.77v-5.16h4.39v5.16Z"/><path class="cls-2" d="M142.88,103v4.76H129.69V103h4.05V92.86a6.39,6.39,0,0,1-2.07,1.57,5.69,5.69,0,0,1-2.64.85V90.4a3.68,3.68,0,0,0,1.26-.26,7.19,7.19,0,0,0,1.27-.64c.38-.25.74-.5,1.08-.76s.59-.49.78-.67a2.8,2.8,0,0,0,.32-.32h5.52V103Z"/><path class="cls-2" d="M147.2,95.17a4.09,4.09,0,0,1,0-6.28,5.67,5.67,0,0,1,7.2,0,4.07,4.07,0,0,1,0,6.28,5.67,5.67,0,0,1-7.2,0Zm.93,10.78L156.18,97l7.16-9.45,2.36,2.11L158,98.33,150.49,108Zm3.63-12.58a2.44,2.44,0,0,0,0-2.68,1.1,1.1,0,0,0-1.92,0,2.44,2.44,0,0,0,0,2.68,1.1,1.1,0,0,0,1.92,0Zm7.67,13.38a4,4,0,0,1,0-6.26,5.63,5.63,0,0,1,7.2,0,4.07,4.07,0,0,1,0,6.26,5.67,5.67,0,0,1-7.2,0ZM164,105a2.39,2.39,0,0,0,0-2.68,1.18,1.18,0,0,0-1-.56,1.21,1.21,0,0,0-1,.56,2.39,2.39,0,0,0,0,2.68,1.18,1.18,0,0,0,1,.56A1.15,1.15,0,0,0,164,105Z"/><path class="cls-1" d="M234.07,147.52a9.46,9.46,0,0,1-4-.82,6.45,6.45,0,0,1-2.74-2.31l3-3.36a6,6,0,0,0,1.83,1.35,4.51,4.51,0,0,0,2,.49,2.33,2.33,0,0,0,1.65-.56,1.94,1.94,0,0,0,.6-1.5,2,2,0,0,0-.54-1.48,1.86,1.86,0,0,0-1.42-.57,2.29,2.29,0,0,0-1.09.27,1.77,1.77,0,0,0-.77.71h-4.64l2.4-12.37h10.14v4.84h-6.25l-.3,2.16a4.35,4.35,0,0,1,1.3-.14A6.68,6.68,0,0,1,240,136a6.68,6.68,0,0,1-.3,9.58A8.28,8.28,0,0,1,234.07,147.52Z"/><path class="cls-1" d="M251.93,147.52a9.43,9.43,0,0,1-4-.82,6.39,6.39,0,0,1-2.74-2.31l3-3.36a6.29,6.29,0,0,0,1.83,1.35,4.52,4.52,0,0,0,2,.49,2.28,2.28,0,0,0,1.64-.56,1.92,1.92,0,0,0,.61-1.5,2,2,0,0,0-.54-1.48,1.89,1.89,0,0,0-1.42-.57,2.26,2.26,0,0,0-1.09.27,1.86,1.86,0,0,0-.78.71h-4.63l2.39-12.37h10.15v4.84H252l-.31,2.16a4.42,4.42,0,0,1,1.31-.14,6.66,6.66,0,0,1,4.84,1.81,6.13,6.13,0,0,1,1.88,4.66,6.2,6.2,0,0,1-2.18,4.92A8.25,8.25,0,0,1,251.93,147.52Z"/><path class="cls-1" d="M263.48,147.28v-5.16h4.4v5.16Z"/><path class="cls-1" d="M284.84,135.89a6.06,6.06,0,0,1,2,4.66,6.53,6.53,0,0,1-2.17,5,7.59,7.59,0,0,1-5.4,2,6.71,6.71,0,0,1-5.62-2.57c-1.32-1.71-2-4.12-2-7.22a12.4,12.4,0,0,1,2.17-7.72,7.16,7.16,0,0,1,6-2.81,8.92,8.92,0,0,1,6.43,2.68l-3,3.42a4.9,4.9,0,0,0-3.53-1.5,2.94,2.94,0,0,0-2.2.83,3.47,3.47,0,0,0-.88,2.33,4.54,4.54,0,0,1,3.08-1A7.24,7.24,0,0,1,284.84,135.89Zm-7.23,6.45a2.25,2.25,0,0,0,3.39,0,2.54,2.54,0,0,0,.73-1.79,2.24,2.24,0,0,0-.71-1.67,2.5,2.5,0,0,0-3.43,0,2.24,2.24,0,0,0-.71,1.67A2.54,2.54,0,0,0,277.61,142.34Z"/><path class="cls-1" d="M291.63,134.68a4.09,4.09,0,0,1,0-6.28,5.67,5.67,0,0,1,7.2,0,4.09,4.09,0,0,1,0,6.28,5.67,5.67,0,0,1-7.2,0Zm.92,10.78,8.06-8.93,7.15-9.45,2.37,2.11-7.72,8.65-7.49,9.71Zm3.64-12.58a2.44,2.44,0,0,0,0-2.68,1.18,1.18,0,0,0-1-.56,1.15,1.15,0,0,0-1,.56,2.39,2.39,0,0,0,0,2.68,1.15,1.15,0,0,0,1,.56A1.18,1.18,0,0,0,296.19,132.88Zm7.66,13.38a4.07,4.07,0,0,1,0-6.26,5.27,5.27,0,0,1,3.61-1.3,5.18,5.18,0,0,1,3.59,1.3,4.07,4.07,0,0,1,0,6.26,5.22,5.22,0,0,1-3.59,1.29A5.31,5.31,0,0,1,303.85,146.26Zm4.57-1.79a2.44,2.44,0,0,0,0-2.68,1.18,1.18,0,0,0-1-.56,1.19,1.19,0,0,0-1,.56,2.39,2.39,0,0,0,0,2.68,1.17,1.17,0,0,0,1,.56A1.15,1.15,0,0,0,308.42,144.47Z"/><path class="cls-2" d="M292.91,187.31a9.43,9.43,0,0,1-4-.83,6.37,6.37,0,0,1-2.74-2.3l3-3.36a6.29,6.29,0,0,0,1.83,1.35,4.59,4.59,0,0,0,2,.49,2.33,2.33,0,0,0,1.65-.56,1.94,1.94,0,0,0,.6-1.5,2.08,2.08,0,0,0-.54-1.49,1.91,1.91,0,0,0-1.42-.56,2.4,2.4,0,0,0-1.09.26,2,2,0,0,0-.78.72h-4.63l2.39-12.37h10.15V172H293l-.31,2.16A4.42,4.42,0,0,1,294,174a6.66,6.66,0,0,1,4.84,1.81,6.13,6.13,0,0,1,1.88,4.66,6.23,6.23,0,0,1-2.17,4.92A8.3,8.3,0,0,1,292.91,187.31Z"/><path class="cls-2" d="M304,177.26a10.84,10.84,0,0,1,3.48-7.9,8.25,8.25,0,0,1,2.56-1.59,8.45,8.45,0,0,1,3.13-.58,8.69,8.69,0,0,1,3.27.62,8.2,8.2,0,0,1,2.59,1.67,11.23,11.23,0,0,1,3,5.07,10.77,10.77,0,0,1,.37,2.71,11.14,11.14,0,0,1-.4,2.9,10.9,10.9,0,0,1-3.09,5,8.16,8.16,0,0,1-2.57,1.58,8.84,8.84,0,0,1-6.4,0,7.76,7.76,0,0,1-2.57-1.64,10.79,10.79,0,0,1-1.82-2.34,10.84,10.84,0,0,1-1.51-5.48Zm9.17,5.24a2.82,2.82,0,0,0,1.65-.5,3.33,3.33,0,0,0,1.11-1.3,7.42,7.42,0,0,0,.58-1.68,8,8,0,0,0,0-3.6,7,7,0,0,0-.62-1.68,3.32,3.32,0,0,0-1.11-1.24,2.92,2.92,0,0,0-3.24,0,3.41,3.41,0,0,0-1.11,1.3,7.62,7.62,0,0,0-.59,1.68,8,8,0,0,0-.19,1.76,8.6,8.6,0,0,0,.2,1.85,6.52,6.52,0,0,0,.61,1.67A3.27,3.27,0,0,0,311.6,182,2.87,2.87,0,0,0,313.21,182.5Z"/><path class="cls-2" d="M326.09,187.06v-5.15h4.4v5.15Z"/><path class="cls-2" d="M334.19,177.26a10.7,10.7,0,0,1,1.6-5.61,10.45,10.45,0,0,1,1.88-2.29,8.14,8.14,0,0,1,2.56-1.59,8.37,8.37,0,0,1,3.13-.58,8.6,8.6,0,0,1,3.26.62,8.08,8.08,0,0,1,2.59,1.67,10.88,10.88,0,0,1,1.83,2.36,10.75,10.75,0,0,1,1.13,2.71,10.33,10.33,0,0,1,.37,2.71,10.73,10.73,0,0,1-.4,2.9,10.62,10.62,0,0,1-1.2,2.74,11,11,0,0,1-1.89,2.28,8.12,8.12,0,0,1-2.56,1.58,8.84,8.84,0,0,1-6.4,0,7.91,7.91,0,0,1-2.58-1.64,10.79,10.79,0,0,1-1.82-2.34,11,11,0,0,1-1.5-5.48Zm9.17,5.24A2.85,2.85,0,0,0,345,182a3.31,3.31,0,0,0,1.1-1.3,7.44,7.44,0,0,0,.59-1.68,8.21,8.21,0,0,0,0-3.6,6.59,6.59,0,0,0-.61-1.68A3.43,3.43,0,0,0,345,172.5a2.76,2.76,0,0,0-1.59-.48,2.85,2.85,0,0,0-1.65.5,3.41,3.41,0,0,0-1.11,1.3,7.59,7.59,0,0,0-.58,1.68,8.45,8.45,0,0,0,0,3.61,6.5,6.5,0,0,0,.6,1.67,3.29,3.29,0,0,0,1.12,1.25A2.87,2.87,0,0,0,343.36,182.5Z"/><path class="cls-2" d="M357.23,174.47a4.09,4.09,0,0,1,0-6.28,5.67,5.67,0,0,1,7.2,0,4.07,4.07,0,0,1,0,6.28,5.67,5.67,0,0,1-7.2,0Zm.92,10.78,8.06-8.93,7.15-9.45,2.37,2.11L368,177.63l-7.49,9.71Zm3.64-12.58a2.44,2.44,0,0,0,0-2.68,1.15,1.15,0,0,0-1-.56,1.13,1.13,0,0,0-1,.56,2.39,2.39,0,0,0,0,2.68,1.15,1.15,0,0,0,1,.56A1.18,1.18,0,0,0,361.79,172.67Zm7.66,13.38a4,4,0,0,1-1.47-3.13,4,4,0,0,1,1.47-3.14,5.68,5.68,0,0,1,7.21,0,4.07,4.07,0,0,1,1.46,3.14,4,4,0,0,1-1.46,3.13,5.68,5.68,0,0,1-7.21,0Zm4.57-1.79a2.44,2.44,0,0,0,0-2.68,1.18,1.18,0,0,0-1-.56,1.19,1.19,0,0,0-1,.56,2.39,2.39,0,0,0,0,2.68,1.17,1.17,0,0,0,1,.56A1.15,1.15,0,0,0,374,184.26Z"/><path class="cls-1" d="M451.57,222.27v-3.81h-7.33V213.7l9-11.31H457V213.7h2.51v4.76H457v3.81Zm-2-8.57h2.62v-3.35Z"/><path class="cls-1" d="M469.86,222.27v-3.81h-7.34V213.7l9-11.31h3.72V213.7h2.5v4.76h-2.5v3.81Zm-2-8.57h2.63v-3.35Z"/><path class="cls-1" d="M481.52,222.3v-5.16h4.4v5.16Z"/><path class="cls-1" d="M496.66,222.27v-3.81h-7.33V213.7l9-11.31h3.72V213.7h2.5v4.76h-2.5v3.81Zm-2-8.57h2.63v-3.35Z"/><path class="cls-1" d="M509.32,209.7a4.09,4.09,0,0,1,0-6.28,5.67,5.67,0,0,1,7.2,0,4.07,4.07,0,0,1,0,6.28,5.67,5.67,0,0,1-7.2,0Zm.93,10.78,8-8.93,7.16-9.44,2.36,2.1-7.72,8.66-7.49,9.7Zm3.63-12.58a2.44,2.44,0,0,0,0-2.68,1.1,1.1,0,0,0-1.92,0,2.39,2.39,0,0,0,0,2.68,1.1,1.1,0,0,0,1.92,0Zm7.66,13.39a4.08,4.08,0,0,1,0-6.27,5.68,5.68,0,0,1,7.21,0,4.1,4.1,0,0,1,0,6.27,5.72,5.72,0,0,1-7.21,0Zm4.57-1.79a2.44,2.44,0,0,0,0-2.68,1.15,1.15,0,0,0-1-.56,1.18,1.18,0,0,0-1,.56,2.39,2.39,0,0,0,0,2.68,1.21,1.21,0,0,0,1,.56A1.18,1.18,0,0,0,526.11,219.5Z"/><path class="cls-1" d="M677.81,272.72a10.35,10.35,0,0,1-6.93-2.24l2.77-3.86a6.08,6.08,0,0,0,3.87,1.24,4,4,0,0,0,2.12-.44,1.52,1.52,0,0,0,.67-1.38,1.6,1.6,0,0,0-.86-1.53,6.15,6.15,0,0,0-2.78-.47h-.89v-3.69h1a4,4,0,0,0,2.19-.53,1.6,1.6,0,0,0,.83-1.4,1.26,1.26,0,0,0-.49-1.06A2.18,2.18,0,0,0,678,257a4,4,0,0,0-3.4,2l-3.42-4a7.08,7.08,0,0,1,3.07-1.81,13.39,13.39,0,0,1,4.37-.7,8.75,8.75,0,0,1,5.11,1.35,4.16,4.16,0,0,1,1.93,3.57,4.61,4.61,0,0,1-1.05,3,4.38,4.38,0,0,1-2.63,1.6,4.52,4.52,0,0,1,2.87,1.7,5.14,5.14,0,0,1,1.12,3.33,4.84,4.84,0,0,1-2.18,4.18A10.15,10.15,0,0,1,677.81,272.72Z"/><path class="cls-1" d="M695.79,272.72a10.35,10.35,0,0,1-6.93-2.24l2.77-3.86a6.12,6.12,0,0,0,3.87,1.24,4,4,0,0,0,2.12-.44,1.52,1.52,0,0,0,.67-1.38,1.6,1.6,0,0,0-.86-1.53,6.15,6.15,0,0,0-2.78-.47h-.89v-3.69h1a4,4,0,0,0,2.19-.53,1.6,1.6,0,0,0,.83-1.4,1.26,1.26,0,0,0-.49-1.06,2.18,2.18,0,0,0-1.36-.37,4,4,0,0,0-3.4,2l-3.42-4a7.08,7.08,0,0,1,3.07-1.81,13.43,13.43,0,0,1,4.37-.7,8.75,8.75,0,0,1,5.11,1.35,4.16,4.16,0,0,1,1.94,3.57,4.61,4.61,0,0,1-1.05,3,4.4,4.4,0,0,1-2.64,1.6,4.49,4.49,0,0,1,2.87,1.7A5.14,5.14,0,0,1,703.9,267a4.82,4.82,0,0,1-2.18,4.18A10.15,10.15,0,0,1,695.79,272.72Z"/><path class="cls-1" d="M707.74,272.59v-5.16h4.4v5.16Z"/><path class="cls-1" d="M722.29,272.72a10.35,10.35,0,0,1-6.93-2.24l2.77-3.86a6.08,6.08,0,0,0,3.87,1.24,4,4,0,0,0,2.12-.44,1.52,1.52,0,0,0,.67-1.38,1.6,1.6,0,0,0-.86-1.53,6.15,6.15,0,0,0-2.78-.47h-.89v-3.69h1a4,4,0,0,0,2.19-.53,1.6,1.6,0,0,0,.83-1.4,1.26,1.26,0,0,0-.49-1.06,2.18,2.18,0,0,0-1.36-.37,4,4,0,0,0-3.4,2l-3.42-4a7.08,7.08,0,0,1,3.07-1.81,13.39,13.39,0,0,1,4.37-.7,8.75,8.75,0,0,1,5.11,1.35,4.16,4.16,0,0,1,1.93,3.57,4.55,4.55,0,0,1-1.05,3,4.38,4.38,0,0,1-2.63,1.6,4.52,4.52,0,0,1,2.87,1.7A5.14,5.14,0,0,1,730.4,267a4.84,4.84,0,0,1-2.18,4.18A10.15,10.15,0,0,1,722.29,272.72Z"/><path class="cls-1" d="M735.24,260a4.09,4.09,0,0,1,0-6.28,5.67,5.67,0,0,1,7.2,0,4.07,4.07,0,0,1,0,6.28,5.67,5.67,0,0,1-7.2,0Zm.93,10.78,8.05-8.93,7.16-9.45,2.36,2.11L746,263.15l-7.49,9.71Zm3.63-12.58a2.44,2.44,0,0,0,0-2.68,1.1,1.1,0,0,0-1.92,0,2.39,2.39,0,0,0,0,2.68,1.1,1.1,0,0,0,1.92,0Zm7.66,13.38a4.07,4.07,0,0,1,0-6.26,5.65,5.65,0,0,1,7.21,0,4.09,4.09,0,0,1,0,6.26,5.68,5.68,0,0,1-7.21,0Zm4.57-1.79a2.44,2.44,0,0,0,0-2.68,1.18,1.18,0,0,0-1-.56,1.21,1.21,0,0,0-1,.56,2.39,2.39,0,0,0,0,2.68,1.18,1.18,0,0,0,1,.56A1.15,1.15,0,0,0,752,269.78Z"/><path class="cls-1" d="M882.28,272.72a10.35,10.35,0,0,1-6.93-2.24l2.77-3.86a6.07,6.07,0,0,0,3.86,1.24,4,4,0,0,0,2.13-.44,1.52,1.52,0,0,0,.67-1.38,1.62,1.62,0,0,0-.86-1.53,6.18,6.18,0,0,0-2.78-.47h-.89v-3.69h1a4,4,0,0,0,2.19-.53,1.6,1.6,0,0,0,.83-1.4,1.28,1.28,0,0,0-.49-1.06,2.18,2.18,0,0,0-1.36-.37,4,4,0,0,0-3.4,2l-3.42-4a7.08,7.08,0,0,1,3.07-1.81,13.39,13.39,0,0,1,4.37-.7,8.75,8.75,0,0,1,5.11,1.35,4.16,4.16,0,0,1,1.93,3.57,4.61,4.61,0,0,1-1.05,3,4.38,4.38,0,0,1-2.63,1.6,4.54,4.54,0,0,1,2.87,1.7,5.14,5.14,0,0,1,1.12,3.33,4.84,4.84,0,0,1-2.18,4.18A10.15,10.15,0,0,1,882.28,272.72Z"/><path class="cls-1" d="M900.26,272.72a10.35,10.35,0,0,1-6.93-2.24l2.77-3.86a6.08,6.08,0,0,0,3.87,1.24,4,4,0,0,0,2.12-.44,1.52,1.52,0,0,0,.67-1.38,1.6,1.6,0,0,0-.86-1.53,6.15,6.15,0,0,0-2.78-.47h-.89v-3.69h1a4,4,0,0,0,2.19-.53,1.6,1.6,0,0,0,.83-1.4,1.26,1.26,0,0,0-.49-1.06,2.18,2.18,0,0,0-1.36-.37,4,4,0,0,0-3.4,2l-3.42-4a7.08,7.08,0,0,1,3.07-1.81,13.39,13.39,0,0,1,4.37-.7,8.75,8.75,0,0,1,5.11,1.35,4.16,4.16,0,0,1,1.93,3.57,4.61,4.61,0,0,1-1,3,4.38,4.38,0,0,1-2.63,1.6,4.52,4.52,0,0,1,2.87,1.7,5.14,5.14,0,0,1,1.12,3.33,4.84,4.84,0,0,1-2.18,4.18A10.15,10.15,0,0,1,900.26,272.72Z"/><path class="cls-1" d="M912.21,272.59v-5.16h4.4v5.16Z"/><path class="cls-1" d="M926.76,272.72a10.35,10.35,0,0,1-6.93-2.24l2.77-3.86a6.07,6.07,0,0,0,3.86,1.24,4,4,0,0,0,2.13-.44,1.52,1.52,0,0,0,.67-1.38,1.62,1.62,0,0,0-.86-1.53,6.18,6.18,0,0,0-2.78-.47h-.89v-3.69h1a4,4,0,0,0,2.19-.53,1.6,1.6,0,0,0,.83-1.4,1.28,1.28,0,0,0-.49-1.06,2.18,2.18,0,0,0-1.36-.37,4,4,0,0,0-3.4,2l-3.42-4a7.08,7.08,0,0,1,3.07-1.81,13.39,13.39,0,0,1,4.37-.7,8.75,8.75,0,0,1,5.11,1.35,4.16,4.16,0,0,1,1.93,3.57,4.61,4.61,0,0,1-1,3,4.38,4.38,0,0,1-2.63,1.6,4.54,4.54,0,0,1,2.87,1.7,5.14,5.14,0,0,1,1.12,3.33,4.84,4.84,0,0,1-2.18,4.18A10.15,10.15,0,0,1,926.76,272.72Z"/><path class="cls-1" d="M939.71,260a4.09,4.09,0,0,1,0-6.28,5.67,5.67,0,0,1,7.2,0,4.09,4.09,0,0,1,0,6.28,5.67,5.67,0,0,1-7.2,0Zm.92,10.78,8.06-8.93,7.15-9.45,2.37,2.11-7.72,8.65L943,272.86Zm3.64-12.58a2.44,2.44,0,0,0,0-2.68,1.18,1.18,0,0,0-1-.56,1.15,1.15,0,0,0-1,.56,2.39,2.39,0,0,0,0,2.68,1.15,1.15,0,0,0,1,.56A1.18,1.18,0,0,0,944.27,258.19Zm7.66,13.38a4.07,4.07,0,0,1,0-6.26,5.27,5.27,0,0,1,3.61-1.3,5.18,5.18,0,0,1,3.59,1.3,4.07,4.07,0,0,1,0,6.26,5.22,5.22,0,0,1-3.59,1.29A5.31,5.31,0,0,1,951.93,271.57Zm4.57-1.79a2.44,2.44,0,0,0,0-2.68,1.18,1.18,0,0,0-1-.56,1.19,1.19,0,0,0-1,.56,2.39,2.39,0,0,0,0,2.68,1.17,1.17,0,0,0,1,.56A1.15,1.15,0,0,0,956.5,269.78Z"/><path class="cls-2" d="M940.09,227.72a10.38,10.38,0,0,1-6.93-2.24l2.77-3.86a6.12,6.12,0,0,0,3.87,1.24,4,4,0,0,0,2.12-.44,1.52,1.52,0,0,0,.68-1.38,1.62,1.62,0,0,0-.86-1.53A6.23,6.23,0,0,0,939,219h-.89v-3.69h1a4,4,0,0,0,2.19-.53,1.58,1.58,0,0,0,.83-1.4,1.28,1.28,0,0,0-.48-1.06,2.21,2.21,0,0,0-1.37-.37,4,4,0,0,0-3.39,2l-3.43-4a7.08,7.08,0,0,1,3.07-1.81,13.49,13.49,0,0,1,4.38-.7,8.77,8.77,0,0,1,5.11,1.35,4.18,4.18,0,0,1,1.93,3.57,4.61,4.61,0,0,1-1,3,4.37,4.37,0,0,1-2.64,1.6,4.54,4.54,0,0,1,2.88,1.7,5.19,5.19,0,0,1,1.12,3.33,4.84,4.84,0,0,1-2.18,4.18A10.17,10.17,0,0,1,940.09,227.72Z"/><path class="cls-2" d="M958.35,227.83a9.31,9.31,0,0,1-4-.83,6.36,6.36,0,0,1-2.74-2.3l3-3.36a6,6,0,0,0,1.83,1.35,4.51,4.51,0,0,0,2,.49,2.31,2.31,0,0,0,1.65-.56,1.94,1.94,0,0,0,.6-1.5,2,2,0,0,0-.54-1.48,1.86,1.86,0,0,0-1.42-.57,2.4,2.4,0,0,0-1.09.26,1.85,1.85,0,0,0-.77.72h-4.64l2.4-12.37h10.14v4.84h-6.25l-.3,2.16a4.35,4.35,0,0,1,1.3-.14,6.68,6.68,0,0,1,4.85,1.81,6.68,6.68,0,0,1-.3,9.58A8.28,8.28,0,0,1,958.35,227.83Z"/><path class="cls-2" d="M969.9,227.59v-5.16h4.4v5.16Z"/><path class="cls-2" d="M984.73,227.83a9.28,9.28,0,0,1-4-.83,6.3,6.3,0,0,1-2.74-2.3l3-3.36a6.29,6.29,0,0,0,1.83,1.35,4.51,4.51,0,0,0,2,.49,2.29,2.29,0,0,0,1.65-.56,1.92,1.92,0,0,0,.61-1.5,2,2,0,0,0-.54-1.48,1.89,1.89,0,0,0-1.42-.57,2.37,2.37,0,0,0-1.09.26,2,2,0,0,0-.78.72h-4.63l2.39-12.37h10.15v4.84h-6.25l-.31,2.16a4.42,4.42,0,0,1,1.31-.14,6.66,6.66,0,0,1,4.84,1.81,6.13,6.13,0,0,1,1.88,4.66,6.23,6.23,0,0,1-2.18,4.92A8.25,8.25,0,0,1,984.73,227.83Z"/><path class="cls-2" d="M997.27,215a4.11,4.11,0,0,1,0-6.28,5.67,5.67,0,0,1,7.2,0,4.07,4.07,0,0,1,0,6.28,5.67,5.67,0,0,1-7.2,0Zm.93,10.78,8.06-8.93,7.15-9.45,2.36,2.11-7.72,8.65-7.49,9.71Zm3.63-12.58a2.44,2.44,0,0,0,0-2.68,1.1,1.1,0,0,0-1.92,0,2.44,2.44,0,0,0,0,2.68,1.1,1.1,0,0,0,1.92,0Zm7.67,13.38a4,4,0,0,1,0-6.26,5.63,5.63,0,0,1,7.2,0,4.07,4.07,0,0,1,0,6.26,5.67,5.67,0,0,1-7.2,0Zm4.56-1.79a2.39,2.39,0,0,0,0-2.68,1.1,1.1,0,0,0-1.92,0,2.35,2.35,0,0,0,0,2.68,1.1,1.1,0,0,0,1.92,0Z"/><path class="cls-2" d="M517.71,120.89a6.09,6.09,0,0,1,2,4.66,6.57,6.57,0,0,1-2.17,5,7.62,7.62,0,0,1-5.4,2,6.7,6.7,0,0,1-5.62-2.57q-2-2.56-2-7.22,0-4.91,2.17-7.72a7.14,7.14,0,0,1,6-2.81,8.9,8.9,0,0,1,6.43,2.68l-3,3.42a4.91,4.91,0,0,0-3.54-1.5,2.92,2.92,0,0,0-2.19.83,3.42,3.42,0,0,0-.88,2.33,4.52,4.52,0,0,1,3.07-1A7.28,7.28,0,0,1,517.71,120.89Zm-7.23,6.45a2.24,2.24,0,0,0,3.38,0,2.5,2.5,0,0,0,.73-1.79,2.24,2.24,0,0,0-.71-1.67,2.49,2.49,0,0,0-3.42,0,2.21,2.21,0,0,0-.71,1.67A2.5,2.5,0,0,0,510.48,127.34Z"/><path class="cls-2" d="M529.17,132.41a10.34,10.34,0,0,1-6.92-2.24l2.76-3.85a6.17,6.17,0,0,0,3.87,1.23,4,4,0,0,0,2.12-.44,1.5,1.5,0,0,0,.68-1.38,1.63,1.63,0,0,0-.86-1.53,6.23,6.23,0,0,0-2.79-.47h-.89V120h1a4.06,4.06,0,0,0,2.19-.53,1.59,1.59,0,0,0,.83-1.4,1.28,1.28,0,0,0-.49-1.06,2.21,2.21,0,0,0-1.37-.37,4,4,0,0,0-3.39,2l-3.42-4a7,7,0,0,1,3.06-1.81,13.49,13.49,0,0,1,4.38-.7,8.75,8.75,0,0,1,5.11,1.35A4.16,4.16,0,0,1,537,117.1a4.61,4.61,0,0,1-1.05,3,4.37,4.37,0,0,1-2.64,1.6,4.54,4.54,0,0,1,2.88,1.7,5.19,5.19,0,0,1,1.12,3.33,4.84,4.84,0,0,1-2.18,4.18A10.17,10.17,0,0,1,529.17,132.41Z"/><path class="cls-2" d="M541.13,132.28v-5.16h4.4v5.16Z"/><path class="cls-2" d="M549.23,122.47a11,11,0,0,1,1.6-5.61,11,11,0,0,1,1.88-2.29,8.49,8.49,0,0,1,5.69-2.17,8.5,8.5,0,0,1,3.27.63,8.12,8.12,0,0,1,2.58,1.66,11.37,11.37,0,0,1,3,5.07,10.29,10.29,0,0,1,0,5.61,10.62,10.62,0,0,1-1.2,2.74,10.49,10.49,0,0,1-1.89,2.29,8.16,8.16,0,0,1-2.56,1.57,8.37,8.37,0,0,1-3.13.58,8.61,8.61,0,0,1-3.27-.62,7.76,7.76,0,0,1-2.57-1.64,11.12,11.12,0,0,1-3-5A11.11,11.11,0,0,1,549.23,122.47Zm9.17,5.24a2.85,2.85,0,0,0,1.65-.5,3.26,3.26,0,0,0,1.11-1.3,7.51,7.51,0,0,0,.58-1.67,8.14,8.14,0,0,0,.2-1.77,8,8,0,0,0-.21-1.84,7.17,7.17,0,0,0-.62-1.68,3.41,3.41,0,0,0-1.11-1.24,3,3,0,0,0-3.25,0,3.32,3.32,0,0,0-1.1,1.3,7.54,7.54,0,0,0-.59,1.67,8,8,0,0,0-.19,1.76,8.76,8.76,0,0,0,.2,1.86,7,7,0,0,0,.6,1.66,3.38,3.38,0,0,0,1.12,1.25A2.87,2.87,0,0,0,558.4,127.71Z"/><path class="cls-2" d="M572.27,119.68a4.09,4.09,0,0,1,0-6.28,5.67,5.67,0,0,1,7.2,0,4.07,4.07,0,0,1,0,6.28,5.67,5.67,0,0,1-7.2,0Zm.93,10.78,8-8.93,7.16-9.45,2.36,2.11-7.72,8.65-7.49,9.71Zm3.63-12.58a2.44,2.44,0,0,0,0-2.68,1.1,1.1,0,0,0-1.92,0,2.39,2.39,0,0,0,0,2.68,1.1,1.1,0,0,0,1.92,0Zm7.67,13.38a4,4,0,0,1,0-6.26,5.63,5.63,0,0,1,7.2,0,4.07,4.07,0,0,1,0,6.26,5.67,5.67,0,0,1-7.2,0Zm4.56-1.79a2.44,2.44,0,0,0,0-2.68,1.18,1.18,0,0,0-1-.56,1.21,1.21,0,0,0-1,.56,2.39,2.39,0,0,0,0,2.68,1.18,1.18,0,0,0,1,.56A1.15,1.15,0,0,0,589.06,129.47Z"/><path class="cls-2" d="M736.48,215.27v-3.81h-7.34V206.7l9-11.31h3.71V206.7h2.51v4.76h-2.51v3.81Zm-2-8.57h2.63v-3.35Z"/><path class="cls-2" d="M754.76,215.27v-3.81h-7.33V206.7l9-11.31h3.72V206.7h2.5v4.76h-2.5v3.81Zm-2-8.57h2.63v-3.35Z"/><path class="cls-2" d="M766.43,215.3v-5.16h4.4v5.16Z"/><path class="cls-2" d="M774.56,215.3c0-1,0-1.86.07-2.52a11.93,11.93,0,0,1,.29-1.95,5.45,5.45,0,0,1,.65-1.64,7.13,7.13,0,0,1,1.12-1.33,10.33,10.33,0,0,1,1.74-1.27l1.18-.67,1.27-.7q.51-.28,1.14-.72a5.74,5.74,0,0,0,1-.84,3.49,3.49,0,0,0,.64-.93,2.46,2.46,0,0,0,.27-1.12,1.56,1.56,0,0,0-.53-1.29,2.08,2.08,0,0,0-1.34-.42,4.73,4.73,0,0,0-2.17.59,8.75,8.75,0,0,0-2,1.42l-3.32-3.55A9.27,9.27,0,0,1,778,196.1a12.82,12.82,0,0,1,4.86-.9,8.08,8.08,0,0,1,5.35,1.61,5.47,5.47,0,0,1,1.92,4.43,6.16,6.16,0,0,1-1,3.55,9.79,9.79,0,0,1-3,2.73c-2.31,1.43-3.86,2.44-4.67,3h8.72v4.76Z"/><path class="cls-2" d="M795.2,202.7a4.11,4.11,0,0,1,0-6.28,5.67,5.67,0,0,1,7.2,0,4.07,4.07,0,0,1,0,6.28,5.67,5.67,0,0,1-7.2,0Zm.93,10.78,8.06-8.93,7.15-9.44,2.36,2.1L806,205.87l-7.49,9.7Zm3.63-12.58a2.44,2.44,0,0,0,0-2.68,1.1,1.1,0,0,0-1.92,0,2.44,2.44,0,0,0,0,2.68,1.1,1.1,0,0,0,1.92,0Zm7.67,13.39a4.06,4.06,0,0,1,0-6.27,5.67,5.67,0,0,1,7.2,0,4.08,4.08,0,0,1,0,6.27,5.7,5.7,0,0,1-7.2,0ZM812,212.5a2.39,2.39,0,0,0,0-2.68,1.1,1.1,0,0,0-1.92,0,2.35,2.35,0,0,0,0,2.68,1.1,1.1,0,0,0,1.92,0Z"/><polygon class="cls-1" points="23.58 447.4 63.91 43.19 104.24 447.4 23.58 447.4"/><polygon class="cls-2" points="84.24 447.4 124.57 137.77 164.9 447.4 84.24 447.4"/><polygon class="cls-1" points="229.57 447.4 269.9 194.6 310.23 447.4 229.57 447.4"/><polygon class="cls-2" points="293.33 447.4 333.66 220.06 373.99 447.4 293.33 447.4"/><polygon class="cls-1" points="447.01 447.4 487.34 245.53 527.67 447.4 447.01 447.4"/><polygon class="cls-2" points="508.44 447.4 548.77 160.96 589.1 447.4 508.44 447.4"/><polygon class="cls-1" points="673.38 447.4 713.72 296 754.05 447.4 673.38 447.4"/><polygon class="cls-2" points="732.4 447.4 772.73 246.44 813.06 447.4 732.4 447.4"/><polygon class="cls-1" points="877.85 447.4 918.18 296 958.51 447.4 877.85 447.4"/><polygon class="cls-2" points="935.54 447.4 975.87 285.99 1016.21 447.4 935.54 447.4"/><path class="cls-3" d="M1038.31,448.88H1.47a1.48,1.48,0,0,1,0-2.95H1038.31a1.48,1.48,0,1,1,0,2.95Z"/></g></g></svg>