<svg xmlns="http://www.w3.org/2000/svg" viewBox="0 0 1183.15 482.41"><defs><style>.cls-1{fill:#00324a;}.cls-2{fill:#fff;}.cls-3{fill:#62cec0;}.cls-4{fill:#5f6ff6;}.cls-5{fill:#f7d351;}.cls-6{fill:#ff574a;}</style></defs><title>2</title><g id="Capa_2" data-name="Capa 2"><g id="Layer_1" data-name="Layer 1"><path class="cls-1" d="M139.86,419.23V406.45h5.41a3.85,3.85,0,0,1,1.63.37,4.22,4.22,0,0,1,1.3,1,4.85,4.85,0,0,1,.84,1.36,4.23,4.23,0,0,1,.3,1.55,4.44,4.44,0,0,1-.49,2.06,4.07,4.07,0,0,1-1.42,1.58,3.67,3.67,0,0,1-2.07.61h-3v4.28Zm2.48-6.46h2.88a1.4,1.4,0,0,0,1.15-.57,2.35,2.35,0,0,0,.45-1.5,2.2,2.2,0,0,0-.5-1.51,1.59,1.59,0,0,0-1.2-.56h-2.78Z"/><path class="cls-1" d="M156.9,411.88a4.81,4.81,0,0,0-2,.44,2.56,2.56,0,0,0-1.22,1.21v5.7h-2.41V409.8h2.21v2a4.46,4.46,0,0,1,1.28-1.52,2.87,2.87,0,0,1,1.64-.61,2.72,2.72,0,0,1,.49,0Z"/><path class="cls-1" d="M158.69,408.48v-2.39h2.41v2.39Zm0,10.75V409.8h2.41v9.43Z"/><path class="cls-1" d="M166.27,419.23l-3.48-9.43h2.5l2.38,7.24,2.4-7.24h2.28l-3.45,9.43Z"/><path class="cls-1" d="M173.17,416.45a2.63,2.63,0,0,1,1.12-2.22,4.72,4.72,0,0,1,2.93-.85,5.82,5.82,0,0,1,2.27.38v-.5a1.79,1.79,0,0,0-.53-1.39,2.25,2.25,0,0,0-1.58-.49,4.13,4.13,0,0,0-1.44.26,7.49,7.49,0,0,0-1.5.81l-.79-1.58a7.12,7.12,0,0,1,4-1.24,4.52,4.52,0,0,1,3.15,1,3.69,3.69,0,0,1,1.12,2.88v3a.85.85,0,0,0,.13.55.63.63,0,0,0,.45.19v2a5.65,5.65,0,0,1-1,.13,1.73,1.73,0,0,1-1.08-.31,1.29,1.29,0,0,1-.47-.81l-.05-.48a4.14,4.14,0,0,1-1.53,1.21,4.31,4.31,0,0,1-1.87.44,3.33,3.33,0,0,1-2.35-.85A2.72,2.72,0,0,1,173.17,416.45Zm5.87.48a1.24,1.24,0,0,0,.45-.83v-1a4.83,4.83,0,0,0-1.89-.38,2.65,2.65,0,0,0-1.55.41,1.23,1.23,0,0,0-.6,1.06,1.32,1.32,0,0,0,.46,1,1.74,1.74,0,0,0,1.22.42,2.92,2.92,0,0,0,1.05-.2A2.44,2.44,0,0,0,179,416.93Z"/><path class="cls-1" d="M189,419.41a5.36,5.36,0,0,1-2.06-.4,4.78,4.78,0,0,1-1.59-1.07,4.85,4.85,0,0,1-1-1.56,5,5,0,0,1-.36-1.87,5.07,5.07,0,0,1,.59-2.42,4.57,4.57,0,0,1,1.74-1.78,5.14,5.14,0,0,1,2.64-.68,5,5,0,0,1,2.61.66,4.2,4.2,0,0,1,1.66,1.76l-2.36.72a2.12,2.12,0,0,0-.81-.79,2.24,2.24,0,0,0-1.11-.29,2.31,2.31,0,0,0-1.77.79,3.27,3.27,0,0,0,0,4.07,2.25,2.25,0,0,0,1.75.81,2.39,2.39,0,0,0,1.19-.32,1.79,1.79,0,0,0,.77-.8l2.35.72a3.93,3.93,0,0,1-1.63,1.78A5.19,5.19,0,0,1,189,419.41Z"/><path class="cls-1" d="M195.22,421.07a4.44,4.44,0,0,0,1.08.18.92.92,0,0,0,.79-.42,5.87,5.87,0,0,0,.67-1.6L194,409.8h2.5l2.54,7,2.24-7h2.3l-4,11.3a3.27,3.27,0,0,1-3.22,2.25,3.7,3.7,0,0,1-1.21-.2Z"/><path class="cls-1" d="M131.1,440.41A5.41,5.41,0,0,1,129,440a4.74,4.74,0,0,1-1.58-1.07,5.06,5.06,0,0,1-1-1.56,5.22,5.22,0,0,1,.24-4.29,4.44,4.44,0,0,1,1.74-1.78,5.09,5.09,0,0,1,2.64-.68,5,5,0,0,1,2.6.66,4.14,4.14,0,0,1,1.66,1.76l-2.35.72a2.12,2.12,0,0,0-.81-.79,2.25,2.25,0,0,0-1.12-.29,2.29,2.29,0,0,0-1.76.79,3.25,3.25,0,0,0,0,4.07,2.27,2.27,0,0,0,1.75.81,2.33,2.33,0,0,0,1.19-.32,1.69,1.69,0,0,0,.77-.8l2.36.72a4,4,0,0,1-1.64,1.78A5.13,5.13,0,0,1,131.1,440.41Z"/><path class="cls-1" d="M136.62,435.53a5.09,5.09,0,0,1,.35-1.87,5,5,0,0,1,1-1.56,4.33,4.33,0,0,1,1.57-1.07,5.33,5.33,0,0,1,2.06-.4,5,5,0,0,1,2.62.69,4.45,4.45,0,0,1,1.72,1.78,5.14,5.14,0,0,1,.59,2.43,5.08,5.08,0,0,1-.35,1.86,4.5,4.5,0,0,1-1,1.55,4.29,4.29,0,0,1-1.56,1.07,5.12,5.12,0,0,1-2.06.4,5.5,5.5,0,0,1-1.7-.26,4.31,4.31,0,0,1-1.38-.72,4.94,4.94,0,0,1-1-1.07,4.57,4.57,0,0,1-.65-1.33A5.33,5.33,0,0,1,136.62,435.53Zm5,2.83a2.24,2.24,0,0,0,1.75-.81,3,3,0,0,0,.71-2,3,3,0,0,0-.71-2,2.32,2.32,0,0,0-3.51,0,3.28,3.28,0,0,0,0,4.06A2.29,2.29,0,0,0,141.58,438.36Z"/><path class="cls-1" d="M157.34,440.23h-2.41v-5.29c0-1.45-.5-2.18-1.5-2.18a2.39,2.39,0,0,0-1.46.56,2.92,2.92,0,0,0-1,1.4v5.51h-2.41V430.8h2.18v1.75a3.67,3.67,0,0,1,1.53-1.41,4.78,4.78,0,0,1,2.22-.51,3.17,3.17,0,0,1,1.2.22,2.25,2.25,0,0,1,.82.56,2.88,2.88,0,0,1,.5.84,4.72,4.72,0,0,1,.25,1,9.08,9.08,0,0,1,.07,1.09Z"/><path class="cls-1" d="M164.28,440.41a5.36,5.36,0,0,1-2.06-.4,4.78,4.78,0,0,1-1.59-1.07,4.85,4.85,0,0,1-1-1.56,5,5,0,0,1-.36-1.87,5.07,5.07,0,0,1,.59-2.42,4.57,4.57,0,0,1,1.74-1.78,5.14,5.14,0,0,1,2.64-.68,5,5,0,0,1,2.61.66,4.2,4.2,0,0,1,1.66,1.76l-2.36.72a2.12,2.12,0,0,0-.81-.79,2.24,2.24,0,0,0-1.11-.29,2.31,2.31,0,0,0-1.77.79,3.27,3.27,0,0,0,0,4.07,2.25,2.25,0,0,0,1.75.81,2.39,2.39,0,0,0,1.19-.32,1.79,1.79,0,0,0,.77-.8l2.35.72a3.93,3.93,0,0,1-1.63,1.78A5.19,5.19,0,0,1,164.28,440.41Z"/><path class="cls-1" d="M174.78,440.41a5.09,5.09,0,0,1-2.63-.67A4.55,4.55,0,0,1,170.4,438a4.92,4.92,0,0,1-.6-2.41,5.15,5.15,0,0,1,.6-2.46,4.52,4.52,0,0,1,1.75-1.8,5.15,5.15,0,0,1,2.65-.68,5.33,5.33,0,0,1,2.06.4,4.34,4.34,0,0,1,1.55,1.07,4.82,4.82,0,0,1,1,1.54,4.93,4.93,0,0,1,.34,1.84,5.82,5.82,0,0,1-.05.81h-7.3a2.48,2.48,0,0,0,.81,1.71,2.43,2.43,0,0,0,1.7.65,2.71,2.71,0,0,0,1.36-.36,1.8,1.8,0,0,0,.87-.92l2.06.58a4,4,0,0,1-1.69,1.78A5.24,5.24,0,0,1,174.78,440.41Zm-2.47-5.65h4.93a2.65,2.65,0,0,0-.8-1.72,2.46,2.46,0,0,0-3.35,0A2.59,2.59,0,0,0,172.31,434.76Z"/><path class="cls-1" d="M187.24,432.88a4.73,4.73,0,0,0-2,.44,2.63,2.63,0,0,0-1.23,1.21v5.7h-2.4V430.8h2.21v2a4.46,4.46,0,0,1,1.28-1.52,2.87,2.87,0,0,1,1.64-.61,2.59,2.59,0,0,1,.48,0Z"/><path class="cls-1" d="M197.8,440.23h-2.41v-5.29c0-1.45-.5-2.18-1.49-2.18a2.4,2.4,0,0,0-1.47.56,2.83,2.83,0,0,0-1,1.4v5.51H189V430.8h2.18v1.75a3.64,3.64,0,0,1,1.52-1.41,4.83,4.83,0,0,1,2.22-.51,3.13,3.13,0,0,1,1.2.22,2.17,2.17,0,0,1,.82.56,2.68,2.68,0,0,1,.5.84,4.19,4.19,0,0,1,.25,1,7.4,7.4,0,0,1,.07,1.09Z"/><path class="cls-1" d="M203.82,440.41a6.66,6.66,0,0,1-2.32-.41,5.19,5.19,0,0,1-1.87-1.16l.86-1.56a5.33,5.33,0,0,0,3.24,1.34,2.12,2.12,0,0,0,1.13-.26.85.85,0,0,0,.42-.76,1.23,1.23,0,0,0,0-.2.51.51,0,0,0-.09-.18l-.12-.14a.46.46,0,0,0-.18-.13l-.22-.11-.28-.1-.31-.1-.36-.1-.4-.12c-.46-.15-.84-.28-1.13-.4a5.75,5.75,0,0,1-.87-.41,2.57,2.57,0,0,1-.65-.5,2.43,2.43,0,0,1-.37-.63,2.31,2.31,0,0,1-.13-.82,2.7,2.7,0,0,1,1-2.22,4.38,4.38,0,0,1,2.78-.82,5,5,0,0,1,3.54,1.33l-1,1.53a4.47,4.47,0,0,0-2.68-1.08,2.2,2.2,0,0,0-1.05.23.79.79,0,0,0-.41.75.75.75,0,0,0,.37.69,5.79,5.79,0,0,0,1.34.49l1.24.39a9.4,9.4,0,0,1,1,.41,2.64,2.64,0,0,1,.73.52,2,2,0,0,1,.41.65,2.29,2.29,0,0,1,.16.9,2.62,2.62,0,0,1-1,2.18A4.38,4.38,0,0,1,203.82,440.41Z"/><path class="cls-1" d="M680.56,419.23V406.45H686a3.77,3.77,0,0,1,1.62.37,4.22,4.22,0,0,1,1.3,1,4.85,4.85,0,0,1,.84,1.36,4.24,4.24,0,0,1,.31,1.55,4.44,4.44,0,0,1-.5,2.06,4,4,0,0,1-1.42,1.58,3.62,3.62,0,0,1-2.07.61h-3v4.28Zm2.48-6.46h2.88a1.4,1.4,0,0,0,1.15-.57,2.35,2.35,0,0,0,.45-1.5,2.2,2.2,0,0,0-.5-1.51,1.59,1.59,0,0,0-1.2-.56H683Z"/><path class="cls-1" d="M697.6,411.88a4.73,4.73,0,0,0-2,.44,2.58,2.58,0,0,0-1.23,1.21v5.7H692V409.8h2.22v2a4.35,4.35,0,0,1,1.28-1.52,2.81,2.81,0,0,1,1.63-.61,2.66,2.66,0,0,1,.49,0Z"/><path class="cls-1" d="M698.67,414.53a5.09,5.09,0,0,1,.35-1.87,5,5,0,0,1,1-1.56,4.33,4.33,0,0,1,1.57-1.07,5.33,5.33,0,0,1,2.06-.4,5,5,0,0,1,2.62.69A4.48,4.48,0,0,1,708,412.1a5.33,5.33,0,0,1,.24,4.29,4.68,4.68,0,0,1-1,1.55,4.29,4.29,0,0,1-1.56,1.07,5.12,5.12,0,0,1-2.06.4,5.5,5.5,0,0,1-1.7-.26,4.31,4.31,0,0,1-1.38-.72,4.94,4.94,0,0,1-1-1.07,4.54,4.54,0,0,1-.64-1.33A5,5,0,0,1,698.67,414.53Zm5,2.83a2.22,2.22,0,0,0,1.75-.81,3,3,0,0,0,.71-2,3,3,0,0,0-.71-2,2.32,2.32,0,0,0-3.51,0,3,3,0,0,0-.71,2,3,3,0,0,0,.71,2A2.26,2.26,0,0,0,703.63,417.36Z"/><path class="cls-1" d="M712.84,419.23l-3.48-9.43h2.51l2.37,7.24,2.4-7.24h2.28l-3.45,9.43Z"/><path class="cls-1" d="M720.65,408.48v-2.39h2.41v2.39Zm0,10.75V409.8h2.41v9.43Z"/><path class="cls-1" d="M734.45,419.23H732v-5.29c0-1.45-.5-2.18-1.49-2.18a2.4,2.4,0,0,0-1.47.56,2.92,2.92,0,0,0-1,1.4v5.51h-2.4V409.8h2.18v1.75a3.64,3.64,0,0,1,1.52-1.41,4.83,4.83,0,0,1,2.22-.51,3.13,3.13,0,0,1,1.2.22,2.17,2.17,0,0,1,.82.56,2.68,2.68,0,0,1,.5.84,4.72,4.72,0,0,1,.25,1,7.4,7.4,0,0,1,.07,1.09Z"/><path class="cls-1" d="M736.44,414.51a5.42,5.42,0,0,1,.55-2.46,4.32,4.32,0,0,1,1.57-1.76,4.05,4.05,0,0,1,2.27-.66,3.76,3.76,0,0,1,1.9.49,4.23,4.23,0,0,1,1.4,1.33V409.8h2.11v9a4.24,4.24,0,0,1-.68,2.39,4.32,4.32,0,0,1-1.87,1.55,6.55,6.55,0,0,1-2.69.53,6.09,6.09,0,0,1-2.56-.5,5.34,5.34,0,0,1-1.85-1.47L737.9,420a3.83,3.83,0,0,0,1.36,1,4.16,4.16,0,0,0,1.74.38,3.4,3.4,0,0,0,1.08-.16,2.77,2.77,0,0,0,.9-.47,2.11,2.11,0,0,0,.62-.83,3.16,3.16,0,0,0,.22-1.19V417.6a3.2,3.2,0,0,1-1.31,1.24,3.8,3.8,0,0,1-1.82.45,3.86,3.86,0,0,1-2.21-.66,4.26,4.26,0,0,1-1.51-1.74A5.26,5.26,0,0,1,736.44,414.51Zm7.38,1.27v-2.25a2.91,2.91,0,0,0-1-1.33,2.4,2.4,0,0,0-1.45-.51,2.14,2.14,0,0,0-1.76.87,3.14,3.14,0,0,0-.69,2,2.8,2.8,0,0,0,.74,2,2.45,2.45,0,0,0,1.85.8,2.35,2.35,0,0,0,1.41-.46A2.51,2.51,0,0,0,743.82,415.78Z"/><path class="cls-1" d="M758.63,419.23V406.45h5.65a3.69,3.69,0,0,1,2.08.63,4.3,4.3,0,0,1,1.46,1.6,4.26,4.26,0,0,1-.11,4.27,3.51,3.51,0,0,1-1.68,1.47l2.92,4.81h-2.73L763.59,415H761.1v4.28Zm2.47-6.46h3.12a1.41,1.41,0,0,0,1.15-.6,2.33,2.33,0,0,0,.47-1.47,2.11,2.11,0,0,0-.53-1.47,1.56,1.56,0,0,0-1.2-.6h-3Z"/><path class="cls-1" d="M770.19,412.84a6.38,6.38,0,0,1,.47-2.44,6.86,6.86,0,0,1,1.3-2.07,6.18,6.18,0,0,1,2-1.43,6.15,6.15,0,0,1,4.57-.17,5.57,5.57,0,0,1,1.73,1,7.14,7.14,0,0,1,1.28,1.46,6.53,6.53,0,0,1,.84,1.77,6.62,6.62,0,0,1,.29,1.92,6.34,6.34,0,0,1-.48,2.43,6.91,6.91,0,0,1-1.29,2.06,6.08,6.08,0,0,1-4.48,1.95,6,6,0,0,1-2.08-.36,5.55,5.55,0,0,1-1.73-1,6.63,6.63,0,0,1-1.3-1.44,6.26,6.26,0,0,1-.84-1.77A6.68,6.68,0,0,1,770.19,412.84Zm6.24,4.28a3.39,3.39,0,0,0,1.59-.37,3.16,3.16,0,0,0,1.18-1,4.57,4.57,0,0,0,.71-1.37,4.81,4.81,0,0,0,.25-1.56,5,5,0,0,0-.44-2.08,3.86,3.86,0,0,0-1.31-1.57,3.34,3.34,0,0,0-2-.61,3.43,3.43,0,0,0-2.76,1.34,4.46,4.46,0,0,0-.71,1.37,4.79,4.79,0,0,0-.25,1.55,5,5,0,0,0,.43,2.09,3.9,3.9,0,0,0,1.29,1.58A3.38,3.38,0,0,0,776.43,417.12Z"/><path class="cls-1" d="M785,419.23V406.45h2.48v12.78Z"/><path class="cls-1" d="M801.35,406.45l-8.93,12.78h-2.66l8.91-12.78Z"/><path class="cls-1" d="M705.72,432.88a4.81,4.81,0,0,0-2,.44,2.56,2.56,0,0,0-1.22,1.21v5.7H700.1V430.8h2.21v2a4.57,4.57,0,0,1,1.28-1.52,2.87,2.87,0,0,1,1.64-.61,2.72,2.72,0,0,1,.49,0Z"/><path class="cls-1" d="M711.77,440.41a5.07,5.07,0,0,1-2.63-.67,4.55,4.55,0,0,1-1.75-1.76,4.92,4.92,0,0,1-.6-2.41,5.15,5.15,0,0,1,.6-2.46,4.52,4.52,0,0,1,1.75-1.8,5.11,5.11,0,0,1,2.64-.68,5.29,5.29,0,0,1,2.06.4,4.29,4.29,0,0,1,1.56,1.07,5,5,0,0,1,1,1.54,5.14,5.14,0,0,1,.34,1.84,4.47,4.47,0,0,1-.06.81h-7.29a2.48,2.48,0,0,0,.81,1.71,2.41,2.41,0,0,0,1.69.65,2.72,2.72,0,0,0,1.37-.36,1.84,1.84,0,0,0,.87-.92l2.06.58a4,4,0,0,1-1.69,1.78A5.3,5.3,0,0,1,711.77,440.41Zm-2.47-5.65h4.93a2.65,2.65,0,0,0-.8-1.72,2.46,2.46,0,0,0-3.35,0A2.5,2.5,0,0,0,709.3,434.76Z"/><path class="cls-1" d="M724.18,439.75a6.56,6.56,0,0,1-2.67.64,3.21,3.21,0,0,1-1-.13,2.46,2.46,0,0,1-.77-.4,1.67,1.67,0,0,1-.53-.73,2.67,2.67,0,0,1-.2-1.06v-5.41h-1.24V430.8h1.24v-3.06h2.42v3.06h2v1.86h-2v4.6c0,.62.32.92.9.92a3.51,3.51,0,0,0,1.31-.34Z"/><path class="cls-1" d="M725.8,436.71V430.8h2.4v5.38c0,1.45.53,2.18,1.57,2.18a2.43,2.43,0,0,0,1.38-.44,3.18,3.18,0,0,0,1.05-1.27V430.8h2.41v6.73a.92.92,0,0,0,.13.55.63.63,0,0,0,.45.19v2a5.85,5.85,0,0,1-1,.11,1.73,1.73,0,0,1-1.06-.3,1.09,1.09,0,0,1-.47-.82l-.06-.75a4.12,4.12,0,0,1-1.6,1.45,5,5,0,0,1-2.19.49,2.7,2.7,0,0,1-2.22-.94A4.36,4.36,0,0,1,725.8,436.71Z"/><path class="cls-1" d="M743.07,432.88a4.73,4.73,0,0,0-2,.44,2.63,2.63,0,0,0-1.23,1.21v5.7h-2.41V430.8h2.22v2a4.35,4.35,0,0,1,1.28-1.52,2.81,2.81,0,0,1,1.63-.61,2.66,2.66,0,0,1,.49,0Z"/><path class="cls-1" d="M753.63,440.23h-2.41v-5.29c0-1.45-.5-2.18-1.5-2.18a2.39,2.39,0,0,0-1.46.56,2.86,2.86,0,0,0-1,1.4v5.51h-2.41V430.8H747v1.75a3.61,3.61,0,0,1,1.53-1.41,4.78,4.78,0,0,1,2.22-.51,3.21,3.21,0,0,1,1.2.22,2.25,2.25,0,0,1,.82.56,2.88,2.88,0,0,1,.5.84,4.72,4.72,0,0,1,.25,1,9.08,9.08,0,0,1,.07,1.09Z"/><path class="cls-1" d="M760.34,435.53a4.9,4.9,0,0,1,.36-1.87,5,5,0,0,1,1-1.56,4.42,4.42,0,0,1,1.57-1.07,5.36,5.36,0,0,1,2.06-.4,4.93,4.93,0,0,1,2.62.69,4.48,4.48,0,0,1,1.73,1.78,5.13,5.13,0,0,1,.58,2.43,5.07,5.07,0,0,1-.34,1.86,4.82,4.82,0,0,1-1,1.55,4.47,4.47,0,0,1-1.56,1.07,5.2,5.2,0,0,1-2.07.4,5.55,5.55,0,0,1-1.7-.26,4.36,4.36,0,0,1-1.37-.72,4.51,4.51,0,0,1-1-1.07,4.33,4.33,0,0,1-.65-1.33A5.34,5.34,0,0,1,760.34,435.53Zm5,2.83a2.22,2.22,0,0,0,1.75-.81,3,3,0,0,0,.71-2,2.9,2.9,0,0,0-.71-2,2.32,2.32,0,0,0-3.51,0,3,3,0,0,0-.71,2,3,3,0,0,0,.71,2A2.26,2.26,0,0,0,765.3,438.36Z"/><path class="cls-1" d="M781.06,440.23h-2.41v-5.29c0-1.45-.49-2.18-1.49-2.18a2.4,2.4,0,0,0-1.47.56,2.83,2.83,0,0,0-1,1.4v5.51H772.3V430.8h2.18v1.75a3.64,3.64,0,0,1,1.52-1.41,4.83,4.83,0,0,1,2.22-.51,3.13,3.13,0,0,1,1.2.22,2.09,2.09,0,0,1,.82.56,2.68,2.68,0,0,1,.5.84,4.76,4.76,0,0,1,.26,1,9.18,9.18,0,0,1,.06,1.09Z"/><path class="cls-1" d="M704,458.45a2.64,2.64,0,0,1,1.13-2.22,4.72,4.72,0,0,1,2.93-.85,5.77,5.77,0,0,1,2.26.38v-.5a1.75,1.75,0,0,0-.53-1.39,2.23,2.23,0,0,0-1.58-.49,4.13,4.13,0,0,0-1.44.26,8.07,8.07,0,0,0-1.5.81l-.78-1.58a7.1,7.1,0,0,1,4-1.24,4.5,4.5,0,0,1,3.14,1,3.66,3.66,0,0,1,1.12,2.88v3a.92.92,0,0,0,.13.55.63.63,0,0,0,.45.19v2a5.45,5.45,0,0,1-1,.13,1.68,1.68,0,0,1-1.07-.31,1.25,1.25,0,0,1-.47-.81l-.06-.48a4.11,4.11,0,0,1-1.52,1.21,4.35,4.35,0,0,1-1.88.44,3.32,3.32,0,0,1-2.34-.85A2.73,2.73,0,0,1,704,458.45Zm5.88.48a1.26,1.26,0,0,0,.44-.83v-1a4.76,4.76,0,0,0-1.89-.38,2.62,2.62,0,0,0-1.54.41,1.23,1.23,0,0,0-.6,1.06,1.29,1.29,0,0,0,.46,1,1.72,1.72,0,0,0,1.22.42,2.92,2.92,0,0,0,1-.2A2.54,2.54,0,0,0,709.87,458.93Z"/><path class="cls-1" d="M714.84,456.51a5.61,5.61,0,0,1,.54-2.46,4.33,4.33,0,0,1,1.51-1.76,3.76,3.76,0,0,1,2.17-.66,3.59,3.59,0,0,1,1.85.5,3.74,3.74,0,0,1,1.33,1.32v-5.36h2.42v10.44a.93.93,0,0,0,.12.55.58.58,0,0,0,.43.19v2a5.77,5.77,0,0,1-1,.13,1.69,1.69,0,0,1-1.07-.33,1.11,1.11,0,0,1-.48-.84l0-.59a3.51,3.51,0,0,1-1.39,1.34,4,4,0,0,1-1.89.47,4.28,4.28,0,0,1-2.31-.65,4.56,4.56,0,0,1-1.6-1.77A5.39,5.39,0,0,1,714.84,456.51Zm7.4,1.27v-2.25a2.91,2.91,0,0,0-1-1.31,2.34,2.34,0,0,0-1.42-.53,2.21,2.21,0,0,0-1.77.86,3.07,3.07,0,0,0-.7,2,2.81,2.81,0,0,0,.74,2,2.47,2.47,0,0,0,3.24.35A2.25,2.25,0,0,0,722.24,457.78Z"/><path class="cls-1" d="M735.71,461.41a6.66,6.66,0,0,1-2.32-.41,5.1,5.1,0,0,1-1.87-1.16l.86-1.56a5.31,5.31,0,0,0,3.24,1.34,2.15,2.15,0,0,0,1.13-.26.85.85,0,0,0,.42-.76,1.23,1.23,0,0,0,0-.2.76.76,0,0,0-.09-.18l-.12-.14a.56.56,0,0,0-.18-.13l-.22-.11-.28-.1-.31-.1-.36-.1-.4-.12c-.46-.15-.84-.28-1.14-.4a6.13,6.13,0,0,1-.86-.41,2.57,2.57,0,0,1-.65-.5,2.18,2.18,0,0,1-.37-.63,2.31,2.31,0,0,1-.13-.82,2.7,2.7,0,0,1,1-2.22,4.38,4.38,0,0,1,2.78-.82A5,5,0,0,1,739.4,453l-1,1.53a4.47,4.47,0,0,0-2.68-1.08,2.18,2.18,0,0,0-1,.23.78.78,0,0,0-.41.75.75.75,0,0,0,.37.69,5.79,5.79,0,0,0,1.34.49l1.24.39c.3.11.62.25,1,.41a2.64,2.64,0,0,1,.73.52,2,2,0,0,1,.41.65,2.29,2.29,0,0,1,.16.9,2.62,2.62,0,0,1-1,2.18A4.42,4.42,0,0,1,735.71,461.41Z"/><path class="cls-1" d="M740.92,458.45a2.64,2.64,0,0,1,1.13-2.22,4.7,4.7,0,0,1,2.93-.85,5.77,5.77,0,0,1,2.26.38v-.5a1.75,1.75,0,0,0-.53-1.39,2.23,2.23,0,0,0-1.58-.49,4.13,4.13,0,0,0-1.44.26,7.77,7.77,0,0,0-1.5.81l-.78-1.58a7.1,7.1,0,0,1,4-1.24,4.5,4.5,0,0,1,3.14,1,3.66,3.66,0,0,1,1.12,2.88v3a.92.92,0,0,0,.13.55.63.63,0,0,0,.45.19v2a5.55,5.55,0,0,1-1,.13,1.68,1.68,0,0,1-1.07-.31,1.25,1.25,0,0,1-.47-.81l-.06-.48a4.11,4.11,0,0,1-1.52,1.21,4.35,4.35,0,0,1-1.88.44,3.32,3.32,0,0,1-2.34-.85A2.69,2.69,0,0,1,740.92,458.45Zm5.88.48a1.26,1.26,0,0,0,.44-.83v-1a4.76,4.76,0,0,0-1.89-.38,2.62,2.62,0,0,0-1.54.41,1.23,1.23,0,0,0-.6,1.06,1.29,1.29,0,0,0,.46,1,1.72,1.72,0,0,0,1.22.42,2.92,2.92,0,0,0,1.05-.2A2.54,2.54,0,0,0,746.8,458.93Z"/><path class="cls-1" d="M752.33,448.09h2.41v10.12a1.41,1.41,0,0,0,.2.86.76.76,0,0,0,.61.24,2.71,2.71,0,0,0,1.14-.26l.32,1.84a5.1,5.1,0,0,1-1.12.35,5.67,5.67,0,0,1-1.18.13,2.41,2.41,0,0,1-1.75-.6,2.29,2.29,0,0,1-.63-1.72Z"/><path class="cls-1" d="M762.88,461.41a5.06,5.06,0,0,1-2.62-.67,4.48,4.48,0,0,1-1.75-1.76,4.92,4.92,0,0,1-.6-2.41,5.15,5.15,0,0,1,.6-2.46,4.45,4.45,0,0,1,1.75-1.8,5.09,5.09,0,0,1,2.64-.68,5.29,5.29,0,0,1,2.06.4,4.38,4.38,0,0,1,1.56,1.07,5,5,0,0,1,1,1.54,5.13,5.13,0,0,1,.33,1.84,4.59,4.59,0,0,1,0,.81h-7.29a2.47,2.47,0,0,0,2.5,2.36,2.75,2.75,0,0,0,1.37-.36,1.82,1.82,0,0,0,.86-.92l2.07.58a4.07,4.07,0,0,1-1.69,1.78A5.31,5.31,0,0,1,762.88,461.41Zm-2.47-5.65h4.93a2.64,2.64,0,0,0-.79-1.72,2.46,2.46,0,0,0-3.35,0A2.55,2.55,0,0,0,760.41,455.76Z"/><path class="cls-1" d="M773.2,461.41a6.66,6.66,0,0,1-2.32-.41,5.19,5.19,0,0,1-1.87-1.16l.86-1.56a5.33,5.33,0,0,0,3.24,1.34,2.12,2.12,0,0,0,1.13-.26.85.85,0,0,0,.42-.76,1.23,1.23,0,0,0,0-.2.38.38,0,0,0-.09-.18l-.12-.14a.46.46,0,0,0-.18-.13l-.22-.11-.28-.1-.31-.1-.36-.1-.4-.12c-.46-.15-.84-.28-1.13-.4a5.75,5.75,0,0,1-.87-.41,2.57,2.57,0,0,1-.65-.5,2.16,2.16,0,0,1-.36-.63,2.11,2.11,0,0,1-.14-.82,2.7,2.7,0,0,1,1-2.22,4.38,4.38,0,0,1,2.78-.82,5,5,0,0,1,3.54,1.33l-1,1.53a4.47,4.47,0,0,0-2.68-1.08,2.2,2.2,0,0,0-1,.23.79.79,0,0,0-.41.75.75.75,0,0,0,.37.69,5.79,5.79,0,0,0,1.34.49l1.24.39a9.4,9.4,0,0,1,.95.41,2.88,2.88,0,0,1,.74.52,2.1,2.1,0,0,1,.4.65,2.29,2.29,0,0,1,.16.9,2.62,2.62,0,0,1-1,2.18A4.38,4.38,0,0,1,773.2,461.41Z"/><path class="cls-1" d="M690.39,479.45a2.64,2.64,0,0,1,1.13-2.22,4.69,4.69,0,0,1,2.92-.85,5.79,5.79,0,0,1,2.27.38v-.5a1.79,1.79,0,0,0-.53-1.39,2.23,2.23,0,0,0-1.58-.49,4.13,4.13,0,0,0-1.44.26,7.49,7.49,0,0,0-1.5.81l-.78-1.58a7.1,7.1,0,0,1,4-1.24,4.5,4.5,0,0,1,3.14,1,3.66,3.66,0,0,1,1.12,2.88v3a.85.85,0,0,0,.13.55.63.63,0,0,0,.45.19v2a5.55,5.55,0,0,1-1,.13,1.68,1.68,0,0,1-1.07-.31,1.21,1.21,0,0,1-.47-.81l-.06-.48a4.11,4.11,0,0,1-1.52,1.21,4.35,4.35,0,0,1-1.88.44,3.36,3.36,0,0,1-2.35-.85A2.72,2.72,0,0,1,690.39,479.45Zm5.87.48a1.24,1.24,0,0,0,.45-.83v-1a4.76,4.76,0,0,0-1.89-.38,2.6,2.6,0,0,0-1.54.41,1.23,1.23,0,0,0-.6,1.06,1.29,1.29,0,0,0,.46,1,1.72,1.72,0,0,0,1.22.42,3,3,0,0,0,1-.2A2.4,2.4,0,0,0,696.26,479.93Z"/><path class="cls-1" d="M705.29,482.41A6.66,6.66,0,0,1,703,482a5.1,5.1,0,0,1-1.87-1.16l.86-1.56a5.33,5.33,0,0,0,3.24,1.34,2.12,2.12,0,0,0,1.13-.26.85.85,0,0,0,.42-.76,1.23,1.23,0,0,0,0-.2.51.51,0,0,0-.09-.18l-.12-.14a.46.46,0,0,0-.18-.13l-.22-.11-.28-.1-.31-.1-.36-.1-.4-.12c-.46-.15-.84-.28-1.13-.4a5.75,5.75,0,0,1-.87-.41,2.57,2.57,0,0,1-.65-.5,2.43,2.43,0,0,1-.37-.63,2.31,2.31,0,0,1-.13-.82,2.7,2.7,0,0,1,1-2.22,4.38,4.38,0,0,1,2.78-.82A5,5,0,0,1,709,474l-1,1.53a4.47,4.47,0,0,0-2.68-1.08,2.18,2.18,0,0,0-1.05.23.79.79,0,0,0-.41.75.75.75,0,0,0,.37.69,5.79,5.79,0,0,0,1.34.49l1.24.39a9.4,9.4,0,0,1,.95.41,2.64,2.64,0,0,1,.73.52,2,2,0,0,1,.41.65,2.29,2.29,0,0,1,.16.9,2.62,2.62,0,0,1-1,2.18A4.4,4.4,0,0,1,705.29,482.41Z"/><path class="cls-1" d="M714.63,482.41a6.62,6.62,0,0,1-2.32-.41,5,5,0,0,1-1.87-1.16l.86-1.56a5.28,5.28,0,0,0,3.24,1.34,2.17,2.17,0,0,0,1.13-.26.85.85,0,0,0,.42-.76.64.64,0,0,0,0-.2.48.48,0,0,0-.08-.18l-.12-.14a.62.62,0,0,0-.19-.13l-.22-.11-.28-.1-.3-.1-.37-.1-.39-.12c-.46-.15-.84-.28-1.14-.4a6.82,6.82,0,0,1-.87-.41,2.76,2.76,0,0,1-.65-.5,2.16,2.16,0,0,1-.36-.63,2.31,2.31,0,0,1-.14-.82,2.68,2.68,0,0,1,1-2.22,4.36,4.36,0,0,1,2.78-.82,5,5,0,0,1,3.54,1.33l-1,1.53a4.45,4.45,0,0,0-2.68-1.08,2.13,2.13,0,0,0-1,.23.78.78,0,0,0-.42.75.77.77,0,0,0,.37.69,6.11,6.11,0,0,0,1.35.49l1.24.39a9.27,9.27,0,0,1,.94.41,2.71,2.71,0,0,1,.74.52,2.12,2.12,0,0,1,.41.65,2.49,2.49,0,0,1,.16.9,2.6,2.6,0,0,1-1,2.18A4.37,4.37,0,0,1,714.63,482.41Z"/><path class="cls-1" d="M724.87,482.41a5.09,5.09,0,0,1-2.63-.67,4.55,4.55,0,0,1-1.75-1.76,4.92,4.92,0,0,1-.6-2.41,5.15,5.15,0,0,1,.6-2.46,4.52,4.52,0,0,1,1.75-1.8,5.15,5.15,0,0,1,2.65-.68,5.33,5.33,0,0,1,2.06.4,4.34,4.34,0,0,1,1.55,1.07,4.82,4.82,0,0,1,1,1.54,4.93,4.93,0,0,1,.34,1.84,5.82,5.82,0,0,1,0,.81h-7.3a2.48,2.48,0,0,0,.81,1.71,2.43,2.43,0,0,0,1.7.65,2.71,2.71,0,0,0,1.36-.36,1.8,1.8,0,0,0,.87-.92l2.06.58a4,4,0,0,1-1.69,1.78A5.24,5.24,0,0,1,724.87,482.41Zm-2.47-5.65h4.93a2.65,2.65,0,0,0-.8-1.72,2.46,2.46,0,0,0-3.35,0A2.59,2.59,0,0,0,722.4,476.76Z"/><path class="cls-1" d="M735.19,482.41a6.62,6.62,0,0,1-2.32-.41,5.1,5.1,0,0,1-1.87-1.16l.86-1.56a5.28,5.28,0,0,0,3.24,1.34,2.15,2.15,0,0,0,1.13-.26.85.85,0,0,0,.42-.76,1.23,1.23,0,0,0,0-.2.76.76,0,0,0-.09-.18l-.12-.14a.62.62,0,0,0-.19-.13l-.21-.11-.29-.1-.3-.1-.36-.1-.4-.12c-.46-.15-.84-.28-1.14-.4a6.13,6.13,0,0,1-.86-.41,2.57,2.57,0,0,1-.65-.5,2,2,0,0,1-.37-.63,2.31,2.31,0,0,1-.13-.82,2.67,2.67,0,0,1,1-2.22,4.36,4.36,0,0,1,2.78-.82,5,5,0,0,1,3.54,1.33l-1,1.53a4.45,4.45,0,0,0-2.68-1.08,2.13,2.13,0,0,0-1,.23.78.78,0,0,0-.41.75.76.76,0,0,0,.36.69,6.11,6.11,0,0,0,1.35.49l1.24.39a9.27,9.27,0,0,1,.94.41,2.71,2.71,0,0,1,.74.52,2.12,2.12,0,0,1,.41.65,2.29,2.29,0,0,1,.16.9,2.6,2.6,0,0,1-1,2.18A4.37,4.37,0,0,1,735.19,482.41Z"/><path class="cls-1" d="M744.52,482.41a6.71,6.71,0,0,1-2.32-.41,5.19,5.19,0,0,1-1.87-1.16l.86-1.56a5.33,5.33,0,0,0,3.25,1.34,2.17,2.17,0,0,0,1.13-.26.86.86,0,0,0,.41-.76.65.65,0,0,0,0-.2.38.38,0,0,0-.09-.18l-.11-.14a.62.62,0,0,0-.19-.13l-.22-.11-.28-.1-.3-.1-.37-.1-.39-.12c-.47-.15-.85-.28-1.14-.4a5.75,5.75,0,0,1-.87-.41,2.57,2.57,0,0,1-.65-.5,2.16,2.16,0,0,1-.36-.63,2.31,2.31,0,0,1-.14-.82,2.68,2.68,0,0,1,1-2.22,4.33,4.33,0,0,1,2.77-.82,5,5,0,0,1,3.55,1.33l-1,1.53a4.47,4.47,0,0,0-2.68-1.08,2.2,2.2,0,0,0-1,.23.79.79,0,0,0-.41.75.75.75,0,0,0,.37.69,6,6,0,0,0,1.34.49l1.24.39a9.4,9.4,0,0,1,1,.41,2.88,2.88,0,0,1,.74.52,2.33,2.33,0,0,1,.41.65,2.5,2.5,0,0,1,.15.9,2.62,2.62,0,0,1-1,2.18A4.38,4.38,0,0,1,744.52,482.41Z"/><path class="cls-1" d="M765,482.23h-2.41v-5.29a2.82,2.82,0,0,0-.38-1.64,1.23,1.23,0,0,0-1.08-.54,2,2,0,0,0-1.35.56,3,3,0,0,0-.9,1.42v5.49h-2.41v-5.29c0-1.45-.49-2.18-1.46-2.18a2,2,0,0,0-1.35.55,2.83,2.83,0,0,0-.9,1.41v5.51h-2.41V472.8h2.18v1.75a3.62,3.62,0,0,1,1.44-1.41,4.11,4.11,0,0,1,2.06-.51,2.75,2.75,0,0,1,1.8.56,2.53,2.53,0,0,1,.87,1.45,4.1,4.1,0,0,1,1.46-1.49,4,4,0,0,1,2-.52q2.84,0,2.83,3.71Z"/><path class="cls-1" d="M772,482.41a5.09,5.09,0,0,1-2.63-.67,4.55,4.55,0,0,1-1.75-1.76,4.92,4.92,0,0,1-.6-2.41,5.15,5.15,0,0,1,.6-2.46,4.52,4.52,0,0,1,1.75-1.8,5.14,5.14,0,0,1,2.64-.68,5.38,5.38,0,0,1,2.07.4,4.34,4.34,0,0,1,1.55,1.07,4.82,4.82,0,0,1,1,1.54,4.93,4.93,0,0,1,.34,1.84,5.82,5.82,0,0,1,0,.81h-7.3a2.48,2.48,0,0,0,.81,1.71,2.41,2.41,0,0,0,1.7.65,2.71,2.71,0,0,0,1.36-.36,1.8,1.8,0,0,0,.87-.92l2.06.58a4,4,0,0,1-1.69,1.78A5.24,5.24,0,0,1,772,482.41Zm-2.47-5.65h4.93a2.65,2.65,0,0,0-.8-1.72,2.46,2.46,0,0,0-3.35,0A2.59,2.59,0,0,0,769.5,476.76Z"/><path class="cls-1" d="M787.58,482.23h-2.41v-5.29c0-1.45-.5-2.18-1.49-2.18a2.4,2.4,0,0,0-1.47.56,2.92,2.92,0,0,0-1,1.4v5.51h-2.4V472.8H781v1.75a3.58,3.58,0,0,1,1.52-1.41,4.83,4.83,0,0,1,2.22-.51,3.13,3.13,0,0,1,1.2.22,2.17,2.17,0,0,1,.82.56,2.68,2.68,0,0,1,.5.84,4.72,4.72,0,0,1,.25,1,7.4,7.4,0,0,1,.07,1.09Z"/><path class="cls-1" d="M795.73,481.75a6.56,6.56,0,0,1-2.67.64,3.1,3.1,0,0,1-.94-.13,2.4,2.4,0,0,1-.78-.4,1.75,1.75,0,0,1-.53-.73,2.67,2.67,0,0,1-.2-1.06v-5.41h-1.24V472.8h1.24v-3.06H793v3.06h2v1.86h-2v4.6c0,.62.32.92.9.92a3.46,3.46,0,0,0,1.31-.34Z"/><path class="cls-1" d="M130.09,20.14V16h-8V12L131.54.26h3.1V12h2.52v4h-2.52v4.17ZM126.67,12h3.93V7Z"/><path class="cls-1" d="M147.21,20.41a8.93,8.93,0,0,1-4-.87,6.21,6.21,0,0,1-2.71-2.42l2.56-2.78A5.86,5.86,0,0,0,145,15.92a4.76,4.76,0,0,0,2.24.58,3,3,0,0,0,2.13-.76,2.59,2.59,0,0,0,.81-2,2.59,2.59,0,0,0-2.69-2.69,3.07,3.07,0,0,0-1.44.35,2.5,2.5,0,0,0-1,.95h-3.95L143.42.26h10.06V4.35h-6.76l-.6,3.39a2.94,2.94,0,0,1,2-.51A6.69,6.69,0,0,1,153,9a6.09,6.09,0,0,1,1.89,4.61,6.22,6.22,0,0,1-2.15,4.89A8.08,8.08,0,0,1,147.21,20.41Z"/><path class="cls-1" d="M158.72,20.17V15.6h3.73v4.57Z"/><path class="cls-1" d="M166.37,20.17a13.51,13.51,0,0,1,.84-5.39,7.58,7.58,0,0,1,3.21-3.27q.51-.31,1.53-.84c.67-.35,1.21-.65,1.62-.89a12,12,0,0,0,1.32-.9,3.64,3.64,0,0,0,1-1.18,2.88,2.88,0,0,0,.35-1.4,2.11,2.11,0,0,0-.68-1.68A2.65,2.65,0,0,0,173.8,4a5.14,5.14,0,0,0-2.45.65,9.44,9.44,0,0,0-2.1,1.57l-2.85-3a9.75,9.75,0,0,1,3.26-2.23,11.18,11.18,0,0,1,4.77-1,7.62,7.62,0,0,1,5.17,1.61A5.49,5.49,0,0,1,181.44,6a6.38,6.38,0,0,1-.23,1.72,5.67,5.67,0,0,1-.63,1.43,6.11,6.11,0,0,1-1,1.21,10.26,10.26,0,0,1-1.22,1c-.41.3-.89.61-1.44.94a26.6,26.6,0,0,0-3.37,2.1A6.69,6.69,0,0,0,172,16.13h9.43v4Z"/><path class="cls-1" d="M185.15,4.32a4,4,0,0,1,1.42-3.06,5.35,5.35,0,0,1,6.9,0,4,4,0,0,1,1.42,3.06,4,4,0,0,1-1.42,3.07,5.35,5.35,0,0,1-6.9,0A4,4,0,0,1,185.15,4.32Zm2,14.27,8-9.06,7.3-9.5,2.05,1.8-7.78,8.85-7.58,9.73Zm4.12-12.75a2.4,2.4,0,0,0,.5-1.52,2.35,2.35,0,0,0-.5-1.51A1.53,1.53,0,0,0,190,2.19a1.49,1.49,0,0,0-1.21.63,2.35,2.35,0,0,0-.51,1.5,2.35,2.35,0,0,0,.51,1.52,1.47,1.47,0,0,0,1.21.64A1.5,1.5,0,0,0,191.23,5.84Zm5.48,10.29a4,4,0,0,1,1.42-3.07,5.37,5.37,0,0,1,6.91,0,4,4,0,0,1,1.42,3.07A3.91,3.91,0,0,1,205,19.18a5.37,5.37,0,0,1-6.91,0A3.91,3.91,0,0,1,196.71,16.13Zm6.61,0a2.29,2.29,0,0,0-.52-1.51,1.53,1.53,0,0,0-1.22-.65,1.48,1.48,0,0,0-1.21.64,2.4,2.4,0,0,0-.5,1.52,2.33,2.33,0,0,0,.5,1.51,1.5,1.5,0,0,0,1.21.63,1.54,1.54,0,0,0,1.22-.64A2.26,2.26,0,0,0,203.32,16.13Z"/><path class="cls-2" d="M170.15,375.13v4H157.87v-4h4V363.51a6.3,6.3,0,0,1-2.06,1.56,5.59,5.59,0,0,1-2.62.85V361.8a3.68,3.68,0,0,0,1.26-.26,6.79,6.79,0,0,0,1.26-.65,12.82,12.82,0,0,0,1.07-.78,8,8,0,0,0,.78-.67,1.83,1.83,0,0,0,.31-.32h4.65v16Z"/><path class="cls-2" d="M351.69,379.17a13.71,13.71,0,0,1,.83-5.39,7.67,7.67,0,0,1,3.22-3.27c.34-.21.85-.49,1.52-.84s1.22-.65,1.63-.89a13,13,0,0,0,1.32-.9,3.76,3.76,0,0,0,1-1.18,2.87,2.87,0,0,0,.34-1.4,2.1,2.1,0,0,0-.67-1.68,2.65,2.65,0,0,0-1.79-.59,5.11,5.11,0,0,0-2.45.65,9,9,0,0,0-2.1,1.57l-2.85-3a9.7,9.7,0,0,1,3.25-2.23,11.19,11.19,0,0,1,4.78-1,7.64,7.64,0,0,1,5.17,1.61,5.49,5.49,0,0,1,1.84,4.35,6,6,0,0,1-.24,1.72,5.66,5.66,0,0,1-.62,1.43,6.11,6.11,0,0,1-1,1.21,10.26,10.26,0,0,1-1.22,1c-.42.3-.9.61-1.44.94a26.6,26.6,0,0,0-3.37,2.1,6.74,6.74,0,0,0-1.52,1.67h9.44v4Z"/><path class="cls-2" d="M550.65,379.33q-4.64,0-6.87-2.86l2.37-3.16a4.68,4.68,0,0,0,1.75,1.39,5.9,5.9,0,0,0,2.54.51,4.39,4.39,0,0,0,2.48-.58,1.91,1.91,0,0,0,.86-1.71q0-2.46-4.41-2.46h-.92v-3.22h1a5.36,5.36,0,0,0,2.8-.62,1.93,1.93,0,0,0,1-1.73,1.76,1.76,0,0,0-.71-1.47,2.86,2.86,0,0,0-1.82-.55,4.28,4.28,0,0,0-2.22.58,4.57,4.57,0,0,0-1.6,1.61L544,361.75a6.49,6.49,0,0,1,2.94-1.94,11.93,11.93,0,0,1,4.24-.74,8.35,8.35,0,0,1,5,1.41,4.36,4.36,0,0,1,1.93,3.67,4.42,4.42,0,0,1-1,2.91,4.75,4.75,0,0,1-2.72,1.61,4.71,4.71,0,0,1,3,1.71,5.13,5.13,0,0,1,1.16,3.33,4.78,4.78,0,0,1-2.17,4.11A9.73,9.73,0,0,1,550.65,379.33Z"/><path class="cls-2" d="M739.67,379.14V375h-8v-4l9.41-11.7h3.1V371h2.52v4h-2.52v4.17ZM736.25,371h3.93v-5Z"/><path class="cls-2" d="M931.9,379.41a8.93,8.93,0,0,1-4-.87,6.21,6.21,0,0,1-2.71-2.42l2.56-2.78a5.86,5.86,0,0,0,1.92,1.58,4.76,4.76,0,0,0,2.24.58,3,3,0,0,0,2.13-.76,2.69,2.69,0,0,0-1.87-4.68,3.11,3.11,0,0,0-1.45.35,2.5,2.5,0,0,0-1,.95h-4l2.36-12.1h10.06v4.09h-6.76l-.6,3.39a2.94,2.94,0,0,1,2-.51,6.69,6.69,0,0,1,4.81,1.8,6.09,6.09,0,0,1,1.89,4.61,6.22,6.22,0,0,1-2.15,4.89A8.08,8.08,0,0,1,931.9,379.41Z"/><path class="cls-1" d="M323.8,46.42V42.25h-8v-4l9.41-11.7h3.1v11.7h2.52v4h-2.52v4.17Zm-3.42-8.18h3.93v-5Z"/><path class="cls-1" d="M341.92,46.42V42.25h-8v-4l9.41-11.7h3.1v11.7H349v4h-2.52v4.17Zm-3.42-8.18h3.94v-5Z"/><path class="cls-1" d="M352.89,46.45V41.88h3.73v4.57Z"/><path class="cls-1" d="M373.62,35.08a6.14,6.14,0,0,1,2,4.68,6.59,6.59,0,0,1-1,3.52A7,7,0,0,1,372,45.8a7.94,7.94,0,0,1-3.8.92,6.68,6.68,0,0,1-5.53-2.5,10.81,10.81,0,0,1-2-6.93c0-3.45.71-6.12,2.13-8a6.93,6.93,0,0,1,5.86-2.86,8.14,8.14,0,0,1,3.47.76A8.55,8.55,0,0,1,375,29.34L372.4,32.2a5.09,5.09,0,0,0-1.72-1.41,4.65,4.65,0,0,0-2.14-.5,3.25,3.25,0,0,0-2.65,1.19,5.28,5.28,0,0,0-1.05,3.32,4.37,4.37,0,0,1,3.73-1.6A7.15,7.15,0,0,1,373.62,35.08ZM366,42a3,3,0,0,0,4.4,0,3.07,3.07,0,0,0,.93-2.24,2.9,2.9,0,0,0-.91-2.15,3.24,3.24,0,0,0-4.44,0,2.87,2.87,0,0,0-.92,2.15A3,3,0,0,0,366,42Z"/><path class="cls-1" d="M379,30.6a4,4,0,0,1,1.42-3.06,5.37,5.37,0,0,1,6.91,0,4,4,0,0,1,0,6.13,5.37,5.37,0,0,1-6.91,0A4,4,0,0,1,379,30.6Zm2,14.27,8-9.06,7.31-9.5,2,1.8L390.58,37,383,46.69Zm4.12-12.75a2.34,2.34,0,0,0,.5-1.52,2.29,2.29,0,0,0-.5-1.51,1.49,1.49,0,0,0-1.21-.62,1.51,1.51,0,0,0-1.21.63,2.53,2.53,0,0,0,0,3,1.46,1.46,0,0,0,2.42,0Zm5.49,10.29A4,4,0,0,1,392,39.34a5.38,5.38,0,0,1,6.92,0,4,4,0,0,1,1.42,3.07,3.91,3.91,0,0,1-1.42,3.05,5.38,5.38,0,0,1-6.92,0A3.93,3.93,0,0,1,390.58,42.41Zm6.61,0a2.35,2.35,0,0,0-.52-1.51,1.53,1.53,0,0,0-1.22-.65,1.5,1.5,0,0,0-1.22.64,2.4,2.4,0,0,0-.5,1.52,2.33,2.33,0,0,0,.5,1.51,1.52,1.52,0,0,0,1.22.63,1.54,1.54,0,0,0,1.22-.64A2.32,2.32,0,0,0,397.19,42.41Z"/><path class="cls-1" d="M515.46,73.62V69.45h-8v-4l9.41-11.71H520V65.45h2.52v4H520v4.17ZM512,65.45H516v-5Z"/><path class="cls-1" d="M532.49,73.81q-4.63,0-6.87-2.85L528,67.8a4.88,4.88,0,0,0,1.76,1.38,5.9,5.9,0,0,0,2.54.52,4.48,4.48,0,0,0,2.48-.58,1.93,1.93,0,0,0,.86-1.72q0-2.46-4.41-2.46h-.92V61.73h1a5.35,5.35,0,0,0,2.8-.63,1.92,1.92,0,0,0,1-1.72,1.78,1.78,0,0,0-.71-1.48,2.86,2.86,0,0,0-1.82-.55,4.38,4.38,0,0,0-2.22.58,4.65,4.65,0,0,0-1.6,1.61l-2.93-3.31a6.49,6.49,0,0,1,2.94-1.94,12.16,12.16,0,0,1,4.24-.74,8.35,8.35,0,0,1,5,1.41A4.36,4.36,0,0,1,540,58.64a4.41,4.41,0,0,1-1,2.9,4.7,4.7,0,0,1-2.72,1.61,4.71,4.71,0,0,1,3,1.71,5.13,5.13,0,0,1,1.15,3.33,4.75,4.75,0,0,1-2.16,4.11A9.73,9.73,0,0,1,532.49,73.81Z"/><path class="cls-1" d="M544.41,73.65V69.08h3.73v4.57Z"/><path class="cls-1" d="M559.59,73.89a8.69,8.69,0,0,1-3.73-.79,6.72,6.72,0,0,1-2.72-2.27,5.83,5.83,0,0,1-1-3.37,4.25,4.25,0,0,1,.83-2.6,6.63,6.63,0,0,1,2-1.82,4.38,4.38,0,0,1-1.59-1.5,3.77,3.77,0,0,1-.63-2.06,4.92,4.92,0,0,1,1.53-3.6,7.08,7.08,0,0,1,1.58-1.16,8,8,0,0,1,1.86-.72,8.23,8.23,0,0,1,1.9-.23,7.9,7.9,0,0,1,2.39.38,8.41,8.41,0,0,1,2.22,1.06A5.22,5.22,0,0,1,565.87,57a4.82,4.82,0,0,1,.64,2.43,3.81,3.81,0,0,1-.66,2.09A4.26,4.26,0,0,1,564.23,63a6.34,6.34,0,0,1,2,1.88,4.62,4.62,0,0,1,.83,2.71,5.56,5.56,0,0,1-1,3.29,6.56,6.56,0,0,1-2.71,2.21A9.06,9.06,0,0,1,559.59,73.89Zm0-9a3.05,3.05,0,0,0-2,.7,2.31,2.31,0,0,0,0,3.56,3.14,3.14,0,0,0,2,.69,3,3,0,0,0,2-.71,2.24,2.24,0,0,0,.84-1.77,2.17,2.17,0,0,0-.84-1.8A3.16,3.16,0,0,0,559.59,64.88Zm0-3.36a2.52,2.52,0,0,0,1.58-.52,1.72,1.72,0,0,0,.69-1.43,1.62,1.62,0,0,0-.66-1.32,2.52,2.52,0,0,0-1.61-.53,2.49,2.49,0,0,0-1.6.53,1.64,1.64,0,0,0-.65,1.32A1.68,1.68,0,0,0,558,61,2.49,2.49,0,0,0,559.59,61.52Z"/><path class="cls-1" d="M570.5,57.8a4,4,0,0,1,1.42-3,5.33,5.33,0,0,1,6.91,0,4,4,0,0,1,0,6.12,5.33,5.33,0,0,1-6.91,0A4,4,0,0,1,570.5,57.8Zm2,14.28,8-9.07,7.31-9.5,2.05,1.8-7.78,8.85-7.59,9.73Zm4.11-12.75a2.37,2.37,0,0,0,.5-1.53,2.31,2.31,0,0,0-.5-1.51,1.48,1.48,0,0,0-2.42,0,2.35,2.35,0,0,0-.5,1.49,2.42,2.42,0,0,0,.5,1.53,1.51,1.51,0,0,0,1.21.63A1.49,1.49,0,0,0,576.58,59.33Zm5.49,10.29a3.94,3.94,0,0,1,1.42-3.07,5.33,5.33,0,0,1,6.91,0,3.94,3.94,0,0,1,1.42,3.07,3.89,3.89,0,0,1-1.42,3,5.37,5.37,0,0,1-6.91,0A3.89,3.89,0,0,1,582.07,69.62Zm6.61,0a2.37,2.37,0,0,0-.52-1.52,1.51,1.51,0,0,0-1.22-.64,1.49,1.49,0,0,0-1.21.63,2.35,2.35,0,0,0-.5,1.53,2.31,2.31,0,0,0,.5,1.51,1.49,1.49,0,0,0,2.43,0A2.31,2.31,0,0,0,588.68,69.62Z"/><path class="cls-1" d="M705.3,73.35V69.18h-8v-4l9.41-11.7h3.1v11.7h2.52v4h-2.52v4.17Zm-3.42-8.18h3.93v-5Z"/><path class="cls-1" d="M722.33,73.54q-4.64,0-6.87-2.86l2.36-3.15a4.88,4.88,0,0,0,1.76,1.38,5.9,5.9,0,0,0,2.54.52,4.48,4.48,0,0,0,2.48-.58,1.93,1.93,0,0,0,.86-1.72q0-2.46-4.41-2.46h-.92V61.46h1a5.35,5.35,0,0,0,2.8-.63,1.93,1.93,0,0,0,1-1.73,1.76,1.76,0,0,0-.71-1.47,2.86,2.86,0,0,0-1.82-.55,4.28,4.28,0,0,0-2.22.58,4.57,4.57,0,0,0-1.6,1.61L715.67,56A6.49,6.49,0,0,1,718.61,54a12.16,12.16,0,0,1,4.24-.74,8.35,8.35,0,0,1,5,1.41,4.36,4.36,0,0,1,1.93,3.68,4.41,4.41,0,0,1-1,2.9,4.75,4.75,0,0,1-2.72,1.61,4.71,4.71,0,0,1,3,1.71,5.13,5.13,0,0,1,1.15,3.33A4.77,4.77,0,0,1,728,72,9.73,9.73,0,0,1,722.33,73.54Z"/><path class="cls-1" d="M734.25,73.38V68.81H738v4.57Z"/><path class="cls-1" d="M749.43,73.62a8.69,8.69,0,0,1-3.73-.79A6.66,6.66,0,0,1,743,70.55a5.78,5.78,0,0,1-1-3.37,4.24,4.24,0,0,1,.83-2.59,6.63,6.63,0,0,1,2-1.82,4.33,4.33,0,0,1-1.59-1.51,3.73,3.73,0,0,1-.63-2,5,5,0,0,1,.41-2,5.11,5.11,0,0,1,1.12-1.61,7.37,7.37,0,0,1,1.58-1.15,8.06,8.06,0,0,1,1.85-.72,8.38,8.38,0,0,1,1.91-.23,7.89,7.89,0,0,1,2.39.37A9.08,9.08,0,0,1,754,54.93a5.35,5.35,0,0,1,1.67,1.8,4.79,4.79,0,0,1,.64,2.43,3.81,3.81,0,0,1-.66,2.09,4.29,4.29,0,0,1-1.63,1.52,6.27,6.27,0,0,1,2,1.88,4.62,4.62,0,0,1,.83,2.71,5.56,5.56,0,0,1-1,3.29,6.56,6.56,0,0,1-2.71,2.21A9.06,9.06,0,0,1,749.43,73.62Zm0-9a3,3,0,0,0-2,.69,2.23,2.23,0,0,0-.82,1.8,2.2,2.2,0,0,0,.85,1.77,3.14,3.14,0,0,0,2,.69,3,3,0,0,0,2-.71,2.25,2.25,0,0,0,.84-1.78,2.16,2.16,0,0,0-.84-1.79A3.1,3.1,0,0,0,749.43,64.61Zm0-3.36a2.49,2.49,0,0,0,1.58-.53,1.69,1.69,0,0,0,.69-1.42A1.62,1.62,0,0,0,751,58a2.52,2.52,0,0,0-1.61-.53,2.49,2.49,0,0,0-1.6.53,1.64,1.64,0,0,0-.65,1.32,1.69,1.69,0,0,0,.69,1.43A2.49,2.49,0,0,0,749.43,61.25Z"/><path class="cls-1" d="M760.34,57.53a4,4,0,0,1,1.42-3.05,5.33,5.33,0,0,1,6.91,0,4,4,0,0,1,0,6.12,5.33,5.33,0,0,1-6.91,0A4,4,0,0,1,760.34,57.53Zm2,14.28,8-9.07,7.31-9.5,2.05,1.8-7.78,8.85-7.59,9.73Zm4.11-12.75a2.39,2.39,0,0,0,.5-1.53,2.31,2.31,0,0,0-.5-1.51A1.48,1.48,0,0,0,764,56a2.4,2.4,0,0,0-.5,1.5,2.44,2.44,0,0,0,.5,1.53,1.51,1.51,0,0,0,1.21.63A1.49,1.49,0,0,0,766.42,59.06Zm5.49,10.28a4,4,0,0,1,1.42-3.07,5.37,5.37,0,0,1,6.91,0,4,4,0,0,1,1.42,3.07,3.91,3.91,0,0,1-1.42,3,5.37,5.37,0,0,1-6.91,0A3.91,3.91,0,0,1,771.91,69.34Zm6.61,0a2.36,2.36,0,0,0-.52-1.51,1.53,1.53,0,0,0-1.22-.65,1.5,1.5,0,0,0-1.21.64,2.35,2.35,0,0,0-.51,1.52,2.28,2.28,0,0,0,.51,1.51,1.49,1.49,0,0,0,1.21.63,1.51,1.51,0,0,0,1.22-.64A2.32,2.32,0,0,0,778.52,69.34Z"/><path class="cls-1" d="M897.31,107.39v-4.17h-8v-4l9.41-11.7h3.1v11.7h2.52v4h-2.52v4.17Zm-3.42-8.18h3.93v-5Z"/><path class="cls-1" d="M907.84,107.42a13.51,13.51,0,0,1,.84-5.39,7.7,7.7,0,0,1,3.21-3.27c.35-.21.85-.49,1.53-.84s1.21-.65,1.63-.89a11.91,11.91,0,0,0,1.31-.9,3.8,3.8,0,0,0,1-1.18,3,3,0,0,0,.34-1.4,2.11,2.11,0,0,0-.68-1.68,2.63,2.63,0,0,0-1.79-.59,5.07,5.07,0,0,0-2.44.65,9,9,0,0,0-2.1,1.57l-2.86-3a9.75,9.75,0,0,1,3.26-2.23,11.33,11.33,0,0,1,4.77-1,7.62,7.62,0,0,1,5.17,1.61,5.49,5.49,0,0,1,1.84,4.35,6,6,0,0,1-.23,1.72,5.67,5.67,0,0,1-.63,1.43,6.42,6.42,0,0,1-1,1.21,11.19,11.19,0,0,1-1.23,1c-.41.3-.89.61-1.44.94a27.13,27.13,0,0,0-3.37,2.11,6.49,6.49,0,0,0-1.51,1.66h9.43v4Z"/><path class="cls-1" d="M927.19,107.42v-4.57h3.73v4.57Z"/><path class="cls-1" d="M942.37,107.66a8.72,8.72,0,0,1-3.73-.79,6.73,6.73,0,0,1-2.72-2.28,5.8,5.8,0,0,1-1-3.37,4.28,4.28,0,0,1,.83-2.59,6.67,6.67,0,0,1,2-1.82,4.35,4.35,0,0,1-1.6-1.51,3.73,3.73,0,0,1-.63-2,4.81,4.81,0,0,1,.42-2A5.09,5.09,0,0,1,937,89.64a7.19,7.19,0,0,1,1.59-1.15,7.47,7.47,0,0,1,1.85-.72,8.29,8.29,0,0,1,1.9-.23,8,8,0,0,1,2.4.37A9.07,9.07,0,0,1,947,89a5.48,5.48,0,0,1,1.66,1.79,4.76,4.76,0,0,1,.64,2.44,3.81,3.81,0,0,1-.66,2.09A4.26,4.26,0,0,1,947,96.81a6.24,6.24,0,0,1,2,1.88,4.62,4.62,0,0,1,.83,2.71,5.56,5.56,0,0,1-1,3.29,6.49,6.49,0,0,1-2.71,2.21A9,9,0,0,1,942.37,107.66Zm0-9a3.06,3.06,0,0,0-2,.69,2.23,2.23,0,0,0-.82,1.8,2.17,2.17,0,0,0,.86,1.76,3.07,3.07,0,0,0,2,.7,2.94,2.94,0,0,0,2-.72,2.22,2.22,0,0,0,.84-1.77,2.16,2.16,0,0,0-.84-1.79A3.1,3.1,0,0,0,942.37,98.65Zm0-3.36a2.53,2.53,0,0,0,1.58-.53,1.69,1.69,0,0,0,.69-1.43A1.62,1.62,0,0,0,944,92a2.46,2.46,0,0,0-1.61-.53,2.43,2.43,0,0,0-1.6.53,1.63,1.63,0,0,0-.65,1.31,1.7,1.7,0,0,0,.69,1.44A2.51,2.51,0,0,0,942.37,95.29Z"/><path class="cls-1" d="M953.28,91.57a4,4,0,0,1,1.42-3,5.33,5.33,0,0,1,6.91,0,4,4,0,0,1,0,6.12,5.37,5.37,0,0,1-6.91,0A4,4,0,0,1,953.28,91.57Zm2,14.27,8-9.06,7.3-9.5,2,1.8-7.78,8.85-7.58,9.73Zm4.12-12.74a2.44,2.44,0,0,0,.5-1.53,2.37,2.37,0,0,0-.5-1.51,1.49,1.49,0,0,0-2.43,0,2.4,2.4,0,0,0-.5,1.5,2.44,2.44,0,0,0,.5,1.53,1.49,1.49,0,0,0,2.43,0Zm5.48,10.28a4,4,0,0,1,1.42-3.07,5.37,5.37,0,0,1,6.91,0,4,4,0,0,1,1.42,3.07,3.91,3.91,0,0,1-1.42,3.05,5.37,5.37,0,0,1-6.91,0A3.91,3.91,0,0,1,964.85,103.38Zm6.61,0a2.29,2.29,0,0,0-.52-1.51,1.53,1.53,0,0,0-1.22-.65,1.51,1.51,0,0,0-1.21.64,2.34,2.34,0,0,0-.5,1.52,2.27,2.27,0,0,0,.5,1.51,1.5,1.5,0,0,0,1.21.63,1.54,1.54,0,0,0,1.22-.64A2.26,2.26,0,0,0,971.46,103.38Z"/><path class="cls-1" d="M313.61,406.45h2.52l4.69,12.78h-2.55l-1.19-3.18h-4.47l-1.16,3.18h-2.56Zm3,7.85L314.86,409,313,414.3Z"/><path class="cls-1" d="M321.59,414.51a5.61,5.61,0,0,1,.54-2.46,4.3,4.3,0,0,1,1.5-1.76,3.81,3.81,0,0,1,2.18-.66,3.59,3.59,0,0,1,1.85.5,3.74,3.74,0,0,1,1.33,1.32v-5.36h2.42v10.44a.93.93,0,0,0,.12.55.58.58,0,0,0,.43.19v2a5.75,5.75,0,0,1-1,.13,1.68,1.68,0,0,1-1.06-.33,1.11,1.11,0,0,1-.48-.84l0-.59a3.47,3.47,0,0,1-1.4,1.34,4,4,0,0,1-1.88.47,4.28,4.28,0,0,1-2.31-.65,4.56,4.56,0,0,1-1.6-1.77A5.39,5.39,0,0,1,321.59,414.51Zm7.4,1.27v-2.25a2.91,2.91,0,0,0-1-1.31,2.35,2.35,0,0,0-1.43-.53,2.2,2.2,0,0,0-1.76.86,3.07,3.07,0,0,0-.7,2,2.81,2.81,0,0,0,.74,2,2.47,2.47,0,0,0,3.24.35A2.25,2.25,0,0,0,329,415.78Z"/><path class="cls-1" d="M341.1,417.6v1.63H339V406.09h2.41v5.36a3.59,3.59,0,0,1,1.34-1.34,3.7,3.7,0,0,1,1.9-.48,3.64,3.64,0,0,1,2.15.68,4.4,4.4,0,0,1,1.46,1.8,5.84,5.84,0,0,1,.51,2.45,5.29,5.29,0,0,1-.57,2.45,4.44,4.44,0,0,1-1.59,1.76,4.16,4.16,0,0,1-2.25.64,3.79,3.79,0,0,1-1.91-.48A3.49,3.49,0,0,1,341.1,417.6Zm5.19-3a3.09,3.09,0,0,0-.7-2,2.24,2.24,0,0,0-3.19-.33,3.46,3.46,0,0,0-1,1.32v2.25a2.21,2.21,0,0,0,.9,1.14,2.53,2.53,0,0,0,1.38.44,2.41,2.41,0,0,0,1.87-.81A2.8,2.8,0,0,0,346.29,414.57Z"/><path class="cls-1" d="M350.83,406.09h2.41v10.12a1.34,1.34,0,0,0,.2.86.73.73,0,0,0,.6.24,2.71,2.71,0,0,0,1.14-.26l.32,1.84a5,5,0,0,1-1.11.35,5.84,5.84,0,0,1-1.19.13,2.43,2.43,0,0,1-1.75-.6,2.32,2.32,0,0,1-.62-1.72Z"/><path class="cls-1" d="M356.4,414.53a5.09,5.09,0,0,1,.35-1.87,5,5,0,0,1,1-1.56A4.42,4.42,0,0,1,359.3,410a5.33,5.33,0,0,1,2.06-.4,5,5,0,0,1,2.62.69,4.48,4.48,0,0,1,1.73,1.78,5.13,5.13,0,0,1,.58,2.43,5.07,5.07,0,0,1-.34,1.86,4.68,4.68,0,0,1-1,1.55,4.29,4.29,0,0,1-1.56,1.07,5.12,5.12,0,0,1-2.06.4,5.55,5.55,0,0,1-1.7-.26,4.53,4.53,0,0,1-1.38-.72,4.94,4.94,0,0,1-1-1.07,4.54,4.54,0,0,1-.64-1.33A5,5,0,0,1,356.4,414.53Zm5,2.83a2.22,2.22,0,0,0,1.75-.81,3,3,0,0,0,.71-2,3,3,0,0,0-.71-2,2.32,2.32,0,0,0-3.51,0,3,3,0,0,0-.71,2,3,3,0,0,0,.71,2A2.26,2.26,0,0,0,361.36,417.36Z"/><path class="cls-1" d="M372.75,419.41a5.36,5.36,0,0,1-2.06-.4,4.78,4.78,0,0,1-1.59-1.07,4.85,4.85,0,0,1-1-1.56,5,5,0,0,1-.36-1.87,5.07,5.07,0,0,1,.59-2.42,4.57,4.57,0,0,1,1.74-1.78,5.14,5.14,0,0,1,2.64-.68,5,5,0,0,1,2.61.66,4.2,4.2,0,0,1,1.66,1.76l-2.36.72a2.12,2.12,0,0,0-.81-.79,2.24,2.24,0,0,0-1.11-.29,2.31,2.31,0,0,0-1.77.79,3.27,3.27,0,0,0,0,4.07,2.25,2.25,0,0,0,1.75.81,2.39,2.39,0,0,0,1.19-.32,1.79,1.79,0,0,0,.77-.8L377,417a3.93,3.93,0,0,1-1.63,1.78A5.19,5.19,0,0,1,372.75,419.41Z"/><path class="cls-1" d="M385.4,419.23l-2.75-4.07-1.28,1.27v2.8H379V406.09h2.41v8l3.79-4.23h2.56l-3.51,4,3.77,5.41Z"/><path class="cls-1" d="M389.45,408.48v-2.39h2.4v2.39Zm0,10.75V409.8h2.4v9.43Z"/><path class="cls-1" d="M403.25,419.23h-2.41v-5.29c0-1.45-.5-2.18-1.5-2.18a2.39,2.39,0,0,0-1.46.56,2.92,2.92,0,0,0-1,1.4v5.51h-2.41V409.8h2.18v1.75a3.61,3.61,0,0,1,1.53-1.41,4.78,4.78,0,0,1,2.22-.51,3.21,3.21,0,0,1,1.2.22,2.25,2.25,0,0,1,.82.56,2.88,2.88,0,0,1,.5.84,4.72,4.72,0,0,1,.25,1,9.08,9.08,0,0,1,.07,1.09Z"/><path class="cls-1" d="M405.23,414.51a5.43,5.43,0,0,1,.56-2.46,4.37,4.37,0,0,1,1.56-1.76,4.08,4.08,0,0,1,2.28-.66,3.76,3.76,0,0,1,1.9.49,4.2,4.2,0,0,1,1.39,1.33V409.8H415v9a4.16,4.16,0,0,1-.68,2.39,4.23,4.23,0,0,1-1.86,1.55,6.59,6.59,0,0,1-2.69.53,6.06,6.06,0,0,1-2.56-.5,5.46,5.46,0,0,1-1.86-1.47l1.31-1.27a4,4,0,0,0,1.37,1,4.16,4.16,0,0,0,1.74.38,3.49,3.49,0,0,0,1.08-.16,2.62,2.62,0,0,0,.89-.47,2,2,0,0,0,.62-.83,3,3,0,0,0,.23-1.19V417.6a3.2,3.2,0,0,1-1.31,1.24,4,4,0,0,1-4-.21,4.19,4.19,0,0,1-1.51-1.74A5.27,5.27,0,0,1,405.23,414.51Zm7.39,1.27v-2.25a2.91,2.91,0,0,0-1-1.33,2.4,2.4,0,0,0-1.45-.51,2.16,2.16,0,0,0-1.77.87,3.14,3.14,0,0,0-.69,2,2.77,2.77,0,0,0,.75,2,2.44,2.44,0,0,0,1.85.8,2.35,2.35,0,0,0,1.41-.46A2.51,2.51,0,0,0,412.62,415.78Z"/><path class="cls-1" d="M885.92,419.42h-6.17V406.64h6.84a2.55,2.55,0,0,1,1.54.49,3,3,0,0,1,1,1.22,3.58,3.58,0,0,1,.34,1.55,3.41,3.41,0,0,1-.48,1.77,2.81,2.81,0,0,1-1.35,1.2,3.34,3.34,0,0,1,1.74,1.17,3.4,3.4,0,0,1,.63,2.08,2.93,2.93,0,0,1-.57,1.8,3.38,3.38,0,0,1-1.49,1.13A5.6,5.6,0,0,1,885.92,419.42Zm-3.69-10.66V412h3.31a1.47,1.47,0,0,0,1.08-.44,1.59,1.59,0,0,0,.43-1.18,1.65,1.65,0,0,0-.4-1.16,1.31,1.31,0,0,0-1-.44Zm3.81,5.18h-3.81v3.37h3.69a1.53,1.53,0,0,0,1.14-.49,1.58,1.58,0,0,0,.47-1.16,1.78,1.78,0,0,0-.43-1.21A1.34,1.34,0,0,0,886,413.94Z"/><path class="cls-1" d="M897.81,412.07a4.58,4.58,0,0,0-2,.44,2.56,2.56,0,0,0-1.23,1.2v5.71h-2.41V410h2.22v2a4.3,4.3,0,0,1,1.28-1.53,3,3,0,0,1,1.64-.61,4.06,4.06,0,0,1,.48,0Z"/><path class="cls-1" d="M898.9,416.63a2.67,2.67,0,0,1,1.13-2.22,4.75,4.75,0,0,1,2.92-.85,6,6,0,0,1,2.27.38v-.5a1.8,1.8,0,0,0-.53-1.39,2.28,2.28,0,0,0-1.58-.48,3.91,3.91,0,0,0-1.44.26,7.4,7.4,0,0,0-1.5.8l-.78-1.58a7.17,7.17,0,0,1,4-1.23,4.56,4.56,0,0,1,3.14,1,3.66,3.66,0,0,1,1.12,2.88v3a.87.87,0,0,0,.13.55.63.63,0,0,0,.45.19v2a5.43,5.43,0,0,1-1,.12,1.73,1.73,0,0,1-1.08-.3,1.34,1.34,0,0,1-.47-.82l0-.48a4.13,4.13,0,0,1-1.52,1.22,4.37,4.37,0,0,1-1.88.43,3.38,3.38,0,0,1-2.35-.84A2.74,2.74,0,0,1,898.9,416.63Zm5.87.48a1.22,1.22,0,0,0,.45-.82v-1a4.94,4.94,0,0,0-1.89-.38,2.73,2.73,0,0,0-1.55.41,1.25,1.25,0,0,0-.59,1.07,1.31,1.31,0,0,0,.45,1,1.76,1.76,0,0,0,1.23.41,3,3,0,0,0,1-.19A2.51,2.51,0,0,0,904.77,417.11Z"/><path class="cls-1" d="M919.09,419.42h-2.41v-5.29c0-1.46-.49-2.18-1.49-2.18a2.34,2.34,0,0,0-1.47.56,2.75,2.75,0,0,0-1,1.4v5.51h-2.41V410h2.18v1.75a3.64,3.64,0,0,1,1.52-1.41,4.83,4.83,0,0,1,2.22-.51,3.14,3.14,0,0,1,1.2.21,2.2,2.2,0,0,1,.82.56,2.45,2.45,0,0,1,.5.85,4.53,4.53,0,0,1,.26,1,9.36,9.36,0,0,1,.06,1.1Z"/><path class="cls-1" d="M921.06,414.7a5.55,5.55,0,0,1,.54-2.46,4.29,4.29,0,0,1,1.51-1.77,3.82,3.82,0,0,1,2.17-.65,3.47,3.47,0,0,1,1.85.5,3.66,3.66,0,0,1,1.33,1.32v-5.36h2.42v10.44a1,1,0,0,0,.12.55.6.6,0,0,0,.43.19v2a5.52,5.52,0,0,1-1,.12,1.74,1.74,0,0,1-1.07-.32,1.13,1.13,0,0,1-.48-.85l0-.59a3.45,3.45,0,0,1-1.39,1.34,3.91,3.91,0,0,1-1.88.47,4.21,4.21,0,0,1-2.32-.65,4.5,4.5,0,0,1-1.6-1.77A5.38,5.38,0,0,1,921.06,414.7Zm7.4,1.26v-2.25a3,3,0,0,0-1-1.31,2.38,2.38,0,0,0-1.43-.52,2.2,2.2,0,0,0-1.77.85,3.09,3.09,0,0,0-.7,2,2.8,2.8,0,0,0,.74,2,2.47,2.47,0,0,0,3.24.35A2.2,2.2,0,0,0,928.46,416Z"/><path class="cls-1" d="M941.93,419.59a6.66,6.66,0,0,1-2.32-.4,5.33,5.33,0,0,1-1.87-1.16l.86-1.57a5.33,5.33,0,0,0,3.24,1.34,2.15,2.15,0,0,0,1.13-.26.82.82,0,0,0,.42-.75,1.25,1.25,0,0,0,0-.21.56.56,0,0,0-.09-.17,1,1,0,0,0-.12-.15.59.59,0,0,0-.18-.13l-.22-.1-.28-.11-.31-.09-.36-.11-.4-.12c-.46-.14-.84-.28-1.14-.39a7.58,7.58,0,0,1-.86-.42,2.18,2.18,0,0,1-.65-.5,2,2,0,0,1-.37-.62,2.37,2.37,0,0,1-.13-.83,2.69,2.69,0,0,1,1-2.21,4.38,4.38,0,0,1,2.78-.83,5,5,0,0,1,3.54,1.34l-1,1.53a4.47,4.47,0,0,0-2.68-1.08,2.21,2.21,0,0,0-1.05.22.81.81,0,0,0-.41.75.75.75,0,0,0,.37.69,5.69,5.69,0,0,0,1.34.5c.52.15.94.28,1.24.39a7.57,7.57,0,0,1,.95.41,2.44,2.44,0,0,1,.73.51,2,2,0,0,1,.41.66,2.21,2.21,0,0,1,.16.89,2.62,2.62,0,0,1-1,2.19A4.39,4.39,0,0,1,941.93,419.59Z"/><path class="cls-1" d="M947.15,416.63a2.66,2.66,0,0,1,1.12-2.22,4.78,4.78,0,0,1,2.93-.85,6,6,0,0,1,2.26.38v-.5a1.77,1.77,0,0,0-.53-1.39,2.28,2.28,0,0,0-1.58-.48,3.91,3.91,0,0,0-1.44.26,8,8,0,0,0-1.5.8l-.78-1.58a7.19,7.19,0,0,1,4-1.23,4.52,4.52,0,0,1,3.14,1,3.66,3.66,0,0,1,1.12,2.88v3a.94.94,0,0,0,.13.55.63.63,0,0,0,.45.19v2a5.34,5.34,0,0,1-1,.12,1.68,1.68,0,0,1-1.07-.3,1.29,1.29,0,0,1-.47-.82l-.06-.48a4.13,4.13,0,0,1-1.52,1.22,4.34,4.34,0,0,1-1.88.43,3.36,3.36,0,0,1-2.34-.84A2.74,2.74,0,0,1,947.15,416.63Zm5.87.48a1.24,1.24,0,0,0,.44-.82v-1a4.94,4.94,0,0,0-1.89-.38,2.69,2.69,0,0,0-1.54.41,1.24,1.24,0,0,0-.6,1.07,1.29,1.29,0,0,0,.46,1,1.72,1.72,0,0,0,1.22.41,2.91,2.91,0,0,0,1-.19A2.55,2.55,0,0,0,953,417.11Z"/><path class="cls-1" d="M959.11,419.42v-7.1h-1.24v-1.83h1.24v-.57a4.25,4.25,0,0,1,.86-2.79,2.82,2.82,0,0,1,2.29-1,5.25,5.25,0,0,1,2.32.57l-.48,1.81a2.76,2.76,0,0,0-1.32-.34,1.1,1.1,0,0,0-.93.43,2.06,2.06,0,0,0-.32,1.26v.67h2.3v1.83h-2.3v7.1Z"/><path class="cls-1" d="M969.9,419.59a5.07,5.07,0,0,1-2.63-.67,4.48,4.48,0,0,1-1.75-1.76,4.91,4.91,0,0,1-.6-2.4,5.16,5.16,0,0,1,.6-2.47,4.56,4.56,0,0,1,1.75-1.79,5,5,0,0,1,2.64-.68,5.29,5.29,0,0,1,2.06.39,4.42,4.42,0,0,1,1.56,1.07,5,5,0,0,1,1,1.55,5.12,5.12,0,0,1,.34,1.83,4.32,4.32,0,0,1-.06.81h-7.29a2.48,2.48,0,0,0,.81,1.72,2.44,2.44,0,0,0,1.69.64,2.74,2.74,0,0,0,1.37-.35,1.94,1.94,0,0,0,.87-.93l2.06.58a4.15,4.15,0,0,1-1.69,1.79A5.29,5.29,0,0,1,969.9,419.59Zm-2.47-5.65h4.93a2.65,2.65,0,0,0-.8-1.72,2.37,2.37,0,0,0-1.68-.65,2.33,2.33,0,0,0-1.67.66A2.49,2.49,0,0,0,967.43,413.94Z"/><path class="cls-1" d="M982.31,418.93a6.59,6.59,0,0,1-2.67.65,3.21,3.21,0,0,1-.95-.14,2.27,2.27,0,0,1-.77-.4,1.7,1.7,0,0,1-.53-.72,2.72,2.72,0,0,1-.2-1.07v-5.41H976V410h1.24v-3.06h2.42V410h2v1.85h-2v4.61c0,.61.32.92.9.92a3.71,3.71,0,0,0,1.31-.34Z"/><path class="cls-1" d="M984.17,421.25a4.59,4.59,0,0,0,1.08.18,1,1,0,0,0,.8-.41,6.09,6.09,0,0,0,.66-1.6L983,410h2.5l2.54,7,2.23-7h2.31l-4,11.3a3.28,3.28,0,0,1-1.18,1.63,3.39,3.39,0,0,1-2,.62,4,4,0,0,1-1.22-.2Z"/><path class="cls-1" d="M519.11,406.64h2.52l4.69,12.78h-2.55l-1.19-3.18h-4.47L517,419.42h-2.56Zm3,7.85-1.77-5.28-1.83,5.28Z"/><path class="cls-1" d="M527.09,414.7a5.55,5.55,0,0,1,.54-2.46,4.27,4.27,0,0,1,1.5-1.77,3.88,3.88,0,0,1,2.18-.65,3.59,3.59,0,0,1,1.85.5,3.74,3.74,0,0,1,1.33,1.32v-5.36h2.42v10.44a1,1,0,0,0,.12.55.58.58,0,0,0,.43.19v2a5.61,5.61,0,0,1-1,.12,1.79,1.79,0,0,1-1.07-.32,1.15,1.15,0,0,1-.47-.85l0-.59a3.41,3.41,0,0,1-1.4,1.34,3.88,3.88,0,0,1-1.88.47,4.2,4.2,0,0,1-2.31-.65,4.42,4.42,0,0,1-1.6-1.77A5.38,5.38,0,0,1,527.09,414.7Zm7.4,1.26v-2.25a2.91,2.91,0,0,0-1-1.31,2.33,2.33,0,0,0-1.43-.52,2.19,2.19,0,0,0-1.76.85,3.09,3.09,0,0,0-.7,2,2.8,2.8,0,0,0,.74,2,2.42,2.42,0,0,0,1.87.8,2.46,2.46,0,0,0,1.37-.45A2.25,2.25,0,0,0,534.49,416Z"/><path class="cls-1" d="M545.06,419.42v-7.1h-1.24v-1.83h1.24v-.57a4.19,4.19,0,0,1,.86-2.79,2.82,2.82,0,0,1,2.29-1,5.25,5.25,0,0,1,2.32.57l-.48,1.81a2.76,2.76,0,0,0-1.32-.34,1.1,1.1,0,0,0-.93.43,2.06,2.06,0,0,0-.32,1.26v.67h2.3v1.83h-2.3v7.1Z"/><path class="cls-1" d="M557.21,412.07a4.66,4.66,0,0,0-2,.44,2.5,2.5,0,0,0-1.22,1.2v5.71h-2.41V410h2.22v2a4.38,4.38,0,0,1,1.27-1.53,3,3,0,0,1,1.64-.61,4.14,4.14,0,0,1,.49,0Z"/><path class="cls-1" d="M558.3,416.63a2.66,2.66,0,0,1,1.12-2.22,4.78,4.78,0,0,1,2.93-.85,6,6,0,0,1,2.27.38v-.5a1.8,1.8,0,0,0-.53-1.39,2.3,2.3,0,0,0-1.58-.48,4,4,0,0,0-1.44.26,7.72,7.72,0,0,0-1.51.8l-.78-1.58a7.19,7.19,0,0,1,4-1.23,4.52,4.52,0,0,1,3.14,1,3.66,3.66,0,0,1,1.13,2.88v3a.87.87,0,0,0,.13.55.63.63,0,0,0,.45.19v2a5.52,5.52,0,0,1-1,.12,1.71,1.71,0,0,1-1.08-.3,1.34,1.34,0,0,1-.47-.82l0-.48a4.25,4.25,0,0,1-1.53,1.22,4.29,4.29,0,0,1-1.87.43,3.37,3.37,0,0,1-2.35-.84A2.74,2.74,0,0,1,558.3,416.63Zm5.87.48a1.22,1.22,0,0,0,.45-.82v-1a5,5,0,0,0-1.89-.38,2.73,2.73,0,0,0-1.55.41,1.24,1.24,0,0,0-.6,1.07,1.32,1.32,0,0,0,.46,1,1.73,1.73,0,0,0,1.22.41,2.91,2.91,0,0,0,1-.19A2.72,2.72,0,0,0,564.17,417.11Z"/><path class="cls-1" d="M569.64,415.89V410h2.41v5.38c0,1.45.52,2.17,1.56,2.17a2.42,2.42,0,0,0,1.38-.43,3.23,3.23,0,0,0,1.06-1.28V410h2.4v6.73a.87.87,0,0,0,.14.55.59.59,0,0,0,.44.19v2a5.77,5.77,0,0,1-1,.1,1.8,1.8,0,0,1-1.06-.29,1.14,1.14,0,0,1-.47-.82l-.05-.76a4.14,4.14,0,0,1-1.61,1.45,4.82,4.82,0,0,1-2.19.49,2.69,2.69,0,0,1-2.22-.94A4.33,4.33,0,0,1,569.64,415.89Z"/><path class="cls-1" d="M580.71,414.7a5.55,5.55,0,0,1,.54-2.46,4.29,4.29,0,0,1,1.51-1.77,3.82,3.82,0,0,1,2.17-.65,3.56,3.56,0,0,1,1.85.5,3.66,3.66,0,0,1,1.33,1.32v-5.36h2.42v10.44a1,1,0,0,0,.12.55.61.61,0,0,0,.44.19v2a5.71,5.71,0,0,1-1,.12,1.74,1.74,0,0,1-1.07-.32,1.16,1.16,0,0,1-.48-.85l0-.59a3.47,3.47,0,0,1-1.4,1.34,3.88,3.88,0,0,1-1.88.47,4.15,4.15,0,0,1-2.31-.65,4.35,4.35,0,0,1-1.6-1.77A5.26,5.26,0,0,1,580.71,414.7Zm7.4,1.26v-2.25a2.89,2.89,0,0,0-1-1.31,2.36,2.36,0,0,0-1.43-.52,2.2,2.2,0,0,0-1.77.85,3.09,3.09,0,0,0-.7,2,2.84,2.84,0,0,0,.74,2,2.43,2.43,0,0,0,1.87.8,2.46,2.46,0,0,0,1.38-.45A2.23,2.23,0,0,0,588.11,416Z"/><path class="cls-2" d="M1181.77,335.58H1.38a1.38,1.38,0,1,1,0-2.76H1181.77a1.38,1.38,0,1,1,0,2.76Z"/><path class="cls-3" d="M23.5,337a2.72,2.72,0,0,1-1.31-.34,2.77,2.77,0,0,1-1.12-3.75L162.83,71A2.76,2.76,0,0,1,166,69.62l994.39,261.22a2.77,2.77,0,0,1-1.4,5.35L166.66,75.53l-140.72,260A2.77,2.77,0,0,1,23.5,337Z"/><path class="cls-4" d="M23.51,337a2.76,2.76,0,0,1-1.59-5L358.12,96.19a2.77,2.77,0,0,1,2.37-.38l799.94,235.05a2.77,2.77,0,0,1-1.56,5.31L360.21,101.49l-335.12,235A2.73,2.73,0,0,1,23.51,337Z"/><path class="cls-5" d="M23.51,337a2.77,2.77,0,0,1-1-5.34L550.12,123a2.79,2.79,0,0,1,1.91,0l608.51,208a2.76,2.76,0,1,1-1.79,5.23L551.2,128.49,24.52,336.77A2.75,2.75,0,0,1,23.51,337Z"/><path class="cls-1" d="M23.5,337a2.77,2.77,0,0,1-.77-5.42l717-208.66a2.72,2.72,0,0,1,2,.18l419.12,208a2.76,2.76,0,1,1-2.46,4.95L740.27,128.5l-716,208.36A3,3,0,0,1,23.5,337Z"/><path class="cls-6" d="M23.5,337a2.77,2.77,0,0,1-.52-5.49L931.92,156.7a2.74,2.74,0,0,1,2.2.52l227.21,174.1a2.76,2.76,0,0,1-3.36,4.39L931.75,162.37,24,336.92A3.17,3.17,0,0,1,23.5,337Z"/><path class="cls-2" d="M932.44,326.63a1.38,1.38,0,0,1-1.38-1.38v-6.64a1.39,1.39,0,0,1,2.77,0v6.64A1.38,1.38,0,0,1,932.44,326.63Zm0-19.91a1.38,1.38,0,0,1-1.38-1.38V298.7a1.39,1.39,0,0,1,2.77,0v6.64A1.38,1.38,0,0,1,932.44,306.72Zm0-19.91a1.38,1.38,0,0,1-1.38-1.38v-6.64a1.39,1.39,0,0,1,2.77,0v6.64A1.38,1.38,0,0,1,932.44,286.81Zm0-19.91a1.38,1.38,0,0,1-1.38-1.38v-6.64a1.39,1.39,0,0,1,2.77,0v6.64A1.38,1.38,0,0,1,932.44,266.9Zm0-19.91a1.38,1.38,0,0,1-1.38-1.38V239a1.39,1.39,0,0,1,2.77,0v6.64A1.38,1.38,0,0,1,932.44,247Zm0-19.91a1.38,1.38,0,0,1-1.38-1.38v-6.64a1.39,1.39,0,0,1,2.77,0v6.64A1.38,1.38,0,0,1,932.44,227.08Zm0-19.91a1.38,1.38,0,0,1-1.38-1.38v-6.64a1.39,1.39,0,0,1,2.77,0v6.64A1.38,1.38,0,0,1,932.44,207.17Zm0-19.91a1.38,1.38,0,0,1-1.38-1.38v-6.64a1.39,1.39,0,0,1,2.77,0v6.64A1.38,1.38,0,0,1,932.44,187.26Zm0-19.91a1.38,1.38,0,0,1-1.38-1.39v-6.63a1.39,1.39,0,1,1,2.77,0V166A1.39,1.39,0,0,1,932.44,167.35Zm0-19.91a1.38,1.38,0,0,1-1.38-1.39v-6.63a1.39,1.39,0,1,1,2.77,0v6.63A1.39,1.39,0,0,1,932.44,147.44Z"/><path class="cls-2" d="M740.77,332.58a1.38,1.38,0,0,1-1.38-1.39v-6.63a1.38,1.38,0,0,1,2.76,0v6.63A1.38,1.38,0,0,1,740.77,332.58Zm0-19.91a1.38,1.38,0,0,1-1.38-1.39v-6.63a1.38,1.38,0,0,1,2.76,0v6.63A1.38,1.38,0,0,1,740.77,312.67Zm0-19.91a1.38,1.38,0,0,1-1.38-1.39v-6.63a1.38,1.38,0,1,1,2.76,0v6.63A1.38,1.38,0,0,1,740.77,292.76Zm0-19.91a1.38,1.38,0,0,1-1.38-1.39v-6.63a1.38,1.38,0,1,1,2.76,0v6.63A1.38,1.38,0,0,1,740.77,272.85Zm0-19.91a1.38,1.38,0,0,1-1.38-1.39v-6.63a1.38,1.38,0,1,1,2.76,0v6.63A1.38,1.38,0,0,1,740.77,252.94Zm0-19.91a1.38,1.38,0,0,1-1.38-1.39V225a1.38,1.38,0,1,1,2.76,0v6.63A1.38,1.38,0,0,1,740.77,233Zm0-19.92a1.38,1.38,0,0,1-1.38-1.38V205.1a1.38,1.38,0,1,1,2.76,0v6.63A1.38,1.38,0,0,1,740.77,213.11Zm0-19.91a1.38,1.38,0,0,1-1.38-1.38v-6.64a1.38,1.38,0,0,1,2.76,0v6.64A1.38,1.38,0,0,1,740.77,193.2Zm0-19.91a1.38,1.38,0,0,1-1.38-1.38v-6.64a1.38,1.38,0,1,1,2.76,0v6.64A1.38,1.38,0,0,1,740.77,173.29Zm0-19.91a1.38,1.38,0,0,1-1.38-1.38v-6.64a1.38,1.38,0,0,1,2.76,0V152A1.38,1.38,0,0,1,740.77,153.38Zm0-19.91a1.38,1.38,0,0,1-1.38-1.38v-6.64a1.38,1.38,0,0,1,2.76,0v6.64A1.38,1.38,0,0,1,740.77,133.47Zm0-19.91a1.38,1.38,0,0,1-1.38-1.38v-6.64a1.38,1.38,0,0,1,2.76,0v6.64A1.38,1.38,0,0,1,740.77,113.56Z"/><path class="cls-2" d="M551.13,332.58a1.38,1.38,0,0,1-1.38-1.38v-6.64a1.39,1.39,0,0,1,2.77,0v6.64A1.38,1.38,0,0,1,551.13,332.58Zm0-19.91a1.38,1.38,0,0,1-1.38-1.38v-6.64a1.39,1.39,0,0,1,2.77,0v6.64A1.38,1.38,0,0,1,551.13,312.67Zm0-19.91a1.38,1.38,0,0,1-1.38-1.38v-6.64a1.39,1.39,0,0,1,2.77,0v6.64A1.38,1.38,0,0,1,551.13,292.76Zm0-19.91a1.38,1.38,0,0,1-1.38-1.38v-6.64a1.39,1.39,0,0,1,2.77,0v6.64A1.38,1.38,0,0,1,551.13,272.85Zm0-19.91a1.38,1.38,0,0,1-1.38-1.38v-6.64a1.39,1.39,0,0,1,2.77,0v6.64A1.38,1.38,0,0,1,551.13,252.94Zm0-19.91a1.38,1.38,0,0,1-1.38-1.38V225a1.39,1.39,0,0,1,2.77,0v6.64A1.38,1.38,0,0,1,551.13,233Zm0-19.91a1.38,1.38,0,0,1-1.38-1.38V205.1a1.39,1.39,0,0,1,2.77,0v6.64A1.38,1.38,0,0,1,551.13,213.12Zm0-19.91a1.38,1.38,0,0,1-1.38-1.39v-6.63a1.39,1.39,0,0,1,2.77,0v6.63A1.39,1.39,0,0,1,551.13,193.21Zm0-19.91a1.38,1.38,0,0,1-1.38-1.39v-6.63a1.39,1.39,0,1,1,2.77,0v6.63A1.39,1.39,0,0,1,551.13,173.3Zm0-19.91a1.38,1.38,0,0,1-1.38-1.39v-6.63a1.39,1.39,0,1,1,2.77,0V152A1.39,1.39,0,0,1,551.13,153.39Zm0-19.91a1.38,1.38,0,0,1-1.38-1.39v-6.63a1.39,1.39,0,1,1,2.77,0v6.63A1.39,1.39,0,0,1,551.13,133.48Zm0-19.91a1.38,1.38,0,0,1-1.38-1.39v-6.63a1.39,1.39,0,1,1,2.77,0v6.63A1.39,1.39,0,0,1,551.13,113.57Z"/><path class="cls-2" d="M359.71,325.4a1.38,1.38,0,0,1-1.38-1.38v-6.63a1.38,1.38,0,1,1,2.76,0V324A1.38,1.38,0,0,1,359.71,325.4Zm0-19.91a1.38,1.38,0,0,1-1.38-1.38v-6.64a1.38,1.38,0,1,1,2.76,0v6.64A1.38,1.38,0,0,1,359.71,305.49Zm0-19.91a1.38,1.38,0,0,1-1.38-1.38v-6.64a1.38,1.38,0,0,1,2.76,0v6.64A1.38,1.38,0,0,1,359.71,285.58Zm0-19.91a1.38,1.38,0,0,1-1.38-1.38v-6.64a1.38,1.38,0,0,1,2.76,0v6.64A1.38,1.38,0,0,1,359.71,265.67Zm0-19.91a1.38,1.38,0,0,1-1.38-1.38v-6.64a1.38,1.38,0,0,1,2.76,0v6.64A1.38,1.38,0,0,1,359.71,245.76Zm0-19.91a1.38,1.38,0,0,1-1.38-1.38v-6.64a1.38,1.38,0,1,1,2.76,0v6.64A1.38,1.38,0,0,1,359.71,225.85Zm0-19.91a1.38,1.38,0,0,1-1.38-1.38v-6.64a1.38,1.38,0,0,1,2.76,0v6.64A1.38,1.38,0,0,1,359.71,205.94Zm0-19.91a1.38,1.38,0,0,1-1.38-1.38V178a1.38,1.38,0,0,1,2.76,0v6.64A1.38,1.38,0,0,1,359.71,186Zm0-19.91a1.38,1.38,0,0,1-1.38-1.38V158.1a1.38,1.38,0,1,1,2.76,0v6.64A1.38,1.38,0,0,1,359.71,166.12Zm0-19.91a1.38,1.38,0,0,1-1.38-1.38v-6.64a1.38,1.38,0,0,1,2.76,0v6.64A1.38,1.38,0,0,1,359.71,146.21Zm0-19.91a1.38,1.38,0,0,1-1.38-1.38v-6.64a1.38,1.38,0,0,1,2.76,0v6.64A1.38,1.38,0,0,1,359.71,126.3Zm0-19.91a1.38,1.38,0,0,1-1.38-1.38V98.37a1.38,1.38,0,0,1,2.76,0V105A1.38,1.38,0,0,1,359.71,106.39Zm0-19.91a1.38,1.38,0,0,1-1.38-1.38V78.46a1.38,1.38,0,1,1,2.76,0V85.1A1.38,1.38,0,0,1,359.71,86.48Z"/><path class="cls-2" d="M164.82,335.58a1.38,1.38,0,0,1-1.39-1.38v-3.15a1.39,1.39,0,1,1,2.77,0v3.15A1.38,1.38,0,0,1,164.82,335.58Zm0-16.42a1.39,1.39,0,0,1-1.39-1.39v-6.63a1.39,1.39,0,1,1,2.77,0v6.63A1.38,1.38,0,0,1,164.82,319.16Zm0-19.91a1.39,1.39,0,0,1-1.39-1.39v-6.63a1.39,1.39,0,1,1,2.77,0v6.63A1.38,1.38,0,0,1,164.82,299.25Zm0-19.92a1.38,1.38,0,0,1-1.39-1.38v-6.64a1.39,1.39,0,0,1,2.77,0V278A1.38,1.38,0,0,1,164.82,279.33Zm0-19.91a1.38,1.38,0,0,1-1.39-1.38V251.4a1.39,1.39,0,0,1,2.77,0V258A1.38,1.38,0,0,1,164.82,259.42Zm0-19.91a1.38,1.38,0,0,1-1.39-1.38v-6.64a1.39,1.39,0,0,1,2.77,0v6.64A1.38,1.38,0,0,1,164.82,239.51Zm0-19.91a1.38,1.38,0,0,1-1.39-1.38v-6.64a1.39,1.39,0,0,1,2.77,0v6.64A1.38,1.38,0,0,1,164.82,219.6Zm0-19.91a1.38,1.38,0,0,1-1.39-1.38v-6.64a1.39,1.39,0,0,1,2.77,0v6.64A1.38,1.38,0,0,1,164.82,199.69Zm0-19.91a1.38,1.38,0,0,1-1.39-1.38v-6.64a1.39,1.39,0,0,1,2.77,0v6.64A1.38,1.38,0,0,1,164.82,179.78Zm0-19.91a1.38,1.38,0,0,1-1.39-1.38v-6.64a1.39,1.39,0,0,1,2.77,0v6.64A1.38,1.38,0,0,1,164.82,159.87Zm0-19.91a1.38,1.38,0,0,1-1.39-1.38v-6.64a1.39,1.39,0,0,1,2.77,0v6.64A1.38,1.38,0,0,1,164.82,140Zm0-19.91a1.38,1.38,0,0,1-1.39-1.38V112a1.39,1.39,0,0,1,2.77,0v6.64A1.38,1.38,0,0,1,164.82,120.05Zm0-19.91a1.38,1.38,0,0,1-1.39-1.38V92.12a1.39,1.39,0,0,1,2.77,0v6.64A1.38,1.38,0,0,1,164.82,100.14Zm0-19.91a1.38,1.38,0,0,1-1.39-1.38V72.21a1.39,1.39,0,0,1,2.77,0v6.64A1.38,1.38,0,0,1,164.82,80.23Zm0-19.91a1.38,1.38,0,0,1-1.39-1.38V52.3a1.39,1.39,0,0,1,2.77,0v6.64A1.38,1.38,0,0,1,164.82,60.32Z"/></g></g></svg>