<svg xmlns="http://www.w3.org/2000/svg" viewBox="0 0 1096.85 485.84"><defs><style>.cls-1{fill:#00324a;}.cls-2{fill:#ff574a;}.cls-3{fill:#fff;}</style></defs><title>3</title><g id="Capa_2" data-name="Capa 2"><g id="Layer_1" data-name="Layer 1"><path class="cls-1" d="M63.72,90.49V77.71h5.41a3.7,3.7,0,0,1,1.63.37,4.22,4.22,0,0,1,1.3,1,4.71,4.71,0,0,1,.84,1.36A4.19,4.19,0,0,1,73.2,82,4.44,4.44,0,0,1,72.71,84a4.07,4.07,0,0,1-1.42,1.58,3.67,3.67,0,0,1-2.07.61h-3v4.28ZM66.2,84h2.88a1.41,1.41,0,0,0,1.15-.57,2.35,2.35,0,0,0,.45-1.5,2.18,2.18,0,0,0-.5-1.51,1.59,1.59,0,0,0-1.2-.56H66.2Z"/><path class="cls-1" d="M80.76,83.14a4.66,4.66,0,0,0-2,.44,2.48,2.48,0,0,0-1.22,1.21v5.7H75.14V81.06h2.21v2a4.51,4.51,0,0,1,1.28-1.53,2.92,2.92,0,0,1,1.64-.6h.49Z"/><path class="cls-1" d="M82.55,79.74V77.35H85v2.39Zm0,10.75V81.06H85v9.43Z"/><path class="cls-1" d="M90.13,90.49l-3.48-9.43h2.5l2.38,7.23,2.39-7.23h2.29l-3.45,9.43Z"/><path class="cls-1" d="M97,87.7a2.66,2.66,0,0,1,1.12-2.22,4.78,4.78,0,0,1,2.93-.84,6,6,0,0,1,2.27.37v-.5a1.82,1.82,0,0,0-.53-1.39,2.3,2.3,0,0,0-1.58-.48,4.08,4.08,0,0,0-1.44.26,7.72,7.72,0,0,0-1.51.8l-.78-1.58a7.19,7.19,0,0,1,4-1.23,4.57,4.57,0,0,1,3.15,1,3.73,3.73,0,0,1,1.12,2.89v3a.87.87,0,0,0,.13.55.63.63,0,0,0,.45.19v2a5.52,5.52,0,0,1-1,.12,1.73,1.73,0,0,1-1.08-.3,1.29,1.29,0,0,1-.47-.81l-.05-.49a4.17,4.17,0,0,1-1.53,1.22,4.31,4.31,0,0,1-1.87.44A3.37,3.37,0,0,1,98,89.82,2.74,2.74,0,0,1,97,87.7Zm5.87.49a1.26,1.26,0,0,0,.45-.83v-1a5,5,0,0,0-1.89-.38,2.73,2.73,0,0,0-1.55.41,1.25,1.25,0,0,0-.6,1.07,1.32,1.32,0,0,0,.46,1,1.74,1.74,0,0,0,1.22.42,2.92,2.92,0,0,0,1.05-.2A2.6,2.6,0,0,0,102.9,88.19Z"/><path class="cls-1" d="M112.85,90.67a5.36,5.36,0,0,1-2.06-.4,4.59,4.59,0,0,1-2.57-2.64,4.89,4.89,0,0,1-.36-1.86,5.14,5.14,0,0,1,.59-2.43,4.62,4.62,0,0,1,1.74-1.77,5.51,5.51,0,0,1,5.25,0,4.22,4.22,0,0,1,1.66,1.77l-2.36.72a2.14,2.14,0,0,0-.81-.8,2.23,2.23,0,0,0-1.11-.28,2.28,2.28,0,0,0-1.77.79,3.26,3.26,0,0,0,0,4.06,2.23,2.23,0,0,0,1.75.82A2.39,2.39,0,0,0,114,88.3a1.84,1.84,0,0,0,.77-.8l2.35.72A4,4,0,0,1,115.5,90,5.1,5.1,0,0,1,112.85,90.67Z"/><path class="cls-1" d="M119.08,92.33a4.87,4.87,0,0,0,1.08.17.94.94,0,0,0,.79-.41,5.7,5.7,0,0,0,.67-1.6l-3.73-9.43h2.5l2.54,7,2.24-7h2.3l-4,11.3A3.3,3.3,0,0,1,122.32,94a3.39,3.39,0,0,1-2,.62,4,4,0,0,1-1.21-.2Z"/><path class="cls-1" d="M137.94,90.67a5.36,5.36,0,0,1-2.06-.4,4.57,4.57,0,0,1-1.59-1.08,4.83,4.83,0,0,1-1-1.56,5.08,5.08,0,0,1-.35-1.86,5.14,5.14,0,0,1,.59-2.43,4.62,4.62,0,0,1,1.74-1.77,5.14,5.14,0,0,1,2.64-.68,5,5,0,0,1,2.6.65,4.19,4.19,0,0,1,1.67,1.77l-2.36.72a2.14,2.14,0,0,0-.81-.8,2.23,2.23,0,0,0-1.11-.28,2.26,2.26,0,0,0-1.77.79,3.26,3.26,0,0,0,0,4.06,2.23,2.23,0,0,0,1.75.82,2.39,2.39,0,0,0,1.19-.32,1.84,1.84,0,0,0,.77-.8l2.35.72A4,4,0,0,1,140.59,90,5.1,5.1,0,0,1,137.94,90.67Z"/><path class="cls-1" d="M143.46,85.79a5.09,5.09,0,0,1,.35-1.87,4.81,4.81,0,0,1,1-1.56,4.42,4.42,0,0,1,1.57-1.07,5.15,5.15,0,0,1,2.06-.4,5,5,0,0,1,2.62.68,4.57,4.57,0,0,1,1.73,1.79,5.19,5.19,0,0,1,.58,2.43,5.07,5.07,0,0,1-.34,1.86,4.78,4.78,0,0,1-1,1.55,4.29,4.29,0,0,1-1.56,1.07,5.29,5.29,0,0,1-2.06.4,5.55,5.55,0,0,1-1.7-.26,5,5,0,0,1-1.38-.72,4.94,4.94,0,0,1-1-1.07,4.67,4.67,0,0,1-.64-1.33A5.09,5.09,0,0,1,143.46,85.79Zm5,2.83a2.22,2.22,0,0,0,1.75-.81,3,3,0,0,0,.71-2,3,3,0,0,0-.71-2,2.32,2.32,0,0,0-3.51,0,3,3,0,0,0-.71,2,2.92,2.92,0,0,0,.71,2A2.26,2.26,0,0,0,148.42,88.62Z"/><path class="cls-1" d="M164.18,90.49h-2.41V85.2c0-1.45-.5-2.18-1.49-2.18a2.4,2.4,0,0,0-1.47.56,2.79,2.79,0,0,0-1,1.4v5.51h-2.41V81.06h2.18v1.75a3.64,3.64,0,0,1,1.52-1.41,4.83,4.83,0,0,1,2.22-.51,3,3,0,0,1,1.2.22,2.17,2.17,0,0,1,.82.56,2.57,2.57,0,0,1,.5.84,4.58,4.58,0,0,1,.25,1,7.31,7.31,0,0,1,.07,1.09Z"/><path class="cls-1" d="M171.12,90.67a5.36,5.36,0,0,1-2.06-.4,4.62,4.62,0,0,1-1.58-1.08,4.83,4.83,0,0,1-1-1.56,4.89,4.89,0,0,1-.36-1.86,5,5,0,0,1,.6-2.43,4.48,4.48,0,0,1,1.74-1.77,5.49,5.49,0,0,1,5.24,0,4.16,4.16,0,0,1,1.66,1.77L173,84a2.05,2.05,0,0,0-.8-.8,2.36,2.36,0,0,0-2.88.51,3.24,3.24,0,0,0,0,4.06,2.23,2.23,0,0,0,1.75.82,2.36,2.36,0,0,0,1.19-.32,1.79,1.79,0,0,0,.77-.8l2.36.72A4,4,0,0,1,173.77,90,5.1,5.1,0,0,1,171.12,90.67Z"/><path class="cls-1" d="M181.62,90.67A5.22,5.22,0,0,1,179,90a4.69,4.69,0,0,1-1.75-1.76,5.06,5.06,0,0,1-.59-2.41,5.23,5.23,0,0,1,.59-2.46,4.58,4.58,0,0,1,1.75-1.8,5.5,5.5,0,0,1,4.71-.28,4.34,4.34,0,0,1,1.55,1.07,4.55,4.55,0,0,1,1,1.54,4.92,4.92,0,0,1,.34,1.83,5.61,5.61,0,0,1-.05.81h-7.3a2.49,2.49,0,0,0,2.51,2.37,2.75,2.75,0,0,0,1.37-.36,1.84,1.84,0,0,0,.86-.93l2.07.58A4.1,4.1,0,0,1,184.32,90,5.31,5.31,0,0,1,181.62,90.67ZM179.15,85h4.93a2.62,2.62,0,0,0-.79-1.71,2.47,2.47,0,0,0-3.36,0A2.58,2.58,0,0,0,179.15,85Z"/><path class="cls-1" d="M194.08,83.14a4.58,4.58,0,0,0-2,.44,2.48,2.48,0,0,0-1.22,1.21v5.7h-2.41V81.06h2.21v2A4.4,4.4,0,0,1,192,81.54a2.92,2.92,0,0,1,1.64-.6h.48Z"/><path class="cls-1" d="M204.64,90.49h-2.41V85.2c0-1.45-.49-2.18-1.49-2.18a2.4,2.4,0,0,0-1.47.56,2.79,2.79,0,0,0-1,1.4v5.51h-2.41V81.06h2.18v1.75a3.64,3.64,0,0,1,1.52-1.41,4.83,4.83,0,0,1,2.22-.51,3,3,0,0,1,1.2.22,2.21,2.21,0,0,1,.83.56,2.55,2.55,0,0,1,.49.84,4.61,4.61,0,0,1,.26,1,9.06,9.06,0,0,1,.06,1.09Z"/><path class="cls-1" d="M210.67,90.67a6.72,6.72,0,0,1-2.33-.41,5.33,5.33,0,0,1-1.87-1.16l.86-1.56a5.31,5.31,0,0,0,3.25,1.33,2.08,2.08,0,0,0,1.13-.26.84.84,0,0,0,.41-.75.65.65,0,0,0,0-.2.34.34,0,0,0-.09-.18l-.11-.15a.62.62,0,0,0-.19-.12l-.22-.11-.28-.1-.3-.1-.37-.11-.39-.11c-.47-.15-.85-.28-1.14-.4a8.65,8.65,0,0,1-.87-.41,2.57,2.57,0,0,1-.65-.5,2.16,2.16,0,0,1-.36-.63,2.31,2.31,0,0,1-.14-.82,2.68,2.68,0,0,1,1-2.22,4.33,4.33,0,0,1,2.77-.83,5,5,0,0,1,3.55,1.34l-1,1.53a4.47,4.47,0,0,0-2.68-1.08,2.09,2.09,0,0,0-1,.23.79.79,0,0,0-.41.74.75.75,0,0,0,.37.69,5.81,5.81,0,0,0,1.35.5q.78.23,1.23.39a9.4,9.4,0,0,1,.95.41,2.87,2.87,0,0,1,.74.51,2.39,2.39,0,0,1,.41.66,2.5,2.5,0,0,1,.15.9,2.62,2.62,0,0,1-1,2.18A4.37,4.37,0,0,1,210.67,90.67Z"/><path class="cls-1" d="M15.54,260.46V247.68H21a3.63,3.63,0,0,1,1.62.37,4.14,4.14,0,0,1,1.31,1,4.48,4.48,0,0,1,.83,1.36,4,4,0,0,1,.31,1.55,4.44,4.44,0,0,1-.49,2.06,4.07,4.07,0,0,1-1.42,1.58,3.67,3.67,0,0,1-2.07.61H18v4.28ZM18,254H20.9a1.41,1.41,0,0,0,1.15-.57,2.35,2.35,0,0,0,.45-1.5,2.14,2.14,0,0,0-.51-1.51,1.56,1.56,0,0,0-1.2-.56H18Z"/><path class="cls-1" d="M32.57,253.11a4.58,4.58,0,0,0-2,.44,2.48,2.48,0,0,0-1.22,1.21v5.7H27V251h2.21v2a4.4,4.4,0,0,1,1.28-1.53,2.92,2.92,0,0,1,1.64-.6h.48Z"/><path class="cls-1" d="M33.65,255.76a5.09,5.09,0,0,1,.35-1.87,4.64,4.64,0,0,1,1-1.56,4.29,4.29,0,0,1,1.56-1.07,5.2,5.2,0,0,1,2.07-.4,5,5,0,0,1,2.62.68A4.54,4.54,0,0,1,43,253.33a5.22,5.22,0,0,1,.24,4.29,4.93,4.93,0,0,1-1,1.55,4.29,4.29,0,0,1-1.56,1.07,5.33,5.33,0,0,1-2.06.4,5.5,5.5,0,0,1-1.7-.26,4.75,4.75,0,0,1-1.38-.72,5.18,5.18,0,0,1-1-1.07,4.7,4.7,0,0,1-.65-1.33A5.43,5.43,0,0,1,33.65,255.76Zm5,2.83a2.24,2.24,0,0,0,1.75-.81,3,3,0,0,0,.71-2,3,3,0,0,0-.71-2,2.32,2.32,0,0,0-3.51,0,2.92,2.92,0,0,0-.71,2,3,3,0,0,0,.7,2A2.27,2.27,0,0,0,38.61,258.59Z"/><path class="cls-1" d="M47.82,260.46,44.34,251h2.5l2.37,7.23,2.4-7.23H53.9l-3.45,9.43Z"/><path class="cls-1" d="M55.62,249.71v-2.39H58v2.39Zm0,10.75V251H58v9.43Z"/><path class="cls-1" d="M69.42,260.46H67v-5.29c0-1.45-.5-2.18-1.5-2.18a2.42,2.42,0,0,0-1.47.56,2.85,2.85,0,0,0-1,1.4v5.51H60.66V251h2.18v1.75a3.61,3.61,0,0,1,1.53-1.41,4.78,4.78,0,0,1,2.22-.51,3,3,0,0,1,1.2.22,2.25,2.25,0,0,1,.82.56,2.55,2.55,0,0,1,.49.84,4.1,4.1,0,0,1,.26,1,9.06,9.06,0,0,1,.06,1.09Z"/><path class="cls-1" d="M71.41,255.74a5.5,5.5,0,0,1,.56-2.47,4.43,4.43,0,0,1,1.56-1.76,4.16,4.16,0,0,1,2.28-.65,3.66,3.66,0,0,1,1.9.49,4.1,4.1,0,0,1,1.39,1.33V251h2.11v9a4.19,4.19,0,0,1-.68,2.39A4.23,4.23,0,0,1,78.67,264a6.6,6.6,0,0,1-2.7.53,6,6,0,0,1-2.55-.5,5.46,5.46,0,0,1-1.86-1.47l1.31-1.28a3.84,3.84,0,0,0,1.37,1,4,4,0,0,0,1.73.39,3.83,3.83,0,0,0,1.09-.16A2.81,2.81,0,0,0,78,262a2.09,2.09,0,0,0,.62-.83A3,3,0,0,0,78.8,260v-1.19a3.22,3.22,0,0,1-1.31,1.25,3.94,3.94,0,0,1-1.82.44,3.85,3.85,0,0,1-2.21-.65A4.19,4.19,0,0,1,72,258.12,5.27,5.27,0,0,1,71.41,255.74ZM78.8,257v-2.25a3,3,0,0,0-1-1.33,2.42,2.42,0,0,0-1.46-.51,2.17,2.17,0,0,0-1.76.86,3.19,3.19,0,0,0-.69,2,2.78,2.78,0,0,0,.75,2,2.44,2.44,0,0,0,1.85.8,2.35,2.35,0,0,0,1.41-.46A2.51,2.51,0,0,0,78.8,257Z"/><path class="cls-1" d="M88.84,260.46V247.68h5.65a3.69,3.69,0,0,1,2.08.63A4.35,4.35,0,0,1,98,249.9a4.28,4.28,0,0,1-.11,4.28,3.64,3.64,0,0,1-1.67,1.47l2.91,4.81H96.43l-2.63-4.28H91.31v4.28ZM91.31,254h3.12a1.41,1.41,0,0,0,1.15-.6,2.33,2.33,0,0,0,.47-1.47,2.11,2.11,0,0,0-.53-1.47,1.56,1.56,0,0,0-1.2-.6h-3Z"/><path class="cls-1" d="M100.4,254.07a6.29,6.29,0,0,1,.48-2.45,6.49,6.49,0,0,1,1.3-2.07,6.16,6.16,0,0,1,2-1.42,6,6,0,0,1,2.51-.54,5.79,5.79,0,0,1,2.07.37,5.44,5.44,0,0,1,1.72,1,7.22,7.22,0,0,1,1.29,1.46,6.82,6.82,0,0,1,.83,1.77,6.61,6.61,0,0,1,.29,1.91,6.43,6.43,0,0,1-.48,2.44,6.83,6.83,0,0,1-1.29,2.06,6.08,6.08,0,0,1-4.48,1.95,6,6,0,0,1-2.08-.36,5.76,5.76,0,0,1-1.73-1,6.87,6.87,0,0,1-1.3-1.44,6.4,6.4,0,0,1-.84-1.77A6.73,6.73,0,0,1,100.4,254.07Zm6.24,4.28a3.46,3.46,0,0,0,1.6-.37,3.3,3.3,0,0,0,1.17-1,4.69,4.69,0,0,0,.71-1.37,4.9,4.9,0,0,0,.25-1.56,5,5,0,0,0-.44-2.09,4,4,0,0,0-1.31-1.57,3.58,3.58,0,0,0-3.57-.23,3.28,3.28,0,0,0-1.17,1,4.76,4.76,0,0,0-.71,1.36,4.9,4.9,0,0,0-.25,1.56,5,5,0,0,0,.43,2.09,3.87,3.87,0,0,0,1.29,1.57A3.32,3.32,0,0,0,106.64,258.35Z"/><path class="cls-1" d="M115.23,260.46V247.68h2.48v12.78Z"/><path class="cls-1" d="M131.57,247.68l-8.93,12.78H120l8.91-12.78Z"/><path class="cls-1" d="M138.63,253.11a4.58,4.58,0,0,0-2,.44,2.48,2.48,0,0,0-1.22,1.21v5.7H133V251h2.21v2a4.4,4.4,0,0,1,1.28-1.53,2.92,2.92,0,0,1,1.64-.6h.48Z"/><path class="cls-1" d="M144.68,260.64a5.22,5.22,0,0,1-2.63-.67,4.69,4.69,0,0,1-1.75-1.76,5.06,5.06,0,0,1-.59-2.41,5.2,5.2,0,0,1,.59-2.46,4.58,4.58,0,0,1,1.75-1.8,5.5,5.5,0,0,1,4.71-.28,4.47,4.47,0,0,1,1.56,1.07,4.68,4.68,0,0,1,1,1.54,4.92,4.92,0,0,1,.34,1.83,5.61,5.61,0,0,1-.05.81h-7.3a2.49,2.49,0,0,0,2.51,2.37,2.75,2.75,0,0,0,1.37-.36,1.84,1.84,0,0,0,.86-.93l2.07.58a4.1,4.1,0,0,1-1.69,1.79A5.31,5.31,0,0,1,144.68,260.64ZM142.21,255h4.93a2.59,2.59,0,0,0-.79-1.71,2.47,2.47,0,0,0-3.36,0A2.58,2.58,0,0,0,142.21,255Z"/><path class="cls-1" d="M157.09,260a6.69,6.69,0,0,1-2.66.64,3.52,3.52,0,0,1-1-.13,2.56,2.56,0,0,1-.77-.4,1.77,1.77,0,0,1-.54-.73,2.68,2.68,0,0,1-.19-1.06v-5.42h-1.24V251H152V248h2.42V251h2v1.85h-2v4.61c0,.61.31.92.89.92a3.55,3.55,0,0,0,1.32-.34Z"/><path class="cls-1" d="M158.71,256.94V251h2.41v5.38c0,1.45.52,2.18,1.57,2.18a2.48,2.48,0,0,0,1.38-.44,3.21,3.21,0,0,0,1.05-1.28V251h2.41v6.73a.87.87,0,0,0,.13.55.63.63,0,0,0,.45.19v2a6,6,0,0,1-1.05.1,1.77,1.77,0,0,1-1.06-.29,1.14,1.14,0,0,1-.47-.82l-.05-.76a4.08,4.08,0,0,1-1.61,1.45,4.77,4.77,0,0,1-2.19.5,2.66,2.66,0,0,1-2.21-.95A4.25,4.25,0,0,1,158.71,256.94Z"/><path class="cls-1" d="M176,253.11a4.66,4.66,0,0,0-2,.44,2.48,2.48,0,0,0-1.22,1.21v5.7h-2.41V251h2.21v2a4.4,4.4,0,0,1,1.28-1.53,2.92,2.92,0,0,1,1.64-.6H176Z"/><path class="cls-1" d="M186.54,260.46h-2.41v-5.29c0-1.45-.49-2.18-1.49-2.18a2.4,2.4,0,0,0-1.47.56,2.79,2.79,0,0,0-1,1.4v5.51h-2.41V251H180v1.75a3.64,3.64,0,0,1,1.52-1.41,4.83,4.83,0,0,1,2.22-.51,3,3,0,0,1,1.2.22,2.21,2.21,0,0,1,.83.56,2.55,2.55,0,0,1,.49.84,4.61,4.61,0,0,1,.26,1,9.06,9.06,0,0,1,.06,1.09Z"/><path class="cls-1" d="M193.26,255.76a5.09,5.09,0,0,1,.35-1.87,4.81,4.81,0,0,1,1-1.56,4.33,4.33,0,0,1,1.57-1.07,5.15,5.15,0,0,1,2.06-.4,5,5,0,0,1,2.62.68,4.54,4.54,0,0,1,1.72,1.79,5.08,5.08,0,0,1,.59,2.43,5.29,5.29,0,0,1-.34,1.86,4.78,4.78,0,0,1-1,1.55,4.29,4.29,0,0,1-1.56,1.07,5.29,5.29,0,0,1-2.06.4,5.5,5.5,0,0,1-1.7-.26,4.75,4.75,0,0,1-1.38-.72,5.18,5.18,0,0,1-1-1.07,4.42,4.42,0,0,1-.64-1.33A5.09,5.09,0,0,1,193.26,255.76Zm5,2.83a2.22,2.22,0,0,0,1.75-.81,3,3,0,0,0,.71-2,3,3,0,0,0-.71-2,2.32,2.32,0,0,0-3.51,0,3,3,0,0,0-.71,2,2.92,2.92,0,0,0,.71,2A2.25,2.25,0,0,0,198.22,258.59Z"/><path class="cls-1" d="M214,260.46h-2.41v-5.29c0-1.45-.5-2.18-1.49-2.18a2.4,2.4,0,0,0-1.47.56,2.87,2.87,0,0,0-1,1.4v5.51h-2.4V251h2.18v1.75a3.58,3.58,0,0,1,1.52-1.41,4.8,4.8,0,0,1,2.22-.51,3,3,0,0,1,1.2.22,2.17,2.17,0,0,1,.82.56,2.57,2.57,0,0,1,.5.84,4.58,4.58,0,0,1,.25,1,7.31,7.31,0,0,1,.07,1.09Z"/><path class="cls-1" d="M30.3,281a2.63,2.63,0,0,1,1.12-2.22,4.72,4.72,0,0,1,2.93-.85,6,6,0,0,1,2.27.38v-.5a1.79,1.79,0,0,0-.53-1.39,2.3,2.3,0,0,0-1.58-.49,4.13,4.13,0,0,0-1.44.26,7.49,7.49,0,0,0-1.5.81l-.79-1.58a7.19,7.19,0,0,1,4-1.23,4.52,4.52,0,0,1,3.15,1A3.69,3.69,0,0,1,39,278.06v3a.85.85,0,0,0,.13.55.59.59,0,0,0,.45.19v2a4.88,4.88,0,0,1-1,.13,1.67,1.67,0,0,1-1.08-.31,1.29,1.29,0,0,1-.47-.81l-.05-.48a4.11,4.11,0,0,1-1.52,1.21,4.38,4.38,0,0,1-1.88.44,3.37,3.37,0,0,1-2.35-.84A2.75,2.75,0,0,1,30.3,281Zm5.87.48a1.24,1.24,0,0,0,.45-.83v-.95a4.83,4.83,0,0,0-1.89-.38,2.65,2.65,0,0,0-1.55.41,1.24,1.24,0,0,0-.6,1.06,1.29,1.29,0,0,0,.46,1,1.74,1.74,0,0,0,1.22.42,2.72,2.72,0,0,0,1.05-.2A2.44,2.44,0,0,0,36.17,281.46Z"/><path class="cls-1" d="M41.15,279a5.75,5.75,0,0,1,.53-2.46,4.33,4.33,0,0,1,1.51-1.76,3.78,3.78,0,0,1,2.18-.65,3.58,3.58,0,0,1,1.85.49A3.74,3.74,0,0,1,48.55,276v-5.36H51v10.44a.92.92,0,0,0,.13.55.53.53,0,0,0,.43.19v2a5,5,0,0,1-1,.13,1.76,1.76,0,0,1-1.07-.32,1.22,1.22,0,0,1-.48-.85l0-.59a3.47,3.47,0,0,1-1.4,1.34,4,4,0,0,1-1.88.47,4.23,4.23,0,0,1-2.31-.65,4.48,4.48,0,0,1-1.6-1.77A5.39,5.39,0,0,1,41.15,279Zm7.4,1.27v-2.25a2.91,2.91,0,0,0-1-1.31,2.37,2.37,0,0,0-1.43-.53,2.17,2.17,0,0,0-1.76.86,3.09,3.09,0,0,0-.71,2,2.85,2.85,0,0,0,.74,2,2.48,2.48,0,0,0,3.25.35A2.25,2.25,0,0,0,48.55,280.31Z"/><path class="cls-1" d="M62,283.94a6.62,6.62,0,0,1-2.32-.41,5,5,0,0,1-1.88-1.16l.86-1.56a5.33,5.33,0,0,0,3.25,1.34,2.17,2.17,0,0,0,1.13-.26.86.86,0,0,0,.41-.75.68.68,0,0,0,0-.21.48.48,0,0,0-.08-.18l-.12-.14a.62.62,0,0,0-.19-.13l-.22-.1a1.8,1.8,0,0,0-.28-.11l-.3-.1-.37-.1L61.5,280c-.47-.15-.85-.28-1.14-.4a5.75,5.75,0,0,1-.87-.41,2.76,2.76,0,0,1-.65-.5,2.1,2.1,0,0,1-.36-.62,2.41,2.41,0,0,1-.14-.83,2.68,2.68,0,0,1,1-2.22,4.34,4.34,0,0,1,2.78-.82,5,5,0,0,1,3.54,1.33l-1,1.53a4.47,4.47,0,0,0-2.68-1.08,2.2,2.2,0,0,0-1,.23.79.79,0,0,0-.41.75.75.75,0,0,0,.37.69,6.11,6.11,0,0,0,1.35.49c.52.16.93.29,1.23.4a7.45,7.45,0,0,1,.95.4,2.88,2.88,0,0,1,.74.52,2.13,2.13,0,0,1,.56,1.55,2.6,2.6,0,0,1-1,2.18A4.37,4.37,0,0,1,62,283.94Z"/><path class="cls-1" d="M67.23,281a2.63,2.63,0,0,1,1.12-2.22,4.72,4.72,0,0,1,2.93-.85,6,6,0,0,1,2.27.38v-.5A1.79,1.79,0,0,0,73,276.4a2.3,2.3,0,0,0-1.58-.49,4.13,4.13,0,0,0-1.44.26,7.49,7.49,0,0,0-1.5.81l-.79-1.58a7.19,7.19,0,0,1,4-1.23,4.52,4.52,0,0,1,3.15,1A3.69,3.69,0,0,1,76,278.06v3a.85.85,0,0,0,.13.55.59.59,0,0,0,.45.19v2a4.88,4.88,0,0,1-1,.13,1.67,1.67,0,0,1-1.08-.31,1.29,1.29,0,0,1-.47-.81l0-.48a4.14,4.14,0,0,1-1.53,1.21,4.31,4.31,0,0,1-1.87.44,3.37,3.37,0,0,1-2.35-.84A2.75,2.75,0,0,1,67.23,281Zm5.87.48a1.24,1.24,0,0,0,.45-.83v-.95a4.83,4.83,0,0,0-1.89-.38,2.65,2.65,0,0,0-1.55.41,1.24,1.24,0,0,0-.6,1.06,1.29,1.29,0,0,0,.46,1,1.74,1.74,0,0,0,1.22.42,2.72,2.72,0,0,0,1-.2A2.44,2.44,0,0,0,73.1,281.46Z"/><path class="cls-1" d="M78.64,270.62h2.41v10.12a1.39,1.39,0,0,0,.2.86.75.75,0,0,0,.61.24,2.7,2.7,0,0,0,1.13-.26l.33,1.84a5.1,5.1,0,0,1-1.12.35,5.76,5.76,0,0,1-1.19.13,2.43,2.43,0,0,1-1.75-.6,2.32,2.32,0,0,1-.62-1.72Z"/><path class="cls-1" d="M89.19,283.94a5.09,5.09,0,0,1-2.63-.67,4.48,4.48,0,0,1-1.75-1.76,4.92,4.92,0,0,1-.6-2.41,5.15,5.15,0,0,1,.6-2.46,4.52,4.52,0,0,1,1.75-1.8,5.14,5.14,0,0,1,2.65-.67,5.32,5.32,0,0,1,2.06.39,4.34,4.34,0,0,1,1.55,1.07,4.82,4.82,0,0,1,1,1.54,4.93,4.93,0,0,1,.34,1.84,5.82,5.82,0,0,1-.05.81h-7.3a2.53,2.53,0,0,0,.81,1.72,2.47,2.47,0,0,0,1.7.64,2.81,2.81,0,0,0,1.36-.35,1.85,1.85,0,0,0,.87-.93l2.06.58a4,4,0,0,1-1.69,1.78A5.24,5.24,0,0,1,89.19,283.94Zm-2.47-5.65h4.93a2.65,2.65,0,0,0-.8-1.72,2.46,2.46,0,0,0-3.35,0A2.59,2.59,0,0,0,86.72,278.29Z"/><path class="cls-1" d="M99.51,283.94a6.62,6.62,0,0,1-2.32-.41,5,5,0,0,1-1.87-1.16l.86-1.56a5.28,5.28,0,0,0,3.24,1.34,2.15,2.15,0,0,0,1.13-.26.85.85,0,0,0,.42-.75,1.25,1.25,0,0,0,0-.21.76.76,0,0,0-.09-.18l-.12-.14a.62.62,0,0,0-.19-.13l-.22-.1a1.46,1.46,0,0,0-.28-.11l-.3-.1-.36-.1L99,280c-.46-.15-.84-.28-1.14-.4a6.13,6.13,0,0,1-.86-.41,2.57,2.57,0,0,1-.65-.5A1.93,1.93,0,0,1,96,278a2.41,2.41,0,0,1-.14-.83,2.68,2.68,0,0,1,1-2.22,4.36,4.36,0,0,1,2.78-.82,5,5,0,0,1,3.54,1.33l-1,1.53a4.45,4.45,0,0,0-2.68-1.08,2.13,2.13,0,0,0-1,.23.78.78,0,0,0-.42.75.77.77,0,0,0,.37.69,6.11,6.11,0,0,0,1.35.49l1.24.4a7.34,7.34,0,0,1,.94.4,2.71,2.71,0,0,1,.74.52,2.25,2.25,0,0,1,.41.65,2.29,2.29,0,0,1,.16.9,2.59,2.59,0,0,1-1,2.18A4.37,4.37,0,0,1,99.51,283.94Z"/><path class="cls-1" d="M109.49,281a2.63,2.63,0,0,1,1.12-2.22,4.72,4.72,0,0,1,2.93-.85,6,6,0,0,1,2.27.38v-.5a1.79,1.79,0,0,0-.53-1.39,2.32,2.32,0,0,0-1.58-.49,4,4,0,0,0-1.44.26,7.82,7.82,0,0,0-1.51.81L110,275.4a7.19,7.19,0,0,1,4-1.23,4.48,4.48,0,0,1,3.14,1,3.66,3.66,0,0,1,1.12,2.88v3a.85.85,0,0,0,.14.55.55.55,0,0,0,.44.19v2a4.73,4.73,0,0,1-1,.13,1.65,1.65,0,0,1-1.08-.31,1.29,1.29,0,0,1-.47-.81l0-.48a4.22,4.22,0,0,1-1.53,1.21,4.34,4.34,0,0,1-1.87.44,3.37,3.37,0,0,1-2.35-.84A2.75,2.75,0,0,1,109.49,281Zm5.87.48a1.24,1.24,0,0,0,.45-.83v-.95a4.83,4.83,0,0,0-1.89-.38,2.63,2.63,0,0,0-1.55.41,1.24,1.24,0,0,0-.6,1.06,1.26,1.26,0,0,0,.46,1,1.72,1.72,0,0,0,1.22.42,2.72,2.72,0,0,0,1-.2A2.54,2.54,0,0,0,115.36,281.46Z"/><path class="cls-1" d="M124.39,283.94a6.62,6.62,0,0,1-2.32-.41,5,5,0,0,1-1.88-1.16l.87-1.56a5.28,5.28,0,0,0,3.24,1.34,2.17,2.17,0,0,0,1.13-.26.85.85,0,0,0,.42-.75.66.66,0,0,0,0-.21.48.48,0,0,0-.08-.18l-.12-.14a.62.62,0,0,0-.19-.13l-.22-.1a1.8,1.8,0,0,0-.28-.11l-.3-.1-.37-.1-.39-.12c-.46-.15-.84-.28-1.14-.4a6.24,6.24,0,0,1-.87-.41,2.76,2.76,0,0,1-.65-.5,2.1,2.1,0,0,1-.36-.62,2.41,2.41,0,0,1-.14-.83,2.68,2.68,0,0,1,1.05-2.22,4.36,4.36,0,0,1,2.78-.82,5,5,0,0,1,3.54,1.33l-1,1.53a4.45,4.45,0,0,0-2.68-1.08,2.13,2.13,0,0,0-1,.23.78.78,0,0,0-.42.75.77.77,0,0,0,.37.69,6.11,6.11,0,0,0,1.35.49l1.24.4a7.34,7.34,0,0,1,.94.4,2.71,2.71,0,0,1,.74.52,2.25,2.25,0,0,1,.41.65,2.49,2.49,0,0,1,.16.9,2.61,2.61,0,0,1-1,2.18A4.37,4.37,0,0,1,124.39,283.94Z"/><path class="cls-1" d="M133.72,283.94a6.66,6.66,0,0,1-2.32-.41,5.05,5.05,0,0,1-1.87-1.16l.86-1.56a5.33,5.33,0,0,0,3.24,1.34,2.12,2.12,0,0,0,1.13-.26.85.85,0,0,0,.42-.75,1.25,1.25,0,0,0,0-.21.51.51,0,0,0-.09-.18l-.12-.14a.46.46,0,0,0-.18-.13l-.22-.1a1.8,1.8,0,0,0-.28-.11l-.31-.1-.36-.1-.4-.12c-.46-.15-.84-.28-1.13-.4a5.75,5.75,0,0,1-.87-.41,2.57,2.57,0,0,1-.65-.5,2.1,2.1,0,0,1-.36-.62,2.19,2.19,0,0,1-.14-.83,2.7,2.7,0,0,1,1-2.22,4.38,4.38,0,0,1,2.78-.82,5,5,0,0,1,3.54,1.33l-1,1.53a4.47,4.47,0,0,0-2.68-1.08,2.2,2.2,0,0,0-1,.23.79.79,0,0,0-.41.75.75.75,0,0,0,.37.69,5.79,5.79,0,0,0,1.34.49c.52.16.94.29,1.24.4a7.45,7.45,0,0,1,.95.4,2.88,2.88,0,0,1,.74.52,2.23,2.23,0,0,1,.4.65,2.29,2.29,0,0,1,.16.9,2.6,2.6,0,0,1-1,2.18A4.4,4.4,0,0,1,133.72,283.94Z"/><path class="cls-1" d="M144,283.94a5.06,5.06,0,0,1-2.62-.67,4.48,4.48,0,0,1-1.75-1.76,4.92,4.92,0,0,1-.6-2.41,5.15,5.15,0,0,1,.6-2.46,4.52,4.52,0,0,1,1.75-1.8,5.11,5.11,0,0,1,2.64-.67,5.29,5.29,0,0,1,2.06.39,4.29,4.29,0,0,1,1.56,1.07,5,5,0,0,1,1,1.54,5.13,5.13,0,0,1,.33,1.84,4.59,4.59,0,0,1,0,.81h-7.29a2.53,2.53,0,0,0,.81,1.72,2.44,2.44,0,0,0,1.69.64,2.85,2.85,0,0,0,1.37-.35,1.87,1.87,0,0,0,.86-.93l2.07.58a4.07,4.07,0,0,1-1.69,1.78A5.31,5.31,0,0,1,144,283.94Zm-2.47-5.65h4.93a2.64,2.64,0,0,0-.79-1.72,2.46,2.46,0,0,0-3.35,0A2.55,2.55,0,0,0,141.49,278.29Z"/><path class="cls-1" d="M154.28,283.94a6.71,6.71,0,0,1-2.32-.41,5.05,5.05,0,0,1-1.87-1.16l.86-1.56a5.33,5.33,0,0,0,3.25,1.34,2.11,2.11,0,0,0,1.12-.26.85.85,0,0,0,.42-.75,1.25,1.25,0,0,0,0-.21.38.38,0,0,0-.09-.18l-.12-.14a.46.46,0,0,0-.18-.13l-.22-.1a1.8,1.8,0,0,0-.28-.11l-.3-.1-.37-.1-.4-.12c-.46-.15-.84-.28-1.13-.4a5.75,5.75,0,0,1-.87-.41,2.57,2.57,0,0,1-.65-.5,2.1,2.1,0,0,1-.36-.62,2.19,2.19,0,0,1-.14-.83,2.68,2.68,0,0,1,1-2.22,4.33,4.33,0,0,1,2.77-.82,5,5,0,0,1,3.54,1.33L157,277a4.47,4.47,0,0,0-2.68-1.08,2.2,2.2,0,0,0-1,.23.79.79,0,0,0-.41.75.75.75,0,0,0,.37.69,5.79,5.79,0,0,0,1.34.49c.52.16.94.29,1.24.4a7.45,7.45,0,0,1,.95.4,2.88,2.88,0,0,1,.74.52,2.23,2.23,0,0,1,.4.65,2.29,2.29,0,0,1,.16.9,2.6,2.6,0,0,1-1,2.18A4.38,4.38,0,0,1,154.28,283.94Z"/><path class="cls-1" d="M163.62,283.94a6.62,6.62,0,0,1-2.32-.41,5,5,0,0,1-1.87-1.16l.86-1.56a5.28,5.28,0,0,0,3.24,1.34,2.15,2.15,0,0,0,1.13-.26.85.85,0,0,0,.42-.75,1.25,1.25,0,0,0,0-.21.76.76,0,0,0-.09-.18l-.12-.14a.7.7,0,0,0-.18-.13l-.22-.1-.29-.11-.3-.1-.36-.1-.4-.12c-.46-.15-.84-.28-1.14-.4a6.13,6.13,0,0,1-.86-.41,2.57,2.57,0,0,1-.65-.5,1.93,1.93,0,0,1-.37-.62,2.41,2.41,0,0,1-.13-.83,2.67,2.67,0,0,1,1-2.22,4.36,4.36,0,0,1,2.78-.82,5,5,0,0,1,3.54,1.33l-1,1.53a4.45,4.45,0,0,0-2.68-1.08,2.13,2.13,0,0,0-1,.23.78.78,0,0,0-.41.75.76.76,0,0,0,.36.69,6.11,6.11,0,0,0,1.35.49l1.24.4a7.34,7.34,0,0,1,.94.4,2.71,2.71,0,0,1,.74.52,2.25,2.25,0,0,1,.41.65,2.29,2.29,0,0,1,.16.9,2.6,2.6,0,0,1-1,2.18A4.42,4.42,0,0,1,163.62,283.94Z"/><path class="cls-1" d="M184.13,283.76h-2.4v-5.29a2.9,2.9,0,0,0-.38-1.64,1.23,1.23,0,0,0-1.08-.54,2,2,0,0,0-1.35.56,3,3,0,0,0-.9,1.42v5.49H175.6v-5.29c0-1.45-.49-2.18-1.46-2.18a2,2,0,0,0-1.35.55,3,3,0,0,0-.9,1.41v5.51h-2.41v-9.43h2.18v1.75a3.62,3.62,0,0,1,1.44-1.41,4.17,4.17,0,0,1,2.07-.5,2.73,2.73,0,0,1,1.79.55,2.56,2.56,0,0,1,.87,1.45,4,4,0,0,1,1.47-1.49,3.94,3.94,0,0,1,2-.51q2.83,0,2.83,3.7Z"/><path class="cls-1" d="M191.06,283.94a5.12,5.12,0,0,1-2.63-.67,4.46,4.46,0,0,1-1.74-1.76,4.92,4.92,0,0,1-.6-2.41,5.15,5.15,0,0,1,.6-2.46,4.49,4.49,0,0,1,1.74-1.8,5.14,5.14,0,0,1,2.65-.67,5.29,5.29,0,0,1,2.06.39,4.47,4.47,0,0,1,1.56,1.07,5,5,0,0,1,1,1.54A5.13,5.13,0,0,1,196,279a4.59,4.59,0,0,1-.05.81h-7.29a2.46,2.46,0,0,0,2.5,2.36,2.85,2.85,0,0,0,1.37-.35,1.87,1.87,0,0,0,.86-.93l2.07.58a4.07,4.07,0,0,1-1.69,1.78A5.31,5.31,0,0,1,191.06,283.94Zm-2.47-5.65h4.93a2.64,2.64,0,0,0-.79-1.72,2.35,2.35,0,0,0-1.69-.66,2.31,2.31,0,0,0-1.66.66A2.55,2.55,0,0,0,188.59,278.29Z"/><path class="cls-1" d="M206.67,283.76h-2.4v-5.29c0-1.45-.5-2.18-1.5-2.18a2.4,2.4,0,0,0-1.47.56,2.9,2.9,0,0,0-1,1.4v5.51h-2.41v-9.43h2.18v1.75a3.59,3.59,0,0,1,1.53-1.4,4.76,4.76,0,0,1,2.21-.51,3.23,3.23,0,0,1,1.21.21,2.25,2.25,0,0,1,.82.56,2.66,2.66,0,0,1,.49.84,4.76,4.76,0,0,1,.26,1,9.18,9.18,0,0,1,.06,1.09Z"/><path class="cls-1" d="M214.82,283.28a6.56,6.56,0,0,1-2.66.64,3.16,3.16,0,0,1-.95-.13,2.35,2.35,0,0,1-.77-.4,1.77,1.77,0,0,1-.54-.73,2.64,2.64,0,0,1-.19-1.06v-5.41h-1.24v-1.86h1.24v-3.06h2.41v3.06h2v1.86h-2v4.6q0,.93.9.93a3.6,3.6,0,0,0,1.32-.35Z"/><path class="cls-1" d="M112.89,416h-4.08v10.6h-2.46V416h-4.09v-2.18h10.63Z"/><path class="cls-1" d="M119.41,419.27a4.44,4.44,0,0,0-2,.44,2.56,2.56,0,0,0-1.23,1.2v5.7h-2.41v-9.43H116v2a4.3,4.3,0,0,1,1.28-1.53,2.88,2.88,0,0,1,1.63-.61,4.14,4.14,0,0,1,.49,0Z"/><path class="cls-1" d="M121.12,423.09v-5.91h2.4v5.38c0,1.46.52,2.18,1.57,2.18a2.4,2.4,0,0,0,1.38-.44,3.18,3.18,0,0,0,1-1.27v-5.85h2.41v6.74a.84.84,0,0,0,.13.54.59.59,0,0,0,.45.19v2a6,6,0,0,1-1,.11,1.72,1.72,0,0,1-1.05-.3,1.09,1.09,0,0,1-.47-.82l-.06-.75a4,4,0,0,1-1.61,1.45,4.75,4.75,0,0,1-2.18.49,2.67,2.67,0,0,1-2.22-.94A4.36,4.36,0,0,1,121.12,423.09Z"/><path class="cls-1" d="M136.24,426.79a6.9,6.9,0,0,1-2.32-.4,5.33,5.33,0,0,1-1.87-1.16l.86-1.57a5.33,5.33,0,0,0,3.24,1.34,2.15,2.15,0,0,0,1.13-.26.85.85,0,0,0,.42-.75,1.25,1.25,0,0,0,0-.21.76.76,0,0,0-.09-.18l-.12-.14a.59.59,0,0,0-.18-.13l-.22-.1a1.8,1.8,0,0,0-.28-.11l-.31-.1-.36-.1-.4-.12c-.46-.15-.84-.28-1.13-.4a5.75,5.75,0,0,1-.87-.41,2.36,2.36,0,0,1-.65-.5,1.91,1.91,0,0,1-.36-.62,2.16,2.16,0,0,1-.14-.83,2.71,2.71,0,0,1,1-2.22,4.38,4.38,0,0,1,2.78-.82,5,5,0,0,1,3.54,1.33l-1,1.53a4.47,4.47,0,0,0-2.68-1.08,2.2,2.2,0,0,0-1.05.23.79.79,0,0,0-.41.75.75.75,0,0,0,.37.69,5.79,5.79,0,0,0,1.34.49c.52.16.94.29,1.24.4a7.45,7.45,0,0,1,.95.4,2.88,2.88,0,0,1,.74.52,2.23,2.23,0,0,1,.4.65,2.29,2.29,0,0,1,.16.9,2.6,2.6,0,0,1-1,2.18A4.4,4.4,0,0,1,136.24,426.79Z"/><path class="cls-1" d="M147.71,426.13a6.6,6.6,0,0,1-2.67.64,3.21,3.21,0,0,1-.95-.13,2.46,2.46,0,0,1-.77-.4,1.8,1.8,0,0,1-.54-.72,2.73,2.73,0,0,1-.19-1.07V419h-1.24v-1.86h1.24v-3.06H145v3.06h2V419h-2v4.6c0,.62.31.93.89.93a3.6,3.6,0,0,0,1.32-.35Z"/><path class="cls-1" d="M161.08,417.18h2.28l-3.94,9.43h-2l-1.58-4.05-1.55,4.05h-2l-3.93-9.43h2.27l2.81,7.13,1.1-3.08-1.64-4h2l1,2.88,1-2.88h2l-1.64,4,1.12,3.08Z"/><path class="cls-1" d="M164,421.91a4.94,4.94,0,0,1,.36-1.87,5,5,0,0,1,1-1.56,4.55,4.55,0,0,1,1.57-1.07A5.36,5.36,0,0,1,169,417a4.92,4.92,0,0,1,2.62.68,4.55,4.55,0,0,1,1.73,1.78,5.13,5.13,0,0,1,.58,2.43,5.07,5.07,0,0,1-.34,1.86,5,5,0,0,1-1,1.56,4.58,4.58,0,0,1-1.56,1.06,5.2,5.2,0,0,1-2.07.4,5.55,5.55,0,0,1-1.7-.26,4.53,4.53,0,0,1-1.38-.72,4.84,4.84,0,0,1-1-1.06,4.5,4.5,0,0,1-.65-1.34A5.34,5.34,0,0,1,164,421.91Zm5,2.83a2.22,2.22,0,0,0,1.75-.81,3,3,0,0,0,.71-2,2.92,2.92,0,0,0-.71-2,2.32,2.32,0,0,0-3.51,0,3,3,0,0,0-.71,2,3,3,0,0,0,.71,2A2.23,2.23,0,0,0,169,424.74Z"/><path class="cls-1" d="M181.58,419.27a4.52,4.52,0,0,0-2,.44,2.5,2.5,0,0,0-1.22,1.2v5.7H176v-9.43h2.21v2a4.4,4.4,0,0,1,1.28-1.53,2.94,2.94,0,0,1,1.64-.61,4.42,4.42,0,0,1,.49,0Z"/><path class="cls-1" d="M189,426.13a6.56,6.56,0,0,1-2.66.64,3.16,3.16,0,0,1-1-.13,2.4,2.4,0,0,1-.78-.4,1.88,1.88,0,0,1-.53-.72,2.73,2.73,0,0,1-.19-1.07V419h-1.24v-1.86h1.24v-3.06h2.41v3.06h2V419h-2v4.6q0,.93.9.93a3.6,3.6,0,0,0,1.32-.35Z"/><path class="cls-1" d="M199.49,426.61h-2.41v-5.29a2.72,2.72,0,0,0-.41-1.63,1.38,1.38,0,0,0-1.17-.55,2.22,2.22,0,0,0-1.39.57,2.75,2.75,0,0,0-1,1.39v5.51h-2.41V413.47h2.41v5.46a3.77,3.77,0,0,1,1.42-1.41,3.89,3.89,0,0,1,2-.5c2,0,3,1.23,3,3.71Z"/><path class="cls-1" d="M202.06,428.45a4.59,4.59,0,0,0,1.08.18.92.92,0,0,0,.79-.42,5.57,5.57,0,0,0,.67-1.6l-3.73-9.43h2.51l2.54,7,2.23-7h2.3l-4,11.31a3.21,3.21,0,0,1-1.19,1.62,3.31,3.31,0,0,1-2,.63,3.71,3.71,0,0,1-1.21-.21Z"/><path class="cls-1" d="M4.3,450a5.62,5.62,0,0,1-2.64-.58A3.82,3.82,0,0,1,0,447.84l1.29-1.63a2.66,2.66,0,0,0,1.07,1.15,3.51,3.51,0,0,0,1.85.47A3,3,0,0,0,6,447.36a1.58,1.58,0,0,0-.18-2.67,4.85,4.85,0,0,0-2.39-.48H2.8v-1.8h.64A4.09,4.09,0,0,0,5.52,442a1.4,1.4,0,0,0,.77-1.28,1.43,1.43,0,0,0-.57-1.18,2.25,2.25,0,0,0-1.4-.44,3,3,0,0,0-1.58.42,2.87,2.87,0,0,0-1.07,1.09L.11,438.83a3.74,3.74,0,0,1,1.79-1.35A6.66,6.66,0,0,1,4.5,437a5,5,0,0,1,3.14.95,2.94,2.94,0,0,1,1.23,2.42,2.77,2.77,0,0,1-.66,1.86,3,3,0,0,1-1.75,1,3.07,3.07,0,0,1,1.92,1.11,3.25,3.25,0,0,1,.74,2.13,3,3,0,0,1-.63,1.92,3.9,3.9,0,0,1-1.73,1.24A6.82,6.82,0,0,1,4.3,450Z"/><path class="cls-1" d="M17.1,442.57a4.66,4.66,0,0,0-2,.44,2.5,2.5,0,0,0-1.22,1.2v5.71H11.48v-9.43H13.7v2A4.38,4.38,0,0,1,15,441a3,3,0,0,1,1.64-.61,4.14,4.14,0,0,1,.49,0Z"/><path class="cls-1" d="M18.22,445.2a5.55,5.55,0,0,1,.54-2.46A4.29,4.29,0,0,1,20.27,441a3.82,3.82,0,0,1,2.17-.65,3.56,3.56,0,0,1,1.85.5,3.66,3.66,0,0,1,1.33,1.32v-5.36H28v10.44a1,1,0,0,0,.12.55.6.6,0,0,0,.43.19v2a5.52,5.52,0,0,1-1,.12,1.74,1.74,0,0,1-1.07-.32,1.13,1.13,0,0,1-.48-.85l0-.59a3.45,3.45,0,0,1-1.39,1.34,3.88,3.88,0,0,1-1.88.47,4.21,4.21,0,0,1-2.32-.65,4.5,4.5,0,0,1-1.6-1.77A5.38,5.38,0,0,1,18.22,445.2Zm7.4,1.26v-2.25a3,3,0,0,0-1-1.31,2.38,2.38,0,0,0-1.43-.52,2.2,2.2,0,0,0-1.77.85,3.09,3.09,0,0,0-.7,2,2.83,2.83,0,0,0,.74,2,2.44,2.44,0,0,0,3.24.35A2.2,2.2,0,0,0,25.62,446.46Z"/><path class="cls-1" d="M30.8,446.07v-2.18h5.45v2.18Z"/><path class="cls-1" d="M41.24,448.27v5.48H38.83V440.49h2.11v1.61a3.74,3.74,0,0,1,1.37-1.31,3.8,3.8,0,0,1,1.88-.47,4.07,4.07,0,0,1,2.26.66A4.43,4.43,0,0,1,48,442.75a5.24,5.24,0,0,1,.57,2.43,5.67,5.67,0,0,1-.53,2.49,4.28,4.28,0,0,1-1.47,1.77,3.64,3.64,0,0,1-2.12.65,3.8,3.8,0,0,1-1.92-.48A3.47,3.47,0,0,1,41.24,448.27Zm4.89-3.09a2.8,2.8,0,0,0-.75-2,2.44,2.44,0,0,0-3.23-.36,2.2,2.2,0,0,0-.91,1.13v2.21a3.1,3.1,0,0,0,1,1.34,2.26,2.26,0,0,0,1.43.54,2.17,2.17,0,0,0,1.76-.86A3.06,3.06,0,0,0,46.13,445.18Z"/><path class="cls-1" d="M50,447.13a2.66,2.66,0,0,1,1.12-2.22,4.78,4.78,0,0,1,2.93-.85,6,6,0,0,1,2.27.38v-.5a1.77,1.77,0,0,0-.54-1.39,2.27,2.27,0,0,0-1.57-.48,4.14,4.14,0,0,0-1.45.26,8,8,0,0,0-1.5.8l-.78-1.58a7.19,7.19,0,0,1,4-1.23,4.52,4.52,0,0,1,3.14,1,3.67,3.67,0,0,1,1.12,2.88v3a.87.87,0,0,0,.14.55.59.59,0,0,0,.44.19v2a5.34,5.34,0,0,1-1,.12,1.69,1.69,0,0,1-1.08-.3,1.27,1.27,0,0,1-.47-.82l-.05-.48a4.25,4.25,0,0,1-1.53,1.22,4.34,4.34,0,0,1-1.88.43,3.36,3.36,0,0,1-2.34-.84A2.74,2.74,0,0,1,50,447.13Zm5.87.48a1.22,1.22,0,0,0,.45-.82v-1a5,5,0,0,0-1.89-.38,2.7,2.7,0,0,0-1.55.41,1.24,1.24,0,0,0-.6,1.07,1.29,1.29,0,0,0,.46,1,1.72,1.72,0,0,0,1.22.42,2.92,2.92,0,0,0,1-.2A2.55,2.55,0,0,0,55.91,447.61Z"/><path class="cls-1" d="M67.08,442.57a4.58,4.58,0,0,0-2,.44,2.56,2.56,0,0,0-1.23,1.2v5.71H61.46v-9.43h2.22v2A4.3,4.3,0,0,1,65,441a3,3,0,0,1,1.64-.61,4.06,4.06,0,0,1,.48,0Z"/><path class="cls-1" d="M74.53,449.43a6.59,6.59,0,0,1-2.67.65,3.21,3.21,0,0,1-1-.14,2.27,2.27,0,0,1-.77-.4,1.74,1.74,0,0,1-.54-.72,2.9,2.9,0,0,1-.19-1.06v-5.42H68.17v-1.85h1.24v-3.06h2.42v3.06h2v1.85h-2V447c0,.61.31.92.89.92a3.55,3.55,0,0,0,1.32-.34Z"/><path class="cls-1" d="M76.39,451.75a4.59,4.59,0,0,0,1.08.18,1,1,0,0,0,.8-.41,6.09,6.09,0,0,0,.66-1.6l-3.73-9.43h2.51l2.54,7,2.23-7h2.3l-4,11.3a3.24,3.24,0,0,1-1.19,1.63,3.35,3.35,0,0,1-2,.62,4,4,0,0,1-1.21-.2Z"/><path class="cls-1" d="M105.51,449.92H103.1v-5.29a2.88,2.88,0,0,0-.37-1.64,1.26,1.26,0,0,0-1.08-.54,2,2,0,0,0-1.35.55,3,3,0,0,0-.9,1.42v5.5H97v-5.29c0-1.46-.49-2.18-1.46-2.18a2,2,0,0,0-1.35.54,3,3,0,0,0-.9,1.42v5.51H90.86v-9.43H93v1.75a3.64,3.64,0,0,1,1.44-1.42,4.23,4.23,0,0,1,2.07-.5,2.74,2.74,0,0,1,1.79.56,2.51,2.51,0,0,1,.87,1.44,4.07,4.07,0,0,1,1.46-1.48,3.91,3.91,0,0,1,2-.52q2.83,0,2.83,3.71Z"/><path class="cls-1" d="M112.44,450.09a5.21,5.21,0,0,1-2.63-.66,4.57,4.57,0,0,1-1.75-1.77,5,5,0,0,1-.59-2.4,5.27,5.27,0,0,1,.59-2.47,4.56,4.56,0,0,1,1.75-1.79,5.5,5.5,0,0,1,4.71-.28,4.32,4.32,0,0,1,1.55,1.06,4.69,4.69,0,0,1,1,1.55,4.92,4.92,0,0,1,.34,1.83,5.61,5.61,0,0,1-.05.81H110a2.49,2.49,0,0,0,2.51,2.37,2.71,2.71,0,0,0,1.36-.36,1.85,1.85,0,0,0,.87-.93l2.07.58a4.12,4.12,0,0,1-1.7,1.79A5.24,5.24,0,0,1,112.44,450.09ZM110,444.44h4.93a2.64,2.64,0,0,0-.79-1.72,2.4,2.4,0,0,0-1.69-.65,2.35,2.35,0,0,0-1.67.66A2.58,2.58,0,0,0,110,444.44Z"/><path class="cls-1" d="M118.64,447.13a2.66,2.66,0,0,1,1.12-2.22,4.78,4.78,0,0,1,2.93-.85,6,6,0,0,1,2.27.38v-.5a1.8,1.8,0,0,0-.53-1.39,2.3,2.3,0,0,0-1.58-.48,4,4,0,0,0-1.44.26,7.72,7.72,0,0,0-1.51.8l-.78-1.58a7.19,7.19,0,0,1,4-1.23,4.57,4.57,0,0,1,3.15,1,3.71,3.71,0,0,1,1.12,2.88v3a.87.87,0,0,0,.13.55.63.63,0,0,0,.45.19v2a5.52,5.52,0,0,1-1,.12,1.73,1.73,0,0,1-1.08-.3,1.31,1.31,0,0,1-.47-.82l-.05-.48a4.17,4.17,0,0,1-1.53,1.22,4.29,4.29,0,0,1-1.87.43,3.37,3.37,0,0,1-2.35-.84A2.74,2.74,0,0,1,118.64,447.13Zm5.87.48a1.22,1.22,0,0,0,.45-.82v-1a5,5,0,0,0-1.89-.38,2.73,2.73,0,0,0-1.55.41,1.24,1.24,0,0,0-.6,1.07,1.32,1.32,0,0,0,.46,1,1.74,1.74,0,0,0,1.22.42,2.92,2.92,0,0,0,1.05-.2A2.46,2.46,0,0,0,124.51,447.61Z"/><path class="cls-1" d="M133.54,450.09a6.62,6.62,0,0,1-2.32-.4,5.28,5.28,0,0,1-1.88-1.16l.87-1.57a5.28,5.28,0,0,0,3.24,1.34,2.17,2.17,0,0,0,1.13-.26.82.82,0,0,0,.42-.75.66.66,0,0,0,0-.21.38.38,0,0,0-.08-.17l-.12-.15a.87.87,0,0,0-.19-.13l-.22-.1-.28-.11-.3-.09-.37-.11-.39-.12c-.46-.14-.84-.28-1.14-.39a7.71,7.71,0,0,1-.87-.42,2.32,2.32,0,0,1-.65-.5,2,2,0,0,1-.36-.62,2.37,2.37,0,0,1-.14-.83,2.67,2.67,0,0,1,1-2.21,4.36,4.36,0,0,1,2.78-.83,5,5,0,0,1,3.54,1.34l-1,1.53a4.45,4.45,0,0,0-2.68-1.08,2.14,2.14,0,0,0-1,.22.8.8,0,0,0-.42.75.77.77,0,0,0,.37.69,6,6,0,0,0,1.35.5c.52.15.93.28,1.24.39a7.46,7.46,0,0,1,.94.41,2.51,2.51,0,0,1,.74.51,2.17,2.17,0,0,1,.41.66,2.44,2.44,0,0,1,.16.89,2.63,2.63,0,0,1-1,2.19A4.36,4.36,0,0,1,133.54,450.09Z"/><path class="cls-1" d="M139.31,446.39v-5.9h2.41v5.38c0,1.45.52,2.18,1.57,2.18a2.48,2.48,0,0,0,1.38-.44,3.21,3.21,0,0,0,1.05-1.28v-5.84h2.41v6.73a.87.87,0,0,0,.13.55.63.63,0,0,0,.45.19v2a6,6,0,0,1-1.05.1,1.84,1.84,0,0,1-1.06-.29,1.14,1.14,0,0,1-.47-.82l0-.76a4,4,0,0,1-1.61,1.45,4.77,4.77,0,0,1-2.19.49,2.65,2.65,0,0,1-2.21-.94A4.32,4.32,0,0,1,139.31,446.39Z"/><path class="cls-1" d="M156.59,442.57a4.66,4.66,0,0,0-2,.44,2.5,2.5,0,0,0-1.22,1.2v5.71H151v-9.43h2.21v2a4.51,4.51,0,0,1,1.28-1.53,3,3,0,0,1,1.64-.61,4.28,4.28,0,0,1,.49,0Z"/><path class="cls-1" d="M162.63,450.09a5.15,5.15,0,0,1-2.62-.66,4.57,4.57,0,0,1-1.75-1.77,4.91,4.91,0,0,1-.6-2.4,5.16,5.16,0,0,1,.6-2.47A4.56,4.56,0,0,1,160,441a5.48,5.48,0,0,1,4.7-.28,4.27,4.27,0,0,1,1.56,1.06,5,5,0,0,1,1,1.55,5.12,5.12,0,0,1,.34,1.83,4.32,4.32,0,0,1-.06.81h-7.29a2.48,2.48,0,0,0,.81,1.72,2.45,2.45,0,0,0,1.69.65,2.75,2.75,0,0,0,1.37-.36,1.94,1.94,0,0,0,.87-.93l2.06.58a4.1,4.1,0,0,1-1.69,1.79A5.3,5.3,0,0,1,162.63,450.09Zm-2.46-5.65h4.93a2.65,2.65,0,0,0-.8-1.72,2.37,2.37,0,0,0-1.68-.65,2.33,2.33,0,0,0-1.67.66A2.49,2.49,0,0,0,160.17,444.44Z"/><path class="cls-1" d="M184.13,449.92h-2.4v-5.29a2.88,2.88,0,0,0-.38-1.64,1.23,1.23,0,0,0-1.08-.54,2,2,0,0,0-1.35.55,3,3,0,0,0-.9,1.42v5.5H175.6v-5.29c0-1.46-.49-2.18-1.46-2.18a2.08,2.08,0,0,0-1.35.54,3,3,0,0,0-.9,1.42v5.51h-2.41v-9.43h2.18v1.75a3.64,3.64,0,0,1,1.44-1.42,4.28,4.28,0,0,1,2.07-.5,2.74,2.74,0,0,1,1.79.56,2.51,2.51,0,0,1,.87,1.44,4,4,0,0,1,1.47-1.48,3.85,3.85,0,0,1,2-.52q2.83,0,2.83,3.71Z"/><path class="cls-1" d="M191.06,450.09a5.21,5.21,0,0,1-2.63-.66,4.64,4.64,0,0,1-1.75-1.77,5,5,0,0,1-.59-2.4,5.27,5.27,0,0,1,.59-2.47,4.63,4.63,0,0,1,1.75-1.79,5.5,5.5,0,0,1,4.71-.28,4.45,4.45,0,0,1,1.56,1.06,4.83,4.83,0,0,1,1,1.55,4.92,4.92,0,0,1,.34,1.83,5.61,5.61,0,0,1-.05.81h-7.3a2.49,2.49,0,0,0,2.51,2.37,2.75,2.75,0,0,0,1.37-.36,1.87,1.87,0,0,0,.86-.93l2.07.58a4.1,4.1,0,0,1-1.69,1.79A5.3,5.3,0,0,1,191.06,450.09Zm-2.47-5.65h4.93a2.64,2.64,0,0,0-.79-1.72,2.38,2.38,0,0,0-1.69-.65,2.35,2.35,0,0,0-1.67.66A2.58,2.58,0,0,0,188.59,444.44Z"/><path class="cls-1" d="M206.67,449.92h-2.41v-5.29c0-1.46-.49-2.18-1.49-2.18a2.34,2.34,0,0,0-1.47.56,2.75,2.75,0,0,0-1,1.4v5.51h-2.41v-9.43h2.18v1.75a3.64,3.64,0,0,1,1.52-1.41,4.83,4.83,0,0,1,2.22-.51,3,3,0,0,1,1.2.22,2.19,2.19,0,0,1,.83.55,2.6,2.6,0,0,1,.49.85,4.53,4.53,0,0,1,.26,1,9.36,9.36,0,0,1,.06,1.1Z"/><path class="cls-1" d="M214.82,449.43a6.58,6.58,0,0,1-2.66.65,3.16,3.16,0,0,1-.95-.14,2.18,2.18,0,0,1-.77-.4,1.74,1.74,0,0,1-.54-.72,2.71,2.71,0,0,1-.19-1.06v-5.42h-1.24v-1.85h1.24v-3.06h2.41v3.06h2v1.85h-2V447c0,.61.32.92.9.92a3.55,3.55,0,0,0,1.32-.34Z"/><path class="cls-1" d="M947.71,69.53V56.75h2.48v10.6h6.52v2.18Z"/><path class="cls-1" d="M957.79,66.74a2.66,2.66,0,0,1,1.12-2.22,4.72,4.72,0,0,1,2.93-.85,6,6,0,0,1,2.27.38v-.5a1.77,1.77,0,0,0-.54-1.39,2.27,2.27,0,0,0-1.57-.48,3.92,3.92,0,0,0-1.45.26,8,8,0,0,0-1.5.8l-.78-1.58a7.19,7.19,0,0,1,4-1.23,4.48,4.48,0,0,1,3.14,1,3.66,3.66,0,0,1,1.12,2.88v3a.89.89,0,0,0,.14.55.63.63,0,0,0,.44.19v2a5.34,5.34,0,0,1-1,.12,1.69,1.69,0,0,1-1.08-.3,1.29,1.29,0,0,1-.47-.82l0-.48a4.25,4.25,0,0,1-1.53,1.22,4.34,4.34,0,0,1-1.88.43,3.36,3.36,0,0,1-2.34-.84A2.75,2.75,0,0,1,957.79,66.74Zm5.87.48a1.24,1.24,0,0,0,.45-.82v-1a5,5,0,0,0-1.89-.38,2.7,2.7,0,0,0-1.55.41,1.24,1.24,0,0,0-.6,1.07,1.29,1.29,0,0,0,.46,1,1.76,1.76,0,0,0,1.22.41,2.91,2.91,0,0,0,1-.19A2.72,2.72,0,0,0,963.66,67.22Z"/><path class="cls-1" d="M973.61,69.7a5.23,5.23,0,0,1-2.07-.4A4.6,4.6,0,0,1,970,68.23a5.06,5.06,0,0,1-1-1.56,4.88,4.88,0,0,1-.35-1.86,5,5,0,0,1,.59-2.43A4.71,4.71,0,0,1,971,60.6a5.08,5.08,0,0,1,2.64-.67,5,5,0,0,1,2.6.65,4.14,4.14,0,0,1,1.66,1.76l-2.35.73a2.14,2.14,0,0,0-.81-.8,2.33,2.33,0,0,0-2.88.51,3.24,3.24,0,0,0,0,4.06,2.27,2.27,0,0,0,1.75.81,2.32,2.32,0,0,0,1.19-.31,1.74,1.74,0,0,0,.77-.8l2.36.72A4,4,0,0,1,976.25,69,5,5,0,0,1,973.61,69.7Z"/><path class="cls-1" d="M986.26,69.53l-2.75-4.07-1.29,1.26v2.81h-2.41V56.39h2.41v8l3.8-4.23h2.56l-3.51,4,3.76,5.42Z"/><path class="cls-1" d="M994.47,64.82a5.13,5.13,0,0,1,.35-1.87,5,5,0,0,1,1-1.56,4.46,4.46,0,0,1,1.57-1.07,5.32,5.32,0,0,1,2.06-.39,5,5,0,0,1,2.62.68,4.52,4.52,0,0,1,1.72,1.78,5.14,5.14,0,0,1,.59,2.43,5.08,5.08,0,0,1-.35,1.86,4.8,4.8,0,0,1-1,1.56,4.42,4.42,0,0,1-1.56,1.07,5.29,5.29,0,0,1-2.06.39,5.5,5.5,0,0,1-1.7-.26,4.5,4.5,0,0,1-1.38-.71,5.44,5.44,0,0,1-1-1.07,4.36,4.36,0,0,1-.64-1.34A5,5,0,0,1,994.47,64.82Zm5,2.83a2.24,2.24,0,0,0,1.75-.81,3.26,3.26,0,0,0,0-4.06,2.32,2.32,0,0,0-3.51,0,3.28,3.28,0,0,0,0,4.06A2.25,2.25,0,0,0,999.43,67.65Z"/><path class="cls-1" d="M1006.91,69.53v-7.1h-1.24V60.6h1.24V60a4.18,4.18,0,0,1,.86-2.78,2.82,2.82,0,0,1,2.29-1,5.38,5.38,0,0,1,2.32.56l-.48,1.82a2.65,2.65,0,0,0-1.32-.34,1.07,1.07,0,0,0-.93.43,2.06,2.06,0,0,0-.32,1.26v.67h2.3v1.83h-2.3v7.1Z"/><path class="cls-1" d="M1017.83,58.78V56.39h2.41v2.39Zm0,10.75V60.09h2.41v9.44Z"/><path class="cls-1" d="M1031.63,69.53h-2.41v-5.3c0-1.45-.5-2.18-1.49-2.18a2.35,2.35,0,0,0-1.47.57,2.85,2.85,0,0,0-1,1.39v5.52h-2.4V60.09H1025v1.75a3.71,3.71,0,0,1,1.53-1.4,4.78,4.78,0,0,1,2.22-.51,3.14,3.14,0,0,1,1.2.21,2.29,2.29,0,0,1,.82.56,2.68,2.68,0,0,1,.5.84,4.72,4.72,0,0,1,.25,1,7.45,7.45,0,0,1,.07,1.1Z"/><path class="cls-1" d="M1034.13,65.68V63.5h5.45v2.18Z"/><path class="cls-1" d="M1041.5,66.74a2.67,2.67,0,0,1,1.13-2.22,4.69,4.69,0,0,1,2.92-.85,6,6,0,0,1,2.27.38v-.5a1.8,1.8,0,0,0-.53-1.39,2.3,2.3,0,0,0-1.58-.48,3.91,3.91,0,0,0-1.44.26,7.4,7.4,0,0,0-1.5.8l-.78-1.58a7.17,7.17,0,0,1,4-1.23,4.51,4.51,0,0,1,3.14,1,3.66,3.66,0,0,1,1.12,2.88v3a.89.89,0,0,0,.13.55.67.67,0,0,0,.45.19v2a5.43,5.43,0,0,1-1,.12,1.73,1.73,0,0,1-1.08-.3,1.34,1.34,0,0,1-.47-.82l0-.48a4.13,4.13,0,0,1-1.52,1.22,4.37,4.37,0,0,1-1.88.43,3.38,3.38,0,0,1-2.35-.84A2.75,2.75,0,0,1,1041.5,66.74Zm5.87.48a1.24,1.24,0,0,0,.45-.82v-1a4.94,4.94,0,0,0-1.89-.38,2.73,2.73,0,0,0-1.55.41,1.25,1.25,0,0,0-.59,1.07,1.31,1.31,0,0,0,.45,1,1.81,1.81,0,0,0,1.23.41,3,3,0,0,0,1-.19A2.67,2.67,0,0,0,1047.37,67.22Z"/><path class="cls-1" d="M1055.34,67.87v5.49h-2.41V60.09H1055v1.62a3.81,3.81,0,0,1,1.37-1.31,3.7,3.7,0,0,1,1.88-.47,4.07,4.07,0,0,1,2.26.66,4.53,4.53,0,0,1,1.59,1.77,5.36,5.36,0,0,1,.56,2.43,5.81,5.81,0,0,1-.52,2.49,4.38,4.38,0,0,1-1.48,1.77,3.69,3.69,0,0,1-2.12.65,3.8,3.8,0,0,1-1.92-.48A3.43,3.43,0,0,1,1055.34,67.87Zm4.89-3.08a2.88,2.88,0,0,0-.74-2,2.44,2.44,0,0,0-3.24-.35,2.25,2.25,0,0,0-.91,1.13v2.21a3.1,3.1,0,0,0,1,1.34,2.25,2.25,0,0,0,1.43.53,2.16,2.16,0,0,0,1.76-.85A3.06,3.06,0,0,0,1060.23,64.79Z"/><path class="cls-1" d="M1067.2,67.87v5.49h-2.41V60.09h2.11v1.62a3.74,3.74,0,0,1,1.37-1.31,3.67,3.67,0,0,1,1.88-.47,4.09,4.09,0,0,1,2.26.66,4.43,4.43,0,0,1,1.58,1.77,5.24,5.24,0,0,1,.57,2.43,5.82,5.82,0,0,1-.53,2.49,4.28,4.28,0,0,1-1.47,1.77,3.71,3.71,0,0,1-2.12.65,3.8,3.8,0,0,1-1.92-.48A3.43,3.43,0,0,1,1067.2,67.87Zm4.89-3.08a2.84,2.84,0,0,0-.75-2,2.42,2.42,0,0,0-1.86-.81,2.48,2.48,0,0,0-1.38.46,2.23,2.23,0,0,0-.9,1.13v2.21a3.1,3.1,0,0,0,1,1.34,2.25,2.25,0,0,0,1.43.53,2.16,2.16,0,0,0,1.76-.85A3.06,3.06,0,0,0,1072.09,64.79Z"/><path class="cls-1" d="M962.13,92.83h-2.41V87.54a2.9,2.9,0,0,0-.38-1.64,1.23,1.23,0,0,0-1.08-.54,2,2,0,0,0-1.35.55,3.08,3.08,0,0,0-.9,1.43v5.49h-2.42V87.54c0-1.46-.48-2.18-1.46-2.18a2.08,2.08,0,0,0-1.35.54,3,3,0,0,0-.9,1.42v5.51h-2.41V83.4h2.18v1.75a3.85,3.85,0,0,1,1.44-1.42,4.28,4.28,0,0,1,2.07-.5,2.72,2.72,0,0,1,1.79.56,2.4,2.4,0,0,1,.87,1.45,4.12,4.12,0,0,1,1.47-1.49,3.86,3.86,0,0,1,2-.52c1.88,0,2.83,1.24,2.83,3.71Z"/><path class="cls-1" d="M969.05,93a5.15,5.15,0,0,1-2.62-.66,4.57,4.57,0,0,1-1.75-1.77,4.88,4.88,0,0,1-.6-2.4,5.09,5.09,0,0,1,.6-2.46,4.52,4.52,0,0,1,1.75-1.8,5.48,5.48,0,0,1,4.7-.28,4.4,4.4,0,0,1,1.56,1.06,5,5,0,0,1,1,1.55,5.12,5.12,0,0,1,.33,1.83,4.46,4.46,0,0,1-.05.81h-7.29a2.49,2.49,0,0,0,2.5,2.37,2.75,2.75,0,0,0,1.37-.36,1.87,1.87,0,0,0,.86-.93l2.07.58a4.1,4.1,0,0,1-1.69,1.79A5.3,5.3,0,0,1,969.05,93Zm-2.47-5.65h4.93a2.59,2.59,0,0,0-.79-1.71,2.46,2.46,0,0,0-3.35,0A2.55,2.55,0,0,0,966.58,87.35Z"/><path class="cls-1" d="M975.25,90a2.67,2.67,0,0,1,1.13-2.22A4.75,4.75,0,0,1,979.3,87a6,6,0,0,1,2.27.37v-.5a1.82,1.82,0,0,0-.53-1.39,2.3,2.3,0,0,0-1.58-.48,4.13,4.13,0,0,0-1.44.26,7.4,7.4,0,0,0-1.5.8l-.78-1.58a7.17,7.17,0,0,1,4-1.23,4.56,4.56,0,0,1,3.14,1A3.69,3.69,0,0,1,984,87.12v3a.87.87,0,0,0,.13.55.63.63,0,0,0,.45.19v2a5.43,5.43,0,0,1-1,.12,1.73,1.73,0,0,1-1.08-.3,1.29,1.29,0,0,1-.47-.81l-.05-.49a4.13,4.13,0,0,1-1.52,1.22,4.37,4.37,0,0,1-1.88.43,3.38,3.38,0,0,1-2.35-.84A2.74,2.74,0,0,1,975.25,90Zm5.87.49a1.26,1.26,0,0,0,.45-.83v-1a4.94,4.94,0,0,0-1.89-.38,2.73,2.73,0,0,0-1.55.41,1.27,1.27,0,0,0-.59,1.07,1.31,1.31,0,0,0,.45,1,1.77,1.77,0,0,0,1.23.42,3,3,0,0,0,1-.2A2.65,2.65,0,0,0,981.12,90.53Z"/><path class="cls-1" d="M990.15,93a6.66,6.66,0,0,1-2.32-.4A5.24,5.24,0,0,1,986,91.44l.86-1.56a5.29,5.29,0,0,0,3.24,1.33,2.06,2.06,0,0,0,1.13-.26.82.82,0,0,0,.42-.75,1.36,1.36,0,0,0,0-.21.56.56,0,0,0-.09-.17,1,1,0,0,0-.12-.15.56.56,0,0,0-.18-.12l-.22-.11-.28-.1-.31-.1-.36-.11-.4-.12q-.69-.21-1.14-.39c-.29-.12-.58-.26-.86-.41a2.57,2.57,0,0,1-.65-.5,2.18,2.18,0,0,1-.37-.63,2.33,2.33,0,0,1-.13-.83,2.69,2.69,0,0,1,1-2.21,4.38,4.38,0,0,1,2.78-.83,5,5,0,0,1,3.54,1.34l-1,1.53A4.47,4.47,0,0,0,990.19,85a2.07,2.07,0,0,0-1.05.23.77.77,0,0,0-.41.74.75.75,0,0,0,.37.69,5.69,5.69,0,0,0,1.34.5c.52.15.94.28,1.24.39a9.27,9.27,0,0,1,.94.41,2.56,2.56,0,0,1,.74.51,2,2,0,0,1,.41.66,2.29,2.29,0,0,1,.16.9,2.62,2.62,0,0,1-1,2.18A4.41,4.41,0,0,1,990.15,93Z"/><path class="cls-1" d="M995.93,89.3V83.4h2.4v5.38c0,1.45.53,2.18,1.57,2.18a2.43,2.43,0,0,0,1.38-.44,3.21,3.21,0,0,0,1.05-1.28V83.4h2.41v6.73a.94.94,0,0,0,.13.55.63.63,0,0,0,.45.19v2a5.77,5.77,0,0,1-1,.1,1.73,1.73,0,0,1-1.06-.29,1.14,1.14,0,0,1-.47-.82l-.06-.76a4,4,0,0,1-1.6,1.45,4.82,4.82,0,0,1-2.19.49,2.67,2.67,0,0,1-2.22-.94A4.33,4.33,0,0,1,995.93,89.3Z"/><path class="cls-1" d="M1013.2,85.48a4.58,4.58,0,0,0-2,.44,2.56,2.56,0,0,0-1.23,1.2v5.71h-2.41V83.4h2.22v2a4.3,4.3,0,0,1,1.28-1.53,2.9,2.9,0,0,1,1.64-.6h.48Z"/><path class="cls-1" d="M1019.25,93a5.19,5.19,0,0,1-2.63-.66,4.57,4.57,0,0,1-1.75-1.77,4.88,4.88,0,0,1-.6-2.4,5.09,5.09,0,0,1,.6-2.46,4.52,4.52,0,0,1,1.75-1.8,5.5,5.5,0,0,1,4.71-.28,4.45,4.45,0,0,1,1.55,1.06,4.86,4.86,0,0,1,1,1.55,4.92,4.92,0,0,1,.34,1.83,5.61,5.61,0,0,1,0,.81h-7.3a2.49,2.49,0,0,0,2.51,2.37,2.71,2.71,0,0,0,1.36-.36,1.85,1.85,0,0,0,.87-.93l2.06.58a4,4,0,0,1-1.69,1.79A5.24,5.24,0,0,1,1019.25,93Zm-2.47-5.65h4.93a2.6,2.6,0,0,0-.8-1.71,2.46,2.46,0,0,0-3.35,0A2.58,2.58,0,0,0,1016.78,87.35Z"/><path class="cls-1" d="M1040.75,92.83h-2.41V87.54a2.9,2.9,0,0,0-.38-1.64,1.23,1.23,0,0,0-1.08-.54,2,2,0,0,0-1.35.55,3.08,3.08,0,0,0-.9,1.43v5.49h-2.42V87.54c0-1.46-.48-2.18-1.46-2.18a2,2,0,0,0-1.34.54,3,3,0,0,0-.91,1.42v5.51h-2.4V83.4h2.18v1.75a3.75,3.75,0,0,1,1.43-1.42,4.28,4.28,0,0,1,2.07-.5,2.77,2.77,0,0,1,1.8.56,2.5,2.5,0,0,1,.87,1.45,4,4,0,0,1,1.46-1.49,3.86,3.86,0,0,1,2-.52c1.88,0,2.83,1.24,2.83,3.71Z"/><path class="cls-1" d="M1047.67,93a5.15,5.15,0,0,1-2.62-.66,4.57,4.57,0,0,1-1.75-1.77,4.88,4.88,0,0,1-.6-2.4,5.09,5.09,0,0,1,.6-2.46,4.52,4.52,0,0,1,1.75-1.8,5.48,5.48,0,0,1,4.7-.28,4.4,4.4,0,0,1,1.56,1.06,5,5,0,0,1,1,1.55,5.12,5.12,0,0,1,.34,1.83,4.32,4.32,0,0,1-.06.81h-7.29a2.48,2.48,0,0,0,.81,1.72,2.45,2.45,0,0,0,1.69.65,2.75,2.75,0,0,0,1.37-.36A1.94,1.94,0,0,0,1050,90l2.06.58a4.1,4.1,0,0,1-1.69,1.79A5.3,5.3,0,0,1,1047.67,93Zm-2.46-5.65h4.93a2.6,2.6,0,0,0-.8-1.71,2.46,2.46,0,0,0-3.35,0A2.49,2.49,0,0,0,1045.21,87.35Z"/><path class="cls-1" d="M1063.29,92.83h-2.41V87.54c0-1.46-.5-2.18-1.5-2.18a2.39,2.39,0,0,0-1.46.56,2.87,2.87,0,0,0-1,1.4v5.51h-2.41V83.4h2.18v1.75a3.61,3.61,0,0,1,1.53-1.41,4.78,4.78,0,0,1,2.22-.51,3,3,0,0,1,1.2.22,2.36,2.36,0,0,1,.82.55,2.81,2.81,0,0,1,.5.85,4.58,4.58,0,0,1,.25,1,8.94,8.94,0,0,1,.07,1.09Z"/><path class="cls-1" d="M1071.44,92.35a6.77,6.77,0,0,1-2.67.64,3.57,3.57,0,0,1-1-.13,2.69,2.69,0,0,1-.77-.4,1.77,1.77,0,0,1-.54-.73,2.68,2.68,0,0,1-.19-1.06V85.25h-1.24V83.4h1.24V80.34h2.42V83.4h2v1.85h-2v4.61c0,.61.31.92.89.92a3.55,3.55,0,0,0,1.32-.34Z"/><path class="cls-1" d="M951.18,258.34h2.53l4.69,12.78h-2.56l-1.18-3.18h-4.47L949,271.12h-2.56Zm3,7.85-1.77-5.27-1.84,5.27Z"/><path class="cls-1" d="M959.17,266.4a5.6,5.6,0,0,1,.53-2.46,4.42,4.42,0,0,1,1.51-1.77,3.84,3.84,0,0,1,2.17-.65,3.63,3.63,0,0,1,1.86.5,3.82,3.82,0,0,1,1.33,1.32V258H969v10.44a.87.87,0,0,0,.13.55.56.56,0,0,0,.43.19v2a5.86,5.86,0,0,1-1,.13,1.69,1.69,0,0,1-1.07-.33,1.18,1.18,0,0,1-.48-.84l0-.59a3.54,3.54,0,0,1-1.4,1.34,4,4,0,0,1-1.88.47,4.23,4.23,0,0,1-2.31-.65,4.48,4.48,0,0,1-1.6-1.77A5.42,5.42,0,0,1,959.17,266.4Zm7.4,1.27v-2.25a3,3,0,0,0-1-1.31,2.37,2.37,0,0,0-1.43-.53,2.21,2.21,0,0,0-1.77.86,3.12,3.12,0,0,0-.7,2,2.85,2.85,0,0,0,.74,2,2.48,2.48,0,0,0,3.25.35A2.3,2.3,0,0,0,966.57,267.67Z"/><path class="cls-1" d="M977.13,271.12V264h-1.24v-1.84h1.24v-.57a4.29,4.29,0,0,1,.86-2.79,2.83,2.83,0,0,1,2.3-1,5.44,5.44,0,0,1,2.32.56l-.48,1.82a2.65,2.65,0,0,0-1.32-.34,1.09,1.09,0,0,0-.94.43,2.07,2.07,0,0,0-.32,1.25v.67h2.3V264h-2.3v7.09Z"/><path class="cls-1" d="M989.28,263.77a4.73,4.73,0,0,0-2,.44,2.63,2.63,0,0,0-1.23,1.21v5.7h-2.4v-9.43h2.21v2a4.48,4.48,0,0,1,1.28-1.53,2.9,2.9,0,0,1,1.64-.6,2.59,2.59,0,0,1,.48,0Z"/><path class="cls-1" d="M990.37,268.34a2.64,2.64,0,0,1,1.13-2.22,4.7,4.7,0,0,1,2.93-.85,5.77,5.77,0,0,1,2.26.38v-.5a1.75,1.75,0,0,0-.53-1.39,2.23,2.23,0,0,0-1.58-.49,4.13,4.13,0,0,0-1.44.26,7.77,7.77,0,0,0-1.5.81l-.78-1.59a7.17,7.17,0,0,1,4-1.23,4.5,4.5,0,0,1,3.14,1,3.66,3.66,0,0,1,1.12,2.88v3a.94.94,0,0,0,.13.55.63.63,0,0,0,.45.19v2a5.55,5.55,0,0,1-1,.13,1.68,1.68,0,0,1-1.07-.31,1.25,1.25,0,0,1-.47-.81l-.06-.48a4.11,4.11,0,0,1-1.52,1.21,4.35,4.35,0,0,1-1.88.44,3.32,3.32,0,0,1-2.34-.85A2.69,2.69,0,0,1,990.37,268.34Zm5.88.48a1.26,1.26,0,0,0,.44-.83V267a4.76,4.76,0,0,0-1.89-.38,2.62,2.62,0,0,0-1.54.41,1.23,1.23,0,0,0-.6,1.06,1.29,1.29,0,0,0,.46,1,1.72,1.72,0,0,0,1.22.42,3,3,0,0,0,1-.2A2.54,2.54,0,0,0,996.25,268.82Z"/><path class="cls-1" d="M1001.71,267.6v-5.91h2.41v5.38c0,1.45.52,2.18,1.57,2.18a2.48,2.48,0,0,0,1.38-.44,3.18,3.18,0,0,0,1-1.27v-5.85h2.41v6.73a.87.87,0,0,0,.13.55.63.63,0,0,0,.45.19v2a6.05,6.05,0,0,1-1.05.11,1.77,1.77,0,0,1-1.06-.3,1.15,1.15,0,0,1-.47-.82l0-.75a4.08,4.08,0,0,1-1.61,1.45,4.9,4.9,0,0,1-2.19.49,2.68,2.68,0,0,1-2.21-.94A4.36,4.36,0,0,1,1001.71,267.6Z"/><path class="cls-1" d="M1012.79,266.4a5.61,5.61,0,0,1,.54-2.46,4.4,4.4,0,0,1,1.5-1.77,3.88,3.88,0,0,1,2.18-.65,3.59,3.59,0,0,1,1.85.5,3.74,3.74,0,0,1,1.33,1.32V258h2.42v10.44a1,1,0,0,0,.12.55.58.58,0,0,0,.43.19v2a5.75,5.75,0,0,1-1,.13,1.73,1.73,0,0,1-1.07-.33,1.13,1.13,0,0,1-.47-.84l0-.59a3.47,3.47,0,0,1-1.4,1.34,4,4,0,0,1-1.88.47,4.28,4.28,0,0,1-2.31-.65,4.56,4.56,0,0,1-1.6-1.77A5.42,5.42,0,0,1,1012.79,266.4Zm7.4,1.27v-2.25a2.91,2.91,0,0,0-1-1.31,2.35,2.35,0,0,0-1.43-.53,2.2,2.2,0,0,0-1.76.86,3.07,3.07,0,0,0-.71,2,2.81,2.81,0,0,0,.75,2,2.47,2.47,0,0,0,3.24.35A2.25,2.25,0,0,0,1020.19,267.67Z"/><path class="cls-1" d="M951.18,384.52h2.53l4.69,12.78h-2.56l-1.18-3.18h-4.47L949,397.3h-2.56Zm3,7.85-1.77-5.27-1.84,5.27Z"/><path class="cls-1" d="M964.12,397.48a5.36,5.36,0,0,1-2.06-.4,4.64,4.64,0,0,1-1.58-1.07,4.71,4.71,0,0,1-1-1.56,5,5,0,0,1-.36-1.87,5.07,5.07,0,0,1,.59-2.42,4.57,4.57,0,0,1,1.74-1.78,5.15,5.15,0,0,1,2.65-.68,5.09,5.09,0,0,1,2.6.65,4.22,4.22,0,0,1,1.66,1.77l-2.36.72a2.12,2.12,0,0,0-.81-.79,2.32,2.32,0,0,0-2.87.5,2.91,2.91,0,0,0-.71,2,3,3,0,0,0,.72,2,2.25,2.25,0,0,0,1.75.81,2.36,2.36,0,0,0,1.19-.32,1.79,1.79,0,0,0,.77-.8l2.35.72a3.93,3.93,0,0,1-1.63,1.78A5.19,5.19,0,0,1,964.12,397.48Z"/><path class="cls-1" d="M974.64,397.48a5.38,5.38,0,0,1-2.07-.4A4.74,4.74,0,0,1,971,396a5.06,5.06,0,0,1-1-1.56,5.12,5.12,0,0,1,.24-4.29,4.44,4.44,0,0,1,1.74-1.78,5.49,5.49,0,0,1,5.24,0,4.22,4.22,0,0,1,1.66,1.77l-2.35.72a2.12,2.12,0,0,0-.81-.79,2.34,2.34,0,0,0-2.88.5,3.25,3.25,0,0,0,0,4.07,2.27,2.27,0,0,0,1.75.81,2.33,2.33,0,0,0,1.19-.32,1.69,1.69,0,0,0,.77-.8l2.36.72a4,4,0,0,1-1.64,1.78A5.15,5.15,0,0,1,974.64,397.48Z"/><path class="cls-1" d="M980.75,393.78v-5.91h2.41v5.38c0,1.45.52,2.18,1.57,2.18a2.48,2.48,0,0,0,1.38-.44,3.18,3.18,0,0,0,1-1.27v-5.85h2.41v6.73a.87.87,0,0,0,.13.55.63.63,0,0,0,.45.19v2a6,6,0,0,1-1,.11,1.77,1.77,0,0,1-1.06-.3,1.11,1.11,0,0,1-.46-.82l-.06-.75a4.08,4.08,0,0,1-1.61,1.45,4.88,4.88,0,0,1-2.18.49,2.69,2.69,0,0,1-2.22-.94A4.36,4.36,0,0,1,980.75,393.78Z"/><path class="cls-1" d="M998,390a4.81,4.81,0,0,0-2,.44,2.6,2.6,0,0,0-1.22,1.21v5.7h-2.41v-9.43h2.22v2a4.57,4.57,0,0,1,1.27-1.53,2.92,2.92,0,0,1,1.64-.6,2.66,2.66,0,0,1,.49,0Z"/><path class="cls-1" d="M999.12,394.52a2.63,2.63,0,0,1,1.12-2.22,4.72,4.72,0,0,1,2.93-.85,5.82,5.82,0,0,1,2.27.38v-.5a1.79,1.79,0,0,0-.53-1.39,2.25,2.25,0,0,0-1.58-.49,4.08,4.08,0,0,0-1.44.26,7.82,7.82,0,0,0-1.51.81l-.78-1.58a7.12,7.12,0,0,1,4-1.24,4.52,4.52,0,0,1,3.15,1,3.69,3.69,0,0,1,1.12,2.88v3a.87.87,0,0,0,.13.55.63.63,0,0,0,.45.19v2a5.65,5.65,0,0,1-1,.13,1.73,1.73,0,0,1-1.08-.31,1.29,1.29,0,0,1-.47-.81l-.05-.48a4.14,4.14,0,0,1-1.53,1.21,4.31,4.31,0,0,1-1.87.44,3.33,3.33,0,0,1-2.35-.85A2.72,2.72,0,0,1,999.12,394.52Zm5.87.48a1.24,1.24,0,0,0,.45-.83v-.95a4.83,4.83,0,0,0-1.89-.38,2.65,2.65,0,0,0-1.55.41,1.23,1.23,0,0,0-.6,1.06,1.32,1.32,0,0,0,.46,1,1.74,1.74,0,0,0,1.22.42,2.92,2.92,0,0,0,1-.2A2.44,2.44,0,0,0,1005,395Z"/><path class="cls-1" d="M1016.11,396.82a6.56,6.56,0,0,1-2.66.64,3.16,3.16,0,0,1-1-.13,2.4,2.4,0,0,1-.78-.4,1.84,1.84,0,0,1-.53-.73,2.68,2.68,0,0,1-.19-1.06v-5.41h-1.24v-1.86H1011v-3.06h2.41v3.06h2v1.86h-2v4.6c0,.62.32.92.9.92a3.55,3.55,0,0,0,1.32-.34Z"/><path class="cls-1" d="M1022.07,397.48a5.12,5.12,0,0,1-2.63-.67,4.62,4.62,0,0,1-1.75-1.76,5,5,0,0,1-.59-2.41,5.26,5.26,0,0,1,.59-2.46,4.58,4.58,0,0,1,1.75-1.8,5.15,5.15,0,0,1,2.65-.68,5.29,5.29,0,0,1,2.06.4,4.47,4.47,0,0,1,1.56,1.07,4.79,4.79,0,0,1,1,1.54,4.93,4.93,0,0,1,.34,1.84,5.82,5.82,0,0,1,0,.81h-7.3a2.49,2.49,0,0,0,2.51,2.36,2.75,2.75,0,0,0,1.37-.36,1.82,1.82,0,0,0,.86-.92l2.07.58a4.07,4.07,0,0,1-1.69,1.78A5.31,5.31,0,0,1,1022.07,397.48Zm-2.47-5.65h4.93a2.62,2.62,0,0,0-.79-1.72,2.47,2.47,0,0,0-3.36,0A2.59,2.59,0,0,0,1019.6,391.83Z"/><path class="cls-1" d="M1033,394.52a2.64,2.64,0,0,1,1.13-2.22,4.7,4.7,0,0,1,2.93-.85,5.77,5.77,0,0,1,2.26.38v-.5a1.75,1.75,0,0,0-.53-1.39,2.23,2.23,0,0,0-1.58-.49,4.13,4.13,0,0,0-1.44.26,7.77,7.77,0,0,0-1.5.81l-.78-1.58a7.1,7.1,0,0,1,4-1.24,4.5,4.5,0,0,1,3.14,1,3.66,3.66,0,0,1,1.12,2.88v3a.94.94,0,0,0,.13.55.63.63,0,0,0,.45.19v2a5.55,5.55,0,0,1-1,.13,1.68,1.68,0,0,1-1.07-.31,1.25,1.25,0,0,1-.47-.81l-.06-.48a4.11,4.11,0,0,1-1.52,1.21,4.35,4.35,0,0,1-1.88.44,3.32,3.32,0,0,1-2.34-.85A2.69,2.69,0,0,1,1033,394.52Zm5.88.48a1.26,1.26,0,0,0,.44-.83v-.95a4.76,4.76,0,0,0-1.89-.38,2.62,2.62,0,0,0-1.54.41,1.23,1.23,0,0,0-.6,1.06,1.29,1.29,0,0,0,.46,1,1.72,1.72,0,0,0,1.22.42,2.92,2.92,0,0,0,1-.2A2.54,2.54,0,0,0,1038.91,395Z"/><path class="cls-1" d="M1053.22,397.3h-2.4V392c0-1.45-.5-2.18-1.5-2.18a2.4,2.4,0,0,0-1.47.56,2.85,2.85,0,0,0-1,1.4v5.51h-2.41v-9.43h2.18v1.75a3.61,3.61,0,0,1,1.53-1.41,4.78,4.78,0,0,1,2.22-.51,3.21,3.21,0,0,1,1.2.22,2.25,2.25,0,0,1,.82.56,2.66,2.66,0,0,1,.49.84,4.22,4.22,0,0,1,.26,1,9.18,9.18,0,0,1,.06,1.09Z"/><path class="cls-1" d="M1055.2,392.58a5.6,5.6,0,0,1,.53-2.46,4.42,4.42,0,0,1,1.51-1.77,3.84,3.84,0,0,1,2.17-.65,3.56,3.56,0,0,1,1.85.5,3.77,3.77,0,0,1,1.34,1.32v-5.36H1065V394.6a.87.87,0,0,0,.13.55.56.56,0,0,0,.43.19v2a5.86,5.86,0,0,1-1,.13,1.69,1.69,0,0,1-1.07-.33,1.18,1.18,0,0,1-.48-.84l0-.59a3.54,3.54,0,0,1-1.4,1.34,4,4,0,0,1-1.88.47,4.23,4.23,0,0,1-2.31-.65,4.48,4.48,0,0,1-1.6-1.77A5.42,5.42,0,0,1,1055.2,392.58Zm7.4,1.27V391.6a3,3,0,0,0-1-1.31,2.37,2.37,0,0,0-1.43-.53,2.21,2.21,0,0,0-1.77.86,3.07,3.07,0,0,0-.7,2,2.85,2.85,0,0,0,.74,2,2.48,2.48,0,0,0,3.25.35A2.3,2.3,0,0,0,1062.6,393.85Z"/><path class="cls-1" d="M1078.8,384.52l-8.92,12.78h-2.67l8.91-12.78Z"/><path class="cls-1" d="M1079.28,392.6a5.09,5.09,0,0,1,.35-1.87,5,5,0,0,1,1-1.56,4.33,4.33,0,0,1,1.57-1.07,5.33,5.33,0,0,1,2.06-.4,5,5,0,0,1,2.62.69,4.45,4.45,0,0,1,1.72,1.78,5.14,5.14,0,0,1,.59,2.43,5.29,5.29,0,0,1-.34,1.86,4.68,4.68,0,0,1-1,1.55,4.29,4.29,0,0,1-1.56,1.07,5.12,5.12,0,0,1-2.06.4,5.5,5.5,0,0,1-1.7-.26,4.31,4.31,0,0,1-1.38-.72,4.94,4.94,0,0,1-1-1.07,4.31,4.31,0,0,1-.64-1.33A5,5,0,0,1,1079.28,392.6Zm5,2.83a2.24,2.24,0,0,0,1.75-.81,3,3,0,0,0,.71-2,3,3,0,0,0-.71-2,2.32,2.32,0,0,0-3.51,0,3.28,3.28,0,0,0,0,4.06A2.29,2.29,0,0,0,1084.24,395.43Z"/><path class="cls-1" d="M1096.85,390a4.73,4.73,0,0,0-2,.44,2.63,2.63,0,0,0-1.23,1.21v5.7h-2.4v-9.43h2.21v2a4.48,4.48,0,0,1,1.28-1.53,2.9,2.9,0,0,1,1.64-.6,2.59,2.59,0,0,1,.48,0Z"/><path class="cls-1" d="M946.82,417.82A2.67,2.67,0,0,1,948,415.6a4.76,4.76,0,0,1,2.93-.85,6,6,0,0,1,2.26.38v-.5a1.77,1.77,0,0,0-.53-1.39,2.28,2.28,0,0,0-1.58-.48,3.91,3.91,0,0,0-1.44.26,7.67,7.67,0,0,0-1.5.8l-.78-1.58a7.17,7.17,0,0,1,4-1.23,4.54,4.54,0,0,1,3.14,1,3.66,3.66,0,0,1,1.12,2.88v3a.94.94,0,0,0,.13.55.63.63,0,0,0,.45.19v2a5.43,5.43,0,0,1-1,.12,1.68,1.68,0,0,1-1.07-.3,1.29,1.29,0,0,1-.47-.82l-.06-.48a4.13,4.13,0,0,1-1.52,1.22,4.34,4.34,0,0,1-1.88.43,3.36,3.36,0,0,1-2.34-.84A2.72,2.72,0,0,1,946.82,417.82Zm5.88.48a1.26,1.26,0,0,0,.44-.82v-1a4.94,4.94,0,0,0-1.89-.38,2.69,2.69,0,0,0-1.54.41,1.24,1.24,0,0,0-.6,1.07,1.29,1.29,0,0,0,.46,1,1.76,1.76,0,0,0,1.22.41,2.91,2.91,0,0,0,1.05-.19A2.72,2.72,0,0,0,952.7,418.3Z"/><path class="cls-1" d="M962.65,420.78a5.2,5.2,0,0,1-2.07-.4,4.46,4.46,0,0,1-1.58-1.07,5.06,5.06,0,0,1-1-1.56,4.89,4.89,0,0,1-.36-1.86,5,5,0,0,1,.6-2.43,4.48,4.48,0,0,1,1.74-1.77,5,5,0,0,1,2.64-.68,5.09,5.09,0,0,1,2.6.65,4.11,4.11,0,0,1,1.66,1.77l-2.35.72a2.14,2.14,0,0,0-.81-.8,2.33,2.33,0,0,0-2.88.51,3.24,3.24,0,0,0,0,4.06,2.27,2.27,0,0,0,1.75.81,2.32,2.32,0,0,0,1.19-.31,1.79,1.79,0,0,0,.77-.8l2.36.72a4,4,0,0,1-1.64,1.77A5.06,5.06,0,0,1,962.65,420.78Z"/><path class="cls-1" d="M973.16,420.78a5.27,5.27,0,0,1-2.07-.4,4.46,4.46,0,0,1-1.58-1.07,5.14,5.14,0,0,1-.75-5.85,4.62,4.62,0,0,1,1.74-1.77,5.49,5.49,0,0,1,5.24,0,4.13,4.13,0,0,1,1.67,1.77l-2.36.72a2.14,2.14,0,0,0-.81-.8,2.33,2.33,0,0,0-2.88.51,2.91,2.91,0,0,0-.7,2,3,3,0,0,0,.72,2,2.25,2.25,0,0,0,1.74.81,2.39,2.39,0,0,0,1.2-.31,1.77,1.77,0,0,0,.76-.8l2.36.72a4,4,0,0,1-1.63,1.77A5.09,5.09,0,0,1,973.16,420.78Z"/><path class="cls-1" d="M983.66,420.78a5.07,5.07,0,0,1-2.63-.67,4.48,4.48,0,0,1-1.75-1.76,4.91,4.91,0,0,1-.6-2.4,5.16,5.16,0,0,1,.6-2.47,4.56,4.56,0,0,1,1.75-1.79,5,5,0,0,1,2.64-.68,5.29,5.29,0,0,1,2.06.39,4.42,4.42,0,0,1,1.56,1.07,5,5,0,0,1,1,1.54,5.18,5.18,0,0,1,.34,1.84,4.39,4.39,0,0,1-.06.81h-7.29a2.5,2.5,0,0,0,.81,1.72,2.44,2.44,0,0,0,1.69.64,2.74,2.74,0,0,0,1.37-.35,1.94,1.94,0,0,0,.87-.93l2.06.58a4.07,4.07,0,0,1-1.69,1.78A5.2,5.2,0,0,1,983.66,420.78Zm-2.47-5.65h4.93a2.65,2.65,0,0,0-.8-1.72,2.37,2.37,0,0,0-1.68-.65,2.33,2.33,0,0,0-1.67.66A2.49,2.49,0,0,0,981.19,415.13Z"/><path class="cls-1" d="M994,420.78a6.62,6.62,0,0,1-2.32-.4,5.28,5.28,0,0,1-1.88-1.16l.86-1.57a5.33,5.33,0,0,0,3.25,1.34,2.17,2.17,0,0,0,1.13-.26.84.84,0,0,0,.41-.75.68.68,0,0,0,0-.21.38.38,0,0,0-.08-.17l-.12-.15a.87.87,0,0,0-.19-.13l-.22-.1-.28-.11-.3-.09-.37-.11-.39-.12c-.47-.14-.85-.28-1.14-.39a7,7,0,0,1-.87-.42,2.52,2.52,0,0,1-.65-.5,2,2,0,0,1-.36-.62,2.37,2.37,0,0,1-.14-.83,2.67,2.67,0,0,1,1.05-2.21,4.33,4.33,0,0,1,2.77-.83,5,5,0,0,1,3.55,1.34l-1,1.53a4.49,4.49,0,0,0-2.68-1.09,2.2,2.2,0,0,0-1,.23.8.8,0,0,0-.41.75.75.75,0,0,0,.37.69,6,6,0,0,0,1.35.5q.78.22,1.23.39a7.57,7.57,0,0,1,1,.41,2.65,2.65,0,0,1,.74.51,2.17,2.17,0,0,1,.56,1.55,2.62,2.62,0,0,1-1,2.19A4.36,4.36,0,0,1,994,420.78Z"/><path class="cls-1" d="M1003.31,420.78a6.66,6.66,0,0,1-2.32-.4,5.24,5.24,0,0,1-1.87-1.16l.86-1.57a5.33,5.33,0,0,0,3.24,1.34,2.15,2.15,0,0,0,1.13-.26.82.82,0,0,0,.42-.75,1.25,1.25,0,0,0,0-.21.56.56,0,0,0-.09-.17,1,1,0,0,0-.12-.15.59.59,0,0,0-.18-.13l-.22-.1-.28-.11-.31-.09-.36-.11-.4-.12c-.46-.14-.84-.28-1.13-.39a7,7,0,0,1-.87-.42,2.36,2.36,0,0,1-.65-.5,2,2,0,0,1-.37-.62,2.37,2.37,0,0,1-.13-.83,2.69,2.69,0,0,1,1-2.21,4.38,4.38,0,0,1,2.78-.83,5,5,0,0,1,3.54,1.34l-1,1.53a4.49,4.49,0,0,0-2.68-1.09,2.18,2.18,0,0,0-1.05.23.8.8,0,0,0-.41.75.75.75,0,0,0,.37.69,5.69,5.69,0,0,0,1.34.5c.52.15.94.28,1.24.39a7.57,7.57,0,0,1,.95.41,2.44,2.44,0,0,1,.73.51,2,2,0,0,1,.41.66,2.21,2.21,0,0,1,.16.89,2.62,2.62,0,0,1-1,2.19A4.39,4.39,0,0,1,1003.31,420.78Z"/><path class="cls-1" d="M1009.18,409.86v-2.39h2.4v2.39Zm0,10.75v-9.43h2.4v9.43Z"/><path class="cls-1" d="M1016.32,419v1.64h-2.11V407.47h2.41v5.36a3.69,3.69,0,0,1,1.34-1.35,3.86,3.86,0,0,1,1.91-.47,3.54,3.54,0,0,1,2.14.68,4.38,4.38,0,0,1,1.47,1.79,5.87,5.87,0,0,1,.51,2.45,5.31,5.31,0,0,1-.57,2.46,4.41,4.41,0,0,1-1.59,1.75,4.12,4.12,0,0,1-2.25.64,3.85,3.85,0,0,1-1.92-.48A3.56,3.56,0,0,1,1016.32,419Zm5.2-3a3.08,3.08,0,0,0-.71-2,2.17,2.17,0,0,0-1.75-.86,2.27,2.27,0,0,0-1.43.52,3.48,3.48,0,0,0-1,1.32v2.25a2.23,2.23,0,0,0,.91,1.14,2.49,2.49,0,0,0,3.25-.37A2.84,2.84,0,0,0,1021.52,416Z"/><path class="cls-1" d="M1026.05,407.47h2.41v10.11a1.37,1.37,0,0,0,.2.86.76.76,0,0,0,.61.24,2.62,2.62,0,0,0,1.13-.25l.33,1.83a4.61,4.61,0,0,1-1.12.35,5.72,5.72,0,0,1-1.18.14,2.42,2.42,0,0,1-1.75-.61,2.26,2.26,0,0,1-.63-1.71Z"/><path class="cls-1" d="M1036.6,420.78a5.12,5.12,0,0,1-2.63-.67,4.46,4.46,0,0,1-1.74-1.76,4.91,4.91,0,0,1-.6-2.4,5.16,5.16,0,0,1,.6-2.47,4.53,4.53,0,0,1,1.74-1.79,5.05,5.05,0,0,1,2.65-.68,5.29,5.29,0,0,1,2.06.39,4.61,4.61,0,0,1,1.56,1.07,5,5,0,0,1,1,1.54,5.17,5.17,0,0,1,.33,1.84,4.53,4.53,0,0,1,0,.81h-7.29a2.46,2.46,0,0,0,2.5,2.36,2.74,2.74,0,0,0,1.37-.35,1.87,1.87,0,0,0,.86-.93l2.07.58a4.07,4.07,0,0,1-1.69,1.78A5.21,5.21,0,0,1,1036.6,420.78Zm-2.47-5.65h4.93a2.64,2.64,0,0,0-.79-1.72,2.38,2.38,0,0,0-1.69-.65,2.31,2.31,0,0,0-1.66.66A2.55,2.55,0,0,0,1034.13,415.13Z"/><path class="cls-1" d="M1047.57,417.82a2.66,2.66,0,0,1,1.12-2.22,4.78,4.78,0,0,1,2.93-.85,6,6,0,0,1,2.27.38v-.5a1.77,1.77,0,0,0-.54-1.39,2.27,2.27,0,0,0-1.57-.48,3.92,3.92,0,0,0-1.45.26,8,8,0,0,0-1.5.8l-.78-1.58a7.19,7.19,0,0,1,4-1.23,4.52,4.52,0,0,1,3.14,1,3.66,3.66,0,0,1,1.12,2.88v3a.87.87,0,0,0,.14.55.59.59,0,0,0,.44.19v2a5.34,5.34,0,0,1-1,.12,1.69,1.69,0,0,1-1.08-.3,1.29,1.29,0,0,1-.47-.82l0-.48a4.25,4.25,0,0,1-1.53,1.22,4.34,4.34,0,0,1-1.88.43,3.36,3.36,0,0,1-2.34-.84A2.74,2.74,0,0,1,1047.57,417.82Zm5.87.48a1.24,1.24,0,0,0,.45-.82v-1a5,5,0,0,0-1.89-.38,2.7,2.7,0,0,0-1.55.41,1.24,1.24,0,0,0-.6,1.07,1.29,1.29,0,0,0,.46,1,1.76,1.76,0,0,0,1.22.41,2.91,2.91,0,0,0,1-.19A2.72,2.72,0,0,0,1053.44,418.3Z"/><path class="cls-1" d="M1058.41,415.89a5.55,5.55,0,0,1,.54-2.46,4.29,4.29,0,0,1,1.51-1.77,3.82,3.82,0,0,1,2.17-.65,3.56,3.56,0,0,1,1.85.49,3.77,3.77,0,0,1,1.33,1.33v-5.36h2.42v10.44a1,1,0,0,0,.12.55.61.61,0,0,0,.44.19v2a5.71,5.71,0,0,1-1,.12,1.74,1.74,0,0,1-1.07-.32,1.18,1.18,0,0,1-.48-.85l0-.59a3.45,3.45,0,0,1-1.39,1.34,4,4,0,0,1-1.88.47,4.29,4.29,0,0,1-2.32-.65,4.4,4.4,0,0,1-1.59-1.77A5.26,5.26,0,0,1,1058.41,415.89Zm7.4,1.26V414.9a2.89,2.89,0,0,0-1-1.31,2.37,2.37,0,0,0-1.43-.53,2.21,2.21,0,0,0-1.77.86,3.09,3.09,0,0,0-.7,2,2.84,2.84,0,0,0,.74,2,2.43,2.43,0,0,0,1.87.8,2.46,2.46,0,0,0,1.38-.45A2.23,2.23,0,0,0,1065.81,417.15Z"/><path class="cls-1" d="M951.85,444.09a5.22,5.22,0,0,1-2.63-.67,4.62,4.62,0,0,1-1.75-1.76,5.06,5.06,0,0,1-.59-2.41,5.23,5.23,0,0,1,.59-2.46,4.58,4.58,0,0,1,1.75-1.8,5.5,5.5,0,0,1,4.71-.28,4.47,4.47,0,0,1,1.56,1.07,4.68,4.68,0,0,1,1,1.54,4.93,4.93,0,0,1,.34,1.84,5.56,5.56,0,0,1,0,.8h-7.3a2.49,2.49,0,0,0,2.51,2.37,2.75,2.75,0,0,0,1.37-.36,1.84,1.84,0,0,0,.86-.93l2.07.58a4.1,4.1,0,0,1-1.69,1.79A5.31,5.31,0,0,1,951.85,444.09Zm-2.47-5.66h4.93a2.62,2.62,0,0,0-.79-1.71,2.47,2.47,0,0,0-3.36,0A2.58,2.58,0,0,0,949.38,438.43Z"/><path class="cls-1" d="M959.22,443.91v-7.09H958V435h1.24v-.57a4.19,4.19,0,0,1,.86-2.79,2.81,2.81,0,0,1,2.29-1,5.24,5.24,0,0,1,2.32.56l-.48,1.82a2.66,2.66,0,0,0-1.32-.35,1.08,1.08,0,0,0-.93.44,2,2,0,0,0-.32,1.25V435h2.3v1.84h-2.3v7.09Z"/><path class="cls-1" d="M966.32,443.91v-7.09h-1.24V435h1.24v-.57a4.25,4.25,0,0,1,.86-2.79,2.83,2.83,0,0,1,2.3-1,5.3,5.3,0,0,1,2.32.56l-.49,1.82a2.65,2.65,0,0,0-1.31-.35,1.1,1.1,0,0,0-.94.44,2.07,2.07,0,0,0-.32,1.25V435H971v1.84h-2.3v7.09Z"/><path class="cls-1" d="M977.11,444.09a5.19,5.19,0,0,1-2.63-.67,4.55,4.55,0,0,1-1.75-1.76,5,5,0,0,1-.6-2.41,5.12,5.12,0,0,1,.6-2.46,4.52,4.52,0,0,1,1.75-1.8,5.5,5.5,0,0,1,4.71-.28,4.34,4.34,0,0,1,1.55,1.07,4.71,4.71,0,0,1,1,1.54,5.14,5.14,0,0,1,.34,1.84,5.56,5.56,0,0,1,0,.8h-7.3a2.48,2.48,0,0,0,.81,1.72,2.46,2.46,0,0,0,1.7.65,2.71,2.71,0,0,0,1.36-.36,1.81,1.81,0,0,0,.87-.93l2.06.58a4,4,0,0,1-1.69,1.79A5.27,5.27,0,0,1,977.11,444.09Zm-2.47-5.66h4.93a2.63,2.63,0,0,0-.8-1.71,2.46,2.46,0,0,0-3.35,0A2.58,2.58,0,0,0,974.64,438.43Z"/><path class="cls-1" d="M988.35,444.09a5.36,5.36,0,0,1-2.06-.4,4.57,4.57,0,0,1-1.59-1.08,4.83,4.83,0,0,1-1-1.56,5.08,5.08,0,0,1-.35-1.86,5.14,5.14,0,0,1,.59-2.43,4.62,4.62,0,0,1,1.74-1.77,5.14,5.14,0,0,1,2.64-.68,5,5,0,0,1,2.6.65,4.24,4.24,0,0,1,1.67,1.77l-2.36.72a2.17,2.17,0,0,0-1.92-1.08,2.26,2.26,0,0,0-1.77.79,2.93,2.93,0,0,0-.7,2,3,3,0,0,0,.72,2,2.25,2.25,0,0,0,1.75.81,2.39,2.39,0,0,0,1.19-.32,1.84,1.84,0,0,0,.77-.8l2.35.72a3.86,3.86,0,0,1-1.63,1.77A5.1,5.1,0,0,1,988.35,444.09Z"/><path class="cls-1" d="M1000.21,443.43a6.73,6.73,0,0,1-2.66.64,3.46,3.46,0,0,1-.95-.13,2.4,2.4,0,0,1-.78-.4,1.75,1.75,0,0,1-.53-.73,2.67,2.67,0,0,1-.2-1.06v-5.42h-1.24v-1.85h1.24v-3.06h2.42v3.06h2v1.85h-2v4.61c0,.61.32.92.9.92a3.55,3.55,0,0,0,1.32-.34Z"/><path class="cls-1" d="M1001.92,433.16v-2.39h2.4v2.39Zm0,10.75v-9.43h2.4v9.43Z"/><path class="cls-1" d="M1009.49,443.91l-3.48-9.43h2.51l2.37,7.23,2.4-7.23h2.29l-3.46,9.43Z"/><path class="cls-1" d="M1021.35,444.09a5.22,5.22,0,0,1-2.63-.67,4.62,4.62,0,0,1-1.75-1.76,5.06,5.06,0,0,1-.59-2.41,5.23,5.23,0,0,1,.59-2.46,4.58,4.58,0,0,1,1.75-1.8,5.5,5.5,0,0,1,4.71-.28,4.47,4.47,0,0,1,1.56,1.07,4.68,4.68,0,0,1,1,1.54,4.93,4.93,0,0,1,.34,1.84,5.56,5.56,0,0,1,0,.8h-7.3a2.49,2.49,0,0,0,2.51,2.37,2.75,2.75,0,0,0,1.37-.36,1.84,1.84,0,0,0,.86-.93l2.07.58a4.1,4.1,0,0,1-1.69,1.79A5.31,5.31,0,0,1,1021.35,444.09Zm-2.47-5.66h4.93a2.62,2.62,0,0,0-.79-1.71,2.47,2.47,0,0,0-3.36,0A2.58,2.58,0,0,0,1018.88,438.43Z"/><path class="cls-1" d="M1037,443.91h-2.41v-5.29c0-1.45-.49-2.18-1.49-2.18a2.4,2.4,0,0,0-1.47.56,2.79,2.79,0,0,0-1,1.4v5.51h-2.41v-9.43h2.18v1.75a3.64,3.64,0,0,1,1.52-1.41,4.83,4.83,0,0,1,2.22-.51,3,3,0,0,1,1.2.22,2.21,2.21,0,0,1,.83.56,2.55,2.55,0,0,1,.49.84,4.61,4.61,0,0,1,.26,1A9.06,9.06,0,0,1,1037,438Z"/><path class="cls-1" d="M1043.89,444.09a5.22,5.22,0,0,1-2.63-.67,4.62,4.62,0,0,1-1.75-1.76,5.06,5.06,0,0,1-.59-2.41,5.23,5.23,0,0,1,.59-2.46,4.58,4.58,0,0,1,1.75-1.8,5.5,5.5,0,0,1,4.71-.28,4.34,4.34,0,0,1,1.55,1.07,4.55,4.55,0,0,1,1,1.54,4.93,4.93,0,0,1,.34,1.84,5.56,5.56,0,0,1,0,.8h-7.3a2.49,2.49,0,0,0,2.51,2.37,2.71,2.71,0,0,0,1.36-.36,1.81,1.81,0,0,0,.87-.93l2.07.58a4.12,4.12,0,0,1-1.7,1.79A5.24,5.24,0,0,1,1043.89,444.09Zm-2.47-5.66h4.93a2.62,2.62,0,0,0-.79-1.71,2.47,2.47,0,0,0-3.36,0A2.58,2.58,0,0,0,1041.42,438.43Z"/><path class="cls-1" d="M1054.21,444.09a6.66,6.66,0,0,1-2.32-.41,5.1,5.1,0,0,1-1.87-1.16l.86-1.56a5.29,5.29,0,0,0,3.24,1.33,2.06,2.06,0,0,0,1.13-.26.82.82,0,0,0,.42-.75,1.23,1.23,0,0,0,0-.2.61.61,0,0,0-.09-.18l-.12-.15a.56.56,0,0,0-.18-.12l-.22-.11-.28-.1-.31-.1-.36-.11-.4-.11c-.46-.15-.84-.28-1.14-.4a7.49,7.49,0,0,1-.86-.41,2.57,2.57,0,0,1-.65-.5,2.18,2.18,0,0,1-.37-.63,2.31,2.31,0,0,1-.13-.82,2.7,2.7,0,0,1,1-2.22,4.38,4.38,0,0,1,2.78-.83,5,5,0,0,1,3.54,1.34l-1,1.53a4.47,4.47,0,0,0-2.68-1.08,2.18,2.18,0,0,0-1,.23.77.77,0,0,0-.41.74.73.73,0,0,0,.37.69,5.69,5.69,0,0,0,1.34.5c.52.15.94.28,1.24.39s.62.25,1,.41a2.64,2.64,0,0,1,.73.52,1.85,1.85,0,0,1,.41.65,2.29,2.29,0,0,1,.16.9,2.62,2.62,0,0,1-1,2.18A4.4,4.4,0,0,1,1054.21,444.09Z"/><path class="cls-1" d="M1063.55,444.09a6.62,6.62,0,0,1-2.32-.41,5.14,5.14,0,0,1-1.88-1.16l.87-1.56a5.27,5.27,0,0,0,3.24,1.33,2.08,2.08,0,0,0,1.13-.26.82.82,0,0,0,.42-.75.64.64,0,0,0,0-.2.42.42,0,0,0-.08-.18,1.31,1.31,0,0,1-.12-.15.62.62,0,0,0-.19-.12l-.22-.11-.28-.1-.3-.1-.37-.11-.39-.11c-.46-.15-.84-.28-1.14-.4a7.63,7.63,0,0,1-.87-.41,2.76,2.76,0,0,1-.65-.5,2.16,2.16,0,0,1-.36-.63,2.31,2.31,0,0,1-.14-.82,2.68,2.68,0,0,1,1.05-2.22,4.36,4.36,0,0,1,2.78-.83,5,5,0,0,1,3.54,1.34l-1,1.53a4.45,4.45,0,0,0-2.68-1.08,2.13,2.13,0,0,0-1,.23.78.78,0,0,0-.42.74.74.74,0,0,0,.37.69,6,6,0,0,0,1.35.5c.52.15.93.28,1.24.39a9.27,9.27,0,0,1,.94.41,2.71,2.71,0,0,1,.74.52,2,2,0,0,1,.41.65,2.49,2.49,0,0,1,.16.9,2.63,2.63,0,0,1-1,2.18A4.37,4.37,0,0,1,1063.55,444.09Z"/><path class="cls-1" d="M953.09,459.87a4.44,4.44,0,0,0-2,.44,2.56,2.56,0,0,0-1.23,1.2v5.7h-2.41v-9.43h2.22v2a4.3,4.3,0,0,1,1.28-1.53,2.91,2.91,0,0,1,1.64-.61,4.06,4.06,0,0,1,.48,0Z"/><path class="cls-1" d="M959.14,467.39a5.12,5.12,0,0,1-2.63-.67,4.48,4.48,0,0,1-1.75-1.76,4.9,4.9,0,0,1-.59-2.4,5.15,5.15,0,0,1,.59-2.47,4.52,4.52,0,0,1,1.75-1.8,5.14,5.14,0,0,1,2.65-.67,5.32,5.32,0,0,1,2.06.39,4.47,4.47,0,0,1,1.55,1.07,4.65,4.65,0,0,1,1,1.54,4.93,4.93,0,0,1,.34,1.84,5.82,5.82,0,0,1-.05.81h-7.3a2.5,2.5,0,0,0,.81,1.72,2.47,2.47,0,0,0,1.7.64,2.81,2.81,0,0,0,1.36-.35,1.85,1.85,0,0,0,.87-.93l2.07.58a4.1,4.1,0,0,1-1.7,1.78A5.24,5.24,0,0,1,959.14,467.39Zm-2.47-5.65h4.93a2.65,2.65,0,0,0-.8-1.72,2.48,2.48,0,0,0-3.35,0A2.61,2.61,0,0,0,956.67,461.74Z"/><path class="cls-1" d="M969.46,467.39a6.9,6.9,0,0,1-2.32-.4,5.24,5.24,0,0,1-1.87-1.16l.86-1.57a5.28,5.28,0,0,0,3.24,1.34,2.15,2.15,0,0,0,1.13-.26.85.85,0,0,0,.42-.75,1.25,1.25,0,0,0,0-.21.76.76,0,0,0-.09-.18l-.12-.14a.76.76,0,0,0-.18-.13l-.22-.1-.29-.11-.3-.1-.36-.1-.4-.12c-.46-.15-.84-.28-1.14-.4a6.13,6.13,0,0,1-.86-.41,2.36,2.36,0,0,1-.65-.5,1.93,1.93,0,0,1-.37-.62,2.37,2.37,0,0,1-.13-.83,2.68,2.68,0,0,1,1-2.22,4.38,4.38,0,0,1,2.78-.82,5,5,0,0,1,3.54,1.33l-1,1.53a4.5,4.5,0,0,0-2.68-1.08,2.15,2.15,0,0,0-1,.23.78.78,0,0,0-.41.75.75.75,0,0,0,.37.69,5.79,5.79,0,0,0,1.34.49l1.24.4a7.34,7.34,0,0,1,.94.4,2.71,2.71,0,0,1,.74.52,2.06,2.06,0,0,1,.41.65,2.29,2.29,0,0,1,.16.9,2.6,2.6,0,0,1-1,2.18A4.42,4.42,0,0,1,969.46,467.39Z"/><path class="cls-1" d="M979.7,467.39a5.12,5.12,0,0,1-2.63-.67,4.48,4.48,0,0,1-1.75-1.76,4.9,4.9,0,0,1-.59-2.4,5.15,5.15,0,0,1,.59-2.47,4.52,4.52,0,0,1,1.75-1.8,5.14,5.14,0,0,1,2.65-.67,5.32,5.32,0,0,1,2.06.39,4.47,4.47,0,0,1,1.55,1.07,4.65,4.65,0,0,1,1,1.54,4.93,4.93,0,0,1,.34,1.84,5.82,5.82,0,0,1,0,.81h-7.3a2.5,2.5,0,0,0,.81,1.72,2.47,2.47,0,0,0,1.7.64,2.81,2.81,0,0,0,1.36-.35,1.85,1.85,0,0,0,.87-.93l2.07.58a4.1,4.1,0,0,1-1.7,1.78A5.24,5.24,0,0,1,979.7,467.39Zm-2.47-5.65h4.93a2.64,2.64,0,0,0-.79-1.72,2.5,2.5,0,0,0-3.36,0A2.61,2.61,0,0,0,977.23,461.74Z"/><path class="cls-1" d="M985.9,464.43a2.63,2.63,0,0,1,1.12-2.22,4.72,4.72,0,0,1,2.93-.85,6,6,0,0,1,2.27.38v-.5a1.79,1.79,0,0,0-.53-1.39,2.3,2.3,0,0,0-1.58-.48,4,4,0,0,0-1.44.25,8.41,8.41,0,0,0-1.51.81l-.78-1.58a7.19,7.19,0,0,1,4-1.23,4.48,4.48,0,0,1,3.14,1,3.66,3.66,0,0,1,1.13,2.88v3a.84.84,0,0,0,.13.54.59.59,0,0,0,.45.19v2a4.88,4.88,0,0,1-1,.13,1.65,1.65,0,0,1-1.08-.31,1.29,1.29,0,0,1-.47-.81l0-.48a4.14,4.14,0,0,1-1.53,1.21,4.31,4.31,0,0,1-1.87.44,3.37,3.37,0,0,1-2.35-.84A2.75,2.75,0,0,1,985.9,464.43Zm5.87.48a1.24,1.24,0,0,0,.45-.83v-.95a5,5,0,0,0-1.89-.38,2.73,2.73,0,0,0-1.55.41,1.24,1.24,0,0,0-.6,1.07,1.29,1.29,0,0,0,.46,1,1.74,1.74,0,0,0,1.22.42,2.72,2.72,0,0,0,1-.2A2.54,2.54,0,0,0,991.77,464.91Z"/><path class="cls-1" d="M1002.94,459.87a4.44,4.44,0,0,0-2,.44,2.56,2.56,0,0,0-1.23,1.2v5.7h-2.4v-9.43h2.21v2a4.4,4.4,0,0,1,1.28-1.53,2.91,2.91,0,0,1,1.64-.61,4.06,4.06,0,0,1,.48,0Z"/><path class="cls-1" d="M1009,467.39a5.23,5.23,0,0,1-2.07-.4,4.6,4.6,0,0,1-1.58-1.07,5.06,5.06,0,0,1-1-1.56,5.22,5.22,0,0,1,.24-4.29,4.64,4.64,0,0,1,1.74-1.78,5.13,5.13,0,0,1,2.64-.67,5,5,0,0,1,2.6.65,4.14,4.14,0,0,1,1.66,1.76l-2.35.72a2.12,2.12,0,0,0-.81-.79,2.25,2.25,0,0,0-1.12-.29,2.29,2.29,0,0,0-1.76.79,3.25,3.25,0,0,0,0,4.07,2.28,2.28,0,0,0,1.75.81,2.32,2.32,0,0,0,1.19-.31,1.79,1.79,0,0,0,.77-.8l2.36.72a3.93,3.93,0,0,1-1.64,1.77A5,5,0,0,1,1009,467.39Z"/><path class="cls-1" d="M1024,467.21h-2.41v-5.29a2.72,2.72,0,0,0-.41-1.63,1.38,1.38,0,0,0-1.17-.55,2.22,2.22,0,0,0-1.39.57,2.83,2.83,0,0,0-1,1.39v5.51h-2.4V454.07h2.4v5.46a3.86,3.86,0,0,1,3.39-1.91c2,0,3,1.23,3,3.71Z"/><path class="cls-1" d="M408.87,79.86A79.86,79.86,0,1,1,329,0,79.86,79.86,0,0,1,408.87,79.86Z"/><path class="cls-2" d="M551.27,79.86a60.59,60.59,0,1,1-60.58-60.58A60.59,60.59,0,0,1,551.27,79.86Z"/><path class="cls-1" d="M388.21,266.44a59.2,59.2,0,1,1-59.2-59.2A59.2,59.2,0,0,1,388.21,266.44Z"/><path class="cls-2" d="M543,266.44a52.32,52.32,0,1,1-52.31-52.31A52.31,52.31,0,0,1,543,266.44Z"/><circle class="cls-1" cx="329.01" cy="434.89" r="44.06" transform="translate(-211.15 360.02) rotate(-45)"/><path class="cls-2" d="M541.63,434.89A50.95,50.95,0,1,1,490.69,384,50.95,50.95,0,0,1,541.63,434.89Z"/><path class="cls-1" d="M754.54,79.86a42.68,42.68,0,1,1-42.68-42.69A42.68,42.68,0,0,1,754.54,79.86Z"/><path class="cls-2" d="M906.28,79.86a62,62,0,1,1-62-62A62,62,0,0,1,906.28,79.86Z"/><path class="cls-1" d="M754.2,266.44a42.27,42.27,0,1,1-42.27-42.26A42.27,42.27,0,0,1,754.2,266.44Z"/><path class="cls-2" d="M903.52,266.44a59.2,59.2,0,1,1-59.2-59.2A59.2,59.2,0,0,1,903.52,266.44Z"/><path class="cls-1" d="M740.52,434.08a28.06,28.06,0,1,1-28-28.05A28.05,28.05,0,0,1,740.52,434.08Z"/><path class="cls-2" d="M882.41,434.89a38.09,38.09,0,1,1-38.09-38.09A38.09,38.09,0,0,1,882.41,434.89Z"/><path class="cls-3" d="M286.78,94.93a11.21,11.21,0,0,1-4.72-1,7.5,7.5,0,0,1-3.24-2.71l3.48-4a7.07,7.07,0,0,0,2.16,1.59,5.29,5.29,0,0,0,2.34.57,2.75,2.75,0,0,0,1.94-.66,2.33,2.33,0,0,0,.71-1.78,2.43,2.43,0,0,0-.65-1.74,2.19,2.19,0,0,0-1.67-.67,2.74,2.74,0,0,0-1.29.32,2.27,2.27,0,0,0-.91.85h-5.45l2.78-14.58,11.95,0v5.7l-7.36,0-.35,2.55a5,5,0,0,1,1.54-.17,7.89,7.89,0,0,1,5.71,2.11A7.28,7.28,0,0,1,296,86.87a7.36,7.36,0,0,1-2.55,5.8A9.78,9.78,0,0,1,286.78,94.93Z"/><path class="cls-3" d="M308.63,94.9a10.82,10.82,0,0,1-3.41-.54,9.46,9.46,0,0,1-2.88-1.54,7.35,7.35,0,0,1-2-2.48,7.19,7.19,0,0,1-.74-3.23,5,5,0,0,1,.83-2.86,8.2,8.2,0,0,1,2-2.15,4.41,4.41,0,0,1-1.59-1.69,4.63,4.63,0,0,1-.64-2.27,6,6,0,0,1,.77-3,6.55,6.55,0,0,1,2-2.2,10.14,10.14,0,0,1,2.66-1.31,9.09,9.09,0,0,1,2.87-.48,10,10,0,0,1,2.29.27,9.2,9.2,0,0,1,2.25.85A9,9,0,0,1,315,73.65a6,6,0,0,1,1.38,1.94,5.9,5.9,0,0,1,.52,2.44,4.7,4.7,0,0,1-.65,2.32,4.36,4.36,0,0,1-1.6,1.71,8,8,0,0,1,2.06,2.2,5.35,5.35,0,0,1,.85,3,6.81,6.81,0,0,1-1.2,4,7.84,7.84,0,0,1-3.25,2.7A10.82,10.82,0,0,1,308.63,94.9Zm1.78-9.64a3,3,0,0,0-3.63,0,2.11,2.11,0,0,0-.7,1.66,2.09,2.09,0,0,0,.73,1.61,2.59,2.59,0,0,0,1.8.65,2.53,2.53,0,0,0,1.8-.66,2.14,2.14,0,0,0,.7-1.62A2.06,2.06,0,0,0,310.41,85.26Zm-3.12-5.71a2.08,2.08,0,0,0,2.6,0,1.6,1.6,0,0,0,.56-1.3,1.45,1.45,0,0,0-.53-1.12,2,2,0,0,0-1.34-.45,2,2,0,0,0-1.34.46,1.46,1.46,0,0,0-.51,1.12A1.6,1.6,0,0,0,307.29,79.55Z"/><path class="cls-3" d="M321.73,94.54V88.47h5.18l0,6.07Z"/><path class="cls-3" d="M346.53,81.07a7.14,7.14,0,0,1,2.41,5.47,7.69,7.69,0,0,1-2.55,5.87A9,9,0,0,1,340,94.82a7.92,7.92,0,0,1-6.63-3q-2.36-3-2.37-8.5,0-5.79,2.54-9.1a8.41,8.41,0,0,1,7-3.33A10.45,10.45,0,0,1,348.2,74l-3.52,4a5.8,5.8,0,0,0-4.17-1.76,3.47,3.47,0,0,0-2.58,1,4,4,0,0,0-1,2.74,5.34,5.34,0,0,1,3.62-1.13A8.52,8.52,0,0,1,346.53,81.07ZM338,88.68a2.7,2.7,0,0,0,2,.9,2.67,2.67,0,0,0,2-.91,3,3,0,0,0,.85-2.11,2.6,2.6,0,0,0-.84-2,2.79,2.79,0,0,0-2-.8,2.76,2.76,0,0,0-2,.81,2.58,2.58,0,0,0-.83,2A3,3,0,0,0,338,88.68Z"/><path class="cls-3" d="M354.18,79.61a4.81,4.81,0,0,1,0-7.39,6.15,6.15,0,0,1,4.24-1.53,6.22,6.22,0,0,1,4.25,1.51,4.81,4.81,0,0,1,0,7.39,6.69,6.69,0,0,1-8.49,0Zm1.13,12.7,9.46-10.54,8.4-11.16L376,73.09l-9.07,10.22L358.1,94.77Zm4.23-14.83A2.62,2.62,0,0,0,360,75.9a2.76,2.76,0,0,0-.48-1.58,1.31,1.31,0,0,0-2.27,0,2.87,2.87,0,0,0,0,3.16,1.3,1.3,0,0,0,2.26,0Zm9.08,15.74a4.72,4.72,0,0,1-1.75-3.68,4.77,4.77,0,0,1,1.73-3.7,6.19,6.19,0,0,1,4.24-1.53,6.11,6.11,0,0,1,4.24,1.51,4.8,4.8,0,0,1,0,7.38,6.67,6.67,0,0,1-8.48,0ZM374,91.1a2.87,2.87,0,0,0,0-3.16,1.33,1.33,0,0,0-1.13-.65,1.39,1.39,0,0,0-1.14.66,2.62,2.62,0,0,0-.48,1.58,2.7,2.7,0,0,0,.49,1.58,1.4,1.4,0,0,0,1.14.65A1.36,1.36,0,0,0,374,91.1Z"/><path class="cls-3" d="M299.23,275.84v-3.27l-6.29,0v-4.08l7.71-9.71h3.19l0,9.68H306v4.08h-2.15v3.26Zm-1.74-7.34h2.25v-2.87Z"/><path class="cls-3" d="M314.13,275.94a8.9,8.9,0,0,1-5.94-1.91l2.37-3.31a5.28,5.28,0,0,0,3.31,1,3.53,3.53,0,0,0,1.82-.38,1.32,1.32,0,0,0,.57-1.19,1.38,1.38,0,0,0-.74-1.3,5.23,5.23,0,0,0-2.38-.4h-.77v-3.16h.86a3.38,3.38,0,0,0,1.88-.46,1.34,1.34,0,0,0,.7-1.2,1.09,1.09,0,0,0-.42-.91,1.8,1.8,0,0,0-1.16-.31,3.42,3.42,0,0,0-2.91,1.69l-2.94-3.38a6.06,6.06,0,0,1,2.63-1.56,11.5,11.5,0,0,1,3.74-.61,7.54,7.54,0,0,1,4.38,1.15,3.58,3.58,0,0,1,1.67,3.05,3.93,3.93,0,0,1-.9,2.54,3.69,3.69,0,0,1-2.25,1.38,3.88,3.88,0,0,1,2.46,1.45,4.43,4.43,0,0,1,1,2.85,4.14,4.14,0,0,1-1.86,3.59A8.7,8.7,0,0,1,314.13,275.94Z"/><path class="cls-3" d="M324.13,275.79v-4.41h3.76l0,4.41Z"/><path class="cls-3" d="M342.84,271.67v4.07l-11.3,0V271.7H335l0-8.69a5.78,5.78,0,0,1-1.77,1.34,4.93,4.93,0,0,1-2.26.74V260.9a3,3,0,0,0,1.08-.23,6.08,6.08,0,0,0,1.08-.55,11,11,0,0,0,.93-.66c.28-.23.5-.41.67-.57a1.62,1.62,0,0,0,.26-.27l4.74,0,0,13.07Z"/><path class="cls-3" d="M346.28,264.94a3.51,3.51,0,0,1,0-5.38,4.47,4.47,0,0,1,3.08-1.11,4.54,4.54,0,0,1,3.09,1.1,3.48,3.48,0,0,1,0,5.37,4.84,4.84,0,0,1-6.17,0Zm.82,9.23L354,266.5l6.1-8.1,2,1.79-6.6,7.43L349.13,276Zm3.08-10.78a1.84,1.84,0,0,0,.34-1.15,1.91,1.91,0,0,0-.34-1.15.94.94,0,0,0-1.65,0,2.07,2.07,0,0,0,0,2.29.94.94,0,0,0,1.64,0Zm6.6,11.45a3.48,3.48,0,0,1,0-5.37,4.83,4.83,0,0,1,6.16,0,3.49,3.49,0,0,1,0,5.37,4.88,4.88,0,0,1-6.17,0Zm3.91-1.55a1.91,1.91,0,0,0,.34-1.15,1.88,1.88,0,0,0-.35-1.14.95.95,0,0,0-1.65,0,1.85,1.85,0,0,0-.35,1.15,1.88,1.88,0,0,0,.36,1.15,1,1,0,0,0,.83.47A1,1,0,0,0,360.69,273.29Z"/><path class="cls-3" d="M306.27,443a6.41,6.41,0,0,1-4.29-1.37l1.71-2.39a3.85,3.85,0,0,0,2.39.75,2.44,2.44,0,0,0,1.31-.27,1,1,0,0,0,.42-.86,1,1,0,0,0-.54-.94,3.83,3.83,0,0,0-1.72-.29H305V435.3h.62A2.49,2.49,0,0,0,307,435a1,1,0,0,0,.51-.87.75.75,0,0,0-.31-.65,1.31,1.31,0,0,0-.84-.23,2.49,2.49,0,0,0-2.1,1.22L302.11,432a4.38,4.38,0,0,1,1.89-1.13,8.65,8.65,0,0,1,2.71-.44,5.39,5.39,0,0,1,3.16.83,2.57,2.57,0,0,1,1.2,2.21,2.78,2.78,0,0,1-.64,1.83,2.71,2.71,0,0,1-1.63,1,2.82,2.82,0,0,1,1.78,1,3.23,3.23,0,0,1,.7,2.06,3,3,0,0,1-1.34,2.59A6.22,6.22,0,0,1,306.27,443Z"/><path class="cls-3" d="M313.25,442.85c0-.63,0-1.15,0-1.56a7,7,0,0,1,.18-1.2,3.15,3.15,0,0,1,.4-1,3.71,3.71,0,0,1,.69-.83,6.6,6.6,0,0,1,1.07-.79l.73-.41.78-.44c.21-.12.45-.27.71-.45a3.92,3.92,0,0,0,.62-.51,2.39,2.39,0,0,0,.4-.58,1.73,1.73,0,0,0,.16-.69.94.94,0,0,0-.33-.8,1.33,1.33,0,0,0-.83-.26,2.9,2.9,0,0,0-1.34.36,5.65,5.65,0,0,0-1.25.89l-2.06-2.19a5.56,5.56,0,0,1,2.12-1.4,7.76,7.76,0,0,1,3-.57,5,5,0,0,1,3.31,1,3.38,3.38,0,0,1,1.19,2.74,3.81,3.81,0,0,1-.63,2.19,6,6,0,0,1-1.85,1.7c-1.42.88-2.39,1.51-2.89,1.87h5.4v2.94Z"/><path class="cls-3" d="M325.23,442.81v-3.18h2.72v3.19Z"/><path class="cls-3" d="M334.83,443a5.64,5.64,0,0,1-1.79-.29,4.76,4.76,0,0,1-1.51-.81,3.79,3.79,0,0,1-1.44-3,2.65,2.65,0,0,1,.44-1.51,4.43,4.43,0,0,1,1.07-1.13,2.3,2.3,0,0,1-.84-.88,2.43,2.43,0,0,1-.33-1.19,3.11,3.11,0,0,1,.4-1.57,3.36,3.36,0,0,1,1.05-1.16,5.43,5.43,0,0,1,1.41-.69,4.91,4.91,0,0,1,1.5-.25,5.46,5.46,0,0,1,1.2.14,4.71,4.71,0,0,1,1.18.45,4.52,4.52,0,0,1,1,.72,3.25,3.25,0,0,1,.72,1,3.11,3.11,0,0,1,.27,1.29,2.44,2.44,0,0,1-.34,1.21,2.4,2.4,0,0,1-.84.91,4.09,4.09,0,0,1,1.08,1.15,2.8,2.8,0,0,1,.45,1.57,3.61,3.61,0,0,1-.63,2.1,4,4,0,0,1-1.71,1.42A5.62,5.62,0,0,1,334.83,443Zm.93-5.07a1.39,1.39,0,0,0-.95-.31,1.36,1.36,0,0,0-.95.33,1.06,1.06,0,0,0-.37.86,1.09,1.09,0,0,0,.38.85,1.37,1.37,0,0,0,.95.34,1.27,1.27,0,0,0,.94-.35,1.18,1.18,0,0,0,0-1.72Zm-1.64-3a1,1,0,0,0,.68.23,1.07,1.07,0,0,0,.69-.24.82.82,0,0,0,.29-.68.76.76,0,0,0-.27-.59,1.05,1.05,0,0,0-.71-.24,1,1,0,0,0-.7.25.75.75,0,0,0-.27.59A.86.86,0,0,0,334.12,434.9Z"/><path class="cls-3" d="M342.3,435a2.49,2.49,0,0,1-.91-1.93,2.52,2.52,0,0,1,.9-2,3.28,3.28,0,0,1,2.23-.8,3.24,3.24,0,0,1,2.23.79,2.52,2.52,0,0,1,.92,1.94,2.48,2.48,0,0,1-.91,1.94,3.49,3.49,0,0,1-4.46,0Zm.59,6.67,5-5.54,4.41-5.85,1.47,1.3L349,436.91l-4.62,6Zm2.23-7.79a1.34,1.34,0,0,0,.25-.83,1.4,1.4,0,0,0-.25-.82.74.74,0,0,0-.6-.35.71.71,0,0,0-.59.35,1.5,1.5,0,0,0,0,1.66.73.73,0,0,0,.6.34A.7.7,0,0,0,345.12,433.85Zm4.77,8.27a2.47,2.47,0,0,1-.92-1.93,2.51,2.51,0,0,1,.91-1.95,3.51,3.51,0,0,1,4.45,0,2.48,2.48,0,0,1,.91,1.94,2.44,2.44,0,0,1-.9,1.94,3.24,3.24,0,0,1-2.22.8A3.27,3.27,0,0,1,349.89,442.12Zm2.82-1.11a1.38,1.38,0,0,0,.24-.83,1.34,1.34,0,0,0-.25-.83.71.71,0,0,0-.59-.35.74.74,0,0,0-.6.35,1.5,1.5,0,0,0,0,1.66.7.7,0,0,0,1.2,0Z"/><path class="cls-3" d="M466.32,443a7.7,7.7,0,0,1-5.12-1.64l2-2.85a4.6,4.6,0,0,0,2.86.9,2.94,2.94,0,0,0,1.57-.33,1.14,1.14,0,0,0,.49-1,1.17,1.17,0,0,0-.64-1.12,4.41,4.41,0,0,0-2.05-.34h-.66v-2.72h.74a3,3,0,0,0,1.62-.39,1.16,1.16,0,0,0,.6-1,.94.94,0,0,0-.36-.78,1.63,1.63,0,0,0-1-.27,2.94,2.94,0,0,0-2.5,1.46l-2.54-2.91a5.37,5.37,0,0,1,2.26-1.35,10.12,10.12,0,0,1,3.23-.52,6.49,6.49,0,0,1,3.77,1,3.07,3.07,0,0,1,1.43,2.63,3.31,3.31,0,0,1-.77,2.19,3.18,3.18,0,0,1-1.94,1.18,3.38,3.38,0,0,1,2.13,1.25,3.83,3.83,0,0,1,.83,2.46,3.59,3.59,0,0,1-1.6,3.09A7.58,7.58,0,0,1,466.32,443Z"/><path class="cls-3" d="M480.3,431.71l-5.69,0v-3.57l12,0-7.26,14.68H474.8Z"/><path class="cls-3" d="M487.26,442.81V439h3.24v3.8Z"/><path class="cls-3" d="M503.37,439.26v3.51l-9.73,0v-3.51h3l0-7.48a4.82,4.82,0,0,1-1.52,1.16,4.41,4.41,0,0,1-1.95.64V430a2.64,2.64,0,0,0,.93-.2,5.09,5.09,0,0,0,.93-.48c.29-.18.55-.37.8-.56s.44-.36.58-.49a1.86,1.86,0,0,0,.23-.24h4.07l0,11.25Z"/><path class="cls-3" d="M506.33,433.46a3,3,0,0,1,0-4.63,4.2,4.2,0,0,1,5.31,0,3,3,0,0,1,1.1,2.31,3,3,0,0,1-1.08,2.32,4.18,4.18,0,0,1-5.32,0Zm.71,8,5.92-6.6,5.26-7,1.75,1.55-5.68,6.4-5.5,7.17Zm2.65-9.28a1.78,1.78,0,0,0,0-2,.88.88,0,0,0-.71-.41.85.85,0,0,0-.71.42,1.55,1.55,0,0,0-.29,1,1.61,1.61,0,0,0,.3,1,.83.83,0,0,0,.71.41A.84.84,0,0,0,509.69,432.13Zm5.68,9.86a3,3,0,0,1,0-4.63,4,4,0,0,1,2.66-1,3.85,3.85,0,0,1,2.65,1,3,3,0,0,1,0,4.62,4.2,4.2,0,0,1-5.32,0Zm3.37-1.33a1.65,1.65,0,0,0,.29-1,1.62,1.62,0,0,0-.3-1,.84.84,0,0,0-.71-.41.88.88,0,0,0-.71.41,1.66,1.66,0,0,0-.3,1,1.58,1.58,0,0,0,.31,1,.86.86,0,0,0,.71.41A.88.88,0,0,0,518.74,440.66Z"/><path class="cls-3" d="M689.75,86.17a6,6,0,0,1-4-1.27l1.58-2.21a3.5,3.5,0,0,0,2.21.7,2.35,2.35,0,0,0,1.21-.25.87.87,0,0,0,.38-.79.91.91,0,0,0-.49-.87,3.49,3.49,0,0,0-1.59-.27h-.51V79.11h.58a2.4,2.4,0,0,0,1.25-.31.92.92,0,0,0,.47-.8.72.72,0,0,0-.28-.6,1.23,1.23,0,0,0-.78-.22,2.31,2.31,0,0,0-1.94,1.13l-2-2.25a4.07,4.07,0,0,1,1.75-1,7.94,7.94,0,0,1,2.5-.41,5,5,0,0,1,2.92.77,2.41,2.41,0,0,1,1.11,2,2.64,2.64,0,0,1-.6,1.7,2.54,2.54,0,0,1-1.5.92,2.58,2.58,0,0,1,1.64,1,3,3,0,0,1,.65,1.9,2.79,2.79,0,0,1-1.24,2.4A5.83,5.83,0,0,1,689.75,86.17Z"/><path class="cls-3" d="M704.19,83.34v2.71l-7.54,0V83.36H699l0-5.79a3.49,3.49,0,0,1-1.17.89,3.4,3.4,0,0,1-1.51.5V76.16A1.85,1.85,0,0,0,697,76a4.13,4.13,0,0,0,.73-.36c.21-.14.42-.29.61-.44s.34-.28.45-.38l.18-.18h3.15l0,8.71Z"/><path class="cls-3" d="M705.94,86.05v-3h2.51V86Z"/><path class="cls-3" d="M710.38,80.44a6.25,6.25,0,0,1,.23-1.65,6,6,0,0,1,.68-1.56,6.19,6.19,0,0,1,1.07-1.31,4.82,4.82,0,0,1,3.24-1.25,5,5,0,0,1,1.87.35A4.77,4.77,0,0,1,719,76a6,6,0,0,1,1,1.35,6.24,6.24,0,0,1,.65,1.54,6,6,0,0,1,.21,1.55,5.85,5.85,0,0,1-.22,1.65,5.93,5.93,0,0,1-.68,1.57,6.56,6.56,0,0,1-1.08,1.31,4.6,4.6,0,0,1-1.46.9,4.83,4.83,0,0,1-1.79.34,5,5,0,0,1-1.86-.35,4.55,4.55,0,0,1-1.48-.93,6.44,6.44,0,0,1-1-1.33,6.35,6.35,0,0,1-.87-3.13Zm5.25,3a1.6,1.6,0,0,0,.94-.28,1.92,1.92,0,0,0,.63-.75,3.89,3.89,0,0,0,.33-1,4.79,4.79,0,0,0,.11-1,4.72,4.72,0,0,0-.12-1.06,3.73,3.73,0,0,0-.36-1,1.91,1.91,0,0,0-.64-.71,1.67,1.67,0,0,0-1.85,0,2,2,0,0,0-.63.74,4.2,4.2,0,0,0-.33,1,4.88,4.88,0,0,0-.11,1,4.66,4.66,0,0,0,.12,1.06,3.86,3.86,0,0,0,.35,1,1.82,1.82,0,0,0,.64.71A1.6,1.6,0,0,0,715.63,83.41Z"/><path class="cls-3" d="M723.37,78.81a2.35,2.35,0,0,1,0-3.59,3.25,3.25,0,0,1,4.12,0,2.34,2.34,0,0,1,0,3.58,3.24,3.24,0,0,1-4.12,0Zm.55,6.15,4.58-5.11,4.08-5.41,1.35,1.2-4.4,5-4.26,5.55ZM726,77.77a1.39,1.39,0,0,0,0-1.53.69.69,0,0,0-.55-.32.68.68,0,0,0-.55.32,1.32,1.32,0,0,0-.23.77,1.21,1.21,0,0,0,.24.76.62.62,0,0,0,1.09,0Zm4.4,7.63a2.32,2.32,0,0,1,0-3.58,3,3,0,0,1,2.06-.74,3,3,0,0,1,2.05.73,2.32,2.32,0,0,1,0,3.58,3,3,0,0,1-2.05.74A3,3,0,0,1,730.37,85.4Zm2.6-1a1.22,1.22,0,0,0,.23-.76,1.25,1.25,0,0,0-.23-.77.63.63,0,0,0-1.1,0,1.2,1.2,0,0,0-.23.76,1.32,1.32,0,0,0,.23.77.67.67,0,0,0,.56.31A.64.64,0,0,0,733,84.37Z"/><path class="cls-3" d="M687.48,272.22c0-.59,0-1.08,0-1.46a6.06,6.06,0,0,1,.17-1.12,3,3,0,0,1,.37-1,4.09,4.09,0,0,1,.65-.77,5.64,5.64,0,0,1,1-.74l.68-.39.74-.41a7,7,0,0,0,.66-.42,3.89,3.89,0,0,0,.58-.48,2.12,2.12,0,0,0,.37-.55,1.31,1.31,0,0,0,.15-.64.9.9,0,0,0-.3-.75,1.25,1.25,0,0,0-.78-.24,2.84,2.84,0,0,0-1.26.34,5.1,5.1,0,0,0-1.16.83l-1.93-2a5.11,5.11,0,0,1,2-1.31,7.34,7.34,0,0,1,2.82-.53,4.64,4.64,0,0,1,3.1.92,3.16,3.16,0,0,1,1.11,2.57,3.5,3.5,0,0,1-.58,2.05,5.76,5.76,0,0,1-1.74,1.59c-1.33.83-2.23,1.42-2.7,1.75h5v2.76Z"/><path class="cls-3" d="M699.64,267.33a3.49,3.49,0,0,1-1.18-2.69,3.75,3.75,0,0,1,1.25-2.89,4.39,4.39,0,0,1,3.12-1.18,3.86,3.86,0,0,1,3.26,1.48,6.66,6.66,0,0,1,1.16,4.18,7.1,7.1,0,0,1-1.24,4.48,4.14,4.14,0,0,1-3.45,1.63,5.16,5.16,0,0,1-3.74-1.54l1.73-2a2.82,2.82,0,0,0,2.05.88,1.71,1.71,0,0,0,1.27-.5,2,2,0,0,0,.5-1.35,2.6,2.6,0,0,1-1.78.56A4.16,4.16,0,0,1,699.64,267.33Zm4.18-3.75a1.33,1.33,0,0,0-1-.44,1.31,1.31,0,0,0-1,.45,1.47,1.47,0,0,0-.42,1,1.28,1.28,0,0,0,.41,1,1.37,1.37,0,0,0,1,.4,1.47,1.47,0,0,0,1-.4,1.29,1.29,0,0,0,.41-1A1.44,1.44,0,0,0,703.82,263.58Z"/><path class="cls-3" d="M709.32,272.16v-3h2.55v3Z"/><path class="cls-3" d="M717.58,272.22a6.06,6.06,0,0,1-4-1.29l1.6-2.24a3.53,3.53,0,0,0,2.24.71,2.3,2.3,0,0,0,1.23-.26.88.88,0,0,0,.39-.8.94.94,0,0,0-.5-.88,3.64,3.64,0,0,0-1.62-.27h-.51v-2.14H717a2.28,2.28,0,0,0,1.27-.31.92.92,0,0,0,.48-.81.72.72,0,0,0-.29-.61,1.24,1.24,0,0,0-.79-.22,2.32,2.32,0,0,0-2,1.15l-2-2.29a4.16,4.16,0,0,1,1.77-1,7.64,7.64,0,0,1,2.54-.41,5,5,0,0,1,3,.77,2.43,2.43,0,0,1,1.13,2.07,2.66,2.66,0,0,1-.61,1.72A2.52,2.52,0,0,1,720,266a2.61,2.61,0,0,1,1.66,1,3,3,0,0,1,.66,1.93,2.81,2.81,0,0,1-1.26,2.42A5.87,5.87,0,0,1,717.58,272.22Z"/><path class="cls-3" d="M724.89,264.82a2.37,2.37,0,0,1,0-3.63,3.05,3.05,0,0,1,2.09-.76,3.11,3.11,0,0,1,2.09.74,2.36,2.36,0,0,1,0,3.64,3.06,3.06,0,0,1-2.09.75A3,3,0,0,1,724.89,264.82Zm.56,6.24,4.65-5.18,4.13-5.48,1.37,1.21-4.46,5-4.32,5.63Zm2.08-7.29a1.23,1.23,0,0,0,.23-.77,1.33,1.33,0,0,0-.23-.78.67.67,0,0,0-.56-.32.68.68,0,0,0-.55.32,1.29,1.29,0,0,0-.24.78,1.24,1.24,0,0,0,.24.77.68.68,0,0,0,.56.33A.66.66,0,0,0,727.53,263.77Zm4.47,7.74a2.31,2.31,0,0,1-.87-1.81,2.37,2.37,0,0,1,.85-1.82,3.3,3.3,0,0,1,4.18,0,2.37,2.37,0,0,1,0,3.63,3.29,3.29,0,0,1-4.17,0Zm2.64-1a1.35,1.35,0,0,0,.23-.78,1.24,1.24,0,0,0-.24-.77.63.63,0,0,0-1.11,0,1.29,1.29,0,0,0-.24.78,1.24,1.24,0,0,0,.24.77.69.69,0,0,0,.56.33A.7.7,0,0,0,734.64,270.47Z"/><path class="cls-3" d="M698.9,437.25v2.66l-7.37,0v-2.66h2.26l0-5.66a3.47,3.47,0,0,1-1.15.88,3.2,3.2,0,0,1-1.47.48v-2.72a2,2,0,0,0,.71-.15,3.84,3.84,0,0,0,.7-.36,5.78,5.78,0,0,0,.6-.43l.44-.37a1,1,0,0,0,.17-.18h3.09l0,8.52Z"/><path class="cls-3" d="M703.41,440a5.82,5.82,0,0,1-3.87-1.24l1.54-2.16a3.38,3.38,0,0,0,2.16.68,2.24,2.24,0,0,0,1.18-.24,1,1,0,0,0-.11-1.62,3.2,3.2,0,0,0-1.55-.26h-.5v-2.06h.56a2.32,2.32,0,0,0,1.22-.3.89.89,0,0,0,.46-.78.68.68,0,0,0-.27-.59,1.26,1.26,0,0,0-.77-.21,2.23,2.23,0,0,0-1.89,1.1l-1.91-2.2a3.89,3.89,0,0,1,1.71-1,7.52,7.52,0,0,1,2.44-.39,4.83,4.83,0,0,1,2.85.74,2.33,2.33,0,0,1,1.08,2,2.51,2.51,0,0,1-.58,1.66,2.48,2.48,0,0,1-1.47.9,2.53,2.53,0,0,1,1.61.94,2.87,2.87,0,0,1,.63,1.86,2.73,2.73,0,0,1-1.21,2.34A5.65,5.65,0,0,1,703.41,440Z"/><path class="cls-3" d="M709.37,439.88V437h2.45v2.88Z"/><path class="cls-3" d="M717.47,440a5.08,5.08,0,0,1-1.61-.26,4.6,4.6,0,0,1-1.37-.73,3.38,3.38,0,0,1-.94-1.17,3.44,3.44,0,0,1-.36-1.53,2.39,2.39,0,0,1,.4-1.36,4.25,4.25,0,0,1,1-1,2,2,0,0,1-.75-.8,2.14,2.14,0,0,1-.3-1.07,2.76,2.76,0,0,1,.37-1.42,3,3,0,0,1,.94-1,4.83,4.83,0,0,1,1.27-.62,4.31,4.31,0,0,1,1.36-.23,4.49,4.49,0,0,1,1.08.13,4.42,4.42,0,0,1,2,1.05,2.94,2.94,0,0,1,.65.92,2.81,2.81,0,0,1,.25,1.16,2.29,2.29,0,0,1-.31,1.09,2.17,2.17,0,0,1-.76.82,4,4,0,0,1,1,1,2.65,2.65,0,0,1,.4,1.43,3.27,3.27,0,0,1-.57,1.89,3.72,3.72,0,0,1-1.54,1.28A5,5,0,0,1,717.47,440Zm.84-4.57a1.21,1.21,0,0,0-.86-.28,1.23,1.23,0,0,0-.86.29,1.05,1.05,0,0,0,0,1.55,1.2,1.2,0,0,0,.85.31,1.18,1.18,0,0,0,.85-.32,1,1,0,0,0,.34-.76A1,1,0,0,0,718.31,435.44Zm-1.48-2.71a.92.92,0,0,0,.62.22.9.9,0,0,0,.61-.22.73.73,0,0,0,.27-.61.66.66,0,0,0-.25-.53.91.91,0,0,0-.64-.22.88.88,0,0,0-.63.22.69.69,0,0,0-.24.53A.74.74,0,0,0,716.83,432.73Z"/><path class="cls-3" d="M723.66,432.81a2.27,2.27,0,0,1,0-3.5,2.87,2.87,0,0,1,2-.73,3,3,0,0,1,2,.71,2.29,2.29,0,0,1,0,3.51,2.91,2.91,0,0,1-2,.72A2.86,2.86,0,0,1,723.66,432.81Zm.53,6,4.48-5,4-5.29,1.32,1.18-4.29,4.84L725.51,440Zm2-7a1.36,1.36,0,0,0,0-1.5.64.64,0,0,0-.53-.31.67.67,0,0,0-.54.31,1.25,1.25,0,0,0-.22.75,1.19,1.19,0,0,0,.23.75.63.63,0,0,0,.53.31A.65.65,0,0,0,726.2,431.8Zm4.3,7.45a2.21,2.21,0,0,1-.83-1.74,2.23,2.23,0,0,1,.82-1.75,2.88,2.88,0,0,1,2-.73,3,3,0,0,1,2,.72,2.26,2.26,0,0,1,.82,1.74,2.23,2.23,0,0,1-.82,1.75,3.13,3.13,0,0,1-4,0Zm2.54-1a1.39,1.39,0,0,0,0-1.5.65.65,0,0,0-.54-.31.66.66,0,0,0-.54.32,1.21,1.21,0,0,0-.23.74,1.26,1.26,0,0,0,.23.75.68.68,0,0,0,.55.31A.64.64,0,0,0,733,438.25Z"/><path class="cls-3" d="M819.75,439.33c0-.59,0-1.08,0-1.46a7.32,7.32,0,0,1,.16-1.13,3,3,0,0,1,.38-.95A3.8,3.8,0,0,1,821,435a5.64,5.64,0,0,1,1-.74l.68-.39.74-.41q.29-.17.66-.42a3.89,3.89,0,0,0,.58-.48A2.12,2.12,0,0,0,825,432a1.46,1.46,0,0,0,.15-.64.88.88,0,0,0-.31-.75,1.2,1.2,0,0,0-.77-.24,2.71,2.71,0,0,0-1.26.34,5.1,5.1,0,0,0-1.16.83l-1.94-2.05a5.36,5.36,0,0,1,2-1.32,7.52,7.52,0,0,1,2.81-.53,4.68,4.68,0,0,1,3.1.93,3.12,3.12,0,0,1,1.12,2.56,3.52,3.52,0,0,1-.59,2.06,5.72,5.72,0,0,1-1.73,1.59c-1.34.83-2.24,1.41-2.7,1.75h5v2.76Z"/><path class="cls-3" d="M834.62,439.43a5.44,5.44,0,0,1-2.32-.47,3.68,3.68,0,0,1-1.59-1.33l1.71-1.95a3.51,3.51,0,0,0,1.06.78,2.66,2.66,0,0,0,1.15.28,1.32,1.32,0,0,0,1-.33,1.12,1.12,0,0,0,.35-.87,1.2,1.2,0,0,0-.31-.86,1.1,1.1,0,0,0-.83-.33,1.4,1.4,0,0,0-.63.16,1.08,1.08,0,0,0-.45.42H831l1.37-7.18h5.87v2.8h-3.62l-.17,1.25a2.62,2.62,0,0,1,.76-.08,3.85,3.85,0,0,1,2.8,1,3.55,3.55,0,0,1,1.1,2.7,3.6,3.6,0,0,1-1.25,2.85A4.79,4.79,0,0,1,834.62,439.43Z"/><path class="cls-3" d="M841.15,439.27v-3h2.55v3Z"/><path class="cls-3" d="M846.86,434.4a3.51,3.51,0,0,1-1.19-2.7,3.77,3.77,0,0,1,1.25-2.88,4.38,4.38,0,0,1,3.13-1.18,3.86,3.86,0,0,1,3.26,1.48,6.65,6.65,0,0,1,1.16,4.17,7.12,7.12,0,0,1-1.24,4.48,4.13,4.13,0,0,1-3.46,1.64,5.12,5.12,0,0,1-3.73-1.55l1.72-2a2.86,2.86,0,0,0,2,.87,1.67,1.67,0,0,0,1.28-.49,2,2,0,0,0,.5-1.35,2.62,2.62,0,0,1-1.78.56A4.19,4.19,0,0,1,846.86,434.4Zm4.18-3.75a1.37,1.37,0,0,0-1-.44,1.29,1.29,0,0,0-1,.45,1.41,1.41,0,0,0-.43,1,1.3,1.3,0,0,0,.42,1,1.45,1.45,0,0,0,2,0,1.28,1.28,0,0,0,.41-1A1.48,1.48,0,0,0,851,430.65Z"/><path class="cls-3" d="M857.09,431.93a2.36,2.36,0,0,1-.86-1.82,2.33,2.33,0,0,1,.85-1.82,3,3,0,0,1,2.08-.75,3.11,3.11,0,0,1,2.09.74,2.36,2.36,0,0,1,0,3.64,3.29,3.29,0,0,1-4.17,0Zm.55,6.24L862.3,433l4.13-5.49,1.37,1.22-4.46,5L859,439.38Zm2.09-7.29a1.35,1.35,0,0,0,.23-.78,1.24,1.24,0,0,0-.24-.77.63.63,0,0,0-.55-.32.67.67,0,0,0-.56.32,1.35,1.35,0,0,0-.23.78,1.24,1.24,0,0,0,.24.77.66.66,0,0,0,.55.33A.68.68,0,0,0,859.73,430.88Zm4.46,7.74a2.31,2.31,0,0,1-.86-1.81,2.33,2.33,0,0,1,.85-1.82,3,3,0,0,1,2.09-.75,3,3,0,0,1,2.08.74,2.35,2.35,0,0,1,0,3.63,3,3,0,0,1-2.08.75A3.06,3.06,0,0,1,864.19,438.62Zm2.64-1a1.28,1.28,0,0,0,.23-.78,1.3,1.3,0,0,0-.23-.77.68.68,0,0,0-.56-.33.69.69,0,0,0-.56.33,1.2,1.2,0,0,0-.23.78,1.26,1.26,0,0,0,.24.77.65.65,0,0,0,.56.32A.68.68,0,0,0,866.83,437.58Z"/><path class="cls-3" d="M812.38,271.84v-3.45l-6.63,0V264.1l8.14-10.24h3.35l0,10.22h2.27v4.3h-2.27v3.44Zm-1.83-7.75h2.37v-3Z"/><path class="cls-3" d="M828.12,271.94a9.38,9.38,0,0,1-6.28-2l2.5-3.49a5.5,5.5,0,0,0,3.5,1.1,3.57,3.57,0,0,0,1.92-.4,1.36,1.36,0,0,0,.6-1.25,1.44,1.44,0,0,0-.78-1.37,5.34,5.34,0,0,0-2.52-.42h-.8v-3.34h.9a3.58,3.58,0,0,0,2-.48,1.45,1.45,0,0,0,.75-1.27,1.16,1.16,0,0,0-.44-1,2.05,2.05,0,0,0-1.24-.34,3.63,3.63,0,0,0-3.06,1.79L822,255.94a6.34,6.34,0,0,1,2.77-1.65,12.09,12.09,0,0,1,4-.64,7.82,7.82,0,0,1,4.62,1.21,3.77,3.77,0,0,1,1.76,3.22,4.16,4.16,0,0,1-.95,2.68,3.93,3.93,0,0,1-2.38,1.46,4.15,4.15,0,0,1,2.61,1.53,4.74,4.74,0,0,1,1,3,4.38,4.38,0,0,1-2,3.78A9.11,9.11,0,0,1,828.12,271.94Z"/><path class="cls-3" d="M838.67,271.79l0-4.66h4v4.66Z"/><path class="cls-3" d="M857.7,261.45a5.47,5.47,0,0,1,1.84,4.2,5.9,5.9,0,0,1-1.95,4.51,6.9,6.9,0,0,1-4.87,1.84,6,6,0,0,1-5.09-2.31,10.43,10.43,0,0,1-1.82-6.52,11.12,11.12,0,0,1,2-7,6.44,6.44,0,0,1,5.4-2.55A8,8,0,0,1,859,256l-2.7,3.09a4.44,4.44,0,0,0-3.2-1.35,2.62,2.62,0,0,0-2,.76,3.12,3.12,0,0,0-.79,2.11,4.13,4.13,0,0,1,2.78-.88A6.59,6.59,0,0,1,857.7,261.45Zm-6.52,5.84a2.06,2.06,0,0,0,1.53.69,2,2,0,0,0,1.52-.69,2.31,2.31,0,0,0,.66-1.63,2,2,0,0,0-.65-1.5,2.22,2.22,0,0,0-3.09,0,2,2,0,0,0-.64,1.51A2.23,2.23,0,0,0,851.18,267.29Z"/><path class="cls-3" d="M863.57,260.33a3.7,3.7,0,0,1,0-5.67,5.11,5.11,0,0,1,6.51,0,3.68,3.68,0,0,1,0,5.67,5.11,5.11,0,0,1-6.51,0Zm.87,9.75,7.26-8.1,6.44-8.56,2.15,1.9-7,7.85L866.58,272Zm3.25-11.39a2,2,0,0,0,.36-1.21,2,2,0,0,0-.37-1.21,1,1,0,0,0-1.73,0,2,2,0,0,0-.37,1.21,2,2,0,0,0,.37,1.21,1.06,1.06,0,0,0,.87.5A1,1,0,0,0,867.69,258.69Zm7,12.09a3.68,3.68,0,0,1,0-5.67,5.11,5.11,0,0,1,6.51,0,3.69,3.69,0,0,1,0,5.67,4.75,4.75,0,0,1-3.25,1.17A4.82,4.82,0,0,1,874.65,270.78Zm4.13-1.63a2.07,2.07,0,0,0,.36-1.22,2,2,0,0,0-.37-1.21,1.06,1.06,0,0,0-.87-.5,1,1,0,0,0-.87.51,2,2,0,0,0-.37,1.21,2,2,0,0,0,.37,1.21,1,1,0,0,0,1.75,0Z"/><path class="cls-3" d="M813.1,87.39V83.94l-6.63,0v-4.3l8.14-10.25H818l0,10.23h2.27v4.3H818v3.45Zm-1.83-7.75h2.38v-3Z"/><path class="cls-3" d="M829.09,87.59a8.53,8.53,0,0,1-3.63-.73A5.8,5.8,0,0,1,823,84.78l2.67-3A5.44,5.44,0,0,0,827.31,83a4.06,4.06,0,0,0,1.79.44,2.09,2.09,0,0,0,1.49-.51,1.75,1.75,0,0,0,.55-1.36,1.85,1.85,0,0,0-.5-1.34,1.69,1.69,0,0,0-1.28-.51,2.1,2.1,0,0,0-1,.24,1.7,1.7,0,0,0-.7.65l-4.19,0,2.14-11.2,9.17,0v4.37l-5.65,0-.27,2a4.1,4.1,0,0,1,1.18-.12,6,6,0,0,1,4.39,1.62,6,6,0,0,1-.25,8.66A7.46,7.46,0,0,1,829.09,87.59Z"/><path class="cls-3" d="M839.28,87.34l0-4.66h4v4.66Z"/><path class="cls-3" d="M846.32,78.46a9.76,9.76,0,0,1,.36-2.6,9.9,9.9,0,0,1,1.07-2.48,9.49,9.49,0,0,1,1.7-2.07,7.17,7.17,0,0,1,2.31-1.44,7.41,7.41,0,0,1,2.82-.54,7.5,7.5,0,0,1,3,.56,7.18,7.18,0,0,1,2.34,1.5,9.38,9.38,0,0,1,1.66,2.13,9.92,9.92,0,0,1,1,2.44,9.74,9.74,0,0,1,.35,2.46,9.9,9.9,0,0,1-.36,2.62,9.28,9.28,0,0,1-1.09,2.48,9.74,9.74,0,0,1-1.69,2.07,7.67,7.67,0,0,1-5.15,2,7.78,7.78,0,0,1-3-.55,7,7,0,0,1-2.33-1.48,9.55,9.55,0,0,1-1.66-2.11,9.67,9.67,0,0,1-1-2.45A9.46,9.46,0,0,1,846.32,78.46Zm8.3,4.71a2.55,2.55,0,0,0,1.49-.45,3,3,0,0,0,1-1.18,6.66,6.66,0,0,0,.52-1.52,7.11,7.11,0,0,0,.18-1.59,7.71,7.71,0,0,0-.2-1.67,5.8,5.8,0,0,0-.56-1.51,3,3,0,0,0-1-1.12,2.49,2.49,0,0,0-1.44-.43,2.63,2.63,0,0,0-1.49.46,3,3,0,0,0-1,1.18,6.58,6.58,0,0,0-.52,1.51,6.65,6.65,0,0,0-.17,1.6,7.7,7.7,0,0,0,.18,1.67,6.32,6.32,0,0,0,.55,1.51,3,3,0,0,0,1,1.12A2.62,2.62,0,0,0,854.62,83.17Z"/><path class="cls-3" d="M866.89,75.88a3.7,3.7,0,0,1,0-5.68,5.15,5.15,0,0,1,6.51,0,3.7,3.7,0,0,1,0,5.68A4.83,4.83,0,0,1,870.14,77,4.78,4.78,0,0,1,866.89,75.88Zm.86,9.74L875,77.53,881.46,69l2.14,1.9-7,7.84-6.75,8.8ZM871,74.24a2,2,0,0,0,.36-1.21,2,2,0,0,0-.36-1.21,1.07,1.07,0,0,0-.87-.51,1,1,0,0,0-.87.51A2,2,0,0,0,868.9,73a2,2,0,0,0,.37,1.21,1,1,0,0,0,1.73,0Zm7,12.08a3.69,3.69,0,0,1,0-5.67,4.76,4.76,0,0,1,3.26-1.17,4.68,4.68,0,0,1,3.25,1.16,3.62,3.62,0,0,1,1.34,2.83,3.66,3.66,0,0,1-1.32,2.84,5.13,5.13,0,0,1-6.51,0Zm4.12-1.63a2,2,0,0,0,.36-1.21,2,2,0,0,0-.37-1.21,1,1,0,0,0-.87-.51,1.13,1.13,0,0,0-.87.51,2,2,0,0,0-.37,1.22,2,2,0,0,0,.38,1.21,1.09,1.09,0,0,0,.87.5A1,1,0,0,0,882.09,84.69Z"/><path class="cls-3" d="M463.84,276a7.94,7.94,0,0,1-5.28-1.7l2.1-2.94a4.62,4.62,0,0,0,2.95.93,3,3,0,0,0,1.62-.34,1.16,1.16,0,0,0,.51-1.05,1.23,1.23,0,0,0-.66-1.16,4.69,4.69,0,0,0-2.12-.35h-.68v-2.81H463a3,3,0,0,0,1.66-.41,1.22,1.22,0,0,0,.63-1.07,1,1,0,0,0-.37-.8,1.63,1.63,0,0,0-1-.28,3,3,0,0,0-2.58,1.5l-2.62-3a5.47,5.47,0,0,1,2.33-1.39,10.2,10.2,0,0,1,3.33-.54,6.59,6.59,0,0,1,3.9,1,3.19,3.19,0,0,1,1.48,2.71,3.51,3.51,0,0,1-.8,2.26,3.35,3.35,0,0,1-2,1.23,3.46,3.46,0,0,1,2.19,1.29,3.91,3.91,0,0,1,.86,2.53,3.7,3.7,0,0,1-1.65,3.19A7.77,7.77,0,0,1,463.84,276Z"/><path class="cls-3" d="M478.27,276a6.8,6.8,0,0,1-2.2-.35,6.16,6.16,0,0,1-1.86-1,4.52,4.52,0,0,1-1.29-1.6,4.58,4.58,0,0,1-.48-2.08,3.32,3.32,0,0,1,.54-1.86,5.26,5.26,0,0,1,1.32-1.38,2.93,2.93,0,0,1-1-1.09,3,3,0,0,1-.41-1.47,3.76,3.76,0,0,1,.5-1.93,4.23,4.23,0,0,1,1.29-1.43,7.14,7.14,0,0,1,1.73-.85,6,6,0,0,1,1.85-.3,6.29,6.29,0,0,1,1.48.17,6.09,6.09,0,0,1,1.45.55,5.72,5.72,0,0,1,1.26.89,3.94,3.94,0,0,1,.89,1.25,4,4,0,0,1,.34,1.58,3,3,0,0,1-.42,1.49,2.81,2.81,0,0,1-1,1.11,5.46,5.46,0,0,1,1.33,1.42,3.47,3.47,0,0,1,.55,1.94,4.39,4.39,0,0,1-.77,2.59,5,5,0,0,1-2.11,1.74A7,7,0,0,1,478.27,276Zm1.16-6.23a1.77,1.77,0,0,0-1.18-.39,1.73,1.73,0,0,0-1.17.4,1.34,1.34,0,0,0-.45,1.07,1.36,1.36,0,0,0,.47,1.05,1.69,1.69,0,0,0,1.16.42,1.67,1.67,0,0,0,1.17-.43,1.41,1.41,0,0,0,.45-1.05A1.35,1.35,0,0,0,479.43,269.8Zm-2-3.69a1.26,1.26,0,0,0,.84.29,1.31,1.31,0,0,0,.84-.3,1,1,0,0,0,.36-.84.92.92,0,0,0-.34-.72,1.27,1.27,0,0,0-.87-.29,1.23,1.23,0,0,0-.86.3,1,1,0,0,0-.34.72A1.07,1.07,0,0,0,477.41,266.11Z"/><path class="cls-3" d="M486.75,275.8l0-3.92h3.35v3.92Z"/><path class="cls-3" d="M498.22,264.3h-5.88v-3.68l12.36,0-7.49,15.16h-4.66Z"/><path class="cls-3" d="M507.12,266.15a3.12,3.12,0,0,1,0-4.78,4.3,4.3,0,0,1,5.48,0,3.11,3.11,0,0,1,0,4.78,4,4,0,0,1-2.74,1A4,4,0,0,1,507.12,266.15Zm.73,8.21,6.12-6.82,5.42-7.2,1.81,1.59-5.86,6.61L509.66,276Zm2.74-9.59a1.71,1.71,0,0,0,.3-1,1.69,1.69,0,0,0-.31-1,.84.84,0,0,0-1.46,0,1.71,1.71,0,0,0-.3,1,1.69,1.69,0,0,0,.31,1,.89.89,0,0,0,.73.42A.87.87,0,0,0,510.59,264.77ZM516.46,275a3.1,3.1,0,0,1,0-4.77,4.32,4.32,0,0,1,5.48,0,3.1,3.1,0,0,1,0,4.77,4.32,4.32,0,0,1-5.48,0Zm3.47-1.37a1.76,1.76,0,0,0,.3-1,1.64,1.64,0,0,0-.31-1,.87.87,0,0,0-.73-.43.9.9,0,0,0-.74.43,1.81,1.81,0,0,0,0,2,.88.88,0,0,0,.74.42A.9.9,0,0,0,519.93,273.58Z"/><path class="cls-3" d="M457.81,91.38V87.64l-7.2,0V83l8.83-11.12h3.65l0,11.1h2.45l0,4.67h-2.46v3.75Zm-2-8.41h2.58V79.68Z"/><path class="cls-3" d="M475.47,91.33V87.59l-7.19,0,0-4.67,8.84-11.12h3.64l0,11.1h2.46v4.67h-2.45v3.74Zm-2-8.4h2.59V79.63Z"/><path class="cls-3" d="M486.64,91.33V86.27h4.31l0,5.06Z"/><path class="cls-3" d="M500.63,91.43a10.18,10.18,0,0,1-6.8-2.19l2.7-3.79a6,6,0,0,0,3.8,1.2,4,4,0,0,0,2.09-.43,1.48,1.48,0,0,0,.65-1.36,1.58,1.58,0,0,0-.85-1.5,6.12,6.12,0,0,0-2.73-.45h-.87V79.29h1a4,4,0,0,0,2.15-.53,1.56,1.56,0,0,0,.81-1.37,1.22,1.22,0,0,0-.48-1,2.13,2.13,0,0,0-1.34-.37,3.94,3.94,0,0,0-3.33,1.94L494,74.06a6.89,6.89,0,0,1,3-1.8,13.21,13.21,0,0,1,4.29-.69,8.57,8.57,0,0,1,5,1.31,4.09,4.09,0,0,1,1.9,3.5,4.42,4.42,0,0,1-1,2.91,4.31,4.31,0,0,1-2.58,1.58,4.46,4.46,0,0,1,2.82,1.66,5.06,5.06,0,0,1,1.11,3.27,4.76,4.76,0,0,1-2.13,4.11A10,10,0,0,1,500.63,91.43Z"/><path class="cls-3" d="M513,78.89a4,4,0,0,1,0-6.15,5.55,5.55,0,0,1,7.07,0,4,4,0,0,1,0,6.16,5.18,5.18,0,0,1-3.53,1.27A5.08,5.08,0,0,1,513,78.89ZM514,89.47l7.89-8.78,7-9.29,2.33,2.06L523.61,82l-7.32,9.55Zm3.54-12.35a2.24,2.24,0,0,0,.39-1.32,2.19,2.19,0,0,0-.4-1.31,1.15,1.15,0,0,0-1-.55,1.17,1.17,0,0,0-.94.55,2.24,2.24,0,0,0-.39,1.32,2.12,2.12,0,0,0,.4,1.31,1.09,1.09,0,0,0,1.89,0Zm7.55,13.11a4,4,0,0,1,0-6.15,5.55,5.55,0,0,1,7.07,0,4,4,0,0,1,1.44,3.08,3.9,3.9,0,0,1-1.43,3.07,5.11,5.11,0,0,1-3.52,1.27A5.17,5.17,0,0,1,525.05,90.23Zm4.48-1.77a2.21,2.21,0,0,0,.39-1.31,2.18,2.18,0,0,0-.4-1.32,1.12,1.12,0,0,0-.94-.54,1.15,1.15,0,0,0-1,.55,2.15,2.15,0,0,0-.4,1.31,2.18,2.18,0,0,0,.41,1.32,1.08,1.08,0,0,0,1.89,0Z"/><path class="cls-3" d="M608.68,45.72a1.6,1.6,0,0,1-1.59-1.6V40.3a1.59,1.59,0,1,1,3.18,0v3.82A1.6,1.6,0,0,1,608.68,45.72Z"/><path class="cls-3" d="M608.68,450.25a1.6,1.6,0,0,1-1.59-1.6v-7.49a1.59,1.59,0,1,1,3.18,0v7.49A1.6,1.6,0,0,1,608.68,450.25Zm0-22.48a1.59,1.59,0,0,1-1.59-1.59v-7.49a1.59,1.59,0,1,1,3.18,0v7.49A1.59,1.59,0,0,1,608.68,427.77Zm0-22.47a1.59,1.59,0,0,1-1.59-1.59v-7.5a1.59,1.59,0,0,1,3.18,0v7.5A1.59,1.59,0,0,1,608.68,405.3Zm0-22.48a1.59,1.59,0,0,1-1.59-1.59v-7.49a1.59,1.59,0,1,1,3.18,0v7.49A1.59,1.59,0,0,1,608.68,382.82Zm0-22.47a1.59,1.59,0,0,1-1.59-1.59v-7.49a1.59,1.59,0,1,1,3.18,0v7.49A1.59,1.59,0,0,1,608.68,360.35Zm0-22.47a1.6,1.6,0,0,1-1.59-1.6v-7.49a1.59,1.59,0,0,1,3.18,0v7.49A1.6,1.6,0,0,1,608.68,337.88Zm0-22.48a1.59,1.59,0,0,1-1.59-1.59v-7.49a1.59,1.59,0,1,1,3.18,0v7.49A1.59,1.59,0,0,1,608.68,315.4Zm0-22.47a1.59,1.59,0,0,1-1.59-1.59v-7.5a1.59,1.59,0,0,1,3.18,0v7.5A1.59,1.59,0,0,1,608.68,292.93Zm0-22.47a1.6,1.6,0,0,1-1.59-1.6v-7.49a1.59,1.59,0,0,1,3.18,0v7.49A1.6,1.6,0,0,1,608.68,270.46Zm0-22.48a1.59,1.59,0,0,1-1.59-1.59V238.9a1.59,1.59,0,1,1,3.18,0v7.49A1.59,1.59,0,0,1,608.68,248Zm0-22.47a1.6,1.6,0,0,1-1.59-1.6v-7.49a1.59,1.59,0,0,1,3.18,0v7.49A1.6,1.6,0,0,1,608.68,225.51Zm0-22.48a1.59,1.59,0,0,1-1.59-1.59V194a1.59,1.59,0,1,1,3.18,0v7.49A1.59,1.59,0,0,1,608.68,203Zm0-22.47a1.59,1.59,0,0,1-1.59-1.59v-7.5a1.59,1.59,0,0,1,3.18,0V179A1.59,1.59,0,0,1,608.68,180.56Zm0-22.47a1.6,1.6,0,0,1-1.59-1.6V149a1.59,1.59,0,0,1,3.18,0v7.49A1.6,1.6,0,0,1,608.68,158.09Zm0-22.48a1.59,1.59,0,0,1-1.59-1.59v-7.49a1.59,1.59,0,1,1,3.18,0V134A1.59,1.59,0,0,1,608.68,135.61Zm0-22.47a1.6,1.6,0,0,1-1.59-1.6v-7.49a1.59,1.59,0,0,1,3.18,0v7.49A1.6,1.6,0,0,1,608.68,113.14Zm0-22.48a1.59,1.59,0,0,1-1.59-1.59V81.58a1.59,1.59,0,0,1,3.18,0v7.49A1.59,1.59,0,0,1,608.68,90.66Zm0-22.47a1.59,1.59,0,0,1-1.59-1.59V59.1a1.59,1.59,0,0,1,3.18,0v7.5A1.59,1.59,0,0,1,608.68,68.19Z"/><path class="cls-3" d="M608.68,469.05a1.59,1.59,0,0,1-1.59-1.59v-3.82a1.59,1.59,0,1,1,3.18,0v3.82A1.59,1.59,0,0,1,608.68,469.05Z"/></g></g></svg>