<svg xmlns="http://www.w3.org/2000/svg" viewBox="0 0 1142.39 481.2"><defs><style>.cls-1{fill:#00324a;}.cls-2{fill:#fff;}.cls-3{fill:#ff574a;}</style></defs><title>3</title><g id="Capa_2" data-name="Capa 2"><g id="Layer_1" data-name="Layer 1"><path class="cls-1" d="M42.77,85h2.52L50,97.77H47.43l-1.19-3.18H41.78l-1.17,3.18H38.05Zm3,7.85L44,87.57l-1.84,5.27Z"/><path class="cls-1" d="M56.77,97.29a6.52,6.52,0,0,1-2.66.64,3.21,3.21,0,0,1-1-.13,2.46,2.46,0,0,1-.77-.4,1.77,1.77,0,0,1-.54-.73,2.64,2.64,0,0,1-.19-1.06V90.2H50.42V88.34h1.24V85.28h2.42v3.06h2V90.2h-2v4.6c0,.62.31.93.89.93a3.6,3.6,0,0,0,1.32-.35Z"/><path class="cls-1" d="M64.1,97.29a6.56,6.56,0,0,1-2.67.64,3.1,3.1,0,0,1-.94-.13,2.4,2.4,0,0,1-.78-.4,1.67,1.67,0,0,1-.53-.73,2.64,2.64,0,0,1-.2-1.06V90.2H57.74V88.34H59V85.28H61.4v3.06h2V90.2h-2v4.6q0,.93.9.93a3.51,3.51,0,0,0,1.31-.35Z"/><path class="cls-1" d="M71.42,90.43a4.44,4.44,0,0,0-2,.44,2.56,2.56,0,0,0-1.23,1.2v5.7H65.8V88.34H68v2a4.3,4.3,0,0,1,1.28-1.53,2.91,2.91,0,0,1,1.64-.61,4.06,4.06,0,0,1,.48,0Z"/><path class="cls-1" d="M73.21,87V84.63h2.41V87Zm0,10.75V88.34h2.41v9.43Z"/><path class="cls-1" d="M80.36,96.14v1.63H78.25V84.63h2.41V90a3.57,3.57,0,0,1,3.24-1.82,3.61,3.61,0,0,1,2.15.67,4.34,4.34,0,0,1,1.47,1.8A5.84,5.84,0,0,1,88,93.1a5.29,5.29,0,0,1-.57,2.45,4.52,4.52,0,0,1-1.59,1.76,4.13,4.13,0,0,1-2.26.64,3.84,3.84,0,0,1-1.91-.48A3.56,3.56,0,0,1,80.36,96.14Zm5.2-3a3.06,3.06,0,0,0-.71-2,2.18,2.18,0,0,0-1.75-.86,2.27,2.27,0,0,0-1.43.52,3.48,3.48,0,0,0-1,1.32v2.25a2.23,2.23,0,0,0,.91,1.14A2.48,2.48,0,0,0,83,95.9a2.42,2.42,0,0,0,1.87-.81A2.84,2.84,0,0,0,85.56,93.12Z"/><path class="cls-1" d="M90,94.25V88.34h2.41v5.38c0,1.45.52,2.18,1.57,2.18a2.4,2.4,0,0,0,1.38-.44,3.18,3.18,0,0,0,1.05-1.27V88.34h2.41v6.74a.84.84,0,0,0,.13.54.59.59,0,0,0,.45.19v2a6.05,6.05,0,0,1-1,.11,1.77,1.77,0,0,1-1.06-.3,1.12,1.12,0,0,1-.47-.82l0-.75a4,4,0,0,1-1.61,1.45A4.77,4.77,0,0,1,93,98,2.65,2.65,0,0,1,90.78,97,4.36,4.36,0,0,1,90,94.25Z"/><path class="cls-1" d="M107.3,97.29a6.6,6.6,0,0,1-2.67.64,3.21,3.21,0,0,1-.95-.13,2.46,2.46,0,0,1-.77-.4,1.77,1.77,0,0,1-.54-.73,2.83,2.83,0,0,1-.19-1.06V90.2h-1.24V88.34h1.24V85.28h2.42v3.06h2V90.2h-2v4.6c0,.62.31.93.89.93a3.6,3.6,0,0,0,1.32-.35Z"/><path class="cls-1" d="M109,87V84.63h2.41V87Zm0,10.75V88.34h2.41v9.43Z"/><path class="cls-1" d="M113.44,93.07a5.13,5.13,0,0,1,.35-1.87,5,5,0,0,1,1-1.56,4.55,4.55,0,0,1,1.57-1.07,5.36,5.36,0,0,1,2.06-.39,5,5,0,0,1,2.62.68,4.55,4.55,0,0,1,1.73,1.78,5.25,5.25,0,0,1,.58,2.43,5.07,5.07,0,0,1-.34,1.86,5,5,0,0,1-1,1.56,4.53,4.53,0,0,1-1.57,1.06,5.12,5.12,0,0,1-2.06.4,5.55,5.55,0,0,1-1.7-.26,4.53,4.53,0,0,1-1.38-.72,5.13,5.13,0,0,1-1-1.06,4.73,4.73,0,0,1-.64-1.34A5,5,0,0,1,113.44,93.07Zm5,2.83a2.22,2.22,0,0,0,1.75-.81,3,3,0,0,0,.71-2,3,3,0,0,0-.71-2,2.32,2.32,0,0,0-3.51,0,3,3,0,0,0-.71,2,3,3,0,0,0,.71,2A2.26,2.26,0,0,0,118.4,95.9Z"/><path class="cls-1" d="M134.16,97.77h-2.41V92.48c0-1.45-.5-2.18-1.49-2.18a2.35,2.35,0,0,0-1.47.57,2.77,2.77,0,0,0-1,1.39v5.51H125.4V88.34h2.18v1.75a3.62,3.62,0,0,1,1.52-1.4,4.83,4.83,0,0,1,2.22-.51,3.14,3.14,0,0,1,1.2.21,2.17,2.17,0,0,1,.82.56,2.68,2.68,0,0,1,.5.84,4.72,4.72,0,0,1,.25,1,7.4,7.4,0,0,1,.07,1.09Z"/><path class="cls-1" d="M156.13,97.77h-2.41V92.48a2.9,2.9,0,0,0-.38-1.64,1.23,1.23,0,0,0-1.08-.54,2,2,0,0,0-1.35.56,3,3,0,0,0-.9,1.42v5.49h-2.42V92.48c0-1.45-.48-2.18-1.46-2.18a2,2,0,0,0-1.34.55,2.91,2.91,0,0,0-.91,1.41v5.51h-2.4V88.34h2.18v1.75a3.66,3.66,0,0,1,1.43-1.41,4.17,4.17,0,0,1,2.07-.5,2.76,2.76,0,0,1,1.8.55,2.56,2.56,0,0,1,.87,1.45,4.09,4.09,0,0,1,1.46-1.49,4,4,0,0,1,2-.51c1.88,0,2.83,1.23,2.83,3.7Z"/><path class="cls-1" d="M158.08,93.07a5.13,5.13,0,0,1,.35-1.87,5,5,0,0,1,1-1.56A4.46,4.46,0,0,1,161,88.57a5.32,5.32,0,0,1,2.06-.39,5,5,0,0,1,2.62.68,4.52,4.52,0,0,1,1.72,1.78,5.14,5.14,0,0,1,.59,2.43,5.08,5.08,0,0,1-.35,1.86,4.63,4.63,0,0,1-1,1.56,4.4,4.4,0,0,1-1.56,1.06A5.12,5.12,0,0,1,163,98a5.5,5.5,0,0,1-1.7-.26A4.31,4.31,0,0,1,160,97a5.13,5.13,0,0,1-1-1.06,4.47,4.47,0,0,1-.64-1.34A5,5,0,0,1,158.08,93.07Zm5,2.83a2.24,2.24,0,0,0,1.75-.81,3,3,0,0,0,.71-2,3,3,0,0,0-.71-2,2.32,2.32,0,0,0-3.51,0,3.28,3.28,0,0,0,0,4.06A2.29,2.29,0,0,0,163,95.9Z"/><path class="cls-1" d="M169.46,93.05a5.6,5.6,0,0,1,.53-2.46,4.33,4.33,0,0,1,1.51-1.76,3.77,3.77,0,0,1,2.17-.65,3.56,3.56,0,0,1,1.85.49A3.71,3.71,0,0,1,176.86,90V84.63h2.41V95.08a.84.84,0,0,0,.13.54.53.53,0,0,0,.43.19v2a5,5,0,0,1-1,.13,1.74,1.74,0,0,1-1.07-.32,1.22,1.22,0,0,1-.48-.85l0-.59a3.47,3.47,0,0,1-1.4,1.34,4,4,0,0,1-1.88.47,4.23,4.23,0,0,1-2.31-.65,4.35,4.35,0,0,1-1.6-1.77A5.39,5.39,0,0,1,169.46,93.05Zm7.4,1.27V92.07a3,3,0,0,0-1-1.31,2.37,2.37,0,0,0-1.43-.53,2.21,2.21,0,0,0-1.77.86,3.09,3.09,0,0,0-.7,2,2.84,2.84,0,0,0,.74,2,2.48,2.48,0,0,0,3.25.35A2.3,2.3,0,0,0,176.86,94.32Z"/><path class="cls-1" d="M186.46,98a5.06,5.06,0,0,1-2.62-.67,4.48,4.48,0,0,1-1.75-1.76,4.91,4.91,0,0,1-.6-2.4,5.16,5.16,0,0,1,.6-2.47,4.52,4.52,0,0,1,1.75-1.8,5.11,5.11,0,0,1,2.64-.67,5.29,5.29,0,0,1,2.06.39,4.42,4.42,0,0,1,1.56,1.07,5,5,0,0,1,1,1.54,5.13,5.13,0,0,1,.33,1.84,4.59,4.59,0,0,1,0,.81h-7.29a2.53,2.53,0,0,0,.81,1.72,2.44,2.44,0,0,0,1.69.64,2.85,2.85,0,0,0,1.37-.35,1.87,1.87,0,0,0,.86-.93l2.07.58a4.07,4.07,0,0,1-1.69,1.78A5.31,5.31,0,0,1,186.46,98ZM184,92.3h4.93a2.64,2.64,0,0,0-.79-1.72,2.46,2.46,0,0,0-3.35,0A2.55,2.55,0,0,0,184,92.3Z"/><path class="cls-1" d="M193.29,84.63h2.41V94.75a1.32,1.32,0,0,0,.21.86.73.73,0,0,0,.6.24,2.71,2.71,0,0,0,1.14-.26l.32,1.84a5.1,5.1,0,0,1-1.12.35,5.67,5.67,0,0,1-1.18.13,2.41,2.41,0,0,1-1.75-.6,2.29,2.29,0,0,1-.63-1.72Z"/><path class="cls-1" d="M199.45,84.63h2.41V94.75a1.32,1.32,0,0,0,.2.86.75.75,0,0,0,.61.24,2.7,2.7,0,0,0,1.13-.26l.32,1.84a4.84,4.84,0,0,1-1.11.35,5.76,5.76,0,0,1-1.19.13,2.43,2.43,0,0,1-1.75-.6,2.32,2.32,0,0,1-.62-1.72Z"/><path class="cls-1" d="M205.62,87V84.63H208V87Zm0,10.75V88.34H208v9.43Z"/><path class="cls-1" d="M219.42,97.77H217V92.48c0-1.45-.5-2.18-1.49-2.18a2.35,2.35,0,0,0-1.47.57,2.77,2.77,0,0,0-1,1.39v5.51h-2.41V88.34h2.18v1.75a3.62,3.62,0,0,1,1.52-1.4,4.83,4.83,0,0,1,2.22-.51,3.14,3.14,0,0,1,1.2.21,2.17,2.17,0,0,1,.82.56,2.68,2.68,0,0,1,.5.84,4.19,4.19,0,0,1,.25,1,7.4,7.4,0,0,1,.07,1.09Z"/><path class="cls-1" d="M221.41,93.05a5.42,5.42,0,0,1,.55-2.46,4.32,4.32,0,0,1,1.57-1.76,4,4,0,0,1,2.27-.65,3.73,3.73,0,0,1,1.9.48A4.16,4.16,0,0,1,229.1,90V88.34h2.11v9a4.23,4.23,0,0,1-.68,2.38,4.32,4.32,0,0,1-1.87,1.55,6.52,6.52,0,0,1-2.69.53,6,6,0,0,1-2.55-.5,5.23,5.23,0,0,1-1.86-1.47l1.31-1.27a3.92,3.92,0,0,0,1.36,1A4.16,4.16,0,0,0,226,100a3.4,3.4,0,0,0,1.08-.16,2.67,2.67,0,0,0,.9-.47,2.11,2.11,0,0,0,.62-.83,2.92,2.92,0,0,0,.22-1.18V96.14a3.2,3.2,0,0,1-1.31,1.24,3.8,3.8,0,0,1-1.82.45,4,4,0,0,1-2.21-.65,4.39,4.39,0,0,1-1.51-1.74A5.44,5.44,0,0,1,221.41,93.05Zm7.38,1.27V92.07a2.89,2.89,0,0,0-1-1.33,2.42,2.42,0,0,0-1.46-.51,2.16,2.16,0,0,0-1.76.87,3.16,3.16,0,0,0-.69,2,2.77,2.77,0,0,0,.75,2,2.42,2.42,0,0,0,1.84.8,2.35,2.35,0,0,0,1.41-.46A2.45,2.45,0,0,0,228.79,94.32Z"/><path class="cls-1" d="M81,274.07V261.3h5.42a3.82,3.82,0,0,1,1.62.36,4.22,4.22,0,0,1,1.3,1A4.85,4.85,0,0,1,90.2,264a4.23,4.23,0,0,1,.3,1.55,4.51,4.51,0,0,1-.49,2.07,4,4,0,0,1-1.42,1.57,3.64,3.64,0,0,1-2.07.61h-3v4.28Zm2.48-6.46h2.88a1.4,1.4,0,0,0,1.15-.57,2.35,2.35,0,0,0,.45-1.5,2.22,2.22,0,0,0-.5-1.51,1.57,1.57,0,0,0-1.2-.55H83.5Z"/><path class="cls-1" d="M98.06,266.73a4.66,4.66,0,0,0-2,.44,2.5,2.5,0,0,0-1.22,1.2v5.7H92.44v-9.43h2.22v2a4.38,4.38,0,0,1,1.27-1.53,2.94,2.94,0,0,1,1.64-.61,4.14,4.14,0,0,1,.49,0Z"/><path class="cls-1" d="M99.85,263.33v-2.39h2.41v2.39Zm0,10.74v-9.43h2.41v9.43Z"/><path class="cls-1" d="M107.43,274.07,104,264.64h2.5l2.38,7.24,2.4-7.24h2.28l-3.45,9.43Z"/><path class="cls-1" d="M114.33,271.29a2.64,2.64,0,0,1,1.13-2.22,4.69,4.69,0,0,1,2.92-.85,6,6,0,0,1,2.27.38v-.5a1.79,1.79,0,0,0-.53-1.39,2.3,2.3,0,0,0-1.58-.48,3.91,3.91,0,0,0-1.44.26,7.4,7.4,0,0,0-1.5.8l-.79-1.58a7.19,7.19,0,0,1,4-1.23,4.52,4.52,0,0,1,3.15,1,3.69,3.69,0,0,1,1.12,2.88v3a.89.89,0,0,0,.13.55.63.63,0,0,0,.45.18v2a4.88,4.88,0,0,1-1,.13,1.67,1.67,0,0,1-1.08-.31,1.29,1.29,0,0,1-.47-.81l0-.48a4.13,4.13,0,0,1-1.52,1.22,4.37,4.37,0,0,1-1.88.43,3.38,3.38,0,0,1-2.35-.84A2.75,2.75,0,0,1,114.33,271.29Zm5.87.48a1.24,1.24,0,0,0,.45-.82v-1a5,5,0,0,0-1.89-.38,2.73,2.73,0,0,0-1.55.41,1.23,1.23,0,0,0-.59,1.07,1.31,1.31,0,0,0,.45,1,1.78,1.78,0,0,0,1.22.41,2.91,2.91,0,0,0,1-.19A2.61,2.61,0,0,0,120.2,271.77Z"/><path class="cls-1" d="M130.15,274.25a5.18,5.18,0,0,1-2.06-.4,4.64,4.64,0,0,1-1.59-1.07,5.08,5.08,0,0,1-1.34-3.42,5.08,5.08,0,0,1,.59-2.43,4.71,4.71,0,0,1,1.74-1.78,5.13,5.13,0,0,1,2.64-.67,5,5,0,0,1,2.61.65,4.2,4.2,0,0,1,1.66,1.76l-2.36.72a2.19,2.19,0,0,0-.81-.79,2.24,2.24,0,0,0-1.11-.29,2.31,2.31,0,0,0-1.77.79,3.27,3.27,0,0,0,0,4.07,2.25,2.25,0,0,0,1.75.81,2.38,2.38,0,0,0,1.19-.31,1.84,1.84,0,0,0,.77-.8l2.35.72a4,4,0,0,1-1.63,1.77A5.09,5.09,0,0,1,130.15,274.25Z"/><path class="cls-1" d="M136.38,275.91a4.44,4.44,0,0,0,1.08.18.92.92,0,0,0,.79-.42,5.44,5.44,0,0,0,.67-1.6l-3.73-9.43h2.51l2.54,7,2.23-7h2.3l-4,11.31a3.27,3.27,0,0,1-1.19,1.62,3.31,3.31,0,0,1-2,.63,3.71,3.71,0,0,1-1.21-.21Z"/><path class="cls-1" d="M155.24,274.25a5.18,5.18,0,0,1-2.06-.4,4.64,4.64,0,0,1-1.59-1.07,5.08,5.08,0,0,1-1.34-3.42,5.08,5.08,0,0,1,.59-2.43,4.71,4.71,0,0,1,1.74-1.78,5.13,5.13,0,0,1,2.64-.67,5,5,0,0,1,2.61.65,4.2,4.2,0,0,1,1.66,1.76l-2.36.72a2.19,2.19,0,0,0-.81-.79,2.24,2.24,0,0,0-1.11-.29,2.31,2.31,0,0,0-1.77.79,3.27,3.27,0,0,0,0,4.07,2.25,2.25,0,0,0,1.75.81,2.38,2.38,0,0,0,1.19-.31,1.84,1.84,0,0,0,.77-.8l2.35.72a4,4,0,0,1-1.63,1.77A5.09,5.09,0,0,1,155.24,274.25Z"/><path class="cls-1" d="M160.76,269.37a5.13,5.13,0,0,1,.35-1.87,5,5,0,0,1,1-1.56,4.55,4.55,0,0,1,1.57-1.07,5.36,5.36,0,0,1,2.06-.39,5,5,0,0,1,2.62.68,4.55,4.55,0,0,1,1.73,1.78,5.13,5.13,0,0,1,.58,2.43,5.07,5.07,0,0,1-.34,1.86,5,5,0,0,1-1,1.56,4.61,4.61,0,0,1-1.56,1.07,5.37,5.37,0,0,1-2.07.39A5.55,5.55,0,0,1,164,274a4.74,4.74,0,0,1-1.38-.71,5.44,5.44,0,0,1-1-1.07,4.73,4.73,0,0,1-.64-1.34A5,5,0,0,1,160.76,269.37Zm5,2.83a2.22,2.22,0,0,0,1.75-.81,3.26,3.26,0,0,0,0-4.06,2.32,2.32,0,0,0-3.51,0,3,3,0,0,0-.71,2,3,3,0,0,0,.71,2A2.23,2.23,0,0,0,165.72,272.2Z"/><path class="cls-1" d="M181.48,274.07h-2.41v-5.29c0-1.45-.5-2.18-1.49-2.18a2.35,2.35,0,0,0-1.47.57,2.77,2.77,0,0,0-1,1.39v5.51h-2.41v-9.43h2.18v1.75a3.69,3.69,0,0,1,1.52-1.4,4.83,4.83,0,0,1,2.22-.51,3.14,3.14,0,0,1,1.2.21,2.29,2.29,0,0,1,.82.56,2.68,2.68,0,0,1,.5.84,4.19,4.19,0,0,1,.25,1,7.45,7.45,0,0,1,.07,1.1Z"/><path class="cls-1" d="M188.43,274.25a5.2,5.2,0,0,1-2.07-.4,4.6,4.6,0,0,1-1.58-1.07,5.06,5.06,0,0,1-1-1.56,4.89,4.89,0,0,1-.36-1.86,5,5,0,0,1,.6-2.43,4.57,4.57,0,0,1,1.74-1.78,5.08,5.08,0,0,1,2.64-.67,5,5,0,0,1,2.6.65,4.14,4.14,0,0,1,1.66,1.76l-2.35.72a2.19,2.19,0,0,0-.81-.79,2.34,2.34,0,0,0-2.88.5,3.25,3.25,0,0,0,0,4.07,2.27,2.27,0,0,0,1.75.81,2.35,2.35,0,0,0,1.19-.31,1.79,1.79,0,0,0,.77-.8l2.36.72a4,4,0,0,1-1.64,1.77A5.06,5.06,0,0,1,188.43,274.25Z"/><path class="cls-1" d="M198.92,274.25a5.12,5.12,0,0,1-2.63-.67,4.55,4.55,0,0,1-1.75-1.76,5,5,0,0,1-.59-2.4,5.27,5.27,0,0,1,.59-2.47,4.65,4.65,0,0,1,1.75-1.8,5.14,5.14,0,0,1,2.65-.67,5.29,5.29,0,0,1,2.06.39,4.61,4.61,0,0,1,1.56,1.07,4.79,4.79,0,0,1,.95,1.54,5,5,0,0,1,.34,1.84,5.82,5.82,0,0,1,0,.81h-7.3a2.5,2.5,0,0,0,.81,1.72,2.47,2.47,0,0,0,1.7.64,2.85,2.85,0,0,0,1.37-.35,1.87,1.87,0,0,0,.86-.93l2.07.58a4.07,4.07,0,0,1-1.69,1.78A5.21,5.21,0,0,1,198.92,274.25Zm-2.47-5.65h4.93a2.64,2.64,0,0,0-.79-1.72,2.48,2.48,0,0,0-3.36,0A2.56,2.56,0,0,0,196.45,268.6Z"/><path class="cls-1" d="M211.39,266.73a4.66,4.66,0,0,0-2,.44,2.5,2.5,0,0,0-1.22,1.2v5.7h-2.41v-9.43H208v2a4.51,4.51,0,0,1,1.28-1.53,2.94,2.94,0,0,1,1.64-.61,4.28,4.28,0,0,1,.49,0Z"/><path class="cls-1" d="M221.94,274.07h-2.4v-5.29c0-1.45-.5-2.18-1.5-2.18a2.35,2.35,0,0,0-1.47.57,2.77,2.77,0,0,0-1,1.39v5.51h-2.41v-9.43h2.18v1.75a3.69,3.69,0,0,1,1.52-1.4,4.83,4.83,0,0,1,2.22-.51,3.14,3.14,0,0,1,1.2.21,2.33,2.33,0,0,1,.83.56,2.66,2.66,0,0,1,.49.84,4.76,4.76,0,0,1,.26,1,9.23,9.23,0,0,1,.06,1.1Z"/><path class="cls-1" d="M228,274.25a6.62,6.62,0,0,1-2.32-.4,5.28,5.28,0,0,1-1.88-1.16l.86-1.57a5.33,5.33,0,0,0,3.25,1.34,2.17,2.17,0,0,0,1.13-.26.82.82,0,0,0,.41-.75.68.68,0,0,0,0-.21.48.48,0,0,0-.08-.18l-.12-.14a.87.87,0,0,0-.19-.13l-.22-.1-.28-.11-.3-.1-.37-.1-.39-.12c-.47-.15-.85-.28-1.14-.4a5.75,5.75,0,0,1-.87-.41,2.52,2.52,0,0,1-.65-.5,2,2,0,0,1-.36-.62,2.37,2.37,0,0,1-.14-.83,2.66,2.66,0,0,1,1.05-2.21,4.3,4.3,0,0,1,2.78-.83,4.94,4.94,0,0,1,3.54,1.34l-1,1.52a4.47,4.47,0,0,0-2.68-1.08,2.13,2.13,0,0,0-1,.23.78.78,0,0,0-.42.75.77.77,0,0,0,.37.69,6.55,6.55,0,0,0,1.35.5c.52.15.93.28,1.24.39a8.15,8.15,0,0,1,.94.41,2.65,2.65,0,0,1,.74.51,2.19,2.19,0,0,1,.57,1.55,2.64,2.64,0,0,1-1,2.19A4.36,4.36,0,0,1,228,274.25Z"/><path class="cls-1" d="M10.63,413.3H6.55v10.6H4.09V413.3H0v-2.18H10.63Z"/><path class="cls-1" d="M21.19,423.9H18.78v-5.29a2.68,2.68,0,0,0-.41-1.64,1.37,1.37,0,0,0-1.17-.54,2.22,2.22,0,0,0-1.39.56,2.79,2.79,0,0,0-1,1.4v5.51H12.43V410.76h2.41v5.46a3.63,3.63,0,0,1,1.42-1.41,3.9,3.9,0,0,1,2-.51q3,0,3,3.71Z"/><path class="cls-1" d="M23.74,413.15v-2.39h2.41v2.39Zm0,10.75v-9.43h2.41v9.43Z"/><path class="cls-1" d="M34.4,416.55a4.66,4.66,0,0,0-2,.44,2.5,2.5,0,0,0-1.22,1.2v5.71H28.78v-9.43H31v2A4.38,4.38,0,0,1,32.27,415a3,3,0,0,1,1.64-.61,4.14,4.14,0,0,1,.49,0Z"/><path class="cls-1" d="M35.52,419.18a5.55,5.55,0,0,1,.54-2.46A4.29,4.29,0,0,1,37.57,415a3.82,3.82,0,0,1,2.17-.65,3.56,3.56,0,0,1,1.85.5,3.66,3.66,0,0,1,1.33,1.32v-5.36h2.42V421.2a1,1,0,0,0,.12.55.6.6,0,0,0,.43.19v2a5.52,5.52,0,0,1-1,.12,1.74,1.74,0,0,1-1.07-.32,1.13,1.13,0,0,1-.48-.85l0-.59a3.45,3.45,0,0,1-1.39,1.34,3.91,3.91,0,0,1-1.88.47,4.21,4.21,0,0,1-2.32-.65,4.5,4.5,0,0,1-1.6-1.77A5.38,5.38,0,0,1,35.52,419.18Zm7.4,1.26v-2.25a3,3,0,0,0-1-1.31,2.38,2.38,0,0,0-1.43-.52,2.2,2.2,0,0,0-1.77.85,3.09,3.09,0,0,0-.7,2,2.83,2.83,0,0,0,.74,2,2.44,2.44,0,0,0,3.24.35A2.2,2.2,0,0,0,42.92,420.44Z"/><path class="cls-1" d="M48.1,420.05v-2.18h5.45v2.18Z"/><path class="cls-1" d="M58.54,422.25v5.48H56.13V414.47h2.11v1.61a3.74,3.74,0,0,1,3.25-1.78,4.07,4.07,0,0,1,2.26.66,4.43,4.43,0,0,1,1.58,1.77,5.24,5.24,0,0,1,.57,2.43,5.81,5.81,0,0,1-.52,2.49,4.38,4.38,0,0,1-1.48,1.77,3.61,3.61,0,0,1-2.12.65,3.8,3.8,0,0,1-1.92-.48A3.47,3.47,0,0,1,58.54,422.25Zm4.89-3.09a2.83,2.83,0,0,0-.74-2,2.45,2.45,0,0,0-3.24-.36,2.25,2.25,0,0,0-.91,1.13v2.21a3.1,3.1,0,0,0,1,1.34A2.26,2.26,0,0,0,61,422a2.17,2.17,0,0,0,1.76-.86A3.06,3.06,0,0,0,63.43,419.16Z"/><path class="cls-1" d="M67.34,421.11a2.66,2.66,0,0,1,1.12-2.22,4.78,4.78,0,0,1,2.93-.85,6,6,0,0,1,2.27.38v-.5a1.77,1.77,0,0,0-.54-1.39,2.27,2.27,0,0,0-1.57-.48,4,4,0,0,0-1.44.26,7.72,7.72,0,0,0-1.51.8l-.78-1.58a7.19,7.19,0,0,1,4-1.23,4.52,4.52,0,0,1,3.14,1,3.67,3.67,0,0,1,1.12,2.88v3a.87.87,0,0,0,.14.55.59.59,0,0,0,.44.19v2a5.34,5.34,0,0,1-1,.12,1.69,1.69,0,0,1-1.08-.3,1.31,1.31,0,0,1-.47-.82l0-.48a4.25,4.25,0,0,1-1.53,1.22,4.33,4.33,0,0,1-1.87.43,3.37,3.37,0,0,1-2.35-.84A2.74,2.74,0,0,1,67.34,421.11Zm5.87.48a1.22,1.22,0,0,0,.45-.82v-1a5,5,0,0,0-1.89-.38,2.7,2.7,0,0,0-1.55.41,1.24,1.24,0,0,0-.6,1.07,1.29,1.29,0,0,0,.46,1,1.72,1.72,0,0,0,1.22.42,2.92,2.92,0,0,0,1-.2A2.55,2.55,0,0,0,73.21,421.59Z"/><path class="cls-1" d="M84.38,416.55a4.58,4.58,0,0,0-2,.44,2.56,2.56,0,0,0-1.23,1.2v5.71H78.76v-9.43H81v2A4.3,4.3,0,0,1,82.26,415a3,3,0,0,1,1.64-.61,4.06,4.06,0,0,1,.48,0Z"/><path class="cls-1" d="M91.83,423.41a6.59,6.59,0,0,1-2.67.65,3.21,3.21,0,0,1-1-.14,2.27,2.27,0,0,1-.77-.4,1.74,1.74,0,0,1-.54-.72,2.9,2.9,0,0,1-.19-1.06v-5.42H85.47v-1.85h1.24v-3.06h2.42v3.06h2v1.85h-2v4.61c0,.61.31.92.89.92a3.55,3.55,0,0,0,1.32-.34Z"/><path class="cls-1" d="M93.69,425.73a4.59,4.59,0,0,0,1.08.18,1,1,0,0,0,.8-.41,6.09,6.09,0,0,0,.66-1.6l-3.73-9.43H95l2.54,7,2.23-7h2.3l-4,11.3a3.24,3.24,0,0,1-1.19,1.63,3.35,3.35,0,0,1-2,.62,4,4,0,0,1-1.21-.2Z"/><path class="cls-1" d="M122.81,423.9h-2.4v-5.29A2.88,2.88,0,0,0,120,417a1.23,1.23,0,0,0-1.08-.54,2,2,0,0,0-1.35.55,3,3,0,0,0-.9,1.42v5.5h-2.42v-5.29c0-1.46-.49-2.18-1.46-2.18a2.08,2.08,0,0,0-1.35.54,3,3,0,0,0-.9,1.42v5.51h-2.41v-9.43h2.18v1.75a3.64,3.64,0,0,1,1.44-1.42,4.28,4.28,0,0,1,2.07-.5,2.74,2.74,0,0,1,1.79.56,2.51,2.51,0,0,1,.87,1.44,4,4,0,0,1,1.47-1.48,3.85,3.85,0,0,1,2-.52q2.83,0,2.83,3.71Z"/><path class="cls-1" d="M129.74,424.07a5.21,5.21,0,0,1-2.63-.66,4.57,4.57,0,0,1-1.75-1.77,4.9,4.9,0,0,1-.59-2.4,5.15,5.15,0,0,1,.59-2.47,4.56,4.56,0,0,1,1.75-1.79,5.5,5.5,0,0,1,4.71-.28,4.45,4.45,0,0,1,1.55,1.06,4.69,4.69,0,0,1,1,1.55,4.92,4.92,0,0,1,.34,1.83,5.61,5.61,0,0,1,0,.81h-7.3a2.49,2.49,0,0,0,2.51,2.37,2.71,2.71,0,0,0,1.36-.36,1.85,1.85,0,0,0,.87-.93l2.07.58a4.12,4.12,0,0,1-1.7,1.79A5.24,5.24,0,0,1,129.74,424.07Zm-2.47-5.65h4.93a2.64,2.64,0,0,0-.79-1.72,2.4,2.4,0,0,0-1.69-.65,2.35,2.35,0,0,0-1.67.66A2.58,2.58,0,0,0,127.27,418.42Z"/><path class="cls-1" d="M135.94,421.11a2.66,2.66,0,0,1,1.12-2.22A4.78,4.78,0,0,1,140,418a6,6,0,0,1,2.27.38v-.5a1.8,1.8,0,0,0-.53-1.39,2.3,2.3,0,0,0-1.58-.48,4,4,0,0,0-1.44.26,7.72,7.72,0,0,0-1.51.8l-.78-1.58a7.19,7.19,0,0,1,4-1.23,4.52,4.52,0,0,1,3.14,1,3.68,3.68,0,0,1,1.13,2.88v3a.87.87,0,0,0,.13.55.63.63,0,0,0,.45.19v2a5.52,5.52,0,0,1-1,.12,1.71,1.71,0,0,1-1.08-.3,1.31,1.31,0,0,1-.47-.82l0-.48a4.17,4.17,0,0,1-1.53,1.22,4.29,4.29,0,0,1-1.87.43,3.37,3.37,0,0,1-2.35-.84A2.74,2.74,0,0,1,135.94,421.11Zm5.87.48a1.22,1.22,0,0,0,.45-.82v-1a5,5,0,0,0-1.89-.38,2.73,2.73,0,0,0-1.55.41,1.24,1.24,0,0,0-.6,1.07,1.32,1.32,0,0,0,.46,1,1.74,1.74,0,0,0,1.22.42,2.92,2.92,0,0,0,1-.2A2.55,2.55,0,0,0,141.81,421.59Z"/><path class="cls-1" d="M150.84,424.07a6.62,6.62,0,0,1-2.32-.4,5.24,5.24,0,0,1-1.87-1.16l.86-1.57a5.23,5.23,0,0,0,3.24,1.34,2.17,2.17,0,0,0,1.13-.26.82.82,0,0,0,.42-.75,1.25,1.25,0,0,0,0-.21.56.56,0,0,0-.09-.17l-.12-.15a.87.87,0,0,0-.19-.13l-.22-.1a2.72,2.72,0,0,0-.28-.11l-.3-.09-.37-.11-.39-.12c-.46-.14-.84-.28-1.14-.39a6.84,6.84,0,0,1-.86-.42,2.06,2.06,0,0,1-.65-.5,1.83,1.83,0,0,1-.37-.62,2.37,2.37,0,0,1-.14-.83,2.67,2.67,0,0,1,1.05-2.21,4.36,4.36,0,0,1,2.78-.83,5,5,0,0,1,3.54,1.34l-1,1.53a4.45,4.45,0,0,0-2.68-1.08,2,2,0,0,0-1,.23.78.78,0,0,0-.42.74.77.77,0,0,0,.37.69,6,6,0,0,0,1.35.5c.52.15.93.28,1.24.39a7.46,7.46,0,0,1,.94.41,2.51,2.51,0,0,1,.74.51,2.17,2.17,0,0,1,.41.66,2.44,2.44,0,0,1,.16.89,2.6,2.6,0,0,1-1,2.19A4.36,4.36,0,0,1,150.84,424.07Z"/><path class="cls-1" d="M156.61,420.37v-5.9H159v5.38c0,1.45.52,2.18,1.57,2.18a2.48,2.48,0,0,0,1.38-.44,3.21,3.21,0,0,0,1.05-1.28v-5.84h2.41v6.73a.87.87,0,0,0,.13.55.63.63,0,0,0,.45.19v2a6,6,0,0,1-1,.1,1.84,1.84,0,0,1-1.06-.29,1.17,1.17,0,0,1-.47-.82l-.05-.76a4,4,0,0,1-1.61,1.45,4.77,4.77,0,0,1-2.19.49,2.65,2.65,0,0,1-2.21-.94A4.32,4.32,0,0,1,156.61,420.37Z"/><path class="cls-1" d="M173.89,416.55a4.66,4.66,0,0,0-2,.44,2.5,2.5,0,0,0-1.22,1.2v5.71h-2.41v-9.43h2.22v2a4.38,4.38,0,0,1,1.27-1.53,3,3,0,0,1,1.64-.61,4.14,4.14,0,0,1,.49,0Z"/><path class="cls-1" d="M179.93,424.07a5.15,5.15,0,0,1-2.62-.66,4.57,4.57,0,0,1-1.75-1.77,4.91,4.91,0,0,1-.6-2.4,5.16,5.16,0,0,1,.6-2.47,4.56,4.56,0,0,1,1.75-1.79,5.48,5.48,0,0,1,4.7-.28,4.4,4.4,0,0,1,1.56,1.06,5,5,0,0,1,1,1.55,5.12,5.12,0,0,1,.34,1.83,4.32,4.32,0,0,1-.06.81h-7.29a2.48,2.48,0,0,0,.81,1.72,2.45,2.45,0,0,0,1.69.65,2.75,2.75,0,0,0,1.37-.36,1.87,1.87,0,0,0,.86-.93l2.07.58a4.1,4.1,0,0,1-1.69,1.79A5.3,5.3,0,0,1,179.93,424.07Zm-2.47-5.65h4.94a2.65,2.65,0,0,0-.8-1.72,2.37,2.37,0,0,0-1.68-.65,2.33,2.33,0,0,0-1.67.66A2.55,2.55,0,0,0,177.46,418.42Z"/><path class="cls-1" d="M201.43,423.9H199v-5.29a2.88,2.88,0,0,0-.38-1.64,1.23,1.23,0,0,0-1.08-.54,2,2,0,0,0-1.35.55,3,3,0,0,0-.9,1.42v5.5H192.9v-5.29c0-1.46-.49-2.18-1.46-2.18a2.08,2.08,0,0,0-1.35.54,3,3,0,0,0-.9,1.42v5.51h-2.41v-9.43H189v1.75a3.64,3.64,0,0,1,1.44-1.42,4.28,4.28,0,0,1,2.07-.5,2.74,2.74,0,0,1,1.79.56,2.51,2.51,0,0,1,.87,1.44,4,4,0,0,1,1.47-1.48,3.85,3.85,0,0,1,2-.52q2.84,0,2.83,3.71Z"/><path class="cls-1" d="M208.36,424.07a5.21,5.21,0,0,1-2.63-.66,4.55,4.55,0,0,1-1.74-1.77,4.91,4.91,0,0,1-.6-2.4,5.16,5.16,0,0,1,.6-2.47,4.53,4.53,0,0,1,1.74-1.79,5.5,5.5,0,0,1,4.71-.28,4.58,4.58,0,0,1,1.56,1.06,5,5,0,0,1,1,1.55,5.12,5.12,0,0,1,.33,1.83,4.46,4.46,0,0,1,0,.81H206a2.44,2.44,0,0,0,.8,1.72,2.47,2.47,0,0,0,1.7.65,2.75,2.75,0,0,0,1.37-.36,1.87,1.87,0,0,0,.86-.93l2.07.58a4.1,4.1,0,0,1-1.69,1.79A5.3,5.3,0,0,1,208.36,424.07Zm-2.47-5.65h4.93a2.64,2.64,0,0,0-.79-1.72,2.38,2.38,0,0,0-1.69-.65,2.35,2.35,0,0,0-1.67.66A2.58,2.58,0,0,0,205.89,418.42Z"/><path class="cls-1" d="M224,423.9h-2.4v-5.29c0-1.46-.5-2.18-1.5-2.18a2.34,2.34,0,0,0-1.47.56,2.75,2.75,0,0,0-1,1.4v5.51h-2.41v-9.43h2.18v1.75a3.61,3.61,0,0,1,1.53-1.41,4.76,4.76,0,0,1,2.21-.51,3,3,0,0,1,1.2.22,2.19,2.19,0,0,1,.83.55,2.6,2.6,0,0,1,.49.85,4.53,4.53,0,0,1,.26,1A9.36,9.36,0,0,1,224,418Z"/><path class="cls-1" d="M232.12,423.41a6.58,6.58,0,0,1-2.66.65,3.16,3.16,0,0,1-1-.14,2.18,2.18,0,0,1-.77-.4,1.74,1.74,0,0,1-.54-.72,2.71,2.71,0,0,1-.19-1.06v-5.42h-1.24v-1.85H227v-3.06h2.41v3.06h2v1.85h-2v4.61c0,.61.32.92.9.92a3.55,3.55,0,0,0,1.32-.34Z"/><path class="cls-1" d="M975,96.81V84h5.65a3.72,3.72,0,0,1,2.09.63,4.35,4.35,0,0,1,1.46,1.59,4.35,4.35,0,0,1-.11,4.28A3.62,3.62,0,0,1,982.42,92l2.92,4.81h-2.73L980,92.53h-2.49v4.28Zm2.48-6.46h3.11a1.43,1.43,0,0,0,1.16-.6,2.33,2.33,0,0,0,.47-1.47,2.14,2.14,0,0,0-.53-1.47,1.56,1.56,0,0,0-1.2-.6h-3Z"/><path class="cls-1" d="M986.57,90.42a6.48,6.48,0,0,1,.48-2.45,6.67,6.67,0,0,1,1.3-2.07,6.31,6.31,0,0,1,2-1.42,6,6,0,0,1,2.51-.54,5.7,5.7,0,0,1,2.06.37,5.33,5.33,0,0,1,1.72,1,6.66,6.66,0,0,1,1.29,1.46,6.57,6.57,0,0,1,.65,6.11A7,7,0,0,1,997.29,95a6.14,6.14,0,0,1-6.56,1.59,5.64,5.64,0,0,1-1.73-1,6.87,6.87,0,0,1-1.3-1.44,6.53,6.53,0,0,1-.84-1.77A6.74,6.74,0,0,1,986.57,90.42Zm6.25,4.28a3.39,3.39,0,0,0,1.59-.37,3.34,3.34,0,0,0,1.18-1A5,5,0,0,0,996.3,92a5.19,5.19,0,0,0,.25-1.56,4.87,4.87,0,0,0-.45-2.09,3.84,3.84,0,0,0-1.31-1.57,3.35,3.35,0,0,0-2-.6,3.47,3.47,0,0,0-2.77,1.34,5,5,0,0,0-.71,1.36,5.19,5.19,0,0,0-.25,1.56,5,5,0,0,0,.44,2.09,3.71,3.71,0,0,0,1.29,1.57A3.39,3.39,0,0,0,992.82,94.7Z"/><path class="cls-1" d="M1001.41,96.81V84h2.48V96.81Z"/><path class="cls-1" d="M1010.88,94A2.66,2.66,0,0,1,1012,91.8a4.78,4.78,0,0,1,2.93-.84,6,6,0,0,1,2.27.37v-.5a1.82,1.82,0,0,0-.53-1.39,2.3,2.3,0,0,0-1.58-.48,4,4,0,0,0-1.44.26,7.72,7.72,0,0,0-1.51.8l-.78-1.58a7.19,7.19,0,0,1,4-1.23,4.57,4.57,0,0,1,3.15,1,3.73,3.73,0,0,1,1.12,2.89v3a.87.87,0,0,0,.13.55.63.63,0,0,0,.45.19v2a5.52,5.52,0,0,1-1,.12,1.73,1.73,0,0,1-1.08-.3,1.29,1.29,0,0,1-.47-.81l-.05-.49a4.17,4.17,0,0,1-1.53,1.22,4.29,4.29,0,0,1-1.87.43,3.37,3.37,0,0,1-2.35-.84A2.74,2.74,0,0,1,1010.88,94Zm5.87.49a1.26,1.26,0,0,0,.45-.83v-1a5,5,0,0,0-1.89-.38,2.73,2.73,0,0,0-1.55.41,1.25,1.25,0,0,0-.6,1.07,1.32,1.32,0,0,0,.46,1,1.74,1.74,0,0,0,1.22.42,2.92,2.92,0,0,0,1-.2A2.6,2.6,0,0,0,1016.75,94.51Z"/><path class="cls-1" d="M1025.78,97a6.62,6.62,0,0,1-2.32-.4,5.24,5.24,0,0,1-1.87-1.16l.86-1.56a5.27,5.27,0,0,0,3.24,1.33,2.06,2.06,0,0,0,1.13-.26.82.82,0,0,0,.42-.75,1.49,1.49,0,0,0,0-.21.56.56,0,0,0-.09-.17l-.12-.15a.62.62,0,0,0-.19-.12,2.24,2.24,0,0,0-.22-.11,1.62,1.62,0,0,0-.28-.1l-.3-.1-.36-.11-.4-.12q-.69-.21-1.14-.39c-.29-.12-.58-.26-.86-.41a2.4,2.4,0,0,1-.65-.5,2,2,0,0,1-.37-.63,2.33,2.33,0,0,1-.14-.83,2.67,2.67,0,0,1,1-2.21,4.36,4.36,0,0,1,2.78-.83,5,5,0,0,1,3.54,1.34l-1,1.53a4.45,4.45,0,0,0-2.68-1.08,2,2,0,0,0-1,.23.78.78,0,0,0-.42.74.77.77,0,0,0,.37.69,6,6,0,0,0,1.35.5c.52.15.93.28,1.24.39a9.27,9.27,0,0,1,.94.41,2.71,2.71,0,0,1,.74.51,2.17,2.17,0,0,1,.41.66,2.49,2.49,0,0,1,.16.9,2.6,2.6,0,0,1-1,2.18A4.36,4.36,0,0,1,1025.78,97Z"/><path class="cls-1" d="M1035.11,97a6.7,6.7,0,0,1-2.32-.4,5.33,5.33,0,0,1-1.87-1.16l.86-1.56a5.31,5.31,0,0,0,3.25,1.33,2.08,2.08,0,0,0,1.13-.26.84.84,0,0,0,.41-.75.75.75,0,0,0,0-.21.32.32,0,0,0-.09-.17,1,1,0,0,0-.12-.15.46.46,0,0,0-.18-.12l-.22-.11-.28-.1-.3-.1-.37-.11-.39-.12q-.7-.21-1.14-.39a8.65,8.65,0,0,1-.87-.41,2.57,2.57,0,0,1-.65-.5,2.16,2.16,0,0,1-.36-.63,2.33,2.33,0,0,1-.14-.83,2.67,2.67,0,0,1,1-2.21,4.33,4.33,0,0,1,2.77-.83,5,5,0,0,1,3.55,1.34l-1,1.53a4.47,4.47,0,0,0-2.68-1.08,2.09,2.09,0,0,0-1.05.23.79.79,0,0,0-.41.74.75.75,0,0,0,.37.69,5.88,5.88,0,0,0,1.34.5c.53.15.94.28,1.24.39a9.4,9.4,0,0,1,.95.41,2.87,2.87,0,0,1,.74.51,2.39,2.39,0,0,1,.41.66,2.5,2.5,0,0,1,.15.9,2.62,2.62,0,0,1-1,2.18A4.37,4.37,0,0,1,1035.11,97Z"/><path class="cls-1" d="M1045.36,97a5.19,5.19,0,0,1-2.63-.66,4.57,4.57,0,0,1-1.75-1.77,4.88,4.88,0,0,1-.6-2.4,5.09,5.09,0,0,1,.6-2.46,4.52,4.52,0,0,1,1.75-1.8,5.48,5.48,0,0,1,4.7-.28,4.4,4.4,0,0,1,1.56,1.06,5,5,0,0,1,1,1.55,5.12,5.12,0,0,1,.34,1.83,4.32,4.32,0,0,1-.06.81h-7.29a2.48,2.48,0,0,0,.81,1.72,2.45,2.45,0,0,0,1.69.65,2.75,2.75,0,0,0,1.37-.36,1.94,1.94,0,0,0,.87-.93l2.06.58a4,4,0,0,1-1.69,1.79A5.27,5.27,0,0,1,1045.36,97Zm-2.47-5.65h4.93a2.6,2.6,0,0,0-.8-1.71,2.46,2.46,0,0,0-3.35,0A2.54,2.54,0,0,0,1042.89,91.33Z"/><path class="cls-1" d="M1055.67,97a6.7,6.7,0,0,1-2.32-.4,5.33,5.33,0,0,1-1.87-1.16l.86-1.56a5.31,5.31,0,0,0,3.25,1.33,2.08,2.08,0,0,0,1.13-.26.84.84,0,0,0,.41-.75.75.75,0,0,0,0-.21.32.32,0,0,0-.09-.17l-.11-.15a.62.62,0,0,0-.19-.12l-.22-.11-.28-.1-.3-.1-.37-.11-.39-.12q-.71-.21-1.14-.39a8.65,8.65,0,0,1-.87-.41,2.57,2.57,0,0,1-.65-.5,2.16,2.16,0,0,1-.36-.63,2.33,2.33,0,0,1-.14-.83,2.67,2.67,0,0,1,1-2.21,4.33,4.33,0,0,1,2.77-.83,5,5,0,0,1,3.55,1.34l-1,1.53a4.47,4.47,0,0,0-2.68-1.08,2.09,2.09,0,0,0-1,.23.79.79,0,0,0-.41.74.75.75,0,0,0,.37.69,5.88,5.88,0,0,0,1.34.5c.53.15.94.28,1.24.39a9.4,9.4,0,0,1,1,.41,2.87,2.87,0,0,1,.74.51,2.39,2.39,0,0,1,.41.66,2.5,2.5,0,0,1,.15.9,2.62,2.62,0,0,1-1,2.18A4.37,4.37,0,0,1,1055.67,97Z"/><path class="cls-1" d="M1065,97a6.66,6.66,0,0,1-2.32-.4,5.24,5.24,0,0,1-1.87-1.16l.86-1.56a5.29,5.29,0,0,0,3.24,1.33,2.06,2.06,0,0,0,1.13-.26.82.82,0,0,0,.42-.75,1.49,1.49,0,0,0,0-.21.56.56,0,0,0-.09-.17,1,1,0,0,0-.12-.15.56.56,0,0,0-.18-.12l-.22-.11-.28-.1-.31-.1-.36-.11-.4-.12q-.69-.21-1.14-.39c-.29-.12-.58-.26-.86-.41a2.57,2.57,0,0,1-.65-.5,2.18,2.18,0,0,1-.37-.63,2.33,2.33,0,0,1-.13-.83,2.69,2.69,0,0,1,1-2.21,4.38,4.38,0,0,1,2.78-.83,5,5,0,0,1,3.54,1.34l-1,1.53a4.47,4.47,0,0,0-2.68-1.08,2.07,2.07,0,0,0-1,.23.77.77,0,0,0-.41.74.75.75,0,0,0,.37.69,5.69,5.69,0,0,0,1.34.5c.52.15.94.28,1.24.39s.62.25,1,.41a2.64,2.64,0,0,1,.73.51,2,2,0,0,1,.41.66,2.29,2.29,0,0,1,.16.9,2.62,2.62,0,0,1-1,2.18A4.39,4.39,0,0,1,1065,97Z"/><path class="cls-1" d="M1085.53,96.81h-2.41V91.52a2.9,2.9,0,0,0-.38-1.64,1.23,1.23,0,0,0-1.08-.54,2,2,0,0,0-1.35.55,3.08,3.08,0,0,0-.9,1.43v5.49H1077V91.52c0-1.45-.48-2.18-1.46-2.18a2.08,2.08,0,0,0-1.35.54,3,3,0,0,0-.9,1.42v5.51h-2.4V87.38h2.17v1.75a3.85,3.85,0,0,1,1.44-1.42,4.28,4.28,0,0,1,2.07-.5,2.72,2.72,0,0,1,1.79.56,2.4,2.4,0,0,1,.87,1.45,4.12,4.12,0,0,1,1.47-1.49,3.86,3.86,0,0,1,2-.52c1.88,0,2.83,1.24,2.83,3.71Z"/><path class="cls-1" d="M1092.45,97a5.15,5.15,0,0,1-2.62-.66,4.57,4.57,0,0,1-1.75-1.77,4.88,4.88,0,0,1-.6-2.4,5.09,5.09,0,0,1,.6-2.46,4.52,4.52,0,0,1,1.75-1.8,5.48,5.48,0,0,1,4.7-.28,4.4,4.4,0,0,1,1.56,1.06,5,5,0,0,1,1,1.55,5.12,5.12,0,0,1,.33,1.83,4.46,4.46,0,0,1-.05.81H1090a2.48,2.48,0,0,0,.81,1.72,2.45,2.45,0,0,0,1.69.65,2.75,2.75,0,0,0,1.37-.36,1.87,1.87,0,0,0,.86-.93l2.07.58a4.1,4.1,0,0,1-1.69,1.79A5.3,5.3,0,0,1,1092.45,97ZM1090,91.33h4.94a2.65,2.65,0,0,0-.8-1.71,2.46,2.46,0,0,0-3.35,0A2.55,2.55,0,0,0,1090,91.33Z"/><path class="cls-1" d="M1108.07,96.81h-2.41V91.52c0-1.45-.5-2.18-1.5-2.18a2.39,2.39,0,0,0-1.46.56,2.81,2.81,0,0,0-1,1.4v5.51h-2.41V87.38h2.18v1.75a3.61,3.61,0,0,1,1.53-1.41,4.78,4.78,0,0,1,2.22-.51,3,3,0,0,1,1.2.22,2.36,2.36,0,0,1,.82.55,2.81,2.81,0,0,1,.5.85,4.58,4.58,0,0,1,.25,1,8.94,8.94,0,0,1,.07,1.09Z"/><path class="cls-1" d="M1116.21,96.33a6.69,6.69,0,0,1-2.66.64,3.57,3.57,0,0,1-1-.13,2.56,2.56,0,0,1-.77-.4,1.77,1.77,0,0,1-.54-.73,2.68,2.68,0,0,1-.19-1.06V89.23h-1.24V87.38h1.24V84.32h2.42v3.06h2v1.85h-2v4.61c0,.61.31.92.89.92a3.55,3.55,0,0,0,1.32-.34Z"/><path class="cls-1" d="M978.48,261.3H981l4.69,12.77h-2.56L982,270.89h-4.47l-1.17,3.18h-2.56Zm3,7.84-1.77-5.27-1.84,5.27Z"/><path class="cls-1" d="M991.42,274.25a5.18,5.18,0,0,1-2.06-.4,4.6,4.6,0,0,1-1.58-1.07,4.71,4.71,0,0,1-1-1.56,4.9,4.9,0,0,1-.36-1.87,5.07,5.07,0,0,1,.59-2.42,4.64,4.64,0,0,1,1.74-1.78,5.14,5.14,0,0,1,2.65-.67,5,5,0,0,1,2.6.65,4.14,4.14,0,0,1,1.66,1.76l-2.36.72a2.12,2.12,0,0,0-.81-.79,2.21,2.21,0,0,0-1.11-.29,2.29,2.29,0,0,0-1.76.79,2.91,2.91,0,0,0-.71,2,3,3,0,0,0,.72,2,2.25,2.25,0,0,0,1.75.81,2.35,2.35,0,0,0,1.19-.31,1.84,1.84,0,0,0,.77-.8l2.35.72a3.91,3.91,0,0,1-1.63,1.77A5.09,5.09,0,0,1,991.42,274.25Z"/><path class="cls-1" d="M1001.94,274.25a5.2,5.2,0,0,1-2.07-.4,4.6,4.6,0,0,1-1.58-1.07,5.06,5.06,0,0,1-1-1.56,4.9,4.9,0,0,1-.35-1.87,5,5,0,0,1,.59-2.42,4.5,4.5,0,0,1,1.74-1.78,5.08,5.08,0,0,1,2.64-.67,5,5,0,0,1,2.6.65,4.14,4.14,0,0,1,1.66,1.76l-2.35.72a2.12,2.12,0,0,0-.81-.79,2.25,2.25,0,0,0-1.12-.29,2.29,2.29,0,0,0-1.76.79,3.25,3.25,0,0,0,0,4.07,2.27,2.27,0,0,0,1.75.81,2.32,2.32,0,0,0,1.19-.31,1.79,1.79,0,0,0,.77-.8l2.36.72a4,4,0,0,1-1.64,1.77A5,5,0,0,1,1001.94,274.25Z"/><path class="cls-1" d="M1008.06,270.55v-5.91h2.4V270c0,1.46.53,2.18,1.57,2.18a2.4,2.4,0,0,0,1.38-.44,3.11,3.11,0,0,0,1.05-1.27v-5.85h2.41v6.74a1,1,0,0,0,.13.55.63.63,0,0,0,.45.18v2a6,6,0,0,1-1,.11,1.8,1.8,0,0,1-1.06-.29,1.11,1.11,0,0,1-.47-.83l-.06-.75a4,4,0,0,1-1.61,1.45,4.75,4.75,0,0,1-2.18.49,2.67,2.67,0,0,1-2.22-.94A4.36,4.36,0,0,1,1008.06,270.55Z"/><path class="cls-1" d="M1025.33,266.73a4.44,4.44,0,0,0-2,.44,2.56,2.56,0,0,0-1.23,1.2v5.7h-2.41v-9.43h2.22v2a4.3,4.3,0,0,1,1.28-1.53,2.88,2.88,0,0,1,1.63-.61,4.14,4.14,0,0,1,.49,0Z"/><path class="cls-1" d="M1026.42,271.29a2.63,2.63,0,0,1,1.12-2.22,4.72,4.72,0,0,1,2.93-.85,6,6,0,0,1,2.27.38v-.5a1.79,1.79,0,0,0-.53-1.39,2.3,2.3,0,0,0-1.58-.48,4.12,4.12,0,0,0-1.44.25,8,8,0,0,0-1.5.81l-.79-1.58a7.19,7.19,0,0,1,4-1.23,4.52,4.52,0,0,1,3.15,1,3.69,3.69,0,0,1,1.12,2.88v3a.89.89,0,0,0,.13.55.63.63,0,0,0,.45.18v2a4.88,4.88,0,0,1-1,.13,1.67,1.67,0,0,1-1.08-.31,1.29,1.29,0,0,1-.47-.81l-.05-.48a4.13,4.13,0,0,1-1.52,1.22,4.37,4.37,0,0,1-1.88.43,3.37,3.37,0,0,1-2.35-.84A2.75,2.75,0,0,1,1026.42,271.29Zm5.87.48a1.24,1.24,0,0,0,.45-.82v-1a5,5,0,0,0-1.89-.38,2.73,2.73,0,0,0-1.55.41,1.23,1.23,0,0,0-.59,1.07,1.28,1.28,0,0,0,.45,1,1.74,1.74,0,0,0,1.22.42,2.72,2.72,0,0,0,1-.2A2.44,2.44,0,0,0,1032.29,271.77Z"/><path class="cls-1" d="M1043.41,273.59a6.56,6.56,0,0,1-2.66.64,3.16,3.16,0,0,1-1-.13,2.26,2.26,0,0,1-.77-.4,1.8,1.8,0,0,1-.54-.72,2.73,2.73,0,0,1-.19-1.07V266.5h-1.24v-1.86h1.24v-3.05h2.41v3.05h2v1.86h-2v4.6q0,.93.9.93a3.6,3.6,0,0,0,1.32-.35Z"/><path class="cls-1" d="M1049.37,274.25a5.12,5.12,0,0,1-2.63-.67,4.46,4.46,0,0,1-1.74-1.76,4.91,4.91,0,0,1-.6-2.4,5.16,5.16,0,0,1,.6-2.47,4.49,4.49,0,0,1,1.74-1.8,5.14,5.14,0,0,1,2.65-.67,5.29,5.29,0,0,1,2.06.39,4.61,4.61,0,0,1,1.56,1.07,4.79,4.79,0,0,1,1,1.54,4.93,4.93,0,0,1,.34,1.84,4.59,4.59,0,0,1,0,.81H1047a2.46,2.46,0,0,0,2.5,2.36,2.85,2.85,0,0,0,1.37-.35,1.87,1.87,0,0,0,.86-.93l2.07.58a4.07,4.07,0,0,1-1.69,1.78A5.31,5.31,0,0,1,1049.37,274.25Zm-2.47-5.65h4.93a2.64,2.64,0,0,0-.79-1.72,2.34,2.34,0,0,0-1.69-.65,2.38,2.38,0,0,0-1.67.65A2.61,2.61,0,0,0,1046.9,268.6Z"/><path class="cls-1" d="M1066.64,273.59a6.56,6.56,0,0,1-2.67.64,3.21,3.21,0,0,1-1-.13,2.46,2.46,0,0,1-.77-.4,1.8,1.8,0,0,1-.54-.72,2.92,2.92,0,0,1-.19-1.07V266.5h-1.24v-1.86h1.24v-3.05h2.42v3.05h2v1.86h-2v4.6c0,.62.31.93.89.93a3.6,3.6,0,0,0,1.32-.35Z"/><path class="cls-1" d="M1067.69,271.29a2.64,2.64,0,0,1,1.13-2.22,4.7,4.7,0,0,1,2.93-.85,6,6,0,0,1,2.26.38v-.5a1.79,1.79,0,0,0-.53-1.39,2.28,2.28,0,0,0-1.58-.48,4.12,4.12,0,0,0-1.44.25,8,8,0,0,0-1.5.81l-.78-1.58a7.17,7.17,0,0,1,4-1.23,4.49,4.49,0,0,1,3.14,1,3.66,3.66,0,0,1,1.12,2.88v3a.89.89,0,0,0,.13.55.63.63,0,0,0,.45.18v2a4.81,4.81,0,0,1-1,.13,1.63,1.63,0,0,1-1.07-.31,1.21,1.21,0,0,1-.47-.81l-.06-.48a4.13,4.13,0,0,1-1.52,1.22,4.34,4.34,0,0,1-1.88.43,3.4,3.4,0,0,1-2.35-.84A2.75,2.75,0,0,1,1067.69,271.29Zm5.87.48a1.24,1.24,0,0,0,.45-.82v-1a4.94,4.94,0,0,0-1.89-.38,2.67,2.67,0,0,0-1.54.41,1.24,1.24,0,0,0-.6,1.07,1.25,1.25,0,0,0,.46,1,1.72,1.72,0,0,0,1.22.42,2.79,2.79,0,0,0,1-.2A2.4,2.4,0,0,0,1073.56,271.77Z"/><path class="cls-1" d="M1084.74,266.73a4.52,4.52,0,0,0-2,.44,2.54,2.54,0,0,0-1.22,1.2v5.7h-2.41v-9.43h2.22v2a4.38,4.38,0,0,1,1.27-1.53,2.94,2.94,0,0,1,1.64-.61,4.14,4.14,0,0,1,.49,0Z"/><path class="cls-1" d="M1085.88,269.35a5.43,5.43,0,0,1,.56-2.46,4.29,4.29,0,0,1,1.56-1.76,4.05,4.05,0,0,1,2.28-.65,3.69,3.69,0,0,1,1.89.48,4.07,4.07,0,0,1,1.4,1.34v-1.66h2.11v9A4.23,4.23,0,0,1,1095,276a4.29,4.29,0,0,1-1.86,1.55,6.44,6.44,0,0,1-2.7.53,6,6,0,0,1-2.55-.5,5.23,5.23,0,0,1-1.86-1.47l1.31-1.27a3.87,3.87,0,0,0,1.37,1,4.08,4.08,0,0,0,1.73.38,3.4,3.4,0,0,0,1.08-.16,2.58,2.58,0,0,0,.9-.47,2,2,0,0,0,.62-.83,2.92,2.92,0,0,0,.22-1.18v-1.19a3.17,3.17,0,0,1-1.3,1.24,3.83,3.83,0,0,1-1.82.45,3.93,3.93,0,0,1-2.21-.65,4.42,4.42,0,0,1-1.52-1.74A5.44,5.44,0,0,1,1085.88,269.35Zm7.38,1.27v-2.25a2.94,2.94,0,0,0-1-1.33,2.42,2.42,0,0,0-1.46-.51,2.16,2.16,0,0,0-1.76.87,3.16,3.16,0,0,0-.69,2,2.77,2.77,0,0,0,.75,2,2.4,2.4,0,0,0,1.84.8,2.52,2.52,0,0,0,2.32-1.58Z"/><path class="cls-1" d="M1102.68,274.25a5.09,5.09,0,0,1-2.63-.67,4.48,4.48,0,0,1-1.75-1.76,4.91,4.91,0,0,1-.6-2.4,5.16,5.16,0,0,1,.6-2.47,4.52,4.52,0,0,1,1.75-1.8,5.14,5.14,0,0,1,2.65-.67,5.32,5.32,0,0,1,2.06.39,4.47,4.47,0,0,1,1.55,1.07,4.82,4.82,0,0,1,1,1.54,4.93,4.93,0,0,1,.34,1.84,5.82,5.82,0,0,1,0,.81h-7.3a2.5,2.5,0,0,0,.81,1.72,2.47,2.47,0,0,0,1.7.64,2.81,2.81,0,0,0,1.36-.35,1.85,1.85,0,0,0,.87-.93l2.06.58a4,4,0,0,1-1.69,1.78A5.24,5.24,0,0,1,1102.68,274.25Zm-2.47-5.65h4.93a2.65,2.65,0,0,0-.8-1.72,2.33,2.33,0,0,0-1.68-.65,2.37,2.37,0,0,0-1.67.65A2.61,2.61,0,0,0,1100.21,268.6Z"/><path class="cls-1" d="M1115.09,273.59a6.56,6.56,0,0,1-2.66.64,3.16,3.16,0,0,1-1-.13,2.26,2.26,0,0,1-.77-.4,1.8,1.8,0,0,1-.54-.72,2.73,2.73,0,0,1-.19-1.07V266.5h-1.24v-1.86H1110v-3.05h2.41v3.05h2v1.86h-2v4.6q0,.93.9.93a3.6,3.6,0,0,0,1.32-.35Z"/><path class="cls-1" d="M1116.8,263.33v-2.4h2.41v2.4Zm0,10.74v-9.43h2.41v9.43Z"/><path class="cls-1" d="M1130.6,274.07h-2.41v-5.29c0-1.45-.5-2.18-1.49-2.18a2.35,2.35,0,0,0-1.47.57,2.85,2.85,0,0,0-1,1.39v5.51h-2.4v-9.43H1124v1.75a3.69,3.69,0,0,1,1.52-1.4,4.83,4.83,0,0,1,2.22-.51,3.14,3.14,0,0,1,1.2.21,2.29,2.29,0,0,1,.82.56,2.68,2.68,0,0,1,.5.84,4.72,4.72,0,0,1,.25,1,7.45,7.45,0,0,1,.07,1.1Z"/><path class="cls-1" d="M1132.59,269.35a5.42,5.42,0,0,1,.55-2.46,4.32,4.32,0,0,1,1.57-1.76,4,4,0,0,1,2.27-.65,3.75,3.75,0,0,1,1.9.48,4.16,4.16,0,0,1,1.4,1.34v-1.66h2.11v9a4.23,4.23,0,0,1-.68,2.38,4.32,4.32,0,0,1-1.87,1.55,6.4,6.4,0,0,1-2.69.53,6,6,0,0,1-2.55-.5,5.06,5.06,0,0,1-1.86-1.47l1.31-1.27a3.83,3.83,0,0,0,1.36,1,4.16,4.16,0,0,0,1.74.38,3.4,3.4,0,0,0,1.08-.16,2.77,2.77,0,0,0,.9-.47,2,2,0,0,0,.62-.83,3.1,3.1,0,0,0,.22-1.18v-1.19a3.2,3.2,0,0,1-1.31,1.24,3.8,3.8,0,0,1-1.82.45,3.93,3.93,0,0,1-2.21-.65,4.39,4.39,0,0,1-1.51-1.74A5.3,5.3,0,0,1,1132.59,269.35Zm7.38,1.27v-2.25a3,3,0,0,0-1-1.33,2.4,2.4,0,0,0-1.45-.51,2.14,2.14,0,0,0-1.76.87,3.16,3.16,0,0,0-.69,2,2.8,2.8,0,0,0,.74,2,2.49,2.49,0,0,0,3.26.35A2.54,2.54,0,0,0,1140,270.62Z"/><path class="cls-1" d="M975,410.59V397.81h2.48v10.6H984v2.18Z"/><path class="cls-1" d="M985.09,407.8a2.66,2.66,0,0,1,1.12-2.22,4.78,4.78,0,0,1,2.93-.85,6,6,0,0,1,2.27.38v-.5a1.8,1.8,0,0,0-.53-1.39,2.31,2.31,0,0,0-1.58-.48,3.84,3.84,0,0,0-1.44.26,7.72,7.72,0,0,0-1.51.8l-.78-1.58a7.19,7.19,0,0,1,4-1.23,4.52,4.52,0,0,1,3.14,1,3.66,3.66,0,0,1,1.12,2.88v3a.87.87,0,0,0,.14.55.59.59,0,0,0,.44.19v2a5.34,5.34,0,0,1-1,.12,1.69,1.69,0,0,1-1.08-.3,1.34,1.34,0,0,1-.47-.82l-.05-.48a4.25,4.25,0,0,1-1.53,1.22,4.33,4.33,0,0,1-1.87.43,3.37,3.37,0,0,1-2.35-.84A2.74,2.74,0,0,1,985.09,407.8Zm5.87.48a1.24,1.24,0,0,0,.45-.82v-1a5,5,0,0,0-1.89-.38,2.7,2.7,0,0,0-1.55.41,1.24,1.24,0,0,0-.6,1.07,1.29,1.29,0,0,0,.46,1,1.76,1.76,0,0,0,1.22.41,2.91,2.91,0,0,0,1.05-.19A2.72,2.72,0,0,0,991,408.28Z"/><path class="cls-1" d="M1000.91,410.76a5.27,5.27,0,0,1-2.07-.4,4.46,4.46,0,0,1-1.58-1.07,5.14,5.14,0,0,1-.75-5.85,4.62,4.62,0,0,1,1.74-1.77,5.49,5.49,0,0,1,5.24,0,4,4,0,0,1,1.66,1.77l-2.35.72a2.14,2.14,0,0,0-.81-.8,2.36,2.36,0,0,0-2.88.51,3.24,3.24,0,0,0,0,4.06,2.28,2.28,0,0,0,1.75.81,2.32,2.32,0,0,0,1.19-.31,1.74,1.74,0,0,0,.77-.8l2.36.72a3.93,3.93,0,0,1-1.64,1.77A5,5,0,0,1,1000.91,410.76Z"/><path class="cls-1" d="M1013.56,410.59l-2.75-4.07-1.29,1.26v2.81h-2.4V397.45h2.4v7.95l3.8-4.23h2.56l-3.51,4,3.76,5.42Z"/><path class="cls-1" d="M1021.77,405.88a5.13,5.13,0,0,1,.35-1.87,5,5,0,0,1,1-1.56,4.46,4.46,0,0,1,1.57-1.07,5.32,5.32,0,0,1,2.06-.39,5,5,0,0,1,2.62.68,4.52,4.52,0,0,1,1.72,1.78,5.14,5.14,0,0,1,.59,2.43,5.29,5.29,0,0,1-.34,1.86,4.82,4.82,0,0,1-1,1.56,4.42,4.42,0,0,1-1.56,1.07,5.29,5.29,0,0,1-2.06.39,5.22,5.22,0,0,1-1.7-.26,4.5,4.5,0,0,1-1.38-.71,5.18,5.18,0,0,1-1-1.07,4.36,4.36,0,0,1-.64-1.34A5,5,0,0,1,1021.77,405.88Zm5,2.83a2.26,2.26,0,0,0,1.75-.8,3.27,3.27,0,0,0,0-4.07,2.33,2.33,0,0,0-3.51,0,3,3,0,0,0-.71,2,3,3,0,0,0,.7,2A2.25,2.25,0,0,0,1026.73,408.71Z"/><path class="cls-1" d="M1034.21,410.59v-7.1H1033v-1.83h1.24v-.57a4.19,4.19,0,0,1,.86-2.79,2.82,2.82,0,0,1,2.29-1,5.38,5.38,0,0,1,2.32.56l-.48,1.82a2.76,2.76,0,0,0-1.32-.34,1.07,1.07,0,0,0-.93.43,2.06,2.06,0,0,0-.32,1.26v.67h2.3v1.83h-2.3v7.1Z"/><path class="cls-1" d="M1045.13,399.84v-2.39h2.41v2.39Zm0,10.75v-9.43h2.41v9.43Z"/><path class="cls-1" d="M1058.93,410.59h-2.41V405.3c0-1.46-.5-2.18-1.49-2.18a2.34,2.34,0,0,0-1.47.56,2.83,2.83,0,0,0-1,1.4v5.51h-2.4v-9.43h2.18v1.74a3.69,3.69,0,0,1,1.52-1.4,4.83,4.83,0,0,1,2.22-.51,3.14,3.14,0,0,1,1.2.21,2.29,2.29,0,0,1,.82.56,2.62,2.62,0,0,1,.5.85,4.49,4.49,0,0,1,.25,1,7.45,7.45,0,0,1,.07,1.1Z"/><path class="cls-1" d="M1061.43,406.74v-2.18h5.45v2.18Z"/><path class="cls-1" d="M1068.8,407.8a2.67,2.67,0,0,1,1.13-2.22,4.75,4.75,0,0,1,2.92-.85,6,6,0,0,1,2.27.38v-.5a1.8,1.8,0,0,0-.53-1.39,2.28,2.28,0,0,0-1.58-.48,3.91,3.91,0,0,0-1.44.26,7.4,7.4,0,0,0-1.5.8l-.78-1.58a7.17,7.17,0,0,1,4-1.23,4.54,4.54,0,0,1,3.14,1,3.66,3.66,0,0,1,1.12,2.88v3a.87.87,0,0,0,.13.55.63.63,0,0,0,.45.19v2a5.43,5.43,0,0,1-1,.12,1.73,1.73,0,0,1-1.08-.3,1.28,1.28,0,0,1-.46-.82l-.06-.48a4.13,4.13,0,0,1-1.52,1.22,4.37,4.37,0,0,1-1.88.43,3.4,3.4,0,0,1-2.35-.84A2.74,2.74,0,0,1,1068.8,407.8Zm5.87.48a1.24,1.24,0,0,0,.45-.82v-1a4.94,4.94,0,0,0-1.89-.38,2.67,2.67,0,0,0-1.54.41,1.24,1.24,0,0,0-.6,1.07,1.31,1.31,0,0,0,.45,1,1.81,1.81,0,0,0,1.23.41,3,3,0,0,0,1-.19A2.57,2.57,0,0,0,1074.67,408.28Z"/><path class="cls-1" d="M1082.64,408.93v5.49h-2.41V401.16h2.11v1.61a3.74,3.74,0,0,1,3.25-1.78,4.07,4.07,0,0,1,2.26.66,4.53,4.53,0,0,1,1.59,1.77,5.23,5.23,0,0,1,.56,2.43,5.81,5.81,0,0,1-.52,2.49,4.38,4.38,0,0,1-1.48,1.77,3.61,3.61,0,0,1-2.12.65,3.8,3.8,0,0,1-1.92-.48A3.43,3.43,0,0,1,1082.64,408.93Zm4.89-3.08a2.83,2.83,0,0,0-.74-2,2.43,2.43,0,0,0-1.87-.8,2.46,2.46,0,0,0-1.37.45,2.25,2.25,0,0,0-.91,1.13v2.21a3.18,3.18,0,0,0,1,1.34,2.25,2.25,0,0,0,1.43.53,2.16,2.16,0,0,0,1.76-.85A3.06,3.06,0,0,0,1087.53,405.85Z"/><path class="cls-1" d="M1094.5,408.93v5.49h-2.41V401.16h2.11v1.61a3.74,3.74,0,0,1,3.25-1.78,4.07,4.07,0,0,1,2.26.66,4.43,4.43,0,0,1,1.58,1.77,5.24,5.24,0,0,1,.57,2.43,5.67,5.67,0,0,1-.53,2.49,4.28,4.28,0,0,1-1.47,1.77,3.64,3.64,0,0,1-2.12.65,3.8,3.8,0,0,1-1.92-.48A3.43,3.43,0,0,1,1094.5,408.93Zm4.89-3.08a2.84,2.84,0,0,0-.75-2,2.45,2.45,0,0,0-3.23-.35,2.2,2.2,0,0,0-.91,1.13v2.21a3.1,3.1,0,0,0,1,1.34,2.25,2.25,0,0,0,1.43.53,2.16,2.16,0,0,0,1.76-.85A3.06,3.06,0,0,0,1099.39,405.85Z"/><path class="cls-1" d="M989.43,433.89H987V428.6a2.9,2.9,0,0,0-.38-1.64,1.23,1.23,0,0,0-1.08-.54,2,2,0,0,0-1.35.55,3.08,3.08,0,0,0-.9,1.43v5.49h-2.42V428.6c0-1.45-.48-2.18-1.46-2.18a2.08,2.08,0,0,0-1.35.54,3,3,0,0,0-.9,1.42v5.51h-2.4v-9.43H977v1.75a3.75,3.75,0,0,1,1.43-1.42,4.28,4.28,0,0,1,2.07-.5,2.72,2.72,0,0,1,1.79.56,2.4,2.4,0,0,1,.87,1.45,4.12,4.12,0,0,1,1.47-1.49,3.86,3.86,0,0,1,2-.52c1.88,0,2.83,1.24,2.83,3.71Z"/><path class="cls-1" d="M996.35,434.07a5.16,5.16,0,0,1-2.62-.67,4.62,4.62,0,0,1-1.75-1.76,5,5,0,0,1-.6-2.41,5.12,5.12,0,0,1,.6-2.46,4.52,4.52,0,0,1,1.75-1.8,5.48,5.48,0,0,1,4.7-.28,4.29,4.29,0,0,1,1.56,1.07,4.88,4.88,0,0,1,1,1.54,5.12,5.12,0,0,1,.34,1.83,4.32,4.32,0,0,1-.06.81h-7.29a2.48,2.48,0,0,0,.81,1.72,2.45,2.45,0,0,0,1.69.65,2.75,2.75,0,0,0,1.37-.36,1.84,1.84,0,0,0,.86-.93l2.07.58a4.1,4.1,0,0,1-1.69,1.79A5.31,5.31,0,0,1,996.35,434.07Zm-2.47-5.66h4.94a2.63,2.63,0,0,0-.8-1.71,2.46,2.46,0,0,0-3.35,0A2.55,2.55,0,0,0,993.88,428.41Z"/><path class="cls-1" d="M1002.55,431.1a2.67,2.67,0,0,1,1.13-2.22,4.75,4.75,0,0,1,2.92-.84,6,6,0,0,1,2.27.37v-.5a1.82,1.82,0,0,0-.53-1.39,2.28,2.28,0,0,0-1.58-.48,4.13,4.13,0,0,0-1.44.26,7.4,7.4,0,0,0-1.5.8l-.78-1.58a7.17,7.17,0,0,1,4-1.23,4.54,4.54,0,0,1,3.14,1,3.69,3.69,0,0,1,1.12,2.89v3a.87.87,0,0,0,.13.55.63.63,0,0,0,.45.19v2a5.43,5.43,0,0,1-1,.12,1.73,1.73,0,0,1-1.08-.3,1.24,1.24,0,0,1-.46-.81l-.06-.49a4.13,4.13,0,0,1-1.52,1.22,4.38,4.38,0,0,1-1.88.44,3.41,3.41,0,0,1-2.35-.85A2.74,2.74,0,0,1,1002.55,431.1Zm5.87.49a1.26,1.26,0,0,0,.45-.83v-1a4.94,4.94,0,0,0-1.89-.38,2.67,2.67,0,0,0-1.54.41,1.25,1.25,0,0,0-.6,1.07,1.31,1.31,0,0,0,.45,1,1.77,1.77,0,0,0,1.23.42,3,3,0,0,0,1.05-.2A2.55,2.55,0,0,0,1008.42,431.59Z"/><path class="cls-1" d="M1017.45,434.07a6.66,6.66,0,0,1-2.32-.41,5.1,5.1,0,0,1-1.87-1.16l.86-1.56a5.31,5.31,0,0,0,3.24,1.33,2.06,2.06,0,0,0,1.13-.26.82.82,0,0,0,.42-.75,1.23,1.23,0,0,0,0-.2.61.61,0,0,0-.09-.18c0-.06-.08-.1-.12-.15a.56.56,0,0,0-.18-.12l-.22-.11-.28-.1-.31-.1-.36-.11-.4-.11c-.46-.15-.84-.28-1.14-.4s-.58-.26-.86-.41a2.57,2.57,0,0,1-.65-.5,2.18,2.18,0,0,1-.37-.63,2.31,2.31,0,0,1-.13-.82,2.7,2.7,0,0,1,1-2.22,4.38,4.38,0,0,1,2.78-.83,5,5,0,0,1,3.54,1.34l-1,1.53a4.47,4.47,0,0,0-2.68-1.08,2.07,2.07,0,0,0-1,.23.79.79,0,0,0-.41.74.75.75,0,0,0,.37.69,5.69,5.69,0,0,0,1.34.5c.52.15.94.28,1.24.39a9.4,9.4,0,0,1,.95.41,2.64,2.64,0,0,1,.73.51,2,2,0,0,1,.41.66,2.29,2.29,0,0,1,.16.9,2.62,2.62,0,0,1-1,2.18A4.4,4.4,0,0,1,1017.45,434.07Z"/><path class="cls-1" d="M1023.23,430.37v-5.91h2.41v5.38c0,1.45.52,2.18,1.56,2.18a2.43,2.43,0,0,0,1.38-.44,3.07,3.07,0,0,0,1.05-1.28v-5.84H1032v6.73a.94.94,0,0,0,.13.55.63.63,0,0,0,.45.19v2a5.85,5.85,0,0,1-1,.11,1.73,1.73,0,0,1-1.06-.3,1.14,1.14,0,0,1-.47-.82l0-.76a4.07,4.07,0,0,1-1.61,1.45,4.83,4.83,0,0,1-2.19.5,2.72,2.72,0,0,1-2.22-.94A4.36,4.36,0,0,1,1023.23,430.37Z"/><path class="cls-1" d="M1040.5,426.54a4.58,4.58,0,0,0-2,.44,2.54,2.54,0,0,0-1.23,1.21v5.7h-2.41v-9.43h2.22v2a4.3,4.3,0,0,1,1.28-1.53,2.9,2.9,0,0,1,1.64-.6h.48Z"/><path class="cls-1" d="M1046.55,434.07a5.19,5.19,0,0,1-2.63-.67,4.62,4.62,0,0,1-1.75-1.76,5,5,0,0,1-.6-2.41,5.12,5.12,0,0,1,.6-2.46,4.52,4.52,0,0,1,1.75-1.8,5.5,5.5,0,0,1,4.71-.28,4.34,4.34,0,0,1,1.55,1.07,4.55,4.55,0,0,1,1,1.54,4.92,4.92,0,0,1,.34,1.83,5.61,5.61,0,0,1,0,.81h-7.3a2.49,2.49,0,0,0,2.51,2.37A2.71,2.71,0,0,0,1048,432a1.81,1.81,0,0,0,.87-.93l2.06.58a4,4,0,0,1-1.69,1.79A5.24,5.24,0,0,1,1046.55,434.07Zm-2.47-5.66H1049a2.63,2.63,0,0,0-.8-1.71,2.46,2.46,0,0,0-3.35,0A2.58,2.58,0,0,0,1044.08,428.41Z"/><path class="cls-1" d="M1068.05,433.89h-2.41V428.6a2.9,2.9,0,0,0-.38-1.64,1.23,1.23,0,0,0-1.08-.54,2,2,0,0,0-1.35.55,3.08,3.08,0,0,0-.9,1.43v5.49h-2.42V428.6c0-1.45-.48-2.18-1.45-2.18a2,2,0,0,0-1.35.54,2.9,2.9,0,0,0-.9,1.42v5.51h-2.41v-9.43h2.18v1.75a3.75,3.75,0,0,1,1.43-1.42,4.28,4.28,0,0,1,2.07-.5,2.75,2.75,0,0,1,1.8.56,2.5,2.5,0,0,1,.87,1.45,4.1,4.1,0,0,1,1.46-1.49,3.86,3.86,0,0,1,2-.52q2.83,0,2.83,3.71Z"/><path class="cls-1" d="M1075,434.07a5.19,5.19,0,0,1-2.63-.67,4.62,4.62,0,0,1-1.75-1.76,5,5,0,0,1-.6-2.41,5.12,5.12,0,0,1,.6-2.46,4.52,4.52,0,0,1,1.75-1.8,5.48,5.48,0,0,1,4.7-.28,4.29,4.29,0,0,1,1.56,1.07,4.88,4.88,0,0,1,1,1.54,5.12,5.12,0,0,1,.34,1.83,4.32,4.32,0,0,1-.06.81h-7.29a2.48,2.48,0,0,0,.81,1.72,2.45,2.45,0,0,0,1.69.65,2.75,2.75,0,0,0,1.37-.36,1.9,1.9,0,0,0,.87-.93l2.06.58a4,4,0,0,1-1.69,1.79A5.27,5.27,0,0,1,1075,434.07Zm-2.47-5.66h4.93a2.63,2.63,0,0,0-.8-1.71,2.46,2.46,0,0,0-3.35,0A2.54,2.54,0,0,0,1072.51,428.41Z"/><path class="cls-1" d="M1090.59,433.89h-2.41V428.6c0-1.45-.5-2.18-1.5-2.18a2.39,2.39,0,0,0-1.46.56,2.87,2.87,0,0,0-1,1.4v5.51h-2.41v-9.43H1084v1.75a3.67,3.67,0,0,1,1.53-1.41,4.78,4.78,0,0,1,2.22-.51,3,3,0,0,1,1.2.22,2.25,2.25,0,0,1,.82.56,2.75,2.75,0,0,1,.5.84,4.58,4.58,0,0,1,.25,1,7.31,7.31,0,0,1,.07,1.09Z"/><path class="cls-1" d="M1098.74,433.41a6.73,6.73,0,0,1-2.67.64,3.57,3.57,0,0,1-1-.13,2.69,2.69,0,0,1-.77-.4,1.77,1.77,0,0,1-.54-.73,2.86,2.86,0,0,1-.19-1.06v-5.42h-1.24v-1.85h1.24V421.4H1096v3.06h2v1.85h-2v4.61c0,.61.31.92.89.92a3.55,3.55,0,0,0,1.32-.34Z"/><path class="cls-2" d="M680.09,57.86a1.6,1.6,0,0,1-1.6-1.59V52.44a1.6,1.6,0,0,1,3.19,0v3.83A1.59,1.59,0,0,1,680.09,57.86Z"/><path class="cls-2" d="M680.09,462.39a1.6,1.6,0,0,1-1.6-1.59v-7.49a1.6,1.6,0,1,1,3.19,0v7.49A1.59,1.59,0,0,1,680.09,462.39Zm0-22.47a1.6,1.6,0,0,1-1.6-1.6v-7.49a1.6,1.6,0,0,1,3.19,0v7.49A1.6,1.6,0,0,1,680.09,439.92Zm0-22.48a1.6,1.6,0,0,1-1.6-1.59v-7.49a1.6,1.6,0,1,1,3.19,0v7.49A1.59,1.59,0,0,1,680.09,417.44Zm0-22.47a1.6,1.6,0,0,1-1.6-1.6v-7.49a1.6,1.6,0,0,1,3.19,0v7.49A1.6,1.6,0,0,1,680.09,395Zm0-22.48a1.6,1.6,0,0,1-1.6-1.59v-7.49a1.6,1.6,0,0,1,3.19,0v7.49A1.59,1.59,0,0,1,680.09,372.49Zm0-22.47a1.6,1.6,0,0,1-1.6-1.59v-7.49a1.6,1.6,0,1,1,3.19,0v7.49A1.59,1.59,0,0,1,680.09,350Zm0-22.47a1.6,1.6,0,0,1-1.6-1.6v-7.49a1.6,1.6,0,0,1,3.19,0V326A1.6,1.6,0,0,1,680.09,327.55Zm0-22.48a1.6,1.6,0,0,1-1.6-1.59V296a1.6,1.6,0,1,1,3.19,0v7.49A1.59,1.59,0,0,1,680.09,305.07Zm0-22.47a1.6,1.6,0,0,1-1.6-1.59v-7.5a1.6,1.6,0,0,1,3.19,0V281A1.59,1.59,0,0,1,680.09,282.6Zm0-22.48a1.6,1.6,0,0,1-1.6-1.59V251a1.6,1.6,0,0,1,3.19,0v7.49A1.59,1.59,0,0,1,680.09,260.12Zm0-22.47a1.6,1.6,0,0,1-1.6-1.59v-7.49a1.6,1.6,0,1,1,3.19,0v7.49A1.59,1.59,0,0,1,680.09,237.65Zm0-22.47a1.6,1.6,0,0,1-1.6-1.6v-7.49a1.6,1.6,0,0,1,3.19,0v7.49A1.6,1.6,0,0,1,680.09,215.18Zm0-22.48a1.6,1.6,0,0,1-1.6-1.59v-7.49a1.6,1.6,0,1,1,3.19,0v7.49A1.59,1.59,0,0,1,680.09,192.7Zm0-22.47a1.6,1.6,0,0,1-1.6-1.59v-7.5a1.6,1.6,0,0,1,3.19,0v7.5A1.59,1.59,0,0,1,680.09,170.23Zm0-22.47a1.6,1.6,0,0,1-1.6-1.6v-7.49a1.6,1.6,0,0,1,3.19,0v7.49A1.6,1.6,0,0,1,680.09,147.76Zm0-22.48a1.6,1.6,0,0,1-1.6-1.59V116.2a1.6,1.6,0,1,1,3.19,0v7.49A1.59,1.59,0,0,1,680.09,125.28Zm0-22.47a1.6,1.6,0,0,1-1.6-1.6V93.72a1.6,1.6,0,0,1,3.19,0v7.49A1.6,1.6,0,0,1,680.09,102.81Zm0-22.48a1.6,1.6,0,0,1-1.6-1.59V71.25a1.6,1.6,0,1,1,3.19,0v7.49A1.59,1.59,0,0,1,680.09,80.33Z"/><path class="cls-2" d="M680.09,481.2a1.6,1.6,0,0,1-1.6-1.6v-3.82a1.6,1.6,0,0,1,3.19,0v3.82A1.6,1.6,0,0,1,680.09,481.2Z"/><circle class="cls-1" cx="368.71" cy="94.54" r="94.54"/><circle class="cls-3" cx="561.77" cy="94.54" r="42.09"/><circle class="cls-1" cx="368.71" cy="271.71" r="47.2"/><circle class="cls-1" cx="368.71" cy="415.15" r="47.2"/><circle class="cls-3" cx="561.77" cy="271.71" r="60.66"/><circle class="cls-3" cx="568.46" cy="415.15" r="33.87"/><circle class="cls-1" cx="768.86" cy="94.54" r="31.46"/><circle class="cls-3" cx="890.54" cy="94.54" r="37.98"/><circle class="cls-1" cx="770.86" cy="270.69" r="21.21"/><circle class="cls-3" cx="892.54" cy="271.71" r="29.76"/><circle class="cls-3" cx="890.54" cy="415.15" r="45.5"/><path class="cls-2" d="M321.42,92.78a9.72,9.72,0,0,1,3.27,7.45,10.45,10.45,0,0,1-3.46,8,12.21,12.21,0,0,1-8.63,3.26,10.73,10.73,0,0,1-9-4.09q-3.19-4.11-3.22-11.56,0-7.86,3.44-12.37a11.46,11.46,0,0,1,9.58-4.52,14.21,14.21,0,0,1,10.3,4.26l-4.77,5.49a7.83,7.83,0,0,0-5.67-2.39,4.66,4.66,0,0,0-3.52,1.34,5.52,5.52,0,0,0-1.39,3.73,7.25,7.25,0,0,1,4.92-1.55A11.6,11.6,0,0,1,321.42,92.78Zm-11.56,10.35a3.61,3.61,0,0,0,5.42,0,4,4,0,0,0,1.16-2.87,3.56,3.56,0,0,0-1.14-2.67,4,4,0,0,0-5.48,0,3.55,3.55,0,0,0-1.13,2.68A4,4,0,0,0,309.86,103.13Z"/><path class="cls-2" d="M350.81,92.7a9.72,9.72,0,0,1,3.27,7.45,10.45,10.45,0,0,1-3.46,8,12.21,12.21,0,0,1-8.63,3.26,10.73,10.73,0,0,1-9-4.09q-3.2-4.11-3.22-11.56,0-7.86,3.44-12.37a11.47,11.47,0,0,1,9.58-4.52,14.23,14.23,0,0,1,10.31,4.26L348.3,88.6a7.83,7.83,0,0,0-5.67-2.39,4.66,4.66,0,0,0-3.52,1.34,5.52,5.52,0,0,0-1.39,3.73,7.25,7.25,0,0,1,4.92-1.55A11.6,11.6,0,0,1,350.81,92.7Zm-11.56,10.35a3.61,3.61,0,0,0,5.42,0,4,4,0,0,0,1.16-2.87,3.56,3.56,0,0,0-1.14-2.67,4,4,0,0,0-5.48,0,3.55,3.55,0,0,0-1.13,2.68A4,4,0,0,0,339.25,103.05Z"/><path class="cls-2" d="M359.67,110.9l0-8.25,7,0,0,8.25Z"/><path class="cls-2" d="M383.81,86.71l-12.37,0,0-7.75,26-.07L381.67,110.8l-9.81,0Z"/><path class="cls-2" d="M402.54,90.61a6.55,6.55,0,0,1,0-10,8.39,8.39,0,0,1,5.75-2.09,8.48,8.48,0,0,1,5.78,2.06,6.52,6.52,0,0,1,0,10,9.09,9.09,0,0,1-11.54,0Zm1.53,17.26,12.87-14.33,11.41-15.17,3.8,3.36-12.33,13.9-11.95,15.58Zm5.76-20.16a3.89,3.89,0,0,0,0-4.29,1.86,1.86,0,0,0-1.54-.9,1.88,1.88,0,0,0-1.53.9,3.55,3.55,0,0,0-.64,2.15,3.6,3.6,0,0,0,.65,2.15,1.88,1.88,0,0,0,1.54.89A1.85,1.85,0,0,0,409.83,87.71Zm12.34,21.4a6.52,6.52,0,0,1,0-10,9.08,9.08,0,0,1,11.53,0,6.55,6.55,0,0,1,0,10,9.09,9.09,0,0,1-11.54,0Zm7.31-2.89a3.86,3.86,0,0,0,0-4.29,1.77,1.77,0,0,0-3.08,0,3.84,3.84,0,0,0,0,4.29,1.77,1.77,0,0,0,3.09,0Z"/><path class="cls-2" d="M744.89,100.52c0-.55,0-1,0-1.37a6.32,6.32,0,0,1,.15-1.05,2.83,2.83,0,0,1,.36-.9,3.28,3.28,0,0,1,.6-.72,5.88,5.88,0,0,1,.94-.69l.64-.37.69-.38c.19-.1.39-.24.62-.39a3.41,3.41,0,0,0,.55-.46,1.89,1.89,0,0,0,.34-.51,1.29,1.29,0,0,0,.14-.6.81.81,0,0,0-.29-.7,1.13,1.13,0,0,0-.72-.23,2.59,2.59,0,0,0-1.18.32,4.5,4.5,0,0,0-1.09.78l-1.81-1.93a4.87,4.87,0,0,1,1.86-1.23,7,7,0,0,1,2.64-.49,4.33,4.33,0,0,1,2.9.86,3,3,0,0,1,1.05,2.41,3.31,3.31,0,0,1-.55,1.92,5.28,5.28,0,0,1-1.63,1.49c-1.25.78-2.09,1.33-2.53,1.65l4.74,0v2.59Z"/><path class="cls-2" d="M755.19,100.49c0-.55,0-1,0-1.36a6.29,6.29,0,0,1,.15-1.06,2.83,2.83,0,0,1,.36-.9,3.28,3.28,0,0,1,.6-.72,5.88,5.88,0,0,1,.94-.69l.64-.37.69-.38a6,6,0,0,0,.62-.39,3.41,3.41,0,0,0,.55-.46,1.89,1.89,0,0,0,.34-.51,1.15,1.15,0,0,0,.14-.6.83.83,0,0,0-.28-.7,1.18,1.18,0,0,0-.73-.23,2.59,2.59,0,0,0-1.18.32,4.71,4.71,0,0,0-1.09.78l-1.81-1.92A5,5,0,0,1,757,90.07a6.86,6.86,0,0,1,2.64-.5,4.38,4.38,0,0,1,2.9.86,3,3,0,0,1,1,2.41,3.36,3.36,0,0,1-.55,1.93,5.38,5.38,0,0,1-1.63,1.48c-1.25.78-2.09,1.33-2.53,1.65h4.74v2.58Z"/><path class="cls-2" d="M765.71,100.46V97.67h2.39v2.8Z"/><path class="cls-2" d="M770,100.45c0-.55,0-1,0-1.36a6.29,6.29,0,0,1,.15-1.06,2.83,2.83,0,0,1,.36-.9,3.28,3.28,0,0,1,.6-.72,5.88,5.88,0,0,1,.94-.69l.64-.37.69-.38a6,6,0,0,0,.62-.39,3.41,3.41,0,0,0,.55-.46,1.89,1.89,0,0,0,.34-.51A1.27,1.27,0,0,0,775,93a.84.84,0,0,0-.29-.7,1.18,1.18,0,0,0-.73-.23,2.59,2.59,0,0,0-1.18.32,4.71,4.71,0,0,0-1.09.78l-1.81-1.92A5,5,0,0,1,771.8,90a6.86,6.86,0,0,1,2.64-.5,4.38,4.38,0,0,1,2.9.86,3,3,0,0,1,1,2.41,3.36,3.36,0,0,1-.55,1.93,5.38,5.38,0,0,1-1.63,1.48c-1.25.78-2.09,1.33-2.53,1.65h4.74v2.58Z"/><path class="cls-2" d="M781,93.58a2.22,2.22,0,0,1,0-3.4,2.84,2.84,0,0,1,2-.71,2.87,2.87,0,0,1,2,.7,2.22,2.22,0,0,1,0,3.4,2.86,2.86,0,0,1-2,.71A2.83,2.83,0,0,1,781,93.58Zm.52,5.85,4.36-4.86,3.87-5.13L791,90.57l-4.18,4.71-4.05,5.28Zm2-6.83a1.19,1.19,0,0,0,.22-.73,1.23,1.23,0,0,0-.22-.72.6.6,0,0,0-1.05,0,1.23,1.23,0,0,0-.21.73,1.16,1.16,0,0,0,.22.72.62.62,0,0,0,.52.31A.66.66,0,0,0,783.47,92.6Zm4.18,7.25a2.22,2.22,0,0,1,0-3.4,2.93,2.93,0,0,1,2-.71,2.83,2.83,0,0,1,1.95.7,2.19,2.19,0,0,1,.8,1.7,2.13,2.13,0,0,1-.79,1.7,3.06,3.06,0,0,1-3.91,0Zm2.48-1a1.16,1.16,0,0,0,.21-.72,1.17,1.17,0,0,0-.22-.73.6.6,0,0,0-1,0,1.21,1.21,0,0,0-.22.73,1.19,1.19,0,0,0,.22.73.66.66,0,0,0,.53.3A.63.63,0,0,0,790.13,98.87Z"/><path class="cls-2" d="M860.48,102c0-.71,0-1.29,0-1.74a9,9,0,0,1,.2-1.35,3.67,3.67,0,0,1,.45-1.14,4.24,4.24,0,0,1,.77-.91,6.68,6.68,0,0,1,1.19-.88c.19-.12.46-.27.82-.47l.87-.49a8.67,8.67,0,0,0,.79-.49,5,5,0,0,0,.69-.58,2.59,2.59,0,0,0,.45-.65,1.74,1.74,0,0,0,.18-.77,1.11,1.11,0,0,0-.37-.89,1.41,1.41,0,0,0-.93-.28,3.24,3.24,0,0,0-1.49.4,6,6,0,0,0-1.39,1l-2.3-2.45a6.31,6.31,0,0,1,2.36-1.56,8.73,8.73,0,0,1,3.35-.63,5.52,5.52,0,0,1,3.7,1.1,3.76,3.76,0,0,1,1.33,3,4.28,4.28,0,0,1-.7,2.46,6.7,6.7,0,0,1-2.07,1.88c-1.59,1-2.66,1.69-3.22,2.1l6,0v3.29Z"/><path class="cls-2" d="M882.69,94a4.14,4.14,0,0,1,1.41,3.21,4.52,4.52,0,0,1-1.49,3.44,5.23,5.23,0,0,1-3.72,1.4,4.62,4.62,0,0,1-3.89-1.76,7.93,7.93,0,0,1-1.38-5A8.46,8.46,0,0,1,875.1,90a4.91,4.91,0,0,1,4.13-2,6.11,6.11,0,0,1,4.44,1.84l-2.06,2.36a3.39,3.39,0,0,0-2.44-1,2,2,0,0,0-1.52.58,2.37,2.37,0,0,0-.6,1.61,3.06,3.06,0,0,1,2.12-.67A5,5,0,0,1,882.69,94Zm-5,4.46a1.56,1.56,0,0,0,2.34,0,1.78,1.78,0,0,0,.5-1.24,1.51,1.51,0,0,0-.5-1.15,1.61,1.61,0,0,0-1.18-.47,1.66,1.66,0,0,0-1.18.47,1.58,1.58,0,0,0-.49,1.16A1.79,1.79,0,0,0,877.71,98.5Z"/><path class="cls-2" d="M886.51,101.88V98.33h3v3.56Z"/><path class="cls-2" d="M897.22,102a5.77,5.77,0,0,1-2-.32,5.37,5.37,0,0,1-1.69-.9,4.17,4.17,0,0,1-1.17-1.45,4.3,4.3,0,0,1-.44-1.89,3,3,0,0,1,.49-1.68,4.81,4.81,0,0,1,1.2-1.26,2.48,2.48,0,0,1-.93-1,2.67,2.67,0,0,1-.38-1.33,3.51,3.51,0,0,1,.45-1.75,4,4,0,0,1,1.18-1.29,6.3,6.3,0,0,1,1.56-.77,5.48,5.48,0,0,1,1.68-.28,5.69,5.69,0,0,1,2.66.66,5,5,0,0,1,1.14.8,3.49,3.49,0,0,1,.8,1.14,3.28,3.28,0,0,1,.31,1.43,2.66,2.66,0,0,1-.38,1.35,2.5,2.5,0,0,1-.94,1A4.81,4.81,0,0,1,902,95.81a3.16,3.16,0,0,1,.5,1.76,4.06,4.06,0,0,1-.7,2.34,4.63,4.63,0,0,1-1.91,1.58A6.22,6.22,0,0,1,897.22,102Zm1-5.65A1.62,1.62,0,0,0,897.2,96a1.55,1.55,0,0,0-1.06.37,1.3,1.3,0,0,0,0,1.91,1.48,1.48,0,0,0,1.05.38,1.49,1.49,0,0,0,1.06-.39,1.26,1.26,0,0,0,.41-.94A1.24,1.24,0,0,0,898.27,96.39Zm-1.83-3.34a1.08,1.08,0,0,0,.76.26A1.18,1.18,0,0,0,898,93a.92.92,0,0,0,.33-.76.86.86,0,0,0-.31-.65,1.17,1.17,0,0,0-.79-.27,1.12,1.12,0,0,0-.78.27.85.85,0,0,0-.3.66A.92.92,0,0,0,896.44,93.05Z"/><path class="cls-2" d="M905.56,93.14a2.85,2.85,0,0,1-1-2.17,2.81,2.81,0,0,1,1-2.17,3.93,3.93,0,0,1,5,0,2.77,2.77,0,0,1,1,2.16,2.8,2.8,0,0,1-1,2.17,3.93,3.93,0,0,1-5,0Zm.66,7.44,5.55-6.18,4.92-6.54,1.64,1.45-5.32,6L907.86,102Zm2.49-8.69A1.59,1.59,0,0,0,909,91a1.48,1.48,0,0,0-.28-.92.8.8,0,0,0-.66-.39.79.79,0,0,0-.66.39,1.67,1.67,0,0,0,0,1.85.81.81,0,0,0,.66.39A.87.87,0,0,0,908.71,91.89Zm5.31,9.22A2.76,2.76,0,0,1,913,99a2.81,2.81,0,0,1,1-2.17,3.67,3.67,0,0,1,2.49-.89,3.57,3.57,0,0,1,2.48.88,2.83,2.83,0,0,1,0,4.33,3.65,3.65,0,0,1-2.49.89A3.7,3.7,0,0,1,914,101.11Zm3.15-1.24a1.67,1.67,0,0,0,0-1.85.82.82,0,0,0-.67-.39.8.8,0,0,0-.66.39,1.47,1.47,0,0,0-.28.93,1.52,1.52,0,0,0,.28.92.82.82,0,0,0,.67.39A.84.84,0,0,0,917.17,99.87Z"/><path class="cls-2" d="M759.82,273.05v2l-5.46,0v-2H756v-4.2a2.77,2.77,0,0,1-.86.65,2.31,2.31,0,0,1-1.09.36v-2a1.52,1.52,0,0,0,.52-.11,3.63,3.63,0,0,0,.52-.27,5.15,5.15,0,0,0,.45-.32l.32-.27.13-.14h2.29v6.31Z"/><path class="cls-2" d="M766.72,273v2h-5.46v-2h1.67v-4.2a2.59,2.59,0,0,1-.85.65,2.34,2.34,0,0,1-1.09.36v-2a1.52,1.52,0,0,0,.52-.11,3.76,3.76,0,0,0,.53-.27,5,5,0,0,0,.44-.32l.33-.27.13-.13h2.28l0,6.31Z"/><path class="cls-2" d="M768,275v-2.13h1.82V275Z"/><path class="cls-2" d="M777,273v2h-5.46v-2h1.67v-4.2a2.46,2.46,0,0,1-.85.65,2.34,2.34,0,0,1-1.09.36v-2a1.47,1.47,0,0,0,.52-.11,2.63,2.63,0,0,0,.53-.27,4.91,4.91,0,0,0,.44-.31l.33-.28.13-.13h2.28l0,6.31Z"/><path class="cls-2" d="M778.68,269.75a1.65,1.65,0,0,1-.61-1.3,1.7,1.7,0,0,1,.6-1.3,2.19,2.19,0,0,1,1.49-.53,2.11,2.11,0,0,1,1.49.53,1.63,1.63,0,0,1,.61,1.29,1.67,1.67,0,0,1-.6,1.3,2.19,2.19,0,0,1-1.49.54A2.14,2.14,0,0,1,778.68,269.75Zm.39,4.46,3.33-3.7,2.94-3.92,1,.87-3.19,3.59-3.09,4Zm1.49-5.21a.92.92,0,0,0,.17-.55,1,1,0,0,0-.17-.56.46.46,0,0,0-.8,0,.92.92,0,0,0-.16.55.9.9,0,0,0,.17.55.44.44,0,0,0,.4.23A.46.46,0,0,0,780.56,269Zm3.19,5.53a1.67,1.67,0,0,1-.62-1.29,1.69,1.69,0,0,1,.61-1.3,2.17,2.17,0,0,1,1.49-.54,2.14,2.14,0,0,1,1.49.53,1.69,1.69,0,0,1,0,2.59,2.17,2.17,0,0,1-1.49.54A2.21,2.21,0,0,1,783.75,274.53Zm1.88-.75a.86.86,0,0,0,.17-.55.92.92,0,0,0-.17-.55.44.44,0,0,0-.4-.23.49.49,0,0,0-.4.23.92.92,0,0,0-.16.55.89.89,0,0,0,.17.56.49.49,0,0,0,.4.23A.47.47,0,0,0,785.63,273.78Z"/><circle class="cls-1" cx="768.86" cy="415.15" r="21.21"/><path class="cls-2" d="M757.82,417.51v2h-5.46v-2H754v-4.2a2.77,2.77,0,0,1-.86.65,2.31,2.31,0,0,1-1.09.36v-2a1.52,1.52,0,0,0,.52-.11,3.63,3.63,0,0,0,.52-.27,5.15,5.15,0,0,0,.45-.32,3.66,3.66,0,0,0,.32-.27,1.37,1.37,0,0,0,.13-.13h2.29v6.31Z"/><path class="cls-2" d="M764.72,417.49v2h-5.46v-2h1.67v-4.2a2.46,2.46,0,0,1-.85.65,2.34,2.34,0,0,1-1.09.36v-2a1.52,1.52,0,0,0,.52-.11,2.93,2.93,0,0,0,.53-.27,4.91,4.91,0,0,0,.44-.31l.33-.28.13-.13h2.28l0,6.31Z"/><path class="cls-2" d="M766,419.45v-2.13h1.82v2.13Z"/><path class="cls-2" d="M775,417.46v2h-5.46v-2h1.67v-4.2a2.46,2.46,0,0,1-.85.65,2.34,2.34,0,0,1-1.09.36v-2a1.47,1.47,0,0,0,.52-.11,2.61,2.61,0,0,0,.53-.26l.44-.32a3.87,3.87,0,0,0,.33-.28l.13-.13h2.28l0,6.31Z"/><path class="cls-2" d="M776.68,414.21a1.63,1.63,0,0,1-.61-1.29,1.67,1.67,0,0,1,.6-1.3,2.34,2.34,0,0,1,3,0,1.64,1.64,0,0,1,.61,1.29,1.67,1.67,0,0,1-.6,1.3,2.19,2.19,0,0,1-1.49.54A2.14,2.14,0,0,1,776.68,414.21Zm.39,4.46,3.33-3.7,2.94-3.92,1,.87-3.19,3.59-3.09,4Zm1.49-5.21a.92.92,0,0,0,.17-.55.9.9,0,0,0-.17-.55.49.49,0,0,0-.4-.24.5.5,0,0,0-.4.24.92.92,0,0,0-.16.55,1,1,0,0,0,.17.56.49.49,0,0,0,.4.23A.47.47,0,0,0,778.56,413.46Zm3.19,5.53a1.67,1.67,0,0,1-.62-1.29,1.69,1.69,0,0,1,.61-1.3,2.17,2.17,0,0,1,1.49-.54,2.19,2.19,0,0,1,1.49.53,1.69,1.69,0,0,1,0,2.59,2.34,2.34,0,0,1-3,0Zm1.88-.74a.89.89,0,0,0,.17-.56.92.92,0,0,0-.17-.55.46.46,0,0,0-.4-.23.49.49,0,0,0-.4.23.94.94,0,0,0-.16.55.89.89,0,0,0,.17.56.45.45,0,0,0,.79,0Z"/><path class="cls-2" d="M868,277.43c0-.56,0-1,0-1.39a6.39,6.39,0,0,1,.16-1.08,3,3,0,0,1,.36-.92,3.44,3.44,0,0,1,.62-.73,5.46,5.46,0,0,1,.95-.71l.66-.38.71-.39c.18-.1.39-.24.63-.4a3,3,0,0,0,.55-.46,2.18,2.18,0,0,0,.36-.52,1.37,1.37,0,0,0,.14-.62.89.89,0,0,0-.29-.72,1.12,1.12,0,0,0-.74-.22,2.58,2.58,0,0,0-1.21.32,4.9,4.9,0,0,0-1.11.8L868,268a5.08,5.08,0,0,1,1.9-1.26,7.12,7.12,0,0,1,2.69-.5,4.46,4.46,0,0,1,3,.88,3,3,0,0,1,1.07,2.46,3.5,3.5,0,0,1-.56,2,5.59,5.59,0,0,1-1.66,1.51c-1.28.8-2.14,1.36-2.59,1.68h4.84v2.64Z"/><path class="cls-2" d="M886.33,274.74v2.64l-7.32,0v-2.64h2.25l0-5.63a3.52,3.52,0,0,1-1.14.88,3.22,3.22,0,0,1-1.46.47v-2.7a1.92,1.92,0,0,0,.7-.15,3.84,3.84,0,0,0,.7-.36l.6-.42c.18-.15.33-.27.43-.37l.18-.18h3.06l0,8.46Z"/><path class="cls-2" d="M888,277.38v-2.86h2.43v2.86Z"/><path class="cls-2" d="M892.34,271.93a5.93,5.93,0,0,1,.22-1.6,6.13,6.13,0,0,1,.66-1.51,5.89,5.89,0,0,1,1-1.28,4.71,4.71,0,0,1,3.15-1.21,4.74,4.74,0,0,1,1.81.34,4.5,4.5,0,0,1,1.44.92,6.57,6.57,0,0,1,1,1.31,6.47,6.47,0,0,1,.63,1.5,5.65,5.65,0,0,1,.21,1.5,5.9,5.9,0,0,1-.22,1.61,6,6,0,0,1-.66,1.52,6.18,6.18,0,0,1-1,1.27,4.61,4.61,0,0,1-1.41.88,4.84,4.84,0,0,1-1.74.32,4.7,4.7,0,0,1-1.81-.33,4.43,4.43,0,0,1-1.43-.91,6,6,0,0,1-1.65-2.79A5.89,5.89,0,0,1,892.34,271.93Zm5.09,2.89a1.54,1.54,0,0,0,.92-.28,1.79,1.79,0,0,0,.61-.72,4.45,4.45,0,0,0,.32-.93,4.6,4.6,0,0,0,.11-1,4.31,4.31,0,0,0-.12-1,4.15,4.15,0,0,0-.35-.93,2,2,0,0,0-.62-.69,1.57,1.57,0,0,0-.88-.26,1.61,1.61,0,0,0-.92.28,2,2,0,0,0-.61.72,4.45,4.45,0,0,0-.32.93,4.66,4.66,0,0,0-.1,1,4.93,4.93,0,0,0,.11,1,3.88,3.88,0,0,0,.34.92,1.8,1.8,0,0,0,.62.69A1.6,1.6,0,0,0,897.43,274.82Z"/><path class="cls-2" d="M905,270.35a2.29,2.29,0,0,1-.82-1.74,2.22,2.22,0,0,1,.82-1.74,3.11,3.11,0,0,1,4,0,2.22,2.22,0,0,1,.82,1.73,2.25,2.25,0,0,1-.81,1.75,3,3,0,0,1-2,.72A3,3,0,0,1,905,270.35Zm.53,6,4.46-5,3.95-5.25,1.31,1.16-4.27,4.81-4.13,5.4Zm2-7a1.22,1.22,0,0,0,.22-.74,1.21,1.21,0,0,0-.23-.74.62.62,0,0,0-.53-.31.64.64,0,0,0-.53.31,1.37,1.37,0,0,0,0,1.49.64.64,0,0,0,.54.3A.64.64,0,0,0,907.48,269.34Zm4.27,7.41a2.19,2.19,0,0,1-.82-1.73,2.25,2.25,0,0,1,.81-1.74,3,3,0,0,1,2-.73,2.9,2.9,0,0,1,2,.72,2.19,2.19,0,0,1,.82,1.73,2.23,2.23,0,0,1-.81,1.74,2.88,2.88,0,0,1-2,.72A2.92,2.92,0,0,1,911.75,276.75Zm2.53-1a1.33,1.33,0,0,0,0-1.48.63.63,0,0,0-.53-.31.64.64,0,0,0-.53.31,1.19,1.19,0,0,0-.23.74,1.26,1.26,0,0,0,.23.75.64.64,0,0,0,.54.3A.64.64,0,0,0,914.28,275.75Z"/><path class="cls-2" d="M857.59,426.5a9.6,9.6,0,0,1-6.36-2l2.53-3.55a5.6,5.6,0,0,0,3.55,1.12,3.62,3.62,0,0,0,1.94-.4,1.39,1.39,0,0,0,.62-1.27,1.49,1.49,0,0,0-.8-1.4,5.7,5.7,0,0,0-2.55-.42h-.81v-3.38h.92a3.68,3.68,0,0,0,2-.48,1.48,1.48,0,0,0,.76-1.29,1.15,1.15,0,0,0-.45-1,2,2,0,0,0-1.25-.34,3.67,3.67,0,0,0-3.11,1.81l-3.15-3.61a6.46,6.46,0,0,1,2.81-1.68,12.62,12.62,0,0,1,4-.65,8.1,8.1,0,0,1,4.69,1.23,3.83,3.83,0,0,1,1.78,3.27,4.22,4.22,0,0,1-1,2.72,3.92,3.92,0,0,1-2.41,1.47,4.17,4.17,0,0,1,2.64,1.56,4.68,4.68,0,0,1,1,3,4.43,4.43,0,0,1-2,3.85A9.34,9.34,0,0,1,857.59,426.5Z"/><path class="cls-2" d="M880.77,421.94v4.37l-12.1,0V422h3.71l0-9.3a6,6,0,0,1-1.89,1.44,5.42,5.42,0,0,1-2.42.79v-4.48a3.16,3.16,0,0,0,1.16-.25,5.9,5.9,0,0,0,1.15-.58,9.66,9.66,0,0,0,1-.71,7.89,7.89,0,0,0,.72-.61,3.45,3.45,0,0,0,.29-.29l5.06,0,0,14Z"/><path class="cls-2" d="M883.57,426.3v-4.73h4v4.73Z"/><path class="cls-2" d="M890.76,426.28q0-1.41.06-2.31a11.94,11.94,0,0,1,.26-1.78,4.88,4.88,0,0,1,.6-1.52,6.54,6.54,0,0,1,1-1.22,9.36,9.36,0,0,1,1.59-1.16c.25-.16.61-.36,1.08-.62l1.16-.65a12.12,12.12,0,0,0,1.05-.66,6.52,6.52,0,0,0,.92-.77,3.63,3.63,0,0,0,.59-.86,2.31,2.31,0,0,0,.24-1,1.43,1.43,0,0,0-.49-1.18,1.92,1.92,0,0,0-1.23-.38,4.4,4.4,0,0,0-2,.53,7.9,7.9,0,0,0-1.84,1.32l-3.06-3.25a8.4,8.4,0,0,1,3.14-2.08,11.91,11.91,0,0,1,4.45-.84,7.43,7.43,0,0,1,4.91,1.46,5,5,0,0,1,1.77,4.06,5.68,5.68,0,0,1-.93,3.26,9.09,9.09,0,0,1-2.74,2.51c-2.12,1.32-3.54,2.24-4.28,2.78l8,0v4.36Z"/><path class="cls-2" d="M909.4,414.68A3.7,3.7,0,0,1,908,411.8a3.75,3.75,0,0,1,1.34-2.88,5.19,5.19,0,0,1,6.6,0,3.74,3.74,0,0,1,0,5.75,5.2,5.2,0,0,1-6.6,0Zm.87,9.88,7.37-8.21,6.53-8.68,2.17,1.93-7.05,7.95-6.84,8.92Zm3.3-11.54a2.06,2.06,0,0,0,.37-1.23,2.09,2.09,0,0,0-.38-1.23,1.08,1.08,0,0,0-.88-.51,1.06,1.06,0,0,0-.88.52,2.24,2.24,0,0,0,0,2.45,1.05,1.05,0,0,0,.88.51A1.08,1.08,0,0,0,913.57,413Zm7.06,12.25a3.73,3.73,0,0,1,0-5.75,5.2,5.2,0,0,1,6.6,0,3.69,3.69,0,0,1,1.35,2.88,3.63,3.63,0,0,1-1.34,2.87,4.79,4.79,0,0,1-3.29,1.19A4.91,4.91,0,0,1,920.63,425.27Zm4.18-1.65a2.06,2.06,0,0,0,.37-1.23,2.08,2.08,0,0,0-.37-1.23,1.09,1.09,0,0,0-.89-.51,1.08,1.08,0,0,0-.88.51,2.06,2.06,0,0,0-.37,1.23,2,2,0,0,0,.38,1.23,1.08,1.08,0,0,0,.88.51A1.06,1.06,0,0,0,924.81,423.62Z"/><path class="cls-2" d="M529.09,103.33c0-.79,0-1.44,0-1.94a9.64,9.64,0,0,1,.22-1.51,4,4,0,0,1,.5-1.27,5.34,5.34,0,0,1,.86-1,8,8,0,0,1,1.34-1l.91-.52,1-.55a8.26,8.26,0,0,0,.88-.56,4.6,4.6,0,0,0,.78-.64,3.21,3.21,0,0,0,.49-.73,1.84,1.84,0,0,0,.2-.86,1.18,1.18,0,0,0-.41-1,1.58,1.58,0,0,0-1-.32,3.58,3.58,0,0,0-1.67.45A6.69,6.69,0,0,0,531.63,93l-2.57-2.74a7,7,0,0,1,2.64-1.75,9.93,9.93,0,0,1,3.75-.7A6.15,6.15,0,0,1,539.58,89a4.2,4.2,0,0,1,1.49,3.42,4.82,4.82,0,0,1-.78,2.74A7.82,7.82,0,0,1,538,97.3q-2.67,1.67-3.6,2.34l6.73,0v3.67Z"/><path class="cls-2" d="M545.29,96.81a4.67,4.67,0,0,1-1.58-3.59,5.06,5.06,0,0,1,1.67-3.85,5.91,5.91,0,0,1,4.16-1.57,5.16,5.16,0,0,1,4.34,2,8.87,8.87,0,0,1,1.55,5.57,9.54,9.54,0,0,1-1.65,6,5.49,5.49,0,0,1-4.61,2.17,6.83,6.83,0,0,1-5-2l2.3-2.65a3.77,3.77,0,0,0,2.73,1.17,2.21,2.21,0,0,0,1.69-.66,2.67,2.67,0,0,0,.68-1.8,3.48,3.48,0,0,1-2.38.75A5.6,5.6,0,0,1,545.29,96.81Zm5.57-5a1.75,1.75,0,0,0-1.31-.59,1.71,1.71,0,0,0-1.3.6,1.91,1.91,0,0,0-.57,1.38,1.73,1.73,0,0,0,.56,1.28,1.79,1.79,0,0,0,1.32.53,1.84,1.84,0,0,0,1.32-.53,1.68,1.68,0,0,0,.55-1.29A1.91,1.91,0,0,0,550.86,91.82Z"/><path class="cls-2" d="M558.18,103.25v-4h3.39v4Z"/><path class="cls-2" d="M569.81,91.59h-6V87.87l12.53,0-7.59,15.37h-4.73Z"/><path class="cls-2" d="M578.84,93.47a3.16,3.16,0,0,1,0-4.85,4.37,4.37,0,0,1,5.55,0A3.07,3.07,0,0,1,585.53,91a3.13,3.13,0,0,1-1.13,2.42,4.36,4.36,0,0,1-5.56,0Zm.74,8.32,6.2-6.91,5.5-7.31,1.83,1.62-6,6.7-5.75,7.5Zm2.77-9.72a1.88,1.88,0,0,0,0-2.07.91.91,0,0,0-.75-.43.89.89,0,0,0-.73.44,1.62,1.62,0,0,0-.31,1,1.68,1.68,0,0,0,.31,1,.85.85,0,0,0,1.48,0Zm5.95,10.31a3.12,3.12,0,0,1,0-4.83,4.35,4.35,0,0,1,5.55,0,3.16,3.16,0,0,1,0,4.84,4.38,4.38,0,0,1-5.56,0Zm3.52-1.39a1.7,1.7,0,0,0,.31-1,1.81,1.81,0,0,0-.32-1,.91.91,0,0,0-.74-.43.9.9,0,0,0-.74.44,1.64,1.64,0,0,0-.32,1,1.74,1.74,0,0,0,.32,1,.93.93,0,0,0,.75.43A.9.9,0,0,0,591.82,101Z"/><path class="cls-2" d="M340.09,280.63a8.43,8.43,0,0,1-5.59-1.79l2.23-3.11a5,5,0,0,0,3.11,1,3.15,3.15,0,0,0,1.71-.36,1.22,1.22,0,0,0,.54-1.11,1.29,1.29,0,0,0-.7-1.23,5,5,0,0,0-2.24-.37h-.71v-3h.8a3.29,3.29,0,0,0,1.77-.43,1.3,1.3,0,0,0,.66-1.13,1,1,0,0,0-.39-.85,1.67,1.67,0,0,0-1.1-.3,3.21,3.21,0,0,0-2.73,1.59l-2.77-3.18a5.77,5.77,0,0,1,2.47-1.47,11.34,11.34,0,0,1,3.52-.57,7.1,7.1,0,0,1,4.12,1.08,3.34,3.34,0,0,1,1.56,2.87,3.6,3.6,0,0,1-.84,2.39,3.5,3.5,0,0,1-2.12,1.3,3.64,3.64,0,0,1,2.32,1.36,4.16,4.16,0,0,1,.91,2.68,3.89,3.89,0,0,1-1.74,3.37A8.19,8.19,0,0,1,340.09,280.63Z"/><path class="cls-2" d="M354.34,280.59a8.33,8.33,0,0,1-5.58-1.79l2.22-3.11a5,5,0,0,0,3.11,1,3.15,3.15,0,0,0,1.71-.36,1.18,1.18,0,0,0,.54-1.11,1.31,1.31,0,0,0-.69-1.23,5.06,5.06,0,0,0-2.25-.37h-.71v-3h.81a3.27,3.27,0,0,0,1.76-.43,1.29,1.29,0,0,0,.66-1.13,1,1,0,0,0-.39-.85,1.78,1.78,0,0,0-1.1-.3,3.21,3.21,0,0,0-2.73,1.59l-2.77-3.17a5.68,5.68,0,0,1,2.47-1.48,11.34,11.34,0,0,1,3.52-.57,7.1,7.1,0,0,1,4.12,1.08,3.35,3.35,0,0,1,1.56,2.87,3.65,3.65,0,0,1-.83,2.39,3.55,3.55,0,0,1-2.13,1.3,3.64,3.64,0,0,1,2.32,1.36,4.12,4.12,0,0,1,.91,2.68,3.87,3.87,0,0,1-1.74,3.37A8.19,8.19,0,0,1,354.34,280.59Z"/><path class="cls-2" d="M363.74,280.45V276.3h3.54v4.15Z"/><path class="cls-2" d="M375.22,280.53a8.33,8.33,0,0,1-5.58-1.79l2.22-3.11a4.91,4.91,0,0,0,3.12,1,3.24,3.24,0,0,0,1.7-.35,1.23,1.23,0,0,0,.55-1.12,1.31,1.31,0,0,0-.7-1.22,5,5,0,0,0-2.24-.38h-.72v-3h.81a3.16,3.16,0,0,0,1.76-.43,1.25,1.25,0,0,0,.66-1.13,1,1,0,0,0-.39-.85,1.78,1.78,0,0,0-1.1-.3,3.21,3.21,0,0,0-2.73,1.59l-2.76-3.17a5.57,5.57,0,0,1,2.46-1.47,10.78,10.78,0,0,1,3.52-.57,7,7,0,0,1,4.12,1.08,3.37,3.37,0,0,1,1.57,2.86,3.74,3.74,0,0,1-.84,2.4,3.47,3.47,0,0,1-2.12,1.29,3.65,3.65,0,0,1,2.31,1.36,4.14,4.14,0,0,1,.91,2.68,3.89,3.89,0,0,1-1.74,3.38A8.19,8.19,0,0,1,375.22,280.53Z"/><path class="cls-2" d="M385.39,270.25a3.22,3.22,0,0,1-1.18-2.52,3.18,3.18,0,0,1,1.17-2.53,4.56,4.56,0,0,1,5.8,0,3.27,3.27,0,0,1,0,5.05,4.21,4.21,0,0,1-2.9,1A4.26,4.26,0,0,1,385.39,270.25Zm.77,8.68,6.47-7.21,5.74-7.62,1.91,1.69-6.2,7-6,7.84Zm2.9-10.14a2,2,0,0,0,0-2.16.93.93,0,0,0-.77-.45.94.94,0,0,0-.77.46,1.77,1.77,0,0,0-.32,1.08,1.84,1.84,0,0,0,.32,1.08,1,1,0,0,0,.78.45A1,1,0,0,0,389.06,268.79Zm6.2,10.76a3.27,3.27,0,0,1,0-5,4.56,4.56,0,0,1,5.8,0,3.28,3.28,0,0,1,0,5.05,4.22,4.22,0,0,1-2.89,1A4.3,4.3,0,0,1,395.26,279.55Zm3.68-1.45a1.84,1.84,0,0,0,.32-1.08,1.78,1.78,0,0,0-.33-1.08,1,1,0,0,0-.77-.45,1,1,0,0,0-.78.46,1.78,1.78,0,0,0-.33,1.08,1.8,1.8,0,0,0,.33,1.08.94.94,0,0,0,.78.44A1,1,0,0,0,398.94,278.1Z"/><path class="cls-2" d="M340.09,422.93a8.38,8.38,0,0,1-5.59-1.79l2.23-3.11a4.9,4.9,0,0,0,3.11,1,3.26,3.26,0,0,0,1.71-.35,1.25,1.25,0,0,0,.54-1.12,1.28,1.28,0,0,0-.7-1.22,5,5,0,0,0-2.24-.38h-.71v-3h.8a3.2,3.2,0,0,0,1.77-.43,1.29,1.29,0,0,0,.66-1.13,1,1,0,0,0-.39-.85,1.8,1.8,0,0,0-1.1-.3,3.21,3.21,0,0,0-2.73,1.59l-2.77-3.17a5.58,5.58,0,0,1,2.47-1.47,10.78,10.78,0,0,1,3.52-.57,7,7,0,0,1,4.12,1.07,3.35,3.35,0,0,1,1.56,2.87,3.63,3.63,0,0,1-.84,2.4,3.49,3.49,0,0,1-2.12,1.29,3.64,3.64,0,0,1,2.32,1.36,4.18,4.18,0,0,1,.91,2.68,3.91,3.91,0,0,1-1.74,3.38A8.19,8.19,0,0,1,340.09,422.93Z"/><path class="cls-2" d="M354.34,422.89a8.33,8.33,0,0,1-5.58-1.79L351,418a4.9,4.9,0,0,0,3.11,1,3.26,3.26,0,0,0,1.71-.35,1.21,1.21,0,0,0,.54-1.12,1.29,1.29,0,0,0-.69-1.22,5,5,0,0,0-2.25-.38h-.71v-3h.81a3.19,3.19,0,0,0,1.76-.43,1.29,1.29,0,0,0,.66-1.13,1,1,0,0,0-.39-.85,1.78,1.78,0,0,0-1.1-.3,3.21,3.21,0,0,0-2.73,1.59l-2.77-3.17a5.77,5.77,0,0,1,2.47-1.47,10.78,10.78,0,0,1,3.52-.57,7,7,0,0,1,4.12,1.08,3.33,3.33,0,0,1,1.56,2.86,3.67,3.67,0,0,1-.83,2.4,3.54,3.54,0,0,1-2.13,1.29,3.64,3.64,0,0,1,2.32,1.36,4.14,4.14,0,0,1,.91,2.68,3.89,3.89,0,0,1-1.74,3.38A8.19,8.19,0,0,1,354.34,422.89Z"/><path class="cls-2" d="M363.74,422.76v-4.15h3.54v4.15Z"/><path class="cls-2" d="M375.22,422.84a8.38,8.38,0,0,1-5.58-1.79l2.22-3.11a5,5,0,0,0,3.12,1,3.14,3.14,0,0,0,1.7-.36,1.23,1.23,0,0,0,.55-1.11,1.32,1.32,0,0,0-.7-1.23,4.87,4.87,0,0,0-2.24-.37h-.72v-3h.81a3.25,3.25,0,0,0,1.76-.42,1.26,1.26,0,0,0,.66-1.13,1,1,0,0,0-.39-.86,1.78,1.78,0,0,0-1.1-.3,3.24,3.24,0,0,0-2.73,1.6l-2.76-3.18a5.66,5.66,0,0,1,2.46-1.47,10.78,10.78,0,0,1,3.52-.57,7,7,0,0,1,4.12,1.08,3.37,3.37,0,0,1,1.57,2.87,3.73,3.73,0,0,1-.84,2.39,3.47,3.47,0,0,1-2.12,1.29,3.66,3.66,0,0,1,2.31,1.37,4.1,4.1,0,0,1,.91,2.68,3.87,3.87,0,0,1-1.74,3.37A8.19,8.19,0,0,1,375.22,422.84Z"/><path class="cls-2" d="M385.39,412.55a3.3,3.3,0,0,1,0-5.05,4.2,4.2,0,0,1,2.89-1.05,4.26,4.26,0,0,1,2.91,1,3.28,3.28,0,0,1,0,5.06,4.55,4.55,0,0,1-5.8,0Zm.77,8.68,6.47-7.21,5.74-7.62,1.91,1.69-6.2,7-6,7.83Zm2.9-10.14a1.94,1.94,0,0,0,0-2.15.88.88,0,0,0-1.54,0,1.77,1.77,0,0,0-.32,1.08,1.84,1.84,0,0,0,.32,1.08,1,1,0,0,0,.78.45A.93.93,0,0,0,389.06,411.09Zm6.2,10.77a3.28,3.28,0,0,1,0-5.05,4.56,4.56,0,0,1,5.8,0,3.28,3.28,0,0,1,0,5,4.22,4.22,0,0,1-2.89,1A4.29,4.29,0,0,1,395.26,421.86Zm3.68-1.46a1.84,1.84,0,0,0,.32-1.08,1.77,1.77,0,0,0-.33-1.07.89.89,0,0,0-1.55,0,1.93,1.93,0,0,0,0,2.16,1,1,0,0,0,.78.45A.94.94,0,0,0,398.94,420.4Z"/><path class="cls-2" d="M543.45,422.14c0-.61,0-1.12,0-1.51a7.5,7.5,0,0,1,.17-1.17,3.2,3.2,0,0,1,.39-1,4.07,4.07,0,0,1,.67-.8,6.69,6.69,0,0,1,1-.77l.71-.4.76-.43a6.65,6.65,0,0,0,.69-.43,4.16,4.16,0,0,0,.6-.5,2.39,2.39,0,0,0,.39-.57,1.56,1.56,0,0,0,.15-.67.9.9,0,0,0-.32-.77,1.23,1.23,0,0,0-.8-.25,2.85,2.85,0,0,0-1.3.35,5.29,5.29,0,0,0-1.21.86l-2-2.13a5.65,5.65,0,0,1,2.06-1.36,7.9,7.9,0,0,1,2.92-.55,4.89,4.89,0,0,1,3.22,1,3.27,3.27,0,0,1,1.15,2.66,3.67,3.67,0,0,1-.6,2.13,5.92,5.92,0,0,1-1.8,1.65c-1.39.86-2.32,1.47-2.81,1.82h5.25v2.85Z"/><path class="cls-2" d="M558.71,422.18a6.23,6.23,0,0,1-4.17-1.33l1.66-2.33a3.64,3.64,0,0,0,2.32.74,2.37,2.37,0,0,0,1.28-.27.91.91,0,0,0,.4-.83,1,1,0,0,0-.52-.91A3.71,3.71,0,0,0,558,417h-.53v-2.22h.61a2.42,2.42,0,0,0,1.31-.32,1,1,0,0,0,.5-.84.75.75,0,0,0-.3-.64,1.31,1.31,0,0,0-.82-.22,2.38,2.38,0,0,0-2,1.19l-2.07-2.37a4.27,4.27,0,0,1,1.84-1.1,8.48,8.48,0,0,1,2.63-.43,5.26,5.26,0,0,1,3.07.81,2.49,2.49,0,0,1,1.17,2.14,2.75,2.75,0,0,1-.63,1.78,2.6,2.6,0,0,1-1.58,1,2.75,2.75,0,0,1,1.73,1,3.08,3.08,0,0,1,.68,2,2.91,2.91,0,0,1-1.3,2.52A6,6,0,0,1,558.71,422.18Z"/><path class="cls-2" d="M565.72,422.08V419h2.64v3.09Z"/><path class="cls-2" d="M571.63,417a3.62,3.62,0,0,1-1.22-2.79,3.92,3.92,0,0,1,1.29-3,4.59,4.59,0,0,1,3.24-1.23,4,4,0,0,1,3.39,1.54,7,7,0,0,1,1.2,4.33,7.45,7.45,0,0,1-1.28,4.65,4.32,4.32,0,0,1-3.59,1.69,5.37,5.37,0,0,1-3.88-1.6l1.8-2.06a2.93,2.93,0,0,0,2.12.91A1.73,1.73,0,0,0,576,419a2.08,2.08,0,0,0,.52-1.4,2.78,2.78,0,0,1-1.84.58A4.37,4.37,0,0,1,571.63,417Zm4.34-3.88a1.38,1.38,0,0,0-1-.46,1.36,1.36,0,0,0-1,.47,1.46,1.46,0,0,0-.44,1.07,1.3,1.3,0,0,0,.43,1,1.4,1.4,0,0,0,1,.41,1.46,1.46,0,0,0,1-.41,1.34,1.34,0,0,0,.43-1A1.48,1.48,0,0,0,576,413.14Z"/><path class="cls-2" d="M582.25,414.47a2.44,2.44,0,0,1-.89-1.89,2.39,2.39,0,0,1,.88-1.88,3.16,3.16,0,0,1,2.15-.79,3.2,3.2,0,0,1,2.17.77,2.44,2.44,0,0,1,.89,1.89,2.36,2.36,0,0,1-.88,1.88,3.21,3.21,0,0,1-2.16.79A3.17,3.17,0,0,1,582.25,414.47Zm.57,6.47,4.83-5.38,4.28-5.68,1.42,1.26-4.62,5.21-4.49,5.84Zm2.16-7.56a1.38,1.38,0,0,0,.24-.81,1.33,1.33,0,0,0-.24-.8.71.71,0,0,0-.58-.34.72.72,0,0,0-.58.34,1.38,1.38,0,0,0-.24.81,1.34,1.34,0,0,0,.25.8.69.69,0,0,0,.58.34A.71.71,0,0,0,585,413.38Zm4.63,8a2.45,2.45,0,0,1,0-3.77,3.15,3.15,0,0,1,2.16-.78,3.19,3.19,0,0,1,2.17.77,2.44,2.44,0,0,1,.88,1.88,2.41,2.41,0,0,1-.87,1.88,3.15,3.15,0,0,1-2.16.78A3.19,3.19,0,0,1,589.61,421.41Zm2.74-1.09a1.45,1.45,0,0,0,0-1.61.69.69,0,0,0-.57-.33.69.69,0,0,0-.58.34,1.27,1.27,0,0,0-.25.8,1.39,1.39,0,0,0,.25.81.72.72,0,0,0,.58.33A.69.69,0,0,0,592.35,420.32Z"/><path class="cls-2" d="M519.58,287l0-4.43-8.52,0V277l10.46-13.17h4.31l0,13.14h2.91l0,5.53h-2.91v4.44ZM517.22,277h3.06v-3.9Z"/><path class="cls-2" d="M532.35,287c0-1.19,0-2.16.07-2.92a14.44,14.44,0,0,1,.33-2.27,6.21,6.21,0,0,1,.76-1.92,7.55,7.55,0,0,1,1.3-1.54,11.39,11.39,0,0,1,2-1.48c.32-.2.78-.46,1.37-.79l1.48-.82q.58-.33,1.32-.84a7.33,7.33,0,0,0,1.17-1,4.27,4.27,0,0,0,.74-1.09,3,3,0,0,0,.31-1.3,1.84,1.84,0,0,0-.62-1.5A2.48,2.48,0,0,0,541,269a5.61,5.61,0,0,0-2.52.68,10.35,10.35,0,0,0-2.34,1.67l-3.88-4.12a10.67,10.67,0,0,1,4-2.63,14.84,14.84,0,0,1,5.65-1.07,9.45,9.45,0,0,1,6.23,1.85,6.38,6.38,0,0,1,2.23,5.15,7.08,7.08,0,0,1-1.17,4.13,11.53,11.53,0,0,1-3.48,3.18q-4,2.5-5.42,3.53l10.14,0v5.53Z"/><path class="cls-2" d="M554.86,286.89l0-6,5.11,0,0,6Z"/><path class="cls-2" d="M572.88,287.16a10.45,10.45,0,0,1-3.35-.54,9.38,9.38,0,0,1-2.85-1.52,7.2,7.2,0,0,1-2.7-5.63,5,5,0,0,1,.83-2.83,8.12,8.12,0,0,1,2-2.12,4.28,4.28,0,0,1-1.57-1.66,4.61,4.61,0,0,1-.63-2.24,5.87,5.87,0,0,1,.76-2.95,6.46,6.46,0,0,1,2-2.17,10.08,10.08,0,0,1,2.63-1.3,9.37,9.37,0,0,1,2.83-.47,9.82,9.82,0,0,1,2.26.27,9.34,9.34,0,0,1,2.22.83,9.11,9.11,0,0,1,1.92,1.36,6,6,0,0,1,1.87,4.32,4.62,4.62,0,0,1-.64,2.28,4.36,4.36,0,0,1-1.58,1.7,8.06,8.06,0,0,1,2,2.16,5.34,5.34,0,0,1,.84,3,6.75,6.75,0,0,1-1.18,3.94,7.76,7.76,0,0,1-3.21,2.66A10.74,10.74,0,0,1,572.88,287.16Zm1.77-9.52a2.68,2.68,0,0,0-1.79-.59,2.62,2.62,0,0,0-1.8.62,2.07,2.07,0,0,0-.69,1.63,2.09,2.09,0,0,0,.73,1.59,2.55,2.55,0,0,0,1.77.64,2.5,2.5,0,0,0,1.78-.66,2.23,2.23,0,0,0,0-3.23ZM571.57,272a1.93,1.93,0,0,0,1.27.45,2,2,0,0,0,1.29-.46,1.55,1.55,0,0,0,.55-1.28,1.4,1.4,0,0,0-.52-1.1,1.92,1.92,0,0,0-1.32-.45,1.88,1.88,0,0,0-1.32.46,1.42,1.42,0,0,0-.51,1.1A1.56,1.56,0,0,0,571.57,272Z"/><path class="cls-2" d="M586.93,272.16a4.77,4.77,0,0,1,0-7.3,6.59,6.59,0,0,1,8.37,0,4.72,4.72,0,0,1,0,7.29,6.57,6.57,0,0,1-8.37,0ZM588,284.68l9.34-10.4,8.28-11,2.76,2.44-8.95,10.08-8.67,11.31Zm4.18-14.63a2.53,2.53,0,0,0,.47-1.56,2.59,2.59,0,0,0-.47-1.55,1.38,1.38,0,0,0-1.12-.65,1.35,1.35,0,0,0-1.11.65,2.82,2.82,0,0,0,0,3.12,1.38,1.38,0,0,0,1.12.65A1.34,1.34,0,0,0,592.22,270.05Zm9,15.54a4.74,4.74,0,0,1,0-7.29,6.59,6.59,0,0,1,8.37,0,4.73,4.73,0,0,1,0,7.28,6.61,6.61,0,0,1-8.37,0Zm5.3-2.1a2.85,2.85,0,0,0,0-3.12,1.36,1.36,0,0,0-1.12-.64,1.38,1.38,0,0,0-1.12.65,2.8,2.8,0,0,0,0,3.12,1.29,1.29,0,0,0,2.24,0Z"/></g></g></svg>