<svg xmlns="http://www.w3.org/2000/svg" viewBox="0 0 729.09 588.24"><defs><style>.cls-1{fill:#ff574a;}.cls-2{fill:#00324a;}.cls-3{fill:#fff;}</style></defs><title>4</title><g id="Capa_2" data-name="Capa 2"><g id="Layer_1" data-name="Layer 1"><circle class="cls-1" cx="111.5" cy="111.5" r="111.5" transform="translate(-1.39 221.6) rotate(-89.28)"/><circle class="cls-1" cx="400.59" cy="111.5" r="103.01"/><circle class="cls-2" cx="653.01" cy="111.5" r="76.08" transform="translate(394.46 721.43) rotate(-76.72)"/><path class="cls-2" d="M455.69,422.38a55.1,55.1,0,1,1-55.1-55.1A55.1,55.1,0,0,1,455.69,422.38Z"/><path class="cls-2" d="M63.28,103.11A11.28,11.28,0,0,1,67,111.68,12.1,12.1,0,0,1,63,120.83a13.6,13.6,0,0,1-9.75,3.72,12,12,0,0,1-10.16-4.73q-3.6-4.72-3.59-13.27,0-9,3.92-14.2a12.82,12.82,0,0,1,10.81-5.16,15.92,15.92,0,0,1,11.62,4.92L60.46,98.4a8.78,8.78,0,0,0-6.39-2.77,5.23,5.23,0,0,0-4,1.54,6.37,6.37,0,0,0-1.58,4.27,8.09,8.09,0,0,1,5.55-1.76A13,13,0,0,1,63.28,103.11ZM50.21,115a4,4,0,0,0,6.11,0,4.67,4.67,0,0,0,1.32-3.29,4.11,4.11,0,0,0-1.28-3.07,4.42,4.42,0,0,0-6.18,0,4.12,4.12,0,0,0-1.29,3.07A4.67,4.67,0,0,0,50.21,115Z"/><path class="cls-2" d="M96,115.3v8.75H72.2V115.3h7.32V96.64a11.74,11.74,0,0,1-3.74,2.88A10.15,10.15,0,0,1,71,101.09v-9a6.21,6.21,0,0,0,2.28-.49,11.65,11.65,0,0,0,2.28-1.17,23.24,23.24,0,0,0,2-1.4c.61-.49,1.08-.9,1.42-1.22a5.47,5.47,0,0,0,.57-.59h10V115.3Z"/><path class="cls-2" d="M99.73,124.05v-9.48h8v9.48Z"/><path class="cls-2" d="M126,124.55a15.8,15.8,0,0,1-5.22-.87,14.45,14.45,0,0,1-4.41-2.41,11.22,11.22,0,0,1-3-3.87,11.46,11.46,0,0,1-1.13-5.05,7.94,7.94,0,0,1,1.3-4.47,12.68,12.68,0,0,1,3.13-3.35,6.79,6.79,0,0,1-2.43-2.64,7.32,7.32,0,0,1-1-3.54,9.3,9.3,0,0,1,1.2-4.66,10,10,0,0,1,3.08-3.44,15.69,15.69,0,0,1,4.1-2,13.85,13.85,0,0,1,4.4-.73,15.14,15.14,0,0,1,3.5.42,14.17,14.17,0,0,1,3.45,1.34,13.83,13.83,0,0,1,3,2.15,9.44,9.44,0,0,1,2.1,3,9.27,9.27,0,0,1,.79,3.82,7.46,7.46,0,0,1-1,3.61,6.82,6.82,0,0,1-2.46,2.67,12.86,12.86,0,0,1,3.16,3.44,8.6,8.6,0,0,1,1.29,4.69,10.83,10.83,0,0,1-1.86,6.23,12,12,0,0,1-5,4.2A16.34,16.34,0,0,1,126,124.55Zm2.78-15a4.56,4.56,0,0,0-5.57,0,3.53,3.53,0,0,0,0,5.11,4,4,0,0,0,2.76,1,3.86,3.86,0,0,0,2.76-1,3.36,3.36,0,0,0,1.08-2.52A3.3,3.3,0,0,0,128.74,109.5ZM124,100.57a3,3,0,0,0,2,.72,3.05,3.05,0,0,0,2-.72,2.48,2.48,0,0,0,.86-2,2.24,2.24,0,0,0-.8-1.75,3,3,0,0,0-2.06-.71,3,3,0,0,0-2,.71,2.26,2.26,0,0,0-.79,1.75A2.47,2.47,0,0,0,124,100.57Z"/><path class="cls-2" d="M146.06,100.88a7.61,7.61,0,0,1,0-11.54,10.08,10.08,0,0,1,13,0,7.57,7.57,0,0,1,0,11.54,10.11,10.11,0,0,1-13,0Zm1.67,19.82,14.56-16.42,12.92-17.37,4.28,3.87-14,15.92L152,124.55Zm6.56-23.13a4.53,4.53,0,0,0,0-4.93,2.08,2.08,0,0,0-1.73-1,2.11,2.11,0,0,0-1.74,1,4.53,4.53,0,0,0,0,4.93,2.11,2.11,0,0,0,1.74,1A2.08,2.08,0,0,0,154.29,97.57Zm13.86,24.62a7.56,7.56,0,0,1,0-11.53,10.08,10.08,0,0,1,13,0,7.6,7.6,0,0,1,0,11.53,10.15,10.15,0,0,1-13,0Zm8.24-3.3a4.53,4.53,0,0,0,0-4.93,2.1,2.1,0,0,0-1.73-1,2.16,2.16,0,0,0-1.75,1,4.48,4.48,0,0,0,0,4.93,2.14,2.14,0,0,0,1.75,1A2.08,2.08,0,0,0,176.39,118.89Z"/><path class="cls-2" d="M351.89,123.86a14.53,14.53,0,0,1-6.32-1.33,10.13,10.13,0,0,1-4.32-3.69l4.67-5.4a9.59,9.59,0,0,0,2.89,2.17,7,7,0,0,0,3.12.79,3.62,3.62,0,0,0,2.6-.9,3.13,3.13,0,0,0,1-2.41,3.34,3.34,0,0,0-.85-2.38,2.92,2.92,0,0,0-2.24-.91,3.54,3.54,0,0,0-1.72.43,3,3,0,0,0-1.22,1.15h-7.3l3.77-19.85h16V99.3h-9.85l-.48,3.46a6.68,6.68,0,0,1,2.06-.22,10.44,10.44,0,0,1,7.63,2.9,10.83,10.83,0,0,1-.47,15.37A12.92,12.92,0,0,1,351.89,123.86Z"/><path class="cls-2" d="M379.63,99.3H367.46V91.53h25.59l-15.59,31.89h-9.65Z"/><path class="cls-2" d="M392.86,123.46V115.2h6.93v8.26Z"/><path class="cls-2" d="M424.5,105.21a9.76,9.76,0,0,1,3.2,7.46,10.6,10.6,0,0,1-3.42,8,11.88,11.88,0,0,1-8.51,3.24,10.48,10.48,0,0,1-8.86-4.12q-3.14-4.12-3.13-11.58,0-7.87,3.42-12.38a11.17,11.17,0,0,1,9.43-4.51,13.87,13.87,0,0,1,10.13,4.3l-4.71,5.48a7.69,7.69,0,0,0-5.57-2.41A4.56,4.56,0,0,0,413,100a5.55,5.55,0,0,0-1.38,3.73,7,7,0,0,1,4.85-1.54A11.27,11.27,0,0,1,424.5,105.21Zm-11.39,10.34a3.52,3.52,0,0,0,5.33,0,4.07,4.07,0,0,0,1.15-2.88,3.58,3.58,0,0,0-1.12-2.67,3.85,3.85,0,0,0-5.39,0,3.58,3.58,0,0,0-1.12,2.67A4.07,4.07,0,0,0,413.11,115.55Z"/><path class="cls-2" d="M433.18,103.25a6.61,6.61,0,0,1,0-10.06,8.77,8.77,0,0,1,11.34,0,6.59,6.59,0,0,1,0,10.06,8.77,8.77,0,0,1-11.34,0Zm1.45,17.3,12.7-14.32L458.6,91.07l3.73,3.38-12.17,13.88-11.8,15.57Zm5.73-20.18a4,4,0,0,0,0-4.3,1.73,1.73,0,0,0-3,0,4,4,0,0,0,0,4.3,1.73,1.73,0,0,0,3,0Zm12.08,21.47a6.61,6.61,0,0,1,0-10.06,8.81,8.81,0,0,1,11.35,0,6.63,6.63,0,0,1,0,10.06,8.85,8.85,0,0,1-11.35,0Zm7.2-2.87a4,4,0,0,0,0-4.3,1.73,1.73,0,0,0-3,0,3.88,3.88,0,0,0,0,4.3,1.73,1.73,0,0,0,3,0Z"/><path class="cls-1" d="M611.09,120.38a11.31,11.31,0,0,1-5-1,7.85,7.85,0,0,1-3.39-2.89l3.66-4.23a7.68,7.68,0,0,0,2.26,1.7,5.62,5.62,0,0,0,2.45.62,2.86,2.86,0,0,0,2-.7,2.47,2.47,0,0,0,.75-1.89,2.62,2.62,0,0,0-.68-1.87,2.3,2.3,0,0,0-1.75-.71,2.87,2.87,0,0,0-1.35.33,2.45,2.45,0,0,0-1,.91h-5.72l2.95-15.55h12.53v6.08h-7.71l-.38,2.71a5.47,5.47,0,0,1,1.61-.17,8.19,8.19,0,0,1,6,2.27,8.5,8.5,0,0,1-.37,12A10.08,10.08,0,0,1,611.09,120.38Z"/><path class="cls-1" d="M623.29,120.07c0-1.28,0-2.33.08-3.16a17,17,0,0,1,.36-2.45,7.21,7.21,0,0,1,.81-2.07,9,9,0,0,1,1.38-1.66,13.08,13.08,0,0,1,2.14-1.6c.35-.21.83-.49,1.46-.84l1.58-.89q.61-.34,1.41-.9a8.33,8.33,0,0,0,1.24-1,4.59,4.59,0,0,0,.79-1.18,3.13,3.13,0,0,0,.33-1.4,1.94,1.94,0,0,0-.66-1.62,2.53,2.53,0,0,0-1.65-.52,5.76,5.76,0,0,0-2.68.73,10.8,10.8,0,0,0-2.49,1.79l-4.1-4.47A11.23,11.23,0,0,1,627.52,96a15.5,15.5,0,0,1,6-1.13,9.86,9.86,0,0,1,6.6,2,7,7,0,0,1,2.37,5.58,7.77,7.77,0,0,1-1.27,4.46,12.23,12.23,0,0,1-3.7,3.43c-2.85,1.8-4.78,3.06-5.77,3.79h10.77v6Z"/><path class="cls-1" d="M646,120.07V113.6h5.43v6.47Z"/><path class="cls-1" d="M656.93,109.53a7.68,7.68,0,0,1-2.51-5.85,8.26,8.26,0,0,1,2.68-6.25,9.3,9.3,0,0,1,6.67-2.55,8.22,8.22,0,0,1,6.94,3.23c1.64,2.16,2.46,5.18,2.46,9.08q0,6.18-2.68,9.71a8.76,8.76,0,0,1-7.38,3.52,10.89,10.89,0,0,1-8-3.37l3.69-4.3a6,6,0,0,0,4.37,1.91,3.56,3.56,0,0,0,2.71-1,4.43,4.43,0,0,0,1.09-2.93,5.57,5.57,0,0,1-3.8,1.2A8.83,8.83,0,0,1,656.93,109.53Zm8.93-8.1a2.76,2.76,0,0,0-4.18,0,3.18,3.18,0,0,0-.9,2.25,2.83,2.83,0,0,0,.87,2.1,3,3,0,0,0,4.24,0,2.8,2.8,0,0,0,.88-2.1A3.15,3.15,0,0,0,665.86,101.43Z"/><path class="cls-1" d="M677.52,104.24a5.2,5.2,0,0,1,0-7.89,6.91,6.91,0,0,1,8.89,0,5.17,5.17,0,0,1,0,7.89,6.91,6.91,0,0,1-8.89,0Zm1.15,13.55,9.94-11.22,8.84-11.87,2.92,2.64-9.54,10.88-9.24,12.2ZM683.15,102a3.09,3.09,0,0,0,0-3.37,1.35,1.35,0,0,0-2.37,0,3.09,3.09,0,0,0,0,3.37,1.34,1.34,0,0,0,2.37,0Zm9.47,16.82a5,5,0,0,1-1.82-3.93,5.09,5.09,0,0,1,1.82-4,6.91,6.91,0,0,1,8.89,0,5.11,5.11,0,0,1,1.81,4,5.06,5.06,0,0,1-1.81,3.93,6.91,6.91,0,0,1-8.89,0Zm5.63-2.25a3.09,3.09,0,0,0,0-3.37,1.42,1.42,0,0,0-1.18-.7,1.46,1.46,0,0,0-1.2.7,3.09,3.09,0,0,0,0,3.37,1.47,1.47,0,0,0,1.2.71A1.43,1.43,0,0,0,698.25,116.55Z"/><path class="cls-2" d="M264.12,422.38a74.46,74.46,0,1,1-74.45-74.45A74.46,74.46,0,0,1,264.12,422.38Z"/><path class="cls-1" d="M152.5,430.05v-4.3h-8.13v-5.37l10-12.76h4.12v12.76h2.78v5.37H158.5v4.3Zm-2.22-9.67h2.91V416.6Z"/><path class="cls-1" d="M165.83,420.62a6.92,6.92,0,0,1-2.25-5.26,7.43,7.43,0,0,1,2.4-5.61,8.34,8.34,0,0,1,6-2.29,7.4,7.4,0,0,1,6.24,2.9c1.47,1.94,2.2,4.65,2.2,8.15q0,5.55-2.4,8.72a7.85,7.85,0,0,1-6.62,3.16,9.76,9.76,0,0,1-7.15-3l3.32-3.86a5.4,5.4,0,0,0,3.92,1.71,3.17,3.17,0,0,0,2.44-1,4,4,0,0,0,1-2.63,5,5,0,0,1-3.41,1.08A8,8,0,0,1,165.83,420.62Zm8-7.28a2.47,2.47,0,0,0-3.75,0,2.87,2.87,0,0,0-.81,2,2.57,2.57,0,0,0,.78,1.89,2.74,2.74,0,0,0,3.81,0,2.55,2.55,0,0,0,.79-1.89A2.84,2.84,0,0,0,173.85,413.34Z"/><path class="cls-1" d="M183.22,430.08v-5.81h4.88v5.81Z"/><path class="cls-1" d="M193.07,420.62a6.89,6.89,0,0,1-2.26-5.26,7.44,7.44,0,0,1,2.41-5.61,8.34,8.34,0,0,1,6-2.29,7.38,7.38,0,0,1,6.23,2.9c1.47,1.94,2.21,4.65,2.21,8.15q0,5.55-2.4,8.72a7.85,7.85,0,0,1-6.63,3.16,9.73,9.73,0,0,1-7.14-3l3.31-3.86a5.41,5.41,0,0,0,3.92,1.71,3.16,3.16,0,0,0,2.44-1,3.91,3.91,0,0,0,1-2.63,5,5,0,0,1-3.41,1.08A8,8,0,0,1,193.07,420.62Zm8-7.28a2.48,2.48,0,0,0-3.76,0,2.87,2.87,0,0,0-.81,2,2.55,2.55,0,0,0,.79,1.89,2.73,2.73,0,0,0,3.8,0,2.55,2.55,0,0,0,.8-1.89A2.84,2.84,0,0,0,201.09,413.34Z"/><path class="cls-1" d="M211.56,415.86a4.66,4.66,0,0,1,0-7.08,6.2,6.2,0,0,1,8,0,4.66,4.66,0,0,1,0,7.08,6.2,6.2,0,0,1-8,0Zm1,12.17L221.52,418l7.93-10.67,2.63,2.38-8.57,9.77-8.3,10.95Zm4-14.19a2.57,2.57,0,0,0,.45-1.52,2.54,2.54,0,0,0-.45-1.51,1.27,1.27,0,0,0-1.06-.63,1.3,1.3,0,0,0-1.07.63,2.61,2.61,0,0,0-.44,1.51,2.64,2.64,0,0,0,.44,1.52,1.3,1.3,0,0,0,1.07.63A1.27,1.27,0,0,0,216.61,413.84Zm8.51,15.1a4.63,4.63,0,0,1,0-7.07,6.18,6.18,0,0,1,8,0,4.65,4.65,0,0,1,0,7.07,6.21,6.21,0,0,1-8,0Zm5.06-2a2.76,2.76,0,0,0,0-3,1.21,1.21,0,0,0-2.14,0,2.76,2.76,0,0,0,0,3,1.22,1.22,0,0,0,2.14,0Z"/><path class="cls-1" d="M372.78,428.07a8.23,8.23,0,0,1-5.56-1.83l2.22-3.15a4.89,4.89,0,0,0,3.11,1,3.14,3.14,0,0,0,1.7-.36,1.24,1.24,0,0,0,.54-1.12,1.32,1.32,0,0,0-.69-1.25,5,5,0,0,0-2.24-.38h-.71v-3h.8a3.16,3.16,0,0,0,1.76-.43,1.3,1.3,0,0,0,.67-1.14,1,1,0,0,0-.39-.87,1.78,1.78,0,0,0-1.1-.31,3.2,3.2,0,0,0-2.72,1.61l-2.75-3.23a5.7,5.7,0,0,1,2.46-1.48,10.78,10.78,0,0,1,3.52-.57,6.88,6.88,0,0,1,4.09,1.11,3.39,3.39,0,0,1,1.56,2.91,3.78,3.78,0,0,1-.85,2.42,3.43,3.43,0,0,1-2.11,1.31,3.65,3.65,0,0,1,2.3,1.39,4.26,4.26,0,0,1,.9,2.72,4,4,0,0,1-1.75,3.42A8.05,8.05,0,0,1,372.78,428.07Z"/><path class="cls-1" d="M392.28,424.07V428H381.69v-3.89h3.25v-8.29a5,5,0,0,1-1.66,1.28,4.48,4.48,0,0,1-2.11.7v-4a2.9,2.9,0,0,0,1-.21,6,6,0,0,0,1-.52,9.7,9.7,0,0,0,.87-.63q.4-.33.63-.54a2.09,2.09,0,0,0,.25-.26h4.43v12.46Z"/><path class="cls-1" d="M393.92,428v-4.21h3.53V428Z"/><path class="cls-1" d="M399.39,420a8.66,8.66,0,0,1,.33-2.35,8.51,8.51,0,0,1,1-2.24,8.8,8.8,0,0,1,1.5-1.87,6.66,6.66,0,0,1,2.06-1.29,6.6,6.6,0,0,1,2.51-.48,6.76,6.76,0,0,1,2.62.51,6.58,6.58,0,0,1,2.08,1.36,8.68,8.68,0,0,1,1.46,1.93,8.9,8.9,0,0,1,.91,2.21,8.71,8.71,0,0,1,.3,2.22,9.2,9.2,0,0,1-.32,2.37,8.88,8.88,0,0,1-2.48,4.1,6.46,6.46,0,0,1-2.06,1.28,6.6,6.6,0,0,1-2.51.48,6.87,6.87,0,0,1-2.62-.5,6.38,6.38,0,0,1-2.07-1.34,9.13,9.13,0,0,1-2.67-6.39Zm7.36,4.28a2.22,2.22,0,0,0,1.32-.41,2.7,2.7,0,0,0,.89-1.06,6,6,0,0,0,.47-1.37,7.06,7.06,0,0,0,.16-1.44,6.92,6.92,0,0,0-.17-1.51,5.59,5.59,0,0,0-.5-1.37,2.73,2.73,0,0,0-.89-1,2.2,2.2,0,0,0-1.28-.39,2.22,2.22,0,0,0-1.32.41,2.63,2.63,0,0,0-.89,1.06,6,6,0,0,0-.47,1.37,7,7,0,0,0-.16,1.44,6.85,6.85,0,0,0,.17,1.51,5.48,5.48,0,0,0,.48,1.36,2.77,2.77,0,0,0,.9,1A2.21,2.21,0,0,0,406.75,424.23Z"/><path class="cls-1" d="M416.85,417.67a3.38,3.38,0,0,1,0-5.13,4.47,4.47,0,0,1,5.78,0,3.38,3.38,0,0,1,0,5.13,4.5,4.5,0,0,1-5.78,0Zm.74,8.8,6.47-7.29,5.74-7.72,1.9,1.72-6.2,7.07-6,7.93Zm2.92-10.27a1.9,1.9,0,0,0,.32-1.1,1.87,1.87,0,0,0-.32-1.09.93.93,0,0,0-.77-.46.91.91,0,0,0-.77.46,1.81,1.81,0,0,0-.33,1.09,1.84,1.84,0,0,0,.33,1.1.93.93,0,0,0,.77.45A.94.94,0,0,0,420.51,416.2Zm6.15,10.93a3.37,3.37,0,0,1,0-5.12,4.47,4.47,0,0,1,5.78,0,3.37,3.37,0,0,1,0,5.12,4.5,4.5,0,0,1-5.78,0Zm3.66-1.46a1.84,1.84,0,0,0,.33-1.1,1.81,1.81,0,0,0-.33-1.09.91.91,0,0,0-.77-.46.94.94,0,0,0-.77.46,1.81,1.81,0,0,0-.33,1.09,1.84,1.84,0,0,0,.33,1.1,1,1,0,0,0,.77.45A.93.93,0,0,0,430.32,425.67Z"/><path class="cls-2" d="M642.12,422.38a55.1,55.1,0,1,1-55.1-55.1A55.1,55.1,0,0,1,642.12,422.38Z"/><path class="cls-1" d="M559.22,428.07a8.25,8.25,0,0,1-5.57-1.83l2.23-3.15a4.86,4.86,0,0,0,3.1,1,3.14,3.14,0,0,0,1.7-.36,1.24,1.24,0,0,0,.55-1.12,1.33,1.33,0,0,0-.7-1.25,4.9,4.9,0,0,0-2.23-.38h-.72v-3h.81a3.19,3.19,0,0,0,1.76-.43,1.31,1.31,0,0,0,.66-1.14,1,1,0,0,0-.39-.87,1.74,1.74,0,0,0-1.09-.31,3.21,3.21,0,0,0-2.73,1.61l-2.75-3.23a5.68,5.68,0,0,1,2.47-1.48,10.67,10.67,0,0,1,3.51-.57,6.91,6.91,0,0,1,4.1,1.11,3.41,3.41,0,0,1,1.55,2.91,3.77,3.77,0,0,1-.84,2.42,3.48,3.48,0,0,1-2.12,1.31,3.64,3.64,0,0,1,2.31,1.39,4.26,4.26,0,0,1,.9,2.72,4,4,0,0,1-1.75,3.42A8.07,8.07,0,0,1,559.22,428.07Z"/><path class="cls-1" d="M578.71,424.07V428H568.13v-3.89h3.25v-8.29a5.13,5.13,0,0,1-1.66,1.28,4.51,4.51,0,0,1-2.12.7v-4a2.85,2.85,0,0,0,1-.21,6.1,6.1,0,0,0,1-.52,8.3,8.3,0,0,0,.86-.63q.4-.33.63-.54l.26-.26h4.43v12.46Z"/><path class="cls-1" d="M580.35,428v-4.21h3.53V428Z"/><path class="cls-1" d="M585.82,420a8.66,8.66,0,0,1,.33-2.35,9.23,9.23,0,0,1,1-2.24,8.85,8.85,0,0,1,1.51-1.87,6.72,6.72,0,0,1,4.56-1.77,6.69,6.69,0,0,1,2.62.51,6.47,6.47,0,0,1,2.08,1.36,9,9,0,0,1,1.47,1.93,9.3,9.3,0,0,1,.91,2.21,8.71,8.71,0,0,1,.3,2.22,8.8,8.8,0,0,1-.33,2.37,9.23,9.23,0,0,1-1,2.24,8.89,8.89,0,0,1-1.52,1.86,6.41,6.41,0,0,1-2,1.28,6.65,6.65,0,0,1-2.52.48,6.9,6.9,0,0,1-2.62-.5,6.49,6.49,0,0,1-2.07-1.34,9.14,9.14,0,0,1-2.37-4.13A8.89,8.89,0,0,1,585.82,420Zm7.36,4.28a2.28,2.28,0,0,0,1.33-.41,2.78,2.78,0,0,0,.89-1.06,7.15,7.15,0,0,0,.47-1.37A7,7,0,0,0,596,420a6.36,6.36,0,0,0-.17-1.51,5.57,5.57,0,0,0-.49-1.37,2.67,2.67,0,0,0-.9-1,2.18,2.18,0,0,0-1.28-.39,2.25,2.25,0,0,0-1.32.41,2.71,2.71,0,0,0-.89,1.06,6.52,6.52,0,0,0-.47,1.37,7,7,0,0,0-.15,1.44,6.85,6.85,0,0,0,.16,1.51,5.5,5.5,0,0,0,.49,1.36,2.66,2.66,0,0,0,.89,1A2.23,2.23,0,0,0,593.18,424.23Z"/><path class="cls-1" d="M603.29,417.67a3.38,3.38,0,0,1,0-5.13,4.46,4.46,0,0,1,5.77,0,3.36,3.36,0,0,1,0,5.13,4.49,4.49,0,0,1-5.77,0Zm.74,8.8,6.46-7.29,5.74-7.72,1.9,1.72-6.2,7.07-6,7.93Zm2.91-10.27a1.84,1.84,0,0,0,.33-1.1,1.81,1.81,0,0,0-.33-1.09.91.91,0,0,0-.77-.46.93.93,0,0,0-.77.46,1.87,1.87,0,0,0-.32,1.09,1.9,1.9,0,0,0,.32,1.1.94.94,0,0,0,.77.45A.93.93,0,0,0,606.94,416.2Zm6.16,10.93a3.35,3.35,0,0,1,0-5.12A4.21,4.21,0,0,1,616,421a4.16,4.16,0,0,1,2.88,1.06,3.37,3.37,0,0,1,0,5.12,4.16,4.16,0,0,1-2.88,1.05A4.2,4.2,0,0,1,613.1,427.13Zm3.66-1.46a1.9,1.9,0,0,0,.32-1.1,1.87,1.87,0,0,0-.32-1.09A.93.93,0,0,0,616,423a.94.94,0,0,0-.78.46,1.81,1.81,0,0,0-.33,1.09,1.84,1.84,0,0,0,.33,1.1,1,1,0,0,0,.78.45A.94.94,0,0,0,616.76,425.67Z"/><path class="cls-3" d="M277.36,113.23H242.43a1.73,1.73,0,1,1,0-3.46h34.93a1.73,1.73,0,0,1,0,3.46Z"/><path class="cls-3" d="M557.85,113.23H522.92a1.73,1.73,0,0,1,0-3.46h34.93a1.73,1.73,0,1,1,0,3.46Z"/><path class="cls-3" d="M315.73,424.11H280.8a1.73,1.73,0,0,1,0-3.46h34.93a1.73,1.73,0,0,1,0,3.46Z"/><path class="cls-3" d="M513.89,424.11H479a1.73,1.73,0,1,1,0-3.46h34.93a1.73,1.73,0,0,1,0,3.46Z"/><path class="cls-2" d="M71.77,265.78V253h2.48v10.6h6.52v2.18Z"/><path class="cls-2" d="M86.81,266a5.19,5.19,0,0,1-2.63-.67,4.55,4.55,0,0,1-1.75-1.76,4.92,4.92,0,0,1-.6-2.41,5.12,5.12,0,0,1,.6-2.46,4.52,4.52,0,0,1,1.75-1.8,5.14,5.14,0,0,1,2.64-.68,5.38,5.38,0,0,1,2.07.4,4.34,4.34,0,0,1,1.55,1.07,5,5,0,0,1,1,1.54,5.14,5.14,0,0,1,.34,1.84,4.47,4.47,0,0,1-.06.81H84.39a2.48,2.48,0,0,0,.81,1.71,2.45,2.45,0,0,0,1.69.65,2.72,2.72,0,0,0,1.37-.36,1.84,1.84,0,0,0,.87-.92l2.06.58a4.07,4.07,0,0,1-1.69,1.78A5.27,5.27,0,0,1,86.81,266Zm-2.47-5.65h4.93a2.63,2.63,0,0,0-.8-1.72,2.46,2.46,0,0,0-3.35,0A2.59,2.59,0,0,0,84.34,260.31Z"/><path class="cls-2" d="M95.92,265.78l-3.48-9.43H95l2.37,7.23,2.4-7.23H102l-3.45,9.43Z"/><path class="cls-2" d="M107.78,266a5.22,5.22,0,0,1-2.63-.67,4.55,4.55,0,0,1-1.75-1.76,4.92,4.92,0,0,1-.59-2.41,5.11,5.11,0,0,1,.59-2.46,4.52,4.52,0,0,1,1.75-1.8,5.15,5.15,0,0,1,2.65-.68,5.33,5.33,0,0,1,2.06.4,4.34,4.34,0,0,1,1.55,1.07,4.65,4.65,0,0,1,1,1.54,4.93,4.93,0,0,1,.34,1.84,5.82,5.82,0,0,1,0,.81h-7.3a2.49,2.49,0,0,0,2.51,2.36,2.71,2.71,0,0,0,1.36-.36,1.8,1.8,0,0,0,.87-.92l2.07.58a4.15,4.15,0,0,1-1.7,1.78A5.24,5.24,0,0,1,107.78,266Zm-2.47-5.65h4.93a2.63,2.63,0,0,0-.8-1.72,2.46,2.46,0,0,0-3.35,0A2.59,2.59,0,0,0,105.31,260.31Z"/><path class="cls-2" d="M114.61,252.64H117v10.12a1.41,1.41,0,0,0,.2.86.76.76,0,0,0,.61.24,2.7,2.7,0,0,0,1.13-.26l.33,1.84a5.1,5.1,0,0,1-1.12.35,5.76,5.76,0,0,1-1.19.13,2.43,2.43,0,0,1-1.75-.6,2.32,2.32,0,0,1-.62-1.72Z"/><path class="cls-2" d="M124.25,266a6.71,6.71,0,0,1-2.32-.41,5.19,5.19,0,0,1-1.87-1.16l.86-1.56a5.31,5.31,0,0,0,3.25,1.33,2.08,2.08,0,0,0,1.13-.26.84.84,0,0,0,.41-.75.65.65,0,0,0,0-.2.38.38,0,0,0-.09-.18l-.12-.14a.46.46,0,0,0-.18-.13l-.22-.11-.28-.1-.3-.1-.37-.1-.39-.12c-.47-.15-.85-.28-1.14-.4a6.9,6.9,0,0,1-.87-.41,2.57,2.57,0,0,1-.65-.5,2.16,2.16,0,0,1-.36-.63,2.31,2.31,0,0,1-.14-.82,2.68,2.68,0,0,1,1-2.22,4.33,4.33,0,0,1,2.77-.82A5,5,0,0,1,128,257.5L127,259a4.47,4.47,0,0,0-2.68-1.08,2.2,2.2,0,0,0-1.05.23.79.79,0,0,0-.41.75.75.75,0,0,0,.37.69,6,6,0,0,0,1.34.49l1.24.39a9.4,9.4,0,0,1,1,.41,2.88,2.88,0,0,1,.74.52,2.33,2.33,0,0,1,.41.65,2.5,2.5,0,0,1,.15.9,2.62,2.62,0,0,1-1,2.18A4.38,4.38,0,0,1,124.25,266Z"/><path class="cls-2" d="M134.29,261.08a4.9,4.9,0,0,1,.35-1.87,5,5,0,0,1,1-1.56,4.42,4.42,0,0,1,1.57-1.07,5.36,5.36,0,0,1,2.06-.4,5,5,0,0,1,2.63.69,4.45,4.45,0,0,1,1.72,1.78,5.33,5.33,0,0,1,.24,4.29,4.82,4.82,0,0,1-1,1.55,4.29,4.29,0,0,1-1.56,1.07,5.2,5.2,0,0,1-2.07.4,5.44,5.44,0,0,1-1.69-.26,4.31,4.31,0,0,1-1.38-.72,4.71,4.71,0,0,1-1-1.07,4.57,4.57,0,0,1-.65-1.33A5.38,5.38,0,0,1,134.29,261.08Zm5,2.83a2.26,2.26,0,0,0,1.76-.81,3,3,0,0,0,.7-2,2.94,2.94,0,0,0-.7-2,2.28,2.28,0,0,0-1.76-.8,2.24,2.24,0,0,0-1.75.81,3.24,3.24,0,0,0,0,4.06A2.26,2.26,0,0,0,139.24,263.91Z"/><path class="cls-2" d="M146.72,265.78v-7.09h-1.24v-1.84h1.24v-.57a4.27,4.27,0,0,1,.86-2.79,2.83,2.83,0,0,1,2.3-1,5.44,5.44,0,0,1,2.32.56l-.48,1.82a2.65,2.65,0,0,0-1.32-.34,1.1,1.1,0,0,0-.94.43,2.07,2.07,0,0,0-.32,1.25v.67h2.3v1.84h-2.3v7.09Z"/><path class="cls-2" d="M73.33,284a2.64,2.64,0,0,1,1.13-2.22,4.69,4.69,0,0,1,2.92-.85,5.79,5.79,0,0,1,2.27.38v-.5a1.79,1.79,0,0,0-.53-1.39,2.25,2.25,0,0,0-1.58-.49,4.13,4.13,0,0,0-1.44.26,7.49,7.49,0,0,0-1.5.81l-.79-1.59a7.2,7.2,0,0,1,4-1.23,4.56,4.56,0,0,1,3.14,1,3.69,3.69,0,0,1,1.12,2.89v3a.87.87,0,0,0,.13.55.63.63,0,0,0,.45.19v2a5.52,5.52,0,0,1-1,.12,1.73,1.73,0,0,1-1.08-.3,1.29,1.29,0,0,1-.47-.81l0-.48a4.11,4.11,0,0,1-1.52,1.21,4.38,4.38,0,0,1-1.88.44,3.35,3.35,0,0,1-2.35-.85A2.72,2.72,0,0,1,73.33,284Zm5.87.48a1.26,1.26,0,0,0,.45-.83v-1a4.93,4.93,0,0,0-1.89-.37,2.65,2.65,0,0,0-1.55.41,1.24,1.24,0,0,0-.59,1.06,1.31,1.31,0,0,0,.45,1,1.77,1.77,0,0,0,1.23.42,3,3,0,0,0,1-.2A2.49,2.49,0,0,0,79.2,284.48Z"/><path class="cls-2" d="M84.18,282.06a5.61,5.61,0,0,1,.54-2.46,4.32,4.32,0,0,1,1.5-1.77,3.88,3.88,0,0,1,2.18-.65,3.59,3.59,0,0,1,1.85.5A3.74,3.74,0,0,1,91.58,279v-5.36H94v10.44a1,1,0,0,0,.12.55.58.58,0,0,0,.43.19v2a5.71,5.71,0,0,1-1,.12,1.7,1.7,0,0,1-1.07-.32,1.13,1.13,0,0,1-.47-.84l0-.59a3.54,3.54,0,0,1-1.4,1.34,4,4,0,0,1-1.88.47,4.28,4.28,0,0,1-2.31-.65,4.48,4.48,0,0,1-1.6-1.77A5.42,5.42,0,0,1,84.18,282.06Zm7.4,1.27v-2.25a2.91,2.91,0,0,0-1-1.31,2.35,2.35,0,0,0-1.43-.53,2.19,2.19,0,0,0-1.76.86,3.07,3.07,0,0,0-.71,2,2.81,2.81,0,0,0,.75,2,2.43,2.43,0,0,0,1.86.8,2.46,2.46,0,0,0,1.38-.45A2.25,2.25,0,0,0,91.58,283.33Z"/><path class="cls-2" d="M102.15,286.78v-7.09h-1.24v-1.84h1.24v-.57a4.26,4.26,0,0,1,.85-2.79,2.83,2.83,0,0,1,2.3-1,5.41,5.41,0,0,1,2.32.56l-.48,1.82a2.65,2.65,0,0,0-1.32-.34,1.07,1.07,0,0,0-.93.43,2,2,0,0,0-.33,1.25v.67h2.31v1.84h-2.31v7.09Z"/><path class="cls-2" d="M114.3,279.43a4.81,4.81,0,0,0-2,.44,2.52,2.52,0,0,0-1.22,1.21v5.7h-2.41v-9.43h2.21v2a4.59,4.59,0,0,1,1.28-1.53,2.92,2.92,0,0,1,1.64-.6,2.72,2.72,0,0,1,.49,0Z"/><path class="cls-2" d="M115.39,284a2.63,2.63,0,0,1,1.12-2.22,4.72,4.72,0,0,1,2.93-.85,5.82,5.82,0,0,1,2.27.38v-.5a1.79,1.79,0,0,0-.53-1.39,2.27,2.27,0,0,0-1.58-.49,4,4,0,0,0-1.44.26,7.82,7.82,0,0,0-1.51.81l-.78-1.59a7.19,7.19,0,0,1,4-1.23,4.52,4.52,0,0,1,3.14,1,3.69,3.69,0,0,1,1.12,2.89v3a.87.87,0,0,0,.14.55.59.59,0,0,0,.44.19v2a5.34,5.34,0,0,1-1,.12,1.71,1.71,0,0,1-1.08-.3,1.29,1.29,0,0,1-.47-.81l-.05-.48a4.22,4.22,0,0,1-1.53,1.21,4.34,4.34,0,0,1-1.87.44,3.33,3.33,0,0,1-2.35-.85A2.72,2.72,0,0,1,115.39,284Zm5.87.48a1.26,1.26,0,0,0,.45-.83v-1a5,5,0,0,0-1.89-.37,2.63,2.63,0,0,0-1.55.41,1.23,1.23,0,0,0-.6,1.06,1.29,1.29,0,0,0,.46,1,1.72,1.72,0,0,0,1.22.42,2.92,2.92,0,0,0,1.05-.2A2.54,2.54,0,0,0,121.26,284.48Z"/><path class="cls-2" d="M126.73,283.26v-5.91h2.41v5.38c0,1.45.52,2.18,1.56,2.18a2.43,2.43,0,0,0,1.38-.44,3.18,3.18,0,0,0,1-1.27v-5.85h2.41v6.73a.94.94,0,0,0,.13.55.63.63,0,0,0,.45.19v2a5.85,5.85,0,0,1-1,.11,1.73,1.73,0,0,1-1.06-.3,1.12,1.12,0,0,1-.47-.82l-.06-.75a4.12,4.12,0,0,1-1.6,1.45,5,5,0,0,1-2.19.49,2.72,2.72,0,0,1-2.22-.94A4.36,4.36,0,0,1,126.73,283.26Z"/><path class="cls-2" d="M137.8,282.06a5.61,5.61,0,0,1,.54-2.46,4.42,4.42,0,0,1,1.51-1.77,3.82,3.82,0,0,1,2.17-.65,3.56,3.56,0,0,1,1.85.5A3.66,3.66,0,0,1,145.2,279v-5.36h2.42v10.44a1,1,0,0,0,.12.55.6.6,0,0,0,.43.19v2a5.52,5.52,0,0,1-1,.12,1.68,1.68,0,0,1-1.07-.32,1.11,1.11,0,0,1-.48-.84l0-.59a3.51,3.51,0,0,1-1.39,1.34,4,4,0,0,1-1.88.47,4.29,4.29,0,0,1-2.32-.65,4.64,4.64,0,0,1-1.6-1.77A5.42,5.42,0,0,1,137.8,282.06Zm7.4,1.27v-2.25a3,3,0,0,0-1-1.31,2.39,2.39,0,0,0-1.43-.53,2.21,2.21,0,0,0-1.77.86,3.07,3.07,0,0,0-.7,2,2.85,2.85,0,0,0,.74,2,2.46,2.46,0,0,0,1.87.8,2.41,2.41,0,0,0,1.37-.45A2.2,2.2,0,0,0,145.2,283.33Z"/><path class="cls-2" d="M343.05,253h2.52l4.7,12.78h-2.56l-1.19-3.18h-4.46l-1.17,3.18h-2.56Zm3,7.85-1.76-5.27-1.84,5.27Z"/><path class="cls-2" d="M351,261.06a5.61,5.61,0,0,1,.54-2.46,4.42,4.42,0,0,1,1.51-1.77,3.82,3.82,0,0,1,2.17-.65,3.56,3.56,0,0,1,1.85.5,3.66,3.66,0,0,1,1.33,1.32v-5.36h2.42v10.44a1,1,0,0,0,.12.55.6.6,0,0,0,.43.19v2a5.52,5.52,0,0,1-1,.12,1.68,1.68,0,0,1-1.07-.32,1.11,1.11,0,0,1-.48-.84l0-.59a3.51,3.51,0,0,1-1.39,1.34,4,4,0,0,1-1.88.47,4.29,4.29,0,0,1-2.32-.65,4.64,4.64,0,0,1-1.6-1.77A5.42,5.42,0,0,1,351,261.06Zm7.4,1.27v-2.25a3,3,0,0,0-1-1.31,2.39,2.39,0,0,0-1.43-.53,2.21,2.21,0,0,0-1.77.86,3.07,3.07,0,0,0-.7,2,2.85,2.85,0,0,0,.74,2,2.46,2.46,0,0,0,1.87.8,2.41,2.41,0,0,0,1.37-.45A2.2,2.2,0,0,0,358.43,262.33Z"/><path class="cls-2" d="M367.14,266a6.62,6.62,0,0,1-2.32-.41,5.14,5.14,0,0,1-1.88-1.16l.87-1.56a5.27,5.27,0,0,0,3.24,1.33,2.08,2.08,0,0,0,1.13-.26.82.82,0,0,0,.42-.75.64.64,0,0,0,0-.2.48.48,0,0,0-.08-.18l-.12-.14a.62.62,0,0,0-.19-.13l-.22-.11-.28-.1-.3-.1-.37-.1-.39-.12c-.46-.15-.84-.28-1.14-.4a7.63,7.63,0,0,1-.87-.41,2.76,2.76,0,0,1-.65-.5,2.16,2.16,0,0,1-.36-.63,2.31,2.31,0,0,1-.14-.82,2.68,2.68,0,0,1,1.05-2.22,4.36,4.36,0,0,1,2.78-.82,5,5,0,0,1,3.54,1.33l-1,1.53a4.45,4.45,0,0,0-2.68-1.08,2.13,2.13,0,0,0-1,.23.78.78,0,0,0-.42.75.77.77,0,0,0,.37.69,6.11,6.11,0,0,0,1.35.49l1.24.39a9.27,9.27,0,0,1,.94.41,2.71,2.71,0,0,1,.74.52,2.12,2.12,0,0,1,.41.65,2.49,2.49,0,0,1,.16.9,2.63,2.63,0,0,1-1,2.18A4.37,4.37,0,0,1,367.14,266Z"/><path class="cls-2" d="M377.19,261.06a5.6,5.6,0,0,1,.53-2.46,4.42,4.42,0,0,1,1.51-1.77,3.84,3.84,0,0,1,2.17-.65,3.63,3.63,0,0,1,1.86.5,3.82,3.82,0,0,1,1.33,1.32v-5.36H387v10.44a.87.87,0,0,0,.13.55.56.56,0,0,0,.43.19v2a5.71,5.71,0,0,1-1,.12,1.68,1.68,0,0,1-1.07-.32,1.18,1.18,0,0,1-.48-.84l0-.59a3.54,3.54,0,0,1-1.4,1.34,4,4,0,0,1-1.88.47,4.23,4.23,0,0,1-2.31-.65,4.48,4.48,0,0,1-1.6-1.77A5.42,5.42,0,0,1,377.19,261.06Zm7.4,1.27v-2.25a3,3,0,0,0-1-1.31,2.37,2.37,0,0,0-1.43-.53,2.21,2.21,0,0,0-1.77.86,3.12,3.12,0,0,0-.7,2,2.85,2.85,0,0,0,.74,2,2.48,2.48,0,0,0,3.25.35A2.3,2.3,0,0,0,384.59,262.33Z"/><path class="cls-2" d="M394.19,266a5.16,5.16,0,0,1-2.62-.67,4.55,4.55,0,0,1-1.75-1.76,4.92,4.92,0,0,1-.6-2.41,5.12,5.12,0,0,1,.6-2.46,4.52,4.52,0,0,1,1.75-1.8,5.11,5.11,0,0,1,2.64-.68,5.29,5.29,0,0,1,2.06.4,4.29,4.29,0,0,1,1.56,1.07,5,5,0,0,1,1,1.54,5.14,5.14,0,0,1,.34,1.84,4.47,4.47,0,0,1-.06.81h-7.29a2.48,2.48,0,0,0,.81,1.71,2.45,2.45,0,0,0,1.69.65,2.75,2.75,0,0,0,1.37-.36,1.88,1.88,0,0,0,.87-.92l2.06.58a4.13,4.13,0,0,1-1.69,1.78A5.31,5.31,0,0,1,394.19,266Zm-2.46-5.65h4.93a2.63,2.63,0,0,0-.8-1.72,2.46,2.46,0,0,0-3.35,0A2.5,2.5,0,0,0,391.73,260.31Z"/><path class="cls-2" d="M401,252.64h2.4v10.12a1.33,1.33,0,0,0,.21.86.73.73,0,0,0,.6.24,2.71,2.71,0,0,0,1.14-.26l.32,1.84a5,5,0,0,1-1.11.35,5.84,5.84,0,0,1-1.19.13,2.43,2.43,0,0,1-1.75-.6,2.28,2.28,0,0,1-.62-1.72Z"/><path class="cls-2" d="M407.2,255v-2.39h2.41V255Zm0,10.75v-9.43h2.41v9.43Z"/><path class="cls-2" d="M414.77,265.78l-3.48-9.43h2.51l2.37,7.23,2.4-7.23h2.29l-3.46,9.43Z"/><path class="cls-2" d="M426.63,266a5.16,5.16,0,0,1-2.62-.67,4.48,4.48,0,0,1-1.75-1.76,4.92,4.92,0,0,1-.6-2.41,5.12,5.12,0,0,1,.6-2.46,4.45,4.45,0,0,1,1.75-1.8,5.09,5.09,0,0,1,2.64-.68,5.29,5.29,0,0,1,2.06.4,4.38,4.38,0,0,1,1.56,1.07,5,5,0,0,1,1,1.54,5.13,5.13,0,0,1,.33,1.84,4.59,4.59,0,0,1-.05.81h-7.29a2.43,2.43,0,0,0,.8,1.71,2.49,2.49,0,0,0,1.7.65,2.75,2.75,0,0,0,1.37-.36,1.82,1.82,0,0,0,.86-.92l2.07.58a4.13,4.13,0,0,1-1.69,1.78A5.31,5.31,0,0,1,426.63,266Zm-2.47-5.65h4.93a2.62,2.62,0,0,0-.79-1.72,2.46,2.46,0,0,0-3.35,0A2.55,2.55,0,0,0,424.16,260.31Z"/><path class="cls-2" d="M439.1,258.43a4.73,4.73,0,0,0-2,.44,2.58,2.58,0,0,0-1.23,1.21v5.7h-2.41v-9.43h2.22v2a4.48,4.48,0,0,1,1.28-1.53,2.87,2.87,0,0,1,1.63-.6,2.66,2.66,0,0,1,.49,0Z"/><path class="cls-2" d="M445.15,266a5.19,5.19,0,0,1-2.63-.67,4.55,4.55,0,0,1-1.75-1.76,4.92,4.92,0,0,1-.6-2.41,5.12,5.12,0,0,1,.6-2.46,4.52,4.52,0,0,1,1.75-1.8,5.14,5.14,0,0,1,2.64-.68,5.38,5.38,0,0,1,2.07.4,4.34,4.34,0,0,1,1.55,1.07,5,5,0,0,1,1,1.54,5.14,5.14,0,0,1,.34,1.84,4.47,4.47,0,0,1-.06.81h-7.29a2.48,2.48,0,0,0,.81,1.71,2.45,2.45,0,0,0,1.69.65,2.72,2.72,0,0,0,1.37-.36,1.84,1.84,0,0,0,.87-.92l2.06.58a4.07,4.07,0,0,1-1.69,1.78A5.27,5.27,0,0,1,445.15,266Zm-2.47-5.65h4.93a2.63,2.63,0,0,0-.8-1.72,2.46,2.46,0,0,0-3.35,0A2.59,2.59,0,0,0,442.68,260.31Z"/><path class="cls-2" d="M451.42,261.06a5.6,5.6,0,0,1,.53-2.46,4.42,4.42,0,0,1,1.51-1.77,3.84,3.84,0,0,1,2.17-.65,3.56,3.56,0,0,1,1.85.5,3.77,3.77,0,0,1,1.34,1.32v-5.36h2.41v10.44a.87.87,0,0,0,.13.55.56.56,0,0,0,.43.19v2a5.71,5.71,0,0,1-1,.12,1.68,1.68,0,0,1-1.07-.32,1.18,1.18,0,0,1-.48-.84l0-.59a3.54,3.54,0,0,1-1.4,1.34,4,4,0,0,1-1.88.47,4.23,4.23,0,0,1-2.31-.65,4.48,4.48,0,0,1-1.6-1.77A5.42,5.42,0,0,1,451.42,261.06Zm7.4,1.27v-2.25a3,3,0,0,0-1-1.31,2.37,2.37,0,0,0-1.43-.53,2.21,2.21,0,0,0-1.77.86,3.07,3.07,0,0,0-.7,2,2.85,2.85,0,0,0,.74,2,2.48,2.48,0,0,0,3.25.35A2.3,2.3,0,0,0,458.82,262.33Z"/><path class="cls-2" d="M362.12,277.35h2.28l-3.93,9.43h-2l-1.59-4-1.54,4h-2l-3.93-9.43h2.27l2.81,7.13,1.1-3.08-1.65-4h2l1,2.88,1-2.88h2l-1.63,4,1.11,3.08Z"/><path class="cls-2" d="M366,276v-2.39h2.41V276Zm0,10.75v-9.43h2.41v9.43Z"/><path class="cls-2" d="M376.66,286.3a6.56,6.56,0,0,1-2.66.64,3.16,3.16,0,0,1-.95-.13,2.4,2.4,0,0,1-.78-.4,1.84,1.84,0,0,1-.53-.73,2.68,2.68,0,0,1-.19-1.06v-5.41h-1.24v-1.86h1.24v-3.06H374v3.06h2v1.86h-2v4.6c0,.62.32.92.9.92a3.55,3.55,0,0,0,1.32-.34Z"/><path class="cls-2" d="M387.13,286.78h-2.41v-5.29a2.7,2.7,0,0,0-.41-1.63,1.38,1.38,0,0,0-1.17-.55,2.26,2.26,0,0,0-1.39.56,2.85,2.85,0,0,0-1,1.4v5.51h-2.4V273.64h2.4v5.46a3.89,3.89,0,0,1,3.39-1.92q3,0,3,3.71Z"/><path class="cls-2" d="M389.68,276v-2.39h2.41V276Zm0,10.75v-9.43h2.41v9.43Z"/><path class="cls-2" d="M403.48,286.78h-2.41v-5.29c0-1.45-.5-2.18-1.49-2.18a2.4,2.4,0,0,0-1.47.56,2.79,2.79,0,0,0-1,1.4v5.51h-2.41v-9.43h2.18v1.75a3.64,3.64,0,0,1,1.52-1.41,4.83,4.83,0,0,1,2.22-.51,3.13,3.13,0,0,1,1.2.22,2.17,2.17,0,0,1,.82.56,2.68,2.68,0,0,1,.5.84,4.19,4.19,0,0,1,.25,1,7.31,7.31,0,0,1,.07,1.09Z"/><path class="cls-2" d="M416.41,279.43a4.73,4.73,0,0,0-2,.44,2.52,2.52,0,0,0-1.22,1.21v5.7H410.8v-9.43H413v2a4.59,4.59,0,0,1,1.28-1.53,2.92,2.92,0,0,1,1.64-.6,2.59,2.59,0,0,1,.48,0Z"/><path class="cls-2" d="M418.21,276v-2.39h2.41V276Zm0,10.75v-9.43h2.41v9.43Z"/><path class="cls-2" d="M426.72,287a6.62,6.62,0,0,1-2.32-.41,5.14,5.14,0,0,1-1.88-1.16l.87-1.56a5.27,5.27,0,0,0,3.24,1.33,2.08,2.08,0,0,0,1.13-.26.82.82,0,0,0,.42-.75.64.64,0,0,0,0-.2.48.48,0,0,0-.08-.18l-.12-.14a.62.62,0,0,0-.19-.13l-.22-.11-.28-.1-.3-.1-.37-.1-.39-.12c-.46-.15-.84-.28-1.14-.4a7.63,7.63,0,0,1-.87-.41,2.76,2.76,0,0,1-.65-.5,2.16,2.16,0,0,1-.36-.63,2.31,2.31,0,0,1-.14-.82,2.68,2.68,0,0,1,1-2.22,4.36,4.36,0,0,1,2.78-.82,5,5,0,0,1,3.54,1.33l-1,1.53a4.45,4.45,0,0,0-2.68-1.08,2.13,2.13,0,0,0-1,.23.78.78,0,0,0-.42.75.77.77,0,0,0,.37.69,6.11,6.11,0,0,0,1.35.49l1.24.39a9.27,9.27,0,0,1,.94.41,2.71,2.71,0,0,1,.74.52,2.12,2.12,0,0,1,.41.65,2.49,2.49,0,0,1,.16.9,2.63,2.63,0,0,1-1,2.18A4.37,4.37,0,0,1,426.72,287Z"/><path class="cls-2" d="M439,286.78l-2.75-4.07L435,284v2.8h-2.41V273.64H435v8l3.8-4.23h2.55l-3.5,4,3.76,5.41Z"/><path class="cls-2" d="M443.26,288.62a4.47,4.47,0,0,0,1.08.17.93.93,0,0,0,.8-.41,5.94,5.94,0,0,0,.66-1.6l-3.72-9.43h2.5l2.54,7,2.23-7h2.31l-4,11.3a3.28,3.28,0,0,1-1.18,1.63,3.33,3.33,0,0,1-2,.62,3.76,3.76,0,0,1-1.22-.2Z"/><path class="cls-2" d="M371,308a5.36,5.36,0,0,1-2.06-.4,4.62,4.62,0,0,1-1.58-1.08,4.57,4.57,0,0,1-1-1.55,5,5,0,0,1-.36-1.87,5.07,5.07,0,0,1,.59-2.42,4.57,4.57,0,0,1,1.74-1.78,5.15,5.15,0,0,1,2.65-.68,5.09,5.09,0,0,1,2.6.65,4.22,4.22,0,0,1,1.66,1.77l-2.36.72a2.12,2.12,0,0,0-.81-.79,2.21,2.21,0,0,0-1.11-.29,2.26,2.26,0,0,0-1.76.79,2.91,2.91,0,0,0-.71,2,3,3,0,0,0,.72,2,2.25,2.25,0,0,0,1.75.81,2.36,2.36,0,0,0,1.19-.32,1.74,1.74,0,0,0,.77-.8l2.35.72a3.88,3.88,0,0,1-1.63,1.78A5.19,5.19,0,0,1,371,308Z"/><path class="cls-2" d="M376.51,303.08a4.9,4.9,0,0,1,.35-1.87,5,5,0,0,1,1-1.56,4.42,4.42,0,0,1,1.57-1.07,5.36,5.36,0,0,1,2.06-.4,5,5,0,0,1,2.63.69,4.52,4.52,0,0,1,1.72,1.78,5.33,5.33,0,0,1,.24,4.29,4.82,4.82,0,0,1-1,1.55,4.47,4.47,0,0,1-1.56,1.07,5.2,5.2,0,0,1-2.07.4,5.44,5.44,0,0,1-1.69-.26,4.31,4.31,0,0,1-1.38-.72,4.51,4.51,0,0,1-1-1.07,4.33,4.33,0,0,1-.65-1.33A5.38,5.38,0,0,1,376.51,303.08Zm4.95,2.83a2.26,2.26,0,0,0,1.76-.81,3,3,0,0,0,.7-2,2.94,2.94,0,0,0-.7-2,2.33,2.33,0,0,0-3.52,0,3,3,0,0,0-.71,2,3,3,0,0,0,.71,2A2.26,2.26,0,0,0,381.46,305.91Z"/><path class="cls-2" d="M397.22,307.78h-2.41v-5.29c0-1.45-.49-2.18-1.49-2.18a2.4,2.4,0,0,0-1.47.56,2.79,2.79,0,0,0-1,1.4v5.51h-2.41v-9.43h2.18v1.75a3.64,3.64,0,0,1,1.52-1.41,4.83,4.83,0,0,1,2.22-.51,3.13,3.13,0,0,1,1.2.22,2.21,2.21,0,0,1,.83.56,2.66,2.66,0,0,1,.49.84,4.76,4.76,0,0,1,.26,1,9.06,9.06,0,0,1,.06,1.09Z"/><path class="cls-2" d="M405.37,307.3a6.56,6.56,0,0,1-2.66.64,3.16,3.16,0,0,1-.95-.13,2.26,2.26,0,0,1-.77-.4,1.77,1.77,0,0,1-.54-.73,2.68,2.68,0,0,1-.19-1.06v-5.41H399v-1.86h1.24v-3.06h2.41v3.06h2v1.86h-2v4.6c0,.62.32.92.9.92a3.55,3.55,0,0,0,1.32-.34Z"/><path class="cls-2" d="M411.33,308a5.22,5.22,0,0,1-2.63-.67,4.52,4.52,0,0,1-1.74-1.76,4.92,4.92,0,0,1-.6-2.41,5.12,5.12,0,0,1,.6-2.46,4.49,4.49,0,0,1,1.74-1.8,5.15,5.15,0,0,1,2.65-.68,5.29,5.29,0,0,1,2.06.4,4.47,4.47,0,0,1,1.56,1.07,5,5,0,0,1,1,1.54,5.13,5.13,0,0,1,.33,1.84,4.59,4.59,0,0,1-.05.81h-7.29a2.43,2.43,0,0,0,.8,1.71,2.47,2.47,0,0,0,1.7.65,2.75,2.75,0,0,0,1.37-.36,1.82,1.82,0,0,0,.86-.92l2.07.58a4.13,4.13,0,0,1-1.69,1.78A5.31,5.31,0,0,1,411.33,308Zm-2.47-5.65h4.93a2.62,2.62,0,0,0-.79-1.72,2.35,2.35,0,0,0-1.69-.66,2.31,2.31,0,0,0-1.66.66A2.55,2.55,0,0,0,408.86,302.31Z"/><path class="cls-2" d="M426.94,307.78h-2.4v-5.29c0-1.45-.5-2.18-1.5-2.18a2.4,2.4,0,0,0-1.47.56,2.85,2.85,0,0,0-1,1.4v5.51h-2.41v-9.43h2.18v1.75a3.61,3.61,0,0,1,1.53-1.41,4.76,4.76,0,0,1,2.21-.51,3.22,3.22,0,0,1,1.21.22,2.25,2.25,0,0,1,.82.56,2.66,2.66,0,0,1,.49.84,4.76,4.76,0,0,1,.26,1,9.06,9.06,0,0,1,.06,1.09Z"/><path class="cls-2" d="M435.09,307.3a6.56,6.56,0,0,1-2.66.64,3.16,3.16,0,0,1-.95-.13,2.35,2.35,0,0,1-.77-.4,1.77,1.77,0,0,1-.54-.73,2.68,2.68,0,0,1-.19-1.06v-5.41h-1.24v-1.86H430v-3.06h2.42v3.06h2v1.86h-2v4.6c0,.62.31.92.89.92a3.55,3.55,0,0,0,1.32-.34Z"/><path class="cls-2" d="M621.78,265.78V253h2.48v10.6h6.52v2.18Z"/><path class="cls-2" d="M631.85,263a2.64,2.64,0,0,1,1.13-2.22,4.7,4.7,0,0,1,2.93-.85,5.77,5.77,0,0,1,2.26.38v-.5a1.75,1.75,0,0,0-.53-1.39,2.23,2.23,0,0,0-1.58-.49,4.13,4.13,0,0,0-1.44.26,7.77,7.77,0,0,0-1.5.81l-.78-1.59a7.17,7.17,0,0,1,4-1.23,4.54,4.54,0,0,1,3.14,1,3.69,3.69,0,0,1,1.12,2.89v3a.94.94,0,0,0,.13.55.63.63,0,0,0,.45.19v2a5.43,5.43,0,0,1-1,.12,1.68,1.68,0,0,1-1.07-.3,1.25,1.25,0,0,1-.47-.81l-.06-.48a4.11,4.11,0,0,1-1.52,1.21,4.35,4.35,0,0,1-1.88.44,3.32,3.32,0,0,1-2.34-.85A2.69,2.69,0,0,1,631.85,263Zm5.88.48a1.28,1.28,0,0,0,.44-.83v-1a4.93,4.93,0,0,0-1.89-.37,2.62,2.62,0,0,0-1.54.41,1.23,1.23,0,0,0-.6,1.06,1.29,1.29,0,0,0,.46,1,1.72,1.72,0,0,0,1.22.42,3,3,0,0,0,1-.2A2.54,2.54,0,0,0,637.73,263.48Z"/><path class="cls-2" d="M647.68,266a5.38,5.38,0,0,1-2.07-.4,4.62,4.62,0,0,1-1.58-1.08,4.89,4.89,0,0,1-1-1.55,5.12,5.12,0,0,1,.24-4.29,4.44,4.44,0,0,1,1.74-1.78,5.49,5.49,0,0,1,5.24,0,4.22,4.22,0,0,1,1.66,1.77l-2.35.72a2.12,2.12,0,0,0-.81-.79,2.34,2.34,0,0,0-2.88.5,3.25,3.25,0,0,0,0,4.07,2.27,2.27,0,0,0,1.75.81,2.33,2.33,0,0,0,1.19-.32,1.74,1.74,0,0,0,.77-.8l2.36.72a4,4,0,0,1-1.64,1.78A5.15,5.15,0,0,1,647.68,266Z"/><path class="cls-2" d="M660.32,265.78l-2.75-4.07L656.29,263v2.8h-2.41V252.64h2.41v8l3.8-4.23h2.56l-3.51,4,3.76,5.41Z"/><path class="cls-2" d="M668.54,261.08a4.9,4.9,0,0,1,.35-1.87,5,5,0,0,1,1-1.56,4.42,4.42,0,0,1,1.57-1.07,5.36,5.36,0,0,1,2.06-.4,5,5,0,0,1,2.63.69,4.45,4.45,0,0,1,1.72,1.78,5.22,5.22,0,0,1,.24,4.29,4.82,4.82,0,0,1-1,1.55,4.29,4.29,0,0,1-1.56,1.07,5.2,5.2,0,0,1-2.07.4,5.49,5.49,0,0,1-1.69-.26,4.31,4.31,0,0,1-1.38-.72,4.94,4.94,0,0,1-1-1.07,4.57,4.57,0,0,1-.65-1.33A5.38,5.38,0,0,1,668.54,261.08Zm5,2.83a2.24,2.24,0,0,0,1.76-.81,3,3,0,0,0,.71-2,3,3,0,0,0-.71-2,2.26,2.26,0,0,0-1.76-.8,2.24,2.24,0,0,0-1.75.81,3.24,3.24,0,0,0,0,4.06A2.26,2.26,0,0,0,673.49,263.91Z"/><path class="cls-2" d="M681,265.78v-7.09h-1.24v-1.84H681v-.57a4.26,4.26,0,0,1,.85-2.79,2.83,2.83,0,0,1,2.3-1,5.41,5.41,0,0,1,2.32.56l-.48,1.82a2.65,2.65,0,0,0-1.32-.34,1.1,1.1,0,0,0-.94.43,2.07,2.07,0,0,0-.32,1.25v.67h2.31v1.84h-2.31v7.09Z"/><path class="cls-2" d="M608,286.78l-3.48-9.43H607l2.38,7.23,2.4-7.23h2.28l-3.45,9.43Z"/><path class="cls-2" d="M615.81,276v-2.39h2.41V276Zm0,10.75v-9.43h2.41v9.43Z"/><path class="cls-2" d="M625.23,287a5.22,5.22,0,0,1-2.63-.67,4.55,4.55,0,0,1-1.75-1.76,4.92,4.92,0,0,1-.59-2.41,5.11,5.11,0,0,1,.59-2.46,4.52,4.52,0,0,1,1.75-1.8,5.15,5.15,0,0,1,2.65-.68,5.33,5.33,0,0,1,2.06.4,4.34,4.34,0,0,1,1.55,1.07,4.65,4.65,0,0,1,1,1.54,4.93,4.93,0,0,1,.34,1.84,5.82,5.82,0,0,1,0,.81h-7.3a2.49,2.49,0,0,0,2.51,2.36,2.71,2.71,0,0,0,1.36-.36,1.8,1.8,0,0,0,.87-.92l2.07.58a4.15,4.15,0,0,1-1.7,1.78A5.24,5.24,0,0,1,625.23,287Zm-2.47-5.65h4.93a2.67,2.67,0,0,0-.79-1.72,2.47,2.47,0,0,0-3.36,0A2.59,2.59,0,0,0,622.76,281.31Z"/><path class="cls-2" d="M643.5,277.35h2.29l-3.94,9.43h-2l-1.58-4-1.55,4h-2l-3.93-9.43H633l2.81,7.13,1.1-3.08-1.64-4h2l1,2.88,1-2.88h2l-1.64,4,1.12,3.08Z"/><path class="cls-2" d="M646.47,284a2.63,2.63,0,0,1,1.12-2.22,4.72,4.72,0,0,1,2.93-.85,5.82,5.82,0,0,1,2.27.38v-.5a1.79,1.79,0,0,0-.53-1.39,2.27,2.27,0,0,0-1.58-.49,4,4,0,0,0-1.44.26,7.82,7.82,0,0,0-1.51.81l-.78-1.59a7.19,7.19,0,0,1,4-1.23,4.52,4.52,0,0,1,3.14,1,3.69,3.69,0,0,1,1.12,2.89v3a.87.87,0,0,0,.14.55.59.59,0,0,0,.44.19v2a5.34,5.34,0,0,1-1,.12,1.71,1.71,0,0,1-1.08-.3,1.29,1.29,0,0,1-.47-.81l-.05-.48a4.22,4.22,0,0,1-1.53,1.21,4.34,4.34,0,0,1-1.87.44,3.33,3.33,0,0,1-2.35-.85A2.72,2.72,0,0,1,646.47,284Zm5.87.48a1.26,1.26,0,0,0,.45-.83v-1a5,5,0,0,0-1.89-.37,2.63,2.63,0,0,0-1.55.41,1.23,1.23,0,0,0-.6,1.06,1.29,1.29,0,0,0,.46,1,1.72,1.72,0,0,0,1.22.42,2.92,2.92,0,0,0,1.05-.2A2.54,2.54,0,0,0,652.34,284.48Z"/><path class="cls-2" d="M660,285.15v1.63h-2.1V273.64h2.4V279a3.66,3.66,0,0,1,1.34-1.34,3.76,3.76,0,0,1,1.91-.48,3.61,3.61,0,0,1,2.14.68,4.34,4.34,0,0,1,1.47,1.8,5.81,5.81,0,0,1,.51,2.45,5.29,5.29,0,0,1-.57,2.45,4.44,4.44,0,0,1-1.59,1.76,4.21,4.21,0,0,1-2.25.64,3.79,3.79,0,0,1-1.91-.48A3.52,3.52,0,0,1,660,285.15Zm5.2-3a3.15,3.15,0,0,0-.7-2,2.19,2.19,0,0,0-1.76-.85,2.23,2.23,0,0,0-1.43.52,3.41,3.41,0,0,0-1,1.32v2.25a2.23,2.23,0,0,0,.91,1.14,2.48,2.48,0,0,0,1.38.44,2.42,2.42,0,0,0,1.87-.81A2.84,2.84,0,0,0,665.2,282.12Z"/><path class="cls-2" d="M669.75,276v-2.39h2.41V276Zm0,10.75v-9.43h2.41v9.43Z"/><path class="cls-2" d="M674.77,273.64h2.41v10.12a1.41,1.41,0,0,0,.2.86.76.76,0,0,0,.61.24,2.63,2.63,0,0,0,1.13-.26l.33,1.84a5.1,5.1,0,0,1-1.12.35,5.67,5.67,0,0,1-1.18.13,2.41,2.41,0,0,1-1.75-.6,2.29,2.29,0,0,1-.63-1.72Z"/><path class="cls-2" d="M680.94,276v-2.39h2.41V276Zm0,10.75v-9.43h2.41v9.43Z"/><path class="cls-2" d="M691.63,286.3a6.52,6.52,0,0,1-2.66.64,3.21,3.21,0,0,1-1-.13,2.35,2.35,0,0,1-.77-.4,1.77,1.77,0,0,1-.54-.73,2.68,2.68,0,0,1-.19-1.06v-5.41h-1.24v-1.86h1.24v-3.06h2.42v3.06h2v1.86h-2v4.6c0,.62.31.92.89.92a3.55,3.55,0,0,0,1.32-.34Z"/><path class="cls-2" d="M693.5,288.62a4.47,4.47,0,0,0,1.08.17.94.94,0,0,0,.8-.41,5.94,5.94,0,0,0,.66-1.6l-3.73-9.43h2.51l2.54,7,2.23-7h2.3l-4,11.3a3.24,3.24,0,0,1-1.19,1.63,3.31,3.31,0,0,1-2,.62,3.7,3.7,0,0,1-1.21-.2Z"/><path class="cls-2" d="M160.25,542.12V529.34h2.48v10.6h6.52v2.18Z"/><path class="cls-2" d="M170.32,539.33a2.67,2.67,0,0,1,1.13-2.22,4.76,4.76,0,0,1,2.93-.85,6,6,0,0,1,2.26.38v-.5a1.77,1.77,0,0,0-.53-1.39,2.28,2.28,0,0,0-1.58-.48,4.13,4.13,0,0,0-1.44.26,7.67,7.67,0,0,0-1.5.8l-.78-1.58a7.17,7.17,0,0,1,4-1.23,4.54,4.54,0,0,1,3.14,1,3.67,3.67,0,0,1,1.12,2.88v3a.94.94,0,0,0,.13.55.63.63,0,0,0,.45.19v2a5.43,5.43,0,0,1-1,.12,1.68,1.68,0,0,1-1.07-.3,1.25,1.25,0,0,1-.47-.82l-.06-.48a4.13,4.13,0,0,1-1.52,1.22,4.34,4.34,0,0,1-1.88.43,3.36,3.36,0,0,1-2.34-.84A2.72,2.72,0,0,1,170.32,539.33Zm5.87.48a1.22,1.22,0,0,0,.45-.82v-1a4.94,4.94,0,0,0-1.89-.38,2.67,2.67,0,0,0-1.54.41,1.24,1.24,0,0,0-.6,1.07,1.29,1.29,0,0,0,.46,1,1.72,1.72,0,0,0,1.22.42,3,3,0,0,0,1.05-.2A2.41,2.41,0,0,0,176.19,539.81Z"/><path class="cls-2" d="M186.15,542.29a5.2,5.2,0,0,1-2.07-.4,4.46,4.46,0,0,1-1.58-1.07,5.06,5.06,0,0,1-1-1.56,4.89,4.89,0,0,1-.36-1.86,5,5,0,0,1,.6-2.43,4.48,4.48,0,0,1,1.74-1.77,5.49,5.49,0,0,1,5.24,0,4.11,4.11,0,0,1,1.66,1.77l-2.35.72a2.14,2.14,0,0,0-.81-.8,2.36,2.36,0,0,0-2.88.51,3.24,3.24,0,0,0,0,4.06,2.24,2.24,0,0,0,1.75.82,2.33,2.33,0,0,0,1.19-.32,1.79,1.79,0,0,0,.77-.8l2.36.72a4,4,0,0,1-1.64,1.77A5.06,5.06,0,0,1,186.15,542.29Z"/><path class="cls-2" d="M198.79,542.12,196,538.05l-1.28,1.26v2.81h-2.41V529h2.41v7.95l3.8-4.23h2.55l-3.5,4,3.76,5.42Z"/><path class="cls-2" d="M207,537.42a5.07,5.07,0,0,1,1.32-3.44,4.53,4.53,0,0,1,1.57-1.06,5.18,5.18,0,0,1,2.06-.4,5.07,5.07,0,0,1,2.63.68,4.58,4.58,0,0,1,1.72,1.78,5.15,5.15,0,0,1,.59,2.44,5.12,5.12,0,0,1-1.31,3.41A4.42,4.42,0,0,1,214,541.9a5.37,5.37,0,0,1-2.07.39,5.2,5.2,0,0,1-1.69-.26,4.5,4.5,0,0,1-1.38-.71,5.18,5.18,0,0,1-1-1.07,4.63,4.63,0,0,1-.65-1.34A5.31,5.31,0,0,1,207,537.42Zm5,2.83a2.24,2.24,0,0,0,1.76-.81,3,3,0,0,0,.71-2,2.93,2.93,0,0,0-.71-2,2.32,2.32,0,0,0-3.51,0,2.91,2.91,0,0,0-.72,2,3,3,0,0,0,.71,2A2.26,2.26,0,0,0,212,540.25Z"/><path class="cls-2" d="M219.45,542.12V535h-1.24v-1.83h1.24v-.57a4.24,4.24,0,0,1,.85-2.79,2.84,2.84,0,0,1,2.3-1,5.29,5.29,0,0,1,2.32.57l-.48,1.82a2.66,2.66,0,0,0-1.32-.35,1.13,1.13,0,0,0-.94.43,2.13,2.13,0,0,0-.32,1.26v.67h2.31V535h-2.31v7.1Z"/><path class="cls-2" d="M154.52,561.47V567h-2.41V553.69h2.11v1.61A3.84,3.84,0,0,1,155.6,554a3.77,3.77,0,0,1,1.88-.47,4,4,0,0,1,2.25.66,4.53,4.53,0,0,1,1.59,1.77,5.24,5.24,0,0,1,.57,2.43,5.82,5.82,0,0,1-.53,2.49,4.23,4.23,0,0,1-1.48,1.77,3.58,3.58,0,0,1-2.11.65,3.77,3.77,0,0,1-1.92-.48A3.56,3.56,0,0,1,154.52,561.47Zm4.9-3.09a2.8,2.8,0,0,0-.75-2,2.43,2.43,0,0,0-1.86-.81,2.46,2.46,0,0,0-1.38.45,2.25,2.25,0,0,0-.91,1.13v2.21a3.18,3.18,0,0,0,1,1.34,2.29,2.29,0,0,0,1.44.54,2.19,2.19,0,0,0,1.76-.86A3.06,3.06,0,0,0,159.42,558.38Z"/><path class="cls-2" d="M169.59,555.77a4.58,4.58,0,0,0-2,.44,2.56,2.56,0,0,0-1.23,1.2v5.71H164v-9.43h2.22v2a4.3,4.3,0,0,1,1.28-1.53,3,3,0,0,1,1.64-.61,4.06,4.06,0,0,1,.48,0Z"/><path class="cls-2" d="M175.64,563.29a5.19,5.19,0,0,1-2.63-.66,4.57,4.57,0,0,1-1.75-1.77,4.91,4.91,0,0,1-.6-2.4,5.16,5.16,0,0,1,.6-2.47A4.56,4.56,0,0,1,173,554.2a5.5,5.5,0,0,1,4.71-.28,4.45,4.45,0,0,1,1.55,1.06,4.86,4.86,0,0,1,1,1.55,4.92,4.92,0,0,1,.34,1.83,5.61,5.61,0,0,1,0,.81h-7.3a2.49,2.49,0,0,0,2.51,2.37,2.71,2.71,0,0,0,1.36-.36,1.85,1.85,0,0,0,.87-.93l2.06.58a4,4,0,0,1-1.69,1.79A5.24,5.24,0,0,1,175.64,563.29Zm-2.47-5.65h4.93a2.65,2.65,0,0,0-.8-1.72,2.37,2.37,0,0,0-1.68-.65,2.33,2.33,0,0,0-1.67.66A2.58,2.58,0,0,0,173.17,557.64Z"/><path class="cls-2" d="M197.14,563.12h-2.41v-5.29a2.88,2.88,0,0,0-.38-1.64,1.23,1.23,0,0,0-1.08-.54,2,2,0,0,0-1.35.55,3,3,0,0,0-.9,1.42v5.5H188.6v-5.29c0-1.46-.48-2.18-1.46-2.18a2,2,0,0,0-1.34.54,3,3,0,0,0-.91,1.42v5.51h-2.4v-9.43h2.18v1.75A3.75,3.75,0,0,1,186.1,554a4.28,4.28,0,0,1,2.07-.5,2.77,2.77,0,0,1,1.8.56,2.51,2.51,0,0,1,.87,1.44A4,4,0,0,1,192.3,554a3.86,3.86,0,0,1,2-.52c1.88,0,2.83,1.24,2.83,3.71Z"/><path class="cls-2" d="M199.69,552.37V550h2.41v2.39Zm0,10.75v-9.43h2.41v9.43Z"/><path class="cls-2" d="M204.64,559.59v-5.9h2.41v5.38c0,1.45.52,2.18,1.56,2.18a2.43,2.43,0,0,0,1.38-.44,3.23,3.23,0,0,0,1.06-1.28v-5.84h2.4v6.73a.87.87,0,0,0,.14.55.59.59,0,0,0,.44.19v2a5.77,5.77,0,0,1-1,.1,1.8,1.8,0,0,1-1.06-.29,1.14,1.14,0,0,1-.47-.82l-.05-.76a4.14,4.14,0,0,1-1.61,1.45,4.82,4.82,0,0,1-2.19.49,2.69,2.69,0,0,1-2.22-.94A4.33,4.33,0,0,1,204.64,559.59Z"/><path class="cls-2" d="M231,563.12h-2.41v-5.29a2.88,2.88,0,0,0-.38-1.64,1.23,1.23,0,0,0-1.08-.54,2,2,0,0,0-1.35.55,3,3,0,0,0-.9,1.42v5.5h-2.42v-5.29c0-1.46-.48-2.18-1.46-2.18a2.08,2.08,0,0,0-1.35.54,3,3,0,0,0-.9,1.42v5.51h-2.41v-9.43h2.18v1.75a3.85,3.85,0,0,1,1.44-1.42,4.28,4.28,0,0,1,2.07-.5,2.72,2.72,0,0,1,1.79.56,2.41,2.41,0,0,1,.87,1.44,4,4,0,0,1,1.47-1.48,3.86,3.86,0,0,1,2-.52c1.88,0,2.83,1.24,2.83,3.71Z"/><path class="cls-2" d="M150.5,573.37V571h2.41v2.39Zm0,10.75v-9.43h2.41v9.43Z"/><path class="cls-2" d="M164.31,584.12H161.9v-5.29c0-1.46-.5-2.18-1.5-2.18a2.31,2.31,0,0,0-1.46.56,2.77,2.77,0,0,0-1,1.4v5.51h-2.41v-9.43h2.18v1.75a3.61,3.61,0,0,1,1.53-1.41,4.78,4.78,0,0,1,2.22-.51,3.21,3.21,0,0,1,1.2.21,2.38,2.38,0,0,1,.82.56,2.6,2.6,0,0,1,.49.85,4,4,0,0,1,.26,1,8.94,8.94,0,0,1,.07,1.09Z"/><path class="cls-2" d="M169.24,584.12l-3.48-9.43h2.5l2.38,7.23,2.39-7.23h2.29l-3.45,9.43Z"/><path class="cls-2" d="M181.1,584.29a5.16,5.16,0,0,1-2.63-.66,4.57,4.57,0,0,1-1.75-1.77,4.91,4.91,0,0,1-.6-2.4,5.16,5.16,0,0,1,.6-2.47,4.56,4.56,0,0,1,1.75-1.79,5.48,5.48,0,0,1,4.7-.28,4.4,4.4,0,0,1,1.56,1.06,5,5,0,0,1,1,1.55,5.12,5.12,0,0,1,.34,1.83,4.32,4.32,0,0,1-.06.81h-7.29a2.48,2.48,0,0,0,.81,1.72,2.45,2.45,0,0,0,1.69.65,2.75,2.75,0,0,0,1.37-.36,1.94,1.94,0,0,0,.87-.93l2.06.58a4.1,4.1,0,0,1-1.69,1.79A5.29,5.29,0,0,1,181.1,584.29Zm-2.47-5.65h4.93a2.65,2.65,0,0,0-.8-1.72,2.37,2.37,0,0,0-1.68-.65,2.33,2.33,0,0,0-1.67.66A2.49,2.49,0,0,0,178.63,578.64Z"/><path class="cls-2" d="M196.71,584.12H194.3v-5.29c0-1.46-.5-2.18-1.5-2.18a2.33,2.33,0,0,0-1.46.56,2.83,2.83,0,0,0-1,1.4v5.51h-2.41v-9.43h2.18v1.75a3.67,3.67,0,0,1,1.53-1.41,4.78,4.78,0,0,1,2.22-.51,3.21,3.21,0,0,1,1.2.21,2.38,2.38,0,0,1,.82.56,2.81,2.81,0,0,1,.5.85,4.44,4.44,0,0,1,.25,1,7.31,7.31,0,0,1,.07,1.09Z"/><path class="cls-2" d="M204.86,583.63a6.59,6.59,0,0,1-2.67.65,3.21,3.21,0,0,1-.95-.14,2.27,2.27,0,0,1-.77-.4,1.74,1.74,0,0,1-.54-.72,2.9,2.9,0,0,1-.19-1.06v-5.42H198.5v-1.85h1.24v-3.06h2.42v3.06h2v1.85h-2v4.61c0,.61.31.92.89.92a3.55,3.55,0,0,0,1.32-.34Z"/><path class="cls-2" d="M205.84,579.42a5.19,5.19,0,0,1,.35-1.88,5,5,0,0,1,1-1.56,4.53,4.53,0,0,1,1.57-1.06,5.18,5.18,0,0,1,2.06-.4,5,5,0,0,1,2.62.68,4.61,4.61,0,0,1,1.73,1.78,5.26,5.26,0,0,1,.58,2.44,5,5,0,0,1-1.3,3.41,4.55,4.55,0,0,1-1.57,1.07,5.66,5.66,0,0,1-3.76.13,4.74,4.74,0,0,1-1.38-.71,5.18,5.18,0,0,1-1-1.07,4.6,4.6,0,0,1-.64-1.34A5,5,0,0,1,205.84,579.42Zm5,2.83a2.22,2.22,0,0,0,1.75-.81,3,3,0,0,0,.71-2,2.93,2.93,0,0,0-.71-2,2.21,2.21,0,0,0-1.75-.8,2.26,2.26,0,0,0-1.76.81,3,3,0,0,0-.71,2,2.92,2.92,0,0,0,.71,2A2.26,2.26,0,0,0,210.8,582.25Z"/><path class="cls-2" d="M223.41,576.77a4.58,4.58,0,0,0-2,.44,2.5,2.5,0,0,0-1.22,1.2v5.71H217.8v-9.43H220v2a4.4,4.4,0,0,1,1.28-1.53,3,3,0,0,1,1.64-.61,4.06,4.06,0,0,1,.48,0Z"/><path class="cls-2" d="M225.4,586a4.59,4.59,0,0,0,1.08.18,1,1,0,0,0,.8-.41,6.09,6.09,0,0,0,.66-1.6l-3.73-9.43h2.51l2.54,7,2.23-7h2.3l-4,11.3a3.24,3.24,0,0,1-1.19,1.63,3.35,3.35,0,0,1-2,.62,4,4,0,0,1-1.21-.2Z"/><path class="cls-2" d="M368.13,531.52h-4.08v10.6h-2.46v-10.6H357.5v-2.18h10.63Z"/><path class="cls-2" d="M367.73,539.33a2.67,2.67,0,0,1,1.13-2.22,4.75,4.75,0,0,1,2.92-.85,6,6,0,0,1,2.27.38v-.5a1.8,1.8,0,0,0-.53-1.39,2.3,2.3,0,0,0-1.58-.48,4.13,4.13,0,0,0-1.44.26,7.4,7.4,0,0,0-1.5.8l-.79-1.58a7.2,7.2,0,0,1,4-1.23,4.56,4.56,0,0,1,3.14,1,3.67,3.67,0,0,1,1.12,2.88v3a.87.87,0,0,0,.13.55.63.63,0,0,0,.45.19v2a5.52,5.52,0,0,1-1,.12,1.73,1.73,0,0,1-1.08-.3,1.34,1.34,0,0,1-.47-.82l0-.48a4.13,4.13,0,0,1-1.52,1.22,4.37,4.37,0,0,1-1.88.43,3.38,3.38,0,0,1-2.35-.84A2.74,2.74,0,0,1,367.73,539.33Zm5.87.48a1.22,1.22,0,0,0,.45-.82v-1a4.94,4.94,0,0,0-1.89-.38,2.73,2.73,0,0,0-1.55.41,1.25,1.25,0,0,0-.59,1.07,1.31,1.31,0,0,0,.45,1,1.76,1.76,0,0,0,1.22.42,3,3,0,0,0,1.06-.2A2.51,2.51,0,0,0,373.6,539.81Z"/><path class="cls-2" d="M384.77,534.77a4.58,4.58,0,0,0-2,.44,2.5,2.5,0,0,0-1.22,1.2v5.71h-2.41v-9.43h2.21v2a4.4,4.4,0,0,1,1.28-1.53,3,3,0,0,1,1.64-.61,4.06,4.06,0,0,1,.48,0Z"/><path class="cls-2" d="M385.92,537.4a5.46,5.46,0,0,1,.55-2.47,4.32,4.32,0,0,1,1.57-1.76,4.12,4.12,0,0,1,2.27-.65,3.75,3.75,0,0,1,1.9.48,4.26,4.26,0,0,1,1.4,1.34v-1.65h2.11v9a4.26,4.26,0,0,1-.68,2.39,4.32,4.32,0,0,1-1.87,1.55,6.52,6.52,0,0,1-2.69.52,5.86,5.86,0,0,1-2.55-.5,5.23,5.23,0,0,1-1.86-1.46l1.31-1.28a3.8,3.8,0,0,0,1.36,1,4,4,0,0,0,1.74.38,3.71,3.71,0,0,0,1.08-.15,3.08,3.08,0,0,0,.9-.47,2.19,2.19,0,0,0,.62-.83,3,3,0,0,0,.22-1.19v-1.19a3.22,3.22,0,0,1-1.31,1.25,4,4,0,0,1-4-.21,4.26,4.26,0,0,1-1.51-1.74A5.43,5.43,0,0,1,385.92,537.4Zm7.38,1.26v-2.25a2.94,2.94,0,0,0-1-1.32,2.4,2.4,0,0,0-1.45-.51,2.17,2.17,0,0,0-1.76.86,3.19,3.19,0,0,0-.69,2,2.78,2.78,0,0,0,.75,2,2.46,2.46,0,0,0,3.25.34A2.47,2.47,0,0,0,393.3,538.66Z"/><path class="cls-2" d="M402.72,542.29a5.19,5.19,0,0,1-2.63-.66,4.57,4.57,0,0,1-1.75-1.77,4.91,4.91,0,0,1-.6-2.4,5.16,5.16,0,0,1,.6-2.47,4.56,4.56,0,0,1,1.75-1.79,5.14,5.14,0,0,1,2.64-.68,5.2,5.2,0,0,1,2.07.4,4.45,4.45,0,0,1,1.55,1.06,5,5,0,0,1,1,1.55,5.12,5.12,0,0,1,.34,1.83,4.32,4.32,0,0,1-.06.81H400.3a2.48,2.48,0,0,0,.81,1.72,2.45,2.45,0,0,0,1.69.65,2.72,2.72,0,0,0,1.37-.36,1.9,1.9,0,0,0,.87-.93l2.06.58a4,4,0,0,1-1.69,1.79A5.27,5.27,0,0,1,402.72,542.29Zm-2.47-5.65h4.93a2.65,2.65,0,0,0-.8-1.72,2.37,2.37,0,0,0-1.68-.65,2.33,2.33,0,0,0-1.67.66A2.58,2.58,0,0,0,400.25,536.64Z"/><path class="cls-2" d="M415.13,541.63a6.58,6.58,0,0,1-2.66.65,3.11,3.11,0,0,1-1-.14,2.22,2.22,0,0,1-.78-.4,1.72,1.72,0,0,1-.53-.72A2.71,2.71,0,0,1,410,540v-5.42h-1.24v-1.85H410v-3.06h2.42v3.06h2v1.85h-2v4.61c0,.61.32.92.9.92a3.55,3.55,0,0,0,1.32-.34Z"/><path class="cls-2" d="M416.84,531.37V529h2.4v2.39Zm0,10.75v-9.43h2.4v9.43Z"/><path class="cls-2" d="M430.64,542.12h-2.41v-5.29c0-1.46-.5-2.18-1.5-2.18a2.33,2.33,0,0,0-1.46.56,2.83,2.83,0,0,0-1,1.4v5.51h-2.41v-9.43h2.18v1.75a3.61,3.61,0,0,1,1.53-1.41,4.78,4.78,0,0,1,2.22-.51,3.21,3.21,0,0,1,1.2.21,2.38,2.38,0,0,1,.82.56,2.81,2.81,0,0,1,.5.85,4.44,4.44,0,0,1,.25,1,8.94,8.94,0,0,1,.07,1.09Z"/><path class="cls-2" d="M432.62,537.4a5.47,5.47,0,0,1,.56-2.47,4.37,4.37,0,0,1,1.56-1.76,4.16,4.16,0,0,1,2.28-.65,3.75,3.75,0,0,1,1.9.48,4.23,4.23,0,0,1,1.39,1.34v-1.65h2.11v9a4.19,4.19,0,0,1-.68,2.39,4.23,4.23,0,0,1-1.86,1.55,6.59,6.59,0,0,1-2.69.52,5.88,5.88,0,0,1-2.56-.5,5.32,5.32,0,0,1-1.86-1.46l1.31-1.28a3.84,3.84,0,0,0,1.37,1,4,4,0,0,0,1.74.38,3.81,3.81,0,0,0,1.08-.15,3,3,0,0,0,.89-.47,2.09,2.09,0,0,0,.62-.83,3,3,0,0,0,.23-1.19v-1.19a3.22,3.22,0,0,1-1.31,1.25,4,4,0,0,1-4-.21,4.19,4.19,0,0,1-1.51-1.74A5.3,5.3,0,0,1,432.62,537.4Zm7.39,1.26v-2.25a2.94,2.94,0,0,0-1-1.32,2.4,2.4,0,0,0-1.45-.51,2.18,2.18,0,0,0-1.77.86,3.19,3.19,0,0,0-.69,2,2.78,2.78,0,0,0,.75,2,2.48,2.48,0,0,0,3.26.34A2.54,2.54,0,0,0,440,538.66Z"/><path class="cls-2" d="M368.55,562.63a6.58,6.58,0,0,1-2.66.65,3.16,3.16,0,0,1-.95-.14,2.22,2.22,0,0,1-.78-.4,1.81,1.81,0,0,1-.53-.72,2.71,2.71,0,0,1-.19-1.06v-5.42H362.2v-1.85h1.24v-3.06h2.41v3.06h2v1.85h-2v4.61c0,.61.32.92.9.92a3.55,3.55,0,0,0,1.32-.34Z"/><path class="cls-2" d="M379,563.12h-2.41v-5.29a2.75,2.75,0,0,0-.41-1.64,1.4,1.4,0,0,0-1.17-.54,2.2,2.2,0,0,0-1.39.56,2.73,2.73,0,0,0-1,1.4v5.51h-2.41V550h2.41v5.46a3.63,3.63,0,0,1,1.42-1.41,3.9,3.9,0,0,1,2-.51q3,0,3,3.71Z"/><path class="cls-2" d="M386,563.29a5.19,5.19,0,0,1-2.63-.66,4.57,4.57,0,0,1-1.75-1.77,4.91,4.91,0,0,1-.6-2.4,5.16,5.16,0,0,1,.6-2.47,4.56,4.56,0,0,1,1.75-1.79,5.5,5.5,0,0,1,4.71-.28,4.45,4.45,0,0,1,1.55,1.06,4.86,4.86,0,0,1,1,1.55,4.92,4.92,0,0,1,.34,1.83,5.61,5.61,0,0,1-.05.81h-7.3a2.49,2.49,0,0,0,2.51,2.37,2.71,2.71,0,0,0,1.36-.36,1.85,1.85,0,0,0,.87-.93l2.06.58a4,4,0,0,1-1.69,1.79A5.27,5.27,0,0,1,386,563.29Zm-2.47-5.65h4.93a2.65,2.65,0,0,0-.8-1.72,2.37,2.37,0,0,0-1.68-.65,2.33,2.33,0,0,0-1.67.66A2.58,2.58,0,0,0,383.48,557.64Z"/><path class="cls-2" d="M403.18,555.77a4.66,4.66,0,0,0-2,.44,2.54,2.54,0,0,0-1.22,1.2v5.71h-2.41v-9.43h2.22v2a4.38,4.38,0,0,1,1.27-1.53,3,3,0,0,1,1.64-.61,4.14,4.14,0,0,1,.49,0Z"/><path class="cls-2" d="M405,552.37V550h2.41v2.39Zm0,10.75v-9.43h2.41v9.43Z"/><path class="cls-2" d="M409.45,558.4a5.46,5.46,0,0,1,.55-2.47,4.32,4.32,0,0,1,1.57-1.76,4.12,4.12,0,0,1,2.27-.65,3.75,3.75,0,0,1,1.9.48,4.26,4.26,0,0,1,1.4,1.34v-1.65h2.11v9a4.26,4.26,0,0,1-.68,2.39,4.32,4.32,0,0,1-1.87,1.55,6.55,6.55,0,0,1-2.69.52,5.86,5.86,0,0,1-2.55-.5,5.14,5.14,0,0,1-1.86-1.46l1.31-1.28a3.8,3.8,0,0,0,1.36,1,4,4,0,0,0,1.74.38,3.71,3.71,0,0,0,1.08-.15,3.22,3.22,0,0,0,.9-.47,2.19,2.19,0,0,0,.62-.83,3,3,0,0,0,.22-1.19v-1.19a3.22,3.22,0,0,1-1.31,1.25,4,4,0,0,1-4-.21,4.26,4.26,0,0,1-1.51-1.74A5.29,5.29,0,0,1,409.45,558.4Zm7.38,1.26v-2.25a2.94,2.94,0,0,0-1-1.32,2.4,2.4,0,0,0-1.45-.51,2.16,2.16,0,0,0-1.76.86,3.19,3.19,0,0,0-.69,2,2.82,2.82,0,0,0,.74,2,2.45,2.45,0,0,0,1.85.8,2.42,2.42,0,0,0,1.41-.46A2.54,2.54,0,0,0,416.83,559.66Z"/><path class="cls-2" d="M430.63,563.12h-2.41v-5.29a2.68,2.68,0,0,0-.41-1.64,1.39,1.39,0,0,0-1.17-.54,2.2,2.2,0,0,0-1.39.56,2.79,2.79,0,0,0-1,1.4v5.51h-2.41V550h2.41v5.46A3.63,3.63,0,0,1,425.7,554a3.9,3.9,0,0,1,2-.51q3,0,3,3.71Z"/><path class="cls-2" d="M438.78,562.63a6.58,6.58,0,0,1-2.66.65,3.11,3.11,0,0,1-.95-.14,2.22,2.22,0,0,1-.78-.4,1.81,1.81,0,0,1-.53-.72,2.71,2.71,0,0,1-.2-1.06v-5.42h-1.23v-1.85h1.23v-3.06h2.42v3.06h2v1.85h-2v4.61c0,.61.32.92.9.92a3.55,3.55,0,0,0,1.32-.34Z"/><path class="cls-2" d="M359.19,581.33a2.66,2.66,0,0,1,1.12-2.22,4.78,4.78,0,0,1,2.93-.85,6,6,0,0,1,2.27.38v-.5a1.8,1.8,0,0,0-.53-1.39,2.31,2.31,0,0,0-1.58-.48,4,4,0,0,0-1.44.26,7.72,7.72,0,0,0-1.51.8l-.78-1.58a7.19,7.19,0,0,1,4-1.23,4.52,4.52,0,0,1,3.14,1,3.67,3.67,0,0,1,1.12,2.88v3a.87.87,0,0,0,.14.55.59.59,0,0,0,.44.19v2a5.34,5.34,0,0,1-1,.12,1.71,1.71,0,0,1-1.08-.3,1.34,1.34,0,0,1-.47-.82l-.05-.48a4.25,4.25,0,0,1-1.53,1.22,4.33,4.33,0,0,1-1.87.43,3.37,3.37,0,0,1-2.35-.84A2.74,2.74,0,0,1,359.19,581.33Zm5.87.48a1.22,1.22,0,0,0,.45-.82v-1a5,5,0,0,0-1.89-.38,2.7,2.7,0,0,0-1.55.41,1.24,1.24,0,0,0-.6,1.07,1.29,1.29,0,0,0,.46,1,1.72,1.72,0,0,0,1.22.42,2.92,2.92,0,0,0,1.05-.2A2.55,2.55,0,0,0,365.06,581.81Z"/><path class="cls-2" d="M370.53,580.59v-5.9h2.41v5.38c0,1.45.52,2.18,1.56,2.18a2.43,2.43,0,0,0,1.38-.44,3.21,3.21,0,0,0,1.05-1.28v-5.84h2.41v6.73a.94.94,0,0,0,.13.55.63.63,0,0,0,.45.19v2a5.77,5.77,0,0,1-1,.1,1.8,1.8,0,0,1-1.06-.29,1.14,1.14,0,0,1-.47-.82l-.06-.76a4,4,0,0,1-1.6,1.45,4.82,4.82,0,0,1-2.19.49,2.67,2.67,0,0,1-2.22-.94A4.33,4.33,0,0,1,370.53,580.59Z"/><path class="cls-2" d="M381.6,579.4a5.55,5.55,0,0,1,.54-2.46,4.29,4.29,0,0,1,1.51-1.77,3.82,3.82,0,0,1,2.17-.65,3.56,3.56,0,0,1,1.85.5,3.66,3.66,0,0,1,1.33,1.32V571h2.42v10.44a1,1,0,0,0,.12.55.6.6,0,0,0,.43.19v2a5.52,5.52,0,0,1-1,.12,1.74,1.74,0,0,1-1.07-.32,1.13,1.13,0,0,1-.48-.85l0-.59a3.45,3.45,0,0,1-1.39,1.34,3.91,3.91,0,0,1-1.88.47,4.21,4.21,0,0,1-2.32-.65,4.5,4.5,0,0,1-1.6-1.77A5.35,5.35,0,0,1,381.6,579.4Zm7.4,1.26v-2.25a3,3,0,0,0-1-1.31,2.38,2.38,0,0,0-1.43-.52,2.2,2.2,0,0,0-1.77.85,3.09,3.09,0,0,0-.7,2,2.8,2.8,0,0,0,.74,2,2.44,2.44,0,0,0,1.87.81,2.35,2.35,0,0,0,1.37-.46A2.2,2.2,0,0,0,389,580.66Z"/><path class="cls-2" d="M394.23,573.37V571h2.41v2.39Zm0,10.75v-9.43h2.41v9.43Z"/><path class="cls-2" d="M403.65,584.29a5.19,5.19,0,0,1-2.63-.66,4.57,4.57,0,0,1-1.75-1.77,4.91,4.91,0,0,1-.6-2.4,5.16,5.16,0,0,1,.6-2.47A4.56,4.56,0,0,1,401,575.2a5.5,5.5,0,0,1,4.71-.28,4.45,4.45,0,0,1,1.55,1.06,4.69,4.69,0,0,1,1,1.55,4.92,4.92,0,0,1,.34,1.83,5.61,5.61,0,0,1-.05.81h-7.3a2.49,2.49,0,0,0,2.51,2.37,2.71,2.71,0,0,0,1.36-.36,1.85,1.85,0,0,0,.87-.93l2.06.58a4,4,0,0,1-1.69,1.79A5.24,5.24,0,0,1,403.65,584.29Zm-2.47-5.65h4.93a2.65,2.65,0,0,0-.8-1.72,2.37,2.37,0,0,0-1.68-.65,2.33,2.33,0,0,0-1.67.66A2.58,2.58,0,0,0,401.18,578.64Z"/><path class="cls-2" d="M419.26,584.12h-2.41v-5.29c0-1.46-.5-2.18-1.49-2.18a2.34,2.34,0,0,0-1.47.56,2.75,2.75,0,0,0-1,1.4v5.51H410.5v-9.43h2.18v1.75A3.64,3.64,0,0,1,414.2,575a4.83,4.83,0,0,1,2.22-.51,3.14,3.14,0,0,1,1.2.21,2.29,2.29,0,0,1,.82.56,2.62,2.62,0,0,1,.5.85,4.44,4.44,0,0,1,.25,1,7.31,7.31,0,0,1,.07,1.09Z"/><path class="cls-2" d="M426.21,584.29a5.2,5.2,0,0,1-2.07-.4,4.46,4.46,0,0,1-1.58-1.07,5.06,5.06,0,0,1-1-1.56,4.89,4.89,0,0,1-.36-1.86,5,5,0,0,1,.6-2.43,4.48,4.48,0,0,1,1.74-1.77,5.49,5.49,0,0,1,5.24,0,4.11,4.11,0,0,1,1.66,1.77l-2.35.72a2.14,2.14,0,0,0-.81-.8,2.36,2.36,0,0,0-2.88.51,3.24,3.24,0,0,0,0,4.06,2.23,2.23,0,0,0,1.75.82,2.36,2.36,0,0,0,1.19-.32,1.79,1.79,0,0,0,.77-.8l2.36.72a4,4,0,0,1-1.64,1.77A5.06,5.06,0,0,1,426.21,584.29Z"/><path class="cls-2" d="M436.7,584.29a5.21,5.21,0,0,1-2.63-.66,4.64,4.64,0,0,1-1.75-1.77,5,5,0,0,1-.59-2.4,5.27,5.27,0,0,1,.59-2.47,4.63,4.63,0,0,1,1.75-1.79,5.5,5.5,0,0,1,4.71-.28,4.58,4.58,0,0,1,1.56,1.06,4.83,4.83,0,0,1,1,1.55,4.92,4.92,0,0,1,.34,1.83,5.61,5.61,0,0,1-.05.81h-7.3a2.49,2.49,0,0,0,2.51,2.37,2.75,2.75,0,0,0,1.37-.36,1.87,1.87,0,0,0,.86-.93l2.07.58a4.1,4.1,0,0,1-1.69,1.79A5.3,5.3,0,0,1,436.7,584.29Zm-2.47-5.65h4.93a2.64,2.64,0,0,0-.79-1.72,2.38,2.38,0,0,0-1.69-.65,2.35,2.35,0,0,0-1.67.66A2.58,2.58,0,0,0,434.23,578.64Z"/><path class="cls-2" d="M505.5,542.12V529.34H508v10.6h6.52v2.18Z"/><path class="cls-2" d="M515.57,539.33a2.67,2.67,0,0,1,1.13-2.22,4.75,4.75,0,0,1,2.92-.85,6,6,0,0,1,2.27.38v-.5a1.8,1.8,0,0,0-.53-1.39,2.3,2.3,0,0,0-1.58-.48,4.13,4.13,0,0,0-1.44.26,7.4,7.4,0,0,0-1.5.8l-.79-1.58a7.2,7.2,0,0,1,4-1.23,4.56,4.56,0,0,1,3.14,1,3.67,3.67,0,0,1,1.12,2.88v3a.87.87,0,0,0,.13.55.63.63,0,0,0,.45.19v2a5.52,5.52,0,0,1-1,.12,1.73,1.73,0,0,1-1.08-.3,1.34,1.34,0,0,1-.47-.82l0-.48a4.13,4.13,0,0,1-1.52,1.22,4.37,4.37,0,0,1-1.88.43,3.38,3.38,0,0,1-2.35-.84A2.74,2.74,0,0,1,515.57,539.33Zm5.87.48a1.22,1.22,0,0,0,.45-.82v-1a5,5,0,0,0-1.89-.38,2.73,2.73,0,0,0-1.55.41,1.25,1.25,0,0,0-.59,1.07,1.31,1.31,0,0,0,.45,1,1.74,1.74,0,0,0,1.22.42,3,3,0,0,0,1.06-.2A2.51,2.51,0,0,0,521.44,539.81Z"/><path class="cls-2" d="M531.39,542.29a5.18,5.18,0,0,1-2.06-.4,4.37,4.37,0,0,1-1.58-1.07,4.71,4.71,0,0,1-1-1.56,4.89,4.89,0,0,1-.36-1.86A5.08,5.08,0,0,1,527,535a4.62,4.62,0,0,1,1.74-1.77,5.15,5.15,0,0,1,2.65-.68,5.09,5.09,0,0,1,2.6.65,4.11,4.11,0,0,1,1.66,1.77l-2.36.72a2.14,2.14,0,0,0-.81-.8,2.35,2.35,0,0,0-2.87.51,2.89,2.89,0,0,0-.71,2,3,3,0,0,0,.72,2,2.23,2.23,0,0,0,1.75.82,2.36,2.36,0,0,0,1.19-.32,1.84,1.84,0,0,0,.77-.8l2.35.72a4,4,0,0,1-1.63,1.77A5.09,5.09,0,0,1,531.39,542.29Z"/><path class="cls-2" d="M544,542.12l-2.75-4.07L540,539.31v2.81H537.6V529H540v7.95l3.79-4.23h2.56l-3.51,4,3.77,5.42Z"/><path class="cls-2" d="M552.25,537.42a5.14,5.14,0,0,1,1.33-3.44,4.53,4.53,0,0,1,1.57-1.06,5.18,5.18,0,0,1,2.06-.4,5.07,5.07,0,0,1,2.63.68,4.66,4.66,0,0,1,1.72,1.78,5.14,5.14,0,0,1,.58,2.44,5,5,0,0,1-1.3,3.41,4.61,4.61,0,0,1-1.56,1.07,5.37,5.37,0,0,1-2.07.39,5.16,5.16,0,0,1-1.69-.26,4.5,4.5,0,0,1-1.38-.71,4.7,4.7,0,0,1-1-1.07,4.38,4.38,0,0,1-.65-1.34A5.32,5.32,0,0,1,552.25,537.42Zm5,2.83a2.22,2.22,0,0,0,1.75-.81,3,3,0,0,0,.71-2,2.88,2.88,0,0,0-.71-2,2.21,2.21,0,0,0-1.75-.8,2.26,2.26,0,0,0-1.76.81,3.26,3.26,0,0,0,0,4.06A2.26,2.26,0,0,0,557.21,540.25Z"/><path class="cls-2" d="M564.69,542.12V535h-1.24v-1.83h1.24v-.57a4.25,4.25,0,0,1,.86-2.79,2.84,2.84,0,0,1,2.3-1,5.32,5.32,0,0,1,2.32.57l-.48,1.82a2.69,2.69,0,0,0-1.32-.35,1.12,1.12,0,0,0-.94.43,2.13,2.13,0,0,0-.32,1.26v.67h2.3V535h-2.3v7.1Z"/><path class="cls-2" d="M580,542.29a5.2,5.2,0,0,1-2.07-.4,4.46,4.46,0,0,1-1.58-1.07,5.06,5.06,0,0,1-1-1.56,4.89,4.89,0,0,1-.36-1.86,5,5,0,0,1,.6-2.43,4.48,4.48,0,0,1,1.74-1.77,5.49,5.49,0,0,1,5.24,0,4.11,4.11,0,0,1,1.66,1.77l-2.35.72a2.14,2.14,0,0,0-.81-.8,2.36,2.36,0,0,0-2.88.51,3.24,3.24,0,0,0,0,4.06,2.24,2.24,0,0,0,1.75.82,2.33,2.33,0,0,0,1.19-.32,1.79,1.79,0,0,0,.77-.8l2.36.72a4,4,0,0,1-1.64,1.77A5.06,5.06,0,0,1,580,542.29Z"/><path class="cls-2" d="M585.56,539.33a2.67,2.67,0,0,1,1.13-2.22,4.75,4.75,0,0,1,2.92-.85,6,6,0,0,1,2.27.38v-.5a1.8,1.8,0,0,0-.53-1.39,2.28,2.28,0,0,0-1.58-.48,4.13,4.13,0,0,0-1.44.26,7.4,7.4,0,0,0-1.5.8l-.78-1.58a7.17,7.17,0,0,1,4-1.23,4.54,4.54,0,0,1,3.14,1,3.67,3.67,0,0,1,1.12,2.88v3a.87.87,0,0,0,.13.55.63.63,0,0,0,.45.19v2a5.43,5.43,0,0,1-1,.12,1.68,1.68,0,0,1-1.07-.3,1.25,1.25,0,0,1-.47-.82l-.06-.48a4.13,4.13,0,0,1-1.52,1.22,4.37,4.37,0,0,1-1.88.43,3.4,3.4,0,0,1-2.35-.84A2.74,2.74,0,0,1,585.56,539.33Zm5.87.48a1.22,1.22,0,0,0,.45-.82v-1a4.94,4.94,0,0,0-1.89-.38,2.67,2.67,0,0,0-1.54.41,1.24,1.24,0,0,0-.6,1.07,1.29,1.29,0,0,0,.46,1,1.72,1.72,0,0,0,1.22.42,3,3,0,0,0,1.05-.2A2.41,2.41,0,0,0,591.43,539.81Z"/><path class="cls-2" d="M611.64,542.12h-2.41v-5.29a2.88,2.88,0,0,0-.37-1.64,1.26,1.26,0,0,0-1.09-.54,2,2,0,0,0-1.34.55,3.14,3.14,0,0,0-.91,1.42v5.5h-2.41v-5.29c0-1.46-.49-2.18-1.46-2.18a2,2,0,0,0-1.35.54,2.9,2.9,0,0,0-.9,1.42v5.51H597v-9.43h2.18v1.75a3.71,3.71,0,0,1,1.44-1.42,4.23,4.23,0,0,1,2.07-.5,2.74,2.74,0,0,1,1.79.56,2.51,2.51,0,0,1,.87,1.44A4.07,4.07,0,0,1,606.8,533a3.91,3.91,0,0,1,2-.52q2.84,0,2.83,3.71Z"/><path class="cls-2" d="M616.6,540.47V546h-2.41V532.69h2.11v1.61a3.9,3.9,0,0,1,1.37-1.31,3.83,3.83,0,0,1,1.88-.47,4.07,4.07,0,0,1,2.26.66A4.53,4.53,0,0,1,623.4,535a5.24,5.24,0,0,1,.57,2.43,5.82,5.82,0,0,1-.53,2.49,4.23,4.23,0,0,1-1.48,1.77,3.61,3.61,0,0,1-2.12.65,3.8,3.8,0,0,1-1.92-.48A3.47,3.47,0,0,1,616.6,540.47Zm4.9-3.09a2.8,2.8,0,0,0-.75-2,2.43,2.43,0,0,0-1.86-.81,2.46,2.46,0,0,0-1.38.45,2.25,2.25,0,0,0-.91,1.13v2.21a3.18,3.18,0,0,0,1,1.34,2.27,2.27,0,0,0,1.44.54,2.2,2.2,0,0,0,1.76-.86A3.11,3.11,0,0,0,621.5,537.38Z"/><path class="cls-2" d="M625.4,539.33a2.67,2.67,0,0,1,1.13-2.22,4.75,4.75,0,0,1,2.92-.85,6,6,0,0,1,2.27.38v-.5a1.8,1.8,0,0,0-.53-1.39,2.3,2.3,0,0,0-1.58-.48,4.13,4.13,0,0,0-1.44.26,7.4,7.4,0,0,0-1.5.8l-.79-1.58a7.2,7.2,0,0,1,4-1.23,4.56,4.56,0,0,1,3.14,1,3.67,3.67,0,0,1,1.12,2.88v3a.87.87,0,0,0,.13.55.63.63,0,0,0,.45.19v2a5.52,5.52,0,0,1-1,.12,1.73,1.73,0,0,1-1.08-.3,1.34,1.34,0,0,1-.47-.82l0-.48a4.13,4.13,0,0,1-1.52,1.22,4.37,4.37,0,0,1-1.88.43,3.38,3.38,0,0,1-2.35-.84A2.74,2.74,0,0,1,625.4,539.33Zm5.87.48a1.22,1.22,0,0,0,.45-.82v-1a5,5,0,0,0-1.89-.38,2.73,2.73,0,0,0-1.55.41,1.25,1.25,0,0,0-.59,1.07,1.31,1.31,0,0,0,.45,1,1.74,1.74,0,0,0,1.22.42,3,3,0,0,0,1.06-.2A2.51,2.51,0,0,0,631.27,539.81Z"/><path class="cls-2" d="M636.83,531.37V529h2.41v2.39Zm0,10.75v-9.43h2.41v9.43Z"/><path class="cls-2" d="M641.3,537.4a5.47,5.47,0,0,1,.56-2.47,4.37,4.37,0,0,1,1.56-1.76,4.16,4.16,0,0,1,2.28-.65,3.75,3.75,0,0,1,1.9.48,4.23,4.23,0,0,1,1.39,1.34v-1.65h2.11v9a4.19,4.19,0,0,1-.68,2.39,4.23,4.23,0,0,1-1.86,1.55,6.6,6.6,0,0,1-2.7.52,5.86,5.86,0,0,1-2.55-.5,5.32,5.32,0,0,1-1.86-1.46l1.31-1.28a3.84,3.84,0,0,0,1.37,1,4,4,0,0,0,1.73.38,3.83,3.83,0,0,0,1.09-.15,3,3,0,0,0,.89-.47,2.09,2.09,0,0,0,.62-.83,3,3,0,0,0,.23-1.19v-1.19a3.22,3.22,0,0,1-1.31,1.25,4,4,0,0,1-4-.21,4.19,4.19,0,0,1-1.51-1.74A5.3,5.3,0,0,1,641.3,537.4Zm7.39,1.26v-2.25a2.94,2.94,0,0,0-1-1.32,2.42,2.42,0,0,0-1.45-.51,2.18,2.18,0,0,0-1.77.86,3.19,3.19,0,0,0-.69,2,2.78,2.78,0,0,0,.75,2,2.48,2.48,0,0,0,3.26.34A2.54,2.54,0,0,0,648.69,538.66Z"/><path class="cls-2" d="M662.49,542.12h-2.41v-5.29c0-1.46-.5-2.18-1.5-2.18a2.33,2.33,0,0,0-1.46.56,2.83,2.83,0,0,0-1,1.4v5.51h-2.41v-9.43h2.18v1.75a3.67,3.67,0,0,1,1.53-1.41,4.78,4.78,0,0,1,2.22-.51,3.21,3.21,0,0,1,1.2.21,2.38,2.38,0,0,1,.82.56,2.81,2.81,0,0,1,.5.85,4.44,4.44,0,0,1,.25,1,7.31,7.31,0,0,1,.07,1.09Z"/><path class="cls-2" d="M518.47,563.29a5.21,5.21,0,0,1-2.63-.66,4.57,4.57,0,0,1-1.75-1.77,4.9,4.9,0,0,1-.59-2.4,5.15,5.15,0,0,1,.59-2.47,4.56,4.56,0,0,1,1.75-1.79,5.5,5.5,0,0,1,4.71-.28A4.45,4.45,0,0,1,522.1,555a4.69,4.69,0,0,1,1,1.55,4.92,4.92,0,0,1,.34,1.83,5.61,5.61,0,0,1,0,.81h-7.3a2.49,2.49,0,0,0,2.51,2.37,2.71,2.71,0,0,0,1.36-.36,1.85,1.85,0,0,0,.87-.93l2.07.58a4.12,4.12,0,0,1-1.7,1.79A5.24,5.24,0,0,1,518.47,563.29ZM516,557.64h4.93a2.64,2.64,0,0,0-.79-1.72,2.4,2.4,0,0,0-1.69-.65,2.35,2.35,0,0,0-1.67.66A2.58,2.58,0,0,0,516,557.64Z"/><path class="cls-2" d="M526.51,553.69l2,2.95.15.33.18-.33,2-2.95h2.54L530,558.38l3.33,4.74h-2.53l-2-2.94-.16-.31-.15.31-2,2.94h-2.54l3.33-4.68L524,553.69Z"/><path class="cls-2" d="M537.37,561.47V567H535V553.69h2.11v1.61a3.9,3.9,0,0,1,1.37-1.31,3.83,3.83,0,0,1,1.88-.47,4.07,4.07,0,0,1,2.26.66,4.53,4.53,0,0,1,1.59,1.77,5.24,5.24,0,0,1,.57,2.43,5.82,5.82,0,0,1-.53,2.49,4.3,4.3,0,0,1-1.48,1.77,3.61,3.61,0,0,1-2.12.65,3.8,3.8,0,0,1-1.92-.48A3.47,3.47,0,0,1,537.37,561.47Zm4.9-3.09a2.8,2.8,0,0,0-.75-2,2.43,2.43,0,0,0-1.86-.81,2.46,2.46,0,0,0-1.38.45,2.25,2.25,0,0,0-.91,1.13v2.21a3.18,3.18,0,0,0,1,1.34,2.27,2.27,0,0,0,1.44.54,2.2,2.2,0,0,0,1.76-.86A3.11,3.11,0,0,0,542.27,558.38Z"/><path class="cls-2" d="M546.22,558.42a5.19,5.19,0,0,1,.35-1.88,5,5,0,0,1,1-1.56,4.53,4.53,0,0,1,1.57-1.06,5.18,5.18,0,0,1,2.06-.4,5,5,0,0,1,2.62.68,4.61,4.61,0,0,1,1.73,1.78,5.26,5.26,0,0,1,.58,2.44,5,5,0,0,1-1.3,3.41,4.55,4.55,0,0,1-1.57,1.07,5.66,5.66,0,0,1-3.76.13,4.74,4.74,0,0,1-1.38-.71,5.18,5.18,0,0,1-1-1.07,4.6,4.6,0,0,1-.64-1.34A5,5,0,0,1,546.22,558.42Zm5,2.83a2.22,2.22,0,0,0,1.75-.81,3,3,0,0,0,.71-2,2.93,2.93,0,0,0-.71-2,2.21,2.21,0,0,0-1.75-.8,2.26,2.26,0,0,0-1.76.81,3,3,0,0,0-.71,2,2.92,2.92,0,0,0,.71,2A2.26,2.26,0,0,0,551.18,561.25Z"/><path class="cls-2" d="M561.65,563.29a6.62,6.62,0,0,1-2.32-.4,5.24,5.24,0,0,1-1.87-1.16l.86-1.57a5.23,5.23,0,0,0,3.24,1.34,2.15,2.15,0,0,0,1.13-.26.82.82,0,0,0,.42-.75,1.25,1.25,0,0,0,0-.21.56.56,0,0,0-.09-.17l-.12-.15a.87.87,0,0,0-.19-.13l-.21-.1-.29-.11-.3-.09-.36-.11-.4-.12c-.46-.14-.84-.28-1.14-.39a7.58,7.58,0,0,1-.86-.42,2.18,2.18,0,0,1-.65-.5,1.83,1.83,0,0,1-.37-.62,2.37,2.37,0,0,1-.13-.83,2.66,2.66,0,0,1,1-2.21,4.36,4.36,0,0,1,2.78-.83,5,5,0,0,1,3.54,1.34l-1,1.53a4.45,4.45,0,0,0-2.68-1.08,2,2,0,0,0-1,.23.77.77,0,0,0-.41.74.76.76,0,0,0,.36.69,6,6,0,0,0,1.35.5c.52.15.93.28,1.24.39a7.46,7.46,0,0,1,.94.41,2.51,2.51,0,0,1,.74.51,2.17,2.17,0,0,1,.41.66,2.24,2.24,0,0,1,.16.89,2.6,2.6,0,0,1-1,2.19A4.36,4.36,0,0,1,561.65,563.29Z"/><path class="cls-2" d="M567.43,559.59v-5.9h2.4v5.38c0,1.45.52,2.18,1.57,2.18a2.48,2.48,0,0,0,1.38-.44,3.21,3.21,0,0,0,1.05-1.28v-5.84h2.41v6.73a.87.87,0,0,0,.13.55.63.63,0,0,0,.45.19v2a5.88,5.88,0,0,1-1.05.1,1.79,1.79,0,0,1-1-.29,1.11,1.11,0,0,1-.47-.82l-.06-.76a4,4,0,0,1-1.61,1.45,4.75,4.75,0,0,1-2.18.49,2.67,2.67,0,0,1-2.22-.94A4.33,4.33,0,0,1,567.43,559.59Z"/><path class="cls-2" d="M584.7,555.77a4.58,4.58,0,0,0-2,.44,2.56,2.56,0,0,0-1.23,1.2v5.71h-2.41v-9.43h2.22v2a4.38,4.38,0,0,1,1.27-1.53,3,3,0,0,1,1.64-.61,4.14,4.14,0,0,1,.49,0Z"/><path class="cls-2" d="M590.75,563.29a5.19,5.19,0,0,1-2.63-.66,4.57,4.57,0,0,1-1.75-1.77,4.91,4.91,0,0,1-.6-2.4,5.16,5.16,0,0,1,.6-2.47,4.56,4.56,0,0,1,1.75-1.79,5.14,5.14,0,0,1,2.64-.68,5.2,5.2,0,0,1,2.07.4,4.45,4.45,0,0,1,1.55,1.06,5,5,0,0,1,1,1.55,5.12,5.12,0,0,1,.34,1.83,4.32,4.32,0,0,1-.06.81h-7.29a2.48,2.48,0,0,0,.81,1.72,2.45,2.45,0,0,0,1.69.65,2.72,2.72,0,0,0,1.37-.36,1.9,1.9,0,0,0,.87-.93l2.06.58a4,4,0,0,1-1.69,1.79A5.27,5.27,0,0,1,590.75,563.29Zm-2.47-5.65h4.93a2.65,2.65,0,0,0-.8-1.72,2.37,2.37,0,0,0-1.68-.65,2.33,2.33,0,0,0-1.67.66A2.58,2.58,0,0,0,588.28,557.64Z"/><path class="cls-2" d="M602.34,550h2.41v10.11a1.42,1.42,0,0,0,.2.87.79.79,0,0,0,.61.23,2.65,2.65,0,0,0,1.13-.25l.33,1.83a5.08,5.08,0,0,1-1.12.36,6.54,6.54,0,0,1-1.18.13,2.38,2.38,0,0,1-1.75-.61,2.25,2.25,0,0,1-.63-1.71Z"/><path class="cls-2" d="M612.89,563.29a5.21,5.21,0,0,1-2.63-.66,4.64,4.64,0,0,1-1.75-1.77,5,5,0,0,1-.59-2.4,5.27,5.27,0,0,1,.59-2.47,4.63,4.63,0,0,1,1.75-1.79,5.5,5.5,0,0,1,4.71-.28,4.45,4.45,0,0,1,1.55,1.06,4.69,4.69,0,0,1,1,1.55,4.92,4.92,0,0,1,.34,1.83,5.61,5.61,0,0,1-.05.81h-7.3a2.49,2.49,0,0,0,2.51,2.37,2.75,2.75,0,0,0,1.37-.36,1.87,1.87,0,0,0,.86-.93l2.07.58a4.1,4.1,0,0,1-1.69,1.79A5.3,5.3,0,0,1,612.89,563.29Zm-2.47-5.65h4.93a2.64,2.64,0,0,0-.79-1.72,2.38,2.38,0,0,0-1.69-.65,2.35,2.35,0,0,0-1.67.66A2.58,2.58,0,0,0,610.42,557.64Z"/><path class="cls-2" d="M622,563.12l-3.48-9.43H621l2.37,7.23,2.4-7.23h2.29l-3.45,9.43Z"/><path class="cls-2" d="M633.87,563.29a5.19,5.19,0,0,1-2.63-.66,4.57,4.57,0,0,1-1.75-1.77,4.91,4.91,0,0,1-.6-2.4,5.16,5.16,0,0,1,.6-2.47,4.56,4.56,0,0,1,1.75-1.79,5.48,5.48,0,0,1,4.7-.28A4.4,4.4,0,0,1,637.5,555a5,5,0,0,1,1,1.55,5.12,5.12,0,0,1,.34,1.83,4.32,4.32,0,0,1-.06.81h-7.29a2.48,2.48,0,0,0,.81,1.72,2.45,2.45,0,0,0,1.69.65,2.72,2.72,0,0,0,1.37-.36,1.94,1.94,0,0,0,.87-.93l2.06.58a4,4,0,0,1-1.69,1.79A5.27,5.27,0,0,1,633.87,563.29Zm-2.47-5.65h4.93a2.65,2.65,0,0,0-.8-1.72,2.37,2.37,0,0,0-1.68-.65,2.33,2.33,0,0,0-1.67.66A2.54,2.54,0,0,0,631.4,557.64Z"/><path class="cls-2" d="M640.7,550h2.4v10.11a1.35,1.35,0,0,0,.21.87.75.75,0,0,0,.6.23,2.7,2.7,0,0,0,1.14-.25l.32,1.83a5,5,0,0,1-1.11.36,6.64,6.64,0,0,1-1.19.13,2.39,2.39,0,0,1-1.75-.61,2.24,2.24,0,0,1-.62-1.71Z"/><path class="cls-2" d="M650.34,563.29a6.62,6.62,0,0,1-2.32-.4,5.24,5.24,0,0,1-1.87-1.16l.86-1.57a5.23,5.23,0,0,0,3.24,1.34,2.15,2.15,0,0,0,1.13-.26.82.82,0,0,0,.42-.75,1.25,1.25,0,0,0,0-.21.56.56,0,0,0-.09-.17l-.12-.15a1.06,1.06,0,0,0-.18-.13l-.22-.1-.29-.11-.3-.09-.36-.11-.4-.12c-.46-.14-.84-.28-1.14-.39a7.58,7.58,0,0,1-.86-.42,2.18,2.18,0,0,1-.65-.5,1.83,1.83,0,0,1-.37-.62,2.37,2.37,0,0,1-.13-.83,2.66,2.66,0,0,1,1-2.21,4.36,4.36,0,0,1,2.78-.83,5,5,0,0,1,3.54,1.34l-1,1.53a4.5,4.5,0,0,0-2.69-1.08,2,2,0,0,0-1,.23.77.77,0,0,0-.41.74.76.76,0,0,0,.36.69,6,6,0,0,0,1.35.5c.52.15.93.28,1.24.39a7.46,7.46,0,0,1,.94.41,2.51,2.51,0,0,1,.74.51,2.17,2.17,0,0,1,.41.66,2.24,2.24,0,0,1,.16.89,2.62,2.62,0,0,1-1,2.19A4.41,4.41,0,0,1,650.34,563.29Z"/><path class="cls-2" d="M522.45,583.63a6.59,6.59,0,0,1-2.67.65,3.21,3.21,0,0,1-.95-.14,2.27,2.27,0,0,1-.77-.4,1.74,1.74,0,0,1-.54-.72,2.9,2.9,0,0,1-.19-1.06v-5.42h-1.24v-1.85h1.24v-3.06h2.42v3.06h2v1.85h-2v4.61c0,.61.31.92.9.92a3.55,3.55,0,0,0,1.31-.34Z"/><path class="cls-2" d="M523.43,579.42a5.19,5.19,0,0,1,.35-1.88,5,5,0,0,1,1-1.56,4.53,4.53,0,0,1,1.57-1.06,5.18,5.18,0,0,1,2.06-.4,5,5,0,0,1,2.62.68,4.61,4.61,0,0,1,1.73,1.78,5.14,5.14,0,0,1,.58,2.44,5,5,0,0,1-1.3,3.41,4.61,4.61,0,0,1-1.56,1.07,5.37,5.37,0,0,1-2.07.39,5.26,5.26,0,0,1-1.7-.26,4.74,4.74,0,0,1-1.38-.71,5.18,5.18,0,0,1-1-1.07,4.6,4.6,0,0,1-.64-1.34A5,5,0,0,1,523.43,579.42Zm5,2.83a2.22,2.22,0,0,0,1.75-.81,3,3,0,0,0,.71-2,2.93,2.93,0,0,0-.71-2,2.21,2.21,0,0,0-1.75-.8,2.26,2.26,0,0,0-1.76.81,3.26,3.26,0,0,0,0,4.06A2.26,2.26,0,0,0,528.39,582.25Z"/><path class="cls-2" d="M539.57,579.4a5.55,5.55,0,0,1,.54-2.46,4.29,4.29,0,0,1,1.51-1.77,3.82,3.82,0,0,1,2.17-.65,3.56,3.56,0,0,1,1.85.5,3.66,3.66,0,0,1,1.33,1.32V571h2.42v10.44a1,1,0,0,0,.12.55.6.6,0,0,0,.43.19v2a5.52,5.52,0,0,1-1,.12,1.74,1.74,0,0,1-1.07-.32,1.13,1.13,0,0,1-.48-.85l0-.59a3.45,3.45,0,0,1-1.39,1.34,3.91,3.91,0,0,1-1.88.47,4.21,4.21,0,0,1-2.32-.65,4.42,4.42,0,0,1-1.6-1.77A5.35,5.35,0,0,1,539.57,579.4Zm7.4,1.26v-2.25a3,3,0,0,0-1-1.31,2.38,2.38,0,0,0-1.43-.52,2.2,2.2,0,0,0-1.77.85,3.09,3.09,0,0,0-.7,2,2.8,2.8,0,0,0,.74,2,2.42,2.42,0,0,0,1.87.81,2.37,2.37,0,0,0,1.37-.46A2.25,2.25,0,0,0,547,580.66Z"/><path class="cls-2" d="M557.82,576.77a4.58,4.58,0,0,0-2,.44,2.56,2.56,0,0,0-1.23,1.2v5.71H552.2v-9.43h2.22v2a4.3,4.3,0,0,1,1.28-1.53,3,3,0,0,1,1.64-.61,4.06,4.06,0,0,1,.48,0Z"/><path class="cls-2" d="M559.62,573.37V571H562v2.39Zm0,10.75v-9.43H562v9.43Z"/><path class="cls-2" d="M567.19,584.12l-3.48-9.43h2.51l2.37,7.23,2.4-7.23h2.29l-3.46,9.43Z"/><path class="cls-2" d="M579.05,584.29a5.21,5.21,0,0,1-2.63-.66,4.55,4.55,0,0,1-1.74-1.77,4.91,4.91,0,0,1-.6-2.4,5.16,5.16,0,0,1,.6-2.47,4.53,4.53,0,0,1,1.74-1.79,5.5,5.5,0,0,1,4.71-.28,4.58,4.58,0,0,1,1.56,1.06,5,5,0,0,1,1,1.55,5.12,5.12,0,0,1,.33,1.83,4.46,4.46,0,0,1-.05.81h-7.29a2.44,2.44,0,0,0,.8,1.72,2.47,2.47,0,0,0,1.7.65,2.75,2.75,0,0,0,1.37-.36,1.87,1.87,0,0,0,.86-.93l2.07.58a4.1,4.1,0,0,1-1.69,1.79A5.3,5.3,0,0,1,579.05,584.29Zm-2.47-5.65h4.93a2.64,2.64,0,0,0-.79-1.72,2.38,2.38,0,0,0-1.69-.65,2.35,2.35,0,0,0-1.67.66A2.58,2.58,0,0,0,576.58,578.64Z"/><path class="cls-2" d="M590.67,573.37V571h2.4v2.39Zm0,10.75v-9.43h2.4v9.43Z"/><path class="cls-2" d="M610.35,584.12H608v-5.29a2.88,2.88,0,0,0-.38-1.64,1.23,1.23,0,0,0-1.08-.54,2,2,0,0,0-1.35.55,3,3,0,0,0-.9,1.42v5.5h-2.42v-5.29c0-1.46-.49-2.18-1.46-2.18a2.08,2.08,0,0,0-1.35.54,3,3,0,0,0-.9,1.42v5.51H595.7v-9.43h2.18v1.75a3.71,3.71,0,0,1,1.44-1.42,4.28,4.28,0,0,1,2.07-.5,2.74,2.74,0,0,1,1.79.56,2.51,2.51,0,0,1,.87,1.44,4,4,0,0,1,1.47-1.48,3.85,3.85,0,0,1,2-.52q2.84,0,2.83,3.71Z"/><path class="cls-2" d="M615.31,582.47V588h-2.4V574.69H615v1.61a3.74,3.74,0,0,1,3.25-1.78,4.09,4.09,0,0,1,2.26.66,4.51,4.51,0,0,1,1.58,1.77,5.24,5.24,0,0,1,.57,2.43,5.82,5.82,0,0,1-.53,2.49,4.28,4.28,0,0,1-1.47,1.77,3.64,3.64,0,0,1-2.12.65,3.8,3.8,0,0,1-1.92-.48A3.56,3.56,0,0,1,615.31,582.47Zm4.9-3.09a2.8,2.8,0,0,0-.75-2,2.43,2.43,0,0,0-1.86-.81,2.46,2.46,0,0,0-1.38.45,2.3,2.3,0,0,0-.91,1.13v2.21a3.12,3.12,0,0,0,1,1.34,2.24,2.24,0,0,0,1.43.54,2.17,2.17,0,0,0,1.76-.86A3.06,3.06,0,0,0,620.21,579.38Z"/><path class="cls-2" d="M624.11,581.33a2.67,2.67,0,0,1,1.13-2.22,4.76,4.76,0,0,1,2.93-.85,6,6,0,0,1,2.26.38v-.5a1.77,1.77,0,0,0-.53-1.39,2.28,2.28,0,0,0-1.58-.48,4.13,4.13,0,0,0-1.44.26,7.67,7.67,0,0,0-1.5.8l-.78-1.58a7.17,7.17,0,0,1,4-1.23,4.54,4.54,0,0,1,3.14,1,3.67,3.67,0,0,1,1.12,2.88v3a.94.94,0,0,0,.13.55.63.63,0,0,0,.45.19v2a5.43,5.43,0,0,1-1,.12,1.68,1.68,0,0,1-1.07-.3,1.25,1.25,0,0,1-.47-.82l-.06-.48a4.13,4.13,0,0,1-1.52,1.22,4.34,4.34,0,0,1-1.88.43,3.36,3.36,0,0,1-2.34-.84A2.72,2.72,0,0,1,624.11,581.33Zm5.87.48a1.22,1.22,0,0,0,.45-.82v-1a4.94,4.94,0,0,0-1.89-.38,2.69,2.69,0,0,0-1.54.41,1.24,1.24,0,0,0-.6,1.07,1.29,1.29,0,0,0,.46,1,1.72,1.72,0,0,0,1.22.42,3,3,0,0,0,1-.2A2.41,2.41,0,0,0,630,581.81Z"/><path class="cls-2" d="M639.94,584.29a5.2,5.2,0,0,1-2.07-.4,4.46,4.46,0,0,1-1.58-1.07,5.06,5.06,0,0,1-1-1.56,4.89,4.89,0,0,1-.36-1.86,5,5,0,0,1,.6-2.43,4.48,4.48,0,0,1,1.74-1.77,5.49,5.49,0,0,1,5.24,0,4.11,4.11,0,0,1,1.66,1.77l-2.36.72a2.05,2.05,0,0,0-.8-.8,2.36,2.36,0,0,0-2.88.51,3.24,3.24,0,0,0,0,4.06,2.23,2.23,0,0,0,1.75.82,2.36,2.36,0,0,0,1.19-.32,1.79,1.79,0,0,0,.77-.8l2.36.72a4,4,0,0,1-1.64,1.77A5.08,5.08,0,0,1,639.94,584.29Z"/><path class="cls-2" d="M651.79,583.63a6.58,6.58,0,0,1-2.66.65,3.16,3.16,0,0,1-1-.14,2.18,2.18,0,0,1-.77-.4,1.74,1.74,0,0,1-.54-.72,2.71,2.71,0,0,1-.19-1.06v-5.42h-1.24v-1.85h1.24v-3.06h2.42v3.06h2v1.85h-2v4.61c0,.61.31.92.89.92a3.55,3.55,0,0,0,1.32-.34Z"/></g></g></svg>