<svg xmlns="http://www.w3.org/2000/svg" viewBox="0 0 1098.85 324.68"><defs><style>.cls-1{fill:#ff574a;}.cls-2{fill:#00324a;}.cls-3{fill:#fff;}</style></defs><title>4</title><g id="Capa_2" data-name="Capa 2"><g id="Layer_1" data-name="Layer 1"><circle class="cls-1" cx="110.84" cy="110.84" r="110.84" transform="translate(-1.38 220.28) rotate(-89.28)"/><circle class="cls-1" cx="370.93" cy="110.84" r="91.43" transform="translate(255.47 480.36) rotate(-89.28)"/><circle class="cls-1" cx="621.45" cy="110.84" r="86.46" transform="translate(502.85 730.85) rotate(-89.28)"/><circle class="cls-2" cx="837.46" cy="110.84" r="61.43" transform="translate(716.16 946.85) rotate(-89.28)"/><circle class="cls-2" cx="1024.43" cy="110.84" r="57.1" transform="translate(900.8 1133.81) rotate(-89.28)"/><path class="cls-3" d="M56.34,106a12.72,12.72,0,0,1,4.16,9.69,13.72,13.72,0,0,1-4.44,10.36,15.41,15.41,0,0,1-11,4.21q-7.43,0-11.5-5.35t-4.07-15q0-10.22,4.44-16.07A14.51,14.51,0,0,1,46.13,88a18,18,0,0,1,13.15,5.57l-6.12,7.12a9.93,9.93,0,0,0-7.23-3.13,5.94,5.94,0,0,0-4.5,1.73,7.28,7.28,0,0,0-1.79,4.84,9.16,9.16,0,0,1,6.29-2A14.65,14.65,0,0,1,56.34,106ZM41.56,119.43a4.56,4.56,0,0,0,6.92,0A5.3,5.3,0,0,0,50,115.7a4.66,4.66,0,0,0-1.45-3.47,5,5,0,0,0-7,0,4.66,4.66,0,0,0-1.45,3.47A5.3,5.3,0,0,0,41.56,119.43Z"/><path class="cls-3" d="M68.92,112.24a12.71,12.71,0,0,1-4.15-9.69A13.7,13.7,0,0,1,69.21,92.2a15.39,15.39,0,0,1,11-4.21q7.43,0,11.49,5.34t4.07,15q0,10.24-4.42,16.08a14.49,14.49,0,0,1-12.22,5.83A18,18,0,0,1,66,124.69l6.12-7.11a10,10,0,0,0,7.23,3.16A5.9,5.9,0,0,0,83.83,119a7.3,7.3,0,0,0,1.79-4.85,9.17,9.17,0,0,1-6.28,2A14.66,14.66,0,0,1,68.92,112.24Zm14.8-13.41a4.55,4.55,0,0,0-6.93,0,5.25,5.25,0,0,0-1.5,3.72A4.69,4.69,0,0,0,76.75,106a4.83,4.83,0,0,0,3.5,1.42A4.9,4.9,0,0,0,83.76,106a4.66,4.66,0,0,0,1.47-3.48A5.26,5.26,0,0,0,83.72,98.83Z"/><path class="cls-3" d="M101,129.7V119h9V129.7Z"/><path class="cls-3" d="M143.64,119.8v9.9h-27v-9.9H125V98.68a13,13,0,0,1-4.23,3.26,11.51,11.51,0,0,1-5.39,1.78V93.56a7.09,7.09,0,0,0,2.58-.55,14,14,0,0,0,2.59-1.33,27,27,0,0,0,2.2-1.59c.68-.55,1.22-1,1.61-1.38A4.71,4.71,0,0,0,125,88h11.3V119.8Z"/><path class="cls-3" d="M149.86,103.48a8.61,8.61,0,0,1,0-13.06,11.43,11.43,0,0,1,14.73,0,8.59,8.59,0,0,1,0,13.06,11.43,11.43,0,0,1-14.73,0Zm1.89,22.44,16.48-18.59,14.63-19.66,4.83,4.38-15.79,18-15.31,20.2Zm7.43-26.18a5.1,5.1,0,0,0,0-5.58,2.24,2.24,0,0,0-3.93,0,5.16,5.16,0,0,0,0,5.58,2.24,2.24,0,0,0,3.93,0Zm15.68,27.86a8.56,8.56,0,0,1,0-13,11.41,11.41,0,0,1,14.72,0,8.58,8.58,0,0,1,0,13,11.48,11.48,0,0,1-14.72,0Zm9.33-3.73a5.1,5.1,0,0,0,0-5.58,2.37,2.37,0,0,0-2-1.17,2.41,2.41,0,0,0-2,1.17,5.05,5.05,0,0,0,0,5.58,2.4,2.4,0,0,0,2,1.16A2.36,2.36,0,0,0,184.19,123.87Z"/><path class="cls-3" d="M310.6,130.08a15.86,15.86,0,0,1-6.86-1.44,11,11,0,0,1-4.7-4l5.08-5.86a10.67,10.67,0,0,0,3.14,2.36,7.68,7.68,0,0,0,3.39.85,4,4,0,0,0,2.83-1,3.43,3.43,0,0,0,1-2.62,3.62,3.62,0,0,0-.93-2.59,3.18,3.18,0,0,0-2.43-1,3.92,3.92,0,0,0-1.87.46,3.21,3.21,0,0,0-1.32,1.26H300l4.1-21.58H321.5v8.44H310.8l-.53,3.77a7.35,7.35,0,0,1,2.24-.24,11.37,11.37,0,0,1,8.3,3.15,11.81,11.81,0,0,1-.52,16.71A14.06,14.06,0,0,1,310.6,130.08Z"/><path class="cls-3" d="M340.76,103.38H327.53V94.94h27.81L338.4,129.6H327.91Z"/><path class="cls-3" d="M355.13,129.65v-9h7.53v9Z"/><path class="cls-3" d="M366.81,112.56a18.92,18.92,0,0,1,.69-5,19.31,19.31,0,0,1,2.05-4.77,18.72,18.72,0,0,1,3.22-4A14.36,14.36,0,0,1,382.52,95a14.33,14.33,0,0,1,5.59,1.1A13.65,13.65,0,0,1,392.54,99a18.69,18.69,0,0,1,3.13,4.11,19.16,19.16,0,0,1,1.95,4.72,18.71,18.71,0,0,1,.63,4.73,19.08,19.08,0,0,1-.69,5,18.85,18.85,0,0,1-5.29,8.76,14,14,0,0,1-4.39,2.74,14.16,14.16,0,0,1-5.36,1,14.44,14.44,0,0,1-5.6-1.08,13.19,13.19,0,0,1-4.41-2.86,19.29,19.29,0,0,1-5.07-8.8A19.3,19.3,0,0,1,366.81,112.56Zm15.71,9.13a4.76,4.76,0,0,0,2.82-.87,5.84,5.84,0,0,0,1.9-2.27,13.43,13.43,0,0,0,1-2.92,14.51,14.51,0,0,0,0-6.29,11.67,11.67,0,0,0-1.06-2.92,5.88,5.88,0,0,0-1.9-2.17,5,5,0,0,0-5.56,0,5.77,5.77,0,0,0-1.89,2.26,13.09,13.09,0,0,0-1,2.92,14,14,0,0,0-.34,3.08,14.94,14.94,0,0,0,.35,3.23,11.7,11.7,0,0,0,1,2.91,5.71,5.71,0,0,0,1.9,2.17A4.88,4.88,0,0,0,382.52,121.69Z"/><path class="cls-3" d="M404.08,107.68a7.2,7.2,0,0,1,0-10.94,9.57,9.57,0,0,1,12.33,0,7.18,7.18,0,0,1,0,10.94,9.54,9.54,0,0,1-12.33,0Zm1.58,18.8,13.8-15.57,12.25-16.47,4.06,3.68L422.54,113.2l-12.83,16.93Zm6.22-21.93a4.3,4.3,0,0,0,0-4.67,1.87,1.87,0,0,0-3.29,0,4.3,4.3,0,0,0,0,4.67,1.87,1.87,0,0,0,3.29,0ZM425,127.89A7.17,7.17,0,0,1,425,117a9.54,9.54,0,0,1,12.33,0,7.19,7.19,0,0,1,0,10.93,9.6,9.6,0,0,1-12.33,0Zm7.81-3.13a4.24,4.24,0,0,0,0-4.67,2,2,0,0,0-1.64-1,2,2,0,0,0-1.66,1,4.24,4.24,0,0,0,0,4.67,2,2,0,0,0,1.66,1A2,2,0,0,0,432.83,124.76Z"/><path class="cls-3" d="M571.09,128.83a14.49,14.49,0,0,1-6.24-1.31,10,10,0,0,1-4.26-3.65l4.61-5.32a9.62,9.62,0,0,0,2.85,2.14,7,7,0,0,0,3.08.78,3.58,3.58,0,0,0,2.56-.89,3.1,3.1,0,0,0,.94-2.38,3.32,3.32,0,0,0-.84-2.35,2.91,2.91,0,0,0-2.21-.89,3.6,3.6,0,0,0-1.7.42,3,3,0,0,0-1.2,1.13h-7.2l3.72-19.58H581v7.66h-9.72l-.48,3.42a6.9,6.9,0,0,1,2-.22,10.35,10.35,0,0,1,7.53,2.86,10.71,10.71,0,0,1-.47,15.17A12.73,12.73,0,0,1,571.09,128.83Z"/><path class="cls-3" d="M596.43,128.65q-6.64,0-10.78-3.54L590,119a9.43,9.43,0,0,0,6,2,6.15,6.15,0,0,0,3.3-.69,2.43,2.43,0,0,0,1.05-2.19,2.56,2.56,0,0,0-1.34-2.41,9.35,9.35,0,0,0-4.33-.75h-1.38v-5.84h1.55a6.24,6.24,0,0,0,3.41-.83,2.55,2.55,0,0,0,1.29-2.22,2,2,0,0,0-.76-1.68,3.38,3.38,0,0,0-2.12-.59,6.21,6.21,0,0,0-5.28,3.11L586,100.61a11,11,0,0,1,4.77-2.88,21,21,0,0,1,6.81-1.1,13.4,13.4,0,0,1,7.94,2.14,6.64,6.64,0,0,1,3,5.65,7.33,7.33,0,0,1-1.64,4.69,6.75,6.75,0,0,1-4.1,2.54,7,7,0,0,1,4.47,2.69,8.27,8.27,0,0,1,1.74,5.27,7.71,7.71,0,0,1-3.38,6.62C603.4,127.85,600.32,128.65,596.43,128.65Z"/><path class="cls-3" d="M613,128.44v-8.16h6.84v8.16Z"/><path class="cls-3" d="M626.83,115.16a9.65,9.65,0,0,1-3.16-7.37,10.42,10.42,0,0,1,3.38-7.87,11.71,11.71,0,0,1,8.39-3.21,10.37,10.37,0,0,1,8.75,4.07q3.09,4.06,3.09,11.43,0,7.79-3.36,12.22a11,11,0,0,1-9.3,4.44,13.7,13.7,0,0,1-10-4.24l4.65-5.41a7.59,7.59,0,0,0,5.5,2.4,4.47,4.47,0,0,0,3.42-1.33,5.54,5.54,0,0,0,1.36-3.69,7,7,0,0,1-4.78,1.52A11.16,11.16,0,0,1,626.83,115.16ZM638.08,105a3.47,3.47,0,0,0-5.27,0,4,4,0,0,0-1.13,2.83,3.53,3.53,0,0,0,1.1,2.64,3.64,3.64,0,0,0,2.66,1.09,3.7,3.7,0,0,0,2.68-1.09,3.54,3.54,0,0,0,1.11-2.64A4,4,0,0,0,638.08,105Z"/><path class="cls-3" d="M652.77,108.5a6.54,6.54,0,0,1,0-9.94,8.69,8.69,0,0,1,11.19,0,6.52,6.52,0,0,1,0,9.94,8.69,8.69,0,0,1-11.19,0Zm1.43,17.06,12.53-14.13,11.13-15,3.68,3.33-12,13.7-11.65,15.36Zm5.65-19.91a3.88,3.88,0,0,0,0-4.24,1.69,1.69,0,0,0-3,0,3.88,3.88,0,0,0,0,4.24,1.69,1.69,0,0,0,3,0Zm11.93,21.19a6.51,6.51,0,0,1,0-9.93,8.69,8.69,0,0,1,11.19,0,6.53,6.53,0,0,1,0,9.93,8.73,8.73,0,0,1-11.19,0Zm7.09-2.84a3.88,3.88,0,0,0,0-4.24,1.8,1.8,0,0,0-1.49-.89,1.82,1.82,0,0,0-1.5.89,3.83,3.83,0,0,0,0,4.24,1.82,1.82,0,0,0,1.5.89A1.8,1.8,0,0,0,678.87,124Z"/><path class="cls-3" d="M797.65,126.43a12.3,12.3,0,0,1-8.3-2.73l3.32-4.7a7.27,7.27,0,0,0,4.63,1.5,4.66,4.66,0,0,0,2.54-.54,1.85,1.85,0,0,0,.81-1.68,2,2,0,0,0-1-1.86,7.26,7.26,0,0,0-3.34-.58h-1.06v-4.5h1.2a4.73,4.73,0,0,0,2.62-.64,2,2,0,0,0,1-1.71,1.55,1.55,0,0,0-.58-1.29,2.61,2.61,0,0,0-1.63-.46,4.78,4.78,0,0,0-4.07,2.4l-4.1-4.81a8.36,8.36,0,0,1,3.67-2.22,16,16,0,0,1,5.25-.85,10.36,10.36,0,0,1,6.12,1.65,5.1,5.1,0,0,1,2.31,4.35,5.66,5.66,0,0,1-1.26,3.62,5.24,5.24,0,0,1-3.16,2A5.41,5.41,0,0,1,806,115.4a6.42,6.42,0,0,1,1.34,4.06,5.93,5.93,0,0,1-2.61,5.1A12,12,0,0,1,797.65,126.43Z"/><path class="cls-3" d="M819.16,126.6a10.3,10.3,0,0,1-3.46-.58,9.44,9.44,0,0,1-2.93-1.6,7.58,7.58,0,0,1-2.77-5.91,5.35,5.35,0,0,1,.86-3,8.6,8.6,0,0,1,2.08-2.21,4.5,4.5,0,0,1-1.61-1.75,4.81,4.81,0,0,1-.64-2.35,6.19,6.19,0,0,1,.79-3.1,6.88,6.88,0,0,1,2-2.27,10.32,10.32,0,0,1,2.72-1.35,9.36,9.36,0,0,1,2.92-.49,9.83,9.83,0,0,1,2.32.29,9.53,9.53,0,0,1,4.26,2.31,6.35,6.35,0,0,1,1.92,4.54,4.84,4.84,0,0,1-.67,2.39,4.5,4.5,0,0,1-1.63,1.78,8.41,8.41,0,0,1,2.09,2.27,5.75,5.75,0,0,1,.86,3.11,7.14,7.14,0,0,1-1.24,4.14,7.9,7.9,0,0,1-3.31,2.78A10.89,10.89,0,0,1,819.16,126.6Zm1.84-10a3,3,0,0,0-3.7,0,2.33,2.33,0,0,0,0,3.38,2.61,2.61,0,0,0,1.83.68A2.54,2.54,0,0,0,821,120a2.37,2.37,0,0,0,0-3.39Zm-3.16-5.92a2.06,2.06,0,0,0,2.64,0,1.64,1.64,0,0,0,.58-1.34,1.49,1.49,0,0,0-.54-1.16,2.2,2.2,0,0,0-2.72,0,1.51,1.51,0,0,0-.53,1.16A1.63,1.63,0,0,0,817.84,110.7Z"/><path class="cls-3" d="M831.29,126.26V120h5.27v6.28Z"/><path class="cls-3" d="M847.18,126.43a12.3,12.3,0,0,1-8.3-2.73l3.32-4.7a7.27,7.27,0,0,0,4.63,1.5,4.66,4.66,0,0,0,2.54-.54,1.85,1.85,0,0,0,.81-1.68,2,2,0,0,0-1-1.86,7.26,7.26,0,0,0-3.34-.58h-1.06v-4.5H846a4.73,4.73,0,0,0,2.62-.64,2,2,0,0,0,1-1.71,1.55,1.55,0,0,0-.58-1.29,2.61,2.61,0,0,0-1.63-.46,4.78,4.78,0,0,0-4.07,2.4l-4.1-4.81a8.36,8.36,0,0,1,3.67-2.22,16,16,0,0,1,5.25-.85,10.3,10.3,0,0,1,6.11,1.65,5.09,5.09,0,0,1,2.32,4.35,5.66,5.66,0,0,1-1.26,3.62,5.24,5.24,0,0,1-3.16,2,5.44,5.44,0,0,1,3.45,2.07,6.42,6.42,0,0,1,1.34,4.06,5.93,5.93,0,0,1-2.61,5.1A12,12,0,0,1,847.18,126.43Z"/><path class="cls-3" d="M861.16,110.9a5,5,0,0,1,0-7.65,6.68,6.68,0,0,1,8.63,0,5,5,0,0,1,0,7.65,6.68,6.68,0,0,1-8.63,0Zm1.11,13.15,9.65-10.89,8.57-11.52,2.83,2.57-9.25,10.55-9,11.84Zm4.35-15.34a3,3,0,0,0,0-3.27,1.42,1.42,0,0,0-1.15-.68,1.39,1.39,0,0,0-1.15.68,3,3,0,0,0,0,3.27,1.37,1.37,0,0,0,1.15.68A1.39,1.39,0,0,0,866.62,108.71ZM875.8,125a5,5,0,0,1,0-7.64,6.68,6.68,0,0,1,8.63,0,5,5,0,0,1,0,7.64,6.71,6.71,0,0,1-8.63,0Zm5.47-2.18a3,3,0,0,0,0-3.27,1.37,1.37,0,0,0-1.15-.68,1.41,1.41,0,0,0-1.16.68,3,3,0,0,0,0,3.27,1.43,1.43,0,0,0,1.16.68A1.39,1.39,0,0,0,881.27,122.85Z"/><path class="cls-3" d="M988.74,124.22a11.19,11.19,0,0,1-7.56-2.49l3-4.28a6.64,6.64,0,0,0,4.22,1.37,4.26,4.26,0,0,0,2.32-.49,1.69,1.69,0,0,0,.73-1.53,1.8,1.8,0,0,0-.94-1.7,6.58,6.58,0,0,0-3-.52h-1v-4.1h1.1a4.34,4.34,0,0,0,2.39-.59,1.76,1.76,0,0,0,.9-1.55,1.42,1.42,0,0,0-.53-1.18,2.36,2.36,0,0,0-1.49-.42,4.34,4.34,0,0,0-3.7,2.19l-3.74-4.39a7.69,7.69,0,0,1,3.35-2,14.72,14.72,0,0,1,4.77-.77,9.45,9.45,0,0,1,5.58,1.5,4.66,4.66,0,0,1,2.11,4,5.12,5.12,0,0,1-1.15,3.3,4.75,4.75,0,0,1-2.88,1.78,4.92,4.92,0,0,1,3.14,1.89,5.78,5.78,0,0,1,1.22,3.7,5.41,5.41,0,0,1-2.37,4.64A10.92,10.92,0,0,1,988.74,124.22Z"/><path class="cls-3" d="M1007.27,124.35a10.19,10.19,0,0,1-4.38-.92,7.11,7.11,0,0,1-3-2.56l3.24-3.74a6.53,6.53,0,0,0,2,1.5,4.88,4.88,0,0,0,2.17.55,2.54,2.54,0,0,0,1.8-.62,2.19,2.19,0,0,0,.66-1.67,2.33,2.33,0,0,0-.59-1.65,2,2,0,0,0-1.55-.63,2.48,2.48,0,0,0-1.2.3,2,2,0,0,0-.84.79h-5.06l2.62-13.74h11.07v5.38h-6.82l-.34,2.4a4.42,4.42,0,0,1,1.43-.16,7.24,7.24,0,0,1,5.29,2,7.51,7.51,0,0,1-.33,10.64A8.93,8.93,0,0,1,1007.27,124.35Z"/><path class="cls-3" d="M1018.47,124.07v-5.72h4.8v5.72Z"/><path class="cls-3" d="M1040.39,111.43a6.77,6.77,0,0,1,2.22,5.17,7.32,7.32,0,0,1-2.37,5.53,8.23,8.23,0,0,1-5.89,2.25,7.27,7.27,0,0,1-6.14-2.86c-1.45-1.9-2.17-4.58-2.17-8q0-5.44,2.37-8.57a7.74,7.74,0,0,1,6.53-3.12,9.59,9.59,0,0,1,7,3l-3.26,3.8a5.31,5.31,0,0,0-3.86-1.67,3.16,3.16,0,0,0-2.4.93,3.89,3.89,0,0,0-1,2.58,4.89,4.89,0,0,1,3.36-1.06A7.83,7.83,0,0,1,1040.39,111.43Zm-7.89,7.16a2.43,2.43,0,0,0,3.69,0,2.83,2.83,0,0,0,.8-2,2.47,2.47,0,0,0-.78-1.85,2.67,2.67,0,0,0-3.73,0,2.47,2.47,0,0,0-.78,1.85A2.83,2.83,0,0,0,1032.5,118.59Z"/><path class="cls-3" d="M1046.4,110.08a4.58,4.58,0,0,1,0-7,6.07,6.07,0,0,1,7.85,0,4.58,4.58,0,0,1,0,7,6.1,6.1,0,0,1-7.85,0Zm1,12,8.79-9.92,7.8-10.49,2.59,2.34-8.43,9.61L1050,124.38Zm4-14a2.74,2.74,0,0,0,0-3,1.27,1.27,0,0,0-1-.62,1.3,1.3,0,0,0-1,.62,2.74,2.74,0,0,0,0,3,1.27,1.27,0,0,0,1,.62A1.25,1.25,0,0,0,1051.37,108.08Zm8.37,14.87a4.58,4.58,0,0,1,0-7,6.12,6.12,0,0,1,7.86,0,4.6,4.6,0,0,1,0,7,6.12,6.12,0,0,1-7.86,0Zm5-2a2.74,2.74,0,0,0,0-3,1.2,1.2,0,0,0-2.1,0,2.69,2.69,0,0,0,0,3,1.2,1.2,0,0,0,2.1,0Z"/><path class="cls-3" d="M269.49,112.57H234.55a1.73,1.73,0,0,1,0-3.46h34.94a1.73,1.73,0,0,1,0,3.46Z"/><path class="cls-3" d="M514,112.57H479a1.73,1.73,0,1,1,0-3.46H514a1.73,1.73,0,1,1,0,3.46Z"/><path class="cls-3" d="M758.78,112.57H723.85a1.73,1.73,0,0,1,0-3.46h34.93a1.73,1.73,0,1,1,0,3.46Z"/><path class="cls-3" d="M950.58,112.57H915.65a1.73,1.73,0,0,1,0-3.46h34.93a1.73,1.73,0,0,1,0,3.46Z"/><path class="cls-2" d="M53.52,269.73H56l4.69,12.78H58.18L57,279.33H52.53l-1.17,3.18H48.8Zm3,7.85-1.76-5.28-1.84,5.28Z"/><path class="cls-2" d="M61.5,277.79a5.55,5.55,0,0,1,.54-2.46,4.27,4.27,0,0,1,1.5-1.77,3.88,3.88,0,0,1,2.18-.65,3.59,3.59,0,0,1,1.85.5,3.74,3.74,0,0,1,1.33,1.32v-5.36h2.42v10.44a1,1,0,0,0,.12.55.58.58,0,0,0,.43.19v2a5.61,5.61,0,0,1-1,.12,1.73,1.73,0,0,1-1.06-.32,1.13,1.13,0,0,1-.48-.85l0-.59a3.41,3.41,0,0,1-1.4,1.34,3.86,3.86,0,0,1-1.88.47,4.2,4.2,0,0,1-2.31-.65,4.42,4.42,0,0,1-1.6-1.77A5.35,5.35,0,0,1,61.5,277.79Zm7.4,1.26V276.8a3,3,0,0,0-1-1.31,2.33,2.33,0,0,0-1.42-.52,2.2,2.2,0,0,0-1.77.85,3.09,3.09,0,0,0-.7,2,2.77,2.77,0,0,0,.74,2,2.42,2.42,0,0,0,1.87.81,2.39,2.39,0,0,0,1.37-.46A2.21,2.21,0,0,0,68.9,279.05Z"/><path class="cls-2" d="M77.6,282.68a6.7,6.7,0,0,1-2.32-.4,5.33,5.33,0,0,1-1.87-1.16l.86-1.56a5.31,5.31,0,0,0,3.25,1.33,2.08,2.08,0,0,0,1.13-.26.84.84,0,0,0,.41-.75.68.68,0,0,0,0-.21.32.32,0,0,0-.09-.17,1,1,0,0,0-.12-.15.59.59,0,0,0-.18-.13l-.22-.1-.28-.11-.3-.09-.37-.11-.39-.12q-.7-.21-1.14-.39a8.65,8.65,0,0,1-.87-.41,2.37,2.37,0,0,1-.65-.51,2,2,0,0,1-.36-.62,2.37,2.37,0,0,1-.14-.83,2.67,2.67,0,0,1,1-2.21,4.33,4.33,0,0,1,2.77-.83,5,5,0,0,1,3.55,1.34l-1,1.53a4.47,4.47,0,0,0-2.68-1.08,2.09,2.09,0,0,0-1,.23.79.79,0,0,0-.41.74.75.75,0,0,0,.37.69,5.88,5.88,0,0,0,1.34.5c.53.15.94.28,1.24.39a7.57,7.57,0,0,1,1,.41,2.65,2.65,0,0,1,.74.51,2.39,2.39,0,0,1,.41.66,2.44,2.44,0,0,1,.15.89,2.62,2.62,0,0,1-1,2.19A4.37,4.37,0,0,1,77.6,282.68Z"/><path class="cls-2" d="M87.65,277.79a5.55,5.55,0,0,1,.54-2.46,4.29,4.29,0,0,1,1.51-1.77,3.82,3.82,0,0,1,2.17-.65,3.56,3.56,0,0,1,1.85.5,3.66,3.66,0,0,1,1.33,1.32v-5.36h2.42v10.44a1,1,0,0,0,.12.55.6.6,0,0,0,.43.19v2a5.52,5.52,0,0,1-1,.12,1.74,1.74,0,0,1-1.07-.32,1.13,1.13,0,0,1-.48-.85l0-.59A3.45,3.45,0,0,1,94,282.21a3.91,3.91,0,0,1-1.88.47,4.21,4.21,0,0,1-2.32-.65,4.5,4.5,0,0,1-1.6-1.77A5.35,5.35,0,0,1,87.65,277.79Zm7.4,1.26V276.8a3,3,0,0,0-1-1.31,2.38,2.38,0,0,0-1.43-.52,2.2,2.2,0,0,0-1.77.85,3.09,3.09,0,0,0-.7,2,2.81,2.81,0,0,0,.74,2,2.44,2.44,0,0,0,1.87.81,2.35,2.35,0,0,0,1.37-.46A2.16,2.16,0,0,0,95.05,279.05Z"/><path class="cls-2" d="M104.66,282.68A5.21,5.21,0,0,1,102,282a4.55,4.55,0,0,1-1.74-1.77,4.91,4.91,0,0,1-.6-2.4,5.09,5.09,0,0,1,.6-2.46,4.49,4.49,0,0,1,1.74-1.8,5.5,5.5,0,0,1,4.71-.28,4.58,4.58,0,0,1,1.56,1.06,4.83,4.83,0,0,1,1,1.55,4.92,4.92,0,0,1,.34,1.83,4.46,4.46,0,0,1,0,.81h-7.29a2.44,2.44,0,0,0,.8,1.72,2.47,2.47,0,0,0,1.7.65,2.75,2.75,0,0,0,1.37-.36,1.87,1.87,0,0,0,.86-.93l2.07.58a4.1,4.1,0,0,1-1.69,1.79A5.3,5.3,0,0,1,104.66,282.68ZM102.19,277h4.93a2.64,2.64,0,0,0-.79-1.72,2.38,2.38,0,0,0-1.69-.65,2.35,2.35,0,0,0-1.67.66A2.58,2.58,0,0,0,102.19,277Z"/><path class="cls-2" d="M111.49,269.37h2.41v10.11a1.42,1.42,0,0,0,.2.87.79.79,0,0,0,.61.23,2.65,2.65,0,0,0,1.13-.25l.33,1.84a5.7,5.7,0,0,1-1.12.35,6.54,6.54,0,0,1-1.18.13,2.38,2.38,0,0,1-1.75-.61,2.25,2.25,0,0,1-.63-1.71Z"/><path class="cls-2" d="M117.67,271.76v-2.39h2.4v2.39Zm0,10.75v-9.43h2.4v9.43Z"/><path class="cls-2" d="M125.24,282.51l-3.48-9.43h2.51l2.37,7.23,2.4-7.23h2.28l-3.45,9.43Z"/><path class="cls-2" d="M137.1,282.68a5.21,5.21,0,0,1-2.63-.66,4.64,4.64,0,0,1-1.75-1.77,5,5,0,0,1-.59-2.4,5.2,5.2,0,0,1,.59-2.46,4.58,4.58,0,0,1,1.75-1.8,5.5,5.5,0,0,1,4.71-.28,4.45,4.45,0,0,1,1.55,1.06,4.69,4.69,0,0,1,1,1.55,4.92,4.92,0,0,1,.34,1.83,5.61,5.61,0,0,1-.05.81h-7.3a2.49,2.49,0,0,0,2.51,2.37,2.71,2.71,0,0,0,1.36-.36,1.85,1.85,0,0,0,.87-.93l2.07.58a4.12,4.12,0,0,1-1.7,1.79A5.24,5.24,0,0,1,137.1,282.68ZM134.63,277h4.93a2.64,2.64,0,0,0-.79-1.72,2.38,2.38,0,0,0-1.69-.65,2.35,2.35,0,0,0-1.67.66A2.58,2.58,0,0,0,134.63,277Z"/><path class="cls-2" d="M149.57,275.16a4.66,4.66,0,0,0-2,.44,2.5,2.5,0,0,0-1.22,1.2v5.71H144v-9.43h2.21v2a4.4,4.4,0,0,1,1.28-1.53,3,3,0,0,1,1.64-.61,4.28,4.28,0,0,1,.49,0Z"/><path class="cls-2" d="M155.61,282.68A5.15,5.15,0,0,1,153,282a4.57,4.57,0,0,1-1.75-1.77,4.91,4.91,0,0,1-.6-2.4,5.09,5.09,0,0,1,.6-2.46,4.52,4.52,0,0,1,1.75-1.8,5.48,5.48,0,0,1,4.7-.28,4.4,4.4,0,0,1,1.56,1.06,5,5,0,0,1,1,1.55,5.12,5.12,0,0,1,.33,1.83,4.46,4.46,0,0,1,0,.81H153.2a2.48,2.48,0,0,0,.81,1.72,2.45,2.45,0,0,0,1.69.65,2.75,2.75,0,0,0,1.37-.36,1.87,1.87,0,0,0,.86-.93l2.07.58a4.1,4.1,0,0,1-1.69,1.79A5.3,5.3,0,0,1,155.61,282.68ZM153.14,277h4.94a2.7,2.7,0,0,0-.8-1.72,2.37,2.37,0,0,0-1.68-.65,2.33,2.33,0,0,0-1.67.66A2.55,2.55,0,0,0,153.14,277Z"/><path class="cls-2" d="M161.88,277.79a5.55,5.55,0,0,1,.54-2.46,4.29,4.29,0,0,1,1.51-1.77,3.82,3.82,0,0,1,2.17-.65,3.56,3.56,0,0,1,1.85.5,3.66,3.66,0,0,1,1.33,1.32v-5.36h2.42v10.44a1,1,0,0,0,.12.55.6.6,0,0,0,.43.19v2a5.52,5.52,0,0,1-1,.12,1.74,1.74,0,0,1-1.07-.32,1.13,1.13,0,0,1-.48-.85l0-.59a3.45,3.45,0,0,1-1.39,1.34,3.91,3.91,0,0,1-1.88.47,4.21,4.21,0,0,1-2.32-.65,4.42,4.42,0,0,1-1.6-1.77A5.35,5.35,0,0,1,161.88,277.79Zm7.4,1.26V276.8a3,3,0,0,0-1-1.31,2.38,2.38,0,0,0-1.43-.52,2.2,2.2,0,0,0-1.77.85,3.09,3.09,0,0,0-.7,2,2.77,2.77,0,0,0,.74,2,2.42,2.42,0,0,0,1.87.81,2.37,2.37,0,0,0,1.37-.46A2.21,2.21,0,0,0,169.28,279.05Z"/><path class="cls-2" d="M43.49,300.72a2.66,2.66,0,0,1,1.12-2.22,4.78,4.78,0,0,1,2.93-.85,6,6,0,0,1,2.27.38v-.5a1.82,1.82,0,0,0-.53-1.39,2.3,2.3,0,0,0-1.58-.48,4,4,0,0,0-1.44.26,7.72,7.72,0,0,0-1.51.8L44,295.14a7.19,7.19,0,0,1,4-1.23,4.52,4.52,0,0,1,3.14,1,3.69,3.69,0,0,1,1.13,2.88v3a.87.87,0,0,0,.13.55.61.61,0,0,0,.45.19v2a5.52,5.52,0,0,1-1,.12,1.71,1.71,0,0,1-1.08-.3,1.31,1.31,0,0,1-.47-.82l0-.48a4.25,4.25,0,0,1-1.53,1.22,4.29,4.29,0,0,1-1.87.43,3.37,3.37,0,0,1-2.35-.84A2.74,2.74,0,0,1,43.49,300.72Zm5.87.49a1.26,1.26,0,0,0,.45-.83v-1a5,5,0,0,0-1.89-.38,2.73,2.73,0,0,0-1.55.41,1.24,1.24,0,0,0-.6,1.07,1.32,1.32,0,0,0,.46,1,1.74,1.74,0,0,0,1.22.42,2.92,2.92,0,0,0,1-.2A2.7,2.7,0,0,0,49.36,301.21Z"/><path class="cls-2" d="M54.9,290.37h2.41v10.11a1.36,1.36,0,0,0,.2.87.78.78,0,0,0,.61.23,2.69,2.69,0,0,0,1.13-.25l.32,1.84a5.38,5.38,0,0,1-1.11.35,6.64,6.64,0,0,1-1.19.13,2.39,2.39,0,0,1-1.75-.61,2.28,2.28,0,0,1-.62-1.71Z"/><path class="cls-2" d="M60.47,298.81a5.19,5.19,0,0,1,.35-1.88,5,5,0,0,1,1-1.56,4.53,4.53,0,0,1,1.57-1.06,5.18,5.18,0,0,1,2.06-.4,5,5,0,0,1,2.62.68,4.57,4.57,0,0,1,1.73,1.79,5.07,5.07,0,0,1,.58,2.43,5,5,0,0,1-1.3,3.41,4.61,4.61,0,0,1-1.56,1.07,5.37,5.37,0,0,1-2.07.39,5.26,5.26,0,0,1-1.7-.26,4.74,4.74,0,0,1-1.38-.71,5.18,5.18,0,0,1-1-1.07,4.67,4.67,0,0,1-.64-1.33A5.09,5.09,0,0,1,60.47,298.81Zm5,2.83a2.22,2.22,0,0,0,1.75-.81,3,3,0,0,0,.71-2,2.93,2.93,0,0,0-.71-2,2.21,2.21,0,0,0-1.75-.8,2.26,2.26,0,0,0-1.76.81,3.26,3.26,0,0,0,0,4.06A2.26,2.26,0,0,0,65.43,301.64Z"/><path class="cls-2" d="M81.19,303.51H78.78v-5.29c0-1.46-.5-2.18-1.49-2.18a2.34,2.34,0,0,0-1.47.56,2.83,2.83,0,0,0-1,1.4v5.51h-2.4v-9.43h2.18v1.75a3.64,3.64,0,0,1,1.52-1.41,4.83,4.83,0,0,1,2.22-.51,3,3,0,0,1,1.2.22,2.27,2.27,0,0,1,.82.55,2.62,2.62,0,0,1,.5.85,4.44,4.44,0,0,1,.25,1,7.31,7.31,0,0,1,.07,1.09Z"/><path class="cls-2" d="M83.18,298.79a5.46,5.46,0,0,1,.55-2.47,4.32,4.32,0,0,1,1.57-1.76,4.12,4.12,0,0,1,2.27-.65,3.75,3.75,0,0,1,1.9.48,4.26,4.26,0,0,1,1.4,1.34v-1.65H93v9a4.26,4.26,0,0,1-.68,2.39A4.32,4.32,0,0,1,90.43,307a6.55,6.55,0,0,1-2.69.52,5.86,5.86,0,0,1-2.55-.5,5.14,5.14,0,0,1-1.86-1.46l1.31-1.28a3.8,3.8,0,0,0,1.36,1,4,4,0,0,0,1.74.39,3.71,3.71,0,0,0,1.08-.16,3.22,3.22,0,0,0,.9-.47,2.19,2.19,0,0,0,.62-.83,3,3,0,0,0,.22-1.19v-1.19a3.22,3.22,0,0,1-1.31,1.25,4,4,0,0,1-4-.21,4.26,4.26,0,0,1-1.51-1.74A5.29,5.29,0,0,1,83.18,298.79Zm7.38,1.26V297.8a2.94,2.94,0,0,0-1-1.32A2.4,2.4,0,0,0,88.1,296a2.16,2.16,0,0,0-1.76.86,3.19,3.19,0,0,0-.69,2,2.82,2.82,0,0,0,.74,2,2.45,2.45,0,0,0,1.85.8,2.42,2.42,0,0,0,1.41-.46A2.54,2.54,0,0,0,90.56,300.05Z"/><path class="cls-2" d="M99.07,303.68a6.66,6.66,0,0,1-2.32-.4,5.24,5.24,0,0,1-1.87-1.16l.86-1.56A5.29,5.29,0,0,0,99,301.89a2.06,2.06,0,0,0,1.13-.26.82.82,0,0,0,.42-.75,1.25,1.25,0,0,0,0-.21.56.56,0,0,0-.09-.17c0-.06-.08-.11-.12-.15a.76.76,0,0,0-.18-.13l-.22-.1-.28-.11-.31-.09-.36-.11-.4-.12q-.69-.21-1.14-.39c-.29-.12-.58-.26-.86-.41a2.37,2.37,0,0,1-.65-.51,2,2,0,0,1-.37-.62,2.37,2.37,0,0,1-.13-.83,2.69,2.69,0,0,1,1-2.21,4.38,4.38,0,0,1,2.78-.83,5,5,0,0,1,3.54,1.34l-1,1.53a4.47,4.47,0,0,0-2.68-1.08,2,2,0,0,0-1,.23.77.77,0,0,0-.41.74.75.75,0,0,0,.37.69,5.69,5.69,0,0,0,1.34.5c.52.15.93.28,1.24.39a7.46,7.46,0,0,1,.94.41,2.38,2.38,0,0,1,.74.51,2,2,0,0,1,.41.66,2.24,2.24,0,0,1,.16.89,2.62,2.62,0,0,1-1,2.19A4.41,4.41,0,0,1,99.07,303.68Z"/><path class="cls-2" d="M104.93,292.76v-2.39h2.41v2.39Zm0,10.75v-9.43h2.41v9.43Z"/><path class="cls-2" d="M109.39,298.79a5.55,5.55,0,0,1,.54-2.46,4.29,4.29,0,0,1,1.51-1.77,3.82,3.82,0,0,1,2.17-.65,3.56,3.56,0,0,1,1.85.5,3.74,3.74,0,0,1,1.33,1.32v-5.36h2.42v10.44a1,1,0,0,0,.12.55.6.6,0,0,0,.43.19v2a5.61,5.61,0,0,1-1,.12,1.74,1.74,0,0,1-1.07-.32,1.13,1.13,0,0,1-.48-.85l0-.59a3.45,3.45,0,0,1-1.39,1.34,3.92,3.92,0,0,1-1.89.47,4.2,4.2,0,0,1-2.31-.65,4.42,4.42,0,0,1-1.6-1.77A5.35,5.35,0,0,1,109.39,298.79Zm7.4,1.26V297.8a3,3,0,0,0-1-1.31,2.38,2.38,0,0,0-1.43-.52,2.2,2.2,0,0,0-1.77.85,3.09,3.09,0,0,0-.7,2,2.77,2.77,0,0,0,.74,2,2.42,2.42,0,0,0,1.87.81,2.37,2.37,0,0,0,1.37-.46A2.21,2.21,0,0,0,116.79,300.05Z"/><path class="cls-2" d="M126.4,303.68a5.21,5.21,0,0,1-2.63-.66,4.57,4.57,0,0,1-1.75-1.77,4.9,4.9,0,0,1-.59-2.4,5.08,5.08,0,0,1,.59-2.46,4.52,4.52,0,0,1,1.75-1.8,5.5,5.5,0,0,1,4.71-.28,4.45,4.45,0,0,1,1.55,1.06,4.69,4.69,0,0,1,1,1.55,4.92,4.92,0,0,1,.34,1.83,5.61,5.61,0,0,1-.05.81H124a2.49,2.49,0,0,0,2.51,2.37,2.71,2.71,0,0,0,1.36-.36,1.85,1.85,0,0,0,.87-.93l2.07.58a4.12,4.12,0,0,1-1.7,1.79A5.24,5.24,0,0,1,126.4,303.68ZM123.93,298h4.93a2.64,2.64,0,0,0-.79-1.72,2.4,2.4,0,0,0-1.69-.65,2.35,2.35,0,0,0-1.67.66A2.58,2.58,0,0,0,123.93,298Z"/><path class="cls-2" d="M143.63,296.16a4.58,4.58,0,0,0-2,.44,2.56,2.56,0,0,0-1.23,1.2v5.71H138v-9.43h2.22v2a4.3,4.3,0,0,1,1.28-1.53,3,3,0,0,1,1.64-.61,4.06,4.06,0,0,1,.48,0Z"/><path class="cls-2" d="M145.43,292.76v-2.39h2.4v2.39Zm0,10.75v-9.43h2.4v9.43Z"/><path class="cls-2" d="M153.94,303.68a6.62,6.62,0,0,1-2.32-.4,5.28,5.28,0,0,1-1.88-1.16l.86-1.56a5.31,5.31,0,0,0,3.25,1.33,2.08,2.08,0,0,0,1.13-.26.84.84,0,0,0,.41-.75.68.68,0,0,0,0-.21.38.38,0,0,0-.08-.17l-.12-.15a.87.87,0,0,0-.19-.13l-.22-.1-.28-.11-.3-.09-.37-.11-.39-.12q-.71-.21-1.14-.39a8.65,8.65,0,0,1-.87-.41,2.54,2.54,0,0,1-.65-.51,2,2,0,0,1-.36-.62,2.37,2.37,0,0,1-.14-.83,2.67,2.67,0,0,1,1.05-2.21,4.33,4.33,0,0,1,2.77-.83,5,5,0,0,1,3.55,1.34l-1,1.53a4.47,4.47,0,0,0-2.68-1.08,2.09,2.09,0,0,0-1.05.23.79.79,0,0,0-.41.74.75.75,0,0,0,.37.69,6,6,0,0,0,1.35.5q.78.23,1.23.39a7.57,7.57,0,0,1,.95.41,2.65,2.65,0,0,1,.74.51,2.39,2.39,0,0,1,.41.66,2.44,2.44,0,0,1,.15.89,2.62,2.62,0,0,1-1,2.19A4.36,4.36,0,0,1,153.94,303.68Z"/><path class="cls-2" d="M166.24,303.51l-2.75-4.07-1.28,1.26v2.81H159.8V290.37h2.41v7.95L166,294.1h2.56l-3.51,4,3.77,5.42Z"/><path class="cls-2" d="M170.48,305.35a5,5,0,0,0,1.08.17,1,1,0,0,0,.8-.41,6.09,6.09,0,0,0,.66-1.6l-3.73-9.43h2.51l2.54,7,2.23-7h2.3l-4,11.3a3.24,3.24,0,0,1-1.19,1.63,3.37,3.37,0,0,1-2,.62,4,4,0,0,1-1.21-.2Z"/><path class="cls-2" d="M81.45,324.68a5.18,5.18,0,0,1-2.06-.4,4.5,4.5,0,0,1-1.59-1.07,5.08,5.08,0,0,1-1.34-3.42,5.11,5.11,0,0,1,.59-2.43,4.62,4.62,0,0,1,1.74-1.77,5.51,5.51,0,0,1,5.25,0,4.17,4.17,0,0,1,1.66,1.77l-2.36.72a2.14,2.14,0,0,0-.81-.8,2.23,2.23,0,0,0-1.11-.28,2.26,2.26,0,0,0-1.77.79,3.26,3.26,0,0,0,0,4.06,2.23,2.23,0,0,0,1.75.82,2.39,2.39,0,0,0,1.19-.32,1.84,1.84,0,0,0,.77-.8l2.35.72A4,4,0,0,1,84.1,324,5.09,5.09,0,0,1,81.45,324.68Z"/><path class="cls-2" d="M87,319.81a5.19,5.19,0,0,1,.35-1.88,5,5,0,0,1,1-1.56,4.53,4.53,0,0,1,1.57-1.06,5.18,5.18,0,0,1,2.06-.4,5,5,0,0,1,2.62.68,4.57,4.57,0,0,1,1.73,1.79,5.07,5.07,0,0,1,.58,2.43,5,5,0,0,1-1.3,3.41A4.61,4.61,0,0,1,94,324.29a5.37,5.37,0,0,1-2.07.39,5.26,5.26,0,0,1-1.7-.26,4.74,4.74,0,0,1-1.38-.71,5.18,5.18,0,0,1-1-1.07,4.67,4.67,0,0,1-.64-1.33A5.09,5.09,0,0,1,87,319.81Zm5,2.83a2.22,2.22,0,0,0,1.75-.81,3,3,0,0,0,.71-2,2.93,2.93,0,0,0-.71-2,2.21,2.21,0,0,0-1.75-.8,2.26,2.26,0,0,0-1.76.81,3.26,3.26,0,0,0,0,4.06A2.26,2.26,0,0,0,91.93,322.64Z"/><path class="cls-2" d="M107.69,324.51h-2.41v-5.29c0-1.46-.5-2.18-1.49-2.18a2.34,2.34,0,0,0-1.47.56,2.75,2.75,0,0,0-1,1.4v5.51H98.93v-9.43h2.18v1.75a3.64,3.64,0,0,1,1.52-1.41,4.83,4.83,0,0,1,2.22-.51,3,3,0,0,1,1.2.22,2.27,2.27,0,0,1,.82.55,2.62,2.62,0,0,1,.5.85,4,4,0,0,1,.25,1,7.31,7.31,0,0,1,.07,1.09Z"/><path class="cls-2" d="M115.84,324a6.58,6.58,0,0,1-2.66.65,3.11,3.11,0,0,1-1-.14,2.38,2.38,0,0,1-.78-.39,1.82,1.82,0,0,1-.53-.73,2.71,2.71,0,0,1-.2-1.06v-5.42h-1.24v-1.85h1.24V312h2.42v3.06h2v1.85h-2v4.61c0,.61.32.92.9.92a3.55,3.55,0,0,0,1.32-.34Z"/><path class="cls-2" d="M121.8,324.68a5.21,5.21,0,0,1-2.63-.66,4.57,4.57,0,0,1-1.75-1.77,4.9,4.9,0,0,1-.59-2.4,5.08,5.08,0,0,1,.59-2.46,4.52,4.52,0,0,1,1.75-1.8,5.5,5.5,0,0,1,4.71-.28,4.45,4.45,0,0,1,1.55,1.06,4.69,4.69,0,0,1,1,1.55,4.92,4.92,0,0,1,.34,1.83,5.61,5.61,0,0,1,0,.81h-7.3a2.49,2.49,0,0,0,2.51,2.37,2.71,2.71,0,0,0,1.36-.36,1.85,1.85,0,0,0,.87-.93l2.07.58a4.12,4.12,0,0,1-1.7,1.79A5.24,5.24,0,0,1,121.8,324.68ZM119.33,319h4.93a2.65,2.65,0,0,0-.8-1.72,2.37,2.37,0,0,0-1.68-.65,2.35,2.35,0,0,0-1.67.66A2.58,2.58,0,0,0,119.33,319Z"/><path class="cls-2" d="M137.41,324.51H135v-5.29c0-1.46-.5-2.18-1.49-2.18a2.34,2.34,0,0,0-1.47.56,2.75,2.75,0,0,0-1,1.4v5.51h-2.41v-9.43h2.18v1.75a3.64,3.64,0,0,1,1.52-1.41,4.83,4.83,0,0,1,2.22-.51,3,3,0,0,1,1.2.22,2.27,2.27,0,0,1,.82.55,2.62,2.62,0,0,1,.5.85,4,4,0,0,1,.25,1,7.31,7.31,0,0,1,.07,1.09Z"/><path class="cls-2" d="M145.56,324a6.58,6.58,0,0,1-2.66.65,3.16,3.16,0,0,1-1-.14,2.38,2.38,0,0,1-.78-.39,1.92,1.92,0,0,1-.53-.73,2.71,2.71,0,0,1-.19-1.06v-5.42h-1.24v-1.85h1.24V312h2.41v3.06h2v1.85h-2v4.61c0,.61.32.92.9.92a3.55,3.55,0,0,0,1.32-.34Z"/><path class="cls-2" d="M307.22,282.51V269.73h5.41a3.63,3.63,0,0,1,1.62.37,4.07,4.07,0,0,1,1.3,1,4.48,4.48,0,0,1,.84,1.37,4,4,0,0,1,.31,1.54,4.48,4.48,0,0,1-.49,2.07,4.14,4.14,0,0,1-1.42,1.58,3.75,3.75,0,0,1-2.07.61h-3v4.28Zm2.48-6.46h2.88a1.39,1.39,0,0,0,1.14-.57,2.31,2.31,0,0,0,.46-1.51,2.13,2.13,0,0,0-.51-1.5,1.57,1.57,0,0,0-1.2-.56H309.7Z"/><path class="cls-2" d="M317.84,277.81a5.07,5.07,0,0,1,1.32-3.44,4.53,4.53,0,0,1,1.57-1.06,5.18,5.18,0,0,1,2.06-.4,5.07,5.07,0,0,1,2.63.68,4.61,4.61,0,0,1,1.72,1.79,5.07,5.07,0,0,1,.58,2.43,5,5,0,0,1-1.3,3.41,4.51,4.51,0,0,1-1.56,1.07,5.37,5.37,0,0,1-2.07.39,5.16,5.16,0,0,1-1.69-.26,4.5,4.5,0,0,1-1.38-.71,4.7,4.7,0,0,1-1-1.07,4.44,4.44,0,0,1-.65-1.33A5.43,5.43,0,0,1,317.84,277.81Zm5,2.83a2.26,2.26,0,0,0,1.76-.81,3,3,0,0,0,.7-2,2.92,2.92,0,0,0-.7-2,2.32,2.32,0,0,0-3.51,0,2.91,2.91,0,0,0-.72,2,3,3,0,0,0,.71,2A2.26,2.26,0,0,0,322.79,280.64Z"/><path class="cls-2" d="M329.19,277.81a5.19,5.19,0,0,1,.35-1.88,5,5,0,0,1,1-1.56,4.53,4.53,0,0,1,1.57-1.06,5.18,5.18,0,0,1,2.06-.4,5,5,0,0,1,2.62.68,4.57,4.57,0,0,1,1.73,1.79,5.07,5.07,0,0,1,.58,2.43,5,5,0,0,1-1.3,3.41,4.61,4.61,0,0,1-1.56,1.07,5.37,5.37,0,0,1-2.07.39,5.26,5.26,0,0,1-1.7-.26,4.74,4.74,0,0,1-1.38-.71,5.18,5.18,0,0,1-1-1.07,4.67,4.67,0,0,1-.64-1.33A5.09,5.09,0,0,1,329.19,277.81Zm5,2.83a2.22,2.22,0,0,0,1.75-.81,3,3,0,0,0,.71-2,2.93,2.93,0,0,0-.71-2,2.21,2.21,0,0,0-1.75-.8,2.26,2.26,0,0,0-1.76.81,3.26,3.26,0,0,0,0,4.06A2.26,2.26,0,0,0,334.15,280.64Z"/><path class="cls-2" d="M346.76,275.16a4.58,4.58,0,0,0-2,.44,2.5,2.5,0,0,0-1.22,1.2v5.71h-2.41v-9.43h2.21v2a4.4,4.4,0,0,1,1.28-1.53,3,3,0,0,1,1.64-.61,4.06,4.06,0,0,1,.48,0Z"/><path class="cls-2" d="M355,282.51l-3.49-9.43H354l2.37,7.23,2.4-7.23h2.29l-3.46,9.43Z"/><path class="cls-2" d="M362.79,271.76v-2.39h2.41v2.39Zm0,10.75v-9.43h2.41v9.43Z"/><path class="cls-2" d="M372.21,282.68a5.19,5.19,0,0,1-2.63-.66,4.57,4.57,0,0,1-1.75-1.77,4.91,4.91,0,0,1-.6-2.4,5.09,5.09,0,0,1,.6-2.46,4.52,4.52,0,0,1,1.75-1.8,5.14,5.14,0,0,1,2.64-.68,5.2,5.2,0,0,1,2.07.4,4.45,4.45,0,0,1,1.55,1.06,5,5,0,0,1,1,1.55,5.12,5.12,0,0,1,.34,1.83,4.32,4.32,0,0,1-.06.81h-7.29a2.48,2.48,0,0,0,.81,1.72,2.45,2.45,0,0,0,1.69.65,2.72,2.72,0,0,0,1.37-.36,1.9,1.9,0,0,0,.87-.93l2.06.58A4,4,0,0,1,374.9,282,5.27,5.27,0,0,1,372.21,282.68ZM369.74,277h4.93a2.65,2.65,0,0,0-.8-1.72,2.37,2.37,0,0,0-1.68-.65,2.33,2.33,0,0,0-1.67.66A2.58,2.58,0,0,0,369.74,277Z"/><path class="cls-2" d="M390.48,273.08h2.29l-3.94,9.43h-2l-1.59-4.05-1.54,4.05h-2l-3.93-9.43H380l2.81,7.13,1.1-3.08-1.65-4h2l1,2.88,1-2.88h2l-1.63,4,1.11,3.08Z"/><path class="cls-2" d="M393.44,279.72a2.67,2.67,0,0,1,1.13-2.22,4.76,4.76,0,0,1,2.93-.85,6,6,0,0,1,2.26.38v-.5a1.78,1.78,0,0,0-.53-1.39,2.28,2.28,0,0,0-1.58-.48,4.13,4.13,0,0,0-1.44.26,7.67,7.67,0,0,0-1.5.8l-.78-1.58a7.17,7.17,0,0,1,4-1.23,4.54,4.54,0,0,1,3.14,1,3.69,3.69,0,0,1,1.12,2.88v3a.94.94,0,0,0,.13.55.63.63,0,0,0,.45.19v2a5.43,5.43,0,0,1-1,.12,1.68,1.68,0,0,1-1.07-.3,1.27,1.27,0,0,1-.47-.82l-.06-.48a4.13,4.13,0,0,1-1.52,1.22,4.34,4.34,0,0,1-1.88.43,3.36,3.36,0,0,1-2.34-.84A2.72,2.72,0,0,1,393.44,279.72Zm5.88.49a1.28,1.28,0,0,0,.44-.83v-1a4.94,4.94,0,0,0-1.89-.38,2.69,2.69,0,0,0-1.54.41,1.24,1.24,0,0,0-.6,1.07,1.29,1.29,0,0,0,.46,1,1.72,1.72,0,0,0,1.22.42,2.92,2.92,0,0,0,1-.2A2.7,2.7,0,0,0,399.32,280.21Z"/><path class="cls-2" d="M407,280.87v1.64h-2.11V269.37h2.41v5.36a3.59,3.59,0,0,1,1.34-1.34,3.73,3.73,0,0,1,1.9-.48,3.62,3.62,0,0,1,2.15.68,4.34,4.34,0,0,1,1.47,1.8,5.8,5.8,0,0,1,.51,2.44,5.19,5.19,0,0,1-.58,2.46,4.46,4.46,0,0,1-1.58,1.75,4.13,4.13,0,0,1-2.26.64,3.92,3.92,0,0,1-1.91-.47A3.59,3.59,0,0,1,407,280.87Zm5.2-3a3.08,3.08,0,0,0-.71-2,2.18,2.18,0,0,0-1.76-.85,2.21,2.21,0,0,0-1.42.52,3.28,3.28,0,0,0-1,1.31v2.25a2.16,2.16,0,0,0,.91,1.14,2.46,2.46,0,0,0,3.25-.37A2.84,2.84,0,0,0,412.18,277.85Z"/><path class="cls-2" d="M416.73,271.76v-2.39h2.41v2.39Zm0,10.75v-9.43h2.41v9.43Z"/><path class="cls-2" d="M421.75,269.37h2.41v10.11a1.42,1.42,0,0,0,.2.87.79.79,0,0,0,.61.23,2.69,2.69,0,0,0,1.13-.25l.33,1.84a5.7,5.7,0,0,1-1.12.35,6.54,6.54,0,0,1-1.19.13,2.39,2.39,0,0,1-1.75-.61,2.28,2.28,0,0,1-.62-1.71Z"/><path class="cls-2" d="M427.92,271.76v-2.39h2.41v2.39Zm0,10.75v-9.43h2.41v9.43Z"/><path class="cls-2" d="M438.61,282a6.58,6.58,0,0,1-2.66.65,3.16,3.16,0,0,1-.95-.14,2.24,2.24,0,0,1-.77-.39,1.84,1.84,0,0,1-.54-.73,2.71,2.71,0,0,1-.19-1.06v-5.42h-1.24v-1.85h1.24V270h2.41v3.06h2v1.85h-2v4.61c0,.61.32.92.9.92a3.55,3.55,0,0,0,1.32-.34Z"/><path class="cls-2" d="M440.48,284.35a4.87,4.87,0,0,0,1.08.17.94.94,0,0,0,.79-.41,5.7,5.7,0,0,0,.67-1.6l-3.73-9.43h2.5l2.54,7,2.24-7h2.3l-4,11.3a3.3,3.3,0,0,1-1.19,1.63,3.39,3.39,0,0,1-2,.62,4,4,0,0,1-1.21-.2Z"/><path class="cls-2" d="M351.64,290.37h2.41v10.11a1.42,1.42,0,0,0,.2.87.79.79,0,0,0,.61.23,2.65,2.65,0,0,0,1.13-.25l.33,1.84a5.7,5.7,0,0,1-1.12.35,6.54,6.54,0,0,1-1.19.13,2.35,2.35,0,0,1-1.74-.61,2.25,2.25,0,0,1-.63-1.71Z"/><path class="cls-2" d="M362.19,303.68a5.21,5.21,0,0,1-2.63-.66,4.57,4.57,0,0,1-1.75-1.77,5,5,0,0,1-.59-2.4,5.2,5.2,0,0,1,.59-2.46,4.52,4.52,0,0,1,1.75-1.8,5.5,5.5,0,0,1,4.71-.28,4.45,4.45,0,0,1,1.55,1.06,4.69,4.69,0,0,1,1,1.55,4.92,4.92,0,0,1,.34,1.83,5.61,5.61,0,0,1-.05.81h-7.3a2.49,2.49,0,0,0,2.51,2.37,2.71,2.71,0,0,0,1.36-.36,1.85,1.85,0,0,0,.87-.93l2.07.58a4.12,4.12,0,0,1-1.7,1.79A5.24,5.24,0,0,1,362.19,303.68ZM359.72,298h4.93a2.64,2.64,0,0,0-.79-1.72,2.4,2.4,0,0,0-1.69-.65,2.35,2.35,0,0,0-1.67.66A2.58,2.58,0,0,0,359.72,298Z"/><path class="cls-2" d="M371.31,303.51l-3.48-9.43h2.5l2.37,7.23,2.4-7.23h2.29l-3.46,9.43Z"/><path class="cls-2" d="M383.16,303.68a5.15,5.15,0,0,1-2.62-.66,4.57,4.57,0,0,1-1.75-1.77,4.91,4.91,0,0,1-.6-2.4,5.09,5.09,0,0,1,.6-2.46,4.52,4.52,0,0,1,1.75-1.8,5.48,5.48,0,0,1,4.7-.28,4.4,4.4,0,0,1,1.56,1.06,5,5,0,0,1,1,1.55,5.12,5.12,0,0,1,.33,1.83,4.46,4.46,0,0,1,0,.81h-7.29a2.48,2.48,0,0,0,.81,1.72,2.45,2.45,0,0,0,1.69.65,2.75,2.75,0,0,0,1.37-.36,1.87,1.87,0,0,0,.86-.93l2.07.58a4.1,4.1,0,0,1-1.69,1.79A5.3,5.3,0,0,1,383.16,303.68ZM380.69,298h4.93a2.64,2.64,0,0,0-.79-1.72,2.37,2.37,0,0,0-1.68-.65,2.33,2.33,0,0,0-1.67.66A2.55,2.55,0,0,0,380.69,298Z"/><path class="cls-2" d="M390,290.37h2.4v10.11a1.35,1.35,0,0,0,.21.87.75.75,0,0,0,.6.23,2.7,2.7,0,0,0,1.14-.25l.32,1.84a5.7,5.7,0,0,1-1.12.35,6.44,6.44,0,0,1-1.18.13,2.39,2.39,0,0,1-1.75-.61,2.24,2.24,0,0,1-.62-1.71Z"/><path class="cls-2" d="M399.64,303.68a6.62,6.62,0,0,1-2.32-.4,5.24,5.24,0,0,1-1.87-1.16l.86-1.56a5.27,5.27,0,0,0,3.24,1.33,2.06,2.06,0,0,0,1.13-.26.82.82,0,0,0,.42-.75,1.25,1.25,0,0,0,0-.21.56.56,0,0,0-.09-.17l-.12-.15a.87.87,0,0,0-.19-.13l-.22-.1a2.72,2.72,0,0,0-.28-.11l-.3-.09-.36-.11-.4-.12q-.69-.21-1.14-.39c-.29-.12-.58-.26-.86-.41a2.23,2.23,0,0,1-.65-.51,1.83,1.83,0,0,1-.37-.62,2.37,2.37,0,0,1-.14-.83,2.67,2.67,0,0,1,1.05-2.21,4.36,4.36,0,0,1,2.78-.83,5,5,0,0,1,3.54,1.34l-1,1.53a4.45,4.45,0,0,0-2.68-1.08,2,2,0,0,0-1,.23.78.78,0,0,0-.42.74.77.77,0,0,0,.37.69,6,6,0,0,0,1.35.5c.52.15.93.28,1.24.39a7.46,7.46,0,0,1,.94.41,2.51,2.51,0,0,1,.74.51,2.17,2.17,0,0,1,.41.66,2.24,2.24,0,0,1,.16.89,2.6,2.6,0,0,1-1,2.19A4.36,4.36,0,0,1,399.64,303.68Z"/><path class="cls-2" d="M543.37,282.69V269.91h2.47v10.6h6.53v2.18Z"/><path class="cls-2" d="M558.4,282.87a5.09,5.09,0,0,1-2.63-.67,4.48,4.48,0,0,1-1.75-1.76,4.92,4.92,0,0,1-.6-2.41,5.15,5.15,0,0,1,.6-2.46,4.52,4.52,0,0,1,1.75-1.8,5.14,5.14,0,0,1,2.65-.67,5.32,5.32,0,0,1,2.06.39,4.34,4.34,0,0,1,1.55,1.07,4.82,4.82,0,0,1,1,1.54,5.14,5.14,0,0,1,.34,1.84,5.82,5.82,0,0,1-.05.81H556a2.48,2.48,0,0,0,.81,1.71,2.41,2.41,0,0,0,1.7.65,2.81,2.81,0,0,0,1.36-.35,1.85,1.85,0,0,0,.87-.93l2.06.58a4,4,0,0,1-1.69,1.78A5.27,5.27,0,0,1,558.4,282.87Zm-2.47-5.65h4.93a2.65,2.65,0,0,0-.8-1.72,2.46,2.46,0,0,0-3.35,0A2.59,2.59,0,0,0,555.93,277.22Z"/><path class="cls-2" d="M567.51,282.69,564,273.26h2.51l2.37,7.24,2.4-7.24h2.29l-3.46,9.43Z"/><path class="cls-2" d="M579.37,282.87a5.12,5.12,0,0,1-2.63-.67,4.55,4.55,0,0,1-1.75-1.76,5,5,0,0,1-.59-2.41,5.26,5.26,0,0,1,.59-2.46,4.58,4.58,0,0,1,1.75-1.8,5.14,5.14,0,0,1,2.65-.67,5.29,5.29,0,0,1,2.06.39,4.34,4.34,0,0,1,1.55,1.07,4.65,4.65,0,0,1,1,1.54,4.93,4.93,0,0,1,.34,1.84,5.82,5.82,0,0,1,0,.81H577a2.48,2.48,0,0,0,.81,1.71,2.43,2.43,0,0,0,1.7.65,2.85,2.85,0,0,0,1.37-.35,1.87,1.87,0,0,0,.86-.93l2.07.58a4.07,4.07,0,0,1-1.69,1.78A5.31,5.31,0,0,1,579.37,282.87Zm-2.47-5.65h4.93a2.64,2.64,0,0,0-.79-1.72,2.47,2.47,0,0,0-3.36,0A2.59,2.59,0,0,0,576.9,277.22Z"/><path class="cls-2" d="M586.2,269.55h2.41v10.12a1.39,1.39,0,0,0,.2.86.76.76,0,0,0,.61.24,2.67,2.67,0,0,0,1.13-.26l.33,1.84a5.1,5.1,0,0,1-1.12.35,5.74,5.74,0,0,1-1.18.13,2.41,2.41,0,0,1-1.75-.6,2.29,2.29,0,0,1-.63-1.72Z"/><path class="cls-2" d="M595.85,282.87a6.62,6.62,0,0,1-2.32-.41,5.14,5.14,0,0,1-1.88-1.16l.86-1.56a5.33,5.33,0,0,0,3.25,1.34,2.17,2.17,0,0,0,1.13-.26.84.84,0,0,0,.41-.76.65.65,0,0,0,0-.2.48.48,0,0,0-.08-.18l-.12-.14a.62.62,0,0,0-.19-.13l-.22-.11-.28-.1-.3-.1-.37-.1-.39-.12c-.47-.15-.85-.28-1.14-.4a5.75,5.75,0,0,1-.87-.41,2.76,2.76,0,0,1-.65-.5,2.16,2.16,0,0,1-.36-.63,2.31,2.31,0,0,1-.14-.82,2.68,2.68,0,0,1,1.05-2.22,4.36,4.36,0,0,1,2.78-.82,5,5,0,0,1,3.54,1.33l-1,1.53a4.47,4.47,0,0,0-2.68-1.08,2.2,2.2,0,0,0-1,.23.79.79,0,0,0-.41.75.75.75,0,0,0,.37.69,6.11,6.11,0,0,0,1.35.49c.52.16.93.29,1.23.4a7.45,7.45,0,0,1,1,.4,2.88,2.88,0,0,1,.74.52,2.33,2.33,0,0,1,.41.65,2.5,2.5,0,0,1,.15.9,2.62,2.62,0,0,1-1,2.18A4.37,4.37,0,0,1,595.85,282.87Z"/><path class="cls-2" d="M605.88,278a5.09,5.09,0,0,1,.35-1.87,4.85,4.85,0,0,1,1-1.56,4.29,4.29,0,0,1,1.56-1.07,5.36,5.36,0,0,1,2.06-.39,5,5,0,0,1,2.63.68,4.52,4.52,0,0,1,1.72,1.78,5.14,5.14,0,0,1,.59,2.43,5.08,5.08,0,0,1-.35,1.86,5,5,0,0,1-1,1.56,4.4,4.4,0,0,1-1.56,1.06,5.2,5.2,0,0,1-2.07.4,5.49,5.49,0,0,1-1.69-.26,4.31,4.31,0,0,1-1.38-.72,5.13,5.13,0,0,1-1-1.06,4.75,4.75,0,0,1-.65-1.34A5.33,5.33,0,0,1,605.88,278Zm5,2.83a2.24,2.24,0,0,0,1.76-.81,3,3,0,0,0,.71-2,3,3,0,0,0-.71-2,2.26,2.26,0,0,0-1.76-.8,2.24,2.24,0,0,0-1.75.81,3.28,3.28,0,0,0,0,4.06A2.26,2.26,0,0,0,610.83,280.82Z"/><path class="cls-2" d="M618.32,282.69V275.6h-1.24v-1.84h1.24v-.57a4.23,4.23,0,0,1,.85-2.78,2.81,2.81,0,0,1,2.3-1,5.41,5.41,0,0,1,2.32.56l-.48,1.82a2.65,2.65,0,0,0-1.32-.34,1.1,1.1,0,0,0-.94.43,2.11,2.11,0,0,0-.32,1.26v.66H623v1.84h-2.31v7.09Z"/><path class="cls-2" d="M628.58,279.91a2.64,2.64,0,0,1,1.13-2.22,4.72,4.72,0,0,1,2.93-.85,6,6,0,0,1,2.26.38v-.5a1.75,1.75,0,0,0-.53-1.39,2.28,2.28,0,0,0-1.58-.49,4.13,4.13,0,0,0-1.44.26,8.07,8.07,0,0,0-1.5.81l-.78-1.58a7.19,7.19,0,0,1,4-1.23,4.48,4.48,0,0,1,3.14,1,3.66,3.66,0,0,1,1.12,2.88v3a.92.92,0,0,0,.13.55.59.59,0,0,0,.45.19v2a5.45,5.45,0,0,1-1,.13,1.68,1.68,0,0,1-1.07-.31,1.25,1.25,0,0,1-.47-.81l-.06-.48a4.11,4.11,0,0,1-1.52,1.21,4.35,4.35,0,0,1-1.88.44,3.32,3.32,0,0,1-2.34-.85A2.73,2.73,0,0,1,628.58,279.91Zm5.88.48a1.26,1.26,0,0,0,.44-.83v-.95a4.76,4.76,0,0,0-1.89-.38,2.62,2.62,0,0,0-1.54.41,1.23,1.23,0,0,0-.6,1.06,1.26,1.26,0,0,0,.46,1,1.72,1.72,0,0,0,1.22.42,2.92,2.92,0,0,0,1.05-.2A2.54,2.54,0,0,0,634.46,280.39Z"/><path class="cls-2" d="M639.43,278a5.61,5.61,0,0,1,.54-2.46,4.33,4.33,0,0,1,1.51-1.76,3.75,3.75,0,0,1,2.17-.65,3.56,3.56,0,0,1,1.85.49,3.74,3.74,0,0,1,1.33,1.32v-5.36h2.42V280a.93.93,0,0,0,.12.55.56.56,0,0,0,.43.19v2a5.77,5.77,0,0,1-1,.13,1.74,1.74,0,0,1-1.07-.32,1.15,1.15,0,0,1-.48-.85l0-.59a3.45,3.45,0,0,1-1.39,1.34,4,4,0,0,1-1.88.47,4.29,4.29,0,0,1-2.32-.65,4.56,4.56,0,0,1-1.6-1.77A5.39,5.39,0,0,1,639.43,278Zm7.4,1.27V277a3,3,0,0,0-1-1.31,2.39,2.39,0,0,0-1.43-.53,2.21,2.21,0,0,0-1.77.86,3.08,3.08,0,0,0-.7,2,2.81,2.81,0,0,0,.74,2,2.47,2.47,0,0,0,3.24.35A2.25,2.25,0,0,0,646.83,279.24Z"/><path class="cls-2" d="M657.4,282.69V275.6h-1.24v-1.84h1.24v-.57a4.24,4.24,0,0,1,.86-2.78,2.8,2.8,0,0,1,2.3-1,5.44,5.44,0,0,1,2.32.56l-.49,1.82a2.65,2.65,0,0,0-1.32-.34,1.07,1.07,0,0,0-.93.43,2,2,0,0,0-.32,1.26v.66h2.3v1.84h-2.3v7.09Z"/><path class="cls-2" d="M669.55,275.35a4.58,4.58,0,0,0-2,.43,2.63,2.63,0,0,0-1.23,1.21v5.7h-2.41v-9.43h2.22v2a4.35,4.35,0,0,1,1.28-1.52,2.84,2.84,0,0,1,1.64-.61,2.59,2.59,0,0,1,.48,0Z"/><path class="cls-2" d="M670.64,279.91a2.64,2.64,0,0,1,1.13-2.22,4.69,4.69,0,0,1,2.92-.85,6,6,0,0,1,2.27.38v-.5a1.79,1.79,0,0,0-.53-1.39,2.3,2.3,0,0,0-1.58-.49,4.13,4.13,0,0,0-1.44.26,7.49,7.49,0,0,0-1.5.81l-.79-1.58a7.2,7.2,0,0,1,4-1.23,4.51,4.51,0,0,1,3.14,1,3.66,3.66,0,0,1,1.12,2.88v3a.85.85,0,0,0,.13.55.59.59,0,0,0,.45.19v2a5.65,5.65,0,0,1-1,.13,1.73,1.73,0,0,1-1.08-.31,1.29,1.29,0,0,1-.47-.81l0-.48a4.11,4.11,0,0,1-1.52,1.21,4.38,4.38,0,0,1-1.88.44,3.35,3.35,0,0,1-2.35-.85A2.72,2.72,0,0,1,670.64,279.91Zm5.87.48a1.24,1.24,0,0,0,.45-.83v-.95a4.83,4.83,0,0,0-1.89-.38,2.65,2.65,0,0,0-1.55.41,1.22,1.22,0,0,0-.59,1.06,1.28,1.28,0,0,0,.45,1,1.74,1.74,0,0,0,1.22.42,3,3,0,0,0,1.06-.2A2.49,2.49,0,0,0,676.51,280.39Z"/><path class="cls-2" d="M682,279.17v-5.91h2.41v5.38c0,1.45.52,2.18,1.56,2.18a2.43,2.43,0,0,0,1.38-.44,3.12,3.12,0,0,0,1.06-1.27v-5.85h2.41V280a.85.85,0,0,0,.13.55.59.59,0,0,0,.45.19v2a6.05,6.05,0,0,1-1,.11,1.75,1.75,0,0,1-1.06-.3,1.12,1.12,0,0,1-.47-.82l0-.75a4.15,4.15,0,0,1-1.61,1.45,5,5,0,0,1-2.19.49,2.65,2.65,0,0,1-2.21-.94A4.3,4.3,0,0,1,682,279.17Z"/><path class="cls-2" d="M693.06,278a5.75,5.75,0,0,1,.53-2.46,4.33,4.33,0,0,1,1.51-1.76,3.78,3.78,0,0,1,2.18-.65,3.58,3.58,0,0,1,1.85.49,3.82,3.82,0,0,1,1.33,1.32v-5.36h2.41V280a.92.92,0,0,0,.13.55.53.53,0,0,0,.43.19v2a5.86,5.86,0,0,1-1,.13,1.76,1.76,0,0,1-1.07-.32,1.22,1.22,0,0,1-.48-.85l0-.59a3.47,3.47,0,0,1-1.4,1.34,4,4,0,0,1-1.88.47,4.23,4.23,0,0,1-2.31-.65,4.48,4.48,0,0,1-1.6-1.77A5.39,5.39,0,0,1,693.06,278Zm7.4,1.27V277a3,3,0,0,0-1-1.31,2.37,2.37,0,0,0-1.43-.53,2.21,2.21,0,0,0-1.77.86,3.14,3.14,0,0,0-.7,2,2.85,2.85,0,0,0,.74,2,2.48,2.48,0,0,0,3.25.35A2.25,2.25,0,0,0,700.46,279.24Z"/><path class="cls-2" d="M787.67,271.91h-4.09v10.6h-2.46v-10.6H777v-2.18h10.64Z"/><path class="cls-2" d="M787.27,279.72a2.66,2.66,0,0,1,1.12-2.22,4.78,4.78,0,0,1,2.93-.85,5.92,5.92,0,0,1,2.26.38v-.5a1.78,1.78,0,0,0-.53-1.39,2.27,2.27,0,0,0-1.57-.48,4.14,4.14,0,0,0-1.45.26,8,8,0,0,0-1.5.8l-.78-1.58a7.19,7.19,0,0,1,4-1.23,4.52,4.52,0,0,1,3.14,1A3.69,3.69,0,0,1,796,276.8v3a.87.87,0,0,0,.14.55.59.59,0,0,0,.44.19v2a5.34,5.34,0,0,1-1,.12,1.69,1.69,0,0,1-1.08-.3,1.27,1.27,0,0,1-.47-.82l0-.48a4.25,4.25,0,0,1-1.53,1.22,4.34,4.34,0,0,1-1.88.43,3.36,3.36,0,0,1-2.34-.84A2.74,2.74,0,0,1,787.27,279.72Zm5.87.49a1.24,1.24,0,0,0,.44-.83v-1a4.93,4.93,0,0,0-1.88-.38,2.7,2.7,0,0,0-1.55.41,1.24,1.24,0,0,0-.6,1.07,1.29,1.29,0,0,0,.46,1,1.72,1.72,0,0,0,1.22.42,2.92,2.92,0,0,0,1-.2A2.7,2.7,0,0,0,793.14,280.21Z"/><path class="cls-2" d="M804.31,275.16a4.58,4.58,0,0,0-2,.44,2.56,2.56,0,0,0-1.23,1.2v5.71h-2.41v-9.43h2.22v2a4.3,4.3,0,0,1,1.28-1.53,3,3,0,0,1,1.64-.61,4.06,4.06,0,0,1,.48,0Z"/><path class="cls-2" d="M805.45,277.79a5.47,5.47,0,0,1,.56-2.47,4.37,4.37,0,0,1,1.56-1.76,4.16,4.16,0,0,1,2.28-.65,3.75,3.75,0,0,1,1.9.48,4.23,4.23,0,0,1,1.39,1.34v-1.65h2.11v9a4.19,4.19,0,0,1-.68,2.39,4.23,4.23,0,0,1-1.86,1.55,6.6,6.6,0,0,1-2.7.52,5.86,5.86,0,0,1-2.55-.5,5.32,5.32,0,0,1-1.86-1.46l1.31-1.28a3.84,3.84,0,0,0,1.37,1,4,4,0,0,0,1.73.39,3.83,3.83,0,0,0,1.09-.16,3,3,0,0,0,.89-.47,2.09,2.09,0,0,0,.62-.83,3,3,0,0,0,.23-1.19v-1.19a3.22,3.22,0,0,1-1.31,1.25,4,4,0,0,1-4-.21,4.19,4.19,0,0,1-1.51-1.74A5.3,5.3,0,0,1,805.45,277.79Zm7.39,1.26V276.8a2.94,2.94,0,0,0-1-1.32,2.4,2.4,0,0,0-1.45-.51,2.18,2.18,0,0,0-1.77.86,3.19,3.19,0,0,0-.69,2,2.78,2.78,0,0,0,.75,2,2.48,2.48,0,0,0,3.26.34A2.54,2.54,0,0,0,812.84,279.05Z"/><path class="cls-2" d="M822.25,282.68a5.21,5.21,0,0,1-2.63-.66,4.64,4.64,0,0,1-1.75-1.77,5,5,0,0,1-.59-2.4,5.2,5.2,0,0,1,.59-2.46,4.58,4.58,0,0,1,1.75-1.8,5.5,5.5,0,0,1,4.71-.28,4.58,4.58,0,0,1,1.56,1.06,4.83,4.83,0,0,1,1,1.55,4.92,4.92,0,0,1,.34,1.83,4.46,4.46,0,0,1,0,.81h-7.3a2.49,2.49,0,0,0,2.51,2.37,2.75,2.75,0,0,0,1.37-.36,1.87,1.87,0,0,0,.86-.93l2.07.58A4.1,4.1,0,0,1,825,282,5.3,5.3,0,0,1,822.25,282.68ZM819.78,277h4.93a2.64,2.64,0,0,0-.79-1.72,2.38,2.38,0,0,0-1.69-.65,2.35,2.35,0,0,0-1.67.66A2.58,2.58,0,0,0,819.78,277Z"/><path class="cls-2" d="M834.66,282a6.55,6.55,0,0,1-2.66.65,3.21,3.21,0,0,1-1-.14,2.33,2.33,0,0,1-.77-.39,1.84,1.84,0,0,1-.54-.73,2.71,2.71,0,0,1-.19-1.06v-5.42h-1.24v-1.85h1.24V270H832v3.06h2v1.85h-2v4.61c0,.61.31.92.89.92a3.55,3.55,0,0,0,1.32-.34Z"/><path class="cls-2" d="M836.37,271.76v-2.39h2.41v2.39Zm0,10.75v-9.43h2.41v9.43Z"/><path class="cls-2" d="M850.17,282.51h-2.41v-5.29c0-1.46-.5-2.18-1.49-2.18a2.34,2.34,0,0,0-1.47.56,2.75,2.75,0,0,0-1,1.4v5.51h-2.41v-9.43h2.18v1.75a3.64,3.64,0,0,1,1.52-1.41,4.83,4.83,0,0,1,2.22-.51,3,3,0,0,1,1.2.22,2.27,2.27,0,0,1,.82.55,2.62,2.62,0,0,1,.5.85,4,4,0,0,1,.25,1,7.31,7.31,0,0,1,.07,1.09Z"/><path class="cls-2" d="M852.16,277.79a5.46,5.46,0,0,1,.55-2.47,4.32,4.32,0,0,1,1.57-1.76,4.12,4.12,0,0,1,2.27-.65,3.73,3.73,0,0,1,1.9.48,4.26,4.26,0,0,1,1.4,1.34v-1.65H862v9a4.26,4.26,0,0,1-.68,2.39,4.32,4.32,0,0,1-1.87,1.55,6.52,6.52,0,0,1-2.69.52,5.86,5.86,0,0,1-2.55-.5,5.14,5.14,0,0,1-1.86-1.46l1.31-1.28a3.8,3.8,0,0,0,1.36,1,4,4,0,0,0,1.74.39,3.71,3.71,0,0,0,1.08-.16,3.08,3.08,0,0,0,.9-.47,2.19,2.19,0,0,0,.62-.83,3,3,0,0,0,.22-1.19v-1.19a3.22,3.22,0,0,1-1.31,1.25,4,4,0,0,1-4-.21,4.26,4.26,0,0,1-1.51-1.74A5.29,5.29,0,0,1,852.16,277.79Zm7.38,1.26V276.8a2.87,2.87,0,0,0-1-1.32,2.37,2.37,0,0,0-1.45-.51,2.17,2.17,0,0,0-1.76.86,3.19,3.19,0,0,0-.69,2,2.78,2.78,0,0,0,.75,2,2.46,2.46,0,0,0,3.25.34A2.47,2.47,0,0,0,859.54,279.05Z"/><path class="cls-2" d="M875,282a6.59,6.59,0,0,1-2.67.65,3.21,3.21,0,0,1-1-.14,2.43,2.43,0,0,1-.77-.39,1.73,1.73,0,0,1-.53-.73,2.71,2.71,0,0,1-.2-1.06v-5.42h-1.24v-1.85h1.24V270h2.42v3.06h2v1.85h-2v4.61c0,.61.31.92.89.92a3.55,3.55,0,0,0,1.32-.34Z"/><path class="cls-2" d="M885.47,282.51h-2.41v-5.29a2.75,2.75,0,0,0-.41-1.64,1.4,1.4,0,0,0-1.17-.54,2.22,2.22,0,0,0-1.4.56,2.85,2.85,0,0,0-1,1.4v5.51H876.7V269.37h2.41v5.46a3.66,3.66,0,0,1,1.43-1.41,3.87,3.87,0,0,1,2-.51q3,0,3,3.71Z"/><path class="cls-2" d="M892.39,282.68a5.15,5.15,0,0,1-2.62-.66,4.57,4.57,0,0,1-1.75-1.77,4.91,4.91,0,0,1-.6-2.4,5.09,5.09,0,0,1,.6-2.46,4.52,4.52,0,0,1,1.75-1.8,5.48,5.48,0,0,1,4.7-.28,4.4,4.4,0,0,1,1.56,1.06,5,5,0,0,1,1,1.55,5.12,5.12,0,0,1,.34,1.83,4.32,4.32,0,0,1-.06.81H890a2.48,2.48,0,0,0,.81,1.72,2.45,2.45,0,0,0,1.69.65,2.75,2.75,0,0,0,1.37-.36,1.87,1.87,0,0,0,.86-.93l2.07.58a4.1,4.1,0,0,1-1.69,1.79A5.3,5.3,0,0,1,892.39,282.68ZM889.92,277h4.93a2.64,2.64,0,0,0-.79-1.72,2.37,2.37,0,0,0-1.68-.65,2.33,2.33,0,0,0-1.67.66A2.55,2.55,0,0,0,889.92,277Z"/><path class="cls-2" d="M778.47,296.16a4.58,4.58,0,0,0-2,.44,2.5,2.5,0,0,0-1.22,1.2v5.71h-2.41v-9.43h2.21v2a4.4,4.4,0,0,1,1.28-1.53A3,3,0,0,1,778,294a4.06,4.06,0,0,1,.48,0Z"/><path class="cls-2" d="M780.27,292.76v-2.39h2.41v2.39Zm0,10.75v-9.43h2.41v9.43Z"/><path class="cls-2" d="M784.75,298.79a5.46,5.46,0,0,1,.55-2.47,4.37,4.37,0,0,1,1.56-1.76,4.18,4.18,0,0,1,2.28-.65,3.75,3.75,0,0,1,1.9.48,4.23,4.23,0,0,1,1.39,1.34v-1.65h2.11v9a4.19,4.19,0,0,1-.68,2.39A4.23,4.23,0,0,1,792,307a6.59,6.59,0,0,1-2.69.52,5.91,5.91,0,0,1-2.56-.5,5.32,5.32,0,0,1-1.86-1.46l1.31-1.28a3.84,3.84,0,0,0,1.37,1,4,4,0,0,0,1.74.39,3.81,3.81,0,0,0,1.08-.16,3,3,0,0,0,.89-.47,2.09,2.09,0,0,0,.62-.83,3,3,0,0,0,.23-1.19v-1.19a3.22,3.22,0,0,1-1.31,1.25,4,4,0,0,1-4-.21,4.19,4.19,0,0,1-1.51-1.74A5.29,5.29,0,0,1,784.75,298.79Zm7.38,1.26V297.8a2.94,2.94,0,0,0-1-1.32,2.4,2.4,0,0,0-1.45-.51,2.18,2.18,0,0,0-1.77.86,3.19,3.19,0,0,0-.69,2,2.78,2.78,0,0,0,.75,2,2.45,2.45,0,0,0,1.85.8,2.42,2.42,0,0,0,1.41-.46A2.54,2.54,0,0,0,792.13,300.05Z"/><path class="cls-2" d="M805.93,303.51h-2.41v-5.29a2.75,2.75,0,0,0-.41-1.64,1.4,1.4,0,0,0-1.17-.54,2.22,2.22,0,0,0-1.4.56,2.85,2.85,0,0,0-1,1.4v5.51h-2.4V290.37h2.4v5.46a3.66,3.66,0,0,1,1.43-1.41,3.87,3.87,0,0,1,2-.51q3,0,3,3.71Z"/><path class="cls-2" d="M814.08,303a6.59,6.59,0,0,1-2.67.65,3.21,3.21,0,0,1-.95-.14,2.43,2.43,0,0,1-.77-.39,1.73,1.73,0,0,1-.53-.73,2.71,2.71,0,0,1-.2-1.06v-5.42h-1.24v-1.85H809V291h2.42v3.06h2v1.85h-2v4.61c0,.61.31.92.89.92a3.55,3.55,0,0,0,1.32-.34Z"/><path class="cls-2" d="M819.9,300.72A2.66,2.66,0,0,1,821,298.5a4.78,4.78,0,0,1,2.93-.85,6,6,0,0,1,2.27.38v-.5a1.82,1.82,0,0,0-.53-1.39,2.3,2.3,0,0,0-1.58-.48,4,4,0,0,0-1.44.26,7.4,7.4,0,0,0-1.5.8l-.79-1.58a7.19,7.19,0,0,1,4-1.23,4.52,4.52,0,0,1,3.14,1,3.69,3.69,0,0,1,1.13,2.88v3a.87.87,0,0,0,.13.55.63.63,0,0,0,.45.19v2a5.52,5.52,0,0,1-1,.12,1.73,1.73,0,0,1-1.08-.3,1.31,1.31,0,0,1-.47-.82l0-.48a4.17,4.17,0,0,1-1.53,1.22,4.29,4.29,0,0,1-1.87.43,3.37,3.37,0,0,1-2.35-.84A2.74,2.74,0,0,1,819.9,300.72Zm5.87.49a1.26,1.26,0,0,0,.45-.83v-1a5,5,0,0,0-1.89-.38,2.73,2.73,0,0,0-1.55.41,1.24,1.24,0,0,0-.6,1.07,1.32,1.32,0,0,0,.46,1,1.74,1.74,0,0,0,1.22.42,2.92,2.92,0,0,0,1-.2A2.7,2.7,0,0,0,825.77,301.21Z"/><path class="cls-2" d="M831.24,300v-5.9h2.41v5.38c0,1.45.52,2.18,1.56,2.18a2.43,2.43,0,0,0,1.38-.44,3.23,3.23,0,0,0,1.06-1.28v-5.84h2.4v6.73a.87.87,0,0,0,.14.55.59.59,0,0,0,.44.19v2a5.77,5.77,0,0,1-1,.1,1.82,1.82,0,0,1-1.06-.29,1.14,1.14,0,0,1-.47-.82l0-.76a4.14,4.14,0,0,1-1.61,1.45,4.82,4.82,0,0,1-2.19.49,2.65,2.65,0,0,1-2.21-.94A4.27,4.27,0,0,1,831.24,300Z"/><path class="cls-2" d="M842.31,298.79a5.55,5.55,0,0,1,.54-2.46,4.29,4.29,0,0,1,1.51-1.77,3.82,3.82,0,0,1,2.17-.65,3.56,3.56,0,0,1,1.85.5,3.66,3.66,0,0,1,1.33,1.32v-5.36h2.42v10.44a1,1,0,0,0,.12.55.6.6,0,0,0,.43.19v2a5.52,5.52,0,0,1-1,.12,1.74,1.74,0,0,1-1.07-.32,1.16,1.16,0,0,1-.48-.85l0-.59a3.47,3.47,0,0,1-1.4,1.34,3.91,3.91,0,0,1-1.88.47,4.15,4.15,0,0,1-2.31-.65,4.35,4.35,0,0,1-1.6-1.77A5.23,5.23,0,0,1,842.31,298.79Zm7.4,1.26V297.8a3,3,0,0,0-1-1.31,2.38,2.38,0,0,0-1.43-.52,2.2,2.2,0,0,0-1.77.85,3.09,3.09,0,0,0-.7,2,2.81,2.81,0,0,0,.74,2,2.44,2.44,0,0,0,1.87.81,2.4,2.4,0,0,0,1.38-.46A2.19,2.19,0,0,0,849.71,300.05Z"/><path class="cls-2" d="M855,292.76v-2.39h2.4v2.39Zm0,10.75v-9.43h2.4v9.43Z"/><path class="cls-2" d="M864.36,303.68a5.21,5.21,0,0,1-2.63-.66,4.64,4.64,0,0,1-1.75-1.77,4.9,4.9,0,0,1-.59-2.4,5.08,5.08,0,0,1,.59-2.46,4.58,4.58,0,0,1,1.75-1.8,5.5,5.5,0,0,1,4.71-.28,4.58,4.58,0,0,1,1.56,1.06,4.83,4.83,0,0,1,1,1.55,4.92,4.92,0,0,1,.34,1.83,5.61,5.61,0,0,1,0,.81h-7.3a2.49,2.49,0,0,0,2.51,2.37,2.78,2.78,0,0,0,1.37-.36,1.87,1.87,0,0,0,.86-.93l2.07.58a4.1,4.1,0,0,1-1.69,1.79A5.3,5.3,0,0,1,864.36,303.68ZM861.89,298h4.93a2.64,2.64,0,0,0-.79-1.72,2.4,2.4,0,0,0-1.69-.65,2.35,2.35,0,0,0-1.67.66A2.58,2.58,0,0,0,861.89,298Z"/><path class="cls-2" d="M880,303.51h-2.41v-5.29c0-1.46-.49-2.18-1.49-2.18a2.34,2.34,0,0,0-1.47.56,2.75,2.75,0,0,0-1,1.4v5.51h-2.41v-9.43h2.18v1.75a3.64,3.64,0,0,1,1.52-1.41,4.83,4.83,0,0,1,2.22-.51,3,3,0,0,1,1.2.22,2.41,2.41,0,0,1,.83.55,2.79,2.79,0,0,1,.49.85,4.47,4.47,0,0,1,.26,1,9.06,9.06,0,0,1,.06,1.09Z"/><path class="cls-2" d="M886.92,303.68a5.23,5.23,0,0,1-2.07-.4,4.46,4.46,0,0,1-1.58-1.07,5.06,5.06,0,0,1-1-1.56,4.89,4.89,0,0,1-.36-1.86,5,5,0,0,1,.6-2.43,4.62,4.62,0,0,1,1.74-1.77,5.49,5.49,0,0,1,5.24,0,4.11,4.11,0,0,1,1.66,1.77l-2.35.72a2.14,2.14,0,0,0-.81-.8,2.36,2.36,0,0,0-2.88.51,3.24,3.24,0,0,0,0,4.06,2.24,2.24,0,0,0,1.75.82,2.33,2.33,0,0,0,1.19-.32,1.74,1.74,0,0,0,.77-.8l2.36.72a4,4,0,0,1-1.64,1.77A5.06,5.06,0,0,1,886.92,303.68Z"/><path class="cls-2" d="M897.41,303.68a5.21,5.21,0,0,1-2.63-.66,4.55,4.55,0,0,1-1.74-1.77,4.91,4.91,0,0,1-.6-2.4,5.09,5.09,0,0,1,.6-2.46,4.49,4.49,0,0,1,1.74-1.8,5.5,5.5,0,0,1,4.71-.28,4.58,4.58,0,0,1,1.56,1.06,4.83,4.83,0,0,1,1,1.55,4.92,4.92,0,0,1,.34,1.83,4.46,4.46,0,0,1-.05.81H895a2.44,2.44,0,0,0,.8,1.72,2.47,2.47,0,0,0,1.7.65,2.75,2.75,0,0,0,1.37-.36,1.87,1.87,0,0,0,.86-.93l2.07.58a4.1,4.1,0,0,1-1.69,1.79A5.3,5.3,0,0,1,897.41,303.68ZM894.94,298h4.93a2.64,2.64,0,0,0-.79-1.72,2.37,2.37,0,0,0-1.68-.65,2.33,2.33,0,0,0-1.67.66A2.55,2.55,0,0,0,894.94,298Z"/><path class="cls-2" d="M949.9,282.69V269.91h2.48v10.6h6.52v2.18Z"/><path class="cls-2" d="M960,279.91a2.63,2.63,0,0,1,1.12-2.22,4.72,4.72,0,0,1,2.93-.85,6,6,0,0,1,2.27.38v-.5a1.76,1.76,0,0,0-.54-1.39,2.27,2.27,0,0,0-1.57-.49,4,4,0,0,0-1.44.26,7.82,7.82,0,0,0-1.51.81l-.78-1.58a7.19,7.19,0,0,1,4-1.23,4.48,4.48,0,0,1,3.14,1A3.66,3.66,0,0,1,968.7,277v3a.85.85,0,0,0,.14.55.55.55,0,0,0,.44.19v2a5.45,5.45,0,0,1-1,.13,1.69,1.69,0,0,1-1.08-.31,1.25,1.25,0,0,1-.47-.81l-.05-.48a4.22,4.22,0,0,1-1.53,1.21,4.35,4.35,0,0,1-1.88.44,3.32,3.32,0,0,1-2.34-.85A2.72,2.72,0,0,1,960,279.91Zm5.87.48a1.24,1.24,0,0,0,.45-.83v-.95a4.83,4.83,0,0,0-1.89-.38,2.63,2.63,0,0,0-1.55.41,1.23,1.23,0,0,0-.6,1.06,1.26,1.26,0,0,0,.46,1,1.72,1.72,0,0,0,1.22.42,2.92,2.92,0,0,0,1-.2A2.54,2.54,0,0,0,965.85,280.39Z"/><path class="cls-2" d="M975.8,282.87a5.41,5.41,0,0,1-2.07-.4,4.6,4.6,0,0,1-1.58-1.07,5.06,5.06,0,0,1-1-1.56,5.22,5.22,0,0,1,.24-4.29,4.57,4.57,0,0,1,1.74-1.78,5.13,5.13,0,0,1,2.64-.67,5,5,0,0,1,2.6.65,4.14,4.14,0,0,1,1.66,1.76l-2.35.72a2.12,2.12,0,0,0-.81-.79,2.25,2.25,0,0,0-1.12-.29,2.29,2.29,0,0,0-1.76.79,3.25,3.25,0,0,0,0,4.07,2.28,2.28,0,0,0,1.75.81,2.24,2.24,0,0,0,1.19-.32,1.69,1.69,0,0,0,.77-.8l2.36.73a3.93,3.93,0,0,1-1.64,1.77A5.13,5.13,0,0,1,975.8,282.87Z"/><path class="cls-2" d="M988.45,282.69l-2.75-4.07-1.29,1.27v2.8H982V269.55h2.41v8l3.8-4.23h2.56l-3.51,4,3.76,5.41Z"/><path class="cls-2" d="M996.66,278a5.09,5.09,0,0,1,.35-1.87,5,5,0,0,1,1-1.56,4.33,4.33,0,0,1,1.57-1.07,5.32,5.32,0,0,1,2.06-.39,5,5,0,0,1,2.62.68,4.52,4.52,0,0,1,1.72,1.78,5.14,5.14,0,0,1,.59,2.43,5.29,5.29,0,0,1-.34,1.86,4.82,4.82,0,0,1-1,1.56,4.4,4.4,0,0,1-1.56,1.06,5.12,5.12,0,0,1-2.06.4,5.5,5.5,0,0,1-1.7-.26,4.31,4.31,0,0,1-1.38-.72,5.13,5.13,0,0,1-1-1.06,4.47,4.47,0,0,1-.64-1.34A5,5,0,0,1,996.66,278Zm5,2.83a2.24,2.24,0,0,0,1.75-.81,3,3,0,0,0,.71-2,3,3,0,0,0-.71-2,2.32,2.32,0,0,0-3.51,0,3.28,3.28,0,0,0,0,4.06A2.29,2.29,0,0,0,1001.62,280.82Z"/><path class="cls-2" d="M1009.1,282.69V275.6h-1.24v-1.84h1.24v-.57a4.18,4.18,0,0,1,.86-2.78,2.79,2.79,0,0,1,2.29-1,5.38,5.38,0,0,1,2.32.56l-.48,1.82a2.65,2.65,0,0,0-1.32-.34,1.07,1.07,0,0,0-.93.43,2,2,0,0,0-.32,1.26v.66h2.3v1.84h-2.3v7.09Z"/><path class="cls-2" d="M1022.43,281v5.48H1020V273.26h2.11v1.62a3.74,3.74,0,0,1,1.37-1.31,3.67,3.67,0,0,1,1.88-.47,4.06,4.06,0,0,1,2.26.65,4.43,4.43,0,0,1,1.58,1.77,5.31,5.31,0,0,1,.57,2.44,5.66,5.66,0,0,1-.53,2.48,4.37,4.37,0,0,1-1.47,1.78,3.71,3.71,0,0,1-2.12.65,3.8,3.8,0,0,1-1.92-.48A3.56,3.56,0,0,1,1022.43,281Zm4.89-3.08a2.82,2.82,0,0,0-.75-2,2.4,2.4,0,0,0-1.86-.81,2.46,2.46,0,0,0-1.38.45,2.27,2.27,0,0,0-.9,1.13V279a3.16,3.16,0,0,0,1,1.34,2.31,2.31,0,0,0,1.43.53,2.16,2.16,0,0,0,1.76-.85A3.06,3.06,0,0,0,1027.32,278Z"/><path class="cls-2" d="M1037.49,275.35a4.58,4.58,0,0,0-2,.43,2.63,2.63,0,0,0-1.23,1.21v5.7h-2.4v-9.43h2.21v2a4.35,4.35,0,0,1,1.28-1.52,2.84,2.84,0,0,1,1.64-.61,2.59,2.59,0,0,1,.48,0Z"/><path class="cls-2" d="M1043.54,282.87a5.12,5.12,0,0,1-2.63-.67,4.55,4.55,0,0,1-1.75-1.76,5,5,0,0,1-.59-2.41,5.26,5.26,0,0,1,.59-2.46,4.58,4.58,0,0,1,1.75-1.8,5.14,5.14,0,0,1,2.65-.67,5.29,5.29,0,0,1,2.06.39,4.34,4.34,0,0,1,1.55,1.07,4.65,4.65,0,0,1,1,1.54,4.93,4.93,0,0,1,.34,1.84,5.82,5.82,0,0,1,0,.81h-7.3a2.48,2.48,0,0,0,.81,1.71,2.43,2.43,0,0,0,1.7.65,2.85,2.85,0,0,0,1.37-.35,1.87,1.87,0,0,0,.86-.93l2.07.58a4.07,4.07,0,0,1-1.69,1.78A5.31,5.31,0,0,1,1043.54,282.87Zm-2.47-5.65H1046a2.64,2.64,0,0,0-.79-1.72,2.47,2.47,0,0,0-3.36,0A2.59,2.59,0,0,0,1041.07,277.22Z"/><path class="cls-2" d="M1065,282.69h-2.41V277.4a2.82,2.82,0,0,0-.38-1.64,1.23,1.23,0,0,0-1.08-.54,2,2,0,0,0-1.35.56,3.16,3.16,0,0,0-.9,1.42v5.49h-2.41V277.4c0-1.45-.49-2.18-1.46-2.18a2,2,0,0,0-1.35.55,2.83,2.83,0,0,0-.9,1.41v5.51h-2.41v-9.43h2.18V275a3.62,3.62,0,0,1,1.44-1.41,4.12,4.12,0,0,1,2.07-.5,2.73,2.73,0,0,1,1.79.55,2.56,2.56,0,0,1,.87,1.45,4.1,4.1,0,0,1,1.46-1.49,4,4,0,0,1,2-.51q2.83,0,2.83,3.7Z"/><path class="cls-2" d="M1067.59,271.94v-2.39H1070v2.39Zm0,10.75v-9.43H1070v9.43Z"/><path class="cls-2" d="M1072.54,279.17v-5.91H1075v5.38c0,1.45.52,2.18,1.56,2.18a2.43,2.43,0,0,0,1.38-.44,3.12,3.12,0,0,0,1.06-1.27v-5.85h2.41V280a.85.85,0,0,0,.13.55.59.59,0,0,0,.45.19v2a6.05,6.05,0,0,1-1,.11,1.75,1.75,0,0,1-1.06-.3,1.12,1.12,0,0,1-.47-.82l0-.75a4.15,4.15,0,0,1-1.61,1.45,5,5,0,0,1-2.19.49,2.65,2.65,0,0,1-2.21-.94A4.3,4.3,0,0,1,1072.54,279.17Z"/><path class="cls-2" d="M1098.85,282.69h-2.41V277.4a2.9,2.9,0,0,0-.38-1.64,1.23,1.23,0,0,0-1.08-.54,2,2,0,0,0-1.35.56,3,3,0,0,0-.9,1.42v5.49h-2.42V277.4c0-1.45-.48-2.18-1.45-2.18a2,2,0,0,0-1.35.55,2.83,2.83,0,0,0-.9,1.41v5.51h-2.41v-9.43h2.18V275a3.66,3.66,0,0,1,1.43-1.41,4.17,4.17,0,0,1,2.07-.5,2.74,2.74,0,0,1,1.8.55,2.56,2.56,0,0,1,.87,1.45,4.1,4.1,0,0,1,1.46-1.49,4,4,0,0,1,2-.51q2.84,0,2.83,3.7Z"/><path class="cls-2" d="M983.23,292.94v-2.39h2.41v2.39Zm0,10.75v-9.43h2.41v9.43Z"/><path class="cls-2" d="M997,303.69h-2.41V298.4c0-1.45-.49-2.18-1.49-2.18a2.4,2.4,0,0,0-1.47.56,2.83,2.83,0,0,0-1,1.4v5.51h-2.41v-9.43h2.18V296A3.64,3.64,0,0,1,992,294.6a4.83,4.83,0,0,1,2.22-.5,3.14,3.14,0,0,1,1.2.21,2.09,2.09,0,0,1,.82.56,2.68,2.68,0,0,1,.5.84,4.76,4.76,0,0,1,.26,1,9.18,9.18,0,0,1,.06,1.09Z"/><path class="cls-2" d="M1002,303.69l-3.48-9.43H1001l2.37,7.24,2.4-7.24h2.29l-3.46,9.43Z"/><path class="cls-2" d="M1013.82,303.87a5.12,5.12,0,0,1-2.63-.67,4.46,4.46,0,0,1-1.74-1.76,4.92,4.92,0,0,1-.6-2.41,5.15,5.15,0,0,1,.6-2.46,4.49,4.49,0,0,1,1.74-1.8,5.14,5.14,0,0,1,2.65-.67,5.29,5.29,0,0,1,2.06.39,4.47,4.47,0,0,1,1.56,1.07,5,5,0,0,1,1,1.54,5.13,5.13,0,0,1,.33,1.84,4.59,4.59,0,0,1,0,.81h-7.29a2.47,2.47,0,0,0,2.5,2.36,2.85,2.85,0,0,0,1.37-.35,1.87,1.87,0,0,0,.86-.93l2.07.58a4.07,4.07,0,0,1-1.69,1.78A5.31,5.31,0,0,1,1013.82,303.87Zm-2.47-5.65h4.93a2.64,2.64,0,0,0-.79-1.72,2.47,2.47,0,0,0-3.36,0A2.59,2.59,0,0,0,1011.35,298.22Z"/><path class="cls-2" d="M1029.43,303.69H1027V298.4c0-1.45-.5-2.18-1.5-2.18a2.4,2.4,0,0,0-1.47.56,2.83,2.83,0,0,0-1,1.4v5.51h-2.41v-9.43h2.18V296a3.64,3.64,0,0,1,1.52-1.41,4.83,4.83,0,0,1,2.22-.5,3.14,3.14,0,0,1,1.2.21,2.21,2.21,0,0,1,.83.56,2.66,2.66,0,0,1,.49.84,4.76,4.76,0,0,1,.26,1,9.18,9.18,0,0,1,.06,1.09Z"/><path class="cls-2" d="M1037.58,303.21a6.56,6.56,0,0,1-2.66.64,3.16,3.16,0,0,1-1-.13,2.35,2.35,0,0,1-.77-.4,1.77,1.77,0,0,1-.54-.73,2.68,2.68,0,0,1-.19-1.06v-5.41h-1.24v-1.86h1.24V291.2h2.41v3.06h2v1.86h-2v4.6c0,.62.32.92.9.92a3.55,3.55,0,0,0,1.32-.34Z"/><path class="cls-2" d="M1038.57,299a5.09,5.09,0,0,1,.35-1.87,5,5,0,0,1,1-1.56,4.29,4.29,0,0,1,1.56-1.07,5.37,5.37,0,0,1,2.07-.39,5,5,0,0,1,2.62.68,4.52,4.52,0,0,1,1.72,1.78,5.14,5.14,0,0,1,.59,2.43,5.08,5.08,0,0,1-.35,1.86,4.8,4.8,0,0,1-1,1.56,4.4,4.4,0,0,1-1.56,1.06,5.15,5.15,0,0,1-2.06.4,5.5,5.5,0,0,1-1.7-.26,4.31,4.31,0,0,1-1.38-.72,5.13,5.13,0,0,1-1-1.06,4.47,4.47,0,0,1-.64-1.34A5,5,0,0,1,1038.57,299Zm5,2.83a2.24,2.24,0,0,0,1.75-.81,3,3,0,0,0,.71-2,3,3,0,0,0-.71-2,2.32,2.32,0,0,0-3.51,0,3.28,3.28,0,0,0,0,4.06A2.29,2.29,0,0,0,1043.53,301.82Z"/><path class="cls-2" d="M1056.14,296.35a4.58,4.58,0,0,0-2,.43,2.63,2.63,0,0,0-1.23,1.21v5.7h-2.41v-9.43h2.22v2a4.35,4.35,0,0,1,1.28-1.52,2.84,2.84,0,0,1,1.64-.61,2.59,2.59,0,0,1,.48,0Z"/><path class="cls-2" d="M1058.13,305.53a4.51,4.51,0,0,0,1.08.18.92.92,0,0,0,.79-.42,5.57,5.57,0,0,0,.67-1.6l-3.73-9.43h2.51l2.54,7,2.23-7h2.3l-4,11.3a3.27,3.27,0,0,1-3.22,2.25,3.7,3.7,0,0,1-1.21-.2Z"/></g></g></svg>