<svg xmlns="http://www.w3.org/2000/svg" viewBox="0 0 1108.15 476.79"><defs><style>.cls-1{fill:#00324a;}.cls-2{fill:#fff;}.cls-3{fill:#62cec0;}.cls-4{fill:#5f6ff6;}.cls-5{fill:#f7d351;}.cls-6{fill:#ff574a;}</style></defs><title>5</title><g id="Capa_2" data-name="Capa 2"><g id="Layer_1" data-name="Layer 1"><path class="cls-1" d="M132.51,20.41a9,9,0,0,1-4-.87,6.25,6.25,0,0,1-2.7-2.42l2.56-2.78a5.82,5.82,0,0,0,1.91,1.58,4.83,4.83,0,0,0,2.25.58,3,3,0,0,0,2.12-.76,2.59,2.59,0,0,0,.81-2,2.57,2.57,0,0,0-2.68-2.69,3.14,3.14,0,0,0-1.45.35,2.56,2.56,0,0,0-1,.95h-4L128.72.26h10.07V4.35H132l-.6,3.39a3,3,0,0,1,2-.51,6.66,6.66,0,0,1,4.8,1.8,6.09,6.09,0,0,1,1.89,4.61A6.22,6.22,0,0,1,138,18.53,8,8,0,0,1,132.51,20.41Z"/><path class="cls-1" d="M150.09,20.33q-4.64,0-6.88-2.86l2.37-3.16a4.76,4.76,0,0,0,1.75,1.39,6,6,0,0,0,2.55.51,4.44,4.44,0,0,0,2.48-.58,1.93,1.93,0,0,0,.86-1.71q0-2.46-4.41-2.46h-.92V8.24h1a5.4,5.4,0,0,0,2.81-.62,1.92,1.92,0,0,0,1-1.73A1.73,1.73,0,0,0,152,4.42a2.86,2.86,0,0,0-1.82-.55,4.24,4.24,0,0,0-2.21.58,4.49,4.49,0,0,0-1.6,1.61l-2.94-3.31A6.49,6.49,0,0,1,146.36.81,12,12,0,0,1,150.6.07a8.35,8.35,0,0,1,5,1.41,4.34,4.34,0,0,1,1.93,3.67,4.37,4.37,0,0,1-1,2.91,4.76,4.76,0,0,1-2.71,1.61,4.71,4.71,0,0,1,3,1.71A5.12,5.12,0,0,1,158,14.71a4.77,4.77,0,0,1-2.16,4.11A9.77,9.77,0,0,1,150.09,20.33Z"/><path class="cls-1" d="M162,20.17V15.6h3.73v4.57Z"/><path class="cls-1" d="M177.19,20.41a8.66,8.66,0,0,1-3.73-.79,6.6,6.6,0,0,1-2.72-2.28,5.74,5.74,0,0,1-1-3.37,4.28,4.28,0,0,1,.83-2.59,6.67,6.67,0,0,1,2-1.82,4.43,4.43,0,0,1-1.6-1.51A3.73,3.73,0,0,1,170.31,6a4.81,4.81,0,0,1,.42-2,5.25,5.25,0,0,1,1.11-1.61,7.43,7.43,0,0,1,1.59-1.15,7.1,7.1,0,0,1,1.85-.72,7.8,7.8,0,0,1,1.91-.23,8,8,0,0,1,2.39.37,8.73,8.73,0,0,1,2.22,1.06,5.48,5.48,0,0,1,1.66,1.79A4.76,4.76,0,0,1,184.1,6,3.81,3.81,0,0,1,183.44,8a4.26,4.26,0,0,1-1.62,1.52,6.24,6.24,0,0,1,2,1.88,4.53,4.53,0,0,1,.83,2.71,5.62,5.62,0,0,1-1,3.29,6.59,6.59,0,0,1-2.72,2.21A9,9,0,0,1,177.19,20.41Zm0-9a3.07,3.07,0,0,0-2,.69,2.26,2.26,0,0,0-.82,1.8,2.17,2.17,0,0,0,.86,1.76,3.07,3.07,0,0,0,2,.7,3,3,0,0,0,2-.72,2.24,2.24,0,0,0,.83-1.77,2.18,2.18,0,0,0-.83-1.79A3.14,3.14,0,0,0,177.19,11.4Zm0-3.36a2.5,2.5,0,0,0,1.57-.53,1.69,1.69,0,0,0,.69-1.43,1.65,1.65,0,0,0-.66-1.32,2.74,2.74,0,0,0-3.21,0,1.67,1.67,0,0,0-.65,1.32,1.71,1.71,0,0,0,.69,1.44A2.51,2.51,0,0,0,177.19,8Z"/><path class="cls-1" d="M188.1,4.32a4,4,0,0,1,1.42-3.06,5.37,5.37,0,0,1,6.91,0,4,4,0,0,1,1.41,3.06,4,4,0,0,1-1.41,3.07A5,5,0,0,1,193,8.65a5,5,0,0,1-3.45-1.26A4,4,0,0,1,188.1,4.32Zm2,14.27,8-9.06,7.3-9.5,2.05,1.8-7.78,8.85-7.58,9.73Zm4.12-12.75a2.4,2.4,0,0,0,.5-1.52,2.35,2.35,0,0,0-.5-1.51A1.5,1.5,0,0,0,193,2.19a1.49,1.49,0,0,0-1.21.63,2.34,2.34,0,0,0-.5,1.5,2.34,2.34,0,0,0,.5,1.52,1.47,1.47,0,0,0,1.21.64A1.5,1.5,0,0,0,194.18,5.84Zm5.48,10.29a4,4,0,0,1,1.42-3.07,5.38,5.38,0,0,1,6.92,0,4,4,0,0,1,1.42,3.07A3.94,3.94,0,0,1,208,19.18a5.38,5.38,0,0,1-6.92,0A3.91,3.91,0,0,1,199.66,16.13Zm6.61,0a2.34,2.34,0,0,0-.51-1.51,1.56,1.56,0,0,0-1.23-.65,1.5,1.5,0,0,0-1.21.64,2.4,2.4,0,0,0-.5,1.52,2.33,2.33,0,0,0,.5,1.51,1.51,1.51,0,0,0,1.21.63,1.57,1.57,0,0,0,1.23-.64A2.31,2.31,0,0,0,206.27,16.13Z"/><path class="cls-1" d="M329.12,55.72V51.55h-8v-4l9.41-11.7h3.1v11.7h2.52v4h-2.52v4.17Zm-3.42-8.18h3.93v-5Z"/><path class="cls-1" d="M347.18,56a8.72,8.72,0,0,1-3.73-.79,6.73,6.73,0,0,1-2.72-2.28,5.78,5.78,0,0,1-1-3.37,4.3,4.3,0,0,1,.83-2.59,6.67,6.67,0,0,1,2-1.82,4.28,4.28,0,0,1-1.6-1.51,3.73,3.73,0,0,1-.63-2.05,4.85,4.85,0,0,1,.42-2A5.09,5.09,0,0,1,341.84,38a7.19,7.19,0,0,1,1.59-1.15,7.89,7.89,0,0,1,1.85-.72,8.29,8.29,0,0,1,1.9-.23,7.71,7.71,0,0,1,2.4.38,9,9,0,0,1,2.22,1,5.42,5.42,0,0,1,1.66,1.8,4.72,4.72,0,0,1,.64,2.43,3.81,3.81,0,0,1-.66,2.09,4.26,4.26,0,0,1-1.62,1.52,6.34,6.34,0,0,1,2,1.88,4.62,4.62,0,0,1,.83,2.71,5.56,5.56,0,0,1-1,3.29,6.49,6.49,0,0,1-2.71,2.21A9,9,0,0,1,347.18,56Zm0-9a3.06,3.06,0,0,0-2,.69,2.23,2.23,0,0,0-.82,1.8,2.21,2.21,0,0,0,.86,1.77,3.11,3.11,0,0,0,2,.69,3,3,0,0,0,2-.71,2.24,2.24,0,0,0,.84-1.77,2.17,2.17,0,0,0-.84-1.8A3.16,3.16,0,0,0,347.18,47Zm0-3.36a2.47,2.47,0,0,0,1.58-.53,1.69,1.69,0,0,0,.69-1.42,1.62,1.62,0,0,0-.66-1.32,2.52,2.52,0,0,0-1.61-.53,2.49,2.49,0,0,0-1.6.53,1.64,1.64,0,0,0-.65,1.32,1.69,1.69,0,0,0,.69,1.43A2.51,2.51,0,0,0,347.18,43.62Z"/><path class="cls-1" d="M358.67,55.75V51.18h3.72v4.57Z"/><path class="cls-1" d="M366.32,55.75a13.51,13.51,0,0,1,.84-5.39,7.58,7.58,0,0,1,3.21-3.27c.34-.21.85-.49,1.52-.84s1.22-.64,1.63-.89a12,12,0,0,0,1.32-.9,3.72,3.72,0,0,0,1-1.17,2.92,2.92,0,0,0,.35-1.41,2.12,2.12,0,0,0-.68-1.68,2.64,2.64,0,0,0-1.79-.58,5.12,5.12,0,0,0-2.45.64,9.21,9.21,0,0,0-2.1,1.57l-2.85-3a9.75,9.75,0,0,1,3.26-2.23,11.3,11.3,0,0,1,4.77-1,7.62,7.62,0,0,1,5.17,1.61,5.49,5.49,0,0,1,1.84,4.35,6.33,6.33,0,0,1-.23,1.72,5.67,5.67,0,0,1-.63,1.43,6.11,6.11,0,0,1-1,1.21,10.26,10.26,0,0,1-1.22,1c-.41.3-.89.61-1.44.94a26.37,26.37,0,0,0-3.37,2.11A6.73,6.73,0,0,0,372,51.71h9.44v4Z"/><path class="cls-1" d="M385.09,39.9a4,4,0,0,1,1.42-3,5.33,5.33,0,0,1,6.91,0,4,4,0,0,1,0,6.12,5.33,5.33,0,0,1-6.91,0A4,4,0,0,1,385.09,39.9Zm2,14.28,8-9.07,7.3-9.5,2.05,1.8-7.78,8.85L389.08,56Zm4.12-12.75a2.42,2.42,0,0,0,.5-1.53,2.37,2.37,0,0,0-.5-1.51,1.53,1.53,0,0,0-1.21-.62,1.47,1.47,0,0,0-1.21.64,2.3,2.3,0,0,0-.51,1.49,2.37,2.37,0,0,0,.51,1.53,1.49,1.49,0,0,0,1.21.63A1.51,1.51,0,0,0,391.18,41.43Zm5.48,10.28a3.93,3.93,0,0,1,1.42-3.06,5.33,5.33,0,0,1,6.91,0,4,4,0,0,1,0,6.11,5.37,5.37,0,0,1-6.91,0A3.91,3.91,0,0,1,396.66,51.71Zm6.61,0a2.31,2.31,0,0,0-.52-1.51,1.53,1.53,0,0,0-1.22-.65,1.51,1.51,0,0,0-1.21.64,2.56,2.56,0,0,0,0,3,1.49,1.49,0,0,0,2.43,0A2.26,2.26,0,0,0,403.27,51.71Z"/><path class="cls-1" d="M519.83,83.74V79.57h-8v-4l9.41-11.7h3.1v11.7h2.52v4h-2.52v4.17Zm-3.42-8.17h3.93v-5Z"/><path class="cls-1" d="M530.37,83.77a13.56,13.56,0,0,1,.83-5.39,7.65,7.65,0,0,1,3.22-3.26c.34-.21.85-.49,1.52-.84s1.21-.65,1.63-.89a11.91,11.91,0,0,0,1.31-.9,3.9,3.9,0,0,0,1-1.18,2.87,2.87,0,0,0,.34-1.4,2.1,2.1,0,0,0-.67-1.68,2.6,2.6,0,0,0-1.79-.59,5.11,5.11,0,0,0-2.45.65,8.7,8.7,0,0,0-2.1,1.56l-2.86-3a9.87,9.87,0,0,1,3.26-2.24,11.33,11.33,0,0,1,4.77-1,7.57,7.57,0,0,1,5.17,1.62,5.47,5.47,0,0,1,1.85,4.34,6,6,0,0,1-.24,1.73,5.84,5.84,0,0,1-.63,1.43,7.11,7.11,0,0,1-1,1.21,10.49,10.49,0,0,1-1.23,1c-.41.29-.89.61-1.44.93a28.06,28.06,0,0,0-3.36,2.11A6.57,6.57,0,0,0,536,79.74h9.44v4Z"/><path class="cls-1" d="M549.71,83.77V79.21h3.73v4.56Z"/><path class="cls-1" d="M564.9,84a8.67,8.67,0,0,1-3.73-.8A6.5,6.5,0,0,1,558.45,81a5.74,5.74,0,0,1-1-3.37,4.26,4.26,0,0,1,.83-2.59,6.84,6.84,0,0,1,2-1.83,4.4,4.4,0,0,1-1.6-1.5,3.76,3.76,0,0,1-.63-2,4.89,4.89,0,0,1,.42-2,5.09,5.09,0,0,1,1.11-1.6,7.73,7.73,0,0,1,1.59-1.16,7.89,7.89,0,0,1,1.85-.72,8.31,8.31,0,0,1,1.91-.23,8,8,0,0,1,2.39.38,8.41,8.41,0,0,1,2.22,1.06,5.29,5.29,0,0,1,1.66,1.79,4.75,4.75,0,0,1,.64,2.43,3.81,3.81,0,0,1-.66,2.09,4.19,4.19,0,0,1-1.62,1.52,6.35,6.35,0,0,1,2,1.88,4.58,4.58,0,0,1,.83,2.72,5.59,5.59,0,0,1-1,3.28,6.51,6.51,0,0,1-2.72,2.21A9,9,0,0,1,564.9,84Zm0-9a3.07,3.07,0,0,0-2,.69,2.26,2.26,0,0,0-.82,1.8,2.19,2.19,0,0,0,.86,1.76,3.12,3.12,0,0,0,2,.7,3,3,0,0,0,2-.72,2.26,2.26,0,0,0,.83-1.77,2.19,2.19,0,0,0-.83-1.8A3.19,3.19,0,0,0,564.9,75Zm0-3.37a2.49,2.49,0,0,0,1.57-.52,1.7,1.7,0,0,0,.69-1.43,1.62,1.62,0,0,0-.66-1.32,2.49,2.49,0,0,0-1.6-.53,2.45,2.45,0,0,0-1.6.53,1.62,1.62,0,0,0-.66,1.32,1.68,1.68,0,0,0,.69,1.43A2.51,2.51,0,0,0,564.9,71.64Z"/><path class="cls-1" d="M575.81,67.93a3.93,3.93,0,0,1,1.42-3.06,5.37,5.37,0,0,1,6.91,0,4,4,0,0,1,0,6.13,5.37,5.37,0,0,1-6.91,0A4,4,0,0,1,575.81,67.93Zm2,14.27,8-9.07,7.3-9.5,2,1.81-7.78,8.84L579.79,84Zm4.12-12.75a2.4,2.4,0,0,0,.5-1.52,2.33,2.33,0,0,0-.5-1.51,1.51,1.51,0,0,0-1.21-.63,1.47,1.47,0,0,0-1.21.64,2.3,2.3,0,0,0-.5,1.5,2.34,2.34,0,0,0,.5,1.52,1.5,1.5,0,0,0,1.21.64A1.52,1.52,0,0,0,581.89,69.45Zm5.48,10.29a4,4,0,0,1,1.42-3.07,5.35,5.35,0,0,1,6.92,0,4,4,0,0,1,0,6.12,5.41,5.41,0,0,1-6.92,0A3.93,3.93,0,0,1,587.37,79.74Zm6.61,0a2.38,2.38,0,0,0-.51-1.52,1.53,1.53,0,0,0-1.23-.64,1.5,1.5,0,0,0-1.21.63,2.44,2.44,0,0,0-.5,1.53,2.37,2.37,0,0,0,.5,1.51,1.52,1.52,0,0,0,1.21.62,1.55,1.55,0,0,0,1.23-.63A2.35,2.35,0,0,0,594,79.74Z"/><path class="cls-1" d="M714.16,116q-4.63,0-6.87-2.86l2.36-3.15a4.88,4.88,0,0,0,1.76,1.38,5.9,5.9,0,0,0,2.54.52,4.48,4.48,0,0,0,2.48-.58,1.93,1.93,0,0,0,.86-1.72q0-2.46-4.41-2.46H712v-3.21h1a5.35,5.35,0,0,0,2.8-.63,1.93,1.93,0,0,0,1-1.73,1.76,1.76,0,0,0-.71-1.47,2.86,2.86,0,0,0-1.82-.55,4.28,4.28,0,0,0-2.22.58,4.57,4.57,0,0,0-1.6,1.61l-2.93-3.31a6.49,6.49,0,0,1,2.94-1.94,12.16,12.16,0,0,1,4.24-.74,8.35,8.35,0,0,1,5,1.41,4.36,4.36,0,0,1,1.93,3.68,4.41,4.41,0,0,1-1,2.9,4.7,4.7,0,0,1-2.72,1.61,4.71,4.71,0,0,1,3,1.71,5.13,5.13,0,0,1,1.15,3.33,4.77,4.77,0,0,1-2.16,4.11A9.73,9.73,0,0,1,714.16,116Z"/><path class="cls-1" d="M732.23,116.09a9.06,9.06,0,0,1-4-.86,6.35,6.35,0,0,1-2.71-2.43l2.56-2.78A5.86,5.86,0,0,0,730,111.6a4.8,4.8,0,0,0,2.25.58,3,3,0,0,0,2.12-.76,2.57,2.57,0,0,0,.81-2,2.59,2.59,0,0,0-2.68-2.7,3.11,3.11,0,0,0-1.45.35,2.5,2.5,0,0,0-1,1h-3.95l2.36-12.1H738.5V100h-6.76l-.6,3.39a3,3,0,0,1,2-.51,6.69,6.69,0,0,1,4.81,1.8,6.1,6.1,0,0,1,1.89,4.62,6.21,6.21,0,0,1-2.15,4.88A8.08,8.08,0,0,1,732.23,116.09Z"/><path class="cls-1" d="M743.74,115.85v-4.57h3.73v4.57Z"/><path class="cls-1" d="M753.4,107.46a6.15,6.15,0,0,1-2-4.68,6.65,6.65,0,0,1,1-3.53A6.88,6.88,0,0,1,755,96.73a7.91,7.91,0,0,1,3.82-.93,6.7,6.7,0,0,1,5.53,2.5,10.78,10.78,0,0,1,2,6.94c0,3.44-.71,6.12-2.13,8a6.88,6.88,0,0,1-5.84,2.86,8.14,8.14,0,0,1-3.51-.76,8.23,8.23,0,0,1-2.85-2.18l2.56-2.84a5.2,5.2,0,0,0,1.74,1.4,4.77,4.77,0,0,0,2.11.5,3.31,3.31,0,0,0,2.68-1.19,5.22,5.22,0,0,0,1-3.32,4.29,4.29,0,0,1-3.7,1.62A7.17,7.17,0,0,1,753.4,107.46Zm7.65-6.93a3,3,0,0,0-4.4,0,3.1,3.1,0,0,0-.93,2.25,2.87,2.87,0,0,0,.92,2.14,3.23,3.23,0,0,0,4.43,0,2.84,2.84,0,0,0,.93-2.14A3.08,3.08,0,0,0,761.05,100.53Z"/><path class="cls-1" d="M769.83,100a4,4,0,0,1,1.42-3,5.33,5.33,0,0,1,6.91,0,4,4,0,0,1,0,6.12,5.33,5.33,0,0,1-6.91,0A4,4,0,0,1,769.83,100Zm2,14.28,8-9.07,7.3-9.5,2,1.8-7.78,8.85-7.59,9.73Zm4.11-12.75a2.39,2.39,0,0,0,.51-1.53,2.32,2.32,0,0,0-.51-1.51,1.48,1.48,0,0,0-2.42,0,2.4,2.4,0,0,0-.5,1.5,2.44,2.44,0,0,0,.5,1.53,1.51,1.51,0,0,0,1.21.63A1.49,1.49,0,0,0,775.91,101.53Zm5.49,10.28a3.93,3.93,0,0,1,1.42-3.06,5.33,5.33,0,0,1,6.91,0,4,4,0,0,1,0,6.11,5.37,5.37,0,0,1-6.91,0A3.91,3.91,0,0,1,781.4,111.81Zm6.61,0a2.31,2.31,0,0,0-.52-1.51,1.53,1.53,0,0,0-1.22-.65,1.51,1.51,0,0,0-1.21.64,2.56,2.56,0,0,0,0,3,1.49,1.49,0,0,0,2.43,0A2.26,2.26,0,0,0,788,111.81Z"/><path class="cls-1" d="M902.48,182.37v4H890.19v-4h4V170.75a6.26,6.26,0,0,1-2.05,1.55,5.62,5.62,0,0,1-2.62.85V169a3.49,3.49,0,0,0,1.26-.27,6.76,6.76,0,0,0,1.26-.64,12.82,12.82,0,0,0,1.07-.78c.33-.27.59-.49.78-.67a2.55,2.55,0,0,0,.3-.32h4.65v16Z"/><path class="cls-1" d="M907.5,178a6.12,6.12,0,0,1-2-4.68,6.74,6.74,0,0,1,1-3.53,6.91,6.91,0,0,1,2.7-2.52,7.88,7.88,0,0,1,3.82-.92,6.7,6.7,0,0,1,5.53,2.49,10.84,10.84,0,0,1,2,6.94c0,3.45-.71,6.12-2.13,8a6.9,6.9,0,0,1-5.85,2.85,8.1,8.1,0,0,1-3.5-.76,8.36,8.36,0,0,1-2.86-2.18l2.56-2.84a5.24,5.24,0,0,0,1.75,1.4,4.71,4.71,0,0,0,2.11.5,3.3,3.3,0,0,0,2.67-1.19,5.22,5.22,0,0,0,1-3.32,4.3,4.3,0,0,1-3.7,1.63A7.16,7.16,0,0,1,907.5,178Zm7.65-6.93a3,3,0,0,0-2.2-1,3,3,0,0,0-2.2,1,3.1,3.1,0,0,0-.93,2.25,2.86,2.86,0,0,0,.91,2.14,3.24,3.24,0,0,0,4.44,0,2.87,2.87,0,0,0,.92-2.14A3.07,3.07,0,0,0,915.15,171.08Z"/><path class="cls-1" d="M924.5,186.4v-4.57h3.73v4.57Z"/><path class="cls-1" d="M939.74,186.37V182.2h-8v-4l9.41-11.71h3.1V178.2h2.52v4h-2.52v4.17Zm-3.42-8.17h3.93v-5Z"/><path class="cls-1" d="M950.14,170.55a4,4,0,0,1,1.41-3.05,5.33,5.33,0,0,1,6.91,0,4,4,0,0,1,0,6.12,5.33,5.33,0,0,1-6.91,0A4,4,0,0,1,950.14,170.55Zm2,14.28,8-9.07,7.3-9.5,2.05,1.81-7.78,8.84-7.58,9.74Zm4.12-12.75a2.42,2.42,0,0,0,.5-1.53,2.37,2.37,0,0,0-.5-1.51,1.53,1.53,0,0,0-1.21-.62,1.47,1.47,0,0,0-1.21.64,2.3,2.3,0,0,0-.51,1.49,2.37,2.37,0,0,0,.51,1.53,1.49,1.49,0,0,0,1.21.63A1.51,1.51,0,0,0,956.22,172.08Zm5.48,10.29a3.94,3.94,0,0,1,1.42-3.07,5.33,5.33,0,0,1,6.91,0,4,4,0,0,1,0,6.12,5.4,5.4,0,0,1-6.91,0A3.93,3.93,0,0,1,961.7,182.37Zm6.61,0a2.32,2.32,0,0,0-.52-1.52,1.48,1.48,0,0,0-2.43,0,2.37,2.37,0,0,0-.5,1.53,2.31,2.31,0,0,0,.5,1.51,1.49,1.49,0,0,0,2.43,0A2.26,2.26,0,0,0,968.31,182.37Z"/><path class="cls-1" d="M900.21,420.18h-4.09v10.6h-2.46v-10.6h-4.09V418h10.64Z"/><path class="cls-1" d="M899.8,428a2.67,2.67,0,0,1,1.13-2.22,4.78,4.78,0,0,1,2.93-.85,6,6,0,0,1,2.26.38v-.5a1.77,1.77,0,0,0-.53-1.39,2.28,2.28,0,0,0-1.58-.48,3.91,3.91,0,0,0-1.44.26,8,8,0,0,0-1.5.8l-.78-1.58a7.19,7.19,0,0,1,4-1.23,4.52,4.52,0,0,1,3.14,1,3.66,3.66,0,0,1,1.12,2.88v3a.94.94,0,0,0,.13.55.63.63,0,0,0,.45.19v2a5.34,5.34,0,0,1-1,.12,1.68,1.68,0,0,1-1.07-.3,1.29,1.29,0,0,1-.47-.82l-.06-.48a4.13,4.13,0,0,1-1.52,1.22,4.34,4.34,0,0,1-1.88.43,3.36,3.36,0,0,1-2.34-.84A2.75,2.75,0,0,1,899.8,428Zm5.88.48a1.26,1.26,0,0,0,.44-.82v-1a4.94,4.94,0,0,0-1.89-.38,2.69,2.69,0,0,0-1.54.41,1.24,1.24,0,0,0-.6,1.07,1.29,1.29,0,0,0,.46,1,1.72,1.72,0,0,0,1.22.41,2.91,2.91,0,0,0,1.05-.19A2.72,2.72,0,0,0,905.68,428.47Z"/><path class="cls-1" d="M916.85,423.43a4.58,4.58,0,0,0-2,.44,2.56,2.56,0,0,0-1.23,1.2v5.71h-2.41v-9.43h2.22v2a4.3,4.3,0,0,1,1.28-1.53,3,3,0,0,1,1.64-.61,4.06,4.06,0,0,1,.48,0Z"/><path class="cls-1" d="M918,426.06a5.44,5.44,0,0,1,.56-2.47,4.37,4.37,0,0,1,1.56-1.76,4.13,4.13,0,0,1,2.28-.65,3.75,3.75,0,0,1,1.9.48,4.13,4.13,0,0,1,1.39,1.34v-1.65h2.11v9a4.21,4.21,0,0,1-.68,2.38,4.26,4.26,0,0,1-1.86,1.56,6.6,6.6,0,0,1-2.7.52,5.86,5.86,0,0,1-2.55-.5,5.23,5.23,0,0,1-1.86-1.47l1.31-1.27a3.75,3.75,0,0,0,1.37,1,4,4,0,0,0,1.73.38,3.83,3.83,0,0,0,1.09-.15,2.83,2.83,0,0,0,.89-.48,2,2,0,0,0,.62-.83,2.92,2.92,0,0,0,.23-1.18v-1.19a3.35,3.35,0,0,1-1.31,1.25,4,4,0,0,1-4-.21,4.28,4.28,0,0,1-1.52-1.74A5.43,5.43,0,0,1,918,426.06Zm7.39,1.26v-2.25a3,3,0,0,0-1-1.32,2.42,2.42,0,0,0-1.46-.51,2.15,2.15,0,0,0-1.76.86,3.19,3.19,0,0,0-.69,2,2.74,2.74,0,0,0,.75,2,2.4,2.4,0,0,0,1.84.8,2.47,2.47,0,0,0,1.42-.45A2.54,2.54,0,0,0,925.38,427.32Z"/><path class="cls-1" d="M934.79,431a5.12,5.12,0,0,1-2.63-.67,4.48,4.48,0,0,1-1.75-1.76,4.9,4.9,0,0,1-.59-2.4,5.15,5.15,0,0,1,.59-2.47,4.56,4.56,0,0,1,1.75-1.79,5.05,5.05,0,0,1,2.65-.68,5.32,5.32,0,0,1,2.06.39,4.47,4.47,0,0,1,1.55,1.07,4.65,4.65,0,0,1,1,1.54,5,5,0,0,1,.34,1.84,5.71,5.71,0,0,1-.05.81h-7.3a2.5,2.5,0,0,0,.81,1.72,2.47,2.47,0,0,0,1.7.64,2.7,2.7,0,0,0,1.36-.35,1.85,1.85,0,0,0,.87-.93l2.07.58a4.17,4.17,0,0,1-1.7,1.79A5.24,5.24,0,0,1,934.79,431Zm-2.47-5.65h4.93a2.64,2.64,0,0,0-.79-1.72,2.4,2.4,0,0,0-1.69-.65,2.35,2.35,0,0,0-1.67.66A2.58,2.58,0,0,0,932.32,425.3Z"/><path class="cls-1" d="M947.2,430.29a6.56,6.56,0,0,1-2.66.64,3.16,3.16,0,0,1-.95-.13,2.35,2.35,0,0,1-.77-.4,1.8,1.8,0,0,1-.54-.72,2.73,2.73,0,0,1-.19-1.07V423.2h-1.24v-1.85h1.24v-3.06h2.41v3.06h2v1.85h-2v4.61c0,.61.32.92.9.92a3.76,3.76,0,0,0,1.32-.34Z"/><path class="cls-1" d="M948.91,420v-2.39h2.41V420Zm0,10.75v-9.43h2.41v9.43Z"/><path class="cls-1" d="M962.71,430.78H960.3v-5.29c0-1.46-.5-2.18-1.49-2.18a2.34,2.34,0,0,0-1.47.56,2.75,2.75,0,0,0-1,1.4v5.51H954v-9.43h2.18v1.74a3.69,3.69,0,0,1,1.52-1.4,4.83,4.83,0,0,1,2.22-.51,3.14,3.14,0,0,1,1.2.21,2.29,2.29,0,0,1,.82.56,2.62,2.62,0,0,1,.5.85,4.49,4.49,0,0,1,.25,1,7.45,7.45,0,0,1,.07,1.1Z"/><path class="cls-1" d="M964.7,426.06a5.43,5.43,0,0,1,.55-2.47,4.32,4.32,0,0,1,1.57-1.76,4.12,4.12,0,0,1,2.27-.65,3.75,3.75,0,0,1,1.9.48,4.16,4.16,0,0,1,1.4,1.34v-1.65h2.11v9a4.21,4.21,0,0,1-.68,2.38,4.34,4.34,0,0,1-1.87,1.56,6.55,6.55,0,0,1-2.69.52,5.86,5.86,0,0,1-2.55-.5,5.06,5.06,0,0,1-1.86-1.47l1.31-1.27a3.72,3.72,0,0,0,1.36,1,4,4,0,0,0,1.74.38,3.71,3.71,0,0,0,1.08-.15,3,3,0,0,0,.9-.48,2,2,0,0,0,.62-.83,2.92,2.92,0,0,0,.22-1.18v-1.19a3.29,3.29,0,0,1-1.31,1.25,4,4,0,0,1-4-.21,4.26,4.26,0,0,1-1.51-1.74A5.29,5.29,0,0,1,964.7,426.06Zm7.38,1.26v-2.25a2.88,2.88,0,0,0-1-1.32,2.4,2.4,0,0,0-1.45-.51,2.13,2.13,0,0,0-1.76.86,3.19,3.19,0,0,0-.69,2,2.78,2.78,0,0,0,.74,2,2.49,2.49,0,0,0,3.26.35A2.54,2.54,0,0,0,972.08,427.32Z"/><path class="cls-1" d="M888.53,452a5.18,5.18,0,0,1-2.06-.4,4.41,4.41,0,0,1-1.59-1.07,5.14,5.14,0,0,1-.75-5.85,4.62,4.62,0,0,1,1.74-1.77,5.49,5.49,0,0,1,5.24,0,4.13,4.13,0,0,1,1.67,1.77l-2.36.72a2.14,2.14,0,0,0-.81-.8,2.23,2.23,0,0,0-1.11-.28,2.26,2.26,0,0,0-1.77.79,2.91,2.91,0,0,0-.7,2,3,3,0,0,0,.72,2,2.25,2.25,0,0,0,1.75.81,2.38,2.38,0,0,0,1.19-.31,1.84,1.84,0,0,0,.77-.8l2.35.72a4,4,0,0,1-1.63,1.77A5.09,5.09,0,0,1,888.53,452Z"/><path class="cls-1" d="M894.05,447.07a5.13,5.13,0,0,1,.35-1.87,5,5,0,0,1,1-1.56,4.55,4.55,0,0,1,1.57-1.07,5.32,5.32,0,0,1,2.06-.39,5,5,0,0,1,2.62.68,4.55,4.55,0,0,1,1.73,1.78,5.25,5.25,0,0,1,.58,2.43,5.07,5.07,0,0,1-.34,1.86,5,5,0,0,1-1,1.56,4.55,4.55,0,0,1-1.57,1.07,5.66,5.66,0,0,1-3.76.13,4.74,4.74,0,0,1-1.38-.71,5.18,5.18,0,0,1-1-1.07,4.6,4.6,0,0,1-.64-1.34A5,5,0,0,1,894.05,447.07Zm5,2.83a2.24,2.24,0,0,0,1.75-.8,3,3,0,0,0,.71-2,2.93,2.93,0,0,0-.71-2,2.21,2.21,0,0,0-1.75-.8,2.25,2.25,0,0,0-1.76.8,3,3,0,0,0-.71,2,2.91,2.91,0,0,0,.71,2A2.23,2.23,0,0,0,899,449.9Z"/><path class="cls-1" d="M914.77,451.78h-2.41v-5.29c0-1.46-.5-2.18-1.49-2.18a2.34,2.34,0,0,0-1.47.56,2.75,2.75,0,0,0-1,1.4v5.51H906v-9.43h2.18v1.74a3.69,3.69,0,0,1,1.52-1.4,4.83,4.83,0,0,1,2.22-.51,3.14,3.14,0,0,1,1.2.21,2.29,2.29,0,0,1,.82.56,2.62,2.62,0,0,1,.5.85,4.49,4.49,0,0,1,.25,1,7.45,7.45,0,0,1,.07,1.1Z"/><path class="cls-1" d="M920.79,452a6.66,6.66,0,0,1-2.32-.4,5.24,5.24,0,0,1-1.87-1.16l.86-1.57a5.33,5.33,0,0,0,3.24,1.34,2.15,2.15,0,0,0,1.13-.26.82.82,0,0,0,.42-.75,1.25,1.25,0,0,0,0-.21.56.56,0,0,0-.09-.17,1,1,0,0,0-.12-.15.59.59,0,0,0-.18-.13l-.22-.1-.28-.11-.31-.09-.36-.11-.4-.12c-.46-.14-.84-.28-1.13-.39a7,7,0,0,1-.87-.42,2.18,2.18,0,0,1-.65-.5,2,2,0,0,1-.37-.62,2.37,2.37,0,0,1-.13-.83,2.69,2.69,0,0,1,1-2.21,4.38,4.38,0,0,1,2.78-.83,5,5,0,0,1,3.54,1.34l-1,1.53a4.47,4.47,0,0,0-2.68-1.08,2.18,2.18,0,0,0-1.05.22.81.81,0,0,0-.41.75.75.75,0,0,0,.37.69,5.69,5.69,0,0,0,1.34.5c.52.15.94.28,1.24.39a7.57,7.57,0,0,1,.95.41,2.44,2.44,0,0,1,.73.51,2,2,0,0,1,.41.66,2.21,2.21,0,0,1,.16.89,2.62,2.62,0,0,1-1,2.19A4.39,4.39,0,0,1,920.79,452Z"/><path class="cls-1" d="M926.57,448.25v-5.9H929v5.37c0,1.46.52,2.18,1.56,2.18a2.36,2.36,0,0,0,1.38-.44,3,3,0,0,0,1.05-1.27v-5.84h2.41v6.73a.94.94,0,0,0,.13.55.63.63,0,0,0,.45.19v2a5.77,5.77,0,0,1-1,.1,1.8,1.8,0,0,1-1.06-.29,1.14,1.14,0,0,1-.47-.82l0-.76a4.14,4.14,0,0,1-1.61,1.45,4.82,4.82,0,0,1-2.19.49,2.69,2.69,0,0,1-2.22-.94A4.36,4.36,0,0,1,926.57,448.25Z"/><path class="cls-1" d="M952.88,451.78h-2.41v-5.29a2.88,2.88,0,0,0-.38-1.64,1.23,1.23,0,0,0-1.08-.54,2,2,0,0,0-1.35.55,3,3,0,0,0-.9,1.42v5.5h-2.42v-5.29c0-1.46-.49-2.18-1.46-2.18a2.08,2.08,0,0,0-1.35.54,3,3,0,0,0-.9,1.42v5.51h-2.41v-9.43h2.18v1.74a3.75,3.75,0,0,1,1.44-1.41,4.28,4.28,0,0,1,2.07-.5,2.74,2.74,0,0,1,1.79.56,2.51,2.51,0,0,1,.87,1.44A4,4,0,0,1,948,442.7a3.86,3.86,0,0,1,2-.52c1.88,0,2.83,1.24,2.83,3.71Z"/><path class="cls-1" d="M959.8,452a5.06,5.06,0,0,1-2.62-.67,4.42,4.42,0,0,1-1.75-1.76,4.91,4.91,0,0,1-.6-2.4,5.16,5.16,0,0,1,.6-2.47,4.49,4.49,0,0,1,1.75-1.79,5,5,0,0,1,2.64-.68,5.29,5.29,0,0,1,2.06.39,4.51,4.51,0,0,1,1.56,1.07,5,5,0,0,1,1,1.54,5.17,5.17,0,0,1,.33,1.84,4.53,4.53,0,0,1-.05.81h-7.29a2.45,2.45,0,0,0,.8,1.72,2.48,2.48,0,0,0,1.7.64,2.74,2.74,0,0,0,1.37-.35,1.87,1.87,0,0,0,.86-.93l2.07.58a4.15,4.15,0,0,1-1.69,1.79A5.3,5.3,0,0,1,959.8,452Zm-2.47-5.65h4.93a2.64,2.64,0,0,0-.79-1.72,2.37,2.37,0,0,0-1.68-.65,2.33,2.33,0,0,0-1.67.66A2.55,2.55,0,0,0,957.33,446.3Z"/><path class="cls-1" d="M972.27,444.43a4.58,4.58,0,0,0-2,.44,2.56,2.56,0,0,0-1.23,1.2v5.71h-2.41v-9.43h2.22v2a4.38,4.38,0,0,1,1.27-1.53,3,3,0,0,1,1.64-.61,4.14,4.14,0,0,1,.49,0Z"/><path class="cls-1" d="M977.53,452a6.7,6.7,0,0,1-2.32-.4,5.33,5.33,0,0,1-1.87-1.16l.86-1.57a5.33,5.33,0,0,0,3.25,1.34,2.11,2.11,0,0,0,1.12-.26.82.82,0,0,0,.42-.75,1.25,1.25,0,0,0,0-.21.32.32,0,0,0-.09-.17,1,1,0,0,0-.12-.15.59.59,0,0,0-.18-.13l-.22-.1-.28-.11-.3-.09-.37-.11L977,448c-.46-.14-.84-.28-1.13-.39a7,7,0,0,1-.87-.42,2.18,2.18,0,0,1-.65-.5A2,2,0,0,1,974,446a2.16,2.16,0,0,1-.14-.83,2.67,2.67,0,0,1,1-2.21,4.33,4.33,0,0,1,2.77-.83,5,5,0,0,1,3.54,1.34l-1,1.53a4.47,4.47,0,0,0-2.68-1.08,2.21,2.21,0,0,0-1.05.22.81.81,0,0,0-.41.75.75.75,0,0,0,.37.69,5.69,5.69,0,0,0,1.34.5c.52.15.94.28,1.24.39a7.57,7.57,0,0,1,1,.41,2.65,2.65,0,0,1,.74.51,2.15,2.15,0,0,1,.4.66,2.21,2.21,0,0,1,.16.89,2.62,2.62,0,0,1-1,2.19A4.37,4.37,0,0,1,977.53,452Z"/><path class="cls-1" d="M906,462v-2.39h2.41V462Zm0,10.75v-9.43h2.41v9.43Z"/><path class="cls-1" d="M919.79,472.78h-2.41v-5.29c0-1.46-.5-2.18-1.49-2.18a2.34,2.34,0,0,0-1.47.56,2.83,2.83,0,0,0-1,1.4v5.51H911v-9.43h2.18v1.74a3.69,3.69,0,0,1,1.52-1.4,4.83,4.83,0,0,1,2.22-.51,3.14,3.14,0,0,1,1.2.21,2.29,2.29,0,0,1,.82.56,2.62,2.62,0,0,1,.5.85,4.49,4.49,0,0,1,.25,1,7.45,7.45,0,0,1,.07,1.1Z"/><path class="cls-1" d="M926.54,468.06a5.44,5.44,0,0,1,.56-2.47,4.37,4.37,0,0,1,1.56-1.76,4.13,4.13,0,0,1,2.28-.65,3.75,3.75,0,0,1,1.9.48,4.13,4.13,0,0,1,1.39,1.34v-1.65h2.11v9a4.21,4.21,0,0,1-.68,2.38,4.26,4.26,0,0,1-1.86,1.56,6.6,6.6,0,0,1-2.7.52,5.86,5.86,0,0,1-2.55-.5,5.23,5.23,0,0,1-1.86-1.47l1.31-1.27a3.75,3.75,0,0,0,1.37,1,4,4,0,0,0,1.73.38,3.71,3.71,0,0,0,1.08-.15,2.78,2.78,0,0,0,.9-.48,2,2,0,0,0,.62-.83,2.92,2.92,0,0,0,.23-1.18v-1.19a3.35,3.35,0,0,1-1.31,1.25,4,4,0,0,1-4-.21,4.28,4.28,0,0,1-1.52-1.74A5.43,5.43,0,0,1,926.54,468.06Zm7.39,1.26v-2.25a3,3,0,0,0-1-1.32,2.42,2.42,0,0,0-1.46-.51,2.15,2.15,0,0,0-1.76.86,3.19,3.19,0,0,0-.69,2,2.74,2.74,0,0,0,.75,2,2.4,2.4,0,0,0,1.84.8,2.47,2.47,0,0,0,1.42-.45A2.54,2.54,0,0,0,933.93,469.32Z"/><path class="cls-1" d="M943.34,473a5.12,5.12,0,0,1-2.63-.67,4.48,4.48,0,0,1-1.75-1.76,4.9,4.9,0,0,1-.59-2.4,5.15,5.15,0,0,1,.59-2.47,4.56,4.56,0,0,1,1.75-1.79,5.05,5.05,0,0,1,2.65-.68,5.32,5.32,0,0,1,2.06.39,4.47,4.47,0,0,1,1.55,1.07,4.65,4.65,0,0,1,1,1.54,5,5,0,0,1,.34,1.84,5.71,5.71,0,0,1,0,.81h-7.3a2.5,2.5,0,0,0,.81,1.72,2.47,2.47,0,0,0,1.7.64,2.7,2.7,0,0,0,1.36-.35,1.85,1.85,0,0,0,.87-.93l2.07.58a4.17,4.17,0,0,1-1.7,1.79A5.24,5.24,0,0,1,943.34,473Zm-2.47-5.65h4.93a2.64,2.64,0,0,0-.79-1.72,2.4,2.4,0,0,0-1.69-.65,2.35,2.35,0,0,0-1.67.66A2.58,2.58,0,0,0,940.87,467.3Z"/><path class="cls-1" d="M949.59,468.07a5.13,5.13,0,0,1,.35-1.87,5,5,0,0,1,1-1.56,4.46,4.46,0,0,1,1.57-1.07,5.32,5.32,0,0,1,2.06-.39,5,5,0,0,1,2.62.68,4.52,4.52,0,0,1,1.72,1.78,5.14,5.14,0,0,1,.59,2.43,5.29,5.29,0,0,1-.34,1.86,4.82,4.82,0,0,1-1,1.56,4.42,4.42,0,0,1-1.56,1.07,5.29,5.29,0,0,1-2.06.39,5.22,5.22,0,0,1-1.7-.26,4.5,4.5,0,0,1-1.38-.71,5.18,5.18,0,0,1-1-1.07,4.6,4.6,0,0,1-.64-1.34A5,5,0,0,1,949.59,468.07Zm5,2.83a2.24,2.24,0,0,0,1.75-.8,3,3,0,0,0,.71-2,2.93,2.93,0,0,0-.71-2,2.33,2.33,0,0,0-3.51,0,3,3,0,0,0-.71,2,2.91,2.91,0,0,0,.71,2A2.22,2.22,0,0,0,954.55,470.9Z"/><path class="cls-1" d="M695.78,417.93a6,6,0,0,1,3,.75,4.76,4.76,0,0,1,2,2L698.84,422a3,3,0,0,0-.85-1.13,3.27,3.27,0,0,0-1.1-.61,4.21,4.21,0,0,0-1.18-.17,3.49,3.49,0,0,0-1.62.38,3.33,3.33,0,0,0-1.17,1,4.94,4.94,0,0,0-.92,2.88,4.94,4.94,0,0,0,.47,2.12,4.06,4.06,0,0,0,1.34,1.59,3.32,3.32,0,0,0,1.94.6,4.06,4.06,0,0,0,1.2-.18,3.34,3.34,0,0,0,1.13-.65,2.83,2.83,0,0,0,.82-1.11l2,1.17a3.87,3.87,0,0,1-1.24,1.6,5.72,5.72,0,0,1-1.91,1,6.59,6.59,0,0,1-2.1.34,5.82,5.82,0,0,1-3.76-1.38,7.38,7.38,0,0,1-1.3-1.48,6.71,6.71,0,0,1-1.14-3.72,6.36,6.36,0,0,1,.44-2.31,6.76,6.76,0,0,1,1.21-2,5.76,5.76,0,0,1,2-1.46A6.14,6.14,0,0,1,695.78,417.93Z"/><path class="cls-1" d="M702.18,426.07a4.94,4.94,0,0,1,.36-1.87,4.82,4.82,0,0,1,1-1.56,4.55,4.55,0,0,1,1.57-1.07,5.36,5.36,0,0,1,2.06-.39,5,5,0,0,1,2.62.68,4.55,4.55,0,0,1,1.73,1.78,5.13,5.13,0,0,1,.58,2.43,5.07,5.07,0,0,1-.34,1.86,5,5,0,0,1-1,1.56,4.61,4.61,0,0,1-1.56,1.07,5.37,5.37,0,0,1-2.07.39,5.26,5.26,0,0,1-1.7-.26,4.74,4.74,0,0,1-1.38-.71,4.88,4.88,0,0,1-1-1.07,4.38,4.38,0,0,1-.65-1.34A5.34,5.34,0,0,1,702.18,426.07Zm5,2.83a2.24,2.24,0,0,0,1.75-.8,3,3,0,0,0,.71-2,2.88,2.88,0,0,0-.71-2,2.21,2.21,0,0,0-1.75-.8,2.25,2.25,0,0,0-1.76.8,3,3,0,0,0-.71,2,3,3,0,0,0,.71,2A2.23,2.23,0,0,0,707.14,428.9Z"/><path class="cls-1" d="M722.9,430.78h-2.41v-5.29c0-1.46-.49-2.18-1.49-2.18a2.34,2.34,0,0,0-1.47.56,2.75,2.75,0,0,0-1,1.4v5.51h-2.41v-9.43h2.18v1.74a3.69,3.69,0,0,1,1.52-1.4,4.83,4.83,0,0,1,2.22-.51,3.14,3.14,0,0,1,1.2.21,2.29,2.29,0,0,1,.82.56,2.62,2.62,0,0,1,.5.85,4.53,4.53,0,0,1,.26,1,9.23,9.23,0,0,1,.06,1.1Z"/><path class="cls-1" d="M734.21,430.78h-2.4v-5.29c0-1.46-.5-2.18-1.5-2.18a2.34,2.34,0,0,0-1.47.56,2.81,2.81,0,0,0-1,1.4v5.51h-2.41v-9.43h2.18v1.74a3.65,3.65,0,0,1,1.53-1.4,4.78,4.78,0,0,1,2.22-.51,3.21,3.21,0,0,1,1.2.21,2.38,2.38,0,0,1,.82.56,2.6,2.6,0,0,1,.49.85,4.53,4.53,0,0,1,.26,1,9.23,9.23,0,0,1,.06,1.1Z"/><path class="cls-1" d="M741.14,431a5.12,5.12,0,0,1-2.63-.67,4.55,4.55,0,0,1-1.75-1.76,5,5,0,0,1-.59-2.4,5.27,5.27,0,0,1,.59-2.47,4.63,4.63,0,0,1,1.75-1.79,5.05,5.05,0,0,1,2.65-.68,5.29,5.29,0,0,1,2.06.39,4.61,4.61,0,0,1,1.56,1.07,4.79,4.79,0,0,1,1,1.54,5,5,0,0,1,.34,1.84,5.71,5.71,0,0,1-.05.81h-7.3a2.5,2.5,0,0,0,.81,1.72,2.47,2.47,0,0,0,1.7.64,2.74,2.74,0,0,0,1.37-.35,1.87,1.87,0,0,0,.86-.93l2.07.58a4.15,4.15,0,0,1-1.69,1.79A5.3,5.3,0,0,1,741.14,431Zm-2.47-5.65h4.93a2.64,2.64,0,0,0-.79-1.72,2.38,2.38,0,0,0-1.69-.65,2.35,2.35,0,0,0-1.67.66A2.58,2.58,0,0,0,738.67,425.3Z"/><path class="cls-1" d="M752.39,431a5.2,5.2,0,0,1-2.07-.4,4.46,4.46,0,0,1-1.58-1.07,5.06,5.06,0,0,1-1-1.56,4.89,4.89,0,0,1-.36-1.86,5,5,0,0,1,.6-2.43,4.48,4.48,0,0,1,1.74-1.77,5,5,0,0,1,2.64-.68,5.09,5.09,0,0,1,2.6.65,4.11,4.11,0,0,1,1.66,1.77l-2.36.72a2.05,2.05,0,0,0-.8-.8,2.36,2.36,0,0,0-2.88.51,3.24,3.24,0,0,0,0,4.06,2.25,2.25,0,0,0,1.75.81,2.35,2.35,0,0,0,1.19-.31,1.79,1.79,0,0,0,.77-.8l2.36.72a4,4,0,0,1-1.64,1.77A5.08,5.08,0,0,1,752.39,431Z"/><path class="cls-1" d="M764.24,430.29a6.56,6.56,0,0,1-2.66.64,3.16,3.16,0,0,1-1-.13,2.35,2.35,0,0,1-.77-.4,1.8,1.8,0,0,1-.54-.72,2.73,2.73,0,0,1-.19-1.07V423.2h-1.24v-1.85h1.24v-3.06h2.42v3.06h2v1.85h-2v4.61c0,.61.31.92.89.92a3.76,3.76,0,0,0,1.32-.34Z"/><path class="cls-1" d="M766,420v-2.39h2.41V420Zm0,10.75v-9.43h2.41v9.43Z"/><path class="cls-1" d="M779.75,430.78h-2.41v-5.29c0-1.46-.5-2.18-1.49-2.18a2.34,2.34,0,0,0-1.47.56,2.75,2.75,0,0,0-1,1.4v5.51H771v-9.43h2.18v1.74a3.69,3.69,0,0,1,1.52-1.4,4.83,4.83,0,0,1,2.22-.51,3.14,3.14,0,0,1,1.2.21,2.29,2.29,0,0,1,.82.56,2.62,2.62,0,0,1,.5.85,4.49,4.49,0,0,1,.25,1,7.45,7.45,0,0,1,.07,1.1Z"/><path class="cls-1" d="M781.74,426.06a5.43,5.43,0,0,1,.55-2.47,4.32,4.32,0,0,1,1.57-1.76,4.12,4.12,0,0,1,2.27-.65,3.75,3.75,0,0,1,1.9.48,4.16,4.16,0,0,1,1.4,1.34v-1.65h2.11v9a4.21,4.21,0,0,1-.68,2.38,4.34,4.34,0,0,1-1.87,1.56,6.52,6.52,0,0,1-2.69.52,5.86,5.86,0,0,1-2.55-.5,5.15,5.15,0,0,1-1.86-1.47l1.31-1.27a3.8,3.8,0,0,0,1.36,1,4,4,0,0,0,1.74.38,3.71,3.71,0,0,0,1.08-.15,2.88,2.88,0,0,0,.9-.48,2,2,0,0,0,.62-.83,2.92,2.92,0,0,0,.22-1.18v-1.19a3.29,3.29,0,0,1-1.31,1.25,4,4,0,0,1-4-.21,4.26,4.26,0,0,1-1.51-1.74A5.43,5.43,0,0,1,781.74,426.06Zm7.38,1.26v-2.25a2.88,2.88,0,0,0-1-1.32,2.4,2.4,0,0,0-1.45-.51,2.15,2.15,0,0,0-1.76.86,3.19,3.19,0,0,0-.69,2,2.74,2.74,0,0,0,.75,2,2.38,2.38,0,0,0,1.84.8,2.41,2.41,0,0,0,1.41-.45A2.47,2.47,0,0,0,789.12,427.32Z"/><path class="cls-1" d="M669.16,447.07a5.13,5.13,0,0,1,.35-1.87,5,5,0,0,1,1-1.56,4.46,4.46,0,0,1,1.57-1.07,5.32,5.32,0,0,1,2.06-.39,5,5,0,0,1,2.62.68,4.61,4.61,0,0,1,1.73,1.78,5.33,5.33,0,0,1,.24,4.29,4.82,4.82,0,0,1-1,1.56,4.42,4.42,0,0,1-1.56,1.07,5.29,5.29,0,0,1-2.06.39,5.22,5.22,0,0,1-1.7-.26A4.5,4.5,0,0,1,671,451a5.18,5.18,0,0,1-1-1.07,4.6,4.6,0,0,1-.64-1.34A5,5,0,0,1,669.16,447.07Zm5,2.83a2.24,2.24,0,0,0,1.75-.8,3,3,0,0,0,.71-2,2.93,2.93,0,0,0-.71-2,2.21,2.21,0,0,0-1.75-.8,2.25,2.25,0,0,0-1.76.8,3,3,0,0,0-.71,2,2.91,2.91,0,0,0,.71,2A2.23,2.23,0,0,0,674.12,449.9Z"/><path class="cls-1" d="M689.88,451.78h-2.41v-5.29c0-1.46-.5-2.18-1.49-2.18a2.34,2.34,0,0,0-1.47.56,2.83,2.83,0,0,0-1,1.4v5.51h-2.4v-9.43h2.18v1.74a3.69,3.69,0,0,1,1.52-1.4,4.83,4.83,0,0,1,2.22-.51,3.14,3.14,0,0,1,1.2.21,2.29,2.29,0,0,1,.82.56,2.62,2.62,0,0,1,.5.85,4.49,4.49,0,0,1,.25,1,7.45,7.45,0,0,1,.07,1.1Z"/><path class="cls-1" d="M692.41,438.64h2.41v10.11a1.37,1.37,0,0,0,.2.86.76.76,0,0,0,.61.24,2.65,2.65,0,0,0,1.13-.25l.33,1.83a5.08,5.08,0,0,1-1.12.36,6.54,6.54,0,0,1-1.18.13,2.42,2.42,0,0,1-1.75-.61,2.26,2.26,0,0,1-.63-1.71Z"/><path class="cls-1" d="M698.58,441v-2.39H701V441Zm0,10.75v-9.43H701v9.43Z"/><path class="cls-1" d="M712.38,451.78H710v-5.29c0-1.46-.5-2.18-1.5-2.18a2.34,2.34,0,0,0-1.47.56,2.81,2.81,0,0,0-1,1.4v5.51h-2.41v-9.43h2.18v1.74a3.65,3.65,0,0,1,1.53-1.4,4.78,4.78,0,0,1,2.22-.51,3.21,3.21,0,0,1,1.2.21,2.38,2.38,0,0,1,.82.56,2.6,2.6,0,0,1,.49.85,4.53,4.53,0,0,1,.26,1,9.23,9.23,0,0,1,.06,1.1Z"/><path class="cls-1" d="M719.31,452a5.12,5.12,0,0,1-2.63-.67,4.55,4.55,0,0,1-1.75-1.76,5,5,0,0,1-.59-2.4,5.27,5.27,0,0,1,.59-2.47,4.63,4.63,0,0,1,1.75-1.79,5.05,5.05,0,0,1,2.65-.68,5.29,5.29,0,0,1,2.06.39,4.61,4.61,0,0,1,1.56,1.07,4.79,4.79,0,0,1,.95,1.54,5,5,0,0,1,.34,1.84,5.71,5.71,0,0,1,0,.81h-7.3a2.5,2.5,0,0,0,.81,1.72,2.47,2.47,0,0,0,1.7.64,2.74,2.74,0,0,0,1.37-.35,1.87,1.87,0,0,0,.86-.93l2.07.58a4.15,4.15,0,0,1-1.69,1.79A5.3,5.3,0,0,1,719.31,452Zm-2.47-5.65h4.93a2.64,2.64,0,0,0-.79-1.72,2.38,2.38,0,0,0-1.69-.65,2.35,2.35,0,0,0-1.67.66A2.58,2.58,0,0,0,716.84,446.3Z"/><path class="cls-1" d="M735.3,452a5.06,5.06,0,0,1-2.62-.67,4.42,4.42,0,0,1-1.75-1.76,4.91,4.91,0,0,1-.6-2.4,5.16,5.16,0,0,1,.6-2.47,4.49,4.49,0,0,1,1.75-1.79,5,5,0,0,1,2.64-.68,5.29,5.29,0,0,1,2.06.39,4.51,4.51,0,0,1,1.56,1.07,5,5,0,0,1,1,1.54,5.17,5.17,0,0,1,.33,1.84,4.53,4.53,0,0,1-.05.81h-7.29a2.45,2.45,0,0,0,.8,1.72,2.48,2.48,0,0,0,1.7.64,2.74,2.74,0,0,0,1.37-.35,1.87,1.87,0,0,0,.86-.93l2.07.58a4.15,4.15,0,0,1-1.69,1.79A5.3,5.3,0,0,1,735.3,452Zm-2.47-5.65h4.93a2.64,2.64,0,0,0-.79-1.72,2.37,2.37,0,0,0-1.68-.65,2.33,2.33,0,0,0-1.67.66A2.55,2.55,0,0,0,732.83,446.3Z"/><path class="cls-1" d="M743.34,442.35l2,2.95.15.32.18-.32,2-2.95h2.54L746.86,447l3.33,4.74h-2.53l-2-2.94-.16-.31-.15.31-2,2.94h-2.54l3.33-4.68-3.28-4.75Z"/><path class="cls-1" d="M754.2,450.12v5.49h-2.41V442.35h2.11V444a3.9,3.9,0,0,1,1.37-1.31,3.84,3.84,0,0,1,1.89-.47,4.06,4.06,0,0,1,2.25.66,4.53,4.53,0,0,1,1.59,1.77,5.24,5.24,0,0,1,.57,2.43,5.82,5.82,0,0,1-.53,2.49,4.23,4.23,0,0,1-1.48,1.77,3.61,3.61,0,0,1-2.11.65,3.75,3.75,0,0,1-1.92-.48A3.45,3.45,0,0,1,754.2,450.12Zm4.9-3.08a2.84,2.84,0,0,0-.75-2,2.42,2.42,0,0,0-1.86-.8,2.46,2.46,0,0,0-1.38.45,2.25,2.25,0,0,0-.91,1.13V448a3.18,3.18,0,0,0,1,1.34,2.27,2.27,0,0,0,1.44.53,2.18,2.18,0,0,0,1.76-.85A3.06,3.06,0,0,0,759.1,447Z"/><path class="cls-1" d="M763.05,447.07a4.94,4.94,0,0,1,.36-1.87,5,5,0,0,1,1-1.56,4.55,4.55,0,0,1,1.57-1.07,5.36,5.36,0,0,1,2.06-.39,5.07,5.07,0,0,1,2.63.68,4.59,4.59,0,0,1,1.72,1.78,5.13,5.13,0,0,1,.58,2.43,5.07,5.07,0,0,1-.34,1.86,5,5,0,0,1-1,1.56,4.61,4.61,0,0,1-1.56,1.07A5.37,5.37,0,0,1,768,452a5.16,5.16,0,0,1-1.69-.26,4.5,4.5,0,0,1-1.38-.71,4.7,4.7,0,0,1-1-1.07,4.38,4.38,0,0,1-.65-1.34A5.34,5.34,0,0,1,763.05,447.07Zm5,2.83a2.24,2.24,0,0,0,1.75-.8,3,3,0,0,0,.71-2,2.88,2.88,0,0,0-.71-2,2.21,2.21,0,0,0-1.75-.8,2.25,2.25,0,0,0-1.76.8,3,3,0,0,0-.71,2,3,3,0,0,0,.71,2A2.23,2.23,0,0,0,768,449.9Z"/><path class="cls-1" d="M778.48,452a6.66,6.66,0,0,1-2.32-.4,5.24,5.24,0,0,1-1.87-1.16l.86-1.57a5.33,5.33,0,0,0,3.24,1.34,2.15,2.15,0,0,0,1.13-.26.82.82,0,0,0,.42-.75,1.25,1.25,0,0,0,0-.21.56.56,0,0,0-.09-.17l-.12-.15a.59.59,0,0,0-.18-.13l-.22-.1-.28-.11-.31-.09-.36-.11L778,448c-.46-.14-.84-.28-1.13-.39a7,7,0,0,1-.87-.42,2.18,2.18,0,0,1-.65-.5,2,2,0,0,1-.37-.62,2.37,2.37,0,0,1-.13-.83,2.69,2.69,0,0,1,1-2.21,4.38,4.38,0,0,1,2.78-.83,5,5,0,0,1,3.54,1.34l-1,1.53a4.47,4.47,0,0,0-2.68-1.08,2.18,2.18,0,0,0-1,.22.81.81,0,0,0-.41.75.75.75,0,0,0,.37.69,5.69,5.69,0,0,0,1.34.5c.52.15.94.28,1.24.39a7.57,7.57,0,0,1,1,.41,2.44,2.44,0,0,1,.73.51,2,2,0,0,1,.41.66,2.21,2.21,0,0,1,.16.89,2.62,2.62,0,0,1-1,2.19A4.39,4.39,0,0,1,778.48,452Z"/><path class="cls-1" d="M784.26,448.25v-5.9h2.41v5.37c0,1.46.52,2.18,1.56,2.18a2.36,2.36,0,0,0,1.38-.44,3.13,3.13,0,0,0,1.06-1.27v-5.84h2.4v6.73a.87.87,0,0,0,.14.55.59.59,0,0,0,.44.19v2a5.77,5.77,0,0,1-1,.1,1.8,1.8,0,0,1-1.06-.29,1.14,1.14,0,0,1-.47-.82L791,450a4.14,4.14,0,0,1-1.61,1.45,4.82,4.82,0,0,1-2.19.49A2.69,2.69,0,0,1,785,451,4.36,4.36,0,0,1,784.26,448.25Z"/><path class="cls-1" d="M801.53,444.43a4.58,4.58,0,0,0-2,.44,2.56,2.56,0,0,0-1.23,1.2v5.71h-2.41v-9.43h2.22v2a4.3,4.3,0,0,1,1.28-1.53,3,3,0,0,1,1.64-.61,4.06,4.06,0,0,1,.48,0Z"/><path class="cls-1" d="M807.58,452a5.09,5.09,0,0,1-2.63-.67,4.48,4.48,0,0,1-1.75-1.76,4.91,4.91,0,0,1-.6-2.4,5.16,5.16,0,0,1,.6-2.47,4.56,4.56,0,0,1,1.75-1.79,5.05,5.05,0,0,1,2.65-.68,5.32,5.32,0,0,1,2.06.39,4.47,4.47,0,0,1,1.55,1.07,4.82,4.82,0,0,1,1,1.54,5,5,0,0,1,.34,1.84,5.71,5.71,0,0,1,0,.81h-7.3a2.5,2.5,0,0,0,.81,1.72,2.47,2.47,0,0,0,1.7.64,2.7,2.7,0,0,0,1.36-.35,1.85,1.85,0,0,0,.87-.93l2.06.58a4.09,4.09,0,0,1-1.69,1.79A5.24,5.24,0,0,1,807.58,452Zm-2.47-5.65H810a2.65,2.65,0,0,0-.8-1.72,2.37,2.37,0,0,0-1.68-.65,2.33,2.33,0,0,0-1.67.66A2.58,2.58,0,0,0,805.11,446.3Z"/><path class="cls-1" d="M669.68,459.64h2.4v10.11a1.3,1.3,0,0,0,.21.86.73.73,0,0,0,.6.24,2.7,2.7,0,0,0,1.14-.25l.32,1.83a5.08,5.08,0,0,1-1.12.36,6.44,6.44,0,0,1-1.18.13,2.43,2.43,0,0,1-1.75-.61,2.26,2.26,0,0,1-.62-1.71Z"/><path class="cls-1" d="M680.22,473a5.06,5.06,0,0,1-2.62-.67,4.48,4.48,0,0,1-1.75-1.76,4.91,4.91,0,0,1-.6-2.4,5.16,5.16,0,0,1,.6-2.47,4.56,4.56,0,0,1,1.75-1.79,5,5,0,0,1,2.64-.68,5.29,5.29,0,0,1,2.06.39,4.42,4.42,0,0,1,1.56,1.07,5,5,0,0,1,1,1.54,5.17,5.17,0,0,1,.33,1.84,4.53,4.53,0,0,1,0,.81h-7.29a2.5,2.5,0,0,0,.81,1.72,2.44,2.44,0,0,0,1.69.64,2.74,2.74,0,0,0,1.37-.35,1.87,1.87,0,0,0,.86-.93l2.07.58a4.15,4.15,0,0,1-1.69,1.79A5.3,5.3,0,0,1,680.22,473Zm-2.47-5.65h4.93a2.64,2.64,0,0,0-.79-1.72,2.37,2.37,0,0,0-1.68-.65,2.33,2.33,0,0,0-1.67.66A2.55,2.55,0,0,0,677.75,467.3Z"/><path class="cls-1" d="M689.34,472.78l-3.48-9.43h2.5l2.38,7.23,2.4-7.23h2.28L692,472.78Z"/><path class="cls-1" d="M701.2,473a5.09,5.09,0,0,1-2.63-.67,4.48,4.48,0,0,1-1.75-1.76,4.91,4.91,0,0,1-.6-2.4,5.16,5.16,0,0,1,.6-2.47,4.56,4.56,0,0,1,1.75-1.79,5.05,5.05,0,0,1,2.65-.68,5.32,5.32,0,0,1,2.06.39,4.47,4.47,0,0,1,1.55,1.07,4.82,4.82,0,0,1,1,1.54,5.18,5.18,0,0,1,.34,1.84,5.71,5.71,0,0,1,0,.81h-7.3a2.5,2.5,0,0,0,.81,1.72,2.47,2.47,0,0,0,1.7.64,2.7,2.7,0,0,0,1.36-.35,1.85,1.85,0,0,0,.87-.93l2.06.58a4.09,4.09,0,0,1-1.69,1.79A5.27,5.27,0,0,1,701.2,473Zm-2.47-5.65h4.93a2.65,2.65,0,0,0-.8-1.72,2.37,2.37,0,0,0-1.68-.65,2.33,2.33,0,0,0-1.67.66A2.58,2.58,0,0,0,698.73,467.3Z"/><path class="cls-1" d="M708,459.64h2.41v10.11a1.3,1.3,0,0,0,.2.86.75.75,0,0,0,.61.24,2.69,2.69,0,0,0,1.13-.25l.32,1.83a4.82,4.82,0,0,1-1.11.36,6.64,6.64,0,0,1-1.19.13,2.43,2.43,0,0,1-1.75-.61,2.3,2.3,0,0,1-.62-1.71Z"/><path class="cls-1" d="M717.67,473a6.66,6.66,0,0,1-2.32-.4,5.33,5.33,0,0,1-1.87-1.16l.86-1.57a5.33,5.33,0,0,0,3.24,1.34,2.15,2.15,0,0,0,1.13-.26.82.82,0,0,0,.42-.75,1.25,1.25,0,0,0,0-.21.56.56,0,0,0-.09-.17,1,1,0,0,0-.12-.15.59.59,0,0,0-.18-.13l-.22-.1-.28-.11-.31-.09-.36-.11-.4-.12c-.46-.14-.84-.28-1.13-.39a7,7,0,0,1-.87-.42,2.18,2.18,0,0,1-.65-.5,1.81,1.81,0,0,1-.36-.62,2.16,2.16,0,0,1-.14-.83,2.69,2.69,0,0,1,1-2.21,4.38,4.38,0,0,1,2.78-.83,5,5,0,0,1,3.54,1.34l-1,1.53a4.47,4.47,0,0,0-2.68-1.08,2.21,2.21,0,0,0-1.05.22.81.81,0,0,0-.41.75.75.75,0,0,0,.37.69,5.69,5.69,0,0,0,1.34.5c.52.15.94.28,1.24.39a7.57,7.57,0,0,1,.95.41,2.65,2.65,0,0,1,.74.51,2.15,2.15,0,0,1,.4.66,2.21,2.21,0,0,1,.16.89,2.62,2.62,0,0,1-1,2.19A4.39,4.39,0,0,1,717.67,473Z"/><path class="cls-1" d="M734,472.29a6.56,6.56,0,0,1-2.66.64,3.16,3.16,0,0,1-.95-.13,2.35,2.35,0,0,1-.77-.4,1.8,1.8,0,0,1-.54-.72,2.73,2.73,0,0,1-.19-1.07V465.2H727.6v-1.85h1.24v-3.06h2.42v3.06h2v1.85h-2v4.61c0,.61.31.92.89.92a3.76,3.76,0,0,0,1.32-.34Z"/><path class="cls-1" d="M734.94,468.07a5.13,5.13,0,0,1,.35-1.87,4.85,4.85,0,0,1,1-1.56,4.42,4.42,0,0,1,1.56-1.07,5.37,5.37,0,0,1,2.07-.39,5,5,0,0,1,2.62.68,4.52,4.52,0,0,1,1.72,1.78,5.14,5.14,0,0,1,.59,2.43,5.08,5.08,0,0,1-.35,1.86,4.8,4.8,0,0,1-1,1.56,4.42,4.42,0,0,1-1.56,1.07,5.32,5.32,0,0,1-2.06.39,5.22,5.22,0,0,1-1.7-.26,4.5,4.5,0,0,1-1.38-.71,5.18,5.18,0,0,1-1-1.07,4.63,4.63,0,0,1-.65-1.34A5.33,5.33,0,0,1,734.94,468.07Zm5,2.83a2.26,2.26,0,0,0,1.75-.8,3,3,0,0,0,.71-2,2.93,2.93,0,0,0-.71-2,2.33,2.33,0,0,0-3.51,0,3.28,3.28,0,0,0,0,4.06A2.24,2.24,0,0,0,739.9,470.9Z"/><path class="cls-1" d="M751.66,462v-2.39h2.41V462Zm0,10.75v-9.43h2.41v9.43Z"/><path class="cls-1" d="M771.35,472.78h-2.41v-5.29a2.88,2.88,0,0,0-.38-1.64,1.23,1.23,0,0,0-1.08-.54,2,2,0,0,0-1.35.55,3,3,0,0,0-.9,1.42v5.5h-2.42v-5.29c0-1.46-.48-2.18-1.45-2.18a2,2,0,0,0-1.35.54,2.85,2.85,0,0,0-.9,1.42v5.51H756.7v-9.43h2.18v1.74a3.72,3.72,0,0,1,1.43-1.41,4.28,4.28,0,0,1,2.07-.5,2.75,2.75,0,0,1,1.8.56,2.51,2.51,0,0,1,.87,1.44,4.07,4.07,0,0,1,1.46-1.48,3.86,3.86,0,0,1,2-.52q2.84,0,2.83,3.71Z"/><path class="cls-1" d="M776.31,471.12v5.49H773.9V463.35H776V465a3.74,3.74,0,0,1,3.25-1.78,4.07,4.07,0,0,1,2.26.66,4.53,4.53,0,0,1,1.59,1.77,5.36,5.36,0,0,1,.56,2.43,5.81,5.81,0,0,1-.52,2.49,4.38,4.38,0,0,1-1.48,1.77,3.61,3.61,0,0,1-2.12.65,3.8,3.8,0,0,1-1.92-.48A3.43,3.43,0,0,1,776.31,471.12ZM781.2,468a2.88,2.88,0,0,0-.74-2,2.47,2.47,0,0,0-3.24-.35,2.25,2.25,0,0,0-.91,1.13V469a3.1,3.1,0,0,0,1,1.34,2.25,2.25,0,0,0,1.43.53,2.16,2.16,0,0,0,1.76-.85A3.06,3.06,0,0,0,781.2,468Z"/><path class="cls-1" d="M785.11,470a2.66,2.66,0,0,1,1.12-2.22,4.78,4.78,0,0,1,2.93-.85,6,6,0,0,1,2.27.38v-.5a1.77,1.77,0,0,0-.54-1.39,2.27,2.27,0,0,0-1.57-.48,3.84,3.84,0,0,0-1.44.26,7.72,7.72,0,0,0-1.51.8l-.78-1.58a7.19,7.19,0,0,1,4-1.23,4.52,4.52,0,0,1,3.14,1,3.66,3.66,0,0,1,1.12,2.88v3a.87.87,0,0,0,.14.55.59.59,0,0,0,.44.19v2a5.34,5.34,0,0,1-1,.12,1.69,1.69,0,0,1-1.08-.3,1.29,1.29,0,0,1-.47-.82l-.05-.48a4.25,4.25,0,0,1-1.53,1.22,4.33,4.33,0,0,1-1.87.43,3.37,3.37,0,0,1-2.35-.84A2.74,2.74,0,0,1,785.11,470Zm5.87.48a1.24,1.24,0,0,0,.45-.82v-1a5,5,0,0,0-1.89-.38,2.7,2.7,0,0,0-1.55.41,1.24,1.24,0,0,0-.6,1.07,1.29,1.29,0,0,0,.46,1,1.72,1.72,0,0,0,1.22.41,2.91,2.91,0,0,0,1-.19A2.72,2.72,0,0,0,791,470.47Z"/><path class="cls-1" d="M800.93,473a5.23,5.23,0,0,1-2.07-.4,4.46,4.46,0,0,1-1.58-1.07,5.06,5.06,0,0,1-1-1.56,4.88,4.88,0,0,1-.35-1.86,5.08,5.08,0,0,1,.59-2.43,4.62,4.62,0,0,1,1.74-1.77,5.49,5.49,0,0,1,5.24,0,4.11,4.11,0,0,1,1.66,1.77l-2.35.72a2.14,2.14,0,0,0-.81-.8,2.36,2.36,0,0,0-2.88.51,3.24,3.24,0,0,0,0,4.06,2.28,2.28,0,0,0,1.75.81,2.32,2.32,0,0,0,1.19-.31,1.74,1.74,0,0,0,.77-.8l2.36.72a3.93,3.93,0,0,1-1.64,1.77A5,5,0,0,1,800.93,473Z"/><path class="cls-1" d="M812.79,472.29a6.56,6.56,0,0,1-2.67.64,3.1,3.1,0,0,1-.94-.13,2.4,2.4,0,0,1-.78-.4,1.7,1.7,0,0,1-.53-.72,2.72,2.72,0,0,1-.2-1.07V465.2h-1.24v-1.85h1.24v-3.06h2.42v3.06h2v1.85h-2v4.61c0,.61.32.92.9.92a3.71,3.71,0,0,0,1.31-.34Z"/><path class="cls-1" d="M517.19,418h2.53l4.69,12.78h-2.56l-1.18-3.19H516.2L515,430.78h-2.56Zm3,7.85-1.77-5.28-1.84,5.28Z"/><path class="cls-1" d="M525.18,426.06a5.54,5.54,0,0,1,.53-2.46,4.29,4.29,0,0,1,1.51-1.77,3.84,3.84,0,0,1,2.17-.65,3.62,3.62,0,0,1,1.86.49,3.94,3.94,0,0,1,1.33,1.33v-5.36H535v10.44a.87.87,0,0,0,.13.55.56.56,0,0,0,.43.19v2a5.71,5.71,0,0,1-1,.12,1.74,1.74,0,0,1-1.07-.32,1.2,1.2,0,0,1-.48-.85l0-.59a3.47,3.47,0,0,1-1.4,1.34,4,4,0,0,1-1.88.47,4.15,4.15,0,0,1-2.31-.65,4.35,4.35,0,0,1-1.6-1.77A5.38,5.38,0,0,1,525.18,426.06Zm7.4,1.26v-2.25a3,3,0,0,0-1-1.31,2.36,2.36,0,0,0-1.43-.52,2.2,2.2,0,0,0-1.77.85,3.15,3.15,0,0,0-.7,2,2.84,2.84,0,0,0,.74,2,2.43,2.43,0,0,0,1.87.8,2.46,2.46,0,0,0,1.38-.45A2.3,2.3,0,0,0,532.58,427.32Z"/><path class="cls-1" d="M543.14,430.78v-7.1H541.9v-1.83h1.24v-.57a4.25,4.25,0,0,1,.86-2.79,2.84,2.84,0,0,1,2.3-1,5.44,5.44,0,0,1,2.32.56l-.48,1.82a2.76,2.76,0,0,0-1.32-.34,1.09,1.09,0,0,0-.94.43,2.13,2.13,0,0,0-.32,1.26v.67h2.3v1.83h-2.3v7.1Z"/><path class="cls-1" d="M555.29,423.43a4.58,4.58,0,0,0-2,.44,2.56,2.56,0,0,0-1.23,1.2v5.71h-2.4v-9.43h2.21v2a4.3,4.3,0,0,1,1.28-1.53,3,3,0,0,1,1.64-.61,4.06,4.06,0,0,1,.48,0Z"/><path class="cls-1" d="M556.38,428a2.67,2.67,0,0,1,1.13-2.22,4.76,4.76,0,0,1,2.93-.85,6,6,0,0,1,2.26.38v-.5a1.77,1.77,0,0,0-.53-1.39,2.28,2.28,0,0,0-1.58-.48,3.91,3.91,0,0,0-1.44.26,7.67,7.67,0,0,0-1.5.8l-.78-1.58a7.17,7.17,0,0,1,4-1.23,4.54,4.54,0,0,1,3.14,1,3.66,3.66,0,0,1,1.12,2.88v3a.94.94,0,0,0,.13.55.63.63,0,0,0,.45.19v2a5.43,5.43,0,0,1-1,.12,1.68,1.68,0,0,1-1.07-.3,1.29,1.29,0,0,1-.47-.82l-.06-.48a4.13,4.13,0,0,1-1.52,1.22,4.34,4.34,0,0,1-1.88.43,3.36,3.36,0,0,1-2.34-.84A2.72,2.72,0,0,1,556.38,428Zm5.88.48a1.26,1.26,0,0,0,.44-.82v-1a4.94,4.94,0,0,0-1.89-.38,2.69,2.69,0,0,0-1.54.41,1.24,1.24,0,0,0-.6,1.07,1.29,1.29,0,0,0,.46,1,1.72,1.72,0,0,0,1.22.41,3,3,0,0,0,1-.19A2.72,2.72,0,0,0,562.26,428.47Z"/><path class="cls-1" d="M567.72,427.25v-5.9h2.41v5.37c0,1.46.52,2.18,1.57,2.18a2.4,2.4,0,0,0,1.38-.44,3.11,3.11,0,0,0,1-1.27v-5.84h2.41v6.73a.87.87,0,0,0,.13.55.63.63,0,0,0,.45.19v2a6,6,0,0,1-1,.1,1.84,1.84,0,0,1-1.06-.29,1.17,1.17,0,0,1-.47-.82l0-.76a4,4,0,0,1-1.61,1.45,4.77,4.77,0,0,1-2.19.49,2.65,2.65,0,0,1-2.21-.94A4.36,4.36,0,0,1,567.72,427.25Z"/><path class="cls-1" d="M578.8,426.06a5.55,5.55,0,0,1,.54-2.46,4.27,4.27,0,0,1,1.5-1.77,3.88,3.88,0,0,1,2.18-.65,3.58,3.58,0,0,1,1.85.49A3.85,3.85,0,0,1,586.2,423v-5.36h2.42v10.44a1,1,0,0,0,.12.55.58.58,0,0,0,.43.19v2a5.61,5.61,0,0,1-1,.12,1.79,1.79,0,0,1-1.07-.32,1.15,1.15,0,0,1-.47-.85l0-.59a3.41,3.41,0,0,1-1.4,1.34,4,4,0,0,1-1.88.47,4.2,4.2,0,0,1-2.31-.65,4.42,4.42,0,0,1-1.6-1.77A5.38,5.38,0,0,1,578.8,426.06Zm7.4,1.26v-2.25a2.91,2.91,0,0,0-1-1.31,2.33,2.33,0,0,0-1.43-.52,2.19,2.19,0,0,0-1.76.85,3.1,3.1,0,0,0-.71,2,2.81,2.81,0,0,0,.75,2,2.42,2.42,0,0,0,1.87.8,2.46,2.46,0,0,0,1.37-.45A2.25,2.25,0,0,0,586.2,427.32Z"/><path class="cls-1" d="M312.58,418l3.45,9.82,3.42-9.82h2.61l-4.84,12.78h-2.39L310,418Z"/><path class="cls-1" d="M323.65,420v-2.39h2.4V420Zm0,10.75v-9.43h2.4v9.43Z"/><path class="cls-1" d="M333.06,431a5.12,5.12,0,0,1-2.63-.67,4.48,4.48,0,0,1-1.75-1.76,4.9,4.9,0,0,1-.59-2.4,5.15,5.15,0,0,1,.59-2.47,4.56,4.56,0,0,1,1.75-1.79,5.05,5.05,0,0,1,2.65-.68,5.32,5.32,0,0,1,2.06.39,4.47,4.47,0,0,1,1.55,1.07,4.65,4.65,0,0,1,1,1.54A5,5,0,0,1,338,426a5.71,5.71,0,0,1-.05.81h-7.3a2.5,2.5,0,0,0,.81,1.72,2.47,2.47,0,0,0,1.7.64,2.7,2.7,0,0,0,1.36-.35,1.85,1.85,0,0,0,.87-.93l2.07.58a4.17,4.17,0,0,1-1.7,1.79A5.24,5.24,0,0,1,333.06,431Zm-2.47-5.65h4.93a2.65,2.65,0,0,0-.8-1.72,2.37,2.37,0,0,0-1.68-.65,2.35,2.35,0,0,0-1.67.66A2.58,2.58,0,0,0,330.59,425.3Z"/><path class="cls-1" d="M351.33,421.35h2.29l-3.94,9.43h-2l-1.58-4.06-1.55,4.06h-2l-3.93-9.43h2.27l2.81,7.12,1.1-3.07-1.64-4h2l1,2.89,1-2.89h2l-1.64,4,1.12,3.07Z"/><path class="cls-1" d="M354.3,428a2.66,2.66,0,0,1,1.12-2.22,4.78,4.78,0,0,1,2.93-.85,6,6,0,0,1,2.27.38v-.5a1.8,1.8,0,0,0-.53-1.39,2.3,2.3,0,0,0-1.58-.48,3.84,3.84,0,0,0-1.44.26,7.72,7.72,0,0,0-1.51.8l-.78-1.58a7.19,7.19,0,0,1,4-1.23,4.52,4.52,0,0,1,3.14,1,3.66,3.66,0,0,1,1.13,2.88v3a.87.87,0,0,0,.13.55.61.61,0,0,0,.45.19v2a5.52,5.52,0,0,1-1,.12,1.71,1.71,0,0,1-1.08-.3,1.34,1.34,0,0,1-.47-.82l0-.48a4.25,4.25,0,0,1-1.53,1.22,4.29,4.29,0,0,1-1.87.43,3.37,3.37,0,0,1-2.35-.84A2.74,2.74,0,0,1,354.3,428Zm5.87.48a1.24,1.24,0,0,0,.45-.82v-1a5,5,0,0,0-1.89-.38,2.7,2.7,0,0,0-1.55.41,1.24,1.24,0,0,0-.6,1.07,1.32,1.32,0,0,0,.46,1,1.72,1.72,0,0,0,1.22.41,2.91,2.91,0,0,0,1.05-.19A2.72,2.72,0,0,0,360.17,428.47Z"/><path class="cls-1" d="M367.84,429.14v1.64h-2.11V417.64h2.4V423a3.69,3.69,0,0,1,1.34-1.35,3.86,3.86,0,0,1,1.91-.47,3.59,3.59,0,0,1,2.15.68,4.43,4.43,0,0,1,1.46,1.79,5.87,5.87,0,0,1,.51,2.45,5.31,5.31,0,0,1-.57,2.46,4.41,4.41,0,0,1-1.59,1.75,4.12,4.12,0,0,1-2.25.64,3.79,3.79,0,0,1-1.91-.48A3.43,3.43,0,0,1,367.84,429.14Zm5.19-3a3.07,3.07,0,0,0-.7-2,2.19,2.19,0,0,0-1.76-.85,2.28,2.28,0,0,0-1.43.51,3.48,3.48,0,0,0-1,1.32v2.25a2.16,2.16,0,0,0,.91,1.14,2.49,2.49,0,0,0,3.25-.37A2.84,2.84,0,0,0,373,426.12Z"/><path class="cls-1" d="M377.58,420v-2.39H380V420Zm0,10.75v-9.43H380v9.43Z"/><path class="cls-1" d="M382.6,417.64H385v10.11a1.37,1.37,0,0,0,.2.86.76.76,0,0,0,.61.24,2.62,2.62,0,0,0,1.13-.25l.33,1.83a5.08,5.08,0,0,1-1.12.36,6.44,6.44,0,0,1-1.18.13,2.42,2.42,0,0,1-1.75-.61,2.26,2.26,0,0,1-.63-1.71Z"/><path class="cls-1" d="M388.78,420v-2.39h2.4V420Zm0,10.75v-9.43h2.4v9.43Z"/><path class="cls-1" d="M399.47,430.29a6.6,6.6,0,0,1-2.67.64,3.21,3.21,0,0,1-.95-.13,2.46,2.46,0,0,1-.77-.4,1.8,1.8,0,0,1-.54-.72,2.73,2.73,0,0,1-.19-1.07V423.2h-1.24v-1.85h1.24v-3.06h2.42v3.06h2v1.85h-2v4.61c0,.61.31.92.89.92a3.76,3.76,0,0,0,1.32-.34Z"/><path class="cls-1" d="M401.33,432.61a4.59,4.59,0,0,0,1.08.18,1,1,0,0,0,.8-.41,6.09,6.09,0,0,0,.66-1.6l-3.73-9.43h2.51l2.54,7,2.23-7h2.3l-4,11.3a3.17,3.17,0,0,1-1.19,1.62,3.31,3.31,0,0,1-2,.63,4,4,0,0,1-1.21-.2Z"/><path class="cls-1" d="M145.45,430.78h-6.17V418h6.84a2.58,2.58,0,0,1,1.55.49,3,3,0,0,1,1,1.22,3.58,3.58,0,0,1,.34,1.55,3.41,3.41,0,0,1-.48,1.77,2.88,2.88,0,0,1-1.36,1.2,3.27,3.27,0,0,1,1.74,1.17,3.34,3.34,0,0,1,.64,2.08,2.93,2.93,0,0,1-.57,1.8,3.38,3.38,0,0,1-1.49,1.13A5.65,5.65,0,0,1,145.45,430.78Zm-3.69-10.66v3.22h3.32a1.46,1.46,0,0,0,1.07-.44,1.59,1.59,0,0,0,.44-1.18,1.7,1.7,0,0,0-.4-1.16,1.32,1.32,0,0,0-1-.44Zm3.82,5.18h-3.82v3.37h3.69a1.54,1.54,0,0,0,1.15-.49,1.62,1.62,0,0,0,.47-1.17,1.77,1.77,0,0,0-.43-1.2A1.35,1.35,0,0,0,145.58,425.3Z"/><path class="cls-1" d="M157.35,423.43a4.58,4.58,0,0,0-2,.44,2.52,2.52,0,0,0-1.23,1.2v5.71h-2.41v-9.43H154v2a4.3,4.3,0,0,1,1.28-1.53,3,3,0,0,1,1.63-.61,4.14,4.14,0,0,1,.49,0Z"/><path class="cls-1" d="M158.44,428a2.66,2.66,0,0,1,1.12-2.22,4.78,4.78,0,0,1,2.93-.85,6,6,0,0,1,2.27.38v-.5a1.8,1.8,0,0,0-.53-1.39,2.3,2.3,0,0,0-1.58-.48,3.87,3.87,0,0,0-1.44.26,7.72,7.72,0,0,0-1.51.8l-.78-1.58a7.19,7.19,0,0,1,4-1.23,4.57,4.57,0,0,1,3.15,1,3.69,3.69,0,0,1,1.12,2.88v3a.87.87,0,0,0,.13.55.63.63,0,0,0,.45.19v2a5.52,5.52,0,0,1-1,.12,1.73,1.73,0,0,1-1.08-.3,1.34,1.34,0,0,1-.47-.82l0-.48a4.17,4.17,0,0,1-1.53,1.22,4.29,4.29,0,0,1-1.87.43,3.37,3.37,0,0,1-2.35-.84A2.74,2.74,0,0,1,158.44,428Zm5.87.48a1.24,1.24,0,0,0,.45-.82v-1a5,5,0,0,0-1.89-.38,2.73,2.73,0,0,0-1.55.41,1.24,1.24,0,0,0-.6,1.07,1.32,1.32,0,0,0,.46,1,1.73,1.73,0,0,0,1.22.41,2.91,2.91,0,0,0,1-.19A2.61,2.61,0,0,0,164.31,428.47Z"/><path class="cls-1" d="M178.63,430.78h-2.41v-5.29c0-1.46-.5-2.18-1.49-2.18a2.34,2.34,0,0,0-1.47.56,2.75,2.75,0,0,0-1,1.4v5.51h-2.41v-9.43h2.18v1.74a3.69,3.69,0,0,1,1.52-1.4,4.83,4.83,0,0,1,2.22-.51,3.14,3.14,0,0,1,1.2.21,2.29,2.29,0,0,1,.82.56,2.62,2.62,0,0,1,.5.85,4.49,4.49,0,0,1,.25,1,7.45,7.45,0,0,1,.07,1.1Z"/><path class="cls-1" d="M180.6,426.06a5.55,5.55,0,0,1,.54-2.46,4.27,4.27,0,0,1,1.5-1.77,3.88,3.88,0,0,1,2.18-.65,3.58,3.58,0,0,1,1.85.49A3.85,3.85,0,0,1,188,423v-5.36h2.42v10.44a1,1,0,0,0,.12.55.58.58,0,0,0,.43.19v2a5.71,5.71,0,0,1-1,.12,1.76,1.76,0,0,1-1.07-.32,1.15,1.15,0,0,1-.47-.85l0-.59a3.47,3.47,0,0,1-1.4,1.34,4,4,0,0,1-1.88.47,4.2,4.2,0,0,1-2.31-.65,4.42,4.42,0,0,1-1.6-1.77A5.38,5.38,0,0,1,180.6,426.06Zm7.4,1.26v-2.25a2.91,2.91,0,0,0-1-1.31,2.33,2.33,0,0,0-1.43-.52,2.19,2.19,0,0,0-1.76.85,3.1,3.1,0,0,0-.71,2,2.81,2.81,0,0,0,.75,2,2.42,2.42,0,0,0,1.87.8,2.46,2.46,0,0,0,1.37-.45A2.25,2.25,0,0,0,188,427.32Z"/><path class="cls-1" d="M141.9,452a6.66,6.66,0,0,1-2.32-.4,5.33,5.33,0,0,1-1.87-1.16l.86-1.57a5.33,5.33,0,0,0,3.24,1.34,2.12,2.12,0,0,0,1.13-.26.82.82,0,0,0,.42-.75,1.25,1.25,0,0,0,0-.21.4.4,0,0,0-.09-.17,1,1,0,0,0-.12-.15.59.59,0,0,0-.18-.13l-.22-.1-.28-.11-.31-.09-.36-.11-.4-.12c-.46-.14-.84-.28-1.13-.39a7,7,0,0,1-.87-.42,2.18,2.18,0,0,1-.65-.5,2.22,2.22,0,0,1-.37-.62,2.37,2.37,0,0,1-.13-.83,2.69,2.69,0,0,1,1-2.21,4.38,4.38,0,0,1,2.78-.83,5,5,0,0,1,3.54,1.34l-1,1.53a4.47,4.47,0,0,0-2.68-1.08,2.21,2.21,0,0,0-1.05.22.81.81,0,0,0-.41.75.75.75,0,0,0,.37.69,5.69,5.69,0,0,0,1.34.5c.52.15.94.28,1.24.39a7.57,7.57,0,0,1,.95.41,2.44,2.44,0,0,1,.73.51,2,2,0,0,1,.41.66,2.21,2.21,0,0,1,.16.89,2.62,2.62,0,0,1-1,2.19A4.37,4.37,0,0,1,141.9,452Z"/><path class="cls-1" d="M147.12,449a2.66,2.66,0,0,1,1.12-2.22,4.78,4.78,0,0,1,2.93-.85,6,6,0,0,1,2.27.38v-.5a1.77,1.77,0,0,0-.54-1.39,2.27,2.27,0,0,0-1.57-.48,3.84,3.84,0,0,0-1.44.26,7.72,7.72,0,0,0-1.51.8l-.78-1.58a7.19,7.19,0,0,1,4-1.23,4.52,4.52,0,0,1,3.14,1,3.66,3.66,0,0,1,1.12,2.88v3a.87.87,0,0,0,.14.55.59.59,0,0,0,.44.19v2a5.34,5.34,0,0,1-1,.12,1.69,1.69,0,0,1-1.08-.3,1.29,1.29,0,0,1-.47-.82l0-.48a4.25,4.25,0,0,1-1.53,1.22,4.34,4.34,0,0,1-1.88.43,3.36,3.36,0,0,1-2.34-.84A2.74,2.74,0,0,1,147.12,449Zm5.87.48a1.24,1.24,0,0,0,.45-.82v-1a5,5,0,0,0-1.89-.38,2.7,2.7,0,0,0-1.55.41,1.24,1.24,0,0,0-.6,1.07,1.29,1.29,0,0,0,.46,1,1.72,1.72,0,0,0,1.22.41,2.91,2.91,0,0,0,1-.19A2.72,2.72,0,0,0,153,449.47Z"/><path class="cls-1" d="M159.08,451.78v-7.1h-1.24v-1.83h1.24v-.57a4.25,4.25,0,0,1,.86-2.79,2.82,2.82,0,0,1,2.3-1,5.44,5.44,0,0,1,2.32.56l-.49,1.82a2.76,2.76,0,0,0-1.32-.34,1.07,1.07,0,0,0-.93.43,2.06,2.06,0,0,0-.32,1.26v.67h2.3v1.83h-2.3v7.1Z"/><path class="cls-1" d="M169.87,452a5.09,5.09,0,0,1-2.63-.67,4.48,4.48,0,0,1-1.75-1.76,4.91,4.91,0,0,1-.6-2.4,5.16,5.16,0,0,1,.6-2.47,4.56,4.56,0,0,1,1.75-1.79,5,5,0,0,1,2.64-.68,5.29,5.29,0,0,1,2.06.39,4.42,4.42,0,0,1,1.56,1.07,5,5,0,0,1,1,1.54,5.18,5.18,0,0,1,.34,1.84,4.39,4.39,0,0,1-.06.81h-7.29a2.5,2.5,0,0,0,.81,1.72,2.44,2.44,0,0,0,1.69.64,2.71,2.71,0,0,0,1.37-.35,1.9,1.9,0,0,0,.87-.93l2.06.58a4.09,4.09,0,0,1-1.69,1.79A5.27,5.27,0,0,1,169.87,452Zm-2.47-5.65h4.93a2.65,2.65,0,0,0-.8-1.72,2.37,2.37,0,0,0-1.68-.65,2.33,2.33,0,0,0-1.67.66A2.54,2.54,0,0,0,167.4,446.3Z"/><path class="cls-1" d="M182.28,451.29a6.56,6.56,0,0,1-2.67.64,3.1,3.1,0,0,1-.94-.13,2.4,2.4,0,0,1-.78-.4,1.7,1.7,0,0,1-.53-.72,2.72,2.72,0,0,1-.2-1.07V444.2h-1.24v-1.85h1.24v-3.06h2.42v3.06h2v1.85h-2v4.61c0,.61.32.92.9.92a3.66,3.66,0,0,0,1.31-.34Z"/><path class="cls-1" d="M184.14,453.61a4.59,4.59,0,0,0,1.08.18,1,1,0,0,0,.8-.41,6.09,6.09,0,0,0,.66-1.6L183,442.35h2.5l2.54,7,2.23-7h2.31l-4,11.3a3.21,3.21,0,0,1-1.18,1.62,3.33,3.33,0,0,1-2,.63,4,4,0,0,1-1.22-.2Z"/><path class="cls-2" d="M1106.77,346.56H1.38a1.39,1.39,0,0,1,0-2.77H1106.77a1.39,1.39,0,0,1,0,2.77Z"/><path class="cls-3" d="M23.5,347.94a2.65,2.65,0,0,1-1.3-.33,2.76,2.76,0,0,1-1.13-3.74L161.74,82a2.76,2.76,0,0,1,3.19-1.36L1085.4,341.83a2.77,2.77,0,1,1-1.51,5.32L165.56,86.54,25.94,346.48A2.76,2.76,0,0,1,23.5,347.94Z"/><path class="cls-4" d="M23.51,347.94A2.76,2.76,0,0,1,22,342.89L357.71,114.44a2.75,2.75,0,0,1,2.38-.36l725.39,227.77a2.77,2.77,0,0,1-1.66,5.28L359.71,119.76,25.06,347.46A2.72,2.72,0,0,1,23.51,347.94Z"/><path class="cls-5" d="M23.51,347.94a2.76,2.76,0,0,1-1-5.34L548.29,140.2a2.71,2.71,0,0,1,2,0L1085.62,341.9a2.77,2.77,0,1,1-1.95,5.18L549.29,145.74,24.5,347.76A2.88,2.88,0,0,1,23.51,347.94Z"/><path class="cls-1" d="M23.5,347.94a2.77,2.77,0,0,1-.63-5.46L740.92,172.55a2.79,2.79,0,0,1,1.86.21L1085.87,342a2.76,2.76,0,0,1-2.44,5L741.22,178.16,24.14,347.87A2.79,2.79,0,0,1,23.5,347.94Z"/><path class="cls-6" d="M23.5,347.94a2.77,2.77,0,0,1-.27-5.52l910.32-91a2.74,2.74,0,0,1,1.7.38l150.82,90.33a2.76,2.76,0,1,1-2.84,4.74L933.19,257,23.78,347.93Z"/><path class="cls-2" d="M932.44,334.16a1.38,1.38,0,0,1-1.38-1.39v-6.63a1.39,1.39,0,1,1,2.77,0v6.63A1.39,1.39,0,0,1,932.44,334.16Zm0-19.91a1.38,1.38,0,0,1-1.38-1.39v-6.63a1.39,1.39,0,1,1,2.77,0v6.63A1.39,1.39,0,0,1,932.44,314.25Zm0-19.91a1.38,1.38,0,0,1-1.38-1.39v-6.63a1.39,1.39,0,1,1,2.77,0V293A1.39,1.39,0,0,1,932.44,294.34Zm0-19.91a1.38,1.38,0,0,1-1.38-1.39v-6.63a1.39,1.39,0,1,1,2.77,0V273A1.39,1.39,0,0,1,932.44,274.43Zm0-19.92a1.38,1.38,0,0,1-1.38-1.38V246.5a1.39,1.39,0,1,1,2.77,0v6.63A1.38,1.38,0,0,1,932.44,254.51Zm0-19.91a1.38,1.38,0,0,1-1.38-1.38v-6.64a1.39,1.39,0,0,1,2.77,0v6.64A1.38,1.38,0,0,1,932.44,234.6Z"/><path class="cls-2" d="M740.77,340.33a1.38,1.38,0,0,1-1.38-1.38v-6.64a1.38,1.38,0,0,1,2.76,0V339A1.38,1.38,0,0,1,740.77,340.33Zm0-19.91a1.38,1.38,0,0,1-1.38-1.38V312.4a1.38,1.38,0,0,1,2.76,0V319A1.38,1.38,0,0,1,740.77,320.42Zm0-19.91a1.38,1.38,0,0,1-1.38-1.38v-6.64a1.38,1.38,0,0,1,2.76,0v6.64A1.38,1.38,0,0,1,740.77,300.51Zm0-19.91a1.38,1.38,0,0,1-1.38-1.38v-6.64a1.38,1.38,0,0,1,2.76,0v6.64A1.38,1.38,0,0,1,740.77,280.6Zm0-19.91a1.38,1.38,0,0,1-1.38-1.38v-6.64a1.38,1.38,0,0,1,2.76,0v6.64A1.38,1.38,0,0,1,740.77,260.69Zm0-19.91a1.38,1.38,0,0,1-1.38-1.38v-6.64a1.38,1.38,0,0,1,2.76,0v6.64A1.38,1.38,0,0,1,740.77,240.78Zm0-19.91a1.38,1.38,0,0,1-1.38-1.38v-6.64a1.38,1.38,0,0,1,2.76,0v6.64A1.38,1.38,0,0,1,740.77,220.87Zm0-19.91a1.38,1.38,0,0,1-1.38-1.38v-6.64a1.38,1.38,0,0,1,2.76,0v6.64A1.38,1.38,0,0,1,740.77,201Zm0-19.91a1.38,1.38,0,0,1-1.38-1.38V173a1.38,1.38,0,0,1,2.76,0v6.64A1.38,1.38,0,0,1,740.77,181.05Zm0-19.91a1.38,1.38,0,0,1-1.38-1.38v-6.64a1.38,1.38,0,0,1,2.76,0v6.64A1.38,1.38,0,0,1,740.77,161.14Z"/><path class="cls-2" d="M551.13,346.56a1.38,1.38,0,0,1-1.38-1.38v-5.51a1.39,1.39,0,0,1,2.77,0v5.51A1.38,1.38,0,0,1,551.13,346.56Zm0-18.78a1.38,1.38,0,0,1-1.38-1.38v-6.64a1.39,1.39,0,0,1,2.77,0v6.64A1.38,1.38,0,0,1,551.13,327.78Zm0-19.91a1.38,1.38,0,0,1-1.38-1.38v-6.64a1.39,1.39,0,0,1,2.77,0v6.64A1.38,1.38,0,0,1,551.13,307.87Zm0-19.91a1.38,1.38,0,0,1-1.38-1.38v-6.64a1.39,1.39,0,0,1,2.77,0v6.64A1.38,1.38,0,0,1,551.13,288Zm0-19.91a1.38,1.38,0,0,1-1.38-1.38V260a1.39,1.39,0,0,1,2.77,0v6.64A1.38,1.38,0,0,1,551.13,268.05Zm0-19.91a1.38,1.38,0,0,1-1.38-1.38v-6.64a1.39,1.39,0,0,1,2.77,0v6.64A1.38,1.38,0,0,1,551.13,248.14Zm0-19.91a1.38,1.38,0,0,1-1.38-1.39v-6.63a1.39,1.39,0,0,1,2.77,0v6.63A1.39,1.39,0,0,1,551.13,228.23Zm0-19.91a1.38,1.38,0,0,1-1.38-1.39V200.3a1.39,1.39,0,1,1,2.77,0v6.63A1.39,1.39,0,0,1,551.13,208.32Zm0-19.91a1.38,1.38,0,0,1-1.38-1.39v-6.63a1.39,1.39,0,1,1,2.77,0V187A1.39,1.39,0,0,1,551.13,188.41Zm0-19.91a1.38,1.38,0,0,1-1.38-1.39v-6.63a1.39,1.39,0,1,1,2.77,0v6.63A1.39,1.39,0,0,1,551.13,168.5Zm0-19.91a1.38,1.38,0,0,1-1.38-1.39v-6.63a1.39,1.39,0,1,1,2.77,0v6.63A1.39,1.39,0,0,1,551.13,148.59Zm0-19.92a1.38,1.38,0,0,1-1.38-1.38v-6.63a1.39,1.39,0,1,1,2.77,0v6.63A1.38,1.38,0,0,1,551.13,128.67Z"/><path class="cls-2" d="M359.71,343.27a1.38,1.38,0,0,1-1.38-1.39v-6.63a1.38,1.38,0,1,1,2.76,0v6.63A1.38,1.38,0,0,1,359.71,343.27Zm0-19.91a1.38,1.38,0,0,1-1.38-1.39v-6.63a1.38,1.38,0,1,1,2.76,0V322A1.38,1.38,0,0,1,359.71,323.36Zm0-19.91a1.38,1.38,0,0,1-1.38-1.39v-6.63a1.38,1.38,0,1,1,2.76,0v6.63A1.38,1.38,0,0,1,359.71,303.45Zm0-19.92a1.38,1.38,0,0,1-1.38-1.38v-6.63a1.38,1.38,0,1,1,2.76,0v6.63A1.38,1.38,0,0,1,359.71,283.53Zm0-19.91a1.38,1.38,0,0,1-1.38-1.38V255.6a1.38,1.38,0,1,1,2.76,0v6.64A1.38,1.38,0,0,1,359.71,263.62Zm0-19.91a1.38,1.38,0,0,1-1.38-1.38v-6.64a1.38,1.38,0,0,1,2.76,0v6.64A1.38,1.38,0,0,1,359.71,243.71Zm0-19.91a1.38,1.38,0,0,1-1.38-1.38v-6.64a1.38,1.38,0,0,1,2.76,0v6.64A1.38,1.38,0,0,1,359.71,223.8Zm0-19.91a1.38,1.38,0,0,1-1.38-1.38v-6.64a1.38,1.38,0,1,1,2.76,0v6.64A1.38,1.38,0,0,1,359.71,203.89Zm0-19.91a1.38,1.38,0,0,1-1.38-1.38V176a1.38,1.38,0,1,1,2.76,0v6.64A1.38,1.38,0,0,1,359.71,184Zm0-19.91a1.38,1.38,0,0,1-1.38-1.38v-6.64a1.38,1.38,0,1,1,2.76,0v6.64A1.38,1.38,0,0,1,359.71,164.07Zm0-19.91a1.38,1.38,0,0,1-1.38-1.38v-6.64a1.38,1.38,0,0,1,2.76,0v6.64A1.38,1.38,0,0,1,359.71,144.16Zm0-19.91a1.38,1.38,0,0,1-1.38-1.38v-6.64a1.38,1.38,0,0,1,2.76,0v6.64A1.38,1.38,0,0,1,359.71,124.25Zm0-19.91a1.38,1.38,0,0,1-1.38-1.38V96.32a1.38,1.38,0,0,1,2.76,0V103A1.38,1.38,0,0,1,359.71,104.34Z"/><path class="cls-2" d="M164.82,346.56a1.38,1.38,0,0,1-1.39-1.38V339.9a1.39,1.39,0,0,1,2.77,0v5.28A1.38,1.38,0,0,1,164.82,346.56Zm0-18.55a1.39,1.39,0,0,1-1.39-1.39V320a1.39,1.39,0,0,1,2.77,0v6.63A1.38,1.38,0,0,1,164.82,328Zm0-19.91a1.39,1.39,0,0,1-1.39-1.39v-6.63a1.39,1.39,0,1,1,2.77,0v6.63A1.38,1.38,0,0,1,164.82,308.1Zm0-19.91a1.39,1.39,0,0,1-1.39-1.39v-6.63a1.39,1.39,0,1,1,2.77,0v6.63A1.38,1.38,0,0,1,164.82,288.19Zm0-19.91a1.39,1.39,0,0,1-1.39-1.39v-6.63a1.39,1.39,0,1,1,2.77,0v6.63A1.38,1.38,0,0,1,164.82,268.28Zm0-19.91a1.39,1.39,0,0,1-1.39-1.39v-6.63a1.39,1.39,0,1,1,2.77,0V247A1.38,1.38,0,0,1,164.82,248.37Zm0-19.91a1.39,1.39,0,0,1-1.39-1.39v-6.63a1.39,1.39,0,1,1,2.77,0v6.63A1.38,1.38,0,0,1,164.82,228.46Zm0-19.92a1.38,1.38,0,0,1-1.39-1.38v-6.64a1.39,1.39,0,0,1,2.77,0v6.64A1.38,1.38,0,0,1,164.82,208.54Zm0-19.91a1.38,1.38,0,0,1-1.39-1.38v-6.64a1.39,1.39,0,0,1,2.77,0v6.64A1.38,1.38,0,0,1,164.82,188.63Zm0-19.91a1.38,1.38,0,0,1-1.39-1.38V160.7a1.39,1.39,0,0,1,2.77,0v6.64A1.38,1.38,0,0,1,164.82,168.72Zm0-19.91a1.38,1.38,0,0,1-1.39-1.38v-6.64a1.39,1.39,0,0,1,2.77,0v6.64A1.38,1.38,0,0,1,164.82,148.81Zm0-19.91a1.38,1.38,0,0,1-1.39-1.38v-6.64a1.39,1.39,0,0,1,2.77,0v6.64A1.38,1.38,0,0,1,164.82,128.9Zm0-19.91a1.38,1.38,0,0,1-1.39-1.38V101a1.39,1.39,0,0,1,2.77,0v6.64A1.38,1.38,0,0,1,164.82,109Zm0-19.91a1.38,1.38,0,0,1-1.39-1.38V81.06a1.39,1.39,0,0,1,2.77,0V87.7A1.38,1.38,0,0,1,164.82,89.08Zm0-19.91a1.38,1.38,0,0,1-1.39-1.38V61.15a1.39,1.39,0,0,1,2.77,0v6.64A1.38,1.38,0,0,1,164.82,69.17Z"/><path class="cls-2" d="M171.2,385.35v4H158.91v-4h4V373.73a6.38,6.38,0,0,1-2.05,1.55,5.66,5.66,0,0,1-2.63.85V372a3.41,3.41,0,0,0,1.26-.27,6.76,6.76,0,0,0,1.26-.64q.57-.37,1.08-.78c.33-.27.59-.49.77-.67a3.2,3.2,0,0,0,.31-.32h4.65v16Z"/><path class="cls-2" d="M352.73,389.38a13.51,13.51,0,0,1,.84-5.39,7.51,7.51,0,0,1,3.21-3.26c.34-.21.85-.49,1.52-.84s1.22-.65,1.63-.89a12.15,12.15,0,0,0,1.32-.91,3.72,3.72,0,0,0,1-1.17,2.91,2.91,0,0,0,.35-1.4,2.11,2.11,0,0,0-.68-1.68,2.6,2.6,0,0,0-1.79-.59,5,5,0,0,0-2.45.65,9.1,9.1,0,0,0-2.1,1.56l-2.85-3a9.76,9.76,0,0,1,3.26-2.24,11.3,11.3,0,0,1,4.77-1A7.57,7.57,0,0,1,366,370.9a5.46,5.46,0,0,1,1.84,4.34,6.46,6.46,0,0,1-.23,1.73,6,6,0,0,1-.63,1.43,6.37,6.37,0,0,1-1,1.2,10.38,10.38,0,0,1-1.22,1c-.41.29-.89.61-1.44.93a27.57,27.57,0,0,0-3.37,2.11,6.76,6.76,0,0,0-1.52,1.67h9.44v4Z"/><path class="cls-2" d="M551.7,389.54q-4.63,0-6.88-2.85l2.37-3.16a4.84,4.84,0,0,0,1.75,1.38,5.78,5.78,0,0,0,2.55.52,4.38,4.38,0,0,0,2.47-.58,1.94,1.94,0,0,0,.87-1.72q0-2.46-4.41-2.46h-.92v-3.21h1a5.52,5.52,0,0,0,2.81-.62,1.93,1.93,0,0,0,1-1.73,1.79,1.79,0,0,0-.71-1.48,2.92,2.92,0,0,0-1.82-.55,4.34,4.34,0,0,0-2.21.58,4.49,4.49,0,0,0-1.6,1.61L545,372A6.49,6.49,0,0,1,548,370a12.2,12.2,0,0,1,4.24-.74,8.35,8.35,0,0,1,5,1.41,4.35,4.35,0,0,1,1.93,3.68,4.41,4.41,0,0,1-1,2.9,4.7,4.7,0,0,1-2.72,1.61,4.68,4.68,0,0,1,3,1.72,5.1,5.1,0,0,1,1.16,3.33,4.72,4.72,0,0,1-2.17,4.1A9.72,9.72,0,0,1,551.7,389.54Z"/><path class="cls-2" d="M740.71,389.35v-4.17h-8v-4l9.41-11.71h3.1v11.71h2.52v4h-2.52v4.17Zm-3.42-8.17h3.94v-5Z"/><path class="cls-2" d="M932.94,389.63a9,9,0,0,1-4-.87,6.27,6.27,0,0,1-2.7-2.43l2.56-2.77a5.84,5.84,0,0,0,1.91,1.58,5,5,0,0,0,2.25.58,3,3,0,0,0,2.12-.76,2.87,2.87,0,0,0,.06-3.93,2.65,2.65,0,0,0-1.93-.76,3.14,3.14,0,0,0-1.45.35,2.56,2.56,0,0,0-1,.95h-4l2.36-12.1h10.06v4.09h-6.76l-.6,3.39a3,3,0,0,1,2-.5,6.7,6.7,0,0,1,4.8,1.79,6.1,6.1,0,0,1,1.89,4.62,6.21,6.21,0,0,1-2.15,4.88A8,8,0,0,1,932.94,389.63Z"/></g></g></svg>