<svg xmlns="http://www.w3.org/2000/svg" viewBox="0 0 855.1 562.61"><defs><style>.cls-1{fill:#00324a;}.cls-2{fill:#fff;}.cls-3{fill:#62cec0;}.cls-4{fill:#5f6ff6;}.cls-5{fill:#f7d351;}</style></defs><title>5</title><g id="Capa_2" data-name="Capa 2"><g id="Layer_1" data-name="Layer 1"><path class="cls-1" d="M116,20.41a8.91,8.91,0,0,1-4-.87,6.22,6.22,0,0,1-2.71-2.42l2.56-2.78a5.92,5.92,0,0,0,1.91,1.58,4.83,4.83,0,0,0,2.25.58,3,3,0,0,0,2.12-.76,2.6,2.6,0,0,0,.82-2,2.59,2.59,0,0,0-2.69-2.69,3.14,3.14,0,0,0-1.45.35,2.56,2.56,0,0,0-1,.95h-4L112.17.26h10.06V4.35h-6.77l-.59,3.39a2.94,2.94,0,0,1,2-.51A6.69,6.69,0,0,1,121.71,9a6.12,6.12,0,0,1,1.88,4.61,6.19,6.19,0,0,1-2.15,4.89A8,8,0,0,1,116,20.41Z"/><path class="cls-1" d="M134.62,20.14V16h-8V12l9.4-11.7h3.11V12h2.51v4h-2.51v4.17ZM131.19,12h3.94V7Z"/><path class="cls-1" d="M145.58,20.17V15.6h3.73v4.57Z"/><path class="cls-1" d="M159.74,20.33q-4.63,0-6.88-2.86l2.37-3.16A4.76,4.76,0,0,0,157,15.7a6,6,0,0,0,2.55.51,4.38,4.38,0,0,0,2.47-.58,1.92,1.92,0,0,0,.87-1.71q0-2.46-4.41-2.46h-.92V8.24h1a5.42,5.42,0,0,0,2.81-.62,1.92,1.92,0,0,0,1-1.73,1.73,1.73,0,0,0-.71-1.47,2.86,2.86,0,0,0-1.82-.55,4.24,4.24,0,0,0-2.21.58A4.49,4.49,0,0,0,156,6.06l-2.94-3.31A6.49,6.49,0,0,1,156,.81a12,12,0,0,1,4.24-.74,8.35,8.35,0,0,1,5,1.41,4.34,4.34,0,0,1,1.93,3.67,4.37,4.37,0,0,1-1,2.91,4.76,4.76,0,0,1-2.71,1.61,4.71,4.71,0,0,1,3,1.71,5.12,5.12,0,0,1,1.16,3.33,4.77,4.77,0,0,1-2.16,4.11A9.77,9.77,0,0,1,159.74,20.33Z"/><path class="cls-1" d="M171.08,4.32a4,4,0,0,1,1.42-3.06,5.37,5.37,0,0,1,6.91,0,4,4,0,0,1,1.41,3.06,4,4,0,0,1-1.41,3.07,5.37,5.37,0,0,1-6.91,0A4,4,0,0,1,171.08,4.32Zm2,14.27,8-9.06L188.38,0l2,1.8-7.78,8.85-7.58,9.73Zm4.12-12.75a2.34,2.34,0,0,0,.5-1.52,2.29,2.29,0,0,0-.5-1.51,1.48,1.48,0,0,0-2.42,0,2.4,2.4,0,0,0-.5,1.5,2.4,2.4,0,0,0,.5,1.52,1.46,1.46,0,0,0,2.42,0Zm5.48,10.29a4,4,0,0,1,1.42-3.07,5.38,5.38,0,0,1,6.92,0,4,4,0,0,1,1.42,3.07A3.91,3.91,0,0,1,191,19.18a5.38,5.38,0,0,1-6.92,0A3.94,3.94,0,0,1,182.64,16.13Zm6.61,0a2.34,2.34,0,0,0-.51-1.51,1.53,1.53,0,0,0-1.23-.65,1.5,1.5,0,0,0-1.21.64,2.4,2.4,0,0,0-.5,1.52,2.33,2.33,0,0,0,.5,1.51,1.51,1.51,0,0,0,1.21.63,1.55,1.55,0,0,0,1.23-.64A2.31,2.31,0,0,0,189.25,16.13Z"/><path class="cls-1" d="M368.39,157.72a13.71,13.71,0,0,1,.83-5.39,7.67,7.67,0,0,1,3.22-3.27c.34-.21.85-.49,1.52-.84s1.22-.65,1.63-.89a11.91,11.91,0,0,0,1.31-.9,3.68,3.68,0,0,0,1-1.18,2.87,2.87,0,0,0,.34-1.4,2.1,2.1,0,0,0-.67-1.68,2.65,2.65,0,0,0-1.79-.59,5.11,5.11,0,0,0-2.45.65,9,9,0,0,0-2.1,1.57l-2.85-3a9.7,9.7,0,0,1,3.25-2.23,11.33,11.33,0,0,1,4.77-1,7.6,7.6,0,0,1,5.17,1.61,5.5,5.5,0,0,1,1.85,4.35,6,6,0,0,1-.24,1.72,5.66,5.66,0,0,1-.62,1.43,6.48,6.48,0,0,1-1,1.21,10.26,10.26,0,0,1-1.22,1c-.42.3-.9.61-1.44.94a25.27,25.27,0,0,0-3.37,2.11,6.54,6.54,0,0,0-1.52,1.66h9.44v4Z"/><path class="cls-1" d="M394.89,157.69v-4.17h-8v-4l9.4-11.7h3.11v11.7H402v4h-2.51v4.17Zm-3.43-8.18h3.94v-5Z"/><path class="cls-1" d="M405.85,157.72v-4.57h3.73v4.57Z"/><path class="cls-1" d="M413.51,157.72a13.71,13.71,0,0,1,.83-5.39,7.67,7.67,0,0,1,3.22-3.27c.34-.21.85-.49,1.52-.84s1.22-.65,1.63-.89a13,13,0,0,0,1.32-.9,3.76,3.76,0,0,0,1-1.18,2.87,2.87,0,0,0,.34-1.4,2.1,2.1,0,0,0-.67-1.68,2.65,2.65,0,0,0-1.79-.59,5.11,5.11,0,0,0-2.45.65,9,9,0,0,0-2.1,1.57l-2.85-3a9.7,9.7,0,0,1,3.25-2.23,11.35,11.35,0,0,1,4.78-1,7.64,7.64,0,0,1,5.17,1.61,5.49,5.49,0,0,1,1.84,4.35,6,6,0,0,1-.24,1.72,5.33,5.33,0,0,1-.62,1.43,6.11,6.11,0,0,1-1,1.21,10.26,10.26,0,0,1-1.22,1c-.42.3-.9.61-1.44.94a25.27,25.27,0,0,0-3.37,2.11,6.54,6.54,0,0,0-1.52,1.66h9.44v4Z"/><path class="cls-1" d="M432.28,141.87a4,4,0,0,1,1.42-3.05,5.33,5.33,0,0,1,6.91,0,4,4,0,0,1,0,6.12,5.33,5.33,0,0,1-6.91,0A4,4,0,0,1,432.28,141.87Zm2,14.27,8-9.06,7.31-9.5,2.05,1.8-7.78,8.85L436.26,158Zm4.11-12.74a2.39,2.39,0,0,0,.5-1.53,2.31,2.31,0,0,0-.5-1.51,1.48,1.48,0,0,0-2.42,0,2.4,2.4,0,0,0-.5,1.5,2.44,2.44,0,0,0,.5,1.53,1.51,1.51,0,0,0,1.21.63A1.49,1.49,0,0,0,438.36,143.4Zm5.49,10.28a4,4,0,0,1,1.42-3.07,5.37,5.37,0,0,1,6.91,0,4,4,0,0,1,1.42,3.07,3.91,3.91,0,0,1-1.42,3,5.37,5.37,0,0,1-6.91,0A3.91,3.91,0,0,1,443.85,153.68Zm6.61,0a2.35,2.35,0,0,0-.52-1.51,1.53,1.53,0,0,0-1.22-.65,1.5,1.5,0,0,0-1.21.64,2.34,2.34,0,0,0-.5,1.52,2.27,2.27,0,0,0,.5,1.51,1.49,1.49,0,0,0,1.21.63,1.54,1.54,0,0,0,1.22-.64A2.32,2.32,0,0,0,450.46,153.68Z"/><path class="cls-1" d="M624.52,234.22a13.71,13.71,0,0,1,.83-5.39,7.65,7.65,0,0,1,3.22-3.26c.34-.21.85-.49,1.52-.84s1.22-.65,1.63-.89a11.91,11.91,0,0,0,1.31-.9,3.9,3.9,0,0,0,1-1.18,2.87,2.87,0,0,0,.34-1.4,2.1,2.1,0,0,0-.67-1.68,2.6,2.6,0,0,0-1.79-.59,5.11,5.11,0,0,0-2.45.65,8.7,8.7,0,0,0-2.1,1.56l-2.85-3a9.71,9.71,0,0,1,3.25-2.24,11.33,11.33,0,0,1,4.77-1,7.56,7.56,0,0,1,5.17,1.62,5.47,5.47,0,0,1,1.85,4.34,6.08,6.08,0,0,1-.24,1.73,5.83,5.83,0,0,1-.62,1.43,7.2,7.2,0,0,1-1,1.21,11.3,11.3,0,0,1-1.22,1c-.42.29-.9.61-1.44.93a27.57,27.57,0,0,0-3.37,2.11,6.57,6.57,0,0,0-1.52,1.67h9.44v4Z"/><path class="cls-1" d="M656.46,230.19v4H644.17v-4h4V218.57a6.52,6.52,0,0,1-2.05,1.56,5.74,5.74,0,0,1-2.63.84v-4.11a3.45,3.45,0,0,0,1.26-.27A6.76,6.76,0,0,0,646,216a12.82,12.82,0,0,0,1.07-.78,9.63,9.63,0,0,0,.78-.67,3.2,3.2,0,0,0,.31-.32h4.65v16Z"/><path class="cls-1" d="M659.9,234.22v-4.57h3.73v4.57Z"/><path class="cls-1" d="M674.13,234.47a8.91,8.91,0,0,1-4-.87,6.24,6.24,0,0,1-2.71-2.43L670,228.4a6.05,6.05,0,0,0,1.91,1.58,5,5,0,0,0,2.25.58,3,3,0,0,0,2.12-.76,2.58,2.58,0,0,0,.82-2,2.59,2.59,0,0,0-2.69-2.69,3.13,3.13,0,0,0-1.45.34,2.6,2.6,0,0,0-1,.95h-4l2.37-12.1h10.06v4.09h-6.76l-.6,3.39a3,3,0,0,1,2-.5,6.69,6.69,0,0,1,4.81,1.8,6.09,6.09,0,0,1,1.88,4.61,6.17,6.17,0,0,1-2.15,4.88A8,8,0,0,1,674.13,234.47Z"/><path class="cls-1" d="M685.07,218.38a4,4,0,0,1,1.42-3.06,5.37,5.37,0,0,1,6.91,0,4,4,0,0,1,0,6.12,5.33,5.33,0,0,1-6.91,0A4,4,0,0,1,685.07,218.38Zm2,14.27,8-9.07,7.31-9.5,2,1.81-7.78,8.84-7.59,9.74Zm4.11-12.75a2.56,2.56,0,0,0,0-3,1.48,1.48,0,0,0-2.42,0,2.36,2.36,0,0,0-.5,1.5,2.4,2.4,0,0,0,.5,1.52,1.52,1.52,0,0,0,1.21.64A1.5,1.5,0,0,0,691.15,219.9Zm5.49,10.29a3.94,3.94,0,0,1,1.42-3.07,5.33,5.33,0,0,1,6.91,0,4,4,0,0,1,0,6.12,5.4,5.4,0,0,1-6.91,0A3.93,3.93,0,0,1,696.64,230.19Zm6.61,0a2.37,2.37,0,0,0-.52-1.52,1.51,1.51,0,0,0-1.22-.64,1.49,1.49,0,0,0-1.21.63,2.39,2.39,0,0,0-.5,1.53,2.31,2.31,0,0,0,.5,1.51,1.5,1.5,0,0,0,1.21.62,1.53,1.53,0,0,0,1.22-.63A2.36,2.36,0,0,0,703.25,230.19Z"/><path class="cls-1" d="M633.4,524.89h2.52l4.7,12.78h-2.56l-1.19-3.18h-4.46l-1.17,3.18h-2.56Zm3,7.85-1.77-5.28-1.84,5.28Z"/><path class="cls-1" d="M641.38,533a5.55,5.55,0,0,1,.54-2.46,4.29,4.29,0,0,1,1.51-1.77,3.82,3.82,0,0,1,2.17-.65,3.56,3.56,0,0,1,1.85.5,3.66,3.66,0,0,1,1.33,1.32v-5.36h2.42V535a1,1,0,0,0,.12.55.61.61,0,0,0,.44.19v2a5.71,5.71,0,0,1-1,.12,1.74,1.74,0,0,1-1.07-.32,1.16,1.16,0,0,1-.48-.85l0-.59a3.47,3.47,0,0,1-1.4,1.34,3.88,3.88,0,0,1-1.88.47,4.15,4.15,0,0,1-2.31-.65,4.35,4.35,0,0,1-1.6-1.77A5.23,5.23,0,0,1,641.38,533Zm7.4,1.26V532a2.94,2.94,0,0,0-1-1.31,2.36,2.36,0,0,0-1.43-.52,2.2,2.2,0,0,0-1.77.85,3.11,3.11,0,0,0-.7,2,2.81,2.81,0,0,0,.74,2,2.44,2.44,0,0,0,1.87.81,2.4,2.4,0,0,0,1.38-.46A2.19,2.19,0,0,0,648.78,534.21Z"/><path class="cls-1" d="M659.35,537.67v-7.09h-1.24v-1.84h1.24v-.57a4.25,4.25,0,0,1,.86-2.79,2.84,2.84,0,0,1,2.3-1,5.32,5.32,0,0,1,2.32.57l-.49,1.82a2.65,2.65,0,0,0-1.31-.35,1.12,1.12,0,0,0-.94.43,2.13,2.13,0,0,0-.32,1.26v.67h2.3v1.84h-2.3v7.09Z"/><path class="cls-1" d="M671.5,530.32a4.58,4.58,0,0,0-2,.44,2.56,2.56,0,0,0-1.23,1.2v5.71h-2.41v-9.43h2.22v2a4.3,4.3,0,0,1,1.28-1.53,3,3,0,0,1,1.64-.61,4.06,4.06,0,0,1,.48,0Z"/><path class="cls-1" d="M672.59,534.88a2.67,2.67,0,0,1,1.13-2.22,4.75,4.75,0,0,1,2.92-.85,6,6,0,0,1,2.27.38v-.5a1.82,1.82,0,0,0-.53-1.39,2.3,2.3,0,0,0-1.58-.48,4.13,4.13,0,0,0-1.44.26,7.4,7.4,0,0,0-1.5.8l-.78-1.58a7.17,7.17,0,0,1,4-1.23,4.56,4.56,0,0,1,3.14,1,3.69,3.69,0,0,1,1.12,2.88v3a.87.87,0,0,0,.13.55.63.63,0,0,0,.45.19v2a5.43,5.43,0,0,1-1,.12,1.73,1.73,0,0,1-1.08-.3,1.29,1.29,0,0,1-.47-.81l-.05-.49a4.13,4.13,0,0,1-1.52,1.22,4.37,4.37,0,0,1-1.88.43,3.4,3.4,0,0,1-2.35-.84A2.74,2.74,0,0,1,672.59,534.88Zm5.87.49a1.26,1.26,0,0,0,.45-.83v-1a4.94,4.94,0,0,0-1.89-.38,2.67,2.67,0,0,0-1.54.41,1.25,1.25,0,0,0-.6,1.07,1.31,1.31,0,0,0,.45,1,1.77,1.77,0,0,0,1.23.42,3,3,0,0,0,1.05-.2A2.65,2.65,0,0,0,678.46,535.37Z"/><path class="cls-1" d="M683.93,534.14v-5.9h2.41v5.38c0,1.45.52,2.18,1.56,2.18a2.43,2.43,0,0,0,1.38-.44,3.15,3.15,0,0,0,1.06-1.28v-5.84h2.41V535a.87.87,0,0,0,.13.55.63.63,0,0,0,.45.19v2a6,6,0,0,1-1.05.1,1.77,1.77,0,0,1-1.06-.29,1.14,1.14,0,0,1-.47-.82l0-.76a4.08,4.08,0,0,1-1.61,1.45,4.77,4.77,0,0,1-2.19.49,2.65,2.65,0,0,1-2.21-.94A4.27,4.27,0,0,1,683.93,534.14Z"/><path class="cls-1" d="M695,533a5.68,5.68,0,0,1,.53-2.46,4.29,4.29,0,0,1,1.51-1.77,3.85,3.85,0,0,1,2.18-.65,3.59,3.59,0,0,1,1.85.5,3.74,3.74,0,0,1,1.33,1.32v-5.36h2.42V535a1,1,0,0,0,.12.55.56.56,0,0,0,.43.19v2a5.71,5.71,0,0,1-1,.12,1.76,1.76,0,0,1-1.07-.32,1.2,1.2,0,0,1-.48-.85l0-.59a3.47,3.47,0,0,1-1.4,1.34,3.88,3.88,0,0,1-1.88.47,4.17,4.17,0,0,1-2.31-.65,4.35,4.35,0,0,1-1.6-1.77A5.35,5.35,0,0,1,695,533Zm7.4,1.26V532a3,3,0,0,0-1-1.31,2.36,2.36,0,0,0-1.43-.52,2.18,2.18,0,0,0-1.76.85,3.12,3.12,0,0,0-.71,2,2.77,2.77,0,0,0,.75,2,2.44,2.44,0,0,0,3.24.35A2.21,2.21,0,0,0,702.41,534.21Z"/><path class="cls-1" d="M366.34,524.7l3.45,9.83,3.42-9.83h2.61L371,537.48h-2.39l-4.86-12.78Z"/><path class="cls-1" d="M377.41,526.73v-2.39h2.4v2.39Zm0,10.75v-9.43h2.4v9.43Z"/><path class="cls-1" d="M386.82,537.66a5.12,5.12,0,0,1-2.63-.67,4.55,4.55,0,0,1-1.75-1.76,5,5,0,0,1-.59-2.4,5.27,5.27,0,0,1,.59-2.47,4.58,4.58,0,0,1,1.75-1.8,5.14,5.14,0,0,1,2.65-.67,5.32,5.32,0,0,1,2.06.39,4.47,4.47,0,0,1,1.55,1.07,4.65,4.65,0,0,1,1,1.54,4.93,4.93,0,0,1,.34,1.84,5.82,5.82,0,0,1-.05.81h-7.3a2.5,2.5,0,0,0,.81,1.72,2.47,2.47,0,0,0,1.7.64,2.78,2.78,0,0,0,1.36-.35,1.85,1.85,0,0,0,.87-.93l2.07.58a4.13,4.13,0,0,1-1.69,1.78A5.31,5.31,0,0,1,386.82,537.66ZM384.35,532h4.93a2.64,2.64,0,0,0-.79-1.72,2.5,2.5,0,0,0-3.36,0A2.61,2.61,0,0,0,384.35,532Z"/><path class="cls-1" d="M405.1,528.05h2.28l-3.94,9.43h-2l-1.58-4.05-1.55,4.05h-2l-3.93-9.43h2.27l2.81,7.13,1.1-3.08-1.64-4h2l1,2.88,1-2.88h2l-1.64,4,1.12,3.08Z"/><path class="cls-1" d="M408.06,534.7a2.63,2.63,0,0,1,1.12-2.22,4.72,4.72,0,0,1,2.93-.85,6,6,0,0,1,2.27.38v-.5a1.79,1.79,0,0,0-.53-1.39,2.3,2.3,0,0,0-1.58-.48,4.08,4.08,0,0,0-1.44.25,8.41,8.41,0,0,0-1.51.81l-.78-1.58a7.19,7.19,0,0,1,4-1.23,4.52,4.52,0,0,1,3.15,1,3.69,3.69,0,0,1,1.12,2.88v3a.89.89,0,0,0,.13.55.63.63,0,0,0,.45.18v2a4.88,4.88,0,0,1-1,.13,1.67,1.67,0,0,1-1.08-.31,1.29,1.29,0,0,1-.47-.81l-.05-.48a4,4,0,0,1-1.53,1.21,4.17,4.17,0,0,1-1.87.44,3.37,3.37,0,0,1-2.35-.84A2.75,2.75,0,0,1,408.06,534.7Zm5.87.48a1.24,1.24,0,0,0,.45-.83v-1a5,5,0,0,0-1.89-.38,2.73,2.73,0,0,0-1.55.41,1.24,1.24,0,0,0-.6,1.07,1.29,1.29,0,0,0,.46,1,1.74,1.74,0,0,0,1.22.42,2.72,2.72,0,0,0,1.05-.2A2.44,2.44,0,0,0,413.93,535.18Z"/><path class="cls-1" d="M421.6,535.85v1.63h-2.11V524.34h2.41v5.37a3.55,3.55,0,0,1,1.34-1.35,3.7,3.7,0,0,1,1.9-.47,3.63,3.63,0,0,1,2.15.67,4.4,4.4,0,0,1,1.46,1.8,5.84,5.84,0,0,1,.51,2.45,5.36,5.36,0,0,1-.57,2.46A4.41,4.41,0,0,1,427.1,537a4.1,4.1,0,0,1-2.25.64,3.79,3.79,0,0,1-1.91-.48A3.43,3.43,0,0,1,421.6,535.85Zm5.19-3a3.06,3.06,0,0,0-.7-2,2.2,2.2,0,0,0-1.76-.86,2.29,2.29,0,0,0-1.43.52,3.36,3.36,0,0,0-1,1.32V534a2.16,2.16,0,0,0,.9,1.14,2.53,2.53,0,0,0,1.38.44,2.41,2.41,0,0,0,1.87-.81A2.84,2.84,0,0,0,426.79,532.83Z"/><path class="cls-1" d="M431.34,526.73v-2.39h2.41v2.39Zm0,10.75v-9.43h2.41v9.43Z"/><path class="cls-1" d="M436.36,524.34h2.41v10.12a1.32,1.32,0,0,0,.21.86.73.73,0,0,0,.6.24,2.71,2.71,0,0,0,1.14-.26l.32,1.84a5.1,5.1,0,0,1-1.12.35,5.67,5.67,0,0,1-1.18.13A2.41,2.41,0,0,1,437,537a2.29,2.29,0,0,1-.63-1.72Z"/><path class="cls-1" d="M442.54,526.73v-2.39h2.4v2.39Zm0,10.75v-9.43h2.4v9.43Z"/><path class="cls-1" d="M453.23,537a6.56,6.56,0,0,1-2.67.64,3.21,3.21,0,0,1-.95-.13,2.46,2.46,0,0,1-.77-.4,1.8,1.8,0,0,1-.54-.72,2.92,2.92,0,0,1-.19-1.07v-5.41h-1.24v-1.86h1.24V525h2.42v3.06h2v1.86h-2v4.6c0,.62.31.93.89.93a3.6,3.6,0,0,0,1.32-.35Z"/><path class="cls-1" d="M455.09,539.32a4.59,4.59,0,0,0,1.08.18.94.94,0,0,0,.8-.42,5.94,5.94,0,0,0,.66-1.6l-3.73-9.43h2.51l2.54,7,2.23-7h2.3l-4,11.31a3.21,3.21,0,0,1-1.19,1.62,3.29,3.29,0,0,1-2,.63,3.71,3.71,0,0,1-1.21-.21Z"/><path class="cls-1" d="M133.33,537.48h-6.17V524.7H134a2.61,2.61,0,0,1,1.54.49,3.17,3.17,0,0,1,1,1.22,3.63,3.63,0,0,1,.35,1.56,3.44,3.44,0,0,1-.49,1.77,2.87,2.87,0,0,1-1.35,1.2,3.16,3.16,0,0,1,1.74,1.17,3.4,3.4,0,0,1,.63,2.08,2.93,2.93,0,0,1-.57,1.8,3.3,3.3,0,0,1-1.49,1.12A5.4,5.4,0,0,1,133.33,537.48Zm-3.69-10.65v3.22H133a1.47,1.47,0,0,0,1.08-.44,1.6,1.6,0,0,0,.43-1.18,1.64,1.64,0,0,0-.4-1.16,1.3,1.3,0,0,0-1-.44Zm3.81,5.18h-3.81v3.36h3.69a1.54,1.54,0,0,0,1.14-.48,1.59,1.59,0,0,0,.48-1.17,1.8,1.8,0,0,0-.44-1.21A1.36,1.36,0,0,0,133.45,532Z"/><path class="cls-1" d="M145.22,530.14a4.44,4.44,0,0,0-2,.44,2.56,2.56,0,0,0-1.23,1.2v5.7h-2.4v-9.43h2.21v2a4.4,4.4,0,0,1,1.28-1.53,2.94,2.94,0,0,1,1.64-.61,4.06,4.06,0,0,1,.48,0Z"/><path class="cls-1" d="M146.31,534.7a2.64,2.64,0,0,1,1.13-2.22,4.7,4.7,0,0,1,2.93-.85,6,6,0,0,1,2.26.38v-.5a1.75,1.75,0,0,0-.53-1.39,2.28,2.28,0,0,0-1.58-.48,4.12,4.12,0,0,0-1.44.25,8.36,8.36,0,0,0-1.5.81l-.78-1.58a7.17,7.17,0,0,1,4-1.23,4.49,4.49,0,0,1,3.14,1,3.66,3.66,0,0,1,1.12,2.88v3a1,1,0,0,0,.13.55.63.63,0,0,0,.45.18v2a4.81,4.81,0,0,1-1,.13,1.63,1.63,0,0,1-1.07-.31,1.21,1.21,0,0,1-.47-.81L153,536a4,4,0,0,1-1.52,1.21,4.21,4.21,0,0,1-1.88.44,3.36,3.36,0,0,1-2.34-.84A2.73,2.73,0,0,1,146.31,534.7Zm5.88.48a1.26,1.26,0,0,0,.44-.83v-1a4.94,4.94,0,0,0-1.89-.38,2.69,2.69,0,0,0-1.54.41,1.24,1.24,0,0,0-.6,1.07,1.25,1.25,0,0,0,.46,1,1.72,1.72,0,0,0,1.22.42,2.72,2.72,0,0,0,1.05-.2A2.54,2.54,0,0,0,152.19,535.18Z"/><path class="cls-1" d="M166.5,537.48h-2.4v-5.29c0-1.45-.5-2.18-1.5-2.18a2.35,2.35,0,0,0-1.47.57,2.83,2.83,0,0,0-1,1.39v5.51h-2.41v-9.43h2.18v1.75a3.59,3.59,0,0,1,1.53-1.4,4.78,4.78,0,0,1,2.22-.51,3.21,3.21,0,0,1,1.2.21,2.38,2.38,0,0,1,.82.56,2.66,2.66,0,0,1,.49.84,4.76,4.76,0,0,1,.26,1,9.23,9.23,0,0,1,.06,1.1Z"/><path class="cls-1" d="M168.47,532.76a5.61,5.61,0,0,1,.54-2.46,4.33,4.33,0,0,1,1.51-1.76,3.77,3.77,0,0,1,2.17-.65,3.56,3.56,0,0,1,1.85.49,3.71,3.71,0,0,1,1.34,1.33v-5.37h2.41v10.45a.89.89,0,0,0,.13.55.56.56,0,0,0,.43.18v2a5,5,0,0,1-1,.13,1.74,1.74,0,0,1-1.07-.32,1.22,1.22,0,0,1-.48-.85l0-.59a3.47,3.47,0,0,1-1.4,1.34,4,4,0,0,1-1.88.47,4.23,4.23,0,0,1-2.31-.65,4.35,4.35,0,0,1-1.6-1.77A5.39,5.39,0,0,1,168.47,532.76Zm7.41,1.27v-2.25a3,3,0,0,0-1-1.31,2.37,2.37,0,0,0-1.43-.53,2.21,2.21,0,0,0-1.77.86,3.09,3.09,0,0,0-.7,2,2.84,2.84,0,0,0,.74,2,2.48,2.48,0,0,0,3.25.35A2.3,2.3,0,0,0,175.88,534Z"/><path class="cls-1" d="M129.78,558.66a6.85,6.85,0,0,1-2.32-.4,5.28,5.28,0,0,1-1.88-1.16l.87-1.57a5.28,5.28,0,0,0,3.24,1.34,2.17,2.17,0,0,0,1.13-.26.84.84,0,0,0,.42-.75.66.66,0,0,0,0-.21.48.48,0,0,0-.08-.18l-.12-.14a.87.87,0,0,0-.19-.13l-.22-.1a1.8,1.8,0,0,0-.28-.11l-.3-.1-.37-.1-.39-.12c-.46-.15-.84-.28-1.14-.4a6.24,6.24,0,0,1-.87-.41,2.52,2.52,0,0,1-.65-.5,2.1,2.1,0,0,1-.36-.62,2.37,2.37,0,0,1-.14-.83,2.69,2.69,0,0,1,1.05-2.22,4.36,4.36,0,0,1,2.78-.82,5,5,0,0,1,3.54,1.33l-1,1.53a4.45,4.45,0,0,0-2.68-1.08,2.13,2.13,0,0,0-1,.23.78.78,0,0,0-.42.75.77.77,0,0,0,.37.69,6.11,6.11,0,0,0,1.35.49l1.24.4a7.34,7.34,0,0,1,.94.4,2.71,2.71,0,0,1,.74.52,2.25,2.25,0,0,1,.41.65,2.49,2.49,0,0,1,.16.9,2.59,2.59,0,0,1-1,2.18A4.31,4.31,0,0,1,129.78,558.66Z"/><path class="cls-1" d="M135,555.7a2.64,2.64,0,0,1,1.13-2.22,4.69,4.69,0,0,1,2.92-.85,6,6,0,0,1,2.27.38v-.5a1.79,1.79,0,0,0-.53-1.39,2.3,2.3,0,0,0-1.58-.48,4.12,4.12,0,0,0-1.44.25,8,8,0,0,0-1.5.81l-.79-1.58a7.2,7.2,0,0,1,4-1.23,4.51,4.51,0,0,1,3.14,1,3.66,3.66,0,0,1,1.12,2.88v3a.89.89,0,0,0,.13.55.63.63,0,0,0,.45.18v2a4.88,4.88,0,0,1-1,.13,1.67,1.67,0,0,1-1.08-.31,1.29,1.29,0,0,1-.47-.81l-.05-.48a4,4,0,0,1-1.52,1.21,4.24,4.24,0,0,1-1.88.44,3.38,3.38,0,0,1-2.35-.84A2.75,2.75,0,0,1,135,555.7Zm5.87.48a1.24,1.24,0,0,0,.45-.83v-1a4.94,4.94,0,0,0-1.89-.38,2.73,2.73,0,0,0-1.55.41,1.25,1.25,0,0,0-.59,1.07,1.28,1.28,0,0,0,.45,1,1.77,1.77,0,0,0,1.23.42,2.79,2.79,0,0,0,1-.2A2.49,2.49,0,0,0,140.86,556.18Z"/><path class="cls-1" d="M147,558.48v-7.09h-1.23v-1.84H147V549a4.24,4.24,0,0,1,.86-2.78,2.84,2.84,0,0,1,2.3-1,5.41,5.41,0,0,1,2.32.56l-.48,1.82a2.65,2.65,0,0,0-1.32-.34,1.1,1.1,0,0,0-.94.43,2.13,2.13,0,0,0-.32,1.26v.66h2.3v1.84h-2.3v7.09Z"/><path class="cls-1" d="M157.74,558.66a5.12,5.12,0,0,1-2.63-.67,4.55,4.55,0,0,1-1.75-1.76,5,5,0,0,1-.59-2.4,5.27,5.27,0,0,1,.59-2.47,4.58,4.58,0,0,1,1.75-1.8,5.14,5.14,0,0,1,2.65-.67,5.29,5.29,0,0,1,2.06.39,4.61,4.61,0,0,1,1.56,1.07,4.79,4.79,0,0,1,1,1.54,4.93,4.93,0,0,1,.34,1.84,5.82,5.82,0,0,1,0,.81h-7.3a2.5,2.5,0,0,0,.81,1.72,2.47,2.47,0,0,0,1.7.64,2.88,2.88,0,0,0,1.37-.35,1.87,1.87,0,0,0,.86-.93l2.07.58a4.1,4.1,0,0,1-1.7,1.78A5.24,5.24,0,0,1,157.74,558.66ZM155.27,553h4.93a2.64,2.64,0,0,0-.79-1.72,2.5,2.5,0,0,0-3.36,0A2.61,2.61,0,0,0,155.27,553Z"/><path class="cls-1" d="M170.15,558a6.56,6.56,0,0,1-2.66.64,3.16,3.16,0,0,1-1-.13,2.35,2.35,0,0,1-.77-.4,1.8,1.8,0,0,1-.54-.72,2.73,2.73,0,0,1-.19-1.07v-5.41H163.8v-1.86H165V546h2.41v3.06h2v1.86h-2v4.6q0,.93.9.93a3.6,3.6,0,0,0,1.32-.35Z"/><path class="cls-1" d="M172,560.32a4.44,4.44,0,0,0,1.08.18.92.92,0,0,0,.79-.42,5.57,5.57,0,0,0,.67-1.6l-3.73-9.43h2.51l2.54,7,2.23-7h2.3l-4,11.31a3.27,3.27,0,0,1-1.19,1.62,3.31,3.31,0,0,1-2,.63,3.71,3.71,0,0,1-1.21-.21Z"/><path class="cls-2" d="M853.72,445.09H1.38a1.39,1.39,0,0,1,0-2.77H853.72a1.39,1.39,0,0,1,0,2.77Z"/><path class="cls-2" d="M667.15,439.12a1.38,1.38,0,0,1-1.38-1.39V431.1a1.39,1.39,0,1,1,2.77,0v6.63A1.39,1.39,0,0,1,667.15,439.12Zm0-19.91a1.38,1.38,0,0,1-1.38-1.39v-6.63a1.39,1.39,0,1,1,2.77,0v6.63A1.39,1.39,0,0,1,667.15,419.21Zm0-19.92a1.38,1.38,0,0,1-1.38-1.38v-6.64a1.39,1.39,0,0,1,2.77,0v6.64A1.38,1.38,0,0,1,667.15,399.29Zm0-19.91a1.38,1.38,0,0,1-1.38-1.38v-6.64a1.39,1.39,0,0,1,2.77,0V378A1.38,1.38,0,0,1,667.15,379.38Zm0-19.91a1.38,1.38,0,0,1-1.38-1.38v-6.64a1.39,1.39,0,0,1,2.77,0v6.64A1.38,1.38,0,0,1,667.15,359.47Zm0-19.91a1.38,1.38,0,0,1-1.38-1.38v-6.64a1.39,1.39,0,0,1,2.77,0v6.64A1.38,1.38,0,0,1,667.15,339.56Zm0-19.91a1.38,1.38,0,0,1-1.38-1.38v-6.64a1.39,1.39,0,0,1,2.77,0v6.64A1.38,1.38,0,0,1,667.15,319.65Z"/><path class="cls-2" d="M412.14,445.09a1.4,1.4,0,0,1-1.39-1.38l0-6.26a1.39,1.39,0,1,1,2.77,0l0,6.26a1.38,1.38,0,0,1-1.38,1.39Zm-.07-19.53a1.4,1.4,0,0,1-1.39-1.38l0-6.64a1.39,1.39,0,0,1,1.38-1.39h0a1.4,1.4,0,0,1,1.39,1.38l0,6.64a1.39,1.39,0,0,1-1.38,1.39ZM412,405.65a1.39,1.39,0,0,1-1.39-1.38l0-6.64a1.39,1.39,0,0,1,1.38-1.39h0a1.38,1.38,0,0,1,1.38,1.38l0,6.64a1.4,1.4,0,0,1-1.38,1.39Zm-.08-19.91a1.38,1.38,0,0,1-1.38-1.38l0-6.64a1.38,1.38,0,0,1,1.37-1.39,1.43,1.43,0,0,1,1.39,1.38l0,6.64a1.4,1.4,0,0,1-1.38,1.39Zm-.07-19.92a1.37,1.37,0,0,1-1.38-1.37l0-6.64a1.4,1.4,0,0,1,1.38-1.39h0a1.38,1.38,0,0,1,1.38,1.38l0,6.64a1.37,1.37,0,0,1-1.37,1.38Zm-.07-19.91a1.37,1.37,0,0,1-1.38-1.37l0-6.64a1.39,1.39,0,0,1,1.38-1.39h0a1.38,1.38,0,0,1,1.38,1.38l0,6.64a1.38,1.38,0,0,1-1.38,1.38ZM411.71,326a1.39,1.39,0,0,1-1.39-1.37l0-6.64a1.39,1.39,0,0,1,1.38-1.39h0a1.4,1.4,0,0,1,1.39,1.38l0,6.64a1.38,1.38,0,0,1-1.38,1.38Zm-.07-19.91a1.38,1.38,0,0,1-1.39-1.37l0-6.64a1.38,1.38,0,0,1,1.38-1.39h0a1.38,1.38,0,0,1,1.38,1.38l0,6.64a1.38,1.38,0,0,1-1.38,1.38Zm-.08-19.91a1.37,1.37,0,0,1-1.38-1.37l0-6.64a1.37,1.37,0,0,1,1.38-1.39h0a1.38,1.38,0,0,1,1.38,1.38l0,6.64a1.38,1.38,0,0,1-1.38,1.38Z"/><path class="cls-2" d="M152.5,445.09a1.38,1.38,0,0,1-1.38-1.38v-2.48a1.38,1.38,0,0,1,2.76,0v2.48A1.38,1.38,0,0,1,152.5,445.09Zm0-15.75a1.38,1.38,0,0,1-1.38-1.38v-6.64a1.38,1.38,0,1,1,2.76,0V428A1.38,1.38,0,0,1,152.5,429.34Zm0-19.91a1.38,1.38,0,0,1-1.38-1.38v-6.64a1.38,1.38,0,1,1,2.76,0v6.64A1.38,1.38,0,0,1,152.5,409.43Zm0-19.91a1.38,1.38,0,0,1-1.38-1.38V381.5a1.38,1.38,0,0,1,2.76,0v6.64A1.38,1.38,0,0,1,152.5,389.52Zm0-19.91a1.38,1.38,0,0,1-1.38-1.38v-6.64a1.38,1.38,0,1,1,2.76,0v6.64A1.38,1.38,0,0,1,152.5,369.61Zm0-19.91a1.38,1.38,0,0,1-1.38-1.38v-6.64a1.38,1.38,0,0,1,2.76,0v6.64A1.38,1.38,0,0,1,152.5,349.7Zm0-19.91a1.38,1.38,0,0,1-1.38-1.38v-6.64a1.38,1.38,0,0,1,2.76,0v6.64A1.38,1.38,0,0,1,152.5,329.79Zm0-19.91a1.38,1.38,0,0,1-1.38-1.38v-6.64a1.38,1.38,0,0,1,2.76,0v6.64A1.38,1.38,0,0,1,152.5,309.88Zm0-19.91a1.38,1.38,0,0,1-1.38-1.39V282a1.38,1.38,0,0,1,2.76,0v6.63A1.38,1.38,0,0,1,152.5,290Zm0-19.91a1.38,1.38,0,0,1-1.38-1.39V262a1.38,1.38,0,1,1,2.76,0v6.63A1.38,1.38,0,0,1,152.5,270.06Zm0-19.91a1.38,1.38,0,0,1-1.38-1.39v-6.63a1.38,1.38,0,1,1,2.76,0v6.63A1.38,1.38,0,0,1,152.5,250.15Zm0-19.91a1.38,1.38,0,0,1-1.38-1.39v-6.63a1.38,1.38,0,1,1,2.76,0v6.63A1.38,1.38,0,0,1,152.5,230.24Zm0-19.91a1.38,1.38,0,0,1-1.38-1.39v-6.63a1.38,1.38,0,1,1,2.76,0v6.63A1.38,1.38,0,0,1,152.5,210.33Zm0-19.91a1.38,1.38,0,0,1-1.38-1.39V182.4a1.38,1.38,0,1,1,2.76,0V189A1.38,1.38,0,0,1,152.5,190.42Zm0-19.92a1.38,1.38,0,0,1-1.38-1.38v-6.64a1.38,1.38,0,0,1,2.76,0v6.64A1.38,1.38,0,0,1,152.5,170.5Zm0-19.91a1.38,1.38,0,0,1-1.38-1.38v-6.64a1.38,1.38,0,0,1,2.76,0v6.64A1.38,1.38,0,0,1,152.5,150.59Zm0-19.91a1.38,1.38,0,0,1-1.38-1.38v-6.64a1.38,1.38,0,1,1,2.76,0v6.64A1.38,1.38,0,0,1,152.5,130.68Zm0-19.91a1.38,1.38,0,0,1-1.38-1.38v-6.64a1.38,1.38,0,0,1,2.76,0v6.64A1.38,1.38,0,0,1,152.5,110.77Zm0-19.91a1.38,1.38,0,0,1-1.38-1.38V82.84a1.38,1.38,0,1,1,2.76,0v6.64A1.38,1.38,0,0,1,152.5,90.86Z"/><path class="cls-2" d="M159.07,492v4H146.78v-4h4V480.38a6.59,6.59,0,0,1-2.06,1.56,5.74,5.74,0,0,1-2.62.85v-4.12a3.49,3.49,0,0,0,1.26-.27,6.21,6.21,0,0,0,1.26-.64,12.82,12.82,0,0,0,1.07-.78c.33-.27.59-.49.78-.67a2.32,2.32,0,0,0,.31-.32h4.64v16Z"/><path class="cls-2" d="M406.49,496.09a13.51,13.51,0,0,1,.84-5.39,7.64,7.64,0,0,1,3.21-3.27c.35-.21.85-.49,1.53-.84s1.21-.64,1.62-.89a11.09,11.09,0,0,0,1.32-.9,3.89,3.89,0,0,0,1-1.17,3,3,0,0,0,.34-1.41,2.13,2.13,0,0,0-.68-1.68,2.62,2.62,0,0,0-1.79-.58,5.12,5.12,0,0,0-2.45.64,9.44,9.44,0,0,0-2.1,1.57l-2.85-3a9.75,9.75,0,0,1,3.26-2.23,11.33,11.33,0,0,1,4.77-1,7.62,7.62,0,0,1,5.17,1.61,5.49,5.49,0,0,1,1.84,4.35,6.33,6.33,0,0,1-.23,1.72,5.67,5.67,0,0,1-.63,1.43,6.42,6.42,0,0,1-1,1.21,11.19,11.19,0,0,1-1.23,1c-.41.3-.89.61-1.44.94a27.13,27.13,0,0,0-3.37,2.11,6.49,6.49,0,0,0-1.51,1.66h9.43v4Z"/><path class="cls-2" d="M667.9,496.25q-4.64,0-6.87-2.86l2.37-3.15a4.84,4.84,0,0,0,1.75,1.38,5.92,5.92,0,0,0,2.55.52,4.46,4.46,0,0,0,2.47-.58,1.94,1.94,0,0,0,.87-1.72c0-1.64-1.48-2.46-4.42-2.46h-.91v-3.21h1a5.35,5.35,0,0,0,2.8-.63,1.93,1.93,0,0,0,1-1.73,1.76,1.76,0,0,0-.71-1.47,2.86,2.86,0,0,0-1.82-.55,4.28,4.28,0,0,0-2.22.58,4.46,4.46,0,0,0-1.59,1.61l-2.94-3.31a6.49,6.49,0,0,1,2.94-1.94,12.2,12.2,0,0,1,4.24-.74,8.35,8.35,0,0,1,5,1.41,4.34,4.34,0,0,1,1.93,3.68,4.41,4.41,0,0,1-1,2.9,4.7,4.7,0,0,1-2.72,1.61,4.71,4.71,0,0,1,3,1.71,5.13,5.13,0,0,1,1.16,3.33,4.75,4.75,0,0,1-2.17,4.11A9.73,9.73,0,0,1,667.9,496.25Z"/><path class="cls-3" d="M30.86,446.47a2.64,2.64,0,0,1-.87-.14,2.76,2.76,0,0,1-1.76-3.49L149,76.87A2.76,2.76,0,0,1,153,75.31L825.57,440.36a2.77,2.77,0,1,1-2.64,4.86L153.23,81.75,33.48,444.57A2.75,2.75,0,0,1,30.86,446.47Z"/><path class="cls-4" d="M30.86,446.47a2.77,2.77,0,0,1-1.11-5.3L410.44,275.63a2.69,2.69,0,0,1,2.12,0L825.27,440.22a2.77,2.77,0,1,1-2,5.14L411.59,281.16,32,446.24A2.72,2.72,0,0,1,30.86,446.47Z"/><path class="cls-5" d="M30.85,446.47a2.77,2.77,0,0,1-.57-5.47L666.11,306.82a2.73,2.73,0,0,1,2.36.6L826,440.68a2.76,2.76,0,1,1-3.57,4.22L665.93,312.51,31.43,446.41A2.93,2.93,0,0,1,30.85,446.47Z"/></g></g></svg>