<svg xmlns="http://www.w3.org/2000/svg" viewBox="0 0 854.3 450.67"><defs><style>.cls-1{fill:#00324a;}.cls-2{fill:#fff;}.cls-3{fill:#ff574a;}</style></defs><title>6</title><g id="Capa_2" data-name="Capa 2"><g id="Layer_1" data-name="Layer 1"><rect class="cls-1" y="396.39" width="854.29" height="3.93" transform="translate(-0.93 1) rotate(-0.13)"/><path class="cls-1" d="M167.6,446.81l-6.17,0,0-12.78,6.84,0a2.58,2.58,0,0,1,1.55.49,3,3,0,0,1,1,1.22,3.56,3.56,0,0,1,.35,1.55,3.44,3.44,0,0,1-.48,1.77,2.81,2.81,0,0,1-1.35,1.2,3.27,3.27,0,0,1,1.74,1.17,3.34,3.34,0,0,1,.64,2.08,2.92,2.92,0,0,1-.56,1.8,3.45,3.45,0,0,1-1.49,1.13A5.4,5.4,0,0,1,167.6,446.81Zm-3.72-10.64v3.22h3.31a1.43,1.43,0,0,0,1.07-.44,1.62,1.62,0,0,0,.44-1.18,1.64,1.64,0,0,0-.41-1.16,1.3,1.3,0,0,0-1-.44Zm3.83,5.17h-3.82v3.36h3.69a1.64,1.64,0,0,0,1.61-1.66,1.79,1.79,0,0,0-.43-1.21A1.34,1.34,0,0,0,167.71,441.34Z"/><path class="cls-1" d="M179.47,439.43a4.73,4.73,0,0,0-2,.45,2.48,2.48,0,0,0-1.22,1.21v5.7h-2.4l0-9.43h2.21v2a4.38,4.38,0,0,1,1.27-1.53,2.94,2.94,0,0,1,1.64-.61,2.72,2.72,0,0,1,.49,0Z"/><path class="cls-1" d="M180.57,444a2.68,2.68,0,0,1,1.12-2.22,4.78,4.78,0,0,1,2.93-.86,6,6,0,0,1,2.27.38v-.5a1.83,1.83,0,0,0-.54-1.39,2.3,2.3,0,0,0-1.58-.48,4.13,4.13,0,0,0-1.44.26,7.49,7.49,0,0,0-1.5.81l-.79-1.58a7.2,7.2,0,0,1,4-1.24,4.56,4.56,0,0,1,3.15,1,3.66,3.66,0,0,1,1.12,2.88v3a.89.89,0,0,0,.14.55.59.59,0,0,0,.45.18v2a4.81,4.81,0,0,1-1,.13,1.73,1.73,0,0,1-1.08-.3,1.29,1.29,0,0,1-.47-.81l-.05-.49a4.11,4.11,0,0,1-1.52,1.22,4.4,4.4,0,0,1-1.88.45,3.4,3.4,0,0,1-2.35-.84A2.78,2.78,0,0,1,180.57,444Zm5.88.47a1.24,1.24,0,0,0,.44-.83v-1a5,5,0,0,0-1.89-.37,2.73,2.73,0,0,0-1.55.41,1.28,1.28,0,0,0-.13,2.06,1.72,1.72,0,0,0,1.22.42,3.15,3.15,0,0,0,1.05-.2A2.72,2.72,0,0,0,186.45,444.46Z"/><path class="cls-1" d="M200.77,446.72h-2.41v-5.29c0-1.45-.5-2.18-1.5-2.18a2.35,2.35,0,0,0-1.47.57,2.85,2.85,0,0,0-1,1.4l0,5.51H192l0-9.43h2.18v1.75a3.64,3.64,0,0,1,1.52-1.41,4.91,4.91,0,0,1,2.22-.52,3,3,0,0,1,1.2.22,2.15,2.15,0,0,1,.82.55,2.68,2.68,0,0,1,.5.84,4.76,4.76,0,0,1,.26,1,9.08,9.08,0,0,1,.07,1.09Z"/><path class="cls-1" d="M202.73,442a5.54,5.54,0,0,1,.53-2.46,4.34,4.34,0,0,1,1.5-1.77,3.79,3.79,0,0,1,2.18-.66,3.58,3.58,0,0,1,1.85.49,3.74,3.74,0,0,1,1.33,1.32v-5.36h2.41l0,10.44a.94.94,0,0,0,.13.55.56.56,0,0,0,.43.19v2a5.66,5.66,0,0,1-1,.13,1.74,1.74,0,0,1-1.07-.32,1.13,1.13,0,0,1-.48-.85l0-.59a3.54,3.54,0,0,1-1.39,1.35,4,4,0,0,1-1.88.47,4.28,4.28,0,0,1-2.32-.64,4.42,4.42,0,0,1-1.6-1.77A5.35,5.35,0,0,1,202.73,442Zm7.41,1.24V441a3,3,0,0,0-1-1.3,2.39,2.39,0,0,0-1.43-.53,2.22,2.22,0,0,0-1.77.87,3.06,3.06,0,0,0-.69,2,2.81,2.81,0,0,0,.74,2,2.43,2.43,0,0,0,1.87.8,2.46,2.46,0,0,0,1.38-.45A2.27,2.27,0,0,0,210.14,443.24Z"/><path class="cls-1" d="M223.61,446.84a6.66,6.66,0,0,1-2.32-.4,5.1,5.1,0,0,1-1.87-1.16l.85-1.56a5.3,5.3,0,0,0,3.25,1.32,2.08,2.08,0,0,0,1.13-.26.82.82,0,0,0,.41-.75.68.68,0,0,0,0-.21.32.32,0,0,0-.09-.17l-.12-.15a.46.46,0,0,0-.18-.12l-.22-.11-.28-.1-.31-.1-.36-.1-.4-.12-1.14-.39a7.58,7.58,0,0,1-.86-.42,2.35,2.35,0,0,1-.65-.49,2,2,0,0,1-.37-.63,2.31,2.31,0,0,1-.14-.82,2.67,2.67,0,0,1,1-2.22,4.35,4.35,0,0,1,2.77-.83,4.93,4.93,0,0,1,3.55,1.32l-1,1.53a4.52,4.52,0,0,0-2.68-1.07,2.15,2.15,0,0,0-1,.23.79.79,0,0,0-.41.75.75.75,0,0,0,.37.69,6.11,6.11,0,0,0,1.35.49c.52.15.93.28,1.24.39a7.46,7.46,0,0,1,.94.41,2.51,2.51,0,0,1,.74.51,2,2,0,0,1,.41.65,2.29,2.29,0,0,1,.16.9,2.58,2.58,0,0,1-1,2.18A4.4,4.4,0,0,1,223.61,446.84Z"/><path class="cls-1" d="M228.82,443.86a2.66,2.66,0,0,1,1.12-2.22,4.75,4.75,0,0,1,2.92-.86,6,6,0,0,1,2.27.37v-.5a1.75,1.75,0,0,0-.54-1.38,2.23,2.23,0,0,0-1.58-.48,4.13,4.13,0,0,0-1.44.26,7.52,7.52,0,0,0-1.5.81l-.78-1.58a7.15,7.15,0,0,1,4-1.24,4.52,4.52,0,0,1,3.15,1,3.7,3.7,0,0,1,1.13,2.88v3a.85.85,0,0,0,.13.55.63.63,0,0,0,.45.19v2a4.73,4.73,0,0,1-1,.13,1.69,1.69,0,0,1-1.08-.3,1.21,1.21,0,0,1-.47-.81l-.06-.49a4.13,4.13,0,0,1-1.52,1.22,4.21,4.21,0,0,1-1.88.44,3.31,3.31,0,0,1-2.34-.83A2.72,2.72,0,0,1,228.82,443.86Zm5.87.47a1.26,1.26,0,0,0,.45-.83v-1a4.93,4.93,0,0,0-1.89-.37,2.69,2.69,0,0,0-1.54.41,1.25,1.25,0,0,0-.6,1.07,1.32,1.32,0,0,0,.46,1,1.71,1.71,0,0,0,1.23.41,2.79,2.79,0,0,0,1.05-.2A2.49,2.49,0,0,0,234.69,444.33Z"/><path class="cls-1" d="M240.79,446.61l0-7.09h-1.24v-1.84h1.24v-.57a4.23,4.23,0,0,1,.85-2.78,2.82,2.82,0,0,1,2.3-1.05,5.3,5.3,0,0,1,2.32.56l-.48,1.82a2.65,2.65,0,0,0-1.32-.34,1.07,1.07,0,0,0-.93.43,2.06,2.06,0,0,0-.32,1.26v.67h2.3v1.84h-2.3l0,7.1Z"/><path class="cls-1" d="M251.58,446.76a5.19,5.19,0,0,1-2.63-.66,4.51,4.51,0,0,1-1.76-1.76,4.91,4.91,0,0,1-.6-2.4,5.15,5.15,0,0,1,.59-2.47,4.56,4.56,0,0,1,1.74-1.8,5.15,5.15,0,0,1,2.65-.68,5.32,5.32,0,0,1,2.06.39,4.45,4.45,0,0,1,1.56,1.06,5,5,0,0,1,1,1.54,4.93,4.93,0,0,1,.34,1.84,4.4,4.4,0,0,1-.05.8l-7.29,0a2.47,2.47,0,0,0,2.51,2.35,2.69,2.69,0,0,0,1.36-.36,1.85,1.85,0,0,0,.87-.93l2.07.58a4.15,4.15,0,0,1-1.69,1.79A5.27,5.27,0,0,1,251.58,446.76Zm-2.49-5.64,4.93,0a2.6,2.6,0,0,0-.8-1.71,2.29,2.29,0,0,0-1.68-.65,2.33,2.33,0,0,0-1.67.66A2.59,2.59,0,0,0,249.09,441.12Z"/><path class="cls-1" d="M264,446.07a6.75,6.75,0,0,1-2.66.65,3.46,3.46,0,0,1-.95-.13,2.4,2.4,0,0,1-.78-.4,1.8,1.8,0,0,1-.54-.72,2.73,2.73,0,0,1-.19-1.07l0-5.41h-1.24v-1.85h1.24v-3.05h2.42v3.06h2V439h-2v4.61c0,.61.32.92.9.92a3.6,3.6,0,0,0,1.32-.35Z"/><path class="cls-1" d="M265.86,448.38a4.51,4.51,0,0,0,1.08.18,1,1,0,0,0,.79-.42,5.76,5.76,0,0,0,.66-1.6l-3.75-9.42h2.51l2.55,7,2.22-7h2.3l-3.93,11.32A3.28,3.28,0,0,1,269.1,450a3.42,3.42,0,0,1-2,.63,4,4,0,0,1-1.22-.2Z"/><path class="cls-1" d="M613.59,432.93h2.52l4.73,12.76h-2.56l-1.19-3.18h-4.47l-1.16,3.19H608.9Zm3,7.84-1.78-5.27L613,440.78Z"/><path class="cls-1" d="M621.59,441a5.68,5.68,0,0,1,.53-2.46,4.29,4.29,0,0,1,1.51-1.77,3.76,3.76,0,0,1,2.17-.66,3.58,3.58,0,0,1,1.85.49,3.77,3.77,0,0,1,1.34,1.32l0-5.36h2.42l0,10.45a1,1,0,0,0,.12.55.58.58,0,0,0,.43.18v2a5,5,0,0,1-1,.13,1.76,1.76,0,0,1-1.07-.32,1.18,1.18,0,0,1-.48-.85l0-.58a3.51,3.51,0,0,1-1.39,1.34,4,4,0,0,1-1.88.47,4.14,4.14,0,0,1-2.31-.64,4.37,4.37,0,0,1-1.61-1.77A5.48,5.48,0,0,1,621.59,441Zm7.41,1.25V440a2.91,2.91,0,0,0-1-1.31,2.3,2.3,0,0,0-1.43-.52,2.15,2.15,0,0,0-1.76.86,3.09,3.09,0,0,0-.7,2,2.81,2.81,0,0,0,.75,2,2.41,2.41,0,0,0,1.87.79,2.43,2.43,0,0,0,1.37-.45A2.25,2.25,0,0,0,629,442.22Z"/><path class="cls-1" d="M639.57,445.64v-7.09h-1.24v-1.83h1.24v-.57a4.24,4.24,0,0,1,.85-2.79,2.82,2.82,0,0,1,2.29-1,5.34,5.34,0,0,1,2.33.56l-.48,1.82a2.65,2.65,0,0,0-1.32-.34,1.09,1.09,0,0,0-.94.43A2.06,2.06,0,0,0,642,436v.67h2.3v1.84H642l0,7.09Z"/><path class="cls-1" d="M651.7,438.26a4.44,4.44,0,0,0-2,.45,2.5,2.5,0,0,0-1.22,1.2v5.71h-2.4l0-9.43h2.22v2a4.38,4.38,0,0,1,1.27-1.53,2.94,2.94,0,0,1,1.64-.61h.49Z"/><path class="cls-1" d="M652.81,442.82a2.63,2.63,0,0,1,1.12-2.22,4.67,4.67,0,0,1,2.92-.86,6,6,0,0,1,2.27.37v-.5a1.79,1.79,0,0,0-.54-1.39,2.23,2.23,0,0,0-1.58-.47,3.91,3.91,0,0,0-1.44.26,7.52,7.52,0,0,0-1.5.81l-.79-1.58a7.12,7.12,0,0,1,4-1.24,4.52,4.52,0,0,1,3.15,1,3.7,3.7,0,0,1,1.13,2.88v3a.91.91,0,0,0,.14.55.63.63,0,0,0,.45.19v2a5.45,5.45,0,0,1-1,.13,1.68,1.68,0,0,1-1.07-.3,1.31,1.31,0,0,1-.48-.82l0-.48a4.13,4.13,0,0,1-1.52,1.22,4.35,4.35,0,0,1-1.88.44,3.35,3.35,0,0,1-2.35-.83A2.75,2.75,0,0,1,652.81,442.82Zm5.87.47a1.26,1.26,0,0,0,.45-.83v-1a4.93,4.93,0,0,0-1.89-.37,2.67,2.67,0,0,0-1.54.41,1.25,1.25,0,0,0-.6,1.07,1.32,1.32,0,0,0,.46,1,1.73,1.73,0,0,0,1.22.41,2.92,2.92,0,0,0,1.05-.2A2.6,2.6,0,0,0,658.68,443.29Z"/><path class="cls-1" d="M664.15,442.05l0-5.91h2.41v5.38c0,1.45.53,2.17,1.57,2.17a2.43,2.43,0,0,0,1.38-.44,3.21,3.21,0,0,0,1-1.28v-5.84h2.4l0,6.73a.87.87,0,0,0,.14.55.59.59,0,0,0,.44.19v2a6.05,6.05,0,0,1-1,.11,1.84,1.84,0,0,1-1.06-.29,1.14,1.14,0,0,1-.47-.83l-.05-.75a4.08,4.08,0,0,1-1.61,1.45,4.76,4.76,0,0,1-2.18.5,2.65,2.65,0,0,1-2.22-.93A4.3,4.3,0,0,1,664.15,442.05Z"/><path class="cls-1" d="M675.22,440.83a5.62,5.62,0,0,1,.53-2.47,4.32,4.32,0,0,1,1.5-1.77,3.84,3.84,0,0,1,2.17-.65,3.46,3.46,0,0,1,1.85.49,3.77,3.77,0,0,1,1.34,1.32v-5.37H685l0,10.44a1,1,0,0,0,.12.55.61.61,0,0,0,.44.19v2a5.61,5.61,0,0,1-1,.12,1.72,1.72,0,0,1-1.07-.32,1.18,1.18,0,0,1-.48-.84l0-.59a3.47,3.47,0,0,1-1.4,1.34,3.87,3.87,0,0,1-1.88.48,4.2,4.2,0,0,1-2.31-.65,4.39,4.39,0,0,1-1.6-1.76A5.26,5.26,0,0,1,675.22,440.83Zm7.4,1.24v-2.25a3,3,0,0,0-1-1.31,2.33,2.33,0,0,0-1.43-.52,2.2,2.2,0,0,0-1.76.86,3.09,3.09,0,0,0-.7,2,2.83,2.83,0,0,0,.75,2,2.46,2.46,0,0,0,1.87.8,2.4,2.4,0,0,0,1.38-.46A2.28,2.28,0,0,0,682.62,442.07Z"/><path class="cls-1" d="M123.85,20.64a9.46,9.46,0,0,1-4-.82,6.28,6.28,0,0,1-2.74-2.29l3-3.37a6.08,6.08,0,0,0,1.83,1.34,4.59,4.59,0,0,0,2,.49,2.37,2.37,0,0,0,1.65-.56,2,2,0,0,0,.6-1.51,2.06,2.06,0,0,0-.55-1.48,1.83,1.83,0,0,0-1.42-.56,2.29,2.29,0,0,0-1.09.27,1.74,1.74,0,0,0-.77.72h-4.64L120,.5l10.15,0V5.31l-6.25,0-.3,2.16a4.42,4.42,0,0,1,1.31-.14,6.69,6.69,0,0,1,4.85,1.79,6.21,6.21,0,0,1,1.89,4.66,6.23,6.23,0,0,1-2.16,4.92A8.29,8.29,0,0,1,123.85,20.64Z"/><path class="cls-1" d="M142.68,20.62a9.07,9.07,0,0,1-2.89-.47,8,8,0,0,1-2.44-1.3A6.15,6.15,0,0,1,135,14a4.21,4.21,0,0,1,.71-2.44,7,7,0,0,1,1.72-1.82,3.79,3.79,0,0,1-1.34-1.43,3.89,3.89,0,0,1-.54-1.93,4.93,4.93,0,0,1,.65-2.54A5.57,5.57,0,0,1,137.93,2,8.49,8.49,0,0,1,140.19.87a8.06,8.06,0,0,1,2.44-.41,8.64,8.64,0,0,1,1.94.23,7.64,7.64,0,0,1,1.91.72,7.33,7.33,0,0,1,1.65,1.17,5.07,5.07,0,0,1,1.61,3.72,4,4,0,0,1-.55,2,3.71,3.71,0,0,1-1.36,1.46,6.91,6.91,0,0,1,1.75,1.86,4.67,4.67,0,0,1,.73,2.55,5.78,5.78,0,0,1-1,3.39,6.54,6.54,0,0,1-2.76,2.29A9.29,9.29,0,0,1,142.68,20.62Zm1.52-8.19a2.29,2.29,0,0,0-1.54-.51,2.23,2.23,0,0,0-1.54.53,1.88,1.88,0,0,0,0,2.78,2.23,2.23,0,0,0,1.52.55,2.18,2.18,0,0,0,1.53-.57,1.75,1.75,0,0,0,.59-1.37A1.78,1.78,0,0,0,144.2,12.43Zm-2.65-4.85a1.75,1.75,0,0,0,2.2,0,1.34,1.34,0,0,0,.48-1.1,1.2,1.2,0,0,0-.45-1,1.66,1.66,0,0,0-1.14-.39,1.63,1.63,0,0,0-1.13.39,1.24,1.24,0,0,0-.44,1A1.33,1.33,0,0,0,141.55,7.58Z"/><path class="cls-1" d="M154.1,20.31l0-5.15h4.4V20.3Z"/><path class="cls-1" d="M168.92,20.52a9.43,9.43,0,0,1-4-.82,6.38,6.38,0,0,1-2.75-2.29l3-3.38A5.83,5.83,0,0,0,167,15.38a4.51,4.51,0,0,0,2,.49,2.3,2.3,0,0,0,1.65-.57,1.94,1.94,0,0,0,.6-1.5,2,2,0,0,0-.54-1.48,1.9,1.9,0,0,0-1.43-.57,2.29,2.29,0,0,0-1.09.27,2,2,0,0,0-.77.72h-4.63L165.08.38l10.14,0,0,4.84H169l-.3,2.17A4.07,4.07,0,0,1,170,7.23,6.66,6.66,0,0,1,174.84,9a6.13,6.13,0,0,1,1.89,4.65,6.2,6.2,0,0,1-2.16,4.93A8.31,8.31,0,0,1,168.92,20.52Z"/><path class="cls-1" d="M181.43,7.64a4.09,4.09,0,0,1,0-6.28A5.32,5.32,0,0,1,185,.06a5.26,5.26,0,0,1,3.6,1.28,4.07,4.07,0,0,1,0,6.28,5.67,5.67,0,0,1-7.2,0Zm1,10.78,8-9L197.55,0l2.37,2.1-7.7,8.67-7.46,9.73ZM186,5.83a2.24,2.24,0,0,0,.4-1.34,2.22,2.22,0,0,0-.4-1.34,1.19,1.19,0,0,0-1-.56,1.15,1.15,0,0,0-.95.56,2.24,2.24,0,0,0-.41,1.34,2.29,2.29,0,0,0,.41,1.34,1.1,1.1,0,0,0,1.92,0Zm7.71,13.36a4,4,0,0,1-1.49-3.12,4.05,4.05,0,0,1,1.47-3.15,5.67,5.67,0,0,1,7.2,0,4.08,4.08,0,0,1,0,6.27,5.67,5.67,0,0,1-7.2,0Zm4.56-1.8a2.31,2.31,0,0,0,.4-1.34,2.22,2.22,0,0,0-.41-1.34,1.15,1.15,0,0,0-1-.56,1.19,1.19,0,0,0-1,.56,2.26,2.26,0,0,0-.41,1.34,2.23,2.23,0,0,0,.42,1.34,1.11,1.11,0,0,0,1.93,0Z"/><path class="cls-1" d="M536.85,87.4V83.59l-7.34,0V78.85l9-11.33h3.71l0,11.31h2.51v4.76h-2.5v3.82Zm-2-8.56h2.63V75.48Z"/><path class="cls-1" d="M555.79,87.65a8.75,8.75,0,0,1-2.89-.46,8.11,8.11,0,0,1-2.45-1.31,6.23,6.23,0,0,1-1.69-2.1,6,6,0,0,1-.63-2.74,4.27,4.27,0,0,1,.71-2.43,7.19,7.19,0,0,1,1.73-1.83,3.67,3.67,0,0,1-1.35-1.43,3.89,3.89,0,0,1-.54-1.92,5.11,5.11,0,0,1,.65-2.54A5.58,5.58,0,0,1,551,69a8.89,8.89,0,0,1,2.27-1.12,8,8,0,0,1,2.43-.4,8.24,8.24,0,0,1,1.95.23,7.57,7.57,0,0,1,1.9.72,7.29,7.29,0,0,1,1.65,1.16,5.18,5.18,0,0,1,1.62,3.72,4,4,0,0,1-.56,2,3.76,3.76,0,0,1-1.35,1.46,6.92,6.92,0,0,1,1.75,1.86,4.58,4.58,0,0,1,.72,2.55,5.89,5.89,0,0,1-1,3.39,6.74,6.74,0,0,1-2.76,2.29A9.13,9.13,0,0,1,555.79,87.65Zm1.51-8.18a2.21,2.21,0,0,0-1.54-.51,2.25,2.25,0,0,0-1.54.53,1.89,1.89,0,0,0,0,2.77,2.19,2.19,0,0,0,1.52.55,2.13,2.13,0,0,0,1.53-.56,1.81,1.81,0,0,0,.6-1.37A1.75,1.75,0,0,0,557.3,79.47Zm-2.65-4.85a1.7,1.7,0,0,0,1.1.39,1.77,1.77,0,0,0,1.11-.4,1.33,1.33,0,0,0,.48-1.1,1.25,1.25,0,0,0-.45-1,1.62,1.62,0,0,0-1.14-.38,1.64,1.64,0,0,0-1.14.39,1.23,1.23,0,0,0-.43,1A1.36,1.36,0,0,0,554.65,74.62Z"/><path class="cls-1" d="M567.2,87.35V82.19h4.39l0,5.16Z"/><path class="cls-1" d="M582,87.55a9.31,9.31,0,0,1-4-.81,6.46,6.46,0,0,1-2.75-2.3l3-3.37a6.29,6.29,0,0,0,1.83,1.35,4.73,4.73,0,0,0,2,.49,2.43,2.43,0,0,0,1.65-.57,2,2,0,0,0,.6-1.51,2.11,2.11,0,0,0-.55-1.48,1.91,1.91,0,0,0-1.42-.56,2.26,2.26,0,0,0-1.09.27,1.85,1.85,0,0,0-.77.72h-4.64l2.36-12.38,10.15,0v4.84l-6.25,0-.3,2.16a4.42,4.42,0,0,1,1.31-.14A6.73,6.73,0,0,1,588,76.05a6.69,6.69,0,0,1-.28,9.59A8.24,8.24,0,0,1,582,87.55Z"/><path class="cls-1" d="M594.53,74.67a4.09,4.09,0,0,1,0-6.27,5.67,5.67,0,0,1,7.2,0,4.09,4.09,0,0,1,0,6.28,5.67,5.67,0,0,1-7.21,0Zm1,10.78,8-9L610.65,67,613,69.13l-7.7,8.68-7.46,9.73Zm3.6-12.59a2.28,2.28,0,0,0,.4-1.34,2.24,2.24,0,0,0-.41-1.34,1.17,1.17,0,0,0-1-.55,1.18,1.18,0,0,0-1,.56,2.42,2.42,0,0,0,0,2.68,1.18,1.18,0,0,0,1,.56A1.17,1.17,0,0,0,599.09,72.86Zm7.7,13.37a4.08,4.08,0,0,1,0-6.27,5.32,5.32,0,0,1,3.61-1.3,5.23,5.23,0,0,1,3.6,1.28,4.09,4.09,0,0,1,0,6.27,5.22,5.22,0,0,1-3.59,1.29A5.29,5.29,0,0,1,606.79,86.23Zm4.56-1.81a2.22,2.22,0,0,0,.4-1.34,2.19,2.19,0,0,0-.41-1.33,1.15,1.15,0,0,0-1-.56,1.18,1.18,0,0,0-1,.56,2.16,2.16,0,0,0-.41,1.34,2.22,2.22,0,0,0,.41,1.34,1.21,1.21,0,0,0,1,.56A1.17,1.17,0,0,0,611.35,84.42Z"/><path class="cls-1" d="M674.26,104.9v-3.81l-7.34,0V96.35l9-11.33h3.71l0,11.31h2.5v4.76h-2.5v3.81Zm-2-8.56h2.63V93Z"/><path class="cls-1" d="M685.53,104.9c0-1,0-1.86.06-2.51a12.74,12.74,0,0,1,.29-2,5.17,5.17,0,0,1,.65-1.65,6.44,6.44,0,0,1,1.12-1.33,10.11,10.11,0,0,1,1.72-1.28l1.18-.67,1.28-.71c.34-.19.71-.43,1.13-.72a5.74,5.74,0,0,0,1-.84,3.62,3.62,0,0,0,.64-.94,2.58,2.58,0,0,0,.26-1.11,1.56,1.56,0,0,0-.53-1.29,2,2,0,0,0-1.34-.41,4.71,4.71,0,0,0-2.17.58,8.55,8.55,0,0,0-2,1.44L685.48,88a9.15,9.15,0,0,1,3.43-2.26,12.75,12.75,0,0,1,4.86-.92,8,8,0,0,1,5.35,1.59,5.5,5.5,0,0,1,1.93,4.43,6.22,6.22,0,0,1-1,3.55,9.81,9.81,0,0,1-3,2.74c-2.3,1.44-3.86,2.45-4.66,3l8.72,0,0,4.76Z"/><path class="cls-1" d="M705.18,104.85V99.69h4.39l0,5.16Z"/><path class="cls-1" d="M721,105.08a8.76,8.76,0,0,1-2.89-.47,8.09,8.09,0,0,1-2.45-1.3,6.23,6.23,0,0,1-1.69-2.1,6.06,6.06,0,0,1-.63-2.74A4.31,4.31,0,0,1,714,96a7,7,0,0,1,1.73-1.82,3.81,3.81,0,0,1-1.35-1.43,3.89,3.89,0,0,1-.54-1.93,5.13,5.13,0,0,1,.65-2.54,5.67,5.67,0,0,1,1.7-1.87,9.2,9.2,0,0,1,2.27-1.11,7.68,7.68,0,0,1,2.43-.4,8.22,8.22,0,0,1,2,.22,8.43,8.43,0,0,1,1.9.72A7.66,7.66,0,0,1,726.42,87a4.9,4.9,0,0,1,1.17,1.64,5,5,0,0,1,.45,2.08,4,4,0,0,1-.56,2,3.64,3.64,0,0,1-1.36,1.46A6.94,6.94,0,0,1,727.88,96a4.58,4.58,0,0,1,.72,2.55,5.84,5.84,0,0,1-1,3.39,6.6,6.6,0,0,1-2.76,2.29A9.14,9.14,0,0,1,721,105.08Zm1.51-8.19a2.54,2.54,0,0,0-3.08,0,1.9,1.9,0,0,0,0,2.78,2.19,2.19,0,0,0,1.52.55,2.1,2.1,0,0,0,1.53-.57,1.8,1.8,0,0,0,.6-1.37A1.75,1.75,0,0,0,722.49,96.89ZM719.84,92a1.76,1.76,0,0,0,2.21,0,1.34,1.34,0,0,0,.48-1.1,1.27,1.27,0,0,0-.45-1,1.68,1.68,0,0,0-1.14-.39,1.64,1.64,0,0,0-1.14.39,1.23,1.23,0,0,0-.43,1A1.33,1.33,0,0,0,719.84,92Z"/><path class="cls-1" d="M733.35,92.17a4.08,4.08,0,0,1,0-6.27,5.63,5.63,0,0,1,7.2,0,4.06,4.06,0,0,1,0,6.27,5.67,5.67,0,0,1-7.2,0Zm1,10.78,8-9,7.12-9.47,2.38,2.1-7.7,8.68L736.68,105Zm3.59-12.59a2.44,2.44,0,0,0,0-2.68,1.21,1.21,0,0,0-1-.56,1.14,1.14,0,0,0-.95.57,2.15,2.15,0,0,0-.4,1.34,2.24,2.24,0,0,0,.4,1.34,1.11,1.11,0,0,0,1.92,0Zm7.71,13.37a4.06,4.06,0,0,1,0-6.27,5.67,5.67,0,0,1,7.2,0,4.08,4.08,0,0,1,0,6.27,5.7,5.7,0,0,1-7.2,0Zm4.56-1.81a2.28,2.28,0,0,0,.4-1.34,2.24,2.24,0,0,0-.41-1.34,1.18,1.18,0,0,0-1-.56,1.21,1.21,0,0,0-1,.57,2.22,2.22,0,0,0-.41,1.34,2.25,2.25,0,0,0,.42,1.34,1.11,1.11,0,0,0,1.93,0Z"/><path class="cls-1" d="M260.83,44.94a9.31,9.31,0,0,1-4-.81,6.46,6.46,0,0,1-2.75-2.3l3-3.37a6.29,6.29,0,0,0,1.83,1.35,4.55,4.55,0,0,0,2,.49,2.38,2.38,0,0,0,1.64-.57,1.9,1.9,0,0,0,.6-1.5,2.07,2.07,0,0,0-.54-1.49,1.92,1.92,0,0,0-1.42-.56,2.26,2.26,0,0,0-1.09.27,1.85,1.85,0,0,0-.77.72h-4.64L257,24.8l10.14,0,0,4.84-6.25,0-.3,2.16a4.38,4.38,0,0,1,1.31-.14,6.7,6.7,0,0,1,4.84,1.79,6.18,6.18,0,0,1,1.9,4.66A6.25,6.25,0,0,1,266.48,43,8.26,8.26,0,0,1,260.83,44.94Z"/><path class="cls-1" d="M278.41,44.79a10.44,10.44,0,0,1-6.94-2.23l2.76-3.86a6.17,6.17,0,0,0,3.87,1.22,4,4,0,0,0,2.12-.44,1.53,1.53,0,0,0,.67-1.39,1.62,1.62,0,0,0-.86-1.52,6.11,6.11,0,0,0-2.79-.46h-.89V32.42h1a4,4,0,0,0,2.19-.54,1.6,1.6,0,0,0,.83-1.4,1.27,1.27,0,0,0-.49-1.06,2.21,2.21,0,0,0-1.37-.37,4,4,0,0,0-3.39,2l-3.43-3.94a7.12,7.12,0,0,1,3.06-1.83,13.5,13.5,0,0,1,4.38-.71,8.7,8.7,0,0,1,5.11,1.34,4.16,4.16,0,0,1,1.94,3.56,4.6,4.6,0,0,1-1,3A4.34,4.34,0,0,1,282.5,34a4.57,4.57,0,0,1,2.88,1.69,5.21,5.21,0,0,1,1.12,3.33,4.83,4.83,0,0,1-2.16,4.19A10.23,10.23,0,0,1,278.41,44.79Z"/><path class="cls-1" d="M290.36,44.62V39.46h4.4V44.6Z"/><path class="cls-1" d="M306.16,44.85a8.8,8.8,0,0,1-2.89-.47,7.92,7.92,0,0,1-2.44-1.3,6.11,6.11,0,0,1-1.69-2.1,6.2,6.2,0,0,1-.64-2.74,4.39,4.39,0,0,1,.71-2.44A7,7,0,0,1,300.94,34a3.81,3.81,0,0,1-1.35-1.43,3.89,3.89,0,0,1-.54-1.93,5,5,0,0,1,.66-2.54,5.47,5.47,0,0,1,1.7-1.87,8.8,8.8,0,0,1,2.26-1.11,8.06,8.06,0,0,1,2.44-.41,8.7,8.7,0,0,1,1.94.23,7.95,7.95,0,0,1,3.56,1.89,5,5,0,0,1,1.16,1.64,4.89,4.89,0,0,1,.45,2.08,4,4,0,0,1-.55,2A3.79,3.79,0,0,1,311.31,34a6.91,6.91,0,0,1,1.75,1.86,4.58,4.58,0,0,1,.72,2.55,5.7,5.7,0,0,1-1,3.39A6.54,6.54,0,0,1,310,44,9.14,9.14,0,0,1,306.16,44.85Zm1.52-8.19a2.56,2.56,0,0,0-3.09,0,1.8,1.8,0,0,0-.59,1.41,1.78,1.78,0,0,0,.62,1.37,2.21,2.21,0,0,0,1.53.55,2.13,2.13,0,0,0,1.53-.57,1.82,1.82,0,0,0,.59-1.37A1.78,1.78,0,0,0,307.68,36.66ZM305,31.81a1.66,1.66,0,0,0,1.1.39,1.7,1.7,0,0,0,1.1-.39,1.34,1.34,0,0,0,.48-1.1,1.2,1.2,0,0,0-.45-.95,1.68,1.68,0,0,0-1.14-.39,1.62,1.62,0,0,0-1.13.39,1.21,1.21,0,0,0-.44,1A1.31,1.31,0,0,0,305,31.81Z"/><path class="cls-1" d="M318.53,31.94a4.09,4.09,0,0,1,0-6.27,5.24,5.24,0,0,1,3.59-1.31,5.31,5.31,0,0,1,3.61,1.29,4.07,4.07,0,0,1,0,6.27,5.67,5.67,0,0,1-7.2,0Zm1,10.78,8-8.95,7.13-9.47L337,26.4l-7.7,8.68-7.46,9.72Zm3.59-12.59a2.22,2.22,0,0,0,.41-1.34,2.29,2.29,0,0,0-.41-1.34,1.18,1.18,0,0,0-1-.56,1.19,1.19,0,0,0-1,.57,2.22,2.22,0,0,0-.4,1.34,2.18,2.18,0,0,0,.41,1.34,1.1,1.1,0,0,0,1.91,0Zm7.71,13.36a4.07,4.07,0,0,1,0-6.26,5.63,5.63,0,0,1,7.2,0,4.08,4.08,0,0,1,0,6.27,5.69,5.69,0,0,1-7.2,0Zm4.56-1.8a2.22,2.22,0,0,0,.4-1.34,2.24,2.24,0,0,0-.41-1.34,1.18,1.18,0,0,0-1-.56,1.19,1.19,0,0,0-1,.57,2.22,2.22,0,0,0-.4,1.34,2.24,2.24,0,0,0,.41,1.34,1.17,1.17,0,0,0,1,.55A1.15,1.15,0,0,0,335.35,41.69Z"/><path class="cls-2" d="M154.92,79.83A1.91,1.91,0,0,1,153,77.92l-.07-20.66a1.93,1.93,0,0,1,1.91-1.93h0a1.93,1.93,0,0,1,1.92,1.91l.06,20.67a1.91,1.91,0,0,1-1.91,1.92Z"/><path class="cls-2" d="M149.89,53c0-2.34,2.2-4.25,4.93-4.26s5,1.89,5,4.24-2.2,4.25-4.93,4.26S149.9,55.36,149.89,53Z"/><path class="cls-2" d="M296.73,104.85a1.92,1.92,0,0,1-1.92-1.91l-.07-20.67a1.92,1.92,0,0,1,1.91-1.92h0a1.93,1.93,0,0,1,1.92,1.91l.06,20.66a1.91,1.91,0,0,1-1.91,1.93Z"/><path class="cls-2" d="M291.7,78c0-2.35,2.2-4.25,4.93-4.26s4.95,1.89,5,4.24-2.2,4.25-4.93,4.26S291.71,80.38,291.7,78Z"/><path class="cls-2" d="M573.07,147a1.92,1.92,0,0,1-1.92-1.91l-.06-20.66a1.92,1.92,0,0,1,1.91-1.93h0a1.92,1.92,0,0,1,1.92,1.92l.07,20.66a1.91,1.91,0,0,1-1.91,1.92Z"/><path class="cls-2" d="M568.05,120.22c0-2.35,2.2-4.26,4.93-4.27s4.95,1.9,5,4.24-2.21,4.26-4.94,4.26S568.05,122.56,568.05,120.22Z"/><path class="cls-2" d="M711.9,163.86A1.92,1.92,0,0,1,710,162l-.06-20.66a1.92,1.92,0,0,1,1.91-1.93h0a1.92,1.92,0,0,1,1.92,1.92l.07,20.66a1.91,1.91,0,0,1-1.91,1.92Z"/><path class="cls-2" d="M706.88,137c0-2.34,2.2-4.25,4.93-4.26s5,1.89,5,4.24-2.2,4.26-4.94,4.26S706.89,139.39,706.88,137Z"/><path class="cls-3" d="M48.92,397.17h-.09a2.7,2.7,0,0,1-2.61-2.79l.05-1.56a2.71,2.71,0,1,1,5.41.21l-.06,1.53A2.7,2.7,0,0,1,48.92,397.17Zm308.43-.71h-.19a2.71,2.71,0,0,1,0-5.41h1.49a2.71,2.71,0,0,1,0,5.41Zm-15.06-.62h-.23l-1.51-.13a2.71,2.71,0,0,1,.5-5.39l1.46.13a2.7,2.7,0,0,1-.22,5.4Zm31.21-.19a2.7,2.7,0,0,1-.27-5.39l1.46-.16a2.7,2.7,0,1,1,.6,5.37l-1.5.17Zm287.61-.53h-.06a2.7,2.7,0,0,1-2.65-2.76l0-1.48a2.76,2.76,0,0,1,2.75-2.66,2.71,2.71,0,0,1,2.66,2.76l0,1.5A2.7,2.7,0,0,1,661.11,395.12Zm-335-1.5a2.24,2.24,0,0,1-.52-.05c-.5-.1-1-.19-1.49-.3a2.7,2.7,0,1,1,1.09-5.29l1.43.28a2.7,2.7,0,0,1-.51,5.36Zm63.58-.6a2.7,2.7,0,0,1-.6-5.34l1.42-.33a2.7,2.7,0,0,1,1.26,5.26l-1.48.34A2.52,2.52,0,0,1,389.66,393Zm-79.42-3.52a2.53,2.53,0,0,1-.85-.14c-.49-.16-1-.32-1.44-.49a2.7,2.7,0,1,1,1.76-5.11l1.38.47a2.7,2.7,0,0,1-.85,5.27Zm95.1-1.15a2.71,2.71,0,0,1-.95-5.24l1.36-.52a2.71,2.71,0,0,1,2,5l-1.43.54A2.62,2.62,0,0,1,405.34,388.35Zm-110.21-5.12a2.68,2.68,0,0,1-1.22-.3l-1.36-.7a2.71,2.71,0,0,1,2.52-4.79l1.29.67a2.71,2.71,0,0,1-1.23,5.12Zm125.08-1.73a2.7,2.7,0,0,1-1.31-5.07l1.26-.71a2.7,2.7,0,0,1,2.69,4.69c-.44.26-.89.5-1.33.75A2.72,2.72,0,0,1,420.21,381.5Zm-370.49-.88h-.16A2.69,2.69,0,0,1,47,377.76l.08-1.49a2.7,2.7,0,1,1,5.4.31l-.08,1.49A2.72,2.72,0,0,1,49.72,380.62Zm611.47-1.9a2.71,2.71,0,0,1-2.7-2.69l0-1.48a2.7,2.7,0,0,1,2.68-2.73,2.73,2.73,0,0,1,2.73,2.67V376a2.7,2.7,0,0,1-2.68,2.73Zm-380-4.07a2.7,2.7,0,0,1-1.61-.53l-1.22-.92a2.7,2.7,0,0,1,3.28-4.3l1.16.87a2.7,2.7,0,0,1-1.61,4.88Zm152.69-2.14a2.71,2.71,0,0,1-1.66-4.85c.39-.29.77-.59,1.15-.89a2.7,2.7,0,1,1,3.36,4.23c-.39.32-.79.63-1.2.94A2.69,2.69,0,0,1,433.89,372.51ZM50.77,364.18h-.19a2.71,2.71,0,0,1-2.51-2.89l.11-1.49a2.7,2.7,0,0,1,5.39.39l-.1,1.48A2.71,2.71,0,0,1,50.77,364.18Zm218.14-.34a2.68,2.68,0,0,1-2-.84q-.54-.56-1-1.11a2.7,2.7,0,1,1,4-3.68l1,1.05a2.71,2.71,0,0,1-.09,3.83A2.68,2.68,0,0,1,268.91,363.84Zm392-1.56a2.7,2.7,0,0,1-2.7-2.63l0-1.48a2.71,2.71,0,1,1,5.41-.17l0,1.5a2.7,2.7,0,0,1-2.62,2.78Zm-214.81-.72a2.71,2.71,0,0,1-1.95-4.58c.34-.35.67-.7,1-1.06a2.71,2.71,0,1,1,3.95,3.7l-1.05,1.1A2.68,2.68,0,0,1,446.07,361.56ZM258.65,351.08a2.73,2.73,0,0,1-2.25-1.19l-.85-1.27a2.71,2.71,0,0,1,4.53-3c.26.41.53.81.8,1.21a2.7,2.7,0,0,1-2.23,4.22ZM456.56,349a2.76,2.76,0,0,1-1.59-.51,2.7,2.7,0,0,1-.6-3.78l.84-1.18a2.71,2.71,0,0,1,4.43,3.11l-.89,1.24A2.71,2.71,0,0,1,456.56,349ZM52,347.76h-.23a2.7,2.7,0,0,1-2.47-2.92l.12-1.49a2.7,2.7,0,0,1,5.39.46l-.12,1.48A2.71,2.71,0,0,1,52,347.76Zm608.19-1.91a2.7,2.7,0,0,1-2.7-2.57l-.07-1.48a2.7,2.7,0,0,1,5.4-.28l.08,1.49a2.71,2.71,0,0,1-2.57,2.84Zm-409.65-9a2.69,2.69,0,0,1-2.45-1.56c-.22-.46-.44-.93-.64-1.39a2.7,2.7,0,0,1,4.93-2.22L253,333a2.69,2.69,0,0,1-2.44,3.85Zm214.69-1.74a2.75,2.75,0,0,1-1.29-.33,2.7,2.7,0,0,1-1.08-3.67l.68-1.28a2.71,2.71,0,1,1,4.79,2.52c-.23.44-.47.89-.72,1.34A2.72,2.72,0,0,1,465.27,335.07ZM53.5,331.38l-.26,0a2.69,2.69,0,0,1-2.43-2.95l.14-1.48a2.7,2.7,0,1,1,5.38.51l-.14,1.49A2.7,2.7,0,0,1,53.5,331.38Zm605.74-1.93a2.71,2.71,0,0,1-2.69-2.52l-.11-1.48a2.71,2.71,0,0,1,5.4-.39l.1,1.49a2.7,2.7,0,0,1-2.5,2.89Zm-414.49-8a2.71,2.71,0,0,1-2.59-1.93c-.15-.5-.29-1-.43-1.47a2.71,2.71,0,0,1,5.21-1.48c.13.46.26.93.4,1.4a2.71,2.71,0,0,1-1.81,3.37A3,3,0,0,1,244.75,321.47Zm227.45-1.29a2.64,2.64,0,0,1-1-.19,2.69,2.69,0,0,1-1.53-3.5c.18-.46.36-.92.53-1.37a2.7,2.7,0,1,1,5.05,1.93c-.17.46-.36.94-.55,1.42A2.69,2.69,0,0,1,472.2,320.18ZM55.17,315h-.3a2.71,2.71,0,0,1-2.39-3l.16-1.49a2.71,2.71,0,0,1,5.38.59l-.16,1.48A2.71,2.71,0,0,1,55.17,315Zm602.73-1.94a2.7,2.7,0,0,1-2.69-2.45l-.14-1.48a2.7,2.7,0,1,1,5.38-.52l.14,1.49a2.69,2.69,0,0,1-2.44,2.94Zm-416.64-7.66a2.7,2.7,0,0,1-2.67-2.36c-.08-.59-.14-1.11-.19-1.55a2.71,2.71,0,1,1,5.38-.57c0,.4.1.88.17,1.43a2.71,2.71,0,0,1-2.34,3Zm236-.89a2.69,2.69,0,0,1-2.63-3.33c.13-.55.24-1,.32-1.41a2.71,2.71,0,0,1,5.29,1.15c-.09.42-.21.93-.35,1.52A2.71,2.71,0,0,1,477.21,304.52ZM57.05,298.68l-.33,0a2.71,2.71,0,0,1-2.36-3l.19-1.49a2.7,2.7,0,0,1,5.36.66l-.18,1.48A2.7,2.7,0,0,1,57.05,298.68Zm599.11-1.95a2.7,2.7,0,0,1-2.68-2.38l-.18-1.48a2.7,2.7,0,1,1,5.37-.65l.18,1.48a2.72,2.72,0,0,1-2.37,3Zm-416.74-7.66a2.71,2.71,0,0,1-2.68-2.4l-.17-1.47a2.7,2.7,0,0,1,5.37-.63l.17,1.49a2.69,2.69,0,0,1-2.37,3Zm241-.67a2.57,2.57,0,0,1-.55-.06,2.69,2.69,0,0,1-2.1-3.19l.3-1.47a2.71,2.71,0,0,1,5.3,1.11l-.31,1.45A2.7,2.7,0,0,1,480.42,288.4Zm-421.26-6a2.31,2.31,0,0,1-.37,0,2.7,2.7,0,0,1-2.31-3.05l.2-1.48a2.71,2.71,0,0,1,5.36.74l-.2,1.48A2.72,2.72,0,0,1,59.16,282.38ZM654,280.44a2.7,2.7,0,0,1-2.67-2.3l-.22-1.47a2.7,2.7,0,1,1,5.34-.81l.23,1.48a2.71,2.71,0,0,1-2.68,3.1Zm-416.47-7.67a2.7,2.7,0,0,1-2.68-2.39l-.18-1.47a2.7,2.7,0,0,1,5.37-.65l.18,1.48a2.71,2.71,0,0,1-2.36,3ZM484,272.38a2.69,2.69,0,0,1-2.63-3.33l.35-1.46a2.7,2.7,0,1,1,5.25,1.27l-.34,1.44A2.72,2.72,0,0,1,484,272.38ZM61.51,266.11a2.83,2.83,0,0,1-.41,0A2.72,2.72,0,0,1,58.83,263l.23-1.48a2.71,2.71,0,0,1,5.35.83l-.23,1.47A2.71,2.71,0,0,1,61.51,266.11Zm589.79-1.89a2.71,2.71,0,0,1-2.66-2.22l-.27-1.46a2.71,2.71,0,1,1,5.32-1L654,261a2.69,2.69,0,0,1-2.17,3.14A2.81,2.81,0,0,1,651.3,264.22ZM488,256.48a2.53,2.53,0,0,1-.71-.1,2.71,2.71,0,0,1-1.9-3.32l.41-1.45a2.7,2.7,0,0,1,5.21,1.45l-.4,1.43A2.71,2.71,0,0,1,488,256.48Zm-252.53,0a2.71,2.71,0,0,1-2.68-2.36l-.19-1.48A2.7,2.7,0,1,1,238,252l.19,1.48a2.69,2.69,0,0,1-2.33,3Zm-171.37-6.6a2.45,2.45,0,0,1-.46,0,2.71,2.71,0,0,1-2.21-3.12l.25-1.47a2.7,2.7,0,1,1,5.33.92l-.25,1.46A2.7,2.7,0,0,1,64.13,249.88ZM648,248.13A2.7,2.7,0,0,1,645.4,246l-.33-1.44a2.71,2.71,0,0,1,5.28-1.2l.33,1.45a2.7,2.7,0,0,1-2,3.23A2.44,2.44,0,0,1,648,248.13Zm-155.35-7.39a2.6,2.6,0,0,1-.82-.13,2.71,2.71,0,0,1-1.76-3.4l.46-1.42a2.71,2.71,0,1,1,5.15,1.66l-.45,1.41A2.71,2.71,0,0,1,492.69,240.74Zm-259.36-.54a2.69,2.69,0,0,1-2.67-2.33l-.21-1.48a2.71,2.71,0,0,1,5.36-.75l.2,1.48a2.69,2.69,0,0,1-2.3,3A2.43,2.43,0,0,1,233.33,240.2ZM67.05,233.72a2.94,2.94,0,0,1-.51-.05,2.71,2.71,0,0,1-2.15-3.17l.28-1.46a2.7,2.7,0,1,1,5.31,1l-.28,1.46A2.71,2.71,0,0,1,67.05,233.72Zm577-1.52a2.71,2.71,0,0,1-2.61-2l-.39-1.42a2.7,2.7,0,1,1,5.2-1.47l.41,1.46a2.71,2.71,0,0,1-1.9,3.32A2.53,2.53,0,0,1,644.08,232.2Zm-146-7a2.72,2.72,0,0,1-2.53-3.66l.54-1.41a2.7,2.7,0,0,1,5.05,1.93l-.52,1.38A2.71,2.71,0,0,1,498.05,225.24ZM231,224a2.71,2.71,0,0,1-2.67-2.3l-.22-1.46a2.7,2.7,0,1,1,5.34-.83l.23,1.47A2.7,2.7,0,0,1,231,224ZM70.3,217.61a2.76,2.76,0,0,1-.57-.06,2.71,2.71,0,0,1-2.08-3.21l.32-1.47A2.7,2.7,0,1,1,73.25,214l-.31,1.45A2.7,2.7,0,0,1,70.3,217.61Zm569-1.11a2.72,2.72,0,0,1-2.56-1.83l-.48-1.39a2.71,2.71,0,1,1,5.11-1.79l.49,1.43a2.71,2.71,0,0,1-2.56,3.58Zm-135-6.44a2.74,2.74,0,0,1-1.11-.24,2.71,2.71,0,0,1-1.36-3.58l.63-1.37a2.71,2.71,0,0,1,4.92,2.25c-.21.45-.41.89-.61,1.34A2.72,2.72,0,0,1,504.28,210.06Zm-276-2.29a2.7,2.7,0,0,1-2.66-2.24l-.26-1.46a2.71,2.71,0,0,1,5.33-.94l.26,1.48a2.71,2.71,0,0,1-2.21,3.12A2.45,2.45,0,0,1,228.32,207.77ZM73.94,201.58a2.79,2.79,0,0,1-.64-.07,2.71,2.71,0,0,1-2-3.27l.36-1.45a2.7,2.7,0,1,1,5.25,1.28l-.35,1.44A2.7,2.7,0,0,1,73.94,201.58Zm559.43-.4a2.71,2.71,0,0,1-2.48-1.63l-.59-1.35a2.71,2.71,0,1,1,5-2.19l.6,1.39a2.69,2.69,0,0,1-1.4,3.55A2.59,2.59,0,0,1,633.37,201.18Zm-121.79-5.81a2.71,2.71,0,0,1-2.37-4c.25-.44.5-.88.74-1.32a2.7,2.7,0,1,1,4.71,2.65L514,194A2.69,2.69,0,0,1,511.58,195.37Zm-286.25-3.74a2.7,2.7,0,0,1-2.65-2.17l-.29-1.46a2.7,2.7,0,1,1,5.3-1.06l.29,1.46a2.7,2.7,0,0,1-2.12,3.18A2.44,2.44,0,0,1,225.33,191.63Zm400.77-5.15a2.7,2.7,0,0,1-2.36-1.37c-.24-.43-.48-.85-.73-1.26a2.7,2.7,0,0,1,4.67-2.73c.26.43.51.87.76,1.32a2.71,2.71,0,0,1-2.34,4ZM78,185.67a2.55,2.55,0,0,1-.72-.1,2.69,2.69,0,0,1-1.89-3.32l.39-1.45A2.71,2.71,0,0,1,81,182.24l-.4,1.44A2.7,2.7,0,0,1,78,185.67Zm442.23-4.21a2.66,2.66,0,0,1-1.56-.5,2.7,2.7,0,0,1-.64-3.77c.29-.42.59-.83.88-1.24a2.71,2.71,0,0,1,4.38,3.18c-.29.39-.57.79-.85,1.19A2.71,2.71,0,0,1,520.25,181.46ZM221.9,175.58a2.7,2.7,0,0,1-2.64-2.1l-.33-1.44a2.7,2.7,0,1,1,5.26-1.23l.34,1.46a2.71,2.71,0,0,1-2,3.25A3.05,3.05,0,0,1,221.9,175.58ZM617,172.86a2.67,2.67,0,0,1-2.12-1l-.91-1.12a2.7,2.7,0,1,1,4.18-3.43l1,1.19a2.7,2.7,0,0,1-.43,3.8A2.67,2.67,0,0,1,617,172.86Zm-534.37-3a2.54,2.54,0,0,1-.81-.13,2.7,2.7,0,0,1-1.77-3.39L80.5,165a2.7,2.7,0,0,1,5.15,1.63L85.21,168A2.7,2.7,0,0,1,82.63,169.9Zm448.05-1.07a2.71,2.71,0,0,1-1.94-4.6l1.09-1.09a2.7,2.7,0,0,1,3.8,3.84l-1,1A2.71,2.71,0,0,1,530.68,168.83Zm74.88-7.64a2.65,2.65,0,0,1-1.69-.6l-1.12-.87a2.7,2.7,0,1,1,3.28-4.3c.42.31.82.64,1.23,1a2.7,2.7,0,0,1-1.7,4.81ZM217.9,159.67a2.71,2.71,0,0,1-2.61-2l-.39-1.43a2.7,2.7,0,0,1,5.21-1.45l.4,1.45a2.7,2.7,0,0,1-1.89,3.32A2.55,2.55,0,0,1,217.9,159.67Zm325.36-1.28a2.71,2.71,0,0,1-1.47-5l1.31-.83a2.71,2.71,0,0,1,2.84,4.61l-1.21.76A2.63,2.63,0,0,1,543.26,158.39ZM87.88,154.33a2.66,2.66,0,0,1-.92-.16,2.71,2.71,0,0,1-1.62-3.47l.52-1.41a2.7,2.7,0,0,1,5.07,1.87l-.51,1.39A2.71,2.71,0,0,1,87.88,154.33Zm503.68-1.4a2.73,2.73,0,0,1-1-.19l-1.31-.5a2.7,2.7,0,1,1,1.84-5.08c.49.17,1,.36,1.46.55a2.7,2.7,0,0,1-1,5.22Zm-33.51-1.4a2.71,2.71,0,0,1-.76-5.3c.5-.15,1-.29,1.51-.42a2.7,2.7,0,1,1,1.37,5.23l-1.36.38A2.85,2.85,0,0,1,558.05,151.53Zm17.66-2h-.15c-.46,0-.93,0-1.41-.06a2.7,2.7,0,0,1-2.64-2.77,2.68,2.68,0,0,1,2.77-2.63c.53,0,1.05,0,1.57.06a2.7,2.7,0,0,1-.14,5.4ZM213.17,144a2.71,2.71,0,0,1-2.57-1.86l-.47-1.39a2.7,2.7,0,1,1,5.12-1.74l.48,1.43a2.7,2.7,0,0,1-1.71,3.42A2.8,2.8,0,0,1,213.17,144Zm-119.24-4.9a2.7,2.7,0,0,1-2.48-3.78l.6-1.38a2.7,2.7,0,1,1,5,2.18l-.59,1.35A2.69,2.69,0,0,1,93.93,139.06Zm113.51-10.48a2.69,2.69,0,0,1-2.49-1.66l-.57-1.35a2.7,2.7,0,1,1,5-2.13c.2.46.39.93.59,1.39a2.71,2.71,0,0,1-1.45,3.54A2.77,2.77,0,0,1,207.44,128.58ZM101,124.25a2.59,2.59,0,0,1-1.26-.32,2.7,2.7,0,0,1-1.13-3.65l.72-1.34a2.7,2.7,0,0,1,4.76,2.57c-.24.43-.47.86-.7,1.3A2.71,2.71,0,0,1,101,124.25Zm99.36-10.45a2.72,2.72,0,0,1-2.37-1.4c-.23-.43-.47-.85-.71-1.27a2.71,2.71,0,1,1,4.7-2.68c.25.44.5.88.74,1.33a2.7,2.7,0,0,1-2.36,4Zm-90.94-3.62a2.7,2.7,0,0,1-2.23-4.23l.87-1.25a2.7,2.7,0,1,1,4.43,3.1l-.83,1.2A2.69,2.69,0,0,1,109.42,110.18Zm81.92-10.05a2.71,2.71,0,0,1-2.11-1c-.3-.38-.61-.75-.91-1.12a2.71,2.71,0,1,1,4.16-3.46c.32.4.65.79,1,1.2a2.7,2.7,0,0,1-2.11,4.39Zm-71.67-2.7a2.7,2.7,0,0,1-2-4.58l1.08-1.1a2.7,2.7,0,1,1,3.82,3.83l-1,1A2.68,2.68,0,0,1,119.67,97.43Zm60-8.67a2.73,2.73,0,0,1-1.58-.51c-.38-.28-.77-.54-1.16-.81a2.7,2.7,0,0,1,3-4.48l1.29.9a2.71,2.71,0,0,1-1.58,4.9Zm-47.37-1.59a2.71,2.71,0,0,1-1.4-5l1.35-.79a2.7,2.7,0,0,1,2.67,4.7c-.41.24-.82.47-1.22.72A2.74,2.74,0,0,1,132.27,87.17ZM165,81.84a2.48,2.48,0,0,1-.66-.08L163,81.45a2.7,2.7,0,1,1,1.1-5.29c.52.11,1,.22,1.55.35a2.7,2.7,0,0,1-.64,5.33Zm-17.69-.5a2.7,2.7,0,0,1-.49-5.36c.52-.1,1-.19,1.57-.27a2.7,2.7,0,0,1,.79,5.35l-1.37.23A2.92,2.92,0,0,1,147.28,81.34Z"/><path class="cls-1" d="M485.56,396.07h-.09L484,396a2.7,2.7,0,1,1,.23-5.39l1.46.05a2.7,2.7,0,0,1-.09,5.4Zm14.88-.16a2.7,2.7,0,0,1-.13-5.4l1.46-.08a2.7,2.7,0,0,1,.33,5.39l-1.51.08Zm299.91-.51h-.09a2.69,2.69,0,0,1-2.61-2.78s0-.51,0-1.46a2.7,2.7,0,1,1,5.4.11c0,1,0,1.52,0,1.52A2.7,2.7,0,0,1,800.35,395.4Zm-331.08-.74-.39,0-1.5-.23a2.7,2.7,0,1,1,.84-5.33l1.44.22a2.7,2.7,0,0,1-.39,5.37Zm47.45-.39a2.7,2.7,0,0,1-.4-5.37l1.44-.22a2.7,2.7,0,1,1,.87,5.33l-1.5.23Zm-325-.75h-.13a2.7,2.7,0,0,1-2.57-2.82l.07-1.5a2.7,2.7,0,0,1,5.4.26l-.08,1.49A2.7,2.7,0,0,1,191.7,393.52Zm261.59-2.28a2.76,2.76,0,0,1-.75-.1l-1.47-.44a2.7,2.7,0,1,1,1.57-5.16L454,386a2.7,2.7,0,0,1-.74,5.29Zm79.44-.32a2.7,2.7,0,0,1-.7-5.31l1.41-.39a2.7,2.7,0,1,1,1.46,5.2l-1.46.41A2.94,2.94,0,0,1,532.73,390.92Zm15.49-5.25a2.7,2.7,0,0,1-1-5.2l1.34-.56a2.7,2.7,0,1,1,2.13,5l-1.41.59A2.64,2.64,0,0,1,548.22,385.67ZM438,385.51a2.61,2.61,0,0,1-1.15-.26l-1.38-.66a2.7,2.7,0,0,1,2.37-4.85l1.31.63a2.7,2.7,0,0,1-1.15,5.14ZM800.45,379a2.7,2.7,0,0,1-2.7-2.68l0-1.48a2.7,2.7,0,0,1,2.67-2.73h0a2.7,2.7,0,0,1,2.7,2.67l0,1.5a2.7,2.7,0,0,1-2.68,2.72Zm-237.57-.58a2.7,2.7,0,0,1-1.36-5l1.25-.75a2.7,2.7,0,0,1,2.79,4.63l-1.31.78A2.71,2.71,0,0,1,562.88,378.41Zm-139-1.12a2.73,2.73,0,0,1-1.56-.5l-1.25-.9a2.7,2.7,0,0,1,3.2-4.35l1.17.84a2.7,2.7,0,0,1-1.56,4.91Zm-231.19-.23h-.18a2.7,2.7,0,0,1-2.52-2.87l.1-1.49a2.7,2.7,0,1,1,5.39.37l-.1,1.48A2.7,2.7,0,0,1,192.66,377.06Zm383.72-7.91a2.7,2.7,0,0,1-1.69-4.81l1.13-.92a2.7,2.7,0,0,1,3.42,4.18l-1.18,1A2.73,2.73,0,0,1,576.38,369.15Zm-164.95-2.5a2.69,2.69,0,0,1-1.94-.82l-1.06-1.11a2.7,2.7,0,0,1,3.94-3.7l1,1.05a2.71,2.71,0,0,1-.06,3.82A2.67,2.67,0,0,1,411.43,366.65Zm388.67-4.09a2.7,2.7,0,0,1-2.7-2.61l0-1.48a2.7,2.7,0,1,1,5.39-.19l0,1.49a2.69,2.69,0,0,1-2.6,2.79Zm-606.21-1.91h-.22a2.7,2.7,0,0,1-2.47-2.91l.12-1.5a2.7,2.7,0,1,1,5.38.46l-.12,1.48A2.71,2.71,0,0,1,193.89,360.65Zm394.52-2.6a2.71,2.71,0,0,1-2-4.55l1-1.07a2.7,2.7,0,1,1,4,3.65l-1,1.11A2.69,2.69,0,0,1,588.41,358.05ZM401.1,354a2.69,2.69,0,0,1-2.23-1.19c-.29-.42-.57-.85-.85-1.27a2.7,2.7,0,1,1,4.51-3l.8,1.21a2.7,2.7,0,0,1-.71,3.75A2.75,2.75,0,0,1,401.1,354Zm398.26-7.81a2.71,2.71,0,0,1-2.7-2.55l-.08-1.48a2.7,2.7,0,1,1,5.39-.31l.09,1.49a2.71,2.71,0,0,1-2.55,2.85Zm-200.59-.79a2.69,2.69,0,0,1-2.2-4.26l.84-1.19a2.7,2.7,0,1,1,4.44,3.07l-.87,1.24A2.69,2.69,0,0,1,598.77,345.36Zm-403.4-1.09-.26,0a2.69,2.69,0,0,1-2.43-2.94l.15-1.49a2.7,2.7,0,0,1,5.37.53l-.15,1.48A2.7,2.7,0,0,1,195.37,344.27ZM393,339.7a2.68,2.68,0,0,1-2.44-1.55l-.64-1.39a2.7,2.7,0,0,1,4.92-2.22c.2.44.4.88.61,1.32a2.7,2.7,0,0,1-1.3,3.59A2.74,2.74,0,0,1,393,339.7Zm214.34-8.3a2.73,2.73,0,0,1-1.26-.31,2.7,2.7,0,0,1-1.12-3.65l.67-1.3a2.7,2.7,0,1,1,4.8,2.48l-.7,1.34A2.69,2.69,0,0,1,607.36,331.4Zm190.87-1.63a2.7,2.7,0,0,1-2.69-2.48l-.12-1.48a2.7,2.7,0,1,1,5.38-.45l.12,1.49a2.7,2.7,0,0,1-2.47,2.91Zm-601.14-1.85-.31,0a2.7,2.7,0,0,1-2.38-3l.17-1.49a2.7,2.7,0,1,1,5.36.61l-.16,1.48A2.71,2.71,0,0,1,197.09,327.92Zm190.08-3.54a2.69,2.69,0,0,1-2.58-1.91c-.15-.5-.3-1-.44-1.47a2.7,2.7,0,0,1,5.19-1.49l.41,1.39a2.7,2.7,0,0,1-1.8,3.37A2.63,2.63,0,0,1,387.17,324.38Zm226.93-7.94a2.6,2.6,0,0,1-.94-.17,2.69,2.69,0,0,1-1.58-3.48l.5-1.36a2.7,2.7,0,1,1,5.08,1.83c-.17.47-.35.95-.53,1.43A2.69,2.69,0,0,1,614.1,316.44Zm182.58-3A2.7,2.7,0,0,1,794,311l-.16-1.47a2.7,2.7,0,1,1,5.37-.6l.16,1.49a2.7,2.7,0,0,1-2.4,3ZM199.05,311.6l-.35,0a2.7,2.7,0,0,1-2.33-3l.19-1.48a2.7,2.7,0,0,1,5.36.7l-.19,1.47A2.7,2.7,0,0,1,199.05,311.6Zm184.47-3.23a2.7,2.7,0,0,1-2.67-2.29c-.08-.54-.15-1.05-.21-1.52a2.7,2.7,0,1,1,5.35-.73c.06.45.13.93.2,1.44a2.69,2.69,0,0,1-2.26,3.07A2.83,2.83,0,0,1,383.52,308.37Zm235.2-7.71a2.67,2.67,0,0,1-.56-.06,2.71,2.71,0,0,1-2.09-3.2l.31-1.46a2.7,2.7,0,0,1,5.29,1.12l-.31,1.45A2.71,2.71,0,0,1,618.72,300.66Zm175.95-3.54a2.71,2.71,0,0,1-2.67-2.33l-.2-1.47a2.7,2.7,0,1,1,5.34-.75l.21,1.48a2.7,2.7,0,0,1-2.3,3.05Zm-593.39-1.8-.4,0a2.71,2.71,0,0,1-2.28-3.06l.22-1.48a2.7,2.7,0,1,1,5.34.79l-.22,1.47A2.7,2.7,0,0,1,201.28,295.32ZM382,292a2.7,2.7,0,0,1-2.68-2.46l-.13-1.48a2.7,2.7,0,1,1,5.37-.49l.14,1.5a2.7,2.7,0,0,1-2.46,2.92Zm240.37-7.34a2.39,2.39,0,0,1-.64-.08,2.69,2.69,0,0,1-2-3.26l.35-1.46a2.7,2.7,0,0,1,5.25,1.3L625,282.6A2.7,2.7,0,0,1,622.34,284.66Zm169.8-3.76a2.68,2.68,0,0,1-2.65-2.24l-.26-1.46a2.7,2.7,0,0,1,5.32-.94l.25,1.48a2.7,2.7,0,0,1-2.19,3.12A2.49,2.49,0,0,1,792.14,280.9Zm-588.35-1.82a3.15,3.15,0,0,1-.44,0,2.7,2.7,0,0,1-2.23-3.1l.24-1.48a2.7,2.7,0,0,1,5.33.88l-.24,1.47A2.71,2.71,0,0,1,203.79,279.08Zm176.59-3.41a2.7,2.7,0,0,1-2.68-2.41l-.16-1.48a2.7,2.7,0,0,1,5.37-.58l.16,1.48a2.71,2.71,0,0,1-2.4,3Zm246.13-6.87a2.74,2.74,0,0,1-.74-.1,2.71,2.71,0,0,1-1.86-3.34l.42-1.44a2.7,2.7,0,1,1,5.19,1.49l-.41,1.43A2.7,2.7,0,0,1,626.51,268.8Zm162.49-4a2.69,2.69,0,0,1-2.63-2.13l-.32-1.44a2.7,2.7,0,0,1,5.27-1.17l.32,1.47a2.7,2.7,0,0,1-2.06,3.21A2.93,2.93,0,0,1,789,264.78ZM206.6,262.9a2.81,2.81,0,0,1-.49,0,2.69,2.69,0,0,1-2.16-3.14l.27-1.47a2.7,2.7,0,0,1,5.31,1l-.27,1.46A2.71,2.71,0,0,1,206.6,262.9Zm171.86-3.52a2.7,2.7,0,0,1-2.68-2.35l-.19-1.47a2.7,2.7,0,0,1,5.36-.7l.19,1.48a2.69,2.69,0,0,1-2.33,3A2.11,2.11,0,0,1,378.46,259.38Zm252.87-6.26a2.74,2.74,0,0,1-.85-.13,2.71,2.71,0,0,1-1.72-3.42l.48-1.42a2.7,2.7,0,0,1,5.12,1.73l-.47,1.4A2.7,2.7,0,0,1,631.33,253.12Zm153.81-4.29a2.7,2.7,0,0,1-2.6-2l-.39-1.42a2.7,2.7,0,0,1,5.21-1.44l.39,1.45a2.69,2.69,0,0,1-1.9,3.31A2.48,2.48,0,0,1,785.14,248.83Zm-575.37-2.05a2.57,2.57,0,0,1-.55-.06,2.69,2.69,0,0,1-2.09-3.19l.3-1.47a2.7,2.7,0,0,1,5.29,1.12l-.31,1.45A2.69,2.69,0,0,1,209.77,246.78Zm166.4-3.64a2.7,2.7,0,0,1-2.67-2.29l-.23-1.47a2.7,2.7,0,0,1,5.34-.83l.23,1.48a2.69,2.69,0,0,1-2.26,3.08Zm260.73-5.42a2.64,2.64,0,0,1-1-.19,2.69,2.69,0,0,1-1.52-3.5l.55-1.4a2.7,2.7,0,1,1,5,2l-.54,1.37A2.71,2.71,0,0,1,636.9,237.72Zm143.5-4.6a2.7,2.7,0,0,1-2.55-1.84l-.48-1.39a2.7,2.7,0,1,1,5.11-1.76l.48,1.42a2.7,2.7,0,0,1-1.69,3.43A2.93,2.93,0,0,1,780.4,233.12Zm-567.07-2.37a2.72,2.72,0,0,1-2.62-3.33l.34-1.45a2.7,2.7,0,1,1,5.25,1.25l-.34,1.45A2.7,2.7,0,0,1,213.33,230.75ZM373.45,227a2.7,2.7,0,0,1-2.65-2.21l-.27-1.46a2.7,2.7,0,1,1,5.31-1l.27,1.48a2.68,2.68,0,0,1-2.66,3.18Zm270-4.28a2.69,2.69,0,0,1-2.43-3.86c.21-.45.43-.91.65-1.36a2.7,2.7,0,1,1,4.86,2.36l-.64,1.32A2.7,2.7,0,0,1,643.4,222.67Zm131.17-4.88a2.69,2.69,0,0,1-2.48-1.63l-.59-1.35a2.7,2.7,0,0,1,4.94-2.18c.21.46.41.93.61,1.39a2.71,2.71,0,0,1-1.42,3.55A2.65,2.65,0,0,1,774.57,217.79Zm-557.22-3a2.8,2.8,0,0,1-.7-.09,2.71,2.71,0,0,1-1.91-3.31l.4-1.45a2.7,2.7,0,0,1,5.21,1.42l-.39,1.43A2.71,2.71,0,0,1,217.35,214.82Zm152.89-3.95a2.69,2.69,0,0,1-2.63-2.13l-.32-1.45a2.7,2.7,0,0,1,5.27-1.16l.32,1.46a2.7,2.7,0,0,1-2.06,3.22A2.86,2.86,0,0,1,370.24,210.87Zm280.82-2.68a2.75,2.75,0,0,1-1.37-.38,2.7,2.7,0,0,1-1-3.7l.78-1.3a2.7,2.7,0,1,1,4.62,2.79l-.75,1.26A2.7,2.7,0,0,1,651.06,208.19Zm116.26-5.1a2.72,2.72,0,0,1-2.35-1.37c-.24-.43-.48-.85-.73-1.27a2.7,2.7,0,0,1,4.67-2.71c.25.43.51.87.76,1.32a2.71,2.71,0,0,1-1,3.68A2.78,2.78,0,0,1,767.32,203.09ZM221.91,199a2.43,2.43,0,0,1-.8-.12,2.69,2.69,0,0,1-1.79-3.37l.45-1.44a2.7,2.7,0,1,1,5.15,1.62l-.44,1.41A2.68,2.68,0,0,1,221.91,199Zm144.53-4.13a2.7,2.7,0,0,1-2.61-2l-.37-1.43a2.69,2.69,0,1,1,5.21-1.38l.39,1.45a2.71,2.71,0,0,1-1.94,3.3A2.58,2.58,0,0,1,366.44,194.91Zm293.75-.33a2.7,2.7,0,0,1-2.14-4.34c.31-.41.62-.81.94-1.21a2.7,2.7,0,1,1,4.24,3.35l-.9,1.14A2.67,2.67,0,0,1,660.19,194.58Zm98-5.12a2.69,2.69,0,0,1-2.11-1l-.91-1.13a2.7,2.7,0,1,1,4.18-3.42l1,1.2a2.69,2.69,0,0,1-.44,3.79A2.72,2.72,0,0,1,758.24,189.46Zm-531.14-6a2.65,2.65,0,0,1-.91-.16,2.71,2.71,0,0,1-1.63-3.46l.52-1.41a2.7,2.7,0,1,1,5.07,1.85l-.51,1.39A2.7,2.7,0,0,1,227.1,183.47Zm444.06-1a2.7,2.7,0,0,1-1.84-4.68l1.14-1a2.7,2.7,0,0,1,3.6,4l-1.07,1A2.7,2.7,0,0,1,671.16,182.43Zm-309.24-3.28a2.72,2.72,0,0,1-2.58-1.89l-.44-1.4A2.7,2.7,0,1,1,364,174.2l.45,1.44a2.69,2.69,0,0,1-1.76,3.38A2.54,2.54,0,0,1,361.92,179.15Zm384.94-1.39a2.7,2.7,0,0,1-1.71-.61l-1.11-.88a2.7,2.7,0,1,1,3.31-4.27l1.22,1a2.7,2.7,0,0,1-1.71,4.79Zm-62.57-5a2.7,2.7,0,0,1-1.34-5l1.37-.76a2.7,2.7,0,0,1,2.55,4.76l-1.25.69A2.67,2.67,0,0,1,684.29,172.71ZM733,169.33a2.56,2.56,0,0,1-1-.22l-1.31-.52a2.7,2.7,0,0,1,1.94-5l1.45.58a2.71,2.71,0,0,1-1,5.2Zm-499.86-1.15A2.77,2.77,0,0,1,232,168a2.71,2.71,0,0,1-1.43-3.55l.6-1.38a2.7,2.7,0,0,1,4.95,2.15l-.58,1.35A2.7,2.7,0,0,1,233.09,168.18Zm466.36-1.45a2.7,2.7,0,0,1-.61-5.33l1.52-.34a2.7,2.7,0,0,1,1.09,5.29l-1.38.31A2.68,2.68,0,0,1,699.45,166.73Zm17.74-1.26H717l-1.41-.1a2.7,2.7,0,1,1,.32-5.39l1.56.11a2.7,2.7,0,0,1-.23,5.39Zm-360.7-1.79A2.71,2.71,0,0,1,354,162l-.54-1.37a2.7,2.7,0,0,1,5-2L359,160a2.68,2.68,0,0,1-1.53,3.49A2.59,2.59,0,0,1,356.49,163.68Zm-116.4-10.35a2.69,2.69,0,0,1-2.4-3.94c.24-.45.47-.9.71-1.34a2.7,2.7,0,1,1,4.77,2.53l-.69,1.3A2.68,2.68,0,0,1,240.09,153.33Zm109.79-4.65a2.71,2.71,0,0,1-2.42-1.49l-.66-1.31a2.7,2.7,0,0,1,4.81-2.46c.23.45.46.9.68,1.35a2.7,2.7,0,0,1-1.21,3.63A2.74,2.74,0,0,1,349.88,148.68Zm-101.5-9.49a2.65,2.65,0,0,1-1.49-.45,2.69,2.69,0,0,1-.75-3.74c.28-.43.56-.85.85-1.27a2.7,2.7,0,1,1,4.46,3.05c-.28.4-.55.8-.82,1.21A2.69,2.69,0,0,1,248.38,139.19Zm93.31-4.69a2.68,2.68,0,0,1-2.24-1.2l-.82-1.19a2.7,2.7,0,0,1,4.43-3.09l.87,1.27a2.7,2.7,0,0,1-.73,3.74A2.66,2.66,0,0,1,341.69,134.5Zm-83.29-8.25a2.69,2.69,0,0,1-2-4.52c.34-.38.69-.75,1-1.12a2.7,2.7,0,1,1,3.92,3.71c-.33.35-.66.7-1,1.06A2.71,2.71,0,0,1,258.4,126.25Zm73-4.43a2.71,2.71,0,0,1-1.9-.78l-1-1a2.7,2.7,0,1,1,3.72-3.91l1.11,1.07a2.71,2.71,0,0,1,0,3.82A2.66,2.66,0,0,1,331.35,121.82Zm-60.7-6.32a2.7,2.7,0,0,1-1.52-4.94l1.29-.86a2.7,2.7,0,1,1,2.93,4.54c-.4.26-.8.52-1.19.79A2.71,2.71,0,0,1,270.65,115.5Zm47.66-3.45a2.69,2.69,0,0,1-1.25-.31l-1.26-.64a2.7,2.7,0,0,1,2.38-4.85l1.4.71a2.7,2.7,0,0,1-1.27,5.09Zm-33.05-3.48a2.7,2.7,0,0,1-.73-5.3l1.53-.4a2.7,2.7,0,0,1,1.28,5.25l-1.35.35A2.62,2.62,0,0,1,285.26,108.57Zm17.57-1.37-.32,0c-.46-.06-.92-.1-1.39-.14a2.7,2.7,0,0,1,.45-5.38c.53,0,1.05.09,1.57.16a2.7,2.7,0,0,1-.31,5.38Z"/><path class="cls-2" d="M424.73,400.55A1.54,1.54,0,0,1,423.2,399v-3.84a1.54,1.54,0,0,1,1.52-1.54h0a1.54,1.54,0,0,1,1.53,1.53l0,3.84a1.55,1.55,0,0,1-1.53,1.54Z"/><path class="cls-2" d="M424.68,384.7a1.55,1.55,0,0,1-1.54-1.53l0-7.51a1.54,1.54,0,0,1,1.53-1.54h0a1.53,1.53,0,0,1,1.53,1.53l0,7.51a1.54,1.54,0,0,1-1.53,1.54Zm-.08-19.53a1.53,1.53,0,0,1-1.53-1.52l0-7.51a1.53,1.53,0,0,1,1.53-1.54h0a1.53,1.53,0,0,1,1.53,1.53l0,7.5a1.53,1.53,0,0,1-1.53,1.54Zm-.07-19.52a1.53,1.53,0,0,1-1.53-1.53l0-7.51a1.55,1.55,0,0,1,1.53-1.54h0A1.54,1.54,0,0,1,426,336.6l0,7.51a1.53,1.53,0,0,1-1.53,1.54Zm-.07-19.52a1.53,1.53,0,0,1-1.53-1.53l0-7.51a1.53,1.53,0,0,1,1.53-1.54h0a1.54,1.54,0,0,1,1.54,1.53l0,7.51a1.52,1.52,0,0,1-1.52,1.54Zm-.07-19.52a1.55,1.55,0,0,1-1.54-1.53l0-7.51a1.53,1.53,0,0,1,1.53-1.54h0a1.54,1.54,0,0,1,1.54,1.53l0,7.51a1.54,1.54,0,0,1-1.53,1.54Zm-.07-19.53a1.54,1.54,0,0,1-1.54-1.52l0-7.51a1.54,1.54,0,0,1,1.53-1.54,1.5,1.5,0,0,1,1.54,1.52l0,7.51a1.53,1.53,0,0,1-1.53,1.54Zm-.08-19.52a1.53,1.53,0,0,1-1.53-1.53l0-7.51a1.55,1.55,0,0,1,1.53-1.54h0a1.54,1.54,0,0,1,1.53,1.53l0,7.51a1.53,1.53,0,0,1-1.53,1.54ZM424.17,248a1.54,1.54,0,0,1-1.53-1.53l0-7.51a1.53,1.53,0,0,1,1.53-1.54h0a1.53,1.53,0,0,1,1.53,1.53l0,7.51a1.54,1.54,0,0,1-1.53,1.54Zm-.07-19.53a1.53,1.53,0,0,1-1.53-1.52l0-7.51a1.53,1.53,0,0,1,1.53-1.54h0a1.54,1.54,0,0,1,1.54,1.53l0,7.5a1.52,1.52,0,0,1-1.52,1.54ZM424,209a1.54,1.54,0,0,1-1.54-1.53l0-7.51a1.54,1.54,0,0,1,1.53-1.54h0a1.55,1.55,0,0,1,1.54,1.53l0,7.51A1.53,1.53,0,0,1,424,209ZM424,189.47a1.54,1.54,0,0,1-1.54-1.53l0-7.51a1.54,1.54,0,0,1,1.53-1.54h0a1.53,1.53,0,0,1,1.53,1.53l0,7.51a1.53,1.53,0,0,1-1.53,1.54ZM423.88,170a1.54,1.54,0,0,1-1.53-1.53l0-7.51a1.53,1.53,0,0,1,1.53-1.54h0a1.53,1.53,0,0,1,1.53,1.53l0,7.51a1.55,1.55,0,0,1-1.53,1.54Zm-.07-19.53a1.53,1.53,0,0,1-1.53-1.53l0-7.5a1.53,1.53,0,0,1,1.53-1.54h0a1.53,1.53,0,0,1,1.53,1.53l0,7.5a1.53,1.53,0,0,1-1.53,1.54Zm-.07-19.52a1.53,1.53,0,0,1-1.53-1.53l0-7.51a1.55,1.55,0,0,1,1.53-1.54h0a1.55,1.55,0,0,1,1.54,1.53l0,7.51a1.52,1.52,0,0,1-1.52,1.54Zm-.07-19.52a1.55,1.55,0,0,1-1.54-1.53l0-7.51a1.53,1.53,0,0,1,1.53-1.54h0a1.54,1.54,0,0,1,1.54,1.53l0,7.51a1.53,1.53,0,0,1-1.53,1.54Zm-.07-19.53a1.54,1.54,0,0,1-1.54-1.52l0-7.51a1.54,1.54,0,0,1,1.53-1.54h0a1.53,1.53,0,0,1,1.53,1.53l0,7.5a1.53,1.53,0,0,1-1.53,1.54Z"/><path class="cls-2" d="M423.52,72.33A1.53,1.53,0,0,1,422,70.8V67a1.52,1.52,0,0,1,1.52-1.54h0A1.52,1.52,0,0,1,425,67l0,3.83a1.53,1.53,0,0,1-1.53,1.54Z"/></g></g></svg>