<svg xmlns="http://www.w3.org/2000/svg" viewBox="0 0 783.66 508.56"><defs><style>.cls-1{fill:#00324a;}.cls-2{fill:#fff;}</style></defs><title>7</title><g id="Capa_2" data-name="Capa 2"><g id="Layer_1" data-name="Layer 1"><path class="cls-1" d="M0,451.15V439.79H4.12a6.47,6.47,0,0,1,2.44.44,4.63,4.63,0,0,1,1.76,1.22,5.4,5.4,0,0,1,1,1.8,6.55,6.55,0,0,1,.36,2.2,5.63,5.63,0,0,1-1.53,4.14,5.46,5.46,0,0,1-4.08,1.56Zm4.12-9.42H2.2v7.48H4.12a3.1,3.1,0,0,0,2.49-1,4.06,4.06,0,0,0,.89-2.71,3.93,3.93,0,0,0-.9-2.7A3.13,3.13,0,0,0,4.12,441.73Z"/><path class="cls-1" d="M15.53,451.31a4.52,4.52,0,0,1-2.33-.6,4,4,0,0,1-1.56-1.56,4.44,4.44,0,0,1-.53-2.14,4.6,4.6,0,0,1,.53-2.19,4,4,0,0,1,1.56-1.6,4.54,4.54,0,0,1,2.35-.6,4.74,4.74,0,0,1,1.83.35,3.74,3.74,0,0,1,1.38.95,4.21,4.21,0,0,1,.85,1.37,4.65,4.65,0,0,1,.26,2.35H13.38a2.26,2.26,0,0,0,.72,1.53,2.2,2.2,0,0,0,1.51.57,2.49,2.49,0,0,0,1.22-.31,1.71,1.71,0,0,0,.77-.83l1.83.52a3.62,3.62,0,0,1-1.5,1.58A4.61,4.61,0,0,1,15.53,451.31Zm-2.19-5h4.38a2.34,2.34,0,0,0-.71-1.53,2.19,2.19,0,0,0-3,0A2.27,2.27,0,0,0,13.34,446.28Z"/><path class="cls-1" d="M21.6,439.47h2.15v9a1.23,1.23,0,0,0,.17.77.67.67,0,0,0,.54.21,2.4,2.4,0,0,0,1-.23l.29,1.63a4.61,4.61,0,0,1-1,.32,5.09,5.09,0,0,1-1.06.11,2.17,2.17,0,0,1-1.55-.53,2,2,0,0,1-.56-1.53Z"/><path class="cls-1" d="M27.09,441.59v-2.12h2.14v2.12Zm0,9.56v-8.38h2.14v8.38Z"/><path class="cls-1" d="M33.83,451.15l-3.1-8.38H33l2.11,6.43,2.13-6.43h2l-3.07,8.38Z"/><path class="cls-1" d="M44.37,451.31a4.53,4.53,0,0,1-2.34-.6,4,4,0,0,1-1.55-1.56A4.33,4.33,0,0,1,40,447a4.49,4.49,0,0,1,.53-2.19,4,4,0,0,1,1.55-1.6,4.56,4.56,0,0,1,2.35-.6,4.7,4.7,0,0,1,1.83.35,3.86,3.86,0,0,1,1.39.95,4.39,4.39,0,0,1,.85,1.37,4.75,4.75,0,0,1,.25,2.35H42.22a2.2,2.2,0,0,0,2.23,2.1,2.45,2.45,0,0,0,1.21-.31,1.66,1.66,0,0,0,.77-.83l1.84.52a3.7,3.7,0,0,1-1.51,1.58A4.59,4.59,0,0,1,44.37,451.31Zm-2.2-5h4.38a2.33,2.33,0,0,0-.7-1.53,2.13,2.13,0,0,0-1.5-.58,2.07,2.07,0,0,0-1.48.59A2.28,2.28,0,0,0,42.17,446.28Z"/><path class="cls-1" d="M55.45,444.62a4,4,0,0,0-1.76.39,2.23,2.23,0,0,0-1.09,1.07v5.07H50.45v-8.38h2v1.79a3.93,3.93,0,0,1,1.14-1.36,2.6,2.6,0,0,1,1.46-.54h.43Z"/><path class="cls-1" d="M57,441.59v-2.12h2.14v2.12Zm0,9.56v-8.38h2.14v8.38Z"/><path class="cls-1" d="M69.31,451.15H67.17v-4.7c0-1.3-.44-1.94-1.33-1.94a2.11,2.11,0,0,0-1.3.5,2.52,2.52,0,0,0-.88,1.24v4.9H61.52v-8.38h1.94v1.55a3.21,3.21,0,0,1,1.35-1.25,4.31,4.31,0,0,1,2-.45,2.68,2.68,0,0,1,1.06.19,1.89,1.89,0,0,1,.73.5,2.13,2.13,0,0,1,.44.75,3.58,3.58,0,0,1,.23.88,7.37,7.37,0,0,1,.06,1Z"/><path class="cls-1" d="M71.08,447a4.82,4.82,0,0,1,.49-2.19A3.82,3.82,0,0,1,73,443.2a3.61,3.61,0,0,1,2-.58,3.29,3.29,0,0,1,1.69.43,3.52,3.52,0,0,1,1.24,1.19v-1.47h1.88v8a3.77,3.77,0,0,1-.61,2.12,3.73,3.73,0,0,1-1.65,1.38,5.87,5.87,0,0,1-2.4.47,5.25,5.25,0,0,1-2.27-.45,4.67,4.67,0,0,1-1.65-1.3l1.16-1.13a3.4,3.4,0,0,0,1.22.92,3.57,3.57,0,0,0,1.54.34,3,3,0,0,0,1-.14,2.36,2.36,0,0,0,.8-.42,1.86,1.86,0,0,0,.55-.73,2.71,2.71,0,0,0,.2-1.06V449.7a2.89,2.89,0,0,1-1.17,1.1,3.43,3.43,0,0,1-1.61.4,3.53,3.53,0,0,1-2-.58,3.81,3.81,0,0,1-1.34-1.55A4.68,4.68,0,0,1,71.08,447Zm6.56,1.13v-2a2.58,2.58,0,0,0-.9-1.18,2.15,2.15,0,0,0-1.29-.45,1.91,1.91,0,0,0-1.57.77,2.84,2.84,0,0,0-.61,1.8,2.42,2.42,0,0,0,.67,1.75,2.18,2.18,0,0,0,2.89.31A2.28,2.28,0,0,0,77.64,448.08Z"/><path class="cls-1" d="M85.77,448.67a2.37,2.37,0,0,1,1-2,4.25,4.25,0,0,1,2.61-.75,5.35,5.35,0,0,1,2,.33v-.44a1.61,1.61,0,0,0-.47-1.24,2.06,2.06,0,0,0-1.4-.43,3.63,3.63,0,0,0-1.28.23,6.6,6.6,0,0,0-1.34.72l-.7-1.41a6.37,6.37,0,0,1,3.54-1.09,4,4,0,0,1,2.8.9,3.28,3.28,0,0,1,1,2.56v2.67a.78.78,0,0,0,.12.49.55.55,0,0,0,.4.17v1.74a5,5,0,0,1-.92.11,1.47,1.47,0,0,1-.95-.27,1.11,1.11,0,0,1-.42-.72l-.05-.43a3.76,3.76,0,0,1-1.35,1.08,3.85,3.85,0,0,1-1.67.39,3,3,0,0,1-2.09-.75A2.45,2.45,0,0,1,85.77,448.67Zm5.22.43a1.08,1.08,0,0,0,.4-.73v-.85a4.28,4.28,0,0,0-1.68-.34,2.38,2.38,0,0,0-1.37.36,1.1,1.1,0,0,0-.53.95,1.15,1.15,0,0,0,.4.88,1.53,1.53,0,0,0,1.09.37,2.69,2.69,0,0,0,.93-.17A2.28,2.28,0,0,0,91,449.1Z"/><path class="cls-1" d="M95.42,447a5.08,5.08,0,0,1,.47-2.18,3.89,3.89,0,0,1,1.34-1.57,3.38,3.38,0,0,1,1.94-.58,3.2,3.2,0,0,1,1.64.44,3.36,3.36,0,0,1,1.19,1.18v-4.77h2.14v9.28a.86.86,0,0,0,.11.49.53.53,0,0,0,.39.17v1.74a5.24,5.24,0,0,1-.92.11,1.53,1.53,0,0,1-1-.29,1,1,0,0,1-.42-.75l0-.52a3.18,3.18,0,0,1-1.25,1.19,3.48,3.48,0,0,1-1.67.42,3.8,3.8,0,0,1-2.05-.58,4,4,0,0,1-1.43-1.58A4.84,4.84,0,0,1,95.42,447Zm6.58,1.13v-2a2.65,2.65,0,0,0-.89-1.16,2.06,2.06,0,0,0-1.27-.47,1.93,1.93,0,0,0-1.57.76,2.74,2.74,0,0,0-.63,1.8,2.5,2.5,0,0,0,.66,1.76,2.18,2.18,0,0,0,2.89.31A2.11,2.11,0,0,0,102,448.08Z"/><path class="cls-1" d="M109.73,451.31a5.91,5.91,0,0,1-2.06-.36,4.8,4.8,0,0,1-1.67-1l.77-1.4a4.66,4.66,0,0,0,2.88,1.19,1.94,1.94,0,0,0,1-.23.74.74,0,0,0,.37-.67,1,1,0,0,0,0-.18.4.4,0,0,0-.08-.16l-.1-.13a1,1,0,0,0-.17-.11l-.19-.09-.25-.1L110,448l-.33-.1-.35-.1c-.41-.13-.75-.25-1-.35a7.76,7.76,0,0,1-.77-.37,2.16,2.16,0,0,1-.58-.45,1.85,1.85,0,0,1-.32-.55,2.07,2.07,0,0,1-.12-.73,2.37,2.37,0,0,1,.93-2,3.84,3.84,0,0,1,2.46-.74,4.42,4.42,0,0,1,3.15,1.19l-.86,1.36a4,4,0,0,0-2.39-1,2,2,0,0,0-.93.2.71.71,0,0,0-.36.67.68.68,0,0,0,.32.61,5.47,5.47,0,0,0,1.2.44c.46.14.83.25,1.1.35a7.31,7.31,0,0,1,.84.36,2.44,2.44,0,0,1,.66.46,1.78,1.78,0,0,1,.36.58,2.2,2.2,0,0,1,.14.8,2.31,2.31,0,0,1-.91,1.94A3.9,3.9,0,0,1,109.73,451.31Z"/><path class="cls-1" d="M11.25,466.67a2.34,2.34,0,0,1,1-2,4.22,4.22,0,0,1,2.6-.75,5.44,5.44,0,0,1,2,.33v-.44a1.58,1.58,0,0,0-.48-1.24,2,2,0,0,0-1.4-.43,3.67,3.67,0,0,0-1.28.23,6.88,6.88,0,0,0-1.34.72l-.69-1.41a6.37,6.37,0,0,1,3.54-1.09,4,4,0,0,1,2.79.9,3.28,3.28,0,0,1,1,2.56v2.67a.86.86,0,0,0,.11.49.55.55,0,0,0,.4.17v1.74a4.94,4.94,0,0,1-.91.11,1.52,1.52,0,0,1-1-.27,1.11,1.11,0,0,1-.42-.72l0-.43a3.94,3.94,0,0,1-3,1.47,3,3,0,0,1-2.08-.75A2.42,2.42,0,0,1,11.25,466.67Zm5.22.43a1.12,1.12,0,0,0,.4-.73v-.85a4.31,4.31,0,0,0-1.68-.34,2.42,2.42,0,0,0-1.38.36,1.12,1.12,0,0,0-.53.95,1.16,1.16,0,0,0,.41.88,1.52,1.52,0,0,0,1.08.37,2.79,2.79,0,0,0,.94-.17A2.51,2.51,0,0,0,16.47,467.1Z"/><path class="cls-1" d="M20.89,465a4.94,4.94,0,0,1,.48-2.18,3.74,3.74,0,0,1,1.34-1.57,3.35,3.35,0,0,1,1.93-.58,3.23,3.23,0,0,1,1.65.44,3.33,3.33,0,0,1,1.18,1.18v-4.77h2.15v9.28a.79.79,0,0,0,.11.49.51.51,0,0,0,.38.17v1.74a5.25,5.25,0,0,1-.91.11,1.51,1.51,0,0,1-.95-.29,1,1,0,0,1-.43-.75l0-.52a3.15,3.15,0,0,1-1.24,1.19,3.54,3.54,0,0,1-1.67.42,3.81,3.81,0,0,1-2.06-.58,4,4,0,0,1-1.42-1.58A4.72,4.72,0,0,1,20.89,465Zm6.58,1.13v-2a2.58,2.58,0,0,0-.89-1.16,2,2,0,0,0-1.27-.47,2,2,0,0,0-1.57.76,2.79,2.79,0,0,0-.62,1.8,2.5,2.5,0,0,0,.66,1.76,2.15,2.15,0,0,0,1.66.72,2.18,2.18,0,0,0,1.22-.41A2,2,0,0,0,27.47,466.08Z"/><path class="cls-1" d="M29.3,471.53l.93-1.45a1.28,1.28,0,0,0,.94.35,1,1,0,0,0,.73-.3,1,1,0,0,0,.3-.75v-8.61h2.15v8.44a3.06,3.06,0,0,1-.84,2.21,2.8,2.8,0,0,1-2.08.86A3.08,3.08,0,0,1,29.3,471.53Zm2.9-11.94v-2.12h2.15v2.12Z"/><path class="cls-1" d="M36.11,466.67a2.37,2.37,0,0,1,1-2,4.24,4.24,0,0,1,2.6-.75,5.37,5.37,0,0,1,2,.33v-.44a1.61,1.61,0,0,0-.47-1.24,2.08,2.08,0,0,0-1.41-.43,3.71,3.71,0,0,0-1.28.23,6.83,6.83,0,0,0-1.33.72l-.7-1.41a6.37,6.37,0,0,1,3.54-1.09,4,4,0,0,1,2.79.9,3.25,3.25,0,0,1,1,2.56v2.67a.78.78,0,0,0,.12.49.55.55,0,0,0,.4.17v1.74a5,5,0,0,1-.92.11,1.47,1.47,0,0,1-.95-.27,1.11,1.11,0,0,1-.42-.72l-.05-.43a3.71,3.71,0,0,1-1.36,1.08,3.81,3.81,0,0,1-1.66.39,3,3,0,0,1-2.09-.75A2.45,2.45,0,0,1,36.11,466.67Zm5.22.43a1.08,1.08,0,0,0,.4-.73v-.85a4.31,4.31,0,0,0-1.68-.34,2.38,2.38,0,0,0-1.37.36,1.11,1.11,0,0,0-.54.95,1.16,1.16,0,0,0,.41.88,1.53,1.53,0,0,0,1.09.37,2.73,2.73,0,0,0,.93-.17A2.39,2.39,0,0,0,41.33,467.1Z"/><path class="cls-1" d="M50.18,469.31a4.65,4.65,0,0,1-1.84-.36,4.17,4.17,0,0,1-1.41-.95,4.42,4.42,0,0,1-.87-1.39,4.27,4.27,0,0,1-.32-1.66,4.47,4.47,0,0,1,.53-2.15,4,4,0,0,1,1.54-1.58,4.56,4.56,0,0,1,2.35-.6,4.4,4.4,0,0,1,2.31.58A3.67,3.67,0,0,1,54,462.77l-2.09.64a2,2,0,0,0-.72-.71,2.1,2.1,0,0,0-2.56.45,2.88,2.88,0,0,0,0,3.61,2,2,0,0,0,2.61.44,1.52,1.52,0,0,0,.69-.71l2.09.64a3.5,3.5,0,0,1-1.45,1.58A4.51,4.51,0,0,1,50.18,469.31Z"/><path class="cls-1" d="M59.51,469.31a4.53,4.53,0,0,1-2.34-.6,4,4,0,0,1-1.55-1.56,4.33,4.33,0,0,1-.54-2.14,4.5,4.5,0,0,1,.54-2.19,4,4,0,0,1,1.55-1.6,4.56,4.56,0,0,1,2.35-.6,4.7,4.7,0,0,1,1.83.35,3.86,3.86,0,0,1,1.39.95,4.39,4.39,0,0,1,.85,1.37,4.75,4.75,0,0,1,.25,2.35H57.36a2.2,2.2,0,0,0,2.22,2.1,2.46,2.46,0,0,0,1.22-.31,1.66,1.66,0,0,0,.77-.83l1.83.52a3.62,3.62,0,0,1-1.5,1.58A4.59,4.59,0,0,1,59.51,469.31Zm-2.2-5h4.38a2.33,2.33,0,0,0-.7-1.53,2.13,2.13,0,0,0-1.5-.58,2.07,2.07,0,0,0-1.48.59A2.24,2.24,0,0,0,57.31,464.28Z"/><path class="cls-1" d="M73.38,469.15H71.24v-4.7c0-1.3-.44-1.94-1.33-1.94a2.13,2.13,0,0,0-1.3.5,2.52,2.52,0,0,0-.88,1.24v4.9H65.59v-8.38h1.94v1.55a3.24,3.24,0,0,1,1.36-1.25,4.26,4.26,0,0,1,2-.45,2.73,2.73,0,0,1,1.07.19,2.06,2.06,0,0,1,.73.5,2.29,2.29,0,0,1,.44.75,3.55,3.55,0,0,1,.22.88,7.37,7.37,0,0,1,.06,1Z"/><path class="cls-1" d="M80.63,468.72a5.92,5.92,0,0,1-2.37.57,2.75,2.75,0,0,1-.84-.12,2,2,0,0,1-.69-.35,1.6,1.6,0,0,1-.48-.65,2.46,2.46,0,0,1-.17-.94v-4.81H75v-1.65h1.1v-2.72h2.15v2.72H80v1.65H78.23v4.09c0,.55.28.82.79.82A3.08,3.08,0,0,0,80.2,467Z"/><path class="cls-1" d="M91.4,468.72a5.84,5.84,0,0,1-2.36.57,2.86,2.86,0,0,1-.85-.12,2.25,2.25,0,0,1-.69-.35,1.59,1.59,0,0,1-.47-.65,2.29,2.29,0,0,1-.17-.94v-4.81H85.75v-1.65h1.11v-2.72H89v2.72h1.76v1.65H89v4.09c0,.55.29.82.8.82A3.08,3.08,0,0,0,91,467Z"/><path class="cls-1" d="M92.28,465a4.47,4.47,0,0,1,1.18-3.05,3.86,3.86,0,0,1,1.39-.95,4.79,4.79,0,0,1,1.84-.35,4.49,4.49,0,0,1,2.33.6,4.16,4.16,0,0,1,1.53,1.59,4.48,4.48,0,0,1,.52,2.16,4.36,4.36,0,0,1-.31,1.65,4.05,4.05,0,0,1-.85,1.38,3.86,3.86,0,0,1-1.39.95,4.6,4.6,0,0,1-1.83.36,4.92,4.92,0,0,1-1.51-.23,4.21,4.21,0,0,1-1.23-.64,4.56,4.56,0,0,1-.91-.95,4.22,4.22,0,0,1-.57-1.19A4.55,4.55,0,0,1,92.28,465Zm4.41,2.52a2,2,0,0,0,1.55-.72,2.67,2.67,0,0,0,.63-1.82,2.59,2.59,0,0,0-.63-1.79,2,2,0,0,0-1.55-.71,2,2,0,0,0-1.57.72,2.89,2.89,0,0,0,0,3.6A2,2,0,0,0,96.69,467.49Z"/><path class="cls-1" d="M10.29,480.62a4.1,4.1,0,0,0-1.76.39,2.27,2.27,0,0,0-1.09,1.07v5.07H5.3v-8.38h2v1.79a3.93,3.93,0,0,1,1.14-1.36,2.57,2.57,0,0,1,1.45-.54h.43Z"/><path class="cls-1" d="M11.89,477.59v-2.12H14v2.12Zm0,9.56v-8.38H14v8.38Z"/><path class="cls-1" d="M19.45,487.31a5.91,5.91,0,0,1-2.06-.36,4.67,4.67,0,0,1-1.66-1l.76-1.4a4.67,4.67,0,0,0,2.89,1.19,1.92,1.92,0,0,0,1-.23.72.72,0,0,0,.37-.67,1,1,0,0,0,0-.18.4.4,0,0,0-.08-.16l-.1-.13a.71.71,0,0,0-.17-.11l-.19-.09-.25-.1-.27-.08-.33-.1-.35-.1c-.41-.13-.75-.25-1-.35a7.76,7.76,0,0,1-.77-.37,2.16,2.16,0,0,1-.58-.45,1.85,1.85,0,0,1-.32-.55,2.07,2.07,0,0,1-.12-.73,2.37,2.37,0,0,1,.93-2,3.87,3.87,0,0,1,2.47-.74,4.42,4.42,0,0,1,3.14,1.19l-.86,1.36a4,4,0,0,0-2.39-1,2,2,0,0,0-.93.2.71.71,0,0,0-.36.67.66.66,0,0,0,.33.61,5.14,5.14,0,0,0,1.19.44c.46.14.83.25,1.1.35a7.31,7.31,0,0,1,.84.36,2.44,2.44,0,0,1,.66.46,1.78,1.78,0,0,1,.36.58,2,2,0,0,1,.14.8,2.31,2.31,0,0,1-.91,1.94A3.88,3.88,0,0,1,19.45,487.31Z"/><path class="cls-1" d="M30.39,487.15,28,483.53l-1.14,1.13v2.49H24.67V475.47h2.14v7.07l3.37-3.76h2.28l-3.12,3.56,3.34,4.81Z"/><path class="cls-1" d="M34.16,488.78a3.93,3.93,0,0,0,1,.16.83.83,0,0,0,.71-.37,5.42,5.42,0,0,0,.59-1.42l-3.32-8.38h2.23L37.59,485l2-6.18h2l-3.52,10A2.86,2.86,0,0,1,37,490.26a2.94,2.94,0,0,1-1.8.55,3.4,3.4,0,0,1-1.08-.18Z"/><path class="cls-1" d="M50.93,487.31a4.65,4.65,0,0,1-1.84-.36,4,4,0,0,1-1.4-.95,4.27,4.27,0,0,1-.88-1.39A4.56,4.56,0,0,1,47,480.8a4.09,4.09,0,0,1,1.54-1.58,4.56,4.56,0,0,1,2.35-.6,4.47,4.47,0,0,1,2.32.58,3.71,3.71,0,0,1,1.47,1.57l-2.09.64a1.94,1.94,0,0,0-1.71-1,2,2,0,0,0-1.57.7,2.6,2.6,0,0,0-.63,1.8,2.65,2.65,0,0,0,.64,1.81,2,2,0,0,0,1.56.73A2.09,2.09,0,0,0,52,485.2a1.55,1.55,0,0,0,.68-.71l2.09.64a3.45,3.45,0,0,1-1.45,1.58A4.51,4.51,0,0,1,50.93,487.31Z"/><path class="cls-1" d="M55.84,483A4.47,4.47,0,0,1,57,479.92a3.86,3.86,0,0,1,1.39-.95,4.77,4.77,0,0,1,1.83-.35,4.47,4.47,0,0,1,2.33.6,4.12,4.12,0,0,1,1.54,1.59,4.77,4.77,0,0,1,.21,3.81,4.08,4.08,0,0,1-.86,1.38,3.74,3.74,0,0,1-1.38.95,4.61,4.61,0,0,1-1.84.36,5,5,0,0,1-1.51-.23,4.29,4.29,0,0,1-1.22-.64,4.56,4.56,0,0,1-.91-.95A4,4,0,0,1,56,484.3,4.55,4.55,0,0,1,55.84,483Zm4.4,2.52a2,2,0,0,0,1.56-.72,2.67,2.67,0,0,0,.63-1.82,2.59,2.59,0,0,0-.63-1.79,2.06,2.06,0,0,0-3.12,0,2.89,2.89,0,0,0,0,3.6A2,2,0,0,0,60.24,485.49Z"/><path class="cls-1" d="M74.25,487.15H72.11v-4.7c0-1.3-.44-1.94-1.33-1.94a2.13,2.13,0,0,0-1.3.5,2.52,2.52,0,0,0-.88,1.24v4.9H66.46v-8.38H68.4v1.55a3.18,3.18,0,0,1,1.36-1.25,4.26,4.26,0,0,1,2-.45,2.68,2.68,0,0,1,1.06.19,2,2,0,0,1,.74.5,2.48,2.48,0,0,1,.44.75,4.05,4.05,0,0,1,.22.88,7.37,7.37,0,0,1,.06,1Z"/><path class="cls-1" d="M81.5,486.72a5.92,5.92,0,0,1-2.37.57,2.86,2.86,0,0,1-.85-.12,2.09,2.09,0,0,1-.68-.35,1.52,1.52,0,0,1-.48-.65,2.46,2.46,0,0,1-.17-.94v-4.81h-1.1v-1.65H77v-2.72H79.1v2.72h1.75v1.65H79.1v4.09c0,.55.28.82.79.82a3.08,3.08,0,0,0,1.18-.31Z"/><path class="cls-1" d="M86.79,487.31a4.52,4.52,0,0,1-2.33-.6,4.1,4.1,0,0,1-1.56-1.56,4.44,4.44,0,0,1-.53-2.14,4.6,4.6,0,0,1,.53-2.19,4.06,4.06,0,0,1,1.56-1.6,4.54,4.54,0,0,1,2.35-.6,4.7,4.7,0,0,1,1.83.35,3.74,3.74,0,0,1,1.38.95,4.41,4.41,0,0,1,.86,1.37,4.75,4.75,0,0,1,.25,2.35H84.65a2.18,2.18,0,0,0,2.22,2.1,2.49,2.49,0,0,0,1.22-.31,1.71,1.71,0,0,0,.77-.83l1.83.52a3.62,3.62,0,0,1-1.5,1.58A4.61,4.61,0,0,1,86.79,487.31Zm-2.19-5H89a2.34,2.34,0,0,0-.71-1.53,2.19,2.19,0,0,0-3,0A2.27,2.27,0,0,0,84.6,482.28Z"/><path class="cls-1" d="M100.67,487.15H98.53v-4.7c0-1.3-.44-1.94-1.33-1.94a2.11,2.11,0,0,0-1.3.5,2.52,2.52,0,0,0-.88,1.24v4.9H92.88v-8.38h1.94v1.55a3.21,3.21,0,0,1,1.35-1.25,4.31,4.31,0,0,1,2-.45,2.68,2.68,0,0,1,1.06.19,1.89,1.89,0,0,1,.73.5,2.13,2.13,0,0,1,.44.75,3.58,3.58,0,0,1,.23.88,7.37,7.37,0,0,1,.06,1Z"/><path class="cls-1" d="M107.91,486.72a5.84,5.84,0,0,1-2.36.57,2.86,2.86,0,0,1-.85-.12,2.09,2.09,0,0,1-.68-.35,1.52,1.52,0,0,1-.48-.65,2.29,2.29,0,0,1-.17-.94v-4.81h-1.1v-1.65h1.1v-2.72h2.15v2.72h1.75v1.65h-1.75v4.09c0,.55.28.82.79.82a3.08,3.08,0,0,0,1.17-.31Z"/><path class="cls-1" d="M167.52,439.79h2.24l4.17,11.36h-2.27l-1-2.83h-4l-1,2.83h-2.27Zm2.69,7-1.57-4.69L167,446.77Z"/><path class="cls-1" d="M183.16,451.15H181v-4.7c0-1.3-.44-1.94-1.33-1.94a2.13,2.13,0,0,0-1.3.5,2.52,2.52,0,0,0-.88,1.24v4.9h-2.14v-8.38h1.94v1.55a3.24,3.24,0,0,1,1.36-1.25,4.29,4.29,0,0,1,2-.45,2.73,2.73,0,0,1,1.07.19,2.06,2.06,0,0,1,.73.5,2.29,2.29,0,0,1,.44.75,3.55,3.55,0,0,1,.22.88,7.32,7.32,0,0,1,.06,1Z"/><path class="cls-1" d="M189.13,447a4.6,4.6,0,0,1,1.18-3.05,3.9,3.9,0,0,1,1.4-.95,4.59,4.59,0,0,1,1.83-.35,4.47,4.47,0,0,1,2.33.6,4,4,0,0,1,1.53,1.59,4.48,4.48,0,0,1,.52,2.16,4.56,4.56,0,0,1-.3,1.65,4.08,4.08,0,0,1-.86,1.38,3.82,3.82,0,0,1-1.38.95,4.88,4.88,0,0,1-3.35.12,3.91,3.91,0,0,1-1.22-.63,4.56,4.56,0,0,1-.91-.95,4,4,0,0,1-.57-1.19A4.56,4.56,0,0,1,189.13,447Zm4.41,2.51a2,2,0,0,0,1.56-.71,2.67,2.67,0,0,0,.63-1.82,2.59,2.59,0,0,0-.63-1.79,2,2,0,0,0-1.56-.71,2,2,0,0,0-1.56.71,2.92,2.92,0,0,0,0,3.61A2,2,0,0,0,193.54,449.48Z"/><path class="cls-1" d="M201.73,451.15l-3.09-8.38h2.22L203,449.2l2.14-6.43h2l-3.07,8.38Z"/><path class="cls-1" d="M212.27,451.31a4.58,4.58,0,0,1-2.34-.6,4,4,0,0,1-1.55-1.56,4.46,4.46,0,0,1-.53-2.14,4.6,4.6,0,0,1,.53-2.19,4,4,0,0,1,1.55-1.6,4.95,4.95,0,0,1,4.19-.25,3.91,3.91,0,0,1,1.38.95,4.21,4.21,0,0,1,.85,1.37,4.49,4.49,0,0,1,.3,1.63,4.67,4.67,0,0,1,0,.72h-6.49a2.18,2.18,0,0,0,.72,1.53,2.2,2.2,0,0,0,1.51.57,2.42,2.42,0,0,0,1.21-.31,1.62,1.62,0,0,0,.77-.83l1.84.52a3.62,3.62,0,0,1-1.5,1.58A4.73,4.73,0,0,1,212.27,451.31Zm-2.19-5h4.38a2.34,2.34,0,0,0-.71-1.53,2.13,2.13,0,0,0-1.5-.58,2.09,2.09,0,0,0-1.48.59A2.27,2.27,0,0,0,210.08,446.28Z"/><path class="cls-1" d="M223.35,444.62a4.07,4.07,0,0,0-1.76.39,2.27,2.27,0,0,0-1.09,1.07v5.07h-2.14v-8.38h2v1.79a3.72,3.72,0,0,1,1.13-1.36,2.6,2.6,0,0,1,1.46-.54h.43Z"/><path class="cls-1" d="M224.32,448.67a2.34,2.34,0,0,1,1-2,4.22,4.22,0,0,1,2.6-.75,5.4,5.4,0,0,1,2,.33v-.44a1.58,1.58,0,0,0-.48-1.24,2,2,0,0,0-1.4-.43,3.67,3.67,0,0,0-1.28.23,6.83,6.83,0,0,0-1.33.72l-.7-1.41a6.37,6.37,0,0,1,3.54-1.09,4,4,0,0,1,2.79.9,3.25,3.25,0,0,1,1,2.56v2.67a.78.78,0,0,0,.12.49.53.53,0,0,0,.39.17v1.74a4.94,4.94,0,0,1-.91.11,1.52,1.52,0,0,1-1-.27,1.2,1.2,0,0,1-.42-.72l0-.43a3.71,3.71,0,0,1-1.36,1.08,3.82,3.82,0,0,1-1.67.39,3,3,0,0,1-2.08-.75A2.45,2.45,0,0,1,224.32,448.67Zm5.22.43a1.12,1.12,0,0,0,.4-.73v-.85a4.31,4.31,0,0,0-1.68-.34,2.44,2.44,0,0,0-1.38.36,1.12,1.12,0,0,0-.53.95,1.16,1.16,0,0,0,.41.88,1.52,1.52,0,0,0,1.08.37,2.79,2.79,0,0,0,.94-.17A2.39,2.39,0,0,0,229.54,449.1Z"/><path class="cls-1" d="M234.46,439.47h2.14v9a1.22,1.22,0,0,0,.18.77.67.67,0,0,0,.54.21,2.4,2.4,0,0,0,1-.23l.29,1.63a4.61,4.61,0,0,1-1,.32,5.88,5.88,0,0,1-1.06.11,2.13,2.13,0,0,1-1.55-.54,2,2,0,0,1-.56-1.52Z"/><path class="cls-1" d="M239.93,439.47h2.14v9a1.22,1.22,0,0,0,.18.77.67.67,0,0,0,.54.21,2.4,2.4,0,0,0,1-.23l.29,1.63a4.61,4.61,0,0,1-1,.32,5.88,5.88,0,0,1-1.06.11,2.13,2.13,0,0,1-1.55-.54,2,2,0,0,1-.56-1.52Z"/><path class="cls-1" d="M249.21,439.47h2.14v9a1.22,1.22,0,0,0,.18.77.67.67,0,0,0,.54.21,2.44,2.44,0,0,0,1-.23l.29,1.63a4.9,4.9,0,0,1-1,.32,5.86,5.86,0,0,1-1.05.11,2.14,2.14,0,0,1-1.56-.54,2,2,0,0,1-.55-1.52Z"/><path class="cls-1" d="M254.12,448.67a2.34,2.34,0,0,1,1-2,4.2,4.2,0,0,1,2.6-.75,5.35,5.35,0,0,1,2,.33v-.44a1.58,1.58,0,0,0-.47-1.24,2,2,0,0,0-1.4-.43,3.63,3.63,0,0,0-1.28.23,6.88,6.88,0,0,0-1.34.72l-.69-1.41a6.37,6.37,0,0,1,3.54-1.09,4,4,0,0,1,2.79.9,3.28,3.28,0,0,1,1,2.56v2.67a.79.79,0,0,0,.11.49.55.55,0,0,0,.4.17v1.74a4.94,4.94,0,0,1-.91.11,1.52,1.52,0,0,1-1-.27,1.11,1.11,0,0,1-.42-.72l-.05-.43a3.68,3.68,0,0,1-1.35,1.08,3.82,3.82,0,0,1-1.67.39,3,3,0,0,1-2.08-.75A2.42,2.42,0,0,1,254.12,448.67Zm5.22.43a1.1,1.1,0,0,0,.39-.73v-.85a4.24,4.24,0,0,0-1.68-.34,2.38,2.38,0,0,0-1.37.36,1.12,1.12,0,0,0-.53.95,1.15,1.15,0,0,0,.4.88,1.57,1.57,0,0,0,1.09.37,2.69,2.69,0,0,0,.93-.17A2.44,2.44,0,0,0,259.34,449.1Z"/><path class="cls-1" d="M268.18,451.31a4.6,4.6,0,0,1-1.83-.36,4,4,0,0,1-1.41-.95,4.27,4.27,0,0,1-.88-1.39,4.56,4.56,0,0,1,.21-3.81,4.05,4.05,0,0,1,1.55-1.58,4.54,4.54,0,0,1,2.35-.6,4.45,4.45,0,0,1,2.31.58,3.67,3.67,0,0,1,1.48,1.57l-2.1.64a1.89,1.89,0,0,0-.72-.71,2,2,0,0,0-1-.25,2,2,0,0,0-1.57.7A2.64,2.64,0,0,0,266,447a2.6,2.6,0,0,0,.64,1.81,2,2,0,0,0,1.55.72,2.08,2.08,0,0,0,1.06-.28,1.55,1.55,0,0,0,.68-.71l2.1.64a3.52,3.52,0,0,1-1.46,1.58A4.49,4.49,0,0,1,268.18,451.31Z"/><path class="cls-1" d="M279.43,451.15,277,447.53l-1.14,1.13v2.49H273.7V439.47h2.14v7.07l3.37-3.76h2.28l-3.12,3.56,3.34,4.81Z"/><path class="cls-1" d="M158,465a4.47,4.47,0,0,1,1.18-3.05,3.86,3.86,0,0,1,1.39-.95,4.59,4.59,0,0,1,1.83-.35,4.53,4.53,0,0,1,2.34.6,4.16,4.16,0,0,1,1.53,1.59,4.6,4.6,0,0,1,.52,2.16,4.36,4.36,0,0,1-.31,1.65,4.21,4.21,0,0,1-.85,1.38,3.86,3.86,0,0,1-1.39.95,4.85,4.85,0,0,1-3.34.12,4,4,0,0,1-1.23-.63,4.56,4.56,0,0,1-.91-.95,4.22,4.22,0,0,1-.57-1.19A4.55,4.55,0,0,1,158,465Zm4.4,2.51a2,2,0,0,0,1.56-.71,2.67,2.67,0,0,0,.63-1.82,2.59,2.59,0,0,0-.63-1.79,2,2,0,0,0-1.56-.71,2,2,0,0,0-1.56.71,2.66,2.66,0,0,0-.63,1.81,2.6,2.6,0,0,0,.63,1.8A2,2,0,0,0,162.41,467.48Z"/><path class="cls-1" d="M169.06,469.15v-6.31H168v-1.63h1.1v-.51a3.74,3.74,0,0,1,.77-2.47,2.47,2.47,0,0,1,2-.92,4.65,4.65,0,0,1,2.06.5l-.43,1.61a2.37,2.37,0,0,0-1.17-.3,1,1,0,0,0-.83.38,1.87,1.87,0,0,0-.29,1.12v.59h2v1.63h-2v6.31Z"/><path class="cls-1" d="M191.79,469.15h-2.14v-4.7a2.58,2.58,0,0,0-.33-1.46,1.12,1.12,0,0,0-1-.48,1.77,1.77,0,0,0-1.2.49,2.74,2.74,0,0,0-.8,1.27v4.88h-2.15v-4.7c0-1.3-.43-1.94-1.3-1.94a1.84,1.84,0,0,0-1.2.48,2.63,2.63,0,0,0-.8,1.26v4.9h-2.14v-8.38h1.94v1.55a3.3,3.3,0,0,1,1.28-1.26,3.79,3.79,0,0,1,1.84-.44,2.42,2.42,0,0,1,1.59.49,2.21,2.21,0,0,1,.77,1.29,3.66,3.66,0,0,1,1.3-1.32,3.48,3.48,0,0,1,1.79-.46c1.68,0,2.51,1.1,2.51,3.29Z"/><path class="cls-1" d="M198,469.31a4.52,4.52,0,0,1-2.33-.6,4,4,0,0,1-1.56-1.56,4.46,4.46,0,0,1-.53-2.14,4.6,4.6,0,0,1,.53-2.19,4,4,0,0,1,1.56-1.6,4.93,4.93,0,0,1,4.18-.25,3.82,3.82,0,0,1,1.38.95,4.21,4.21,0,0,1,.85,1.37,4.49,4.49,0,0,1,.3,1.63,4.67,4.67,0,0,1,0,.72H195.8a2.2,2.2,0,0,0,2.23,2.1,2.49,2.49,0,0,0,1.22-.31,1.64,1.64,0,0,0,.76-.83l1.84.52a3.62,3.62,0,0,1-1.5,1.58A4.7,4.7,0,0,1,198,469.31Zm-2.19-5h4.38a2.34,2.34,0,0,0-.71-1.53,2.13,2.13,0,0,0-1.49-.58,2.09,2.09,0,0,0-1.49.59A2.27,2.27,0,0,0,195.76,464.28Z"/><path class="cls-1" d="M203.52,465a4.94,4.94,0,0,1,.48-2.18,3.75,3.75,0,0,1,1.34-1.57,3.37,3.37,0,0,1,1.93-.58,3.23,3.23,0,0,1,1.65.44,3.31,3.31,0,0,1,1.18,1.17v-4.76h2.15v9.28a.86.86,0,0,0,.11.49.51.51,0,0,0,.38.17v1.74a5.14,5.14,0,0,1-.91.11,1.53,1.53,0,0,1-1-.29,1,1,0,0,1-.43-.75l0-.52a3.09,3.09,0,0,1-1.24,1.19,3.51,3.51,0,0,1-1.67.42,3.83,3.83,0,0,1-2.06-.58,4,4,0,0,1-1.42-1.58A4.72,4.72,0,0,1,203.52,465Zm6.58,1.13v-2a2.66,2.66,0,0,0-.89-1.17,2.06,2.06,0,0,0-1.26-.46,1.93,1.93,0,0,0-1.57.76,2.74,2.74,0,0,0-.63,1.8,2.5,2.5,0,0,0,.66,1.76,2.19,2.19,0,0,0,2.88.31A2,2,0,0,0,210.1,466.08Z"/><path class="cls-1" d="M214.75,459.59v-2.12h2.14v2.12Zm0,9.56v-8.38h2.14v8.38Z"/><path class="cls-1" d="M218.65,466.67a2.34,2.34,0,0,1,1-2,4.24,4.24,0,0,1,2.6-.75,5.4,5.4,0,0,1,2,.33v-.44a1.61,1.61,0,0,0-.47-1.24,2.08,2.08,0,0,0-1.41-.43,3.71,3.71,0,0,0-1.28.23,6.83,6.83,0,0,0-1.33.72l-.7-1.41a6.37,6.37,0,0,1,3.54-1.09,4,4,0,0,1,2.79.9,3.25,3.25,0,0,1,1,2.56v2.67a.78.78,0,0,0,.12.49.53.53,0,0,0,.39.17v1.74a4.84,4.84,0,0,1-.91.11,1.52,1.52,0,0,1-1-.27,1.14,1.14,0,0,1-.41-.72l0-.43a3.71,3.71,0,0,1-1.36,1.08,3.81,3.81,0,0,1-1.66.39,3,3,0,0,1-2.09-.75A2.45,2.45,0,0,1,218.65,466.67Zm5.22.43a1.08,1.08,0,0,0,.4-.73v-.85a4.31,4.31,0,0,0-1.68-.34,2.44,2.44,0,0,0-1.38.36,1.12,1.12,0,0,0-.53.95,1.16,1.16,0,0,0,.41.88,1.52,1.52,0,0,0,1.08.37,2.79,2.79,0,0,0,.94-.17A2.39,2.39,0,0,0,223.87,467.1Z"/><path class="cls-1" d="M233,467.13a5.12,5.12,0,0,1-.46-2.19,4.71,4.71,0,0,1,.51-2.19,4,4,0,0,1,1.41-1.56,3.67,3.67,0,0,1,2-.57,3.28,3.28,0,0,1,1.68.43,3.41,3.41,0,0,1,1.22,1.17v-1.45h1.87v11.79h-2.15v-4.88a3.17,3.17,0,0,1-1.2,1.21,3.33,3.33,0,0,1-1.68.42,3.23,3.23,0,0,1-1.89-.59A3.88,3.88,0,0,1,233,467.13Zm6.08-1v-2a2.23,2.23,0,0,0-.8-1.2,2.12,2.12,0,0,0-1.31-.48,2,2,0,0,0-1.6.76,2.7,2.7,0,0,0-.64,1.8,2.51,2.51,0,0,0,.64,1.76,2.07,2.07,0,0,0,1.63.71A2.36,2.36,0,0,0,239.09,466.11Z"/><path class="cls-1" d="M243.51,466v-5.25h2.14v4.78c0,1.29.46,1.93,1.39,1.93a2.18,2.18,0,0,0,1.23-.39,2.78,2.78,0,0,0,.93-1.13v-5.19h2.14v6a.78.78,0,0,0,.12.49.55.55,0,0,0,.4.17v1.74a5.39,5.39,0,0,1-.93.09A1.52,1.52,0,0,1,250,469a1,1,0,0,1-.42-.73l0-.67a3.55,3.55,0,0,1-1.43,1.29,4.29,4.29,0,0,1-1.94.44,2.37,2.37,0,0,1-2-.84A3.85,3.85,0,0,1,243.51,466Z"/><path class="cls-1" d="M253.29,466.67a2.34,2.34,0,0,1,1-2,4.22,4.22,0,0,1,2.6-.75,5.4,5.4,0,0,1,2,.33v-.44a1.61,1.61,0,0,0-.47-1.24,2.08,2.08,0,0,0-1.41-.43,3.67,3.67,0,0,0-1.28.23,6.83,6.83,0,0,0-1.33.72l-.7-1.41a6.37,6.37,0,0,1,3.54-1.09,4,4,0,0,1,2.79.9,3.25,3.25,0,0,1,1,2.56v2.67a.78.78,0,0,0,.12.49.53.53,0,0,0,.39.17v1.74a4.84,4.84,0,0,1-.91.11,1.52,1.52,0,0,1-1-.27,1.14,1.14,0,0,1-.41-.72l0-.43a3.71,3.71,0,0,1-1.36,1.08,3.81,3.81,0,0,1-1.66.39,3,3,0,0,1-2.09-.75A2.45,2.45,0,0,1,253.29,466.67Zm5.22.43a1.08,1.08,0,0,0,.4-.73v-.85a4.31,4.31,0,0,0-1.68-.34,2.44,2.44,0,0,0-1.38.36,1.12,1.12,0,0,0-.53.95,1.16,1.16,0,0,0,.41.88,1.52,1.52,0,0,0,1.08.37,2.79,2.79,0,0,0,.94-.17A2.39,2.39,0,0,0,258.51,467.1Z"/><path class="cls-1" d="M263.43,457.47h2.14v9a1.22,1.22,0,0,0,.18.77.67.67,0,0,0,.54.21,2.4,2.4,0,0,0,1-.23l.29,1.63a4.61,4.61,0,0,1-1,.32,5.88,5.88,0,0,1-1.06.11,2.13,2.13,0,0,1-1.55-.54,2,2,0,0,1-.56-1.52Z"/><path class="cls-1" d="M268.92,459.59v-2.12h2.14v2.12Zm0,9.56v-8.38h2.14v8.38Z"/><path class="cls-1" d="M278.42,468.72a5.84,5.84,0,0,1-2.37.57,2.8,2.8,0,0,1-.84-.12,2.14,2.14,0,0,1-.69-.35,1.59,1.59,0,0,1-.47-.65,2.28,2.28,0,0,1-.18-.94v-4.82h-1.1v-1.64h1.1v-2.72H276v2.72h1.76v1.64H276v4.1c0,.55.28.82.8.82A3.08,3.08,0,0,0,278,467Z"/><path class="cls-1" d="M280.08,470.78a3.79,3.79,0,0,0,1,.16.83.83,0,0,0,.71-.37,5.42,5.42,0,0,0,.59-1.42L279,460.77h2.23l2.26,6.18,2-6.18h2.05l-3.52,10a2.86,2.86,0,0,1-1.06,1.45,3,3,0,0,1-1.8.55,3.4,3.4,0,0,1-1.08-.18Z"/><path class="cls-1" d="M175.79,486.72a5.92,5.92,0,0,1-2.37.57,2.75,2.75,0,0,1-.84-.12,2,2,0,0,1-.69-.35,1.7,1.7,0,0,1-.48-.65,2.46,2.46,0,0,1-.17-.94v-4.82h-1.1v-1.64h1.1v-2.72h2.15v2.72h1.76v1.64h-1.76v4.1c0,.55.28.82.8.82a3.08,3.08,0,0,0,1.17-.31Z"/><path class="cls-1" d="M182.3,480.62a4,4,0,0,0-1.76.39,2.27,2.27,0,0,0-1.09,1.07v5.07h-2.14v-8.38h2v1.79a3.84,3.84,0,0,1,1.14-1.36,2.6,2.6,0,0,1,1.46-.54h.43Z"/><path class="cls-1" d="M183.27,484.67a2.34,2.34,0,0,1,1-2,4.2,4.2,0,0,1,2.6-.75,5.35,5.35,0,0,1,2,.33v-.44a1.58,1.58,0,0,0-.47-1.24,2,2,0,0,0-1.4-.43,3.63,3.63,0,0,0-1.28.23,6.88,6.88,0,0,0-1.34.72l-.69-1.41a6.37,6.37,0,0,1,3.54-1.09,4,4,0,0,1,2.79.9,3.28,3.28,0,0,1,1,2.56v2.67a.79.79,0,0,0,.11.49.55.55,0,0,0,.4.17v1.74a4.94,4.94,0,0,1-.91.11,1.52,1.52,0,0,1-1-.27,1.11,1.11,0,0,1-.42-.72l0-.43a3.94,3.94,0,0,1-3,1.47,3,3,0,0,1-2.08-.75A2.42,2.42,0,0,1,183.27,484.67Zm5.22.43a1.1,1.1,0,0,0,.39-.73v-.85a4.23,4.23,0,0,0-1.67-.34,2.4,2.4,0,0,0-1.38.36,1.13,1.13,0,0,0-.12,1.83,1.52,1.52,0,0,0,1.08.37,2.69,2.69,0,0,0,.93-.17A2.44,2.44,0,0,0,188.49,485.1Z"/><path class="cls-1" d="M201.21,487.15h-2.14v-4.7c0-1.3-.44-1.94-1.32-1.94a2.13,2.13,0,0,0-1.31.5,2.44,2.44,0,0,0-.87,1.24v4.9h-2.14v-8.38h1.93v1.55a3.3,3.3,0,0,1,1.36-1.25,4.29,4.29,0,0,1,2-.45,2.73,2.73,0,0,1,1.07.19,2,2,0,0,1,.73.5,2.29,2.29,0,0,1,.44.75,4.08,4.08,0,0,1,.23.88,7.39,7.39,0,0,1,.05,1Z"/><path class="cls-1" d="M206.57,487.31a5.87,5.87,0,0,1-2.06-.36,4.59,4.59,0,0,1-1.67-1l.77-1.39a4.66,4.66,0,0,0,2.88,1.19,1.9,1.9,0,0,0,1-.23.74.74,0,0,0,.38-.67,1,1,0,0,0,0-.18.48.48,0,0,0-.08-.16l-.11-.13a.61.61,0,0,0-.16-.11l-.2-.09-.25-.1-.27-.08-.32-.1-.35-.1c-.41-.13-.75-.25-1-.35a6.82,6.82,0,0,1-.77-.37,2,2,0,0,1-.58-.45,1.68,1.68,0,0,1-.33-.55,2.07,2.07,0,0,1-.12-.73,2.37,2.37,0,0,1,.93-2,3.87,3.87,0,0,1,2.47-.74,4.42,4.42,0,0,1,3.15,1.19l-.87,1.36a4,4,0,0,0-2.38-1,1.94,1.94,0,0,0-.93.2.7.7,0,0,0-.37.67.66.66,0,0,0,.33.61,5.47,5.47,0,0,0,1.2.44c.46.14.83.25,1.1.35a7.31,7.31,0,0,1,.84.36,2.22,2.22,0,0,1,.65.46,2,2,0,0,1,.37.58,2.16,2.16,0,0,1,.14.8,2.34,2.34,0,0,1-.91,1.94A3.92,3.92,0,0,1,206.57,487.31Z"/><path class="cls-1" d="M213.92,485.68v4.88h-2.14V478.77h1.88v1.43a3.28,3.28,0,0,1,1.21-1.16,3.38,3.38,0,0,1,1.68-.42,3.6,3.6,0,0,1,2,.58,3.92,3.92,0,0,1,1.41,1.58,4.65,4.65,0,0,1,.51,2.16,5.18,5.18,0,0,1-.47,2.21,3.85,3.85,0,0,1-1.31,1.58,3.32,3.32,0,0,1-1.89.58,3.38,3.38,0,0,1-1.7-.43A3.16,3.16,0,0,1,213.92,485.68Zm4.35-2.74a2.53,2.53,0,0,0-.66-1.78,2.19,2.19,0,0,0-1.66-.71,2.16,2.16,0,0,0-1.22.4,2,2,0,0,0-.81,1v2a2.78,2.78,0,0,0,.89,1.19,2,2,0,0,0,1.27.47,2,2,0,0,0,1.57-.75A2.71,2.71,0,0,0,218.27,482.94Z"/><path class="cls-1" d="M221.74,484.67a2.37,2.37,0,0,1,1-2,4.24,4.24,0,0,1,2.6-.75,5.37,5.37,0,0,1,2,.33v-.44a1.61,1.61,0,0,0-.47-1.24,2.07,2.07,0,0,0-1.4-.43,3.73,3.73,0,0,0-1.29.23,6.83,6.83,0,0,0-1.33.72l-.7-1.41a6.37,6.37,0,0,1,3.54-1.09,4,4,0,0,1,2.79.9,3.25,3.25,0,0,1,1,2.56v2.67a.78.78,0,0,0,.12.49.55.55,0,0,0,.4.17v1.74a5,5,0,0,1-.92.11,1.47,1.47,0,0,1-.95-.27,1.11,1.11,0,0,1-.42-.72l0-.43a3.76,3.76,0,0,1-1.35,1.08,3.88,3.88,0,0,1-1.67.39,3,3,0,0,1-2.09-.75A2.45,2.45,0,0,1,221.74,484.67Zm5.22.43a1.08,1.08,0,0,0,.4-.73v-.85a4.31,4.31,0,0,0-1.68-.34,2.38,2.38,0,0,0-1.37.36,1.11,1.11,0,0,0-.54.95,1.16,1.16,0,0,0,.41.88,1.53,1.53,0,0,0,1.09.37,2.73,2.73,0,0,0,.93-.17A2.39,2.39,0,0,0,227,485.1Z"/><path class="cls-1" d="M236.89,480.62a4.1,4.1,0,0,0-1.76.39,2.27,2.27,0,0,0-1.09,1.07v5.07H231.9v-8.38h2v1.79A3.74,3.74,0,0,1,235,479.2a2.57,2.57,0,0,1,1.45-.54h.43Z"/><path class="cls-1" d="M242.27,487.31a4.55,4.55,0,0,1-2.34-.6,4,4,0,0,1-1.55-1.56,4.35,4.35,0,0,1-.53-2.14,4.49,4.49,0,0,1,.53-2.19,4,4,0,0,1,1.55-1.6,4.95,4.95,0,0,1,4.19-.25,3.91,3.91,0,0,1,1.38.95,4.21,4.21,0,0,1,.85,1.37,4.49,4.49,0,0,1,.3,1.63,4.67,4.67,0,0,1,0,.72h-6.49a2.18,2.18,0,0,0,.72,1.53,2.2,2.2,0,0,0,1.51.57,2.45,2.45,0,0,0,1.21-.31,1.62,1.62,0,0,0,.77-.83l1.84.52a3.64,3.64,0,0,1-1.51,1.58A4.67,4.67,0,0,1,242.27,487.31Zm-2.2-5h4.39a2.39,2.39,0,0,0-.71-1.53,2.13,2.13,0,0,0-1.5-.58,2.09,2.09,0,0,0-1.48.59A2.33,2.33,0,0,0,240.07,482.28Z"/><path class="cls-1" d="M256.15,487.15H254v-4.7c0-1.3-.45-1.94-1.33-1.94a2.13,2.13,0,0,0-1.31.5,2.5,2.5,0,0,0-.87,1.24v4.9h-2.14v-8.38h1.93v1.55a3.3,3.3,0,0,1,1.36-1.25,4.29,4.29,0,0,1,2-.45,2.73,2.73,0,0,1,1.07.19,2,2,0,0,1,.73.5,2.29,2.29,0,0,1,.44.75,4.08,4.08,0,0,1,.23.88,7.32,7.32,0,0,1,.06,1Z"/><path class="cls-1" d="M262.32,487.31a4.68,4.68,0,0,1-1.84-.36,4,4,0,0,1-1.4-.95,4.27,4.27,0,0,1-.88-1.39,4.56,4.56,0,0,1,.21-3.81,4.05,4.05,0,0,1,1.55-1.58,4.53,4.53,0,0,1,2.34-.6,4.47,4.47,0,0,1,2.32.58,3.65,3.65,0,0,1,1.47,1.57l-2.09.64a1.89,1.89,0,0,0-.72-.71,2,2,0,0,0-1-.25,2,2,0,0,0-1.57.7,2.6,2.6,0,0,0-.63,1.8,2.65,2.65,0,0,0,.64,1.81,2,2,0,0,0,1.56.72,2.08,2.08,0,0,0,1.06-.28,1.55,1.55,0,0,0,.68-.71l2.09.64a3.5,3.5,0,0,1-1.45,1.58A4.51,4.51,0,0,1,262.32,487.31Z"/><path class="cls-1" d="M267.85,488.78a3.93,3.93,0,0,0,1,.16.83.83,0,0,0,.71-.37,5.09,5.09,0,0,0,.59-1.42l-3.31-8.38H269l2.26,6.18,2-6.18h2l-3.52,10a2.9,2.9,0,0,1-1.05,1.45,3,3,0,0,1-1.81.55,3.49,3.49,0,0,1-1.08-.18Z"/><path class="cls-1" d="M347,451.15V439.79h7.63v1.94h-5.43v2.93h4.52v1.79h-4.52v4.7Z"/><path class="cls-1" d="M361,444.62a4,4,0,0,0-1.76.39,2.23,2.23,0,0,0-1.09,1.07v5.07H356v-8.38h2v1.79a3.84,3.84,0,0,1,1.14-1.36,2.6,2.6,0,0,1,1.46-.54H361Z"/><path class="cls-1" d="M361.94,448.67a2.34,2.34,0,0,1,1-2,4.2,4.2,0,0,1,2.6-.75,5.44,5.44,0,0,1,2,.33v-.44a1.58,1.58,0,0,0-.48-1.24,2,2,0,0,0-1.4-.43,3.67,3.67,0,0,0-1.28.23,6.88,6.88,0,0,0-1.34.72l-.69-1.41a6.37,6.37,0,0,1,3.54-1.09,4,4,0,0,1,2.79.9,3.28,3.28,0,0,1,1,2.56v2.67a.86.86,0,0,0,.11.49.55.55,0,0,0,.4.17v1.74a4.94,4.94,0,0,1-.91.11,1.52,1.52,0,0,1-1-.27,1.11,1.11,0,0,1-.42-.72l0-.43a3.94,3.94,0,0,1-3,1.47,3,3,0,0,1-2.08-.75A2.42,2.42,0,0,1,361.94,448.67Zm5.22.43a1.12,1.12,0,0,0,.4-.73v-.85a4.31,4.31,0,0,0-1.68-.34,2.4,2.4,0,0,0-1.38.36,1.13,1.13,0,0,0-.12,1.83,1.52,1.52,0,0,0,1.08.37,2.79,2.79,0,0,0,.94-.17A2.51,2.51,0,0,0,367.16,449.1Z"/><path class="cls-1" d="M372,448v-5.25h2.14v4.78c0,1.29.46,1.93,1.39,1.93a2.18,2.18,0,0,0,1.23-.39,2.78,2.78,0,0,0,.93-1.13v-5.19h2.14v6a.78.78,0,0,0,.12.49.55.55,0,0,0,.4.17v1.74a5.39,5.39,0,0,1-.93.09,1.52,1.52,0,0,1-.94-.26,1,1,0,0,1-.42-.73l-.05-.67a3.55,3.55,0,0,1-1.43,1.29,4.29,4.29,0,0,1-1.94.44,2.37,2.37,0,0,1-2-.84A3.85,3.85,0,0,1,372,448Z"/><path class="cls-1" d="M381.86,447a4.94,4.94,0,0,1,.48-2.18,3.75,3.75,0,0,1,1.34-1.57,3.35,3.35,0,0,1,1.93-.58,3.23,3.23,0,0,1,1.65.44,3.39,3.39,0,0,1,1.18,1.17v-4.76h2.15v9.28a.86.86,0,0,0,.11.49.51.51,0,0,0,.38.17v1.74a5.14,5.14,0,0,1-.91.11,1.53,1.53,0,0,1-.95-.29,1,1,0,0,1-.43-.75l0-.52a3.09,3.09,0,0,1-1.24,1.19,3.51,3.51,0,0,1-1.67.42,3.83,3.83,0,0,1-2.06-.58,4,4,0,0,1-1.42-1.58A4.72,4.72,0,0,1,381.86,447Zm6.58,1.13v-2a2.66,2.66,0,0,0-.89-1.17,2.06,2.06,0,0,0-1.26-.46,2,2,0,0,0-1.58.76,2.79,2.79,0,0,0-.62,1.8,2.5,2.5,0,0,0,.66,1.76,2.19,2.19,0,0,0,2.88.31A2,2,0,0,0,388.44,448.08Z"/><path class="cls-1" d="M393,448v-5.25h2.14v4.78c0,1.29.47,1.93,1.39,1.93a2.14,2.14,0,0,0,1.23-.39,2.72,2.72,0,0,0,.94-1.13v-5.19h2.14v6a.78.78,0,0,0,.12.49.54.54,0,0,0,.4.17v1.74a5.58,5.58,0,0,1-.93.09,1.57,1.57,0,0,1-.95-.26,1,1,0,0,1-.41-.73l-.05-.67a3.61,3.61,0,0,1-1.43,1.29,4.3,4.3,0,0,1-2,.44,2.35,2.35,0,0,1-2-.84A3.84,3.84,0,0,1,393,448Z"/><path class="cls-1" d="M403.36,439.47h2.14v9a1.22,1.22,0,0,0,.18.77.67.67,0,0,0,.54.21,2.44,2.44,0,0,0,1-.23l.28,1.63a4.61,4.61,0,0,1-1,.32,5.86,5.86,0,0,1-1,.11,2.14,2.14,0,0,1-1.56-.54,2,2,0,0,1-.55-1.52Z"/><path class="cls-1" d="M412.74,451.31a4.53,4.53,0,0,1-2.34-.6,4.1,4.1,0,0,1-1.56-1.56,4.46,4.46,0,0,1-.53-2.14,4.6,4.6,0,0,1,.53-2.19,4.06,4.06,0,0,1,1.56-1.6,4.93,4.93,0,0,1,4.18-.25,3.86,3.86,0,0,1,1.39.95,4.39,4.39,0,0,1,.85,1.37,4.75,4.75,0,0,1,.25,2.35h-6.48a2.2,2.2,0,0,0,2.22,2.1,2.46,2.46,0,0,0,1.22-.31,1.66,1.66,0,0,0,.77-.83l1.83.52a3.62,3.62,0,0,1-1.5,1.58A4.69,4.69,0,0,1,412.74,451.31Zm-2.2-5h4.38a2.38,2.38,0,0,0-.7-1.53,2.13,2.13,0,0,0-1.5-.58,2.07,2.07,0,0,0-1.48.59A2.24,2.24,0,0,0,410.54,446.28Z"/><path class="cls-1" d="M426.61,451.15h-2.14v-4.7c0-1.3-.44-1.94-1.33-1.94a2.13,2.13,0,0,0-1.3.5,2.52,2.52,0,0,0-.88,1.24v4.9h-2.14v-8.38h1.94v1.55a3.18,3.18,0,0,1,1.36-1.25,4.26,4.26,0,0,1,2-.45,2.73,2.73,0,0,1,1.07.19,2.06,2.06,0,0,1,.73.5,2.48,2.48,0,0,1,.44.75,4.05,4.05,0,0,1,.22.88,7.32,7.32,0,0,1,.06,1Z"/><path class="cls-1" d="M433.86,450.72a5.92,5.92,0,0,1-2.37.57,2.86,2.86,0,0,1-.85-.12,2.09,2.09,0,0,1-.68-.35,1.52,1.52,0,0,1-.48-.65,2.46,2.46,0,0,1-.17-.94v-4.82h-1.1v-1.64h1.1v-2.72h2.15v2.72h1.75v1.64h-1.75v4.1c0,.55.28.82.79.82a3.08,3.08,0,0,0,1.18-.31Z"/><path class="cls-1" d="M343,459.59v-2.12h2.14v2.12Zm0,9.56v-8.38h2.14v8.38Z"/><path class="cls-1" d="M360.45,469.15h-2.14v-4.7A2.58,2.58,0,0,0,358,463a1.09,1.09,0,0,0-1-.48,1.77,1.77,0,0,0-1.2.49,2.74,2.74,0,0,0-.8,1.27v4.88h-2.15v-4.7c0-1.3-.43-1.94-1.3-1.94a1.8,1.8,0,0,0-1.19.48,2.65,2.65,0,0,0-.81,1.26v4.9h-2.14v-8.38h1.94v1.55a3.3,3.3,0,0,1,1.28-1.26,3.82,3.82,0,0,1,1.84-.44,2.42,2.42,0,0,1,1.59.49,2.27,2.27,0,0,1,.78,1.29,3.58,3.58,0,0,1,1.3-1.32,3.42,3.42,0,0,1,1.78-.46c1.68,0,2.52,1.1,2.52,3.29Z"/><path class="cls-1" d="M364.86,467.68v4.88h-2.15V460.77h1.88v1.43a3.35,3.35,0,0,1,2.89-1.58,3.65,3.65,0,0,1,2,.58,4.07,4.07,0,0,1,1.41,1.58,4.77,4.77,0,0,1,.5,2.16,5,5,0,0,1-.47,2.21,3.85,3.85,0,0,1-1.31,1.58,3.29,3.29,0,0,1-1.88.58,3.44,3.44,0,0,1-1.71-.43A3.07,3.07,0,0,1,364.86,467.68Zm4.35-2.74a2.49,2.49,0,0,0-.67-1.78,2.19,2.19,0,0,0-2.88-.31,2,2,0,0,0-.8,1v2a2.7,2.7,0,0,0,.89,1.19,2,2,0,0,0,2.84-.28A2.76,2.76,0,0,0,369.21,464.94Z"/><path class="cls-1" d="M378.25,462.62a4,4,0,0,0-1.76.39,2.27,2.27,0,0,0-1.09,1.07v5.07h-2.14v-8.38h2v1.79a3.84,3.84,0,0,1,1.14-1.36,2.6,2.6,0,0,1,1.46-.54h.43Z"/><path class="cls-1" d="M383.62,469.31a4.52,4.52,0,0,1-2.33-.6,4.1,4.1,0,0,1-1.56-1.56,4.46,4.46,0,0,1-.53-2.14,4.6,4.6,0,0,1,.53-2.19,4.06,4.06,0,0,1,1.56-1.6,4.93,4.93,0,0,1,4.18-.25,3.74,3.74,0,0,1,1.38.95,4.24,4.24,0,0,1,.86,1.37,4.75,4.75,0,0,1,.25,2.35h-6.48a2.18,2.18,0,0,0,2.22,2.1,2.49,2.49,0,0,0,1.22-.31,1.71,1.71,0,0,0,.77-.83l1.83.52a3.62,3.62,0,0,1-1.5,1.58A4.7,4.7,0,0,1,383.62,469.31Zm-2.19-5h4.38a2.34,2.34,0,0,0-.71-1.53,2.19,2.19,0,0,0-3,0A2.27,2.27,0,0,0,381.43,464.28Z"/><path class="cls-1" d="M392.8,469.31a5.87,5.87,0,0,1-2.06-.36,4.59,4.59,0,0,1-1.67-1l.77-1.39a4.66,4.66,0,0,0,2.88,1.19,1.9,1.9,0,0,0,1-.23.74.74,0,0,0,.37-.67,1,1,0,0,0,0-.18.48.48,0,0,0-.08-.16l-.11-.13a.61.61,0,0,0-.16-.11l-.2-.09-.25-.1L393,466l-.32-.1-.35-.1c-.42-.13-.75-.25-1-.35a6.82,6.82,0,0,1-.77-.37,2,2,0,0,1-.58-.45,1.68,1.68,0,0,1-.33-.55,2.07,2.07,0,0,1-.12-.73,2.37,2.37,0,0,1,.93-2,3.87,3.87,0,0,1,2.47-.74,4.42,4.42,0,0,1,3.15,1.19l-.87,1.36a4,4,0,0,0-2.38-1,1.94,1.94,0,0,0-.93.2.7.7,0,0,0-.37.67.66.66,0,0,0,.33.61,5.47,5.47,0,0,0,1.2.44c.46.14.83.25,1.1.35a7.31,7.31,0,0,1,.84.36,2.37,2.37,0,0,1,.65.46,2,2,0,0,1,.37.58,2.16,2.16,0,0,1,.14.8,2.34,2.34,0,0,1-.91,1.94A3.92,3.92,0,0,1,392.8,469.31Z"/><path class="cls-1" d="M401.1,469.31A5.93,5.93,0,0,1,399,469a4.64,4.64,0,0,1-1.66-1l.76-1.39a4.69,4.69,0,0,0,2.89,1.19,1.92,1.92,0,0,0,1-.23.74.74,0,0,0,.37-.67.52.52,0,0,0,0-.18.35.35,0,0,0-.08-.16,1.47,1.47,0,0,0-.1-.13l-.16-.11-.2-.09-.25-.1-.27-.08-.32-.1-.36-.1c-.41-.13-.74-.25-1-.35a7.76,7.76,0,0,1-.77-.37,2,2,0,0,1-.57-.45A1.68,1.68,0,0,1,398,464a2.07,2.07,0,0,1-.12-.73,2.37,2.37,0,0,1,.93-2,3.87,3.87,0,0,1,2.47-.74,4.46,4.46,0,0,1,3.15,1.19l-.87,1.36a4,4,0,0,0-2.38-1,1.94,1.94,0,0,0-.93.2.7.7,0,0,0-.37.67.66.66,0,0,0,.33.61,5.54,5.54,0,0,0,1.19.44c.47.14.83.25,1.11.35a6.52,6.52,0,0,1,.83.36,2.44,2.44,0,0,1,.66.46,1.78,1.78,0,0,1,.36.58,2,2,0,0,1,.15.8,2.32,2.32,0,0,1-.92,1.94A3.87,3.87,0,0,1,401.1,469.31Z"/><path class="cls-1" d="M406.31,459.59v-2.12h2.14v2.12Zm0,9.56v-8.38h2.14v8.38Z"/><path class="cls-1" d="M410.26,465a4.47,4.47,0,0,1,1.18-3.05,3.78,3.78,0,0,1,1.39-.95,4.59,4.59,0,0,1,1.83-.35,4.47,4.47,0,0,1,2.33.6,4.12,4.12,0,0,1,1.54,1.59,4.77,4.77,0,0,1,.21,3.81,4.08,4.08,0,0,1-.86,1.38,3.82,3.82,0,0,1-1.38.95,4.88,4.88,0,0,1-3.35.12,4,4,0,0,1-1.22-.63,4.56,4.56,0,0,1-.91-.95,4,4,0,0,1-.57-1.19A4.55,4.55,0,0,1,410.26,465Zm4.4,2.51a2,2,0,0,0,1.56-.71,2.67,2.67,0,0,0,.63-1.82,2.59,2.59,0,0,0-.63-1.79,2,2,0,0,0-1.56-.71,2,2,0,0,0-1.56.71,2.66,2.66,0,0,0-.63,1.81,2.6,2.6,0,0,0,.63,1.8A2,2,0,0,0,414.66,467.48Z"/><path class="cls-1" d="M428.67,469.15h-2.14v-4.7c0-1.3-.44-1.94-1.33-1.94a2.11,2.11,0,0,0-1.3.5,2.52,2.52,0,0,0-.88,1.24v4.9h-2.14v-8.38h1.94v1.55a3.21,3.21,0,0,1,1.35-1.25,4.33,4.33,0,0,1,2-.45,2.68,2.68,0,0,1,1.06.19,1.89,1.89,0,0,1,.73.5,2.3,2.3,0,0,1,.45.75,4.05,4.05,0,0,1,.22.88,7.32,7.32,0,0,1,.06,1Z"/><path class="cls-1" d="M434,469.31A5.91,5.91,0,0,1,432,469a4.64,4.64,0,0,1-1.66-1l.76-1.39a4.67,4.67,0,0,0,2.89,1.19,1.92,1.92,0,0,0,1-.23.74.74,0,0,0,.37-.67,1,1,0,0,0,0-.18.35.35,0,0,0-.08-.16l-.1-.13a.71.71,0,0,0-.17-.11l-.19-.09-.25-.1-.27-.08-.32-.1-.36-.1c-.41-.13-.75-.25-1-.35a7.76,7.76,0,0,1-.77-.37,2.16,2.16,0,0,1-.58-.45,1.85,1.85,0,0,1-.32-.55,2.07,2.07,0,0,1-.12-.73,2.37,2.37,0,0,1,.93-2,3.87,3.87,0,0,1,2.47-.74,4.46,4.46,0,0,1,3.15,1.19l-.87,1.36a4,4,0,0,0-2.38-1,1.94,1.94,0,0,0-.93.2.7.7,0,0,0-.37.67.66.66,0,0,0,.33.61,5.33,5.33,0,0,0,1.19.44c.47.14.83.25,1.1.35a7.31,7.31,0,0,1,.84.36,2.44,2.44,0,0,1,.66.46,1.78,1.78,0,0,1,.36.58,2,2,0,0,1,.14.8,2.31,2.31,0,0,1-.91,1.94A3.88,3.88,0,0,1,434,469.31Z"/><path class="cls-1" d="M665.5,443.85v7.3h-2.2V439.79h1.76l5.86,7.48v-7.46h2.21v11.34H671.3Z"/><path class="cls-1" d="M675,447a4.47,4.47,0,0,1,1.18-3.05,3.86,3.86,0,0,1,1.39-.95,4.59,4.59,0,0,1,1.83-.35,4.53,4.53,0,0,1,2.34.6,4.16,4.16,0,0,1,1.53,1.59,4.6,4.6,0,0,1,.52,2.16,4.36,4.36,0,0,1-.31,1.65,4.21,4.21,0,0,1-.85,1.38,3.86,3.86,0,0,1-1.39.95,4.85,4.85,0,0,1-3.34.12,4,4,0,0,1-1.23-.63,4.56,4.56,0,0,1-.91-.95,4.22,4.22,0,0,1-.57-1.19A4.55,4.55,0,0,1,675,447Zm4.4,2.51a2,2,0,0,0,1.56-.71,2.67,2.67,0,0,0,.63-1.82,2.59,2.59,0,0,0-.63-1.79,2,2,0,0,0-1.56-.71,2,2,0,0,0-1.56.71,2.66,2.66,0,0,0-.63,1.81,2.6,2.6,0,0,0,.63,1.8A2,2,0,0,0,679.42,449.48Z"/><path class="cls-1" d="M690.54,450.72a5.84,5.84,0,0,1-2.36.57,2.86,2.86,0,0,1-.85-.12,2.25,2.25,0,0,1-.69-.35,1.59,1.59,0,0,1-.47-.65,2.29,2.29,0,0,1-.17-.94v-4.82h-1.11v-1.64H686v-2.72h2.14v2.72h1.76v1.64h-1.76v4.1c0,.55.29.82.8.82a3.08,3.08,0,0,0,1.17-.31Z"/><path class="cls-1" d="M698.17,449.7v1.45H696.3V439.47h2.14v4.76a3.23,3.23,0,0,1,1.19-1.19,3.34,3.34,0,0,1,1.69-.42,3.21,3.21,0,0,1,1.91.6,3.88,3.88,0,0,1,1.3,1.6A5.2,5.2,0,0,1,705,447a4.83,4.83,0,0,1-.5,2.19,3.91,3.91,0,0,1-1.41,1.55,3.63,3.63,0,0,1-2,.58,3.46,3.46,0,0,1-1.7-.43A3.14,3.14,0,0,1,698.17,449.7Zm4.62-2.69a2.75,2.75,0,0,0-.63-1.81,1.93,1.93,0,0,0-1.56-.75,2,2,0,0,0-1.27.46,2.9,2.9,0,0,0-.89,1.17v2a2,2,0,0,0,.8,1,2.23,2.23,0,0,0,1.23.39,2.14,2.14,0,0,0,1.66-.72A2.49,2.49,0,0,0,702.79,447Z"/><path class="cls-1" d="M710.73,451.31a4.53,4.53,0,0,1-2.34-.6,4,4,0,0,1-1.55-1.56,4.35,4.35,0,0,1-.53-2.14,4.49,4.49,0,0,1,.53-2.19,4,4,0,0,1,1.55-1.6,4.95,4.95,0,0,1,4.19-.25,3.91,3.91,0,0,1,1.38.95,4.21,4.21,0,0,1,.85,1.37,4.75,4.75,0,0,1,.25,2.35h-6.48a2.2,2.2,0,0,0,2.23,2.1,2.45,2.45,0,0,0,1.21-.31,1.66,1.66,0,0,0,.77-.83l1.84.52a3.7,3.7,0,0,1-1.51,1.58A4.69,4.69,0,0,1,710.73,451.31Zm-2.2-5h4.39a2.39,2.39,0,0,0-.71-1.53,2.13,2.13,0,0,0-1.5-.58,2.07,2.07,0,0,0-1.48.59A2.28,2.28,0,0,0,708.53,446.28Z"/><path class="cls-1" d="M716.82,441.59v-2.12H719v2.12Zm0,9.56v-8.38H719v8.38Z"/><path class="cls-1" d="M729.08,451.15h-2.14v-4.7c0-1.3-.44-1.94-1.33-1.94a2.13,2.13,0,0,0-1.3.5,2.52,2.52,0,0,0-.88,1.24v4.9h-2.14v-8.38h1.94v1.55a3.24,3.24,0,0,1,1.36-1.25,4.26,4.26,0,0,1,2-.45,2.68,2.68,0,0,1,1.06.19,2,2,0,0,1,.74.5,2.48,2.48,0,0,1,.44.75,4.05,4.05,0,0,1,.22.88,7.32,7.32,0,0,1,.06,1Z"/><path class="cls-1" d="M730.85,447a4.82,4.82,0,0,1,.49-2.19,3.82,3.82,0,0,1,1.39-1.56,3.65,3.65,0,0,1,2-.58,3.23,3.23,0,0,1,1.68.43,3.7,3.7,0,0,1,1.25,1.18v-1.46h1.87v8a3.76,3.76,0,0,1-.6,2.12,3.81,3.81,0,0,1-1.66,1.38,5.87,5.87,0,0,1-2.4.47,5.28,5.28,0,0,1-2.27-.45A4.67,4.67,0,0,1,731,453l1.17-1.13a3.28,3.28,0,0,0,1.21.92,3.57,3.57,0,0,0,1.54.34,3,3,0,0,0,1-.14,2.31,2.31,0,0,0,.79-.42,1.77,1.77,0,0,0,.55-.73,2.54,2.54,0,0,0,.2-1.06V449.7a2.8,2.8,0,0,1-1.16,1.1,3.55,3.55,0,0,1-3.58-.18,3.83,3.83,0,0,1-1.35-1.55A4.81,4.81,0,0,1,730.85,447Zm6.56,1.13v-2a2.56,2.56,0,0,0-.89-1.18,2.16,2.16,0,0,0-1.3-.45,1.9,1.9,0,0,0-1.56.77A2.79,2.79,0,0,0,733,447a2.46,2.46,0,0,0,.67,1.75,2.21,2.21,0,0,0,2.89.31A2.15,2.15,0,0,0,737.41,448.08Z"/><path class="cls-1" d="M745.55,448.67a2.34,2.34,0,0,1,1-2,4.2,4.2,0,0,1,2.6-.75,5.44,5.44,0,0,1,2,.33v-.44a1.58,1.58,0,0,0-.48-1.24,2,2,0,0,0-1.4-.43,3.67,3.67,0,0,0-1.28.23,6.88,6.88,0,0,0-1.34.72l-.69-1.41a6.37,6.37,0,0,1,3.54-1.09,4,4,0,0,1,2.79.9,3.28,3.28,0,0,1,1,2.56v2.67a.79.79,0,0,0,.11.49.55.55,0,0,0,.4.17v1.74a4.94,4.94,0,0,1-.91.11,1.52,1.52,0,0,1-1-.27,1.11,1.11,0,0,1-.42-.72l0-.43a3.94,3.94,0,0,1-3,1.47,3,3,0,0,1-2.08-.75A2.42,2.42,0,0,1,745.55,448.67Zm5.22.43a1.12,1.12,0,0,0,.4-.73v-.85a4.31,4.31,0,0,0-1.68-.34,2.4,2.4,0,0,0-1.38.36,1.13,1.13,0,0,0-.12,1.83,1.52,1.52,0,0,0,1.08.37,2.69,2.69,0,0,0,.93-.17A2.44,2.44,0,0,0,750.77,449.1Z"/><path class="cls-1" d="M757.58,449.7v1.45h-1.87V439.47h2.14v4.76A3.23,3.23,0,0,1,759,443a3.34,3.34,0,0,1,1.69-.42,3.23,3.23,0,0,1,1.91.6,3.88,3.88,0,0,1,1.3,1.6,5.2,5.2,0,0,1,.45,2.17,4.83,4.83,0,0,1-.5,2.19,3.91,3.91,0,0,1-1.41,1.55,3.63,3.63,0,0,1-2,.58,3.43,3.43,0,0,1-1.7-.43A3.14,3.14,0,0,1,757.58,449.7ZM762.2,447a2.75,2.75,0,0,0-.63-1.81,1.93,1.93,0,0,0-1.56-.75,2,2,0,0,0-1.27.46,2.82,2.82,0,0,0-.89,1.17v2a1.92,1.92,0,0,0,.8,1,2.23,2.23,0,0,0,1.23.39,2.15,2.15,0,0,0,1.66-.72A2.49,2.49,0,0,0,762.2,447Z"/><path class="cls-1" d="M766.23,439.47h2.14v9a1.22,1.22,0,0,0,.18.77.67.67,0,0,0,.54.21,2.44,2.44,0,0,0,1-.23l.29,1.63a4.7,4.7,0,0,1-1,.32,5.86,5.86,0,0,1-1,.11,2.12,2.12,0,0,1-1.55-.54,2,2,0,0,1-.56-1.52Z"/><path class="cls-1" d="M775.61,451.31a4.53,4.53,0,0,1-2.34-.6,4,4,0,0,1-1.55-1.56,4.35,4.35,0,0,1-.53-2.14,4.49,4.49,0,0,1,.53-2.19,4,4,0,0,1,1.55-1.6,4.95,4.95,0,0,1,4.19-.25,3.91,3.91,0,0,1,1.38.95,4.21,4.21,0,0,1,.85,1.37,4.75,4.75,0,0,1,.25,2.35h-6.48a2.2,2.2,0,0,0,2.23,2.1,2.45,2.45,0,0,0,1.21-.31,1.66,1.66,0,0,0,.77-.83l1.84.52A3.7,3.7,0,0,1,778,450.7,4.69,4.69,0,0,1,775.61,451.31Zm-2.2-5h4.38a2.33,2.33,0,0,0-.7-1.53,2.13,2.13,0,0,0-1.5-.58,2.07,2.07,0,0,0-1.48.59A2.28,2.28,0,0,0,773.41,446.28Z"/><path class="cls-1" d="M684.29,468.72a5.92,5.92,0,0,1-2.37.57,2.75,2.75,0,0,1-.84-.12,2,2,0,0,1-.69-.35,1.6,1.6,0,0,1-.48-.65,2.46,2.46,0,0,1-.17-.94v-4.82h-1.1v-1.64h1.1v-2.72h2.15v2.72h1.76v1.64h-1.76v4.1c0,.55.28.82.79.82a3.08,3.08,0,0,0,1.18-.31Z"/><path class="cls-1" d="M685.16,465a4.62,4.62,0,0,1,.31-1.66,4.42,4.42,0,0,1,.87-1.39,3.9,3.9,0,0,1,1.4-.95,4.59,4.59,0,0,1,1.83-.35,4.47,4.47,0,0,1,2.33.6,4.09,4.09,0,0,1,1.53,1.59A4.48,4.48,0,0,1,694,465a4.56,4.56,0,0,1-.3,1.65,4.24,4.24,0,0,1-.86,1.38,3.86,3.86,0,0,1-1.39.95,4.53,4.53,0,0,1-1.83.36,4.64,4.64,0,0,1-1.51-.24,4,4,0,0,1-1.23-.63,4.51,4.51,0,0,1-.9-.95,4,4,0,0,1-.58-1.19A4.91,4.91,0,0,1,685.16,465Zm4.41,2.51a2,2,0,0,0,1.56-.71,2.67,2.67,0,0,0,.63-1.82,2.59,2.59,0,0,0-.63-1.79,2,2,0,0,0-1.56-.71,2,2,0,0,0-1.56.71,2.88,2.88,0,0,0,0,3.61A2,2,0,0,0,689.57,467.48Z"/><path class="cls-1" d="M703.93,469.31a4.6,4.6,0,0,1-1.83-.36,4,4,0,0,1-1.41-.95,4.27,4.27,0,0,1-.88-1.39,4.56,4.56,0,0,1,.21-3.81,4.05,4.05,0,0,1,1.55-1.58,4.54,4.54,0,0,1,2.35-.6,4.45,4.45,0,0,1,2.31.58,3.67,3.67,0,0,1,1.48,1.57l-2.1.64a1.89,1.89,0,0,0-.72-.71,2,2,0,0,0-1-.25,2,2,0,0,0-1.57.7,2.9,2.9,0,0,0,0,3.61,2,2,0,0,0,1.55.72,2.08,2.08,0,0,0,1.06-.28,1.55,1.55,0,0,0,.68-.71l2.1.64a3.52,3.52,0,0,1-1.46,1.58A4.49,4.49,0,0,1,703.93,469.31Z"/><path class="cls-1" d="M708.84,465a4.47,4.47,0,0,1,1.18-3.05,3.86,3.86,0,0,1,1.39-.95,4.61,4.61,0,0,1,1.84-.35,4.52,4.52,0,0,1,2.33.6,4.16,4.16,0,0,1,1.53,1.59,4.48,4.48,0,0,1,.52,2.16,4.36,4.36,0,0,1-.31,1.65,4.21,4.21,0,0,1-.85,1.38,3.86,3.86,0,0,1-1.39.95,4.85,4.85,0,0,1-3.34.12,4,4,0,0,1-1.23-.63,4.56,4.56,0,0,1-.91-.95,4.22,4.22,0,0,1-.57-1.19A4.55,4.55,0,0,1,708.84,465Zm4.41,2.51a2,2,0,0,0,1.55-.71,2.67,2.67,0,0,0,.63-1.82,2.59,2.59,0,0,0-.63-1.79,2,2,0,0,0-1.55-.71,2,2,0,0,0-1.57.71,2.66,2.66,0,0,0-.63,1.81,2.6,2.6,0,0,0,.63,1.8A2,2,0,0,0,713.25,467.48Z"/><path class="cls-1" d="M727.25,469.15h-2.14v-4.7c0-1.3-.44-1.94-1.32-1.94a2.13,2.13,0,0,0-1.31.5,2.44,2.44,0,0,0-.87,1.24v4.9h-2.14v-8.38h1.93v1.55a3.3,3.3,0,0,1,1.36-1.25,4.29,4.29,0,0,1,2-.45,2.73,2.73,0,0,1,1.07.19,2,2,0,0,1,.73.5,2.29,2.29,0,0,1,.44.75,4.08,4.08,0,0,1,.23.88,7.39,7.39,0,0,1,0,1Z"/><path class="cls-1" d="M737.31,469.15h-2.14v-4.7c0-1.3-.44-1.94-1.33-1.94a2.11,2.11,0,0,0-1.3.5,2.52,2.52,0,0,0-.88,1.24v4.9h-2.14v-8.38h1.94v1.55a3.21,3.21,0,0,1,1.35-1.25,4.33,4.33,0,0,1,2-.45,2.68,2.68,0,0,1,1.06.19,1.89,1.89,0,0,1,.73.5,2.3,2.3,0,0,1,.45.75,4.05,4.05,0,0,1,.22.88,7.32,7.32,0,0,1,.06,1Z"/><path class="cls-1" d="M743.47,469.31a4.53,4.53,0,0,1-2.34-.6,4,4,0,0,1-1.55-1.56,4.35,4.35,0,0,1-.53-2.14,4.49,4.49,0,0,1,.53-2.19,4,4,0,0,1,1.55-1.6,4.95,4.95,0,0,1,4.19-.25,3.91,3.91,0,0,1,1.38.95,4.21,4.21,0,0,1,.85,1.37,4.49,4.49,0,0,1,.3,1.63,3.56,3.56,0,0,1-.05.72h-6.48a2.18,2.18,0,0,0,.72,1.53,2.2,2.2,0,0,0,1.51.57,2.45,2.45,0,0,0,1.21-.31,1.62,1.62,0,0,0,.77-.83l1.84.52a3.7,3.7,0,0,1-1.51,1.58A4.67,4.67,0,0,1,743.47,469.31Zm-2.2-5h4.39a2.39,2.39,0,0,0-.71-1.53,2.13,2.13,0,0,0-1.5-.58,2.09,2.09,0,0,0-1.48.59A2.33,2.33,0,0,0,741.27,464.28Z"/><path class="cls-1" d="M753.46,469.31a4.6,4.6,0,0,1-1.83-.36,4.08,4.08,0,0,1-1.41-.95,4.58,4.58,0,0,1-.67-5.2,4.05,4.05,0,0,1,1.55-1.58,4.54,4.54,0,0,1,2.35-.6,4.45,4.45,0,0,1,2.31.58,3.62,3.62,0,0,1,1.48,1.57l-2.1.64a1.82,1.82,0,0,0-.72-.71,2,2,0,0,0-1-.25,2,2,0,0,0-1.56.7,2.88,2.88,0,0,0,0,3.61,2,2,0,0,0,1.55.72,2.08,2.08,0,0,0,1.06-.28,1.5,1.5,0,0,0,.68-.71l2.1.64a3.52,3.52,0,0,1-1.46,1.58A4.49,4.49,0,0,1,753.46,469.31Z"/><path class="cls-1" d="M764,468.72a5.84,5.84,0,0,1-2.36.57,2.86,2.86,0,0,1-.85-.12,2.25,2.25,0,0,1-.69-.35,1.59,1.59,0,0,1-.47-.65,2.29,2.29,0,0,1-.17-.94v-4.82h-1.11v-1.64h1.11v-2.72h2.14v2.72h1.76v1.64H761.6v4.1c0,.55.29.82.8.82a3.08,3.08,0,0,0,1.17-.31Z"/><path class="cls-1" d="M686.55,487.31a4.6,4.6,0,0,1-1.83-.36,4.08,4.08,0,0,1-1.41-.95,4.58,4.58,0,0,1-.67-5.2,4.05,4.05,0,0,1,1.55-1.58,4.54,4.54,0,0,1,2.35-.6,4.45,4.45,0,0,1,2.31.58,3.62,3.62,0,0,1,1.48,1.57l-2.1.64a1.76,1.76,0,0,0-.72-.71,2,2,0,0,0-1-.25,2,2,0,0,0-1.56.7,2.88,2.88,0,0,0,0,3.61,2,2,0,0,0,1.55.72,2.08,2.08,0,0,0,1.06-.28,1.5,1.5,0,0,0,.68-.71l2.1.64a3.52,3.52,0,0,1-1.46,1.58A4.49,4.49,0,0,1,686.55,487.31Z"/><path class="cls-1" d="M691.49,484.67a2.37,2.37,0,0,1,1-2,4.24,4.24,0,0,1,2.6-.75,5.37,5.37,0,0,1,2,.33v-.44a1.61,1.61,0,0,0-.47-1.24,2.08,2.08,0,0,0-1.41-.43,3.71,3.71,0,0,0-1.28.23,6.83,6.83,0,0,0-1.33.72l-.7-1.41a6.37,6.37,0,0,1,3.54-1.09,4,4,0,0,1,2.79.9,3.25,3.25,0,0,1,1,2.56v2.67a.78.78,0,0,0,.12.49.55.55,0,0,0,.4.17v1.74a5,5,0,0,1-.92.11,1.52,1.52,0,0,1-1-.27,1.14,1.14,0,0,1-.41-.72l-.05-.43a3.71,3.71,0,0,1-1.36,1.08,3.81,3.81,0,0,1-1.66.39,3,3,0,0,1-2.09-.75A2.45,2.45,0,0,1,691.49,484.67Zm5.22.43a1.08,1.08,0,0,0,.4-.73v-.85a4.31,4.31,0,0,0-1.68-.34,2.44,2.44,0,0,0-1.38.36,1.12,1.12,0,0,0-.53.95,1.16,1.16,0,0,0,.41.88,1.53,1.53,0,0,0,1.09.37,2.77,2.77,0,0,0,.93-.17A2.39,2.39,0,0,0,696.71,485.1Z"/><path class="cls-1" d="M714.67,487.15h-2.14v-4.7a2.58,2.58,0,0,0-.33-1.46,1.12,1.12,0,0,0-1-.48,1.77,1.77,0,0,0-1.2.49,2.67,2.67,0,0,0-.8,1.27v4.88h-2.15v-4.7c0-1.3-.44-1.94-1.3-1.94a1.84,1.84,0,0,0-1.2.48,2.63,2.63,0,0,0-.8,1.26v4.9h-2.14v-8.38h1.94v1.55a3.34,3.34,0,0,1,1.27-1.26,3.85,3.85,0,0,1,1.84-.44,2.43,2.43,0,0,1,1.6.49,2.21,2.21,0,0,1,.77,1.29,3.66,3.66,0,0,1,1.3-1.32,3.48,3.48,0,0,1,1.79-.46c1.67,0,2.51,1.1,2.51,3.29Z"/><path class="cls-1" d="M719.08,485.68v4.88h-2.14V478.77h1.88v1.43A3.28,3.28,0,0,1,720,479a3.38,3.38,0,0,1,1.68-.42,3.6,3.6,0,0,1,2,.58,3.92,3.92,0,0,1,1.41,1.58,4.65,4.65,0,0,1,.51,2.16,5.18,5.18,0,0,1-.47,2.21,3.85,3.85,0,0,1-1.31,1.58,3.32,3.32,0,0,1-1.89.58,3.38,3.38,0,0,1-1.7-.43A3.16,3.16,0,0,1,719.08,485.68Zm4.35-2.74a2.53,2.53,0,0,0-.66-1.78,2.19,2.19,0,0,0-1.66-.71,2.16,2.16,0,0,0-1.22.4,2,2,0,0,0-.81,1v2A2.78,2.78,0,0,0,720,485a2,2,0,0,0,1.28.47,1.93,1.93,0,0,0,1.56-.75A2.71,2.71,0,0,0,723.43,482.94Z"/><path class="cls-1" d="M726.9,484.67a2.37,2.37,0,0,1,1-2,4.24,4.24,0,0,1,2.6-.75,5.37,5.37,0,0,1,2,.33v-.44a1.61,1.61,0,0,0-.47-1.24,2.07,2.07,0,0,0-1.4-.43,3.73,3.73,0,0,0-1.29.23,6.83,6.83,0,0,0-1.33.72l-.7-1.41a6.37,6.37,0,0,1,3.54-1.09,4,4,0,0,1,2.8.9,3.28,3.28,0,0,1,1,2.56v2.67a.78.78,0,0,0,.12.49.55.55,0,0,0,.4.17v1.74a5,5,0,0,1-.92.11,1.47,1.47,0,0,1-1-.27,1.11,1.11,0,0,1-.42-.72l0-.43a3.76,3.76,0,0,1-1.35,1.08,3.88,3.88,0,0,1-1.67.39,3,3,0,0,1-2.09-.75A2.45,2.45,0,0,1,726.9,484.67Zm5.22.43a1.08,1.08,0,0,0,.4-.73v-.85a4.31,4.31,0,0,0-1.68-.34,2.38,2.38,0,0,0-1.37.36,1.11,1.11,0,0,0-.54.95,1.16,1.16,0,0,0,.41.88,1.53,1.53,0,0,0,1.09.37,2.73,2.73,0,0,0,.93-.17A2.28,2.28,0,0,0,732.12,485.1Z"/><path class="cls-1" d="M737.06,477.59v-2.12h2.14v2.12Zm0,9.56v-8.38h2.14v8.38Z"/><path class="cls-1" d="M741,483a4.82,4.82,0,0,1,.49-2.19,3.82,3.82,0,0,1,1.39-1.56,3.65,3.65,0,0,1,2-.58,3.23,3.23,0,0,1,1.68.43,3.7,3.7,0,0,1,1.25,1.18v-1.46h1.87v8a3.72,3.72,0,0,1-2.26,3.5,5.87,5.87,0,0,1-2.4.47,5.28,5.28,0,0,1-2.27-.45,4.67,4.67,0,0,1-1.65-1.3l1.17-1.13a3.28,3.28,0,0,0,1.21.92,3.57,3.57,0,0,0,1.54.34,2.93,2.93,0,0,0,1-.14,2.27,2.27,0,0,0,.8-.42,1.77,1.77,0,0,0,.55-.73,2.54,2.54,0,0,0,.2-1.06V485.7a2.8,2.8,0,0,1-1.16,1.1,3.55,3.55,0,0,1-3.58-.18,3.83,3.83,0,0,1-1.35-1.55A4.81,4.81,0,0,1,741,483Zm6.56,1.13v-2a2.56,2.56,0,0,0-.89-1.18,2.16,2.16,0,0,0-1.3-.45,1.9,1.9,0,0,0-1.56.77,2.79,2.79,0,0,0-.62,1.8,2.46,2.46,0,0,0,.67,1.75,2.21,2.21,0,0,0,2.89.31A2.15,2.15,0,0,0,747.6,484.08Z"/><path class="cls-1" d="M759.87,487.15h-2.14v-4.7c0-1.3-.44-1.94-1.33-1.94a2.15,2.15,0,0,0-1.31.5,2.57,2.57,0,0,0-.87,1.24v4.9h-2.14v-8.38H754v1.55a3.21,3.21,0,0,1,1.35-1.25,4.29,4.29,0,0,1,2-.45,2.69,2.69,0,0,1,1.07.19,1.89,1.89,0,0,1,.73.5,2.29,2.29,0,0,1,.44.75,3.58,3.58,0,0,1,.23.88,7.32,7.32,0,0,1,.06,1Z"/><path class="cls-1" d="M662.45,505.31a4.52,4.52,0,0,1-2.33-.6,4.1,4.1,0,0,1-1.56-1.56A4.46,4.46,0,0,1,658,501a4.6,4.6,0,0,1,.53-2.19,4.06,4.06,0,0,1,1.56-1.6,4.93,4.93,0,0,1,4.18-.25,3.74,3.74,0,0,1,1.38.95,4.41,4.41,0,0,1,.86,1.37,4.75,4.75,0,0,1,.25,2.35h-6.48a2.18,2.18,0,0,0,2.22,2.1,2.49,2.49,0,0,0,1.22-.31,1.71,1.71,0,0,0,.77-.83l1.83.52a3.62,3.62,0,0,1-1.5,1.58A4.7,4.7,0,0,1,662.45,505.31Zm-2.19-5h4.38a2.34,2.34,0,0,0-.71-1.53,2.19,2.19,0,0,0-3,0A2.27,2.27,0,0,0,660.26,500.28Z"/><path class="cls-1" d="M669.6,496.77l1.75,2.62.14.29.15-.29,1.74-2.62h2.26l-2.91,4.17,3,4.21h-2.25l-1.81-2.61-.14-.27-.14.27-1.79,2.61h-2.25l3-4.16-2.92-4.22Z"/><path class="cls-1" d="M679.25,503.68v4.88h-2.14V496.77H679v1.43a3.35,3.35,0,0,1,2.89-1.58,3.65,3.65,0,0,1,2,.58,4.07,4.07,0,0,1,1.41,1.58,4.77,4.77,0,0,1,.5,2.16,5.18,5.18,0,0,1-.47,2.21,3.85,3.85,0,0,1-1.31,1.58,3.29,3.29,0,0,1-1.88.58,3.44,3.44,0,0,1-1.71-.43A3.16,3.16,0,0,1,679.25,503.68Zm4.36-2.74a2.54,2.54,0,0,0-.67-1.78,2.19,2.19,0,0,0-2.88-.31,2,2,0,0,0-.81,1v2a2.86,2.86,0,0,0,.89,1.19,2,2,0,0,0,1.28.47,1.93,1.93,0,0,0,1.56-.75A2.72,2.72,0,0,0,683.61,500.94Z"/><path class="cls-1" d="M687.12,501a4.42,4.42,0,0,1,.32-1.66,4.22,4.22,0,0,1,.86-1.39,3.9,3.9,0,0,1,1.4-.95,4.59,4.59,0,0,1,1.83-.35,4.47,4.47,0,0,1,2.33.6,4,4,0,0,1,1.53,1.59,4.48,4.48,0,0,1,.52,2.16,4.56,4.56,0,0,1-.3,1.65,4.24,4.24,0,0,1-.86,1.38,3.91,3.91,0,0,1-1.38.95,4.88,4.88,0,0,1-3.35.12,4,4,0,0,1-1.23-.63,4.51,4.51,0,0,1-.9-.95,4,4,0,0,1-.58-1.19A4.91,4.91,0,0,1,687.12,501Zm4.41,2.51a2,2,0,0,0,1.56-.71,2.67,2.67,0,0,0,.63-1.82,2.59,2.59,0,0,0-.63-1.79,2,2,0,0,0-1.56-.71,2,2,0,0,0-1.56.71,2.88,2.88,0,0,0,0,3.61A2,2,0,0,0,691.53,503.48Z"/><path class="cls-1" d="M700.83,505.31a5.91,5.91,0,0,1-2.06-.36,4.64,4.64,0,0,1-1.66-1l.76-1.39a4.67,4.67,0,0,0,2.89,1.19,1.92,1.92,0,0,0,1-.23.74.74,0,0,0,.37-.67,1,1,0,0,0,0-.18.35.35,0,0,0-.08-.16,1.47,1.47,0,0,0-.1-.13.71.71,0,0,0-.17-.11l-.19-.09-.25-.1-.27-.08-.32-.1-.36-.1c-.41-.13-.75-.25-1-.35a7.76,7.76,0,0,1-.77-.37,2.16,2.16,0,0,1-.58-.45,1.85,1.85,0,0,1-.32-.55,2.07,2.07,0,0,1-.12-.73,2.37,2.37,0,0,1,.93-2,3.87,3.87,0,0,1,2.47-.74,4.46,4.46,0,0,1,3.15,1.19l-.87,1.36a4,4,0,0,0-2.38-1,1.94,1.94,0,0,0-.93.2.7.7,0,0,0-.37.67.66.66,0,0,0,.33.61,5.33,5.33,0,0,0,1.19.44c.47.14.83.25,1.1.35a6.63,6.63,0,0,1,.84.36,2.44,2.44,0,0,1,.66.46,1.78,1.78,0,0,1,.36.58,2,2,0,0,1,.14.8,2.31,2.31,0,0,1-.91,1.94A3.88,3.88,0,0,1,700.83,505.31Z"/><path class="cls-1" d="M706,502v-5.25h2.14v4.78c0,1.29.46,1.93,1.39,1.93a2.18,2.18,0,0,0,1.23-.39,2.88,2.88,0,0,0,.94-1.13v-5.19h2.14v6a.79.79,0,0,0,.11.49.55.55,0,0,0,.4.17v1.74a5.39,5.39,0,0,1-.93.09,1.54,1.54,0,0,1-.94-.26,1,1,0,0,1-.42-.73l0-.67a3.61,3.61,0,0,1-1.43,1.29,4.36,4.36,0,0,1-1.95.44,2.38,2.38,0,0,1-2-.84A3.85,3.85,0,0,1,706,502Z"/><path class="cls-1" d="M721.32,498.62a4.1,4.1,0,0,0-1.76.39,2.27,2.27,0,0,0-1.09,1.07v5.07h-2.14v-8.38h2v1.79a3.74,3.74,0,0,1,1.14-1.36,2.57,2.57,0,0,1,1.45-.54h.43Z"/><path class="cls-1" d="M726.7,505.31a4.53,4.53,0,0,1-2.34-.6,4,4,0,0,1-1.55-1.56,4.35,4.35,0,0,1-.53-2.14,4.49,4.49,0,0,1,.53-2.19,4,4,0,0,1,1.55-1.6,4.95,4.95,0,0,1,4.19-.25,3.91,3.91,0,0,1,1.38.95,4.21,4.21,0,0,1,.85,1.37,4.49,4.49,0,0,1,.3,1.63,4.67,4.67,0,0,1,0,.72h-6.49a2.18,2.18,0,0,0,.72,1.53,2.2,2.2,0,0,0,1.51.57,2.45,2.45,0,0,0,1.21-.31,1.62,1.62,0,0,0,.77-.83l1.84.52a3.64,3.64,0,0,1-1.51,1.58A4.67,4.67,0,0,1,726.7,505.31Zm-2.2-5h4.39a2.39,2.39,0,0,0-.71-1.53,2.13,2.13,0,0,0-1.5-.58,2.09,2.09,0,0,0-1.48.59A2.33,2.33,0,0,0,724.5,500.28Z"/><path class="cls-1" d="M742.05,504.72a5.92,5.92,0,0,1-2.37.57,2.86,2.86,0,0,1-.85-.12,2.09,2.09,0,0,1-.68-.35,1.6,1.6,0,0,1-.48-.65,2.46,2.46,0,0,1-.17-.94v-4.82h-1.1v-1.64h1.1v-2.72h2.15v2.72h1.76v1.64h-1.76v4.1c0,.55.28.82.79.82a3.08,3.08,0,0,0,1.18-.31Z"/><path class="cls-1" d="M742.92,501a4.42,4.42,0,0,1,.32-1.66,4.22,4.22,0,0,1,.86-1.39,3.9,3.9,0,0,1,1.4-.95,4.59,4.59,0,0,1,1.83-.35,4.47,4.47,0,0,1,2.33.6,4.09,4.09,0,0,1,1.53,1.59,4.48,4.48,0,0,1,.52,2.16,4.56,4.56,0,0,1-.3,1.65,4.24,4.24,0,0,1-.86,1.38,3.91,3.91,0,0,1-1.38.95,4.88,4.88,0,0,1-3.35.12,4,4,0,0,1-1.23-.63,4.51,4.51,0,0,1-.9-.95,4,4,0,0,1-.58-1.19A4.91,4.91,0,0,1,742.92,501Zm4.41,2.51a2,2,0,0,0,1.56-.71,2.67,2.67,0,0,0,.63-1.82,2.59,2.59,0,0,0-.63-1.79,2,2,0,0,0-1.56-.71,2,2,0,0,0-1.56.71,2.88,2.88,0,0,0,0,3.61A2,2,0,0,0,747.33,503.48Z"/><path class="cls-1" d="M758,505.15V493.79h5a3.3,3.3,0,0,1,1.85.56,3.77,3.77,0,0,1,1.3,1.42,3.7,3.7,0,0,1,.46,1.79,3.81,3.81,0,0,1-.56,2,3.25,3.25,0,0,1-1.49,1.31l2.6,4.27h-2.43l-2.34-3.81H760.2v3.81Zm2.2-5.74H763a1.26,1.26,0,0,0,1-.54,2,2,0,0,0,.42-1.31,1.91,1.91,0,0,0-.47-1.3,1.38,1.38,0,0,0-1.07-.53H760.2Z"/><path class="cls-1" d="M768.27,499.47a5.65,5.65,0,0,1,.43-2.18,6.09,6.09,0,0,1,1.15-1.84,5.62,5.62,0,0,1,1.78-1.26,5.29,5.29,0,0,1,2.23-.48,5.12,5.12,0,0,1,1.83.33,4.63,4.63,0,0,1,1.53.89,6.44,6.44,0,0,1,1.15,1.29,6,6,0,0,1,.74,1.58,5.85,5.85,0,0,1,.26,1.7,5.7,5.7,0,0,1-.43,2.16,5.9,5.9,0,0,1-1.14,1.83,5.51,5.51,0,0,1-4,1.74,5.35,5.35,0,0,1-1.84-.32,4.93,4.93,0,0,1-1.54-.87,6.14,6.14,0,0,1-1.16-1.28,5.44,5.44,0,0,1-.74-1.58A5.86,5.86,0,0,1,768.27,499.47Zm5.56,3.8a3.17,3.17,0,0,0,1.41-.32,2.91,2.91,0,0,0,1-.88,4.22,4.22,0,0,0,.63-1.21,4.7,4.7,0,0,0,.22-1.39,4.29,4.29,0,0,0-.4-1.86,3.41,3.41,0,0,0-1.16-1.39,3,3,0,0,0-1.75-.54,3.06,3.06,0,0,0-1.42.33,3,3,0,0,0-1,.87,3.67,3.67,0,0,0-.63,1.21,4.3,4.3,0,0,0-.23,1.38,4.38,4.38,0,0,0,.39,1.85,3.36,3.36,0,0,0,1.15,1.41A3,3,0,0,0,773.83,503.27Z"/><path class="cls-1" d="M781.46,505.15V493.79h2.2v11.36Z"/><path class="cls-1" d="M502.48,443.85v7.3h-2.2V439.79H502l5.86,7.48v-7.46h2.21v11.34h-1.83Z"/><path class="cls-1" d="M512,447a4.47,4.47,0,0,1,1.18-3.05,3.86,3.86,0,0,1,1.39-.95,4.59,4.59,0,0,1,1.83-.35,4.53,4.53,0,0,1,2.34.6,4.16,4.16,0,0,1,1.53,1.59,4.6,4.6,0,0,1,.52,2.16,4.36,4.36,0,0,1-.31,1.65,4.21,4.21,0,0,1-.85,1.38,3.86,3.86,0,0,1-1.39.95,4.85,4.85,0,0,1-3.34.12,4,4,0,0,1-1.23-.63,4.56,4.56,0,0,1-.91-.95,4.22,4.22,0,0,1-.57-1.19A4.55,4.55,0,0,1,512,447Zm4.4,2.51a2,2,0,0,0,1.56-.71,2.67,2.67,0,0,0,.63-1.82,2.59,2.59,0,0,0-.63-1.79,2,2,0,0,0-1.56-.71,2,2,0,0,0-1.56.71,2.66,2.66,0,0,0-.63,1.81,2.6,2.6,0,0,0,.63,1.8A2,2,0,0,0,516.4,449.48Z"/><path class="cls-1" d="M530.41,451.15h-2.14v-4.7c0-1.3-.44-1.94-1.33-1.94a2.13,2.13,0,0,0-1.3.5,2.52,2.52,0,0,0-.88,1.24v4.9h-2.14v-8.38h1.94v1.55a3.24,3.24,0,0,1,1.36-1.25,4.29,4.29,0,0,1,2-.45,2.73,2.73,0,0,1,1.07.19,2.06,2.06,0,0,1,.73.5,2.29,2.29,0,0,1,.44.75,3.55,3.55,0,0,1,.22.88,7.32,7.32,0,0,1,.06,1Z"/><path class="cls-1" d="M532.63,447.73v-1.94h4.85v1.94Z"/><path class="cls-1" d="M541.87,451.15l-3.09-8.38H541l2.11,6.43,2.14-6.43h2l-3.07,8.38Z"/><path class="cls-1" d="M548.81,441.59v-2.12H551v2.12Zm0,9.56v-8.38H551v8.38Z"/><path class="cls-1" d="M557.18,451.31a4.53,4.53,0,0,1-2.34-.6,4,4,0,0,1-1.55-1.56,4.35,4.35,0,0,1-.53-2.14,4.49,4.49,0,0,1,.53-2.19,4,4,0,0,1,1.55-1.6A4.95,4.95,0,0,1,559,443a3.91,3.91,0,0,1,1.38.95,4.21,4.21,0,0,1,.85,1.37,4.75,4.75,0,0,1,.25,2.35H555a2.2,2.2,0,0,0,2.23,2.1,2.45,2.45,0,0,0,1.21-.31,1.66,1.66,0,0,0,.77-.83l1.84.52a3.7,3.7,0,0,1-1.51,1.58A4.69,4.69,0,0,1,557.18,451.31Zm-2.2-5h4.39a2.39,2.39,0,0,0-.71-1.53,2.13,2.13,0,0,0-1.5-.58,2.07,2.07,0,0,0-1.48.59A2.28,2.28,0,0,0,555,446.28Z"/><path class="cls-1" d="M573.42,442.77h2l-3.5,8.38h-1.79l-1.41-3.6-1.38,3.6h-1.8l-3.49-8.38h2l2.5,6.33,1-2.73-1.46-3.59h1.78l.86,2.56.88-2.56h1.78L570,446.37l1,2.73Z"/><path class="cls-1" d="M576.06,448.67a2.34,2.34,0,0,1,1-2,4.2,4.2,0,0,1,2.6-.75,5.35,5.35,0,0,1,2,.33v-.44a1.58,1.58,0,0,0-.47-1.24,2.06,2.06,0,0,0-1.4-.43,3.63,3.63,0,0,0-1.28.23,6.88,6.88,0,0,0-1.34.72l-.69-1.41a6.37,6.37,0,0,1,3.53-1.09,4,4,0,0,1,2.8.9,3.28,3.28,0,0,1,1,2.56v2.67a.78.78,0,0,0,.12.49.55.55,0,0,0,.4.17v1.74a4.94,4.94,0,0,1-.91.11,1.48,1.48,0,0,1-1-.27,1.11,1.11,0,0,1-.42-.72l0-.43a3.76,3.76,0,0,1-1.35,1.08,3.85,3.85,0,0,1-1.67.39,3,3,0,0,1-2.09-.75A2.44,2.44,0,0,1,576.06,448.67Zm5.21.43a1.08,1.08,0,0,0,.4-.73v-.85a4.24,4.24,0,0,0-1.68-.34,2.38,2.38,0,0,0-1.37.36,1.1,1.1,0,0,0-.53.95,1.15,1.15,0,0,0,.4.88,1.55,1.55,0,0,0,1.09.37,2.69,2.69,0,0,0,.93-.17A2.28,2.28,0,0,0,581.27,449.1Z"/><path class="cls-1" d="M588.09,449.7v1.45h-1.88V439.47h2.14v4.76a3.26,3.26,0,0,1,1.2-1.19,3.34,3.34,0,0,1,1.69-.42,3.23,3.23,0,0,1,1.91.6,3.88,3.88,0,0,1,1.3,1.6,5.2,5.2,0,0,1,.45,2.17,4.71,4.71,0,0,1-.51,2.19,3.91,3.91,0,0,1-1.41,1.55,3.6,3.6,0,0,1-2,.58,3.43,3.43,0,0,1-1.7-.43A3.14,3.14,0,0,1,588.09,449.7Zm4.62-2.69a2.75,2.75,0,0,0-.63-1.81,2,2,0,0,0-1.56-.75,2,2,0,0,0-1.27.46,2.92,2.92,0,0,0-.9,1.17v2a2,2,0,0,0,.81,1,2.18,2.18,0,0,0,1.23.39,2.15,2.15,0,0,0,1.66-.72A2.49,2.49,0,0,0,592.71,447Z"/><path class="cls-1" d="M596.74,439.47h2.14v9a1.22,1.22,0,0,0,.18.77.67.67,0,0,0,.54.21,2.44,2.44,0,0,0,1-.23l.28,1.63a4.61,4.61,0,0,1-1,.32,5.86,5.86,0,0,1-1,.11,2.14,2.14,0,0,1-1.56-.54,2,2,0,0,1-.55-1.52Z"/><path class="cls-1" d="M606.12,451.31a4.53,4.53,0,0,1-2.34-.6,4.1,4.1,0,0,1-1.56-1.56,4.46,4.46,0,0,1-.53-2.14,4.6,4.6,0,0,1,.53-2.19,4.06,4.06,0,0,1,1.56-1.6A4.93,4.93,0,0,1,608,443a3.86,3.86,0,0,1,1.39.95,4.39,4.39,0,0,1,.85,1.37,4.75,4.75,0,0,1,.25,2.35H604a2.2,2.2,0,0,0,2.22,2.1,2.49,2.49,0,0,0,1.22-.31,1.66,1.66,0,0,0,.77-.83l1.83.52a3.62,3.62,0,0,1-1.5,1.58A4.69,4.69,0,0,1,606.12,451.31Zm-2.2-5h4.38a2.38,2.38,0,0,0-.7-1.53,2.13,2.13,0,0,0-1.5-.58,2.07,2.07,0,0,0-1.48.59A2.24,2.24,0,0,0,603.92,446.28Z"/><path class="cls-1" d="M507.93,459.59v-2.12h2.15v2.12Zm0,9.56v-8.38h2.15v8.38Z"/><path class="cls-1" d="M525.44,469.15H523.3v-4.7A2.58,2.58,0,0,0,523,463a1.09,1.09,0,0,0-1-.48,1.77,1.77,0,0,0-1.2.49,2.74,2.74,0,0,0-.8,1.27v4.88h-2.15v-4.7c0-1.3-.43-1.94-1.3-1.94a1.84,1.84,0,0,0-1.2.48,2.71,2.71,0,0,0-.8,1.26v4.9h-2.14v-8.38h1.94v1.55a3.3,3.3,0,0,1,1.28-1.26,3.82,3.82,0,0,1,1.84-.44,2.42,2.42,0,0,1,1.59.49,2.21,2.21,0,0,1,.77,1.29,3.68,3.68,0,0,1,1.31-1.32,3.42,3.42,0,0,1,1.78-.46c1.68,0,2.52,1.1,2.52,3.29Z"/><path class="cls-1" d="M532.7,462.62a4.12,4.12,0,0,0-1.77.39,2.31,2.31,0,0,0-1.09,1.07v5.07H527.7v-8.38h2v1.79a3.84,3.84,0,0,1,1.14-1.36,2.58,2.58,0,0,1,1.46-.54h.43Z"/><path class="cls-1" d="M536.43,467.68v4.88h-2.14V460.77h1.88v1.43a3.28,3.28,0,0,1,1.21-1.16,3.38,3.38,0,0,1,1.68-.42,3.6,3.6,0,0,1,2,.58,3.92,3.92,0,0,1,1.41,1.58,4.65,4.65,0,0,1,.51,2.16,5.18,5.18,0,0,1-.47,2.21,3.85,3.85,0,0,1-1.31,1.58,3.32,3.32,0,0,1-1.89.58,3.38,3.38,0,0,1-1.7-.43A3.16,3.16,0,0,1,536.43,467.68Zm4.35-2.74a2.53,2.53,0,0,0-.66-1.78,2.19,2.19,0,0,0-1.66-.71,2.16,2.16,0,0,0-1.22.4,2,2,0,0,0-.81,1v2a2.78,2.78,0,0,0,.89,1.19,2,2,0,0,0,1.28.47,1.93,1.93,0,0,0,1.56-.75A2.71,2.71,0,0,0,540.78,464.94Z"/><path class="cls-1" d="M548.72,469.31a4.52,4.52,0,0,1-2.33-.6,4,4,0,0,1-1.56-1.56,4.46,4.46,0,0,1-.53-2.14,4.6,4.6,0,0,1,.53-2.19,4,4,0,0,1,1.56-1.6,4.93,4.93,0,0,1,4.18-.25,3.82,3.82,0,0,1,1.38.95,4.21,4.21,0,0,1,.85,1.37,4.65,4.65,0,0,1,.26,2.35h-6.49a2.26,2.26,0,0,0,.72,1.53,2.2,2.2,0,0,0,1.51.57,2.49,2.49,0,0,0,1.22-.31,1.71,1.71,0,0,0,.77-.83l1.83.52a3.62,3.62,0,0,1-1.5,1.58A4.7,4.7,0,0,1,548.72,469.31Zm-2.19-5h4.38a2.34,2.34,0,0,0-.71-1.53,2.13,2.13,0,0,0-1.49-.58,2.09,2.09,0,0,0-1.49.59A2.27,2.27,0,0,0,546.53,464.28Z"/><path class="cls-1" d="M557.9,469.31a5.93,5.93,0,0,1-2.07-.36,4.64,4.64,0,0,1-1.66-1l.76-1.39a4.69,4.69,0,0,0,2.89,1.19,1.92,1.92,0,0,0,1-.23.74.74,0,0,0,.37-.67.52.52,0,0,0,0-.18.35.35,0,0,0-.08-.16,1.47,1.47,0,0,0-.1-.13l-.16-.11-.2-.09-.25-.1-.27-.08-.32-.1-.36-.1c-.41-.13-.74-.25-1-.35a7.76,7.76,0,0,1-.77-.37,2,2,0,0,1-.57-.45,1.68,1.68,0,0,1-.33-.55,2.07,2.07,0,0,1-.12-.73,2.37,2.37,0,0,1,.93-2,3.87,3.87,0,0,1,2.47-.74,4.46,4.46,0,0,1,3.15,1.19l-.87,1.36a4,4,0,0,0-2.38-1,1.94,1.94,0,0,0-.93.2.7.7,0,0,0-.37.67.66.66,0,0,0,.33.61,5.54,5.54,0,0,0,1.19.44c.47.14.83.25,1.1.35a6.06,6.06,0,0,1,.84.36,2.44,2.44,0,0,1,.66.46,1.78,1.78,0,0,1,.36.58,2,2,0,0,1,.14.8,2.31,2.31,0,0,1-.91,1.94A3.87,3.87,0,0,1,557.9,469.31Z"/><path class="cls-1" d="M566.19,469.31a5.91,5.91,0,0,1-2.06-.36,4.64,4.64,0,0,1-1.66-1l.76-1.39a4.67,4.67,0,0,0,2.89,1.19,1.92,1.92,0,0,0,1-.23.74.74,0,0,0,.37-.67,1,1,0,0,0,0-.18.35.35,0,0,0-.08-.16l-.1-.13a.71.71,0,0,0-.17-.11l-.19-.09-.25-.1-.27-.08-.33-.1-.35-.1c-.41-.13-.75-.25-1-.35A7.76,7.76,0,0,1,564,465a2.16,2.16,0,0,1-.58-.45,1.85,1.85,0,0,1-.32-.55,2.07,2.07,0,0,1-.12-.73,2.37,2.37,0,0,1,.93-2,3.87,3.87,0,0,1,2.47-.74,4.46,4.46,0,0,1,3.15,1.19l-.87,1.36a4,4,0,0,0-2.38-1,1.94,1.94,0,0,0-.93.2.7.7,0,0,0-.37.67.66.66,0,0,0,.33.61,5.33,5.33,0,0,0,1.19.44c.47.14.83.25,1.1.35a7.31,7.31,0,0,1,.84.36,2.44,2.44,0,0,1,.66.46,1.78,1.78,0,0,1,.36.58,2,2,0,0,1,.14.8,2.31,2.31,0,0,1-.91,1.94A3.88,3.88,0,0,1,566.19,469.31Z"/><path class="cls-1" d="M571.41,459.59v-2.12h2.14v2.12Zm0,9.56v-8.38h2.14v8.38Z"/><path class="cls-1" d="M575.35,465a4.42,4.42,0,0,1,.32-1.66,4.22,4.22,0,0,1,.86-1.39,3.9,3.9,0,0,1,1.4-.95,4.59,4.59,0,0,1,1.83-.35,4.47,4.47,0,0,1,2.33.6,4,4,0,0,1,1.53,1.59,4.48,4.48,0,0,1,.52,2.16,4.56,4.56,0,0,1-.3,1.65A4.24,4.24,0,0,1,583,468a3.82,3.82,0,0,1-1.38.95,4.88,4.88,0,0,1-3.35.12,3.81,3.81,0,0,1-1.22-.63,4.32,4.32,0,0,1-.91-.95,4,4,0,0,1-.58-1.19A4.91,4.91,0,0,1,575.35,465Zm4.41,2.51a2,2,0,0,0,1.56-.71A2.67,2.67,0,0,0,582,465a2.59,2.59,0,0,0-.63-1.79,2,2,0,0,0-1.56-.71,2,2,0,0,0-1.56.71,2.67,2.67,0,0,0-.64,1.81,2.6,2.6,0,0,0,.63,1.8A2,2,0,0,0,579.76,467.48Z"/><path class="cls-1" d="M593.77,469.15h-2.14v-4.7c0-1.3-.44-1.94-1.33-1.94a2.11,2.11,0,0,0-1.3.5,2.52,2.52,0,0,0-.88,1.24v4.9H586v-8.38h1.94v1.55a3.21,3.21,0,0,1,1.35-1.25,4.31,4.31,0,0,1,2-.45,2.68,2.68,0,0,1,1.06.19,1.89,1.89,0,0,1,.73.5,2.29,2.29,0,0,1,.44.75,3.58,3.58,0,0,1,.23.88,7.32,7.32,0,0,1,.06,1Z"/><path class="cls-1" d="M599.12,469.31a5.91,5.91,0,0,1-2.06-.36,4.55,4.55,0,0,1-1.66-1l.76-1.39a4.66,4.66,0,0,0,2.88,1.19,1.94,1.94,0,0,0,1-.23.76.76,0,0,0,.37-.67,1,1,0,0,0,0-.18.35.35,0,0,0-.08-.16l-.1-.13a1,1,0,0,0-.17-.11l-.19-.09-.25-.1-.27-.08-.33-.1-.35-.1c-.41-.13-.75-.25-1-.35a7.76,7.76,0,0,1-.77-.37,2.16,2.16,0,0,1-.58-.45A1.85,1.85,0,0,1,596,464a2.07,2.07,0,0,1-.12-.73,2.37,2.37,0,0,1,.93-2,3.86,3.86,0,0,1,2.46-.74,4.42,4.42,0,0,1,3.15,1.19l-.86,1.36a4,4,0,0,0-2.39-1,2,2,0,0,0-.93.2.71.71,0,0,0-.36.67.68.68,0,0,0,.32.61,5.47,5.47,0,0,0,1.2.44c.46.14.83.25,1.1.35a7.31,7.31,0,0,1,.84.36,2.44,2.44,0,0,1,.66.46,1.78,1.78,0,0,1,.36.58,2.16,2.16,0,0,1,.14.8,2.31,2.31,0,0,1-.91,1.94A3.9,3.9,0,0,1,599.12,469.31Z"/><path class="cls-2" d="M765.42,399.79H12.35a1,1,0,0,1,0-2H765.42a1,1,0,0,1,0,2Z"/><path class="cls-1" d="M36.59,6.29A4.39,4.39,0,0,1,38,9.63a4.71,4.71,0,0,1-.69,2.51,5,5,0,0,1-1.92,1.8,5.64,5.64,0,0,1-2.72.66,4.77,4.77,0,0,1-4-1.78,7.75,7.75,0,0,1-1.42-5,9.39,9.39,0,0,1,1.52-5.73A4.93,4.93,0,0,1,33,.09a5.79,5.79,0,0,1,2.48.54,6,6,0,0,1,2,1.56l-1.82,2a3.63,3.63,0,0,0-1.23-1A3.38,3.38,0,0,0,33,2.86a2.34,2.34,0,0,0-1.9.85,3.74,3.74,0,0,0-.74,2.37A3.13,3.13,0,0,1,33,4.94,5.1,5.1,0,0,1,36.59,6.29Zm-5.46,4.94a2.14,2.14,0,0,0,1.57.67,2.11,2.11,0,0,0,1.57-.67,2.18,2.18,0,0,0,.67-1.6,2,2,0,0,0-.66-1.53,2.15,2.15,0,0,0-1.58-.64,2.19,2.19,0,0,0-1.59.64,2.06,2.06,0,0,0-.65,1.53A2.18,2.18,0,0,0,31.13,11.23Z"/><path class="cls-1" d="M49,6.29a4.4,4.4,0,0,1,1.45,3.34,4.72,4.72,0,0,1-.7,2.51,4.9,4.9,0,0,1-1.92,1.8,5.6,5.6,0,0,1-2.71.66,4.77,4.77,0,0,1-3.95-1.78,7.75,7.75,0,0,1-1.43-5,9.45,9.45,0,0,1,1.52-5.73,4.94,4.94,0,0,1,4.19-2,5.79,5.79,0,0,1,2.48.54,6,6,0,0,1,2,1.56l-1.83,2a3.63,3.63,0,0,0-1.23-1,3.36,3.36,0,0,0-1.52-.36,2.33,2.33,0,0,0-1.9.85,3.81,3.81,0,0,0-.75,2.37,3.14,3.14,0,0,1,2.67-1.14A5.08,5.08,0,0,1,49,6.29ZM43.5,11.23a2.16,2.16,0,0,0,1.58.67,2.13,2.13,0,0,0,1.57-.67,2.22,2.22,0,0,0,.67-1.6,2,2,0,0,0-.66-1.53,2.17,2.17,0,0,0-1.58-.64,2.19,2.19,0,0,0-1.59.64,2,2,0,0,0-.66,1.53A2.22,2.22,0,0,0,43.5,11.23Z"/><path class="cls-1" d="M52.31,14.4V11.14H55V14.4Z"/><path class="cls-1" d="M61.5,14.52a5.85,5.85,0,0,1-4.91-2l1.69-2.26a3.44,3.44,0,0,0,1.25,1,4.14,4.14,0,0,0,1.82.37,3.22,3.22,0,0,0,1.77-.41,1.4,1.4,0,0,0,.62-1.23c0-1.17-1.05-1.76-3.16-1.76h-.65V5.89h.69a3.86,3.86,0,0,0,2-.45,1.36,1.36,0,0,0,.74-1.23,1.27,1.27,0,0,0-.51-1.06,2.07,2.07,0,0,0-1.3-.39A3,3,0,0,0,60,3.18a3.22,3.22,0,0,0-1.14,1.15L56.74,2A4.64,4.64,0,0,1,58.84.58a8.47,8.47,0,0,1,3-.53,6,6,0,0,1,3.6,1,3.13,3.13,0,0,1,1.38,2.63,3.15,3.15,0,0,1-.75,2.08A3.38,3.38,0,0,1,64.16,6.9a3.42,3.42,0,0,1,2.13,1.23,3.65,3.65,0,0,1,.83,2.38,3.4,3.4,0,0,1-1.55,2.93A7,7,0,0,1,61.5,14.52Z"/><path class="cls-1" d="M68.69,3.09A2.82,2.82,0,0,1,69.7.9,3.6,3.6,0,0,1,72.17,0a3.55,3.55,0,0,1,2.46.9,2.82,2.82,0,0,1,1,2.19,2.8,2.8,0,0,1-1,2.19,3.55,3.55,0,0,1-2.46.9,3.6,3.6,0,0,1-2.47-.9A2.8,2.8,0,0,1,68.69,3.09Zm1.4,10.19,5.73-6.47L81,0,82.5,1.31,77,7.63l-5.42,7ZM73,4.17a1.68,1.68,0,0,0,.36-1.08A1.64,1.64,0,0,0,73,2a1.08,1.08,0,0,0-.86-.45A1.06,1.06,0,0,0,71.3,2a1.67,1.67,0,0,0-.36,1.07,1.68,1.68,0,0,0,.36,1.08,1,1,0,0,0,1.73,0ZM77,11.52a2.8,2.8,0,0,1,1-2.19,3.84,3.84,0,0,1,4.94,0,2.87,2.87,0,0,1,0,4.37,3.84,3.84,0,0,1-4.94,0A2.78,2.78,0,0,1,77,11.52Zm4.72,0a1.72,1.72,0,0,0-.37-1.08,1.1,1.1,0,0,0-.88-.46,1.08,1.08,0,0,0-.86.45,1.72,1.72,0,0,0-.36,1.09,1.64,1.64,0,0,0,.36,1.08,1.08,1.08,0,0,0,.86.45,1.1,1.1,0,0,0,.88-.46A1.67,1.67,0,0,0,81.67,11.52Z"/><path class="cls-1" d="M200,62.94a6.28,6.28,0,0,1-2.85-.62,4.41,4.41,0,0,1-1.93-1.73l1.82-2a4.39,4.39,0,0,0,1.37,1.13,3.53,3.53,0,0,0,1.61.41,2.13,2.13,0,0,0,1.51-.54,1.85,1.85,0,0,0,.58-1.42,1.85,1.85,0,0,0-1.92-1.93,2.27,2.27,0,0,0-1,.25,1.85,1.85,0,0,0-.73.68h-2.83l1.69-8.64h7.19v2.92h-4.83l-.43,2.42a2.13,2.13,0,0,1,1.45-.36,4.82,4.82,0,0,1,3.44,1.28,4.74,4.74,0,0,1-.19,6.79A5.77,5.77,0,0,1,200,62.94Z"/><path class="cls-1" d="M208.45,56.78A4.39,4.39,0,0,1,207,53.43a4.78,4.78,0,0,1,.7-2.52,4.9,4.9,0,0,1,1.92-1.8,5.68,5.68,0,0,1,2.73-.66,4.8,4.8,0,0,1,3.95,1.78,7.75,7.75,0,0,1,1.43,5,9.45,9.45,0,0,1-1.52,5.73A4.94,4.94,0,0,1,212,63a5.85,5.85,0,0,1-2.5-.54,5.92,5.92,0,0,1-2-1.56l1.83-2a3.64,3.64,0,0,0,1.25,1,3.31,3.31,0,0,0,1.5.36,2.33,2.33,0,0,0,1.91-.85,3.74,3.74,0,0,0,.74-2.37,3.08,3.08,0,0,1-2.65,1.16A5.1,5.1,0,0,1,208.45,56.78Zm5.46-5a2.15,2.15,0,0,0-3.14,0,2.21,2.21,0,0,0-.66,1.6,2,2,0,0,0,.65,1.53,2.31,2.31,0,0,0,3.17,0,2,2,0,0,0,.66-1.53A2.19,2.19,0,0,0,213.91,51.83Z"/><path class="cls-1" d="M219.68,62.77V59.51h2.66v3.26Z"/><path class="cls-1" d="M233.53,59.89v2.88h-8.77V59.89h2.87v-8.3a4.75,4.75,0,0,1-1.47,1.11,4.09,4.09,0,0,1-1.87.61V50.37a2.69,2.69,0,0,0,.9-.19,4.75,4.75,0,0,0,.9-.46c.27-.18.52-.37.76-.56a6.86,6.86,0,0,0,.56-.48,1.67,1.67,0,0,0,.22-.23H231V59.89Z"/><path class="cls-1" d="M234.67,51.45a2.8,2.8,0,0,1,1-2.18,3.79,3.79,0,0,1,4.93,0,2.87,2.87,0,0,1,0,4.37,3.79,3.79,0,0,1-4.93,0A2.8,2.8,0,0,1,234.67,51.45Zm1.4,10.2,5.73-6.48L247,48.38l1.46,1.29L242.93,56l-5.42,6.95ZM239,52.54a1.7,1.7,0,0,0,.36-1.09,1.68,1.68,0,0,0-.36-1.08,1.06,1.06,0,0,0-1.73,0,1.67,1.67,0,0,0-.36,1.07,1.7,1.7,0,0,0,.36,1.09,1.06,1.06,0,0,0,1.73,0Zm3.92,7.35a2.84,2.84,0,0,1,1-2.2,3.84,3.84,0,0,1,4.94,0,2.87,2.87,0,0,1,1,2.2,2.8,2.8,0,0,1-1,2.17,3.84,3.84,0,0,1-4.94,0A2.77,2.77,0,0,1,242.93,59.89Zm4.72,0a1.73,1.73,0,0,0-.37-1.09,1.12,1.12,0,0,0-.88-.46,1.09,1.09,0,0,0-.86.46,1.82,1.82,0,0,0,0,2.17,1.09,1.09,0,0,0,.86.44,1.11,1.11,0,0,0,.88-.45A1.69,1.69,0,0,0,247.65,59.89Z"/><path class="cls-1" d="M367.12,81.31a6.34,6.34,0,0,1-2.85-.62A4.46,4.46,0,0,1,362.34,79l1.83-2a4.19,4.19,0,0,0,1.36,1.12,3.45,3.45,0,0,0,1.61.42,2.16,2.16,0,0,0,1.52-.54,1.93,1.93,0,0,0-1.34-3.35,2.24,2.24,0,0,0-1,.25,1.81,1.81,0,0,0-.74.68h-2.82l1.69-8.64h7.18v2.92h-4.83l-.43,2.42a2.15,2.15,0,0,1,1.46-.36,4.79,4.79,0,0,1,3.43,1.28A4.71,4.71,0,0,1,371,80,5.71,5.71,0,0,1,367.12,81.31Z"/><path class="cls-1" d="M383.46,73a4.39,4.39,0,0,1,1.44,3.34,4.77,4.77,0,0,1-.69,2.52,5.09,5.09,0,0,1-1.92,1.79,5.63,5.63,0,0,1-2.71.66,4.79,4.79,0,0,1-4-1.78,7.75,7.75,0,0,1-1.42-5,9.39,9.39,0,0,1,1.52-5.73,4.93,4.93,0,0,1,4.18-2,5.79,5.79,0,0,1,2.48.54,6,6,0,0,1,2,1.56l-1.83,2a3.6,3.6,0,0,0-1.23-1,3.26,3.26,0,0,0-1.53-.37,2.38,2.38,0,0,0-1.9.85,3.81,3.81,0,0,0-.74,2.38,3.1,3.1,0,0,1,2.66-1.15A5.1,5.1,0,0,1,383.46,73ZM378,78a2.16,2.16,0,0,0,3.15,0,2.21,2.21,0,0,0,.66-1.6,2.06,2.06,0,0,0-.65-1.53,2.18,2.18,0,0,0-1.58-.64,2.16,2.16,0,0,0-1.59.64,2,2,0,0,0-.66,1.53A2.18,2.18,0,0,0,378,78Z"/><path class="cls-1" d="M386.8,81.14V77.88h2.67v3.26Z"/><path class="cls-1" d="M391.35,74.13a8.09,8.09,0,0,1,.28-2,7.67,7.67,0,0,1,.84-2,7.85,7.85,0,0,1,1.32-1.64,5.81,5.81,0,0,1,1.78-1.13,5.72,5.72,0,0,1,2.18-.42,5.8,5.8,0,0,1,2.28.45,5.44,5.44,0,0,1,1.8,1.19,7.61,7.61,0,0,1,1.28,1.68,7.84,7.84,0,0,1,.79,1.94,7.71,7.71,0,0,1,.26,1.93,7.85,7.85,0,0,1-.29,2.08,7.72,7.72,0,0,1-2.15,3.57,5.57,5.57,0,0,1-1.79,1.13,6,6,0,0,1-2.18.42,5.89,5.89,0,0,1-1.94-.31,5.43,5.43,0,0,1-1.6-.85A7.27,7.27,0,0,1,393,78.93a6.63,6.63,0,0,1-.9-1.51,9,9,0,0,1-.53-1.64A7.81,7.81,0,0,1,391.35,74.13Zm6.4,4.28a2.38,2.38,0,0,0,1.38-.41,2.77,2.77,0,0,0,.95-1.06,5.85,5.85,0,0,0,.52-1.37,5.92,5.92,0,0,0,.18-1.44,6.44,6.44,0,0,0-.19-1.51,5.69,5.69,0,0,0-.55-1.37,3,3,0,0,0-1-1,2.52,2.52,0,0,0-2.71,0,2.94,2.94,0,0,0-.95,1.06,5.82,5.82,0,0,0-.51,1.37,5.9,5.9,0,0,0-.18,1.43,6.33,6.33,0,0,0,.2,1.52,5.49,5.49,0,0,0,.53,1.37,2.79,2.79,0,0,0,1,1A2.36,2.36,0,0,0,397.75,78.41Z"/><path class="cls-1" d="M405.64,69.82a2.83,2.83,0,0,1,1-2.18,3.56,3.56,0,0,1,2.47-.91,3.52,3.52,0,0,1,2.46.91,2.87,2.87,0,0,1,0,4.37,3.55,3.55,0,0,1-2.46.9,3.6,3.6,0,0,1-2.47-.9A2.84,2.84,0,0,1,405.64,69.82ZM407,80l5.73-6.47L418,66.75,419.45,68l-5.55,6.32-5.42,7Zm2.94-9.1a1.72,1.72,0,0,0,.36-1.09,1.68,1.68,0,0,0-.36-1.08,1.08,1.08,0,0,0-.86-.45,1.09,1.09,0,0,0-.87.46,1.67,1.67,0,0,0-.36,1.07,1.72,1.72,0,0,0,.36,1.09,1.06,1.06,0,0,0,1.73,0Zm3.92,7.35a2.87,2.87,0,0,1,1-2.2,3.84,3.84,0,0,1,4.94,0,2.84,2.84,0,0,1,1,2.2,2.78,2.78,0,0,1-1,2.17,3.84,3.84,0,0,1-4.94,0A2.81,2.81,0,0,1,413.9,78.26Zm4.72,0a1.67,1.67,0,0,0-.37-1.09,1.12,1.12,0,0,0-.87-.46,1.06,1.06,0,0,0-.87.46,1.68,1.68,0,0,0-.36,1.09,1.63,1.63,0,0,0,.36,1.07,1.08,1.08,0,0,0,.87.45,1.11,1.11,0,0,0,.87-.45A1.64,1.64,0,0,0,418.62,78.26Z"/><path class="cls-1" d="M700.22,132.43v-3h-5.68v-2.86l6.72-8.36h2.21v8.36h1.8v2.86h-1.8v3Zm-2.44-5.84h2.81V123Z"/><path class="cls-1" d="M712.25,132.43v-3h-5.68v-2.86l6.72-8.36h2.21v8.36h1.8v2.86h-1.8v3Zm-2.44-5.84h2.81V123Z"/><path class="cls-1" d="M719.17,132.45v-3.27h2.66v3.27Z"/><path class="cls-1" d="M729.14,132.43v-3h-5.69v-2.86l6.72-8.36h2.22v8.36h1.8v2.86h-1.8v3Zm-2.45-5.84h2.82V123Z"/><path class="cls-1" d="M735.65,121.13a2.85,2.85,0,0,1,1-2.19,3.84,3.84,0,0,1,4.94,0,2.88,2.88,0,0,1,0,4.38,3.84,3.84,0,0,1-4.94,0A2.84,2.84,0,0,1,735.65,121.13Zm1.4,10.19,5.74-6.47,5.21-6.79,1.46,1.29-5.55,6.32-5.42,7Zm2.94-9.1a1.72,1.72,0,0,0,.36-1.09,1.64,1.64,0,0,0-.36-1.08,1,1,0,0,0-1.73,0,1.66,1.66,0,0,0-.35,1.07,1.72,1.72,0,0,0,.35,1.09,1.08,1.08,0,0,0,.87.45A1.06,1.06,0,0,0,740,122.22Zm3.92,7.34a2.85,2.85,0,0,1,1-2.19,3.84,3.84,0,0,1,4.94,0,2.83,2.83,0,0,1,1,2.19,2.79,2.79,0,0,1-1,2.18,3.84,3.84,0,0,1-4.94,0A2.82,2.82,0,0,1,743.91,129.56Zm4.72,0a1.67,1.67,0,0,0-.37-1.08,1.05,1.05,0,0,0-1.74,0,1.67,1.67,0,0,0-.35,1.08,1.63,1.63,0,0,0,.35,1.08,1.08,1.08,0,0,0,.87.45,1.06,1.06,0,0,0,.87-.46A1.62,1.62,0,0,0,748.63,129.56Z"/><path class="cls-1" d="M534,105.73v-3h-5.69V99.89L535,91.53h2.22v8.36H539v2.87h-1.8v3Zm-2.45-5.84h2.82V96.33Z"/><path class="cls-1" d="M542,99.76a4.36,4.36,0,0,1-1.45-3.34,4.77,4.77,0,0,1,.69-2.52,5,5,0,0,1,1.93-1.8,5.68,5.68,0,0,1,2.73-.66,4.77,4.77,0,0,1,4,1.78,7.75,7.75,0,0,1,1.42,5,9.39,9.39,0,0,1-1.52,5.73,4.91,4.91,0,0,1-4.17,2,5.9,5.9,0,0,1-2.51-.54,6,6,0,0,1-2-1.56l1.82-2a3.87,3.87,0,0,0,1.25,1,3.32,3.32,0,0,0,1.51.36,2.38,2.38,0,0,0,1.91-.85,3.75,3.75,0,0,0,.73-2.38,3,3,0,0,1-2.64,1.16A5.14,5.14,0,0,1,542,99.76Zm5.47-5a2.17,2.17,0,0,0-1.57-.68,2.12,2.12,0,0,0-1.57.68,2.2,2.2,0,0,0-.67,1.61,2,2,0,0,0,.66,1.53,2.18,2.18,0,0,0,1.58.63,2.21,2.21,0,0,0,1.58-.63,2,2,0,0,0,.66-1.53A2.2,2.2,0,0,0,547.48,94.81Z"/><path class="cls-1" d="M553.24,105.75v-3.26h2.67v3.26Z"/><path class="cls-1" d="M563.41,94.45h-6.06V91.53h11.19l-7.13,14.2h-3.67Z"/><path class="cls-1" d="M569.1,94.44a2.81,2.81,0,0,1,1-2.19,3.83,3.83,0,0,1,4.93,0,2.88,2.88,0,0,1,0,4.38,3.83,3.83,0,0,1-4.93,0A2.83,2.83,0,0,1,569.1,94.44Zm1.41,10.19,5.73-6.47,5.22-6.79,1.46,1.29L577.37,99l-5.42,7Zm2.94-9.11a1.68,1.68,0,0,0,.36-1.08,1.64,1.64,0,0,0-.36-1.08,1.08,1.08,0,0,0-.87-.45,1.06,1.06,0,0,0-.86.46,1.65,1.65,0,0,0-.36,1.07,1.68,1.68,0,0,0,.36,1.08,1,1,0,0,0,1.73,0Zm3.92,7.35a2.8,2.8,0,0,1,1-2.19,3.84,3.84,0,0,1,4.94,0,2.87,2.87,0,0,1,0,4.37,3.84,3.84,0,0,1-4.94,0A2.78,2.78,0,0,1,577.37,102.87Zm4.72,0a1.7,1.7,0,0,0-.37-1.08,1.1,1.1,0,0,0-.88-.46,1.08,1.08,0,0,0-.86.45,1.72,1.72,0,0,0-.36,1.09A1.64,1.64,0,0,0,580,104a1.08,1.08,0,0,0,.86.45,1.12,1.12,0,0,0,.88-.46A1.67,1.67,0,0,0,582.09,102.87Z"/><path class="cls-1" d="M740.55,386.67H701.88c-2.69,0-4.87-1.65-4.87-3.67h0c0-2,2.18-3.67,4.87-3.67h38.67c2.69,0,4.87,1.64,4.87,3.67h0C745.42,385,743.24,386.67,740.55,386.67Z"/><path class="cls-1" d="M740.55,373.32H701.88c-2.69,0-4.87-1.64-4.87-3.67h0c0-2,2.18-3.67,4.87-3.67h38.67c2.69,0,4.87,1.64,4.87,3.67h0C745.42,371.68,743.24,373.32,740.55,373.32Z"/><path class="cls-1" d="M740.55,360H701.88c-2.69,0-4.87-1.65-4.87-3.67h0c0-2,2.18-3.68,4.87-3.68h38.67c2.69,0,4.87,1.65,4.87,3.68h0C745.42,358.33,743.24,360,740.55,360Z"/><path class="cls-1" d="M740.55,346.63H701.88c-2.69,0-4.87-1.64-4.87-3.67h0c0-2,2.18-3.67,4.87-3.67h38.67c2.69,0,4.87,1.64,4.87,3.67h0C745.42,345,743.24,346.63,740.55,346.63Z"/><path class="cls-1" d="M740.55,333.28H701.88c-2.69,0-4.87-1.64-4.87-3.67h0c0-2,2.18-3.67,4.87-3.67h38.67c2.69,0,4.87,1.65,4.87,3.67h0C745.42,331.64,743.24,333.28,740.55,333.28Z"/><path class="cls-1" d="M740.55,319.94H701.88c-2.69,0-4.87-1.64-4.87-3.67h0c0-2,2.18-3.67,4.87-3.67h38.67c2.69,0,4.87,1.64,4.87,3.67h0C745.42,318.3,743.24,319.94,740.55,319.94Z"/><path class="cls-1" d="M740.55,306.59H701.88c-2.69,0-4.87-1.64-4.87-3.67h0c0-2,2.18-3.67,4.87-3.67h38.67c2.69,0,4.87,1.64,4.87,3.67h0C745.42,305,743.24,306.59,740.55,306.59Z"/><path class="cls-1" d="M740.55,293.25H701.88c-2.69,0-4.87-1.65-4.87-3.67h0c0-2,2.18-3.68,4.87-3.68h38.67c2.69,0,4.87,1.65,4.87,3.68h0C745.42,291.6,743.24,293.25,740.55,293.25Z"/><path class="cls-1" d="M740.55,279.9H701.88c-2.69,0-4.87-1.64-4.87-3.67h0c0-2,2.18-3.67,4.87-3.67h38.67c2.69,0,4.87,1.64,4.87,3.67h0C745.42,278.26,743.24,279.9,740.55,279.9Z"/><path class="cls-1" d="M740.55,266.55H701.88c-2.69,0-4.87-1.64-4.87-3.67h0c0-2,2.18-3.67,4.87-3.67h38.67c2.69,0,4.87,1.65,4.87,3.67h0C745.42,264.91,743.24,266.55,740.55,266.55Z"/><path class="cls-1" d="M740.55,253.21H701.88c-2.69,0-4.87-1.64-4.87-3.67h0c0-2,2.18-3.67,4.87-3.67h38.67c2.69,0,4.87,1.64,4.87,3.67h0C745.42,251.57,743.24,253.21,740.55,253.21Z"/><path class="cls-1" d="M740.55,239.86H701.88c-2.69,0-4.87-1.64-4.87-3.67h0c0-2,2.18-3.67,4.87-3.67h38.67c2.69,0,4.87,1.64,4.87,3.67h0C745.42,238.22,743.24,239.86,740.55,239.86Z"/><path class="cls-1" d="M740.55,226.52H701.88c-2.69,0-4.87-1.65-4.87-3.67h0c0-2,2.18-3.67,4.87-3.67h38.67c2.69,0,4.87,1.64,4.87,3.67h0C745.42,224.87,743.24,226.52,740.55,226.52Z"/><path class="cls-1" d="M740.55,213.17H701.88c-2.69,0-4.87-1.64-4.87-3.67h0c0-2,2.18-3.67,4.87-3.67h38.67c2.69,0,4.87,1.64,4.87,3.67h0C745.42,211.53,743.24,213.17,740.55,213.17Z"/><path class="cls-1" d="M740.55,199.83H701.88c-2.69,0-4.87-1.65-4.87-3.68h0c0-2,2.18-3.67,4.87-3.67h38.67c2.69,0,4.87,1.65,4.87,3.67h0C745.42,198.18,743.24,199.83,740.55,199.83Z"/><path class="cls-1" d="M740.55,186.48H701.88c-2.69,0-4.87-1.64-4.87-3.67h0c0-2,2.18-3.67,4.87-3.67h38.67c2.69,0,4.87,1.64,4.87,3.67h0C745.42,184.84,743.24,186.48,740.55,186.48Z"/><path class="cls-1" d="M740.55,173.13H701.88c-2.69,0-4.87-1.64-4.87-3.67h0c0-2,2.18-3.67,4.87-3.67h38.67c2.69,0,4.87,1.65,4.87,3.67h0C745.42,171.49,743.24,173.13,740.55,173.13Z"/><path class="cls-1" d="M740.55,159.79H701.88c-2.69,0-4.87-1.65-4.87-3.67h0c0-2,2.18-3.67,4.87-3.67h38.67c2.69,0,4.87,1.64,4.87,3.67h0C745.42,158.14,743.24,159.79,740.55,159.79Z"/><path class="cls-1" d="M241.78,386.67H203.11c-2.69,0-4.87-1.65-4.87-3.67h0c0-2,2.18-3.67,4.87-3.67h38.67c2.69,0,4.87,1.64,4.87,3.67h0C246.65,385,244.47,386.67,241.78,386.67Z"/><path class="cls-1" d="M241.78,373.32H203.11c-2.69,0-4.87-1.64-4.87-3.67h0c0-2,2.18-3.67,4.87-3.67h38.67c2.69,0,4.87,1.64,4.87,3.67h0C246.65,371.68,244.47,373.32,241.78,373.32Z"/><path class="cls-1" d="M241.78,360H203.11c-2.69,0-4.87-1.65-4.87-3.67h0c0-2,2.18-3.68,4.87-3.68h38.67c2.69,0,4.87,1.65,4.87,3.68h0C246.65,358.33,244.47,360,241.78,360Z"/><path class="cls-1" d="M241.78,346.63H203.11c-2.69,0-4.87-1.64-4.87-3.67h0c0-2,2.18-3.67,4.87-3.67h38.67c2.69,0,4.87,1.64,4.87,3.67h0C246.65,345,244.47,346.63,241.78,346.63Z"/><path class="cls-1" d="M241.78,333.28H203.11c-2.69,0-4.87-1.64-4.87-3.67h0c0-2,2.18-3.67,4.87-3.67h38.67c2.69,0,4.87,1.65,4.87,3.67h0C246.65,331.64,244.47,333.28,241.78,333.28Z"/><path class="cls-1" d="M241.78,319.94H203.11c-2.69,0-4.87-1.64-4.87-3.67h0c0-2,2.18-3.67,4.87-3.67h38.67c2.69,0,4.87,1.64,4.87,3.67h0C246.65,318.3,244.47,319.94,241.78,319.94Z"/><path class="cls-1" d="M241.78,306.59H203.11c-2.69,0-4.87-1.64-4.87-3.67h0c0-2,2.18-3.67,4.87-3.67h38.67c2.69,0,4.87,1.64,4.87,3.67h0C246.65,305,244.47,306.59,241.78,306.59Z"/><path class="cls-1" d="M241.78,293.25H203.11c-2.69,0-4.87-1.65-4.87-3.67h0c0-2,2.18-3.68,4.87-3.68h38.67c2.69,0,4.87,1.65,4.87,3.68h0C246.65,291.6,244.47,293.25,241.78,293.25Z"/><path class="cls-1" d="M241.78,279.9H203.11c-2.69,0-4.87-1.64-4.87-3.67h0c0-2,2.18-3.67,4.87-3.67h38.67c2.69,0,4.87,1.64,4.87,3.67h0C246.65,278.26,244.47,279.9,241.78,279.9Z"/><path class="cls-1" d="M241.78,266.55H203.11c-2.69,0-4.87-1.64-4.87-3.67h0c0-2,2.18-3.67,4.87-3.67h38.67c2.69,0,4.87,1.65,4.87,3.67h0C246.65,264.91,244.47,266.55,241.78,266.55Z"/><path class="cls-1" d="M241.78,253.21H203.11c-2.69,0-4.87-1.64-4.87-3.67h0c0-2,2.18-3.67,4.87-3.67h38.67c2.69,0,4.87,1.64,4.87,3.67h0C246.65,251.57,244.47,253.21,241.78,253.21Z"/><path class="cls-1" d="M241.78,239.86H203.11c-2.69,0-4.87-1.64-4.87-3.67h0c0-2,2.18-3.67,4.87-3.67h38.67c2.69,0,4.87,1.64,4.87,3.67h0C246.65,238.22,244.47,239.86,241.78,239.86Z"/><path class="cls-1" d="M241.78,226.52H203.11c-2.69,0-4.87-1.65-4.87-3.67h0c0-2,2.18-3.67,4.87-3.67h38.67c2.69,0,4.87,1.64,4.87,3.67h0C246.65,224.87,244.47,226.52,241.78,226.52Z"/><path class="cls-1" d="M241.78,213.17H203.11c-2.69,0-4.87-1.64-4.87-3.67h0c0-2,2.18-3.67,4.87-3.67h38.67c2.69,0,4.87,1.64,4.87,3.67h0C246.65,211.53,244.47,213.17,241.78,213.17Z"/><path class="cls-1" d="M241.78,199.83H203.11c-2.69,0-4.87-1.65-4.87-3.68h0c0-2,2.18-3.67,4.87-3.67h38.67c2.69,0,4.87,1.65,4.87,3.67h0C246.65,198.18,244.47,199.83,241.78,199.83Z"/><path class="cls-1" d="M241.78,186.48H203.11c-2.69,0-4.87-1.64-4.87-3.67h0c0-2,2.18-3.67,4.87-3.67h38.67c2.69,0,4.87,1.64,4.87,3.67h0C246.65,184.84,244.47,186.48,241.78,186.48Z"/><path class="cls-1" d="M241.78,173.13H203.11c-2.69,0-4.87-1.64-4.87-3.67h0c0-2,2.18-3.67,4.87-3.67h38.67c2.69,0,4.87,1.65,4.87,3.67h0C246.65,171.49,244.47,173.13,241.78,173.13Z"/><path class="cls-1" d="M241.78,159.79H203.11c-2.69,0-4.87-1.65-4.87-3.67h0c0-2,2.18-3.67,4.87-3.67h38.67c2.69,0,4.87,1.64,4.87,3.67h0C246.65,158.14,244.47,159.79,241.78,159.79Z"/><path class="cls-1" d="M241.78,146.44H203.11c-2.69,0-4.87-1.64-4.87-3.67h0c0-2,2.18-3.67,4.87-3.67h38.67c2.69,0,4.87,1.64,4.87,3.67h0C246.65,144.8,244.47,146.44,241.78,146.44Z"/><path class="cls-1" d="M241.78,133.1H203.11c-2.69,0-4.87-1.65-4.87-3.68h0c0-2,2.18-3.67,4.87-3.67h38.67c2.69,0,4.87,1.65,4.87,3.67h0C246.65,131.45,244.47,133.1,241.78,133.1Z"/><path class="cls-1" d="M241.78,119.75H203.11c-2.69,0-4.87-1.64-4.87-3.67h0c0-2,2.18-3.67,4.87-3.67h38.67c2.69,0,4.87,1.64,4.87,3.67h0C246.65,118.11,244.47,119.75,241.78,119.75Z"/><path class="cls-1" d="M241.78,106.4H203.11c-2.69,0-4.87-1.64-4.87-3.67h0c0-2,2.18-3.67,4.87-3.67h38.67c2.69,0,4.87,1.65,4.87,3.67h0C246.65,104.76,244.47,106.4,241.78,106.4Z"/><path class="cls-1" d="M241.78,93.06H203.11c-2.69,0-4.87-1.65-4.87-3.67h0c0-2,2.18-3.67,4.87-3.67h38.67c2.69,0,4.87,1.64,4.87,3.67h0C246.65,91.41,244.47,93.06,241.78,93.06Z"/><path class="cls-1" d="M408,386.67H369.37c-2.69,0-4.87-1.65-4.87-3.67h0c0-2,2.18-3.67,4.87-3.67H408c2.68,0,4.86,1.64,4.86,3.67h0C412.9,385,410.72,386.67,408,386.67Z"/><path class="cls-1" d="M408,373.32H369.37c-2.69,0-4.87-1.64-4.87-3.67h0c0-2,2.18-3.67,4.87-3.67H408c2.68,0,4.86,1.64,4.86,3.67h0C412.9,371.68,410.72,373.32,408,373.32Z"/><path class="cls-1" d="M408,360H369.37c-2.69,0-4.87-1.65-4.87-3.67h0c0-2,2.18-3.68,4.87-3.68H408c2.68,0,4.86,1.65,4.86,3.68h0C412.9,358.33,410.72,360,408,360Z"/><path class="cls-1" d="M408,346.63H369.37c-2.69,0-4.87-1.64-4.87-3.67h0c0-2,2.18-3.67,4.87-3.67H408c2.68,0,4.86,1.64,4.86,3.67h0C412.9,345,410.72,346.63,408,346.63Z"/><path class="cls-1" d="M408,333.28H369.37c-2.69,0-4.87-1.64-4.87-3.67h0c0-2,2.18-3.67,4.87-3.67H408c2.68,0,4.86,1.65,4.86,3.67h0C412.9,331.64,410.72,333.28,408,333.28Z"/><path class="cls-1" d="M408,319.94H369.37c-2.69,0-4.87-1.64-4.87-3.67h0c0-2,2.18-3.67,4.87-3.67H408c2.68,0,4.86,1.64,4.86,3.67h0C412.9,318.3,410.72,319.94,408,319.94Z"/><path class="cls-1" d="M408,306.59H369.37c-2.69,0-4.87-1.64-4.87-3.67h0c0-2,2.18-3.67,4.87-3.67H408c2.68,0,4.86,1.64,4.86,3.67h0C412.9,305,410.72,306.59,408,306.59Z"/><path class="cls-1" d="M408,293.25H369.37c-2.69,0-4.87-1.65-4.87-3.67h0c0-2,2.18-3.68,4.87-3.68H408c2.68,0,4.86,1.65,4.86,3.68h0C412.9,291.6,410.72,293.25,408,293.25Z"/><path class="cls-1" d="M408,279.9H369.37c-2.69,0-4.87-1.64-4.87-3.67h0c0-2,2.18-3.67,4.87-3.67H408c2.68,0,4.86,1.64,4.86,3.67h0C412.9,278.26,410.72,279.9,408,279.9Z"/><path class="cls-1" d="M408,266.55H369.37c-2.69,0-4.87-1.64-4.87-3.67h0c0-2,2.18-3.67,4.87-3.67H408c2.68,0,4.86,1.65,4.86,3.67h0C412.9,264.91,410.72,266.55,408,266.55Z"/><path class="cls-1" d="M408,253.21H369.37c-2.69,0-4.87-1.64-4.87-3.67h0c0-2,2.18-3.67,4.87-3.67H408c2.68,0,4.86,1.64,4.86,3.67h0C412.9,251.57,410.72,253.21,408,253.21Z"/><path class="cls-1" d="M408,239.86H369.37c-2.69,0-4.87-1.64-4.87-3.67h0c0-2,2.18-3.67,4.87-3.67H408c2.68,0,4.86,1.64,4.86,3.67h0C412.9,238.22,410.72,239.86,408,239.86Z"/><path class="cls-1" d="M408,226.52H369.37c-2.69,0-4.87-1.65-4.87-3.67h0c0-2,2.18-3.67,4.87-3.67H408c2.68,0,4.86,1.64,4.86,3.67h0C412.9,224.87,410.72,226.52,408,226.52Z"/><path class="cls-1" d="M408,213.17H369.37c-2.69,0-4.87-1.64-4.87-3.67h0c0-2,2.18-3.67,4.87-3.67H408c2.68,0,4.86,1.64,4.86,3.67h0C412.9,211.53,410.72,213.17,408,213.17Z"/><path class="cls-1" d="M408,199.83H369.37c-2.69,0-4.87-1.65-4.87-3.68h0c0-2,2.18-3.67,4.87-3.67H408c2.68,0,4.86,1.65,4.86,3.67h0C412.9,198.18,410.72,199.83,408,199.83Z"/><path class="cls-1" d="M408,186.48H369.37c-2.69,0-4.87-1.64-4.87-3.67h0c0-2,2.18-3.67,4.87-3.67H408c2.68,0,4.86,1.64,4.86,3.67h0C412.9,184.84,410.72,186.48,408,186.48Z"/><path class="cls-1" d="M408,173.13H369.37c-2.69,0-4.87-1.64-4.87-3.67h0c0-2,2.18-3.67,4.87-3.67H408c2.68,0,4.86,1.65,4.86,3.67h0C412.9,171.49,410.72,173.13,408,173.13Z"/><path class="cls-1" d="M408,159.79H369.37c-2.69,0-4.87-1.65-4.87-3.67h0c0-2,2.18-3.67,4.87-3.67H408c2.68,0,4.86,1.64,4.86,3.67h0C412.9,158.14,410.72,159.79,408,159.79Z"/><path class="cls-1" d="M408,146.44H369.37c-2.69,0-4.87-1.64-4.87-3.67h0c0-2,2.18-3.67,4.87-3.67H408c2.68,0,4.86,1.64,4.86,3.67h0C412.9,144.8,410.72,146.44,408,146.44Z"/><path class="cls-1" d="M408,133.1H369.37c-2.69,0-4.87-1.65-4.87-3.68h0c0-2,2.18-3.67,4.87-3.67H408c2.68,0,4.86,1.65,4.86,3.67h0C412.9,131.45,410.72,133.1,408,133.1Z"/><path class="cls-1" d="M408,119.75H369.37c-2.69,0-4.87-1.64-4.87-3.67h0c0-2,2.18-3.67,4.87-3.67H408c2.68,0,4.86,1.64,4.86,3.67h0C412.9,118.11,410.72,119.75,408,119.75Z"/><path class="cls-1" d="M408,106.4H369.37c-2.69,0-4.87-1.64-4.87-3.67h0c0-2,2.18-3.67,4.87-3.67H408c2.68,0,4.86,1.65,4.86,3.67h0C412.9,104.76,410.72,106.4,408,106.4Z"/><path class="cls-1" d="M574.29,386.67H535.62c-2.68,0-4.86-1.65-4.86-3.67h0c0-2,2.18-3.67,4.86-3.67h38.67c2.69,0,4.87,1.64,4.87,3.67h0C579.16,385,577,386.67,574.29,386.67Z"/><path class="cls-1" d="M574.29,373.32H535.62c-2.68,0-4.86-1.64-4.86-3.67h0c0-2,2.18-3.67,4.86-3.67h38.67c2.69,0,4.87,1.64,4.87,3.67h0C579.16,371.68,577,373.32,574.29,373.32Z"/><path class="cls-1" d="M574.29,360H535.62c-2.68,0-4.86-1.65-4.86-3.67h0c0-2,2.18-3.68,4.86-3.68h38.67c2.69,0,4.87,1.65,4.87,3.68h0C579.16,358.33,577,360,574.29,360Z"/><path class="cls-1" d="M574.29,346.63H535.62c-2.68,0-4.86-1.64-4.86-3.67h0c0-2,2.18-3.67,4.86-3.67h38.67c2.69,0,4.87,1.64,4.87,3.67h0C579.16,345,577,346.63,574.29,346.63Z"/><path class="cls-1" d="M574.29,333.28H535.62c-2.68,0-4.86-1.64-4.86-3.67h0c0-2,2.18-3.67,4.86-3.67h38.67c2.69,0,4.87,1.65,4.87,3.67h0C579.16,331.64,577,333.28,574.29,333.28Z"/><path class="cls-1" d="M574.29,319.94H535.62c-2.68,0-4.86-1.64-4.86-3.67h0c0-2,2.18-3.67,4.86-3.67h38.67c2.69,0,4.87,1.64,4.87,3.67h0C579.16,318.3,577,319.94,574.29,319.94Z"/><path class="cls-1" d="M574.29,306.59H535.62c-2.68,0-4.86-1.64-4.86-3.67h0c0-2,2.18-3.67,4.86-3.67h38.67c2.69,0,4.87,1.64,4.87,3.67h0C579.16,305,577,306.59,574.29,306.59Z"/><path class="cls-1" d="M574.29,293.25H535.62c-2.68,0-4.86-1.65-4.86-3.67h0c0-2,2.18-3.68,4.86-3.68h38.67c2.69,0,4.87,1.65,4.87,3.68h0C579.16,291.6,577,293.25,574.29,293.25Z"/><path class="cls-1" d="M574.29,279.9H535.62c-2.68,0-4.86-1.64-4.86-3.67h0c0-2,2.18-3.67,4.86-3.67h38.67c2.69,0,4.87,1.64,4.87,3.67h0C579.16,278.26,577,279.9,574.29,279.9Z"/><path class="cls-1" d="M574.29,266.55H535.62c-2.68,0-4.86-1.64-4.86-3.67h0c0-2,2.18-3.67,4.86-3.67h38.67c2.69,0,4.87,1.65,4.87,3.67h0C579.16,264.91,577,266.55,574.29,266.55Z"/><path class="cls-1" d="M574.29,253.21H535.62c-2.68,0-4.86-1.64-4.86-3.67h0c0-2,2.18-3.67,4.86-3.67h38.67c2.69,0,4.87,1.64,4.87,3.67h0C579.16,251.57,577,253.21,574.29,253.21Z"/><path class="cls-1" d="M574.29,239.86H535.62c-2.68,0-4.86-1.64-4.86-3.67h0c0-2,2.18-3.67,4.86-3.67h38.67c2.69,0,4.87,1.64,4.87,3.67h0C579.16,238.22,577,239.86,574.29,239.86Z"/><path class="cls-1" d="M574.29,226.64H535.62c-2.68,0-4.86-1.65-4.86-3.67h0c0-2,2.18-3.67,4.86-3.67h38.67c2.69,0,4.87,1.64,4.87,3.67h0C579.16,225,577,226.64,574.29,226.64Z"/><path class="cls-1" d="M574.29,213.29H535.62c-2.68,0-4.86-1.64-4.86-3.67h0c0-2,2.18-3.67,4.86-3.67h38.67c2.69,0,4.87,1.64,4.87,3.67h0C579.16,211.65,577,213.29,574.29,213.29Z"/><path class="cls-1" d="M574.29,200H535.62c-2.68,0-4.86-1.65-4.86-3.67h0c0-2,2.18-3.68,4.86-3.68h38.67c2.69,0,4.87,1.65,4.87,3.68h0C579.16,198.3,577,200,574.29,200Z"/><path class="cls-1" d="M574.29,186.6H535.62c-2.68,0-4.86-1.64-4.86-3.67h0c0-2,2.18-3.67,4.86-3.67h38.67c2.69,0,4.87,1.64,4.87,3.67h0C579.16,185,577,186.6,574.29,186.6Z"/><path class="cls-1" d="M574.29,173.25H535.62c-2.68,0-4.86-1.64-4.86-3.67h0c0-2,2.18-3.67,4.86-3.67h38.67c2.69,0,4.87,1.65,4.87,3.67h0C579.16,171.61,577,173.25,574.29,173.25Z"/><path class="cls-1" d="M574.29,159.91H535.62c-2.68,0-4.86-1.65-4.86-3.67h0c0-2,2.18-3.67,4.86-3.67h38.67c2.69,0,4.87,1.64,4.87,3.67h0C579.16,158.26,577,159.91,574.29,159.91Z"/><path class="cls-1" d="M574.29,146.56H535.62c-2.68,0-4.86-1.64-4.86-3.67h0c0-2,2.18-3.67,4.86-3.67h38.67c2.69,0,4.87,1.64,4.87,3.67h0C579.16,144.92,577,146.56,574.29,146.56Z"/><path class="cls-1" d="M574.29,133.22H535.62c-2.68,0-4.86-1.65-4.86-3.67h0c0-2,2.18-3.68,4.86-3.68h38.67c2.69,0,4.87,1.65,4.87,3.68h0C579.16,131.57,577,133.22,574.29,133.22Z"/><path class="cls-1" d="M75.52,386.67H36.86C34.17,386.67,32,385,32,383h0c0-2,2.18-3.67,4.87-3.67H75.52c2.69,0,4.87,1.64,4.87,3.67h0C80.39,385,78.21,386.67,75.52,386.67Z"/><path class="cls-1" d="M75.52,373.32H36.86c-2.69,0-4.87-1.64-4.87-3.67h0c0-2,2.18-3.67,4.87-3.67H75.52c2.69,0,4.87,1.64,4.87,3.67h0C80.39,371.68,78.21,373.32,75.52,373.32Z"/><path class="cls-1" d="M75.52,360H36.86c-2.69,0-4.87-1.65-4.87-3.67h0c0-2,2.18-3.68,4.87-3.68H75.52c2.69,0,4.87,1.65,4.87,3.68h0C80.39,358.33,78.21,360,75.52,360Z"/><path class="cls-1" d="M75.52,346.63H36.86C34.17,346.63,32,345,32,343h0c0-2,2.18-3.67,4.87-3.67H75.52c2.69,0,4.87,1.64,4.87,3.67h0C80.39,345,78.21,346.63,75.52,346.63Z"/><path class="cls-1" d="M75.52,333.28H36.86c-2.69,0-4.87-1.64-4.87-3.67h0c0-2,2.18-3.67,4.87-3.67H75.52c2.69,0,4.87,1.65,4.87,3.67h0C80.39,331.64,78.21,333.28,75.52,333.28Z"/><path class="cls-1" d="M75.52,319.94H36.86c-2.69,0-4.87-1.64-4.87-3.67h0c0-2,2.18-3.67,4.87-3.67H75.52c2.69,0,4.87,1.64,4.87,3.67h0C80.39,318.3,78.21,319.94,75.52,319.94Z"/><path class="cls-1" d="M75.52,306.59H36.86c-2.69,0-4.87-1.64-4.87-3.67h0c0-2,2.18-3.67,4.87-3.67H75.52c2.69,0,4.87,1.64,4.87,3.67h0C80.39,305,78.21,306.59,75.52,306.59Z"/><path class="cls-1" d="M75.52,293.25H36.86c-2.69,0-4.87-1.65-4.87-3.67h0c0-2,2.18-3.68,4.87-3.68H75.52c2.69,0,4.87,1.65,4.87,3.68h0C80.39,291.6,78.21,293.25,75.52,293.25Z"/><path class="cls-1" d="M75.52,279.9H36.86c-2.69,0-4.87-1.64-4.87-3.67h0c0-2,2.18-3.67,4.87-3.67H75.52c2.69,0,4.87,1.64,4.87,3.67h0C80.39,278.26,78.21,279.9,75.52,279.9Z"/><path class="cls-1" d="M75.52,266.55H36.86c-2.69,0-4.87-1.64-4.87-3.67h0c0-2,2.18-3.67,4.87-3.67H75.52c2.69,0,4.87,1.65,4.87,3.67h0C80.39,264.91,78.21,266.55,75.52,266.55Z"/><path class="cls-1" d="M75.52,253.21H36.86c-2.69,0-4.87-1.64-4.87-3.67h0c0-2,2.18-3.67,4.87-3.67H75.52c2.69,0,4.87,1.64,4.87,3.67h0C80.39,251.57,78.21,253.21,75.52,253.21Z"/><path class="cls-1" d="M75.52,239.86H36.86c-2.69,0-4.87-1.64-4.87-3.67h0c0-2,2.18-3.67,4.87-3.67H75.52c2.69,0,4.87,1.64,4.87,3.67h0C80.39,238.22,78.21,239.86,75.52,239.86Z"/><path class="cls-1" d="M75.52,226.52H36.86c-2.69,0-4.87-1.65-4.87-3.67h0c0-2,2.18-3.67,4.87-3.67H75.52c2.69,0,4.87,1.64,4.87,3.67h0C80.39,224.87,78.21,226.52,75.52,226.52Z"/><path class="cls-1" d="M75.52,213.17H36.86c-2.69,0-4.87-1.64-4.87-3.67h0c0-2,2.18-3.67,4.87-3.67H75.52c2.69,0,4.87,1.64,4.87,3.67h0C80.39,211.53,78.21,213.17,75.52,213.17Z"/><path class="cls-1" d="M75.52,199.83H36.86c-2.69,0-4.87-1.65-4.87-3.68h0c0-2,2.18-3.67,4.87-3.67H75.52c2.69,0,4.87,1.65,4.87,3.67h0C80.39,198.18,78.21,199.83,75.52,199.83Z"/><path class="cls-1" d="M75.52,186.48H36.86c-2.69,0-4.87-1.64-4.87-3.67h0c0-2,2.18-3.67,4.87-3.67H75.52c2.69,0,4.87,1.64,4.87,3.67h0C80.39,184.84,78.21,186.48,75.52,186.48Z"/><path class="cls-1" d="M75.52,173.13H36.86c-2.69,0-4.87-1.64-4.87-3.67h0c0-2,2.18-3.67,4.87-3.67H75.52c2.69,0,4.87,1.65,4.87,3.67h0C80.39,171.49,78.21,173.13,75.52,173.13Z"/><path class="cls-1" d="M75.52,159.79H36.86c-2.69,0-4.87-1.65-4.87-3.67h0c0-2,2.18-3.67,4.87-3.67H75.52c2.69,0,4.87,1.64,4.87,3.67h0C80.39,158.14,78.21,159.79,75.52,159.79Z"/><path class="cls-1" d="M75.52,146.44H36.86c-2.69,0-4.87-1.64-4.87-3.67h0c0-2,2.18-3.67,4.87-3.67H75.52c2.69,0,4.87,1.64,4.87,3.67h0C80.39,144.8,78.21,146.44,75.52,146.44Z"/><path class="cls-1" d="M75.52,133.1H36.86c-2.69,0-4.87-1.65-4.87-3.68h0c0-2,2.18-3.67,4.87-3.67H75.52c2.69,0,4.87,1.65,4.87,3.67h0C80.39,131.45,78.21,133.1,75.52,133.1Z"/><path class="cls-1" d="M75.52,119.75H36.86c-2.69,0-4.87-1.64-4.87-3.67h0c0-2,2.18-3.67,4.87-3.67H75.52c2.69,0,4.87,1.64,4.87,3.67h0C80.39,118.11,78.21,119.75,75.52,119.75Z"/><path class="cls-1" d="M75.52,106.4H36.86c-2.69,0-4.87-1.64-4.87-3.67h0c0-2,2.18-3.67,4.87-3.67H75.52c2.69,0,4.87,1.65,4.87,3.67h0C80.39,104.76,78.21,106.4,75.52,106.4Z"/><path class="cls-1" d="M75.52,93.06H36.86c-2.69,0-4.87-1.65-4.87-3.67h0c0-2,2.18-3.67,4.87-3.67H75.52c2.69,0,4.87,1.64,4.87,3.67h0C80.39,91.41,78.21,93.06,75.52,93.06Z"/><path class="cls-1" d="M75.52,79.71H36.86C34.17,79.71,32,78.07,32,76h0c0-2,2.18-3.67,4.87-3.67H75.52c2.69,0,4.87,1.64,4.87,3.67h0C80.39,78.07,78.21,79.71,75.52,79.71Z"/><path class="cls-1" d="M75.52,66.37H36.86c-2.69,0-4.87-1.65-4.87-3.68h0c0-2,2.18-3.67,4.87-3.67H75.52c2.69,0,4.87,1.65,4.87,3.67h0C80.39,64.72,78.21,66.37,75.52,66.37Z"/><path class="cls-1" d="M75.52,53H36.86C34.17,53,32,51.38,32,49.35h0c0-2,2.18-3.67,4.87-3.67H75.52c2.69,0,4.87,1.64,4.87,3.67h0C80.39,51.38,78.21,53,75.52,53Z"/></g></g></svg>