<svg xmlns="http://www.w3.org/2000/svg" viewBox="0 0 799.06 517.7"><defs><style>.cls-1{fill:#00324a;}.cls-2{fill:#fff;}</style></defs><title>9</title><g id="Capa_2" data-name="Capa 2"><g id="Layer_1" data-name="Layer 1"><path class="cls-1" d="M30.14,479.52V466.74h8.58v2.18h-6.1v3.3H37.7v2H32.62v5.29Z"/><path class="cls-1" d="M39.26,476.74a2.63,2.63,0,0,1,1.12-2.22,4.72,4.72,0,0,1,2.93-.85,6,6,0,0,1,2.27.38v-.5a1.79,1.79,0,0,0-.53-1.39,2.32,2.32,0,0,0-1.58-.49,4,4,0,0,0-1.44.26,7.82,7.82,0,0,0-1.51.81l-.78-1.58a7.19,7.19,0,0,1,4-1.23,4.48,4.48,0,0,1,3.14,1A3.66,3.66,0,0,1,48,473.82v3a.85.85,0,0,0,.14.55.55.55,0,0,0,.44.19v2a4.73,4.73,0,0,1-1,.13,1.71,1.71,0,0,1-1.08-.31,1.29,1.29,0,0,1-.47-.81l-.05-.48a4.22,4.22,0,0,1-1.53,1.21,4.34,4.34,0,0,1-1.87.44,3.37,3.37,0,0,1-2.35-.84A2.75,2.75,0,0,1,39.26,476.74Zm5.87.48a1.24,1.24,0,0,0,.45-.83v-.95a4.83,4.83,0,0,0-1.89-.38,2.63,2.63,0,0,0-1.55.41,1.24,1.24,0,0,0-.6,1.06,1.26,1.26,0,0,0,.46,1,1.72,1.72,0,0,0,1.22.42,2.92,2.92,0,0,0,1.05-.2A2.54,2.54,0,0,0,45.13,477.22Z"/><path class="cls-1" d="M57.13,479.52l-2.75-4.07-1.29,1.27v2.8H50.68V466.38h2.41v8l3.8-4.23h2.56l-3.51,4,3.76,5.41Z"/><path class="cls-1" d="M65.06,479.7a5.06,5.06,0,0,1-2.62-.67,4.48,4.48,0,0,1-1.75-1.76,4.92,4.92,0,0,1-.6-2.41,5.15,5.15,0,0,1,.6-2.46,4.52,4.52,0,0,1,1.75-1.8,5.11,5.11,0,0,1,2.64-.67,5.29,5.29,0,0,1,2.06.39,4.29,4.29,0,0,1,1.56,1.07,5,5,0,0,1,1,1.54,5.14,5.14,0,0,1,.34,1.84,4.47,4.47,0,0,1-.06.81H62.65a2.48,2.48,0,0,0,.81,1.71,2.41,2.41,0,0,0,1.69.65,2.85,2.85,0,0,0,1.37-.35,1.87,1.87,0,0,0,.86-.93l2.07.58A4.07,4.07,0,0,1,67.76,479,5.31,5.31,0,0,1,65.06,479.7Zm-2.47-5.65h4.94a2.65,2.65,0,0,0-.8-1.72,2.46,2.46,0,0,0-3.35,0A2.55,2.55,0,0,0,62.59,474.05Z"/><path class="cls-1" d="M85.44,479.52H83v-5.29c0-1.45-.49-2.18-1.49-2.18a2.4,2.4,0,0,0-1.47.56,2.83,2.83,0,0,0-1,1.4v5.51H76.68v-9.43h2.18v1.75a3.62,3.62,0,0,1,1.52-1.4,4.83,4.83,0,0,1,2.22-.51,3.14,3.14,0,0,1,1.2.21,2.17,2.17,0,0,1,.82.56,2.68,2.68,0,0,1,.5.84,4.76,4.76,0,0,1,.26,1,9.18,9.18,0,0,1,.06,1.09Z"/><path class="cls-1" d="M92.37,479.7a5.09,5.09,0,0,1-2.63-.67A4.48,4.48,0,0,1,88,477.27a4.92,4.92,0,0,1-.6-2.41,5.15,5.15,0,0,1,.6-2.46,4.52,4.52,0,0,1,1.75-1.8,5.14,5.14,0,0,1,2.65-.67,5.32,5.32,0,0,1,2.06.39A4.34,4.34,0,0,1,96,471.39a4.65,4.65,0,0,1,1,1.54,4.93,4.93,0,0,1,.34,1.84,5.82,5.82,0,0,1,0,.81H90a2.48,2.48,0,0,0,.81,1.71,2.43,2.43,0,0,0,1.7.65,2.81,2.81,0,0,0,1.36-.35,1.85,1.85,0,0,0,.87-.93l2.07.58a4.1,4.1,0,0,1-1.7,1.78A5.24,5.24,0,0,1,92.37,479.7Zm-2.47-5.65h4.93a2.65,2.65,0,0,0-.8-1.72,2.46,2.46,0,0,0-3.35,0A2.59,2.59,0,0,0,89.9,474.05Z"/><path class="cls-1" d="M110.64,470.09h2.29L109,479.52h-2l-1.58-4-1.55,4h-2l-3.93-9.43h2.27l2.81,7.13,1.1-3.08-1.64-4h2l1,2.88,1-2.88h2l-1.64,4,1.12,3.08Z"/><path class="cls-1" d="M117.73,479.7a6.62,6.62,0,0,1-2.32-.41,5,5,0,0,1-1.87-1.16l.86-1.56a5.28,5.28,0,0,0,3.24,1.34,2.15,2.15,0,0,0,1.13-.26.85.85,0,0,0,.42-.75,1.25,1.25,0,0,0,0-.21.76.76,0,0,0-.09-.18l-.12-.14a.62.62,0,0,0-.19-.13l-.22-.11-.28-.1-.3-.1-.36-.1-.4-.12c-.46-.15-.84-.28-1.14-.4a6.13,6.13,0,0,1-.86-.41,2.57,2.57,0,0,1-.65-.5,1.93,1.93,0,0,1-.37-.62,2.41,2.41,0,0,1-.14-.83,2.68,2.68,0,0,1,1-2.22,4.36,4.36,0,0,1,2.78-.82,5,5,0,0,1,3.54,1.33l-1,1.53a4.45,4.45,0,0,0-2.68-1.08,2.13,2.13,0,0,0-1,.23.78.78,0,0,0-.42.75.77.77,0,0,0,.37.69,6.11,6.11,0,0,0,1.35.49l1.24.4a7.34,7.34,0,0,1,.94.4,2.71,2.71,0,0,1,.74.52,2.25,2.25,0,0,1,.41.65,2.29,2.29,0,0,1,.16.9,2.59,2.59,0,0,1-1,2.18A4.37,4.37,0,0,1,117.73,479.7Z"/><path class="cls-1" d="M42.15,495.74a2.63,2.63,0,0,1,1.12-2.22,4.72,4.72,0,0,1,2.93-.85,6,6,0,0,1,2.27.38v-.5a1.79,1.79,0,0,0-.53-1.39,2.32,2.32,0,0,0-1.58-.49,4,4,0,0,0-1.44.26,7.82,7.82,0,0,0-1.51.81l-.78-1.58a7.19,7.19,0,0,1,4-1.23,4.48,4.48,0,0,1,3.14,1,3.66,3.66,0,0,1,1.13,2.88v3a.85.85,0,0,0,.13.55.56.56,0,0,0,.45.19v2a4.88,4.88,0,0,1-1,.13,1.71,1.71,0,0,1-1.08-.31,1.29,1.29,0,0,1-.47-.81l-.05-.48a4.22,4.22,0,0,1-1.53,1.21,4.34,4.34,0,0,1-1.87.44,3.37,3.37,0,0,1-2.35-.84A2.75,2.75,0,0,1,42.15,495.74Zm5.87.48a1.24,1.24,0,0,0,.45-.83v-.95a4.83,4.83,0,0,0-1.89-.38,2.63,2.63,0,0,0-1.55.41,1.24,1.24,0,0,0-.6,1.06,1.29,1.29,0,0,0,.46,1,1.72,1.72,0,0,0,1.22.42,2.92,2.92,0,0,0,1-.2A2.54,2.54,0,0,0,48,496.22Z"/><path class="cls-1" d="M59.19,491.18a4.58,4.58,0,0,0-2,.43A2.63,2.63,0,0,0,56,492.82v5.7h-2.4v-9.43h2.21v2a4.3,4.3,0,0,1,1.28-1.53,2.84,2.84,0,0,1,1.64-.61,4.06,4.06,0,0,1,.48,0Z"/><path class="cls-1" d="M66.64,498a6.56,6.56,0,0,1-2.67.64,3.1,3.1,0,0,1-.94-.13,2.4,2.4,0,0,1-.78-.4,1.67,1.67,0,0,1-.53-.73,2.64,2.64,0,0,1-.2-1.06V491H60.28v-1.86h1.24V486h2.42v3.06h2V491h-2v4.6q0,.93.9.93a3.51,3.51,0,0,0,1.31-.35Z"/><path class="cls-1" d="M68.34,487.77v-2.39h2.41v2.39Zm0,10.75v-9.43h2.41v9.43Z"/><path class="cls-1" d="M77.78,498.7a5.2,5.2,0,0,1-2.07-.4,4.6,4.6,0,0,1-1.58-1.07,5.06,5.06,0,0,1-1-1.56,5.12,5.12,0,0,1,.24-4.29,4.5,4.5,0,0,1,1.74-1.78,5.08,5.08,0,0,1,2.64-.67,5,5,0,0,1,2.6.65A4.14,4.14,0,0,1,82,491.34l-2.35.72a2.12,2.12,0,0,0-.81-.79,2.25,2.25,0,0,0-1.12-.29,2.29,2.29,0,0,0-1.76.79,3.25,3.25,0,0,0,0,4.07,2.27,2.27,0,0,0,1.75.81,2.24,2.24,0,0,0,1.19-.32,1.74,1.74,0,0,0,.77-.8l2.36.73A4,4,0,0,1,80.42,498,5.15,5.15,0,0,1,77.78,498.7Z"/><path class="cls-1" d="M84,485.38h2.4V495.5a1.32,1.32,0,0,0,.21.86.73.73,0,0,0,.6.24,2.71,2.71,0,0,0,1.14-.26l.32,1.84a5,5,0,0,1-1.11.35,5.84,5.84,0,0,1-1.19.13,2.43,2.43,0,0,1-1.75-.6,2.28,2.28,0,0,1-.62-1.72Z"/><path class="cls-1" d="M94.51,498.7a5.06,5.06,0,0,1-2.62-.67,4.48,4.48,0,0,1-1.75-1.76,4.92,4.92,0,0,1-.6-2.41,5.15,5.15,0,0,1,.6-2.46,4.52,4.52,0,0,1,1.75-1.8,5.11,5.11,0,0,1,2.64-.67,5.29,5.29,0,0,1,2.06.39,4.29,4.29,0,0,1,1.56,1.07,5,5,0,0,1,1,1.54,5.14,5.14,0,0,1,.34,1.84,4.47,4.47,0,0,1-.06.81H92.1a2.48,2.48,0,0,0,.81,1.71,2.41,2.41,0,0,0,1.69.65,2.85,2.85,0,0,0,1.37-.35,1.94,1.94,0,0,0,.87-.93l2.06.58A4.07,4.07,0,0,1,97.21,498,5.31,5.31,0,0,1,94.51,498.7Zm-2.46-5.65H97a2.65,2.65,0,0,0-.8-1.72,2.46,2.46,0,0,0-3.35,0A2.5,2.5,0,0,0,92.05,493.05Z"/><path class="cls-1" d="M104.84,498.7a6.72,6.72,0,0,1-2.33-.41,5.05,5.05,0,0,1-1.87-1.16l.86-1.56a5.33,5.33,0,0,0,3.25,1.34,2.17,2.17,0,0,0,1.13-.26.86.86,0,0,0,.41-.75.68.68,0,0,0,0-.21.38.38,0,0,0-.09-.18l-.11-.14a.62.62,0,0,0-.19-.13l-.22-.11-.28-.1-.3-.1-.37-.1-.39-.12c-.47-.15-.85-.28-1.14-.4a5.75,5.75,0,0,1-.87-.41,2.57,2.57,0,0,1-.65-.5,2.1,2.1,0,0,1-.36-.62,2.41,2.41,0,0,1-.14-.83,2.68,2.68,0,0,1,1-2.22,4.33,4.33,0,0,1,2.77-.82,5,5,0,0,1,3.55,1.33l-1,1.53a4.47,4.47,0,0,0-2.68-1.08,2.2,2.2,0,0,0-1.05.23.79.79,0,0,0-.41.75.75.75,0,0,0,.37.69,5.92,5.92,0,0,0,1.35.49c.52.16.93.29,1.23.4a7.45,7.45,0,0,1,1,.4,2.88,2.88,0,0,1,.74.52,2.13,2.13,0,0,1,.56,1.55,2.6,2.6,0,0,1-1,2.18A4.37,4.37,0,0,1,104.84,498.7Z"/><path class="cls-1" d="M217.06,466.74l3.46,9.83,3.42-9.83h2.61l-4.84,12.78h-2.4l-4.86-12.78Z"/><path class="cls-1" d="M228.13,468.77v-2.39h2.41v2.39Zm0,10.75v-9.43h2.41v9.43Z"/><path class="cls-1" d="M232.59,474.8a5.61,5.61,0,0,1,.54-2.46,4.23,4.23,0,0,1,1.5-1.76,3.8,3.8,0,0,1,2.18-.65,3.58,3.58,0,0,1,1.85.49,3.74,3.74,0,0,1,1.33,1.32v-5.36h2.42v10.44a.93.93,0,0,0,.12.55.55.55,0,0,0,.43.19v2a5,5,0,0,1-1,.13,1.76,1.76,0,0,1-1.07-.32,1.22,1.22,0,0,1-.48-.85l0-.59a3.41,3.41,0,0,1-1.4,1.34,4,4,0,0,1-1.88.47,4.28,4.28,0,0,1-2.31-.65,4.42,4.42,0,0,1-1.6-1.77A5.39,5.39,0,0,1,232.59,474.8Zm7.4,1.27v-2.25a2.91,2.91,0,0,0-1-1.31,2.35,2.35,0,0,0-1.43-.53,2.2,2.2,0,0,0-1.76.86,3.09,3.09,0,0,0-.71,2,2.81,2.81,0,0,0,.75,2,2.47,2.47,0,0,0,3.24.35A2.25,2.25,0,0,0,240,476.07Z"/><path class="cls-1" d="M249.6,479.7A5.09,5.09,0,0,1,247,479a4.48,4.48,0,0,1-1.75-1.76,4.92,4.92,0,0,1-.6-2.41,5.15,5.15,0,0,1,.6-2.46,4.52,4.52,0,0,1,1.75-1.8,5.14,5.14,0,0,1,2.65-.67,5.32,5.32,0,0,1,2.06.39,4.34,4.34,0,0,1,1.55,1.07,5,5,0,0,1,1,1.54,5.14,5.14,0,0,1,.34,1.84,4.47,4.47,0,0,1-.06.81h-7.29a2.48,2.48,0,0,0,.81,1.71,2.43,2.43,0,0,0,1.7.65,2.81,2.81,0,0,0,1.36-.35,1.85,1.85,0,0,0,.87-.93l2.06.58a4,4,0,0,1-1.69,1.78A5.27,5.27,0,0,1,249.6,479.7Zm-2.47-5.65h4.93a2.65,2.65,0,0,0-.8-1.72,2.46,2.46,0,0,0-3.35,0A2.59,2.59,0,0,0,247.13,474.05Z"/><path class="cls-1" d="M255.85,474.82a5.09,5.09,0,0,1,.35-1.87,4.85,4.85,0,0,1,1-1.56,4.29,4.29,0,0,1,1.56-1.07,5.36,5.36,0,0,1,2.06-.39,5,5,0,0,1,2.63.68,4.52,4.52,0,0,1,1.72,1.78,5.14,5.14,0,0,1,.59,2.43,5.08,5.08,0,0,1-.35,1.86,5,5,0,0,1-1,1.56,4.4,4.4,0,0,1-1.56,1.06,5.2,5.2,0,0,1-2.07.4,5.49,5.49,0,0,1-1.69-.26,4.31,4.31,0,0,1-1.38-.72,5.13,5.13,0,0,1-1-1.06,4.75,4.75,0,0,1-.65-1.34A5.33,5.33,0,0,1,255.85,474.82Zm5,2.83a2.24,2.24,0,0,0,1.76-.81,3,3,0,0,0,.71-2,3,3,0,0,0-.71-2,2.26,2.26,0,0,0-1.76-.8,2.24,2.24,0,0,0-1.75.81,3.28,3.28,0,0,0,0,4.06A2.26,2.26,0,0,0,260.8,477.65Z"/><path class="cls-1" d="M275,477.87v5.49h-2.41V470.09h2.11v1.62a3.81,3.81,0,0,1,1.37-1.31,3.7,3.7,0,0,1,1.88-.47,4.14,4.14,0,0,1,2.26.65,4.49,4.49,0,0,1,1.59,1.78,5.36,5.36,0,0,1,.56,2.43,5.66,5.66,0,0,1-.53,2.48,4.37,4.37,0,0,1-1.47,1.78,3.69,3.69,0,0,1-2.12.65,3.8,3.8,0,0,1-1.92-.48A3.56,3.56,0,0,1,275,477.87Zm4.89-3.08a2.86,2.86,0,0,0-.74-2,2.44,2.44,0,0,0-1.87-.81,2.37,2.37,0,0,0-1.37.46,2.18,2.18,0,0,0-.91,1.12v2.22a3.1,3.1,0,0,0,1,1.34,2.31,2.31,0,0,0,1.43.53,2.16,2.16,0,0,0,1.76-.85A3.06,3.06,0,0,0,279.87,474.79Z"/><path class="cls-1" d="M283.83,474.82a5.09,5.09,0,0,1,.35-1.87,5,5,0,0,1,1-1.56,4.38,4.38,0,0,1,1.56-1.07,5.41,5.41,0,0,1,2.07-.39,5,5,0,0,1,2.62.68,4.52,4.52,0,0,1,1.72,1.78,5.14,5.14,0,0,1,.59,2.43,5.29,5.29,0,0,1-.34,1.86,5,5,0,0,1-1,1.56,4.4,4.4,0,0,1-1.56,1.06,5.15,5.15,0,0,1-2.06.4,5.5,5.5,0,0,1-1.7-.26,4.31,4.31,0,0,1-1.38-.72,5.13,5.13,0,0,1-1-1.06,4.47,4.47,0,0,1-.64-1.34A5,5,0,0,1,283.83,474.82Zm5,2.83a2.24,2.24,0,0,0,1.75-.81,3,3,0,0,0,.71-2,3,3,0,0,0-.71-2,2.32,2.32,0,0,0-3.51,0,3.28,3.28,0,0,0,0,4.06A2.29,2.29,0,0,0,288.79,477.65Z"/><path class="cls-1" d="M299.26,479.7a6.62,6.62,0,0,1-2.32-.41,5,5,0,0,1-1.88-1.16l.86-1.56a5.33,5.33,0,0,0,3.25,1.34,2.17,2.17,0,0,0,1.13-.26.87.87,0,0,0,.42-.75.66.66,0,0,0,0-.21.48.48,0,0,0-.08-.18l-.12-.14a.62.62,0,0,0-.19-.13l-.22-.11-.28-.1-.3-.1-.37-.1-.39-.12c-.47-.15-.85-.28-1.14-.4a5.75,5.75,0,0,1-.87-.41,2.57,2.57,0,0,1-.65-.5,2.1,2.1,0,0,1-.36-.62,2.41,2.41,0,0,1-.14-.83,2.68,2.68,0,0,1,1.05-2.22,4.33,4.33,0,0,1,2.77-.82,5,5,0,0,1,3.55,1.33l-1,1.53a4.47,4.47,0,0,0-2.68-1.08,2.2,2.2,0,0,0-1.05.23.79.79,0,0,0-.41.75.77.77,0,0,0,.37.69,5.92,5.92,0,0,0,1.35.49l1.24.4a8,8,0,0,1,.94.4,2.88,2.88,0,0,1,.74.52,2.19,2.19,0,0,1,.57,1.55,2.61,2.61,0,0,1-1,2.18A4.37,4.37,0,0,1,299.26,479.7Z"/><path class="cls-1" d="M310.72,479a6.56,6.56,0,0,1-2.67.64,3.1,3.1,0,0,1-.94-.13,2.4,2.4,0,0,1-.78-.4,1.75,1.75,0,0,1-.53-.73,2.64,2.64,0,0,1-.2-1.06V472h-1.24v-1.86h1.24V467H308v3.06h2V472h-2v4.6q0,.93.9.93a3.51,3.51,0,0,0,1.31-.35Z"/><path class="cls-1" d="M316.68,479.7a5.12,5.12,0,0,1-2.63-.67,4.48,4.48,0,0,1-1.75-1.76,4.92,4.92,0,0,1-.59-2.41,5.14,5.14,0,0,1,.59-2.46,4.52,4.52,0,0,1,1.75-1.8,5.14,5.14,0,0,1,2.65-.67,5.32,5.32,0,0,1,2.06.39,4.34,4.34,0,0,1,1.55,1.07,4.65,4.65,0,0,1,1,1.54,4.93,4.93,0,0,1,.34,1.84,5.82,5.82,0,0,1-.05.81h-7.3a2.48,2.48,0,0,0,.81,1.71,2.43,2.43,0,0,0,1.7.65,2.81,2.81,0,0,0,1.36-.35,1.85,1.85,0,0,0,.87-.93l2.06.58a4,4,0,0,1-1.69,1.78A5.24,5.24,0,0,1,316.68,479.7Zm-2.47-5.65h4.93a2.65,2.65,0,0,0-.8-1.72,2.46,2.46,0,0,0-3.35,0A2.59,2.59,0,0,0,314.21,474.05Z"/><path class="cls-1" d="M323,474.8a5.75,5.75,0,0,1,.53-2.46,4.33,4.33,0,0,1,1.51-1.76,3.78,3.78,0,0,1,2.18-.65,3.58,3.58,0,0,1,1.85.49,3.74,3.74,0,0,1,1.33,1.32v-5.36h2.42v10.44a.93.93,0,0,0,.12.55.53.53,0,0,0,.43.19v2a5,5,0,0,1-1,.13,1.76,1.76,0,0,1-1.07-.32,1.22,1.22,0,0,1-.48-.85l0-.59a3.47,3.47,0,0,1-1.4,1.34,4,4,0,0,1-1.88.47,4.23,4.23,0,0,1-2.31-.65,4.42,4.42,0,0,1-1.6-1.77A5.39,5.39,0,0,1,323,474.8Zm7.4,1.27v-2.25a2.91,2.91,0,0,0-1-1.31,2.37,2.37,0,0,0-1.43-.53,2.19,2.19,0,0,0-1.76.86,3.09,3.09,0,0,0-.71,2,2.81,2.81,0,0,0,.75,2,2.43,2.43,0,0,0,1.86.8,2.46,2.46,0,0,0,1.38-.45A2.25,2.25,0,0,0,330.35,476.07Z"/><path class="cls-1" d="M244.15,489.09h2.28l-3.93,9.43h-2l-1.58-4-1.54,4h-2l-3.93-9.43h2.26l2.82,7.13,1.1-3.08-1.65-4h2l1,2.88,1-2.88h2l-1.63,4,1.11,3.08Z"/><path class="cls-1" d="M248,487.77v-2.39h2.41v2.39Zm0,10.75v-9.43h2.41v9.43Z"/><path class="cls-1" d="M258.69,498a6.56,6.56,0,0,1-2.66.64,3.16,3.16,0,0,1-.95-.13,2.4,2.4,0,0,1-.78-.4,1.84,1.84,0,0,1-.53-.73,2.64,2.64,0,0,1-.2-1.06V491h-1.23v-1.86h1.23V486H256v3.06h2V491h-2v4.6q0,.93.9.93a3.6,3.6,0,0,0,1.32-.35Z"/><path class="cls-1" d="M269.16,498.52h-2.41v-5.29a2.72,2.72,0,0,0-.41-1.63,1.38,1.38,0,0,0-1.17-.55,2.26,2.26,0,0,0-1.39.56,2.9,2.9,0,0,0-1,1.4v5.51h-2.4V485.38h2.4v5.46a3.86,3.86,0,0,1,3.39-1.91q3,0,3,3.7Z"/><path class="cls-1" d="M282.09,491.18a4.58,4.58,0,0,0-2,.43,2.63,2.63,0,0,0-1.23,1.21v5.7h-2.41v-9.43h2.22v2a4.3,4.3,0,0,1,1.28-1.53,2.84,2.84,0,0,1,1.64-.61,4.06,4.06,0,0,1,.48,0Z"/><path class="cls-1" d="M283.89,487.77v-2.39h2.41v2.39Zm0,10.75v-9.43h2.41v9.43Z"/><path class="cls-1" d="M292.4,498.7a6.62,6.62,0,0,1-2.32-.41,5,5,0,0,1-1.88-1.16l.86-1.56a5.33,5.33,0,0,0,3.25,1.34,2.17,2.17,0,0,0,1.13-.26.85.85,0,0,0,.42-.75.66.66,0,0,0,0-.21.48.48,0,0,0-.08-.18l-.12-.14a.62.62,0,0,0-.19-.13l-.22-.11-.28-.1-.3-.1-.37-.1-.39-.12c-.47-.15-.84-.28-1.14-.4a5.75,5.75,0,0,1-.87-.41,2.76,2.76,0,0,1-.65-.5,2.1,2.1,0,0,1-.36-.62,2.41,2.41,0,0,1-.14-.83,2.68,2.68,0,0,1,1-2.22,4.36,4.36,0,0,1,2.78-.82,5,5,0,0,1,3.54,1.33l-1,1.53a4.47,4.47,0,0,0-2.68-1.08,2.2,2.2,0,0,0-1.05.23.79.79,0,0,0-.41.75.77.77,0,0,0,.37.69,6.11,6.11,0,0,0,1.35.49l1.24.4a7.34,7.34,0,0,1,.94.4,2.71,2.71,0,0,1,.74.52,2.25,2.25,0,0,1,.41.65,2.49,2.49,0,0,1,.16.9,2.61,2.61,0,0,1-1,2.18A4.37,4.37,0,0,1,292.4,498.7Z"/><path class="cls-1" d="M304.7,498.52,302,494.45l-1.28,1.27v2.8h-2.41V485.38h2.41v8l3.8-4.23H307l-3.5,4,3.76,5.41Z"/><path class="cls-1" d="M308.94,500.36a4.59,4.59,0,0,0,1.08.18.94.94,0,0,0,.8-.42,5.94,5.94,0,0,0,.66-1.6l-3.73-9.43h2.51l2.54,7,2.23-7h2.3l-4,11.31a3.21,3.21,0,0,1-1.19,1.62,3.29,3.29,0,0,1-2,.63,3.71,3.71,0,0,1-1.21-.21Z"/><path class="cls-1" d="M244.84,517.7a5.2,5.2,0,0,1-2.07-.4,4.6,4.6,0,0,1-1.58-1.07,5.06,5.06,0,0,1-1-1.56,5.22,5.22,0,0,1,.24-4.29,4.5,4.5,0,0,1,1.74-1.78,5.08,5.08,0,0,1,2.64-.67,5,5,0,0,1,2.6.65,4.14,4.14,0,0,1,1.66,1.76l-2.35.72a2.12,2.12,0,0,0-.81-.79,2.25,2.25,0,0,0-1.12-.29,2.29,2.29,0,0,0-1.76.79,3.25,3.25,0,0,0,0,4.07,2.27,2.27,0,0,0,1.75.81,2.24,2.24,0,0,0,1.19-.32,1.69,1.69,0,0,0,.77-.8l2.36.73a4,4,0,0,1-1.64,1.77A5.13,5.13,0,0,1,244.84,517.7Z"/><path class="cls-1" d="M250.36,512.82a5.09,5.09,0,0,1,.35-1.87,5,5,0,0,1,1-1.56,4.38,4.38,0,0,1,1.56-1.07,5.37,5.37,0,0,1,2.07-.39,5,5,0,0,1,2.62.68,4.52,4.52,0,0,1,1.72,1.78,5.14,5.14,0,0,1,.59,2.43,5.08,5.08,0,0,1-.35,1.86,4.8,4.8,0,0,1-1,1.56,4.4,4.4,0,0,1-1.56,1.06,5.15,5.15,0,0,1-2.06.4,5.5,5.5,0,0,1-1.7-.26,4.31,4.31,0,0,1-1.38-.72,5.13,5.13,0,0,1-1-1.06,4.75,4.75,0,0,1-.65-1.34A5.33,5.33,0,0,1,250.36,512.82Zm5,2.83a2.24,2.24,0,0,0,1.75-.81,3,3,0,0,0,.71-2,3,3,0,0,0-.71-2,2.32,2.32,0,0,0-3.51,0,3.28,3.28,0,0,0,0,4.06A2.29,2.29,0,0,0,255.32,515.65Z"/><path class="cls-1" d="M271.08,517.52h-2.41v-5.29c0-1.45-.5-2.18-1.5-2.18a2.39,2.39,0,0,0-1.46.56,2.92,2.92,0,0,0-1,1.4v5.51h-2.41v-9.43h2.18v1.75a3.65,3.65,0,0,1,1.53-1.4,4.78,4.78,0,0,1,2.22-.51,3.17,3.17,0,0,1,1.2.21,2.25,2.25,0,0,1,.82.56,2.68,2.68,0,0,1,.5.84,4.72,4.72,0,0,1,.25,1,9.08,9.08,0,0,1,.07,1.09Z"/><path class="cls-1" d="M279.22,517a6.52,6.52,0,0,1-2.66.64,3.21,3.21,0,0,1-.95-.13,2.46,2.46,0,0,1-.77-.4,1.77,1.77,0,0,1-.54-.73,2.64,2.64,0,0,1-.19-1.06V510h-1.24v-1.86h1.24V505h2.42v3.06h2V510h-2v4.6c0,.62.31.93.89.93a3.6,3.6,0,0,0,1.32-.35Z"/><path class="cls-1" d="M285.19,517.7a5.09,5.09,0,0,1-2.63-.67,4.48,4.48,0,0,1-1.75-1.76,4.92,4.92,0,0,1-.6-2.41,5.15,5.15,0,0,1,.6-2.46,4.52,4.52,0,0,1,1.75-1.8,5.13,5.13,0,0,1,2.64-.67,5.37,5.37,0,0,1,2.07.39,4.34,4.34,0,0,1,1.55,1.07,5,5,0,0,1,1,1.54,5.14,5.14,0,0,1,.34,1.84,4.47,4.47,0,0,1-.06.81h-7.29a2.48,2.48,0,0,0,.81,1.71,2.41,2.41,0,0,0,1.69.65,2.82,2.82,0,0,0,1.37-.35,1.94,1.94,0,0,0,.87-.93l2.06.58a4,4,0,0,1-1.69,1.78A5.27,5.27,0,0,1,285.19,517.7Zm-2.47-5.65h4.93a2.65,2.65,0,0,0-.8-1.72,2.46,2.46,0,0,0-3.35,0A2.59,2.59,0,0,0,282.72,512.05Z"/><path class="cls-1" d="M300.8,517.52h-2.41v-5.29c0-1.45-.5-2.18-1.5-2.18a2.39,2.39,0,0,0-1.46.56,2.92,2.92,0,0,0-1,1.4v5.51H292v-9.43h2.18v1.75a3.56,3.56,0,0,1,1.52-1.4,4.78,4.78,0,0,1,2.22-.51,3.17,3.17,0,0,1,1.2.21,2.17,2.17,0,0,1,.82.56,2.68,2.68,0,0,1,.5.84,4.72,4.72,0,0,1,.25,1,7.4,7.4,0,0,1,.07,1.09Z"/><path class="cls-1" d="M309,517a6.56,6.56,0,0,1-2.67.64,3.21,3.21,0,0,1-.95-.13,2.46,2.46,0,0,1-.77-.4,1.67,1.67,0,0,1-.53-.73,2.64,2.64,0,0,1-.2-1.06V510h-1.24v-1.86h1.24V505h2.42v3.06h2V510h-2v4.6c0,.62.31.93.89.93a3.6,3.6,0,0,0,1.32-.35Z"/><path class="cls-1" d="M422.93,466.74h2.52l4.7,12.78h-2.56l-1.19-3.18h-4.46l-1.17,3.18h-2.56Zm3,7.85-1.76-5.27-1.84,5.27Z"/><path class="cls-1" d="M437.38,472.18a4.58,4.58,0,0,0-2,.43,2.63,2.63,0,0,0-1.23,1.21v5.7h-2.4v-9.43H434v2a4.3,4.3,0,0,1,1.28-1.53,2.84,2.84,0,0,1,1.64-.61,4.06,4.06,0,0,1,.48,0Z"/><path class="cls-1" d="M444.83,479a6.56,6.56,0,0,1-2.67.64,3.1,3.1,0,0,1-.94-.13,2.4,2.4,0,0,1-.78-.4,1.75,1.75,0,0,1-.53-.73,2.64,2.64,0,0,1-.2-1.06V472h-1.24v-1.86h1.24V467h2.42v3.06h2V472h-2v4.6q0,.93.9.93a3.56,3.56,0,0,0,1.31-.35Z"/><path class="cls-1" d="M446.53,468.77v-2.39h2.41v2.39Zm0,10.75v-9.43h2.41v9.43Z"/><path class="cls-1" d="M456,479.7a5.2,5.2,0,0,1-2.07-.4,4.6,4.6,0,0,1-1.58-1.07,5.06,5.06,0,0,1-1-1.56,5.12,5.12,0,0,1,.24-4.29,4.5,4.5,0,0,1,1.74-1.78,5.08,5.08,0,0,1,2.64-.67,5,5,0,0,1,2.6.65,4.14,4.14,0,0,1,1.66,1.76l-2.35.72a2.12,2.12,0,0,0-.81-.79,2.25,2.25,0,0,0-1.12-.29,2.29,2.29,0,0,0-1.76.79,3.25,3.25,0,0,0,0,4.07,2.27,2.27,0,0,0,1.75.81,2.24,2.24,0,0,0,1.19-.32,1.74,1.74,0,0,0,.77-.8l2.36.73a4,4,0,0,1-1.64,1.77A5.15,5.15,0,0,1,456,479.7Z"/><path class="cls-1" d="M462.16,466.38h2.4V476.5a1.32,1.32,0,0,0,.21.86.73.73,0,0,0,.6.24,2.71,2.71,0,0,0,1.14-.26l.32,1.84a5,5,0,0,1-1.11.35,5.84,5.84,0,0,1-1.19.13,2.43,2.43,0,0,1-1.75-.6,2.28,2.28,0,0,1-.62-1.72Z"/><path class="cls-1" d="M472.71,479.7a5.07,5.07,0,0,1-2.63-.67,4.48,4.48,0,0,1-1.75-1.76,4.92,4.92,0,0,1-.6-2.41,5.15,5.15,0,0,1,.6-2.46,4.52,4.52,0,0,1,1.75-1.8,5.11,5.11,0,0,1,2.64-.67,5.29,5.29,0,0,1,2.06.39,4.29,4.29,0,0,1,1.56,1.07,5,5,0,0,1,1,1.54,5.13,5.13,0,0,1,.33,1.84,4.59,4.59,0,0,1-.05.81h-7.29a2.48,2.48,0,0,0,.81,1.71,2.41,2.41,0,0,0,1.69.65,2.85,2.85,0,0,0,1.37-.35,1.94,1.94,0,0,0,.87-.93l2.06.58A4.07,4.07,0,0,1,475.4,479,5.3,5.3,0,0,1,472.71,479.7Zm-2.48-5.65h4.94a2.65,2.65,0,0,0-.8-1.72,2.46,2.46,0,0,0-3.35,0A2.55,2.55,0,0,0,470.23,474.05Z"/><path class="cls-1" d="M483,479.7a6.62,6.62,0,0,1-2.32-.41,5,5,0,0,1-1.88-1.16l.86-1.56a5.33,5.33,0,0,0,3.25,1.34,2.17,2.17,0,0,0,1.13-.26.86.86,0,0,0,.41-.75.68.68,0,0,0,0-.21.48.48,0,0,0-.08-.18l-.12-.14a.62.62,0,0,0-.19-.13l-.22-.11-.28-.1-.3-.1-.37-.1-.39-.12c-.47-.15-.85-.28-1.14-.4a5.75,5.75,0,0,1-.87-.41,2.57,2.57,0,0,1-.65-.5,2.1,2.1,0,0,1-.36-.62,2.41,2.41,0,0,1-.14-.83,2.68,2.68,0,0,1,1-2.22,4.33,4.33,0,0,1,2.77-.82,5,5,0,0,1,3.55,1.33l-1,1.53a4.47,4.47,0,0,0-2.68-1.08,2.2,2.2,0,0,0-1.05.23.79.79,0,0,0-.41.75.75.75,0,0,0,.37.69,6,6,0,0,0,1.34.49c.53.16.94.29,1.24.4a7.45,7.45,0,0,1,.95.4,2.88,2.88,0,0,1,.74.52,2.13,2.13,0,0,1,.56,1.55,2.6,2.6,0,0,1-1,2.18A4.37,4.37,0,0,1,483,479.7Z"/><path class="cls-1" d="M496.06,477.87v5.49h-2.41V470.09h2.11v1.62a3.9,3.9,0,0,1,1.37-1.31,3.73,3.73,0,0,1,1.89-.47,4.13,4.13,0,0,1,2.25.65,4.49,4.49,0,0,1,1.59,1.78,5.24,5.24,0,0,1,.57,2.43,5.81,5.81,0,0,1-.53,2.48,4.32,4.32,0,0,1-1.48,1.78,3.69,3.69,0,0,1-2.12.65,3.8,3.8,0,0,1-1.92-.48A3.56,3.56,0,0,1,496.06,477.87Zm4.9-3.08a2.82,2.82,0,0,0-.75-2,2.43,2.43,0,0,0-1.86-.81,2.4,2.4,0,0,0-1.38.46,2.23,2.23,0,0,0-.91,1.12v2.22a3.18,3.18,0,0,0,1,1.34,2.33,2.33,0,0,0,1.44.53,2.18,2.18,0,0,0,1.76-.85A3.11,3.11,0,0,0,501,474.79Z"/><path class="cls-1" d="M504.91,474.82a4.9,4.9,0,0,1,.36-1.87,5,5,0,0,1,1-1.56,4.42,4.42,0,0,1,1.57-1.07,5.36,5.36,0,0,1,2.06-.39,5,5,0,0,1,2.63.68,4.59,4.59,0,0,1,1.72,1.78,5.13,5.13,0,0,1,.58,2.43,5.07,5.07,0,0,1-.34,1.86,5,5,0,0,1-1,1.56,4.58,4.58,0,0,1-1.56,1.06,5.2,5.2,0,0,1-2.07.4,5.44,5.44,0,0,1-1.69-.26,4.31,4.31,0,0,1-1.38-.72,4.66,4.66,0,0,1-1-1.06,4.5,4.5,0,0,1-.65-1.34A5.34,5.34,0,0,1,504.91,474.82Zm5,2.83a2.26,2.26,0,0,0,1.76-.81,3,3,0,0,0,.7-2,3,3,0,0,0-.7-2,2.28,2.28,0,0,0-1.76-.8,2.26,2.26,0,0,0-1.76.81,3,3,0,0,0-.71,2,3,3,0,0,0,.71,2A2.26,2.26,0,0,0,509.87,477.65Z"/><path class="cls-1" d="M520.34,479.7a6.66,6.66,0,0,1-2.32-.41,5,5,0,0,1-1.87-1.16l.86-1.56a5.31,5.31,0,0,0,3.24,1.34,2.15,2.15,0,0,0,1.13-.26.85.85,0,0,0,.42-.75,1.25,1.25,0,0,0,0-.21.76.76,0,0,0-.09-.18l-.12-.14a.56.56,0,0,0-.18-.13l-.22-.11-.28-.1-.31-.1-.36-.1-.4-.12c-.46-.15-.84-.28-1.13-.4a5.75,5.75,0,0,1-.87-.41,2.57,2.57,0,0,1-.65-.5,2.13,2.13,0,0,1-.37-.62,2.41,2.41,0,0,1-.13-.83,2.7,2.7,0,0,1,1-2.22,4.38,4.38,0,0,1,2.78-.82,5,5,0,0,1,3.54,1.33l-1,1.53a4.47,4.47,0,0,0-2.68-1.08,2.2,2.2,0,0,0-1,.23.78.78,0,0,0-.41.75.75.75,0,0,0,.37.69,5.79,5.79,0,0,0,1.34.49c.52.16.94.29,1.24.4a7.45,7.45,0,0,1,1,.4,2.64,2.64,0,0,1,.73.52,2.06,2.06,0,0,1,.41.65,2.29,2.29,0,0,1,.16.9,2.6,2.6,0,0,1-1,2.18A4.4,4.4,0,0,1,520.34,479.7Z"/><path class="cls-1" d="M531.8,479a6.52,6.52,0,0,1-2.66.64,3.21,3.21,0,0,1-.95-.13,2.35,2.35,0,0,1-.77-.4,1.77,1.77,0,0,1-.54-.73,2.64,2.64,0,0,1-.19-1.06V472h-1.24v-1.86h1.24V467h2.42v3.06h2V472h-2v4.6c0,.62.31.93.89.93a3.6,3.6,0,0,0,1.32-.35Z"/><path class="cls-1" d="M537.76,479.7a5.06,5.06,0,0,1-2.62-.67,4.48,4.48,0,0,1-1.75-1.76,4.92,4.92,0,0,1-.6-2.41,5.15,5.15,0,0,1,.6-2.46,4.52,4.52,0,0,1,1.75-1.8,5.11,5.11,0,0,1,2.64-.67,5.29,5.29,0,0,1,2.06.39,4.29,4.29,0,0,1,1.56,1.07,5,5,0,0,1,1,1.54,5.14,5.14,0,0,1,.34,1.84,4.47,4.47,0,0,1-.06.81h-7.29a2.48,2.48,0,0,0,.81,1.71,2.41,2.41,0,0,0,1.69.65,2.85,2.85,0,0,0,1.37-.35,1.87,1.87,0,0,0,.86-.93l2.07.58a4.07,4.07,0,0,1-1.69,1.78A5.31,5.31,0,0,1,537.76,479.7Zm-2.46-5.65h4.92a2.64,2.64,0,0,0-.79-1.72,2.46,2.46,0,0,0-3.35,0A2.5,2.5,0,0,0,535.3,474.05Z"/><path class="cls-1" d="M544,474.8a5.61,5.61,0,0,1,.54-2.46,4.33,4.33,0,0,1,1.51-1.76,3.75,3.75,0,0,1,2.17-.65,3.56,3.56,0,0,1,1.85.49,3.66,3.66,0,0,1,1.33,1.32v-5.36h2.42v10.44a.93.93,0,0,0,.12.55.55.55,0,0,0,.43.19v2a5,5,0,0,1-1,.13,1.74,1.74,0,0,1-1.07-.32,1.15,1.15,0,0,1-.48-.85l0-.59a3.45,3.45,0,0,1-1.39,1.34,4,4,0,0,1-1.88.47,4.29,4.29,0,0,1-2.32-.65,4.49,4.49,0,0,1-1.6-1.77A5.39,5.39,0,0,1,544,474.8Zm7.4,1.27v-2.25a3,3,0,0,0-1-1.31A2.39,2.39,0,0,0,549,472a2.21,2.21,0,0,0-1.77.86,3.08,3.08,0,0,0-.7,2,2.85,2.85,0,0,0,.74,2,2.46,2.46,0,0,0,1.87.8,2.43,2.43,0,0,0,1.37-.45A2.2,2.2,0,0,0,551.43,476.07Z"/><path class="cls-1" d="M458.68,489.09H461L457,498.52h-2l-1.58-4-1.55,4h-2l-3.93-9.43h2.27l2.81,7.13,1.1-3.08-1.64-4h2l1,2.88,1-2.88h2l-1.64,4,1.12,3.08Z"/><path class="cls-1" d="M462.53,487.77v-2.39h2.41v2.39Zm0,10.75v-9.43h2.41v9.43Z"/><path class="cls-1" d="M473.22,498a6.56,6.56,0,0,1-2.67.64,3.21,3.21,0,0,1-.95-.13,2.46,2.46,0,0,1-.77-.4,1.67,1.67,0,0,1-.53-.73,2.64,2.64,0,0,1-.2-1.06V491h-1.24v-1.86h1.24V486h2.42v3.06h2V491h-2v4.6c0,.62.31.93.89.93a3.6,3.6,0,0,0,1.32-.35Z"/><path class="cls-1" d="M483.69,498.52h-2.41v-5.29a2.72,2.72,0,0,0-.41-1.63,1.38,1.38,0,0,0-1.17-.55,2.28,2.28,0,0,0-1.4.56,3,3,0,0,0-1,1.4v5.51h-2.41V485.38h2.41v5.46a3.79,3.79,0,0,1,1.43-1.41,3.86,3.86,0,0,1,2-.5q3,0,3,3.7Z"/><path class="cls-1" d="M496.62,491.18a4.58,4.58,0,0,0-2,.43,2.63,2.63,0,0,0-1.23,1.21v5.7H491v-9.43h2.22v2a4.3,4.3,0,0,1,1.28-1.53,2.84,2.84,0,0,1,1.63-.61,4.14,4.14,0,0,1,.49,0Z"/><path class="cls-1" d="M498.41,487.77v-2.39h2.41v2.39Zm0,10.75v-9.43h2.41v9.43Z"/><path class="cls-1" d="M506.92,498.7a6.66,6.66,0,0,1-2.32-.41,5.05,5.05,0,0,1-1.87-1.16l.86-1.56a5.33,5.33,0,0,0,3.24,1.34,2.12,2.12,0,0,0,1.13-.26.85.85,0,0,0,.42-.75,1.25,1.25,0,0,0,0-.21.76.76,0,0,0-.09-.18l-.12-.14a.46.46,0,0,0-.18-.13l-.22-.11-.28-.1-.31-.1-.36-.1-.4-.12c-.46-.15-.84-.28-1.13-.4a5.75,5.75,0,0,1-.87-.41,2.57,2.57,0,0,1-.65-.5,2.13,2.13,0,0,1-.37-.62,2.41,2.41,0,0,1-.13-.83,2.68,2.68,0,0,1,1.05-2.22,4.33,4.33,0,0,1,2.77-.82,5,5,0,0,1,3.54,1.33l-1,1.53a4.47,4.47,0,0,0-2.68-1.08,2.2,2.2,0,0,0-1,.23.79.79,0,0,0-.41.75.75.75,0,0,0,.37.69,5.79,5.79,0,0,0,1.34.49c.52.16.94.29,1.24.4a7.45,7.45,0,0,1,.95.4,2.64,2.64,0,0,1,.73.52,2.06,2.06,0,0,1,.41.65,2.29,2.29,0,0,1,.16.9,2.6,2.6,0,0,1-1,2.18A4.4,4.4,0,0,1,506.92,498.7Z"/><path class="cls-1" d="M519.23,498.52l-2.75-4.07-1.28,1.27v2.8h-2.41V485.38h2.41v8l3.79-4.23h2.56l-3.51,4,3.76,5.41Z"/><path class="cls-1" d="M523.47,500.36a4.51,4.51,0,0,0,1.08.18.92.92,0,0,0,.79-.42,5.57,5.57,0,0,0,.67-1.6l-3.73-9.43h2.51l2.54,7,2.23-7h2.3l-4,11.31a3.27,3.27,0,0,1-1.19,1.62,3.31,3.31,0,0,1-2,.63,3.71,3.71,0,0,1-1.21-.21Z"/><path class="cls-1" d="M457.23,517.7a5.18,5.18,0,0,1-2.06-.4,4.6,4.6,0,0,1-1.58-1.07,4.71,4.71,0,0,1-1-1.56,5,5,0,0,1-.36-1.87,5.07,5.07,0,0,1,.59-2.42,4.64,4.64,0,0,1,1.74-1.78,5.14,5.14,0,0,1,2.65-.67,5,5,0,0,1,2.6.65,4.2,4.2,0,0,1,1.66,1.76l-2.36.72a2.12,2.12,0,0,0-.81-.79,2.24,2.24,0,0,0-1.11-.29,2.27,2.27,0,0,0-1.76.79,2.91,2.91,0,0,0-.71,2,3,3,0,0,0,.72,2,2.32,2.32,0,0,0,2.94.49,1.79,1.79,0,0,0,.77-.8l2.35.73a4,4,0,0,1-1.63,1.77A5.19,5.19,0,0,1,457.23,517.7Z"/><path class="cls-1" d="M462.75,512.82a4.9,4.9,0,0,1,.36-1.87,5,5,0,0,1,1-1.56,4.42,4.42,0,0,1,1.57-1.07,5.36,5.36,0,0,1,2.06-.39,5,5,0,0,1,2.63.68,4.59,4.59,0,0,1,1.72,1.78,5.13,5.13,0,0,1,.58,2.43,5.07,5.07,0,0,1-.34,1.86,5,5,0,0,1-1,1.56,4.58,4.58,0,0,1-1.56,1.06,5.2,5.2,0,0,1-2.07.4,5.44,5.44,0,0,1-1.69-.26,4.47,4.47,0,0,1-1.39-.72,4.84,4.84,0,0,1-1-1.06,4.5,4.5,0,0,1-.65-1.34A5.34,5.34,0,0,1,462.75,512.82Zm5,2.83a2.26,2.26,0,0,0,1.76-.81,3,3,0,0,0,.7-2,3,3,0,0,0-.7-2,2.28,2.28,0,0,0-1.76-.8,2.26,2.26,0,0,0-1.76.81,3,3,0,0,0-.71,2,3,3,0,0,0,.71,2A2.26,2.26,0,0,0,467.71,515.65Z"/><path class="cls-1" d="M483.47,517.52h-2.41v-5.29c0-1.45-.49-2.18-1.49-2.18a2.4,2.4,0,0,0-1.47.56,2.83,2.83,0,0,0-1,1.4v5.51h-2.41v-9.43h2.18v1.75a3.62,3.62,0,0,1,1.52-1.4,4.83,4.83,0,0,1,2.22-.51,3.14,3.14,0,0,1,1.2.21,2.09,2.09,0,0,1,.82.56,2.5,2.5,0,0,1,.5.84,4.76,4.76,0,0,1,.26,1,9.18,9.18,0,0,1,.06,1.09Z"/><path class="cls-1" d="M491.62,517a6.56,6.56,0,0,1-2.66.64,3.16,3.16,0,0,1-.95-.13,2.4,2.4,0,0,1-.78-.4,1.84,1.84,0,0,1-.53-.73,2.64,2.64,0,0,1-.19-1.06V510h-1.24v-1.86h1.24V505h2.41v3.06h2V510h-2v4.6q0,.93.9.93a3.6,3.6,0,0,0,1.32-.35Z"/><path class="cls-1" d="M497.58,517.7A5.12,5.12,0,0,1,495,517a4.46,4.46,0,0,1-1.74-1.76,4.92,4.92,0,0,1-.6-2.41,5.15,5.15,0,0,1,.6-2.46,4.49,4.49,0,0,1,1.74-1.8,5.14,5.14,0,0,1,2.65-.67,5.29,5.29,0,0,1,2.06.39,4.47,4.47,0,0,1,1.56,1.07,4.79,4.79,0,0,1,.95,1.54,4.93,4.93,0,0,1,.34,1.84,5.82,5.82,0,0,1-.05.81h-7.3a2.48,2.48,0,0,0,.81,1.71,2.43,2.43,0,0,0,1.7.65,2.85,2.85,0,0,0,1.37-.35,1.87,1.87,0,0,0,.86-.93l2.07.58a4.07,4.07,0,0,1-1.69,1.78A5.31,5.31,0,0,1,497.58,517.7Zm-2.47-5.65H500a2.64,2.64,0,0,0-.79-1.72,2.47,2.47,0,0,0-3.36,0A2.59,2.59,0,0,0,495.11,512.05Z"/><path class="cls-1" d="M513.19,517.52h-2.4v-5.29c0-1.45-.5-2.18-1.5-2.18a2.4,2.4,0,0,0-1.47.56,2.83,2.83,0,0,0-1,1.4v5.51h-2.41v-9.43h2.18v1.75a3.62,3.62,0,0,1,1.52-1.4,4.83,4.83,0,0,1,2.22-.51,3.14,3.14,0,0,1,1.2.21,2.21,2.21,0,0,1,.83.56,2.66,2.66,0,0,1,.49.84,4.76,4.76,0,0,1,.26,1,9.18,9.18,0,0,1,.06,1.09Z"/><path class="cls-1" d="M521.34,517a6.56,6.56,0,0,1-2.66.64,3.16,3.16,0,0,1-.95-.13,2.35,2.35,0,0,1-.77-.4,1.77,1.77,0,0,1-.54-.73,2.64,2.64,0,0,1-.19-1.06V510H515v-1.86h1.24V505h2.41v3.06h2V510h-2v4.6q0,.93.9.93a3.6,3.6,0,0,0,1.32-.35Z"/><path class="cls-1" d="M617.9,466.74h2.53l4.69,12.78h-2.56l-1.18-3.18h-4.47l-1.17,3.18h-2.56Zm3,7.85-1.77-5.27-1.84,5.27Z"/><path class="cls-1" d="M625.89,474.8a5.6,5.6,0,0,1,.53-2.46,4.33,4.33,0,0,1,1.51-1.76,3.78,3.78,0,0,1,2.18-.65,3.61,3.61,0,0,1,1.85.49,3.82,3.82,0,0,1,1.33,1.32v-5.36h2.41v10.44a.85.85,0,0,0,.13.55.53.53,0,0,0,.43.19v2a5,5,0,0,1-1,.13,1.76,1.76,0,0,1-1.07-.32,1.22,1.22,0,0,1-.48-.85l0-.59a3.47,3.47,0,0,1-1.4,1.34,4,4,0,0,1-1.88.47,4.23,4.23,0,0,1-2.31-.65,4.42,4.42,0,0,1-1.6-1.77A5.39,5.39,0,0,1,625.89,474.8Zm7.4,1.27v-2.25a3,3,0,0,0-1-1.31,2.37,2.37,0,0,0-1.43-.53,2.21,2.21,0,0,0-1.77.86,3.14,3.14,0,0,0-.7,2,2.85,2.85,0,0,0,.74,2,2.48,2.48,0,0,0,3.25.35A2.3,2.3,0,0,0,633.29,476.07Z"/><path class="cls-1" d="M642,479.7a6.66,6.66,0,0,1-2.32-.41,5,5,0,0,1-1.87-1.16l.86-1.56a5.31,5.31,0,0,0,3.24,1.34,2.15,2.15,0,0,0,1.13-.26.85.85,0,0,0,.42-.75,1.25,1.25,0,0,0,0-.21.76.76,0,0,0-.09-.18l-.12-.14a.56.56,0,0,0-.18-.13l-.22-.11-.28-.1-.31-.1-.36-.1-.4-.12c-.46-.15-.84-.28-1.14-.4a6.13,6.13,0,0,1-.86-.41,2.57,2.57,0,0,1-.65-.5,1.93,1.93,0,0,1-.37-.62,2.41,2.41,0,0,1-.13-.83,2.67,2.67,0,0,1,1-2.22,4.36,4.36,0,0,1,2.78-.82,5,5,0,0,1,3.54,1.33l-1,1.53a4.47,4.47,0,0,0-2.68-1.08,2.15,2.15,0,0,0-1,.23.78.78,0,0,0-.41.75.75.75,0,0,0,.37.69,5.79,5.79,0,0,0,1.34.49c.52.16.94.29,1.24.4a8.11,8.11,0,0,1,1,.4,2.64,2.64,0,0,1,.73.52,2.06,2.06,0,0,1,.41.65,2.29,2.29,0,0,1,.16.9,2.6,2.6,0,0,1-1,2.18A4.42,4.42,0,0,1,642,479.7Z"/><path class="cls-1" d="M656.09,479.7a6.66,6.66,0,0,1-2.32-.41,5,5,0,0,1-1.87-1.16l.86-1.56a5.31,5.31,0,0,0,3.24,1.34,2.15,2.15,0,0,0,1.13-.26.85.85,0,0,0,.42-.75,1.25,1.25,0,0,0,0-.21.76.76,0,0,0-.09-.18l-.12-.14a.56.56,0,0,0-.18-.13l-.22-.11-.29-.1-.3-.1-.36-.1-.4-.12c-.46-.15-.84-.28-1.14-.4a6.13,6.13,0,0,1-.86-.41,2.57,2.57,0,0,1-.65-.5,2.13,2.13,0,0,1-.37-.62,2.41,2.41,0,0,1-.13-.83,2.7,2.7,0,0,1,1-2.22,4.38,4.38,0,0,1,2.78-.82,5,5,0,0,1,3.54,1.33l-1,1.53a4.5,4.5,0,0,0-2.68-1.08,2.18,2.18,0,0,0-1,.23.78.78,0,0,0-.41.75.75.75,0,0,0,.37.69,5.79,5.79,0,0,0,1.34.49l1.24.4a7.34,7.34,0,0,1,.94.4,2.71,2.71,0,0,1,.74.52,2.06,2.06,0,0,1,.41.65,2.29,2.29,0,0,1,.16.9,2.6,2.6,0,0,1-1,2.18A4.42,4.42,0,0,1,656.09,479.7Z"/><path class="cls-1" d="M666.33,479.7a5.12,5.12,0,0,1-2.63-.67,4.46,4.46,0,0,1-1.74-1.76,4.92,4.92,0,0,1-.6-2.41,5.15,5.15,0,0,1,.6-2.46,4.49,4.49,0,0,1,1.74-1.8,5.14,5.14,0,0,1,2.65-.67,5.29,5.29,0,0,1,2.06.39,4.47,4.47,0,0,1,1.56,1.07,4.79,4.79,0,0,1,.95,1.54,4.93,4.93,0,0,1,.34,1.84,5.82,5.82,0,0,1,0,.81h-7.3a2.48,2.48,0,0,0,.81,1.71,2.43,2.43,0,0,0,1.7.65,2.85,2.85,0,0,0,1.37-.35,1.87,1.87,0,0,0,.86-.93l2.07.58A4.07,4.07,0,0,1,669,479,5.31,5.31,0,0,1,666.33,479.7Zm-2.47-5.65h4.93a2.64,2.64,0,0,0-.79-1.72,2.47,2.47,0,0,0-3.36,0A2.59,2.59,0,0,0,663.86,474.05Z"/><path class="cls-1" d="M678.8,472.18a4.66,4.66,0,0,0-2,.43,2.56,2.56,0,0,0-1.22,1.21v5.7h-2.41v-9.43h2.21v2a4.51,4.51,0,0,1,1.28-1.53,2.87,2.87,0,0,1,1.64-.61,4.28,4.28,0,0,1,.49,0Z"/><path class="cls-1" d="M683.13,479.52l-3.48-9.43h2.51l2.37,7.24,2.4-7.24h2.28l-3.45,9.43Z"/><path class="cls-1" d="M695,479.7a5.09,5.09,0,0,1-2.63-.67,4.48,4.48,0,0,1-1.75-1.76,4.92,4.92,0,0,1-.6-2.41,5.15,5.15,0,0,1,.6-2.46,4.52,4.52,0,0,1,1.75-1.8,5.14,5.14,0,0,1,2.65-.67,5.32,5.32,0,0,1,2.06.39,4.34,4.34,0,0,1,1.55,1.07,4.65,4.65,0,0,1,1,1.54,4.93,4.93,0,0,1,.34,1.84,5.82,5.82,0,0,1,0,.81h-7.3a2.48,2.48,0,0,0,.81,1.71,2.43,2.43,0,0,0,1.7.65,2.81,2.81,0,0,0,1.36-.35,1.85,1.85,0,0,0,.87-.93l2.07.58a4.1,4.1,0,0,1-1.7,1.78A5.24,5.24,0,0,1,695,479.7Zm-2.47-5.65h4.93a2.65,2.65,0,0,0-.8-1.72,2.46,2.46,0,0,0-3.35,0A2.59,2.59,0,0,0,692.52,474.05Z"/><path class="cls-1" d="M701.26,474.8a5.75,5.75,0,0,1,.53-2.46,4.33,4.33,0,0,1,1.51-1.76,3.78,3.78,0,0,1,2.18-.65,3.58,3.58,0,0,1,1.85.49,3.82,3.82,0,0,1,1.33,1.32v-5.36h2.41v10.44a.92.92,0,0,0,.13.55.53.53,0,0,0,.43.19v2a5,5,0,0,1-1,.13,1.76,1.76,0,0,1-1.07-.32,1.22,1.22,0,0,1-.48-.85l0-.59a3.47,3.47,0,0,1-1.4,1.34,4,4,0,0,1-1.88.47,4.23,4.23,0,0,1-2.31-.65,4.42,4.42,0,0,1-1.6-1.77A5.39,5.39,0,0,1,701.26,474.8Zm7.4,1.27v-2.25a2.91,2.91,0,0,0-1-1.31,2.37,2.37,0,0,0-1.43-.53,2.17,2.17,0,0,0-1.76.86,3.09,3.09,0,0,0-.71,2,2.85,2.85,0,0,0,.74,2,2.48,2.48,0,0,0,3.25.35A2.25,2.25,0,0,0,708.66,476.07Z"/><path class="cls-1" d="M718.06,474.82a4.9,4.9,0,0,1,.35-1.87,5,5,0,0,1,1-1.56,4.42,4.42,0,0,1,1.57-1.07,5.36,5.36,0,0,1,2.06-.39,5,5,0,0,1,2.63.68,4.52,4.52,0,0,1,1.72,1.78,5.14,5.14,0,0,1,.59,2.43,5.08,5.08,0,0,1-.35,1.86,5,5,0,0,1-1,1.56,4.4,4.4,0,0,1-1.56,1.06,5.2,5.2,0,0,1-2.07.4,5.49,5.49,0,0,1-1.69-.26,4.31,4.31,0,0,1-1.38-.72,5.13,5.13,0,0,1-1-1.06,4.75,4.75,0,0,1-.65-1.34A5.33,5.33,0,0,1,718.06,474.82Zm5,2.83a2.24,2.24,0,0,0,1.76-.81,3,3,0,0,0,.7-2,3,3,0,0,0-.7-2A2.26,2.26,0,0,0,723,472a2.24,2.24,0,0,0-1.75.81,3.28,3.28,0,0,0,0,4.06A2.26,2.26,0,0,0,723,477.65Z"/><path class="cls-1" d="M738.78,479.52h-2.41v-5.29c0-1.45-.5-2.18-1.5-2.18a2.42,2.42,0,0,0-1.47.56,2.9,2.9,0,0,0-1,1.4v5.51H730v-9.43h2.18v1.75a3.59,3.59,0,0,1,1.53-1.4,4.78,4.78,0,0,1,2.22-.51,3.21,3.21,0,0,1,1.2.21,2.25,2.25,0,0,1,.82.56,2.88,2.88,0,0,1,.5.84,4.72,4.72,0,0,1,.25,1,9.08,9.08,0,0,1,.07,1.09Z"/><path class="cls-1" d="M748.5,477.87v5.49h-2.41V470.09h2.11v1.62a3.81,3.81,0,0,1,1.37-1.31,3.7,3.7,0,0,1,1.88-.47,4.14,4.14,0,0,1,2.26.65,4.49,4.49,0,0,1,1.59,1.78,5.23,5.23,0,0,1,.56,2.43,5.8,5.8,0,0,1-.52,2.48,4.48,4.48,0,0,1-1.48,1.78,3.69,3.69,0,0,1-2.12.65,3.8,3.8,0,0,1-1.92-.48A3.56,3.56,0,0,1,748.5,477.87Zm4.89-3.08a2.86,2.86,0,0,0-.74-2,2.44,2.44,0,0,0-1.87-.81,2.37,2.37,0,0,0-1.37.46,2.23,2.23,0,0,0-.91,1.12v2.22a3.18,3.18,0,0,0,1,1.34,2.31,2.31,0,0,0,1.43.53,2.2,2.2,0,0,0,1.77-.85A3.1,3.1,0,0,0,753.39,474.79Z"/><path class="cls-1" d="M757.3,476.74a2.63,2.63,0,0,1,1.12-2.22,4.72,4.72,0,0,1,2.93-.85,6,6,0,0,1,2.27.38v-.5a1.79,1.79,0,0,0-.53-1.39,2.3,2.3,0,0,0-1.58-.49,4,4,0,0,0-1.44.26,7.82,7.82,0,0,0-1.51.81l-.78-1.58a7.19,7.19,0,0,1,4-1.23,4.48,4.48,0,0,1,3.14,1,3.66,3.66,0,0,1,1.13,2.88v3a.85.85,0,0,0,.13.55.58.58,0,0,0,.45.19v2a4.88,4.88,0,0,1-1,.13,1.73,1.73,0,0,1-1.08-.31,1.29,1.29,0,0,1-.47-.81l0-.48a4.22,4.22,0,0,1-1.53,1.21,4.31,4.31,0,0,1-1.87.44,3.37,3.37,0,0,1-2.35-.84A2.75,2.75,0,0,1,757.3,476.74Zm5.87.48a1.24,1.24,0,0,0,.45-.83v-.95a4.83,4.83,0,0,0-1.89-.38,2.65,2.65,0,0,0-1.55.41,1.24,1.24,0,0,0-.6,1.06,1.29,1.29,0,0,0,.46,1,1.74,1.74,0,0,0,1.22.42,2.92,2.92,0,0,0,1-.2A2.54,2.54,0,0,0,763.17,477.22Z"/><path class="cls-1" d="M768.16,474.8a5.43,5.43,0,0,1,.56-2.46,4.37,4.37,0,0,1,1.56-1.76,4.1,4.1,0,0,1,2.28-.65,3.75,3.75,0,0,1,1.9.48,4.2,4.2,0,0,1,1.39,1.33v-1.65H778v9a4.16,4.16,0,0,1-.68,2.39,4.23,4.23,0,0,1-1.86,1.55,6.6,6.6,0,0,1-2.7.53,6,6,0,0,1-2.55-.5,5.35,5.35,0,0,1-1.86-1.47l1.31-1.27a4,4,0,0,0,1.37,1,4.15,4.15,0,0,0,1.73.38,3.5,3.5,0,0,0,1.09-.16,2.62,2.62,0,0,0,.89-.47,2,2,0,0,0,.62-.83,2.94,2.94,0,0,0,.23-1.19v-1.18a3.2,3.2,0,0,1-1.31,1.24,3.83,3.83,0,0,1-1.82.45,3.93,3.93,0,0,1-2.21-.65,4.31,4.31,0,0,1-1.51-1.74A5.34,5.34,0,0,1,768.16,474.8Zm7.39,1.27v-2.25a2.91,2.91,0,0,0-1-1.33,2.4,2.4,0,0,0-1.45-.51,2.16,2.16,0,0,0-1.77.87,3.16,3.16,0,0,0-.69,2,2.77,2.77,0,0,0,.75,2,2.44,2.44,0,0,0,1.85.8,2.35,2.35,0,0,0,1.41-.46A2.51,2.51,0,0,0,775.55,476.07Z"/><path class="cls-1" d="M785,479.7a5.12,5.12,0,0,1-2.63-.67,4.55,4.55,0,0,1-1.75-1.76,5,5,0,0,1-.59-2.41,5.26,5.26,0,0,1,.59-2.46,4.58,4.58,0,0,1,1.75-1.8,5.14,5.14,0,0,1,2.65-.67,5.29,5.29,0,0,1,2.06.39,4.47,4.47,0,0,1,1.56,1.07,4.79,4.79,0,0,1,.95,1.54,4.93,4.93,0,0,1,.34,1.84,4.59,4.59,0,0,1,0,.81h-7.29a2.47,2.47,0,0,0,2.5,2.36,2.85,2.85,0,0,0,1.37-.35,1.87,1.87,0,0,0,.86-.93l2.07.58a4.07,4.07,0,0,1-1.69,1.78A5.31,5.31,0,0,1,785,479.7Zm-2.47-5.65h4.93a2.64,2.64,0,0,0-.79-1.72,2.47,2.47,0,0,0-3.36,0A2.59,2.59,0,0,0,782.49,474.05Z"/><path class="cls-1" d="M795.28,479.7a6.66,6.66,0,0,1-2.32-.41,5,5,0,0,1-1.87-1.16l.86-1.56a5.31,5.31,0,0,0,3.24,1.34,2.15,2.15,0,0,0,1.13-.26.85.85,0,0,0,.42-.75,1.25,1.25,0,0,0,0-.21.76.76,0,0,0-.09-.18l-.12-.14a.56.56,0,0,0-.18-.13l-.22-.11-.28-.1-.31-.1-.36-.1-.4-.12c-.46-.15-.84-.28-1.13-.4a5.75,5.75,0,0,1-.87-.41,2.57,2.57,0,0,1-.65-.5,2.13,2.13,0,0,1-.37-.62,2.41,2.41,0,0,1-.13-.83,2.7,2.7,0,0,1,1-2.22,4.38,4.38,0,0,1,2.78-.82,5,5,0,0,1,3.54,1.33l-1,1.53a4.47,4.47,0,0,0-2.68-1.08,2.18,2.18,0,0,0-1.05.23.78.78,0,0,0-.41.75.75.75,0,0,0,.37.69,5.79,5.79,0,0,0,1.34.49c.52.16.94.29,1.24.4a7.45,7.45,0,0,1,1,.4,2.64,2.64,0,0,1,.73.52,2.06,2.06,0,0,1,.41.65,2.29,2.29,0,0,1,.16.9,2.6,2.6,0,0,1-1,2.18A4.4,4.4,0,0,1,795.28,479.7Z"/><path class="cls-1" d="M654.47,498a6.56,6.56,0,0,1-2.67.64,3.21,3.21,0,0,1-.95-.13,2.46,2.46,0,0,1-.77-.4,1.67,1.67,0,0,1-.53-.73,2.64,2.64,0,0,1-.2-1.06V491h-1.24v-1.86h1.24V486h2.42v3.06h2V491h-2v4.6c0,.62.31.93.89.93a3.6,3.6,0,0,0,1.32-.35Z"/><path class="cls-1" d="M664.94,498.52h-2.41v-5.29a2.72,2.72,0,0,0-.41-1.63,1.38,1.38,0,0,0-1.17-.55,2.28,2.28,0,0,0-1.4.56,3,3,0,0,0-1,1.4v5.51h-2.41V485.38h2.41v5.46a3.79,3.79,0,0,1,1.43-1.41,3.86,3.86,0,0,1,2-.5q3,0,3,3.7Z"/><path class="cls-1" d="M666.84,495.74a2.63,2.63,0,0,1,1.12-2.22,4.72,4.72,0,0,1,2.93-.85,6,6,0,0,1,2.27.38v-.5a1.79,1.79,0,0,0-.53-1.39,2.32,2.32,0,0,0-1.58-.49,4,4,0,0,0-1.44.26,7.82,7.82,0,0,0-1.51.81l-.78-1.58a7.19,7.19,0,0,1,4-1.23,4.48,4.48,0,0,1,3.14,1,3.66,3.66,0,0,1,1.12,2.88v3a.85.85,0,0,0,.14.55.55.55,0,0,0,.44.19v2a4.73,4.73,0,0,1-1,.13,1.71,1.71,0,0,1-1.08-.31,1.29,1.29,0,0,1-.47-.81l-.05-.48a4.22,4.22,0,0,1-1.53,1.21,4.34,4.34,0,0,1-1.87.44,3.37,3.37,0,0,1-2.35-.84A2.75,2.75,0,0,1,666.84,495.74Zm5.87.48a1.24,1.24,0,0,0,.45-.83v-.95a4.83,4.83,0,0,0-1.89-.38,2.63,2.63,0,0,0-1.55.41,1.24,1.24,0,0,0-.6,1.06,1.26,1.26,0,0,0,.46,1,1.72,1.72,0,0,0,1.22.42,2.92,2.92,0,0,0,1.05-.2A2.54,2.54,0,0,0,672.71,496.22Z"/><path class="cls-1" d="M683.83,498a6.56,6.56,0,0,1-2.67.64,3.1,3.1,0,0,1-.94-.13,2.4,2.4,0,0,1-.78-.4,1.77,1.77,0,0,1-.54-.73,2.83,2.83,0,0,1-.19-1.06V491h-1.24v-1.86h1.24V486h2.42v3.06h2V491h-2v4.6q0,.93.9.93a3.56,3.56,0,0,0,1.31-.35Z"/><path class="cls-1" d="M689.65,495.74a2.63,2.63,0,0,1,1.12-2.22,4.72,4.72,0,0,1,2.93-.85,6,6,0,0,1,2.27.38v-.5a1.79,1.79,0,0,0-.53-1.39,2.3,2.3,0,0,0-1.58-.49,4.13,4.13,0,0,0-1.44.26,7.82,7.82,0,0,0-1.51.81l-.78-1.58a7.19,7.19,0,0,1,4-1.23,4.52,4.52,0,0,1,3.15,1,3.69,3.69,0,0,1,1.12,2.88v3a.85.85,0,0,0,.13.55.59.59,0,0,0,.45.19v2a4.88,4.88,0,0,1-1,.13,1.73,1.73,0,0,1-1.08-.31,1.29,1.29,0,0,1-.47-.81l0-.48a4.14,4.14,0,0,1-1.53,1.21,4.31,4.31,0,0,1-1.87.44,3.37,3.37,0,0,1-2.35-.84A2.75,2.75,0,0,1,689.65,495.74Zm5.87.48a1.24,1.24,0,0,0,.45-.83v-.95a4.83,4.83,0,0,0-1.89-.38,2.65,2.65,0,0,0-1.55.41,1.24,1.24,0,0,0-.6,1.06,1.29,1.29,0,0,0,.46,1,1.74,1.74,0,0,0,1.22.42,2.92,2.92,0,0,0,1-.2A2.44,2.44,0,0,0,695.52,496.22Z"/><path class="cls-1" d="M706.69,491.18a4.58,4.58,0,0,0-2,.43,2.63,2.63,0,0,0-1.23,1.21v5.7h-2.4v-9.43h2.21v2a4.4,4.4,0,0,1,1.28-1.53,2.84,2.84,0,0,1,1.64-.61,4.06,4.06,0,0,1,.48,0Z"/><path class="cls-1" d="M712.74,498.7a5.12,5.12,0,0,1-2.63-.67,4.46,4.46,0,0,1-1.74-1.76,4.92,4.92,0,0,1-.6-2.41,5.15,5.15,0,0,1,.6-2.46,4.49,4.49,0,0,1,1.74-1.8,5.14,5.14,0,0,1,2.65-.67,5.29,5.29,0,0,1,2.06.39,4.47,4.47,0,0,1,1.56,1.07,4.79,4.79,0,0,1,1,1.54,4.93,4.93,0,0,1,.34,1.84,5.82,5.82,0,0,1,0,.81h-7.3a2.48,2.48,0,0,0,.81,1.71,2.43,2.43,0,0,0,1.7.65,2.85,2.85,0,0,0,1.37-.35,1.87,1.87,0,0,0,.86-.93l2.07.58a4.07,4.07,0,0,1-1.69,1.78A5.31,5.31,0,0,1,712.74,498.7Zm-2.47-5.65h4.93a2.64,2.64,0,0,0-.79-1.72,2.47,2.47,0,0,0-3.36,0A2.59,2.59,0,0,0,710.27,493.05Z"/><path class="cls-1" d="M730,491.18a4.58,4.58,0,0,0-2,.43,2.63,2.63,0,0,0-1.23,1.21v5.7h-2.4v-9.43h2.21v2a4.3,4.3,0,0,1,1.28-1.53,2.84,2.84,0,0,1,1.64-.61,4.06,4.06,0,0,1,.48,0Z"/><path class="cls-1" d="M731.77,487.77v-2.39h2.4v2.39Zm0,10.75v-9.43h2.4v9.43Z"/><path class="cls-1" d="M740.28,498.7a6.62,6.62,0,0,1-2.32-.41,5,5,0,0,1-1.88-1.16l.87-1.56a5.28,5.28,0,0,0,3.24,1.34,2.17,2.17,0,0,0,1.13-.26.84.84,0,0,0,.41-.75.68.68,0,0,0,0-.21.48.48,0,0,0-.08-.18l-.12-.14a.62.62,0,0,0-.19-.13l-.22-.11-.28-.1-.3-.1-.37-.1-.39-.12c-.46-.15-.85-.28-1.14-.4a6.24,6.24,0,0,1-.87-.41,2.76,2.76,0,0,1-.65-.5,2.1,2.1,0,0,1-.36-.62,2.41,2.41,0,0,1-.14-.83,2.68,2.68,0,0,1,1-2.22,4.36,4.36,0,0,1,2.78-.82,5,5,0,0,1,3.54,1.33l-1,1.53a4.47,4.47,0,0,0-2.68-1.08,2.13,2.13,0,0,0-1,.23.78.78,0,0,0-.42.75.75.75,0,0,0,.37.69,6.11,6.11,0,0,0,1.35.49c.52.16.93.29,1.23.4a7.45,7.45,0,0,1,1,.4,2.88,2.88,0,0,1,.74.52,2.13,2.13,0,0,1,.56,1.55,2.6,2.6,0,0,1-1,2.18A4.37,4.37,0,0,1,740.28,498.7Z"/><path class="cls-1" d="M752.58,498.52l-2.75-4.07-1.28,1.27v2.8h-2.41V485.38h2.41v8l3.8-4.23h2.55l-3.5,4,3.76,5.41Z"/><path class="cls-1" d="M756.82,500.36a4.59,4.59,0,0,0,1.08.18,1,1,0,0,0,.8-.42,5.94,5.94,0,0,0,.66-1.6l-3.73-9.43h2.51l2.54,7,2.23-7h2.3l-4,11.31a3.21,3.21,0,0,1-1.19,1.62,3.31,3.31,0,0,1-2,.63,3.71,3.71,0,0,1-1.21-.21Z"/><path class="cls-1" d="M48.07,196.84a8.73,8.73,0,0,1-3.73-.8,6.63,6.63,0,0,1-2.72-2.27,5.8,5.8,0,0,1-1-3.37,4.26,4.26,0,0,1,.83-2.59,6.84,6.84,0,0,1,2-1.83,4.4,4.4,0,0,1-1.6-1.5,3.76,3.76,0,0,1-.63-2,4.89,4.89,0,0,1,.42-2,5.09,5.09,0,0,1,1.11-1.6,7.23,7.23,0,0,1,1.59-1.16,7.89,7.89,0,0,1,1.85-.72,8.29,8.29,0,0,1,1.9-.23,8,8,0,0,1,2.4.38,8.41,8.41,0,0,1,2.22,1.06,5.29,5.29,0,0,1,1.66,1.79,4.75,4.75,0,0,1,.64,2.43,3.81,3.81,0,0,1-.66,2.09A4.19,4.19,0,0,1,52.71,186a6.35,6.35,0,0,1,2,1.88,4.65,4.65,0,0,1,.83,2.72,5.59,5.59,0,0,1-1,3.28,6.51,6.51,0,0,1-2.72,2.21A9,9,0,0,1,48.07,196.84Zm0-9a3.06,3.06,0,0,0-2,.69,2.26,2.26,0,0,0-.82,1.8,2.19,2.19,0,0,0,.86,1.76,3.12,3.12,0,0,0,2,.7,3,3,0,0,0,2-.72,2.26,2.26,0,0,0,.83-1.77,2.19,2.19,0,0,0-.83-1.8A3.2,3.2,0,0,0,48.07,187.83Zm0-3.37a2.52,2.52,0,0,0,1.58-.52,1.7,1.7,0,0,0,.69-1.43,1.62,1.62,0,0,0-.66-1.32,2.7,2.7,0,0,0-3.21,0,1.64,1.64,0,0,0-.65,1.32,1.68,1.68,0,0,0,.69,1.43A2.51,2.51,0,0,0,48.07,184.46Z"/><path class="cls-1" d="M66.65,196.84a8.73,8.73,0,0,1-3.73-.8,6.63,6.63,0,0,1-2.72-2.27,5.8,5.8,0,0,1-1-3.37,4.26,4.26,0,0,1,.83-2.59A6.84,6.84,0,0,1,62,186a4.33,4.33,0,0,1-1.6-1.5,3.76,3.76,0,0,1-.63-2,5,5,0,0,1,1.53-3.61,7.23,7.23,0,0,1,1.59-1.16,7.89,7.89,0,0,1,1.85-.72,8.29,8.29,0,0,1,1.9-.23,8,8,0,0,1,2.4.38,8.72,8.72,0,0,1,2.22,1.06,5.29,5.29,0,0,1,1.66,1.79,4.75,4.75,0,0,1,.64,2.43,3.81,3.81,0,0,1-.66,2.09A4.19,4.19,0,0,1,71.29,186a6.35,6.35,0,0,1,2,1.88,4.65,4.65,0,0,1,.83,2.72,5.53,5.53,0,0,1-1,3.28,6.42,6.42,0,0,1-2.71,2.21A9,9,0,0,1,66.65,196.84Zm0-9a3.06,3.06,0,0,0-2,.69,2.23,2.23,0,0,0-.82,1.8,2.19,2.19,0,0,0,.86,1.76,3.12,3.12,0,0,0,2,.7,2.94,2.94,0,0,0,2-.72,2.24,2.24,0,0,0,.84-1.77,2.17,2.17,0,0,0-.84-1.8A3.15,3.15,0,0,0,66.65,187.83Zm0-3.37a2.52,2.52,0,0,0,1.58-.52,1.7,1.7,0,0,0,.69-1.43,1.62,1.62,0,0,0-.66-1.32,2.52,2.52,0,0,0-1.61-.53,2.49,2.49,0,0,0-1.6.53,1.64,1.64,0,0,0-.65,1.32,1.68,1.68,0,0,0,.69,1.43A2.51,2.51,0,0,0,66.65,184.46Z"/><path class="cls-1" d="M78.14,196.59V192h3.73v4.56Z"/><path class="cls-1" d="M87.8,188.2a6.12,6.12,0,0,1-2-4.68,6.68,6.68,0,0,1,1-3.53,7,7,0,0,1,2.69-2.52,8,8,0,0,1,3.82-.92A6.69,6.69,0,0,1,98.78,179a10.86,10.86,0,0,1,2,6.94c0,3.45-.71,6.12-2.13,8a6.9,6.9,0,0,1-5.84,2.85,8.25,8.25,0,0,1-3.51-.75,8.48,8.48,0,0,1-2.85-2.18L89,191.08a5.2,5.2,0,0,0,1.74,1.4,4.64,4.64,0,0,0,2.11.5,3.27,3.27,0,0,0,2.67-1.19,5.16,5.16,0,0,0,1-3.32,4.28,4.28,0,0,1-3.7,1.63A7.13,7.13,0,0,1,87.8,188.2Zm7.65-6.93a3,3,0,0,0-4.4,0,3.11,3.11,0,0,0-.93,2.25,2.87,2.87,0,0,0,.92,2.14,3.06,3.06,0,0,0,2.21.88,3.1,3.1,0,0,0,2.22-.88,2.84,2.84,0,0,0,.93-2.14A3.09,3.09,0,0,0,95.45,181.27Z"/><path class="cls-1" d="M104.23,180.75a4,4,0,0,1,1.42-3.06,5.37,5.37,0,0,1,6.91,0,4,4,0,0,1,0,6.13,5.37,5.37,0,0,1-6.91,0A4,4,0,0,1,104.23,180.75Zm2,14.27,8-9.07,7.31-9.5,2,1.81-7.77,8.84-7.59,9.74Zm4.12-12.75a2.34,2.34,0,0,0,.5-1.52,2.27,2.27,0,0,0-.5-1.51,1.47,1.47,0,0,0-2.42,0,2.36,2.36,0,0,0-.5,1.5,2.4,2.4,0,0,0,.5,1.52,1.52,1.52,0,0,0,1.21.64A1.5,1.5,0,0,0,110.31,182.27Zm5.49,10.29a4,4,0,0,1,1.42-3.07,5.33,5.33,0,0,1,6.91,0,4,4,0,0,1,0,6.12,5.4,5.4,0,0,1-6.91,0A3.93,3.93,0,0,1,115.8,192.56Zm6.61,0a2.39,2.39,0,0,0-.52-1.52,1.51,1.51,0,0,0-1.22-.64,1.49,1.49,0,0,0-1.21.63,2.39,2.39,0,0,0-.51,1.53,2.32,2.32,0,0,0,.51,1.51,1.5,1.5,0,0,0,1.21.62,1.53,1.53,0,0,0,1.22-.63A2.36,2.36,0,0,0,122.41,192.56Z"/><path class="cls-1" d="M246.83,196.84a9,9,0,0,1-4-.87,6.27,6.27,0,0,1-2.7-2.43l2.56-2.77a6.05,6.05,0,0,0,1.91,1.58,4.83,4.83,0,0,0,2.25.58,3,3,0,0,0,2.12-.76,2.69,2.69,0,0,0-1.87-4.68,3,3,0,0,0-1.45.35,2.49,2.49,0,0,0-1,.95h-3.95l2.37-12.1h10.06v4.08h-6.77l-.59,3.39a3,3,0,0,1,2-.5,6.69,6.69,0,0,1,4.81,1.8,6.09,6.09,0,0,1,1.88,4.61,6.2,6.2,0,0,1-2.15,4.88A8,8,0,0,1,246.83,196.84Z"/><path class="cls-1" d="M264.49,196.84a8.91,8.91,0,0,1-4-.87,6.24,6.24,0,0,1-2.71-2.43l2.56-2.77a6.05,6.05,0,0,0,1.91,1.58,4.83,4.83,0,0,0,2.25.58,3,3,0,0,0,2.12-.76,2.58,2.58,0,0,0,.82-2,2.59,2.59,0,0,0-2.69-2.69,3,3,0,0,0-1.45.35,2.47,2.47,0,0,0-1,.95h-4l2.37-12.1h10.06v4.08H264l-.6,3.39a3,3,0,0,1,2-.5,6.69,6.69,0,0,1,4.81,1.8,6.09,6.09,0,0,1,1.88,4.61A6.17,6.17,0,0,1,270,195,8,8,0,0,1,264.49,196.84Z"/><path class="cls-1" d="M276,196.59V192h3.73v4.56Z"/><path class="cls-1" d="M296.73,185.23a6.15,6.15,0,0,1,2,4.68,6.62,6.62,0,0,1-1,3.52,6.9,6.9,0,0,1-2.68,2.51,7.83,7.83,0,0,1-3.8.93,6.7,6.7,0,0,1-5.53-2.5,10.84,10.84,0,0,1-2-6.94c0-3.44.71-6.12,2.13-8a6.89,6.89,0,0,1,5.86-2.86,8,8,0,0,1,3.47.76,8.29,8.29,0,0,1,2.84,2.18l-2.55,2.86a5.07,5.07,0,0,0-1.72-1.41,4.71,4.71,0,0,0-2.14-.51,3.3,3.3,0,0,0-2.66,1.19,5.28,5.28,0,0,0-1,3.32,4.4,4.4,0,0,1,3.73-1.6A7.1,7.1,0,0,1,296.73,185.23Zm-7.64,6.92a3.06,3.06,0,0,0,4.41,0,3.09,3.09,0,0,0,.93-2.24,2.89,2.89,0,0,0-.92-2.15,3.21,3.21,0,0,0-4.44,0,2.89,2.89,0,0,0-.92,2.15A3.1,3.1,0,0,0,289.09,192.15Z"/><path class="cls-1" d="M302.13,180.75a3.93,3.93,0,0,1,1.42-3.06,5.37,5.37,0,0,1,6.91,0,4,4,0,0,1,0,6.13,5.37,5.37,0,0,1-6.91,0A4,4,0,0,1,302.13,180.75Zm2,14.27,8-9.06,7.3-9.51,2.05,1.81-7.78,8.84-7.58,9.74Zm4.12-12.75a2.4,2.4,0,0,0,.5-1.52,2.33,2.33,0,0,0-.5-1.51,1.51,1.51,0,0,0-1.21-.63,1.5,1.5,0,0,0-1.21.64,2.3,2.3,0,0,0-.5,1.5,2.34,2.34,0,0,0,.5,1.52,1.5,1.5,0,0,0,1.21.64A1.52,1.52,0,0,0,308.21,182.27Zm5.48,10.29a4,4,0,0,1,1.42-3.07,5.38,5.38,0,0,1,6.92,0,4,4,0,0,1,0,6.12,5.38,5.38,0,0,1-6.92,0A3.93,3.93,0,0,1,313.69,192.56Zm6.61,0a2.38,2.38,0,0,0-.51-1.52,1.53,1.53,0,0,0-1.23-.64,1.5,1.5,0,0,0-1.21.63,2.44,2.44,0,0,0-.5,1.53,2.37,2.37,0,0,0,.5,1.51,1.49,1.49,0,0,0,1.21.62,1.55,1.55,0,0,0,1.23-.63A2.35,2.35,0,0,0,320.3,192.56Z"/><path class="cls-1" d="M465.45,185.23a6.14,6.14,0,0,1,2,4.68,6.61,6.61,0,0,1-1,3.52,6.93,6.93,0,0,1-2.69,2.51,7.83,7.83,0,0,1-3.8.93,6.71,6.71,0,0,1-5.53-2.5,10.84,10.84,0,0,1-2-6.94c0-3.44.71-6.12,2.13-8a6.89,6.89,0,0,1,5.86-2.86,8,8,0,0,1,3.47.76,8.42,8.42,0,0,1,2.85,2.18l-2.56,2.86a5,5,0,0,0-1.72-1.41,4.65,4.65,0,0,0-2.14-.51,3.26,3.26,0,0,0-2.65,1.19,5.28,5.28,0,0,0-1.05,3.32,4.4,4.4,0,0,1,3.73-1.6A7.13,7.13,0,0,1,465.45,185.23Zm-7.64,6.92a3,3,0,0,0,4.4,0,3.09,3.09,0,0,0,.93-2.24,2.85,2.85,0,0,0-.92-2.15,3.2,3.2,0,0,0-4.43,0,2.85,2.85,0,0,0-.92,2.15A3.06,3.06,0,0,0,457.81,192.15Z"/><path class="cls-1" d="M484.05,185.23a6.15,6.15,0,0,1,2,4.68,6.62,6.62,0,0,1-1,3.52,6.9,6.9,0,0,1-2.68,2.51,7.83,7.83,0,0,1-3.8.93,6.7,6.7,0,0,1-5.53-2.5,10.84,10.84,0,0,1-2-6.94c0-3.44.71-6.12,2.13-8a6.89,6.89,0,0,1,5.86-2.86,8,8,0,0,1,3.47.76,8.42,8.42,0,0,1,2.85,2.18l-2.56,2.86a5.07,5.07,0,0,0-1.72-1.41,4.71,4.71,0,0,0-2.14-.51,3.3,3.3,0,0,0-2.66,1.19,5.28,5.28,0,0,0-1,3.32,4.4,4.4,0,0,1,3.73-1.6A7.1,7.1,0,0,1,484.05,185.23Zm-7.64,6.92a3.06,3.06,0,0,0,4.41,0,3.09,3.09,0,0,0,.93-2.24,2.89,2.89,0,0,0-.92-2.15,3.07,3.07,0,0,0-2.21-.89,3.12,3.12,0,0,0-2.23.89,2.89,2.89,0,0,0-.92,2.15A3.1,3.1,0,0,0,476.41,192.15Z"/><path class="cls-1" d="M490,196.59V192h3.73v4.56Z"/><path class="cls-1" d="M505.54,180.77h-8.49v-4.08h15.67l-10,19.88h-5.15Z"/><path class="cls-1" d="M514.79,180.75a4,4,0,0,1,1.42-3.06,5.37,5.37,0,0,1,6.91,0,4,4,0,0,1,0,6.13,5.37,5.37,0,0,1-6.91,0A4,4,0,0,1,514.79,180.75Zm2,14.27,8-9.06,7.31-9.51,2,1.81-7.77,8.84-7.59,9.74Zm4.11-12.75a2.34,2.34,0,0,0,.5-1.52,2.27,2.27,0,0,0-.5-1.51,1.49,1.49,0,0,0-1.21-.63,1.52,1.52,0,0,0-1.21.64,2.36,2.36,0,0,0-.5,1.5,2.4,2.4,0,0,0,.5,1.52,1.52,1.52,0,0,0,1.21.64A1.5,1.5,0,0,0,520.87,182.27Zm5.49,10.29a4,4,0,0,1,1.42-3.07,5.37,5.37,0,0,1,6.91,0,4,4,0,0,1,0,6.12,5.37,5.37,0,0,1-6.91,0A3.93,3.93,0,0,1,526.36,192.56Zm6.61,0a2.39,2.39,0,0,0-.52-1.52,1.51,1.51,0,0,0-1.22-.64A1.49,1.49,0,0,0,530,191a2.39,2.39,0,0,0-.51,1.53,2.32,2.32,0,0,0,.51,1.51,1.48,1.48,0,0,0,1.21.62,1.53,1.53,0,0,0,1.22-.63A2.36,2.36,0,0,0,533,192.56Z"/><path class="cls-1" d="M679.74,196.57V192.4h-8v-4l9.41-11.7h3.1v11.7h2.52v4h-2.52v4.17Zm-3.42-8.18h3.93v-5Z"/><path class="cls-1" d="M697.86,196.57V192.4h-8v-4l9.41-11.7h3.1v11.7h2.52v4h-2.52v4.17Zm-3.42-8.18h3.93v-5Z"/><path class="cls-1" d="M708.83,196.59V192h3.73v4.56Z"/><path class="cls-1" d="M724.07,196.57V192.4h-8v-4l9.4-11.7h3.11v11.7h2.51v4h-2.51v4.17Zm-3.43-8.18h3.94v-5Z"/><path class="cls-1" d="M734.46,180.75a4,4,0,0,1,1.42-3.06,5.37,5.37,0,0,1,6.91,0,4,4,0,0,1,0,6.13,5.37,5.37,0,0,1-6.91,0A4,4,0,0,1,734.46,180.75Zm2,14.27,8-9.06,7.31-9.51,2,1.81L746,187.1l-7.59,9.74Zm4.11-12.75a2.34,2.34,0,0,0,.5-1.52,2.27,2.27,0,0,0-.5-1.51,1.49,1.49,0,0,0-1.21-.63,1.52,1.52,0,0,0-1.21.64,2.36,2.36,0,0,0-.5,1.5,2.4,2.4,0,0,0,.5,1.52,1.52,1.52,0,0,0,1.21.64A1.5,1.5,0,0,0,740.54,182.27ZM746,192.56a4,4,0,0,1,1.42-3.07,5.37,5.37,0,0,1,6.91,0,4,4,0,0,1,0,6.12,5.37,5.37,0,0,1-6.91,0A3.93,3.93,0,0,1,746,192.56Zm6.61,0a2.39,2.39,0,0,0-.52-1.52,1.51,1.51,0,0,0-1.22-.64,1.49,1.49,0,0,0-1.21.63,2.39,2.39,0,0,0-.51,1.53,2.32,2.32,0,0,0,.51,1.51,1.48,1.48,0,0,0,1.21.62,1.53,1.53,0,0,0,1.22-.63A2.36,2.36,0,0,0,752.64,192.56Z"/><path class="cls-2" d="M47.57,419.19a8.91,8.91,0,0,1-4-.87,6.28,6.28,0,0,1-2.71-2.42l2.56-2.78a6.05,6.05,0,0,0,1.91,1.58,4.83,4.83,0,0,0,2.25.58,3,3,0,0,0,2.12-.76,2.57,2.57,0,0,0,.82-2,2.59,2.59,0,0,0-2.69-2.69,3,3,0,0,0-1.45.35,2.53,2.53,0,0,0-1,.95h-4L43.79,399H53.85v4.09H47.09l-.6,3.39a2.94,2.94,0,0,1,2-.51,6.69,6.69,0,0,1,4.81,1.8,6.6,6.6,0,0,1-.27,9.49A8,8,0,0,1,47.57,419.19Z"/><path class="cls-2" d="M71.73,407.58a6.14,6.14,0,0,1,2,4.68,6.61,6.61,0,0,1-1,3.52,6.93,6.93,0,0,1-2.69,2.51,7.83,7.83,0,0,1-3.8.93,6.68,6.68,0,0,1-5.53-2.5,10.82,10.82,0,0,1-2-6.94c0-3.44.71-6.12,2.13-8a6.89,6.89,0,0,1,5.86-2.86,8,8,0,0,1,3.47.76,8.55,8.55,0,0,1,2.85,2.18l-2.56,2.86a5.09,5.09,0,0,0-1.72-1.41,4.65,4.65,0,0,0-2.14-.51A3.26,3.26,0,0,0,64,404a5.31,5.31,0,0,0-1,3.33,4.37,4.37,0,0,1,3.73-1.6A7.12,7.12,0,0,1,71.73,407.58Zm-7.64,6.92a3,3,0,0,0,4.4,0,3.09,3.09,0,0,0,.93-2.24,2.88,2.88,0,0,0-.91-2.15,3.11,3.11,0,0,0-2.22-.89,3.08,3.08,0,0,0-2.22.89,2.85,2.85,0,0,0-.92,2.15A3.06,3.06,0,0,0,64.09,414.5Z"/><path class="cls-2" d="M77.69,418.94v-4.56h3.73v4.56Z"/><path class="cls-2" d="M87.36,410.56a6.16,6.16,0,0,1-2-4.69,6.61,6.61,0,0,1,1-3.52,6.93,6.93,0,0,1,2.7-2.53,8,8,0,0,1,3.82-.92,6.68,6.68,0,0,1,5.53,2.5,10.81,10.81,0,0,1,2,6.93c0,3.45-.71,6.12-2.13,8a6.89,6.89,0,0,1-5.85,2.86,8.32,8.32,0,0,1-3.51-.76A8.55,8.55,0,0,1,86,416.28l2.56-2.85a5.27,5.27,0,0,0,1.75,1.41,4.7,4.7,0,0,0,2.11.49,3.29,3.29,0,0,0,2.67-1.18,5.27,5.27,0,0,0,1-3.33,4.28,4.28,0,0,1-3.7,1.63A7.15,7.15,0,0,1,87.36,410.56ZM95,403.62a3,3,0,0,0-2.2-.95,3,3,0,0,0-2.2.95,3.13,3.13,0,0,0-.93,2.25,2.84,2.84,0,0,0,.91,2.14A3.21,3.21,0,0,0,95,408a2.85,2.85,0,0,0,.92-2.14A3.1,3.1,0,0,0,95,403.62Z"/><path class="cls-2" d="M103.79,403.1a4,4,0,0,1,1.42-3.06,5.37,5.37,0,0,1,6.91,0,4,4,0,0,1,0,6.13,5.37,5.37,0,0,1-6.91,0A4,4,0,0,1,103.79,403.1Zm2,14.27,8-9.06,7.31-9.5,2,1.8-7.78,8.85-7.58,9.73Zm4.12-12.75a2.4,2.4,0,0,0,.5-1.52,2.35,2.35,0,0,0-.5-1.51,1.5,1.5,0,0,0-1.21-.62,1.49,1.49,0,0,0-1.21.63,2.53,2.53,0,0,0,0,3,1.47,1.47,0,0,0,1.21.64A1.5,1.5,0,0,0,109.87,404.62Zm5.48,10.29a4,4,0,0,1,1.42-3.07,5.38,5.38,0,0,1,6.92,0,4,4,0,0,1,1.42,3.07,3.94,3.94,0,0,1-1.42,3,5.38,5.38,0,0,1-6.92,0A3.91,3.91,0,0,1,115.35,414.91Zm6.61,0a2.38,2.38,0,0,0-.51-1.52,1.53,1.53,0,0,0-1.23-.64,1.48,1.48,0,0,0-1.21.64,2.4,2.4,0,0,0-.5,1.52,2.35,2.35,0,0,0,.5,1.51,1.49,1.49,0,0,0,1.21.62,1.55,1.55,0,0,0,1.23-.63A2.33,2.33,0,0,0,122,414.91Z"/><path class="cls-2" d="M248.58,403.13H240.1V399h15.67l-10,19.88h-5.15Z"/><path class="cls-2" d="M265.51,419.19a8.66,8.66,0,0,1-3.73-.79,6.66,6.66,0,0,1-2.72-2.28,5.8,5.8,0,0,1-1-3.37,4.27,4.27,0,0,1,.82-2.59,6.79,6.79,0,0,1,2-1.82,4.33,4.33,0,0,1-1.59-1.51,3.75,3.75,0,0,1-.64-2.05,4.81,4.81,0,0,1,.42-2,5.14,5.14,0,0,1,1.11-1.61,7.69,7.69,0,0,1,1.59-1.15,7.1,7.1,0,0,1,1.85-.72,7.85,7.85,0,0,1,1.91-.23,7.94,7.94,0,0,1,2.39.37,8.73,8.73,0,0,1,2.22,1.06,5.28,5.28,0,0,1,1.66,1.79,4.76,4.76,0,0,1,.64,2.44,3.84,3.84,0,0,1-.66,2.09,4.26,4.26,0,0,1-1.62,1.52,6.27,6.27,0,0,1,2,1.88,4.59,4.59,0,0,1,.82,2.71,5.55,5.55,0,0,1-1,3.29,6.63,6.63,0,0,1-2.71,2.21A9.09,9.09,0,0,1,265.51,419.19Zm0-9a3,3,0,0,0-2,.69,2.23,2.23,0,0,0-.82,1.8,2.16,2.16,0,0,0,.85,1.76,3.09,3.09,0,0,0,2,.7,3,3,0,0,0,2-.72,2.24,2.24,0,0,0,.84-1.77,2.19,2.19,0,0,0-.84-1.8A3.17,3.17,0,0,0,265.51,410.18Zm0-3.36a2.55,2.55,0,0,0,1.58-.53,1.7,1.7,0,0,0,.69-1.43,1.62,1.62,0,0,0-.66-1.32,2.53,2.53,0,0,0-1.61-.52,2.46,2.46,0,0,0-1.6.52,1.62,1.62,0,0,0-.66,1.32,1.71,1.71,0,0,0,.69,1.44A2.51,2.51,0,0,0,265.51,406.82Z"/><path class="cls-2" d="M277,418.94v-4.56h3.73v4.56Z"/><path class="cls-2" d="M291.23,419.19a9,9,0,0,1-4-.87,6.25,6.25,0,0,1-2.7-2.42l2.56-2.78A5.82,5.82,0,0,0,289,414.7a4.83,4.83,0,0,0,2.25.58,3,3,0,0,0,2.12-.76,2.59,2.59,0,0,0,.81-2,2.57,2.57,0,0,0-2.68-2.69,3.14,3.14,0,0,0-1.45.35,2.56,2.56,0,0,0-1,.95h-3.95l2.36-12.1H297.5v4.09h-6.76l-.6,3.39a3,3,0,0,1,2-.51,6.66,6.66,0,0,1,4.8,1.8,6.09,6.09,0,0,1,1.89,4.61,6.18,6.18,0,0,1-2.15,4.88A8,8,0,0,1,291.23,419.19Z"/><path class="cls-2" d="M302.17,403.1a4,4,0,0,1,1.42-3.06,5.37,5.37,0,0,1,6.91,0,4,4,0,0,1,0,6.13,5.37,5.37,0,0,1-6.91,0A4,4,0,0,1,302.17,403.1Zm2,14.27,8-9.06,7.31-9.5,2,1.8-7.78,8.85-7.58,9.73Zm4.12-12.75a2.4,2.4,0,0,0,.5-1.52,2.35,2.35,0,0,0-.5-1.51,1.48,1.48,0,0,0-2.42,0,2.53,2.53,0,0,0,0,3,1.46,1.46,0,0,0,2.42,0Zm5.48,10.29a4,4,0,0,1,1.42-3.07,5.38,5.38,0,0,1,6.92,0,4,4,0,0,1,1.42,3.07,3.94,3.94,0,0,1-1.42,3,5.38,5.38,0,0,1-6.92,0A3.94,3.94,0,0,1,313.73,414.91Zm6.61,0a2.38,2.38,0,0,0-.51-1.52,1.56,1.56,0,0,0-1.23-.64,1.5,1.5,0,0,0-1.21.64,2.4,2.4,0,0,0-.5,1.52,2.35,2.35,0,0,0,.5,1.51,1.5,1.5,0,0,0,1.21.62,1.55,1.55,0,0,0,1.23-.63A2.31,2.31,0,0,0,320.34,414.91Z"/><path class="cls-2" d="M466.07,407.58a6.15,6.15,0,0,1,2,4.68,6.62,6.62,0,0,1-1,3.52,7,7,0,0,1-2.68,2.52,7.94,7.94,0,0,1-3.8.92,6.67,6.67,0,0,1-5.53-2.5,10.82,10.82,0,0,1-2-6.94c0-3.44.71-6.12,2.13-8a6.89,6.89,0,0,1,5.86-2.86,8,8,0,0,1,3.47.76,8.55,8.55,0,0,1,2.85,2.18l-2.56,2.86a5.19,5.19,0,0,0-1.72-1.41,4.71,4.71,0,0,0-2.14-.51,3.3,3.3,0,0,0-2.66,1.19,5.31,5.31,0,0,0-1,3.33,4.37,4.37,0,0,1,3.73-1.6A7.14,7.14,0,0,1,466.07,407.58Zm-7.64,6.92a3.06,3.06,0,0,0,4.41,0,3.07,3.07,0,0,0,.93-2.24,2.9,2.9,0,0,0-.92-2.15,3.21,3.21,0,0,0-4.44,0,2.9,2.9,0,0,0-.92,2.15A3.08,3.08,0,0,0,458.43,414.5Z"/><path class="cls-2" d="M479.13,419.19a8.65,8.65,0,0,1-3.72-.79,6.69,6.69,0,0,1-2.73-2.28,5.8,5.8,0,0,1-1-3.37,4.28,4.28,0,0,1,.83-2.59,6.67,6.67,0,0,1,2-1.82,4.43,4.43,0,0,1-1.6-1.51,3.73,3.73,0,0,1-.63-2.05,4.81,4.81,0,0,1,.42-2,5.14,5.14,0,0,1,1.11-1.61,7.43,7.43,0,0,1,1.59-1.15,7.1,7.1,0,0,1,1.85-.72,7.77,7.77,0,0,1,1.9-.23,8,8,0,0,1,2.4.37,8.73,8.73,0,0,1,2.22,1.06,5.39,5.39,0,0,1,1.66,1.79,4.76,4.76,0,0,1,.64,2.44,3.84,3.84,0,0,1-.66,2.09,4.26,4.26,0,0,1-1.62,1.52,6.24,6.24,0,0,1,2,1.88,4.6,4.6,0,0,1,.83,2.71,5.62,5.62,0,0,1-1,3.29,6.66,6.66,0,0,1-2.72,2.21A9,9,0,0,1,479.13,419.19Zm0-9a3.06,3.06,0,0,0-2,.69,2.26,2.26,0,0,0-.82,1.8,2.17,2.17,0,0,0,.86,1.76,3.07,3.07,0,0,0,2,.7,3,3,0,0,0,2-.72,2.26,2.26,0,0,0,.83-1.77,2.21,2.21,0,0,0-.83-1.8A3.2,3.2,0,0,0,479.13,410.18Zm0-3.36a2.51,2.51,0,0,0,1.58-.53,1.7,1.7,0,0,0,.69-1.43,1.62,1.62,0,0,0-.66-1.32,2.74,2.74,0,0,0-3.21,0,1.64,1.64,0,0,0-.65,1.32,1.71,1.71,0,0,0,.69,1.44A2.51,2.51,0,0,0,479.13,406.82Z"/><path class="cls-2" d="M490.62,418.94v-4.56h3.73v4.56Z"/><path class="cls-2" d="M511.3,414.91v4H499v-4h4V403.29a6.4,6.4,0,0,1-2,1.56,5.74,5.74,0,0,1-2.62.85v-4.12a3.68,3.68,0,0,0,1.26-.26,6.79,6.79,0,0,0,1.26-.65c.38-.25.73-.51,1.07-.78s.59-.49.78-.67a2,2,0,0,0,.3-.32h4.65v16Z"/><path class="cls-2" d="M514.17,403.1a4,4,0,0,1,1.42-3.06,5.37,5.37,0,0,1,6.91,0,4,4,0,0,1,0,6.13,5.37,5.37,0,0,1-6.91,0A4,4,0,0,1,514.17,403.1Zm2,14.27,8-9.06,7.3-9.5,2,1.8-7.78,8.85-7.58,9.73Zm4.12-12.75a2.4,2.4,0,0,0,.5-1.52,2.35,2.35,0,0,0-.5-1.51A1.5,1.5,0,0,0,519,401a1.49,1.49,0,0,0-1.21.63,2.53,2.53,0,0,0,0,3,1.47,1.47,0,0,0,1.21.64A1.5,1.5,0,0,0,520.25,404.62Zm5.48,10.29a4,4,0,0,1,1.42-3.07,5.38,5.38,0,0,1,6.92,0,4,4,0,0,1,1.42,3.07,3.94,3.94,0,0,1-1.42,3,5.38,5.38,0,0,1-6.92,0A3.91,3.91,0,0,1,525.73,414.91Zm6.61,0a2.38,2.38,0,0,0-.51-1.52,1.57,1.57,0,0,0-1.23-.64,1.48,1.48,0,0,0-1.21.64,2.4,2.4,0,0,0-.5,1.52,2.35,2.35,0,0,0,.5,1.51,1.49,1.49,0,0,0,1.21.62,1.56,1.56,0,0,0,1.23-.63A2.31,2.31,0,0,0,532.34,414.91Z"/><path class="cls-2" d="M679.25,418.92v-4.17h-8v-4L680.7,399h3.1v11.7h2.52v4H683.8v4.17Zm-3.42-8.18h3.94v-5Z"/><path class="cls-2" d="M702.86,407.58a6.15,6.15,0,0,1,2,4.68,6.62,6.62,0,0,1-1,3.52,7,7,0,0,1-2.68,2.52,7.94,7.94,0,0,1-3.8.92,6.67,6.67,0,0,1-5.53-2.5,10.76,10.76,0,0,1-2-6.94c0-3.44.71-6.12,2.13-8a6.89,6.89,0,0,1,5.86-2.86,8,8,0,0,1,3.47.76,8.42,8.42,0,0,1,2.84,2.18l-2.56,2.86a5.06,5.06,0,0,0-1.71-1.41,4.71,4.71,0,0,0-2.14-.51,3.3,3.3,0,0,0-2.66,1.19,5.31,5.31,0,0,0-1,3.33,4.37,4.37,0,0,1,3.73-1.6A7.14,7.14,0,0,1,702.86,407.58Zm-7.64,6.92a3.06,3.06,0,0,0,4.41,0,3.07,3.07,0,0,0,.93-2.24,2.9,2.9,0,0,0-.92-2.15,3.21,3.21,0,0,0-4.44,0,2.9,2.9,0,0,0-.92,2.15A3.08,3.08,0,0,0,695.22,414.5Z"/><path class="cls-2" d="M708.83,418.94v-4.56h3.73v4.56Z"/><path class="cls-2" d="M729.56,407.58a6.14,6.14,0,0,1,2,4.68,6.61,6.61,0,0,1-1,3.52,7,7,0,0,1-2.69,2.52,7.94,7.94,0,0,1-3.8.92,6.68,6.68,0,0,1-5.53-2.5,10.82,10.82,0,0,1-2-6.94c0-3.44.71-6.12,2.13-8a6.91,6.91,0,0,1,5.86-2.86,8,8,0,0,1,3.47.76,8.55,8.55,0,0,1,2.85,2.18l-2.56,2.86a5.09,5.09,0,0,0-1.72-1.41,4.65,4.65,0,0,0-2.14-.51,3.28,3.28,0,0,0-2.65,1.19,5.31,5.31,0,0,0-1.05,3.33,4.37,4.37,0,0,1,3.73-1.6A7.15,7.15,0,0,1,729.56,407.58Zm-7.64,6.92a3,3,0,0,0,4.4,0,3.07,3.07,0,0,0,.93-2.24,2.9,2.9,0,0,0-.91-2.15,3.21,3.21,0,0,0-4.44,0,2.87,2.87,0,0,0-.92,2.15A3,3,0,0,0,721.92,414.5Z"/><path class="cls-2" d="M735,403.1a4,4,0,0,1,1.42-3.06,5.37,5.37,0,0,1,6.91,0,4,4,0,0,1,0,6.13,5.37,5.37,0,0,1-6.91,0A4,4,0,0,1,735,403.1Zm2,14.27,8-9.06,7.31-9.5,2,1.8-7.77,8.85-7.59,9.73ZM741,404.62a2.34,2.34,0,0,0,.5-1.52,2.29,2.29,0,0,0-.5-1.51,1.48,1.48,0,0,0-1.21-.62,1.51,1.51,0,0,0-1.21.63,2.53,2.53,0,0,0,0,3,1.5,1.5,0,0,0,1.21.64A1.47,1.47,0,0,0,741,404.62Zm5.49,10.29a4,4,0,0,1,1.41-3.07,5.38,5.38,0,0,1,6.92,0,4,4,0,0,1,1.42,3.07,3.91,3.91,0,0,1-1.42,3,5.38,5.38,0,0,1-6.92,0A3.93,3.93,0,0,1,746.52,414.91Zm6.61,0a2.39,2.39,0,0,0-.52-1.52,1.54,1.54,0,0,0-1.22-.64,1.47,1.47,0,0,0-1.21.64,2.35,2.35,0,0,0-.51,1.52,2.3,2.3,0,0,0,.51,1.51,1.48,1.48,0,0,0,1.21.62,1.53,1.53,0,0,0,1.22-.63A2.32,2.32,0,0,0,753.13,414.91Z"/><circle class="cls-1" cx="73.43" cy="73.43" r="73.43"/><circle class="cls-2" cx="73.43" cy="298.94" r="47"/><circle class="cls-2" cx="280.07" cy="298.94" r="64.84"/><circle class="cls-1" cx="280.07" cy="73.43" r="45.92"/><circle class="cls-1" cx="714.03" cy="73.43" r="36.67"/><circle class="cls-2" cx="714.03" cy="298.94" r="38.49"/><circle class="cls-1" cx="485.77" cy="73.43" r="55.09"/><circle class="cls-2" cx="485.77" cy="298.94" r="56.25"/></g></g></svg>