<svg xmlns="http://www.w3.org/2000/svg" viewBox="0 0 998.6 510.29"><defs><style>.cls-1{fill:#fff;}.cls-2{fill:#00324a;}.cls-3{fill:#ffd12b;}</style></defs><title>9</title><g id="Capa_2" data-name="Capa 2"><g id="Layer_1" data-name="Layer 1"><path class="cls-1" d="M55.62,471.9H51.53v10.6H49.07V471.9H45v-2.18H55.62Z"/><path class="cls-1" d="M55.22,479.71a2.66,2.66,0,0,1,1.12-2.22,4.78,4.78,0,0,1,2.93-.84,6,6,0,0,1,2.27.37v-.5a1.78,1.78,0,0,0-.53-1.38,2.27,2.27,0,0,0-1.58-.49,4,4,0,0,0-1.44.26,7.3,7.3,0,0,0-1.51.81l-.78-1.59a7.19,7.19,0,0,1,4-1.23,4.52,4.52,0,0,1,3.14,1,3.69,3.69,0,0,1,1.12,2.89v3a.87.87,0,0,0,.14.55.59.59,0,0,0,.44.19v2a5.34,5.34,0,0,1-1,.12,1.71,1.71,0,0,1-1.08-.3,1.29,1.29,0,0,1-.47-.81L61.9,481a4.15,4.15,0,0,1-1.53,1.22,4.34,4.34,0,0,1-1.87.44,3.33,3.33,0,0,1-2.35-.85A2.74,2.74,0,0,1,55.22,479.71Zm5.87.49a1.26,1.26,0,0,0,.45-.83v-1a5,5,0,0,0-1.89-.37,2.7,2.7,0,0,0-1.55.4,1.25,1.25,0,0,0-.6,1.07,1.29,1.29,0,0,0,.46,1,1.72,1.72,0,0,0,1.22.42,2.92,2.92,0,0,0,1-.2A2.7,2.7,0,0,0,61.09,480.2Z"/><path class="cls-1" d="M72.26,475.15a4.58,4.58,0,0,0-2,.44,2.54,2.54,0,0,0-1.23,1.21v5.7H66.64v-9.43h2.22v2a4.3,4.3,0,0,1,1.28-1.53,2.9,2.9,0,0,1,1.64-.6h.48Z"/><path class="cls-1" d="M73.4,477.78a5.5,5.5,0,0,1,.56-2.47,4.43,4.43,0,0,1,1.56-1.76,4.18,4.18,0,0,1,2.28-.65,3.66,3.66,0,0,1,1.9.49,4.1,4.1,0,0,1,1.39,1.33v-1.65H83.2v9a4.16,4.16,0,0,1-.68,2.39A4.23,4.23,0,0,1,80.66,486a6.59,6.59,0,0,1-2.69.53,6.06,6.06,0,0,1-2.56-.5,5.46,5.46,0,0,1-1.86-1.47l1.31-1.28a3.84,3.84,0,0,0,1.37,1,4,4,0,0,0,1.74.39,3.49,3.49,0,0,0,1.08-.16,2.81,2.81,0,0,0,.89-.47,2.09,2.09,0,0,0,.62-.83,3,3,0,0,0,.23-1.19v-1.18a3.26,3.26,0,0,1-1.31,1.24,3.8,3.8,0,0,1-1.82.44,3.85,3.85,0,0,1-2.21-.65,4.19,4.19,0,0,1-1.51-1.74A5.27,5.27,0,0,1,73.4,477.78Zm7.39,1.27V476.8a2.91,2.91,0,0,0-1-1.33,2.4,2.4,0,0,0-1.45-.51,2.18,2.18,0,0,0-1.77.86,3.19,3.19,0,0,0-.69,2,2.77,2.77,0,0,0,.75,2,2.44,2.44,0,0,0,1.85.8,2.35,2.35,0,0,0,1.41-.46A2.51,2.51,0,0,0,80.79,479.05Z"/><path class="cls-1" d="M90.2,482.68a5.22,5.22,0,0,1-2.63-.67,4.52,4.52,0,0,1-1.74-1.76,4.92,4.92,0,0,1-.6-2.41,5.12,5.12,0,0,1,.6-2.46,4.49,4.49,0,0,1,1.74-1.8,5.5,5.5,0,0,1,4.71-.28,4.47,4.47,0,0,1,1.56,1.07,4.88,4.88,0,0,1,1,1.54,5.13,5.13,0,0,1,.33,1.84,4.4,4.4,0,0,1,0,.8H87.79a2.44,2.44,0,0,0,.8,1.72,2.47,2.47,0,0,0,1.7.65,2.75,2.75,0,0,0,1.37-.36,1.86,1.86,0,0,0,.86-.92l2.07.58A4.13,4.13,0,0,1,92.9,482,5.31,5.31,0,0,1,90.2,482.68ZM87.73,477h4.93a2.62,2.62,0,0,0-.79-1.71,2.47,2.47,0,0,0-3.36,0A2.58,2.58,0,0,0,87.73,477Z"/><path class="cls-1" d="M102.61,482a6.69,6.69,0,0,1-2.66.64,3.57,3.57,0,0,1-1-.13,2.46,2.46,0,0,1-.77-.4,1.77,1.77,0,0,1-.54-.73,2.68,2.68,0,0,1-.19-1.06v-5.42H96.26v-1.85H97.5V470h2.42v3.06h2v1.85h-2v4.61c0,.62.31.92.89.92a3.55,3.55,0,0,0,1.32-.34Z"/><path class="cls-1" d="M104.32,471.75v-2.39h2.41v2.39Zm0,10.75v-9.43h2.41v9.43Z"/><path class="cls-1" d="M118.12,482.5h-2.41v-5.29c0-1.45-.49-2.18-1.49-2.18a2.4,2.4,0,0,0-1.47.56,2.79,2.79,0,0,0-1,1.4v5.51h-2.41v-9.43h2.18v1.75a3.64,3.64,0,0,1,1.52-1.41,4.83,4.83,0,0,1,2.22-.51,3.13,3.13,0,0,1,1.2.22,2.09,2.09,0,0,1,.82.56,2.41,2.41,0,0,1,.5.84,4.61,4.61,0,0,1,.26,1,9.06,9.06,0,0,1,.06,1.09Z"/><path class="cls-1" d="M120.11,477.78a5.49,5.49,0,0,1,.55-2.47,4.38,4.38,0,0,1,1.57-1.76,4.12,4.12,0,0,1,2.27-.65,3.63,3.63,0,0,1,1.9.49,4,4,0,0,1,1.4,1.33v-1.65h2.11v9a4.24,4.24,0,0,1-.68,2.39,4.32,4.32,0,0,1-1.87,1.55,6.52,6.52,0,0,1-2.69.53,6,6,0,0,1-2.55-.5,5.46,5.46,0,0,1-1.86-1.47l1.31-1.28a3.8,3.8,0,0,0,1.36,1,4,4,0,0,0,1.74.39,3.4,3.4,0,0,0,1.08-.16,2.76,2.76,0,0,0,.9-.47,2.19,2.19,0,0,0,.62-.83,3,3,0,0,0,.22-1.19v-1.18a3.2,3.2,0,0,1-1.31,1.24,3.8,3.8,0,0,1-1.82.44,3.87,3.87,0,0,1-2.21-.65,4.33,4.33,0,0,1-1.51-1.74A5.39,5.39,0,0,1,120.11,477.78Zm7.38,1.27V476.8a2.89,2.89,0,0,0-1-1.33A2.42,2.42,0,0,0,125,475a2.17,2.17,0,0,0-1.76.86,3.19,3.19,0,0,0-.69,2,2.77,2.77,0,0,0,.75,2,2.42,2.42,0,0,0,1.84.8,2.35,2.35,0,0,0,1.41-.46A2.45,2.45,0,0,0,127.49,479.05Z"/><path class="cls-1" d="M61.4,495.52v-2.39h2.41v2.39Zm0,10.75v-9.43h2.41v9.43Z"/><path class="cls-1" d="M75.2,506.27H72.79V501c0-1.45-.49-2.18-1.49-2.18a2.35,2.35,0,0,0-1.47.57,2.77,2.77,0,0,0-1,1.39v5.51H66.44v-9.43h2.18v1.75a3.62,3.62,0,0,1,1.52-1.4,4.83,4.83,0,0,1,2.22-.51,3.14,3.14,0,0,1,1.2.21,2.29,2.29,0,0,1,.82.56,2.68,2.68,0,0,1,.5.84,4.76,4.76,0,0,1,.26,1,9.23,9.23,0,0,1,.06,1.1Z"/><path class="cls-1" d="M82,501.55a5.43,5.43,0,0,1,.56-2.46,4.37,4.37,0,0,1,1.56-1.76,4.1,4.1,0,0,1,2.28-.65,3.75,3.75,0,0,1,1.9.48,4.13,4.13,0,0,1,1.39,1.34v-1.66h2.11v9a4.15,4.15,0,0,1-.68,2.38,4.23,4.23,0,0,1-1.86,1.55,6.59,6.59,0,0,1-2.69.53,6.06,6.06,0,0,1-2.56-.5,5.23,5.23,0,0,1-1.86-1.47l1.31-1.27a4,4,0,0,0,1.37,1,4.16,4.16,0,0,0,1.74.38,3.49,3.49,0,0,0,1.08-.16,2.62,2.62,0,0,0,.89-.47,2,2,0,0,0,.62-.83,2.92,2.92,0,0,0,.23-1.18v-1.19A3.2,3.2,0,0,1,88,505.88a3.8,3.8,0,0,1-1.82.45,3.93,3.93,0,0,1-2.21-.65,4.31,4.31,0,0,1-1.51-1.74A5.31,5.31,0,0,1,82,501.55Zm7.39,1.27v-2.25a2.91,2.91,0,0,0-1-1.33,2.4,2.4,0,0,0-1.45-.51,2.16,2.16,0,0,0-1.77.87,3.16,3.16,0,0,0-.69,2,2.77,2.77,0,0,0,.75,2,2.4,2.4,0,0,0,1.85.8,2.35,2.35,0,0,0,1.41-.46A2.46,2.46,0,0,0,89.34,502.82Z"/><path class="cls-1" d="M98.75,506.45a5.12,5.12,0,0,1-2.63-.67A4.46,4.46,0,0,1,94.38,504a4.91,4.91,0,0,1-.6-2.4,5.16,5.16,0,0,1,.6-2.47,4.49,4.49,0,0,1,1.74-1.8,5.14,5.14,0,0,1,2.65-.67,5.29,5.29,0,0,1,2.06.39,4.61,4.61,0,0,1,1.56,1.07,4.79,4.79,0,0,1,1,1.54,4.93,4.93,0,0,1,.34,1.84,4.59,4.59,0,0,1-.05.81H96.34a2.46,2.46,0,0,0,2.5,2.36,2.85,2.85,0,0,0,1.37-.35,1.87,1.87,0,0,0,.86-.93l2.07.58a4.07,4.07,0,0,1-1.69,1.78A5.31,5.31,0,0,1,98.75,506.45Zm-2.47-5.65h4.93a2.64,2.64,0,0,0-.79-1.72,2.34,2.34,0,0,0-1.69-.65,2.38,2.38,0,0,0-1.67.65A2.61,2.61,0,0,0,96.28,500.8Z"/><path class="cls-1" d="M105,501.57a5.13,5.13,0,0,1,.35-1.87,5,5,0,0,1,1-1.56,4.55,4.55,0,0,1,1.57-1.07,5.36,5.36,0,0,1,2.06-.39,5,5,0,0,1,2.62.68,4.55,4.55,0,0,1,1.73,1.78,5.13,5.13,0,0,1,.58,2.43,5.07,5.07,0,0,1-.34,1.86,5,5,0,0,1-1,1.56,4.58,4.58,0,0,1-1.56,1.06,5.2,5.2,0,0,1-2.07.4,5.55,5.55,0,0,1-1.7-.26,4.53,4.53,0,0,1-1.38-.72,5.13,5.13,0,0,1-1-1.06,4.73,4.73,0,0,1-.64-1.34A5,5,0,0,1,105,501.57Zm5,2.83a2.22,2.22,0,0,0,1.75-.81,3,3,0,0,0,.71-2,3,3,0,0,0-.71-2,2.32,2.32,0,0,0-3.51,0,3,3,0,0,0-.71,2,3,3,0,0,0,.71,2A2.23,2.23,0,0,0,110,504.4Z"/><path class="cls-1" d="M251.4,367.77l3.45,9.82,3.42-9.82h2.61L256,380.55h-2.39l-4.86-12.78Z"/><path class="cls-1" d="M262.46,369.8v-2.39h2.41v2.39Zm0,10.75v-9.44h2.41v9.44Z"/><path class="cls-1" d="M271.88,380.72a5.09,5.09,0,0,1-2.63-.67,4.48,4.48,0,0,1-1.75-1.76,4.91,4.91,0,0,1-.6-2.4,5.16,5.16,0,0,1,.6-2.47,4.58,4.58,0,0,1,1.75-1.8,5.14,5.14,0,0,1,2.65-.67,5.32,5.32,0,0,1,2.06.39,4.47,4.47,0,0,1,1.55,1.07,4.65,4.65,0,0,1,1,1.54,5,5,0,0,1,.34,1.84,5.82,5.82,0,0,1-.05.81h-7.3a2.5,2.5,0,0,0,.81,1.72,2.47,2.47,0,0,0,1.7.64,2.81,2.81,0,0,0,1.36-.35,1.85,1.85,0,0,0,.87-.93l2.06.58a4,4,0,0,1-1.69,1.78A5.15,5.15,0,0,1,271.88,380.72Zm-2.47-5.65h4.93a2.65,2.65,0,0,0-.8-1.72,2.37,2.37,0,0,0-1.68-.65,2.33,2.33,0,0,0-1.67.66A2.58,2.58,0,0,0,269.41,375.07Z"/><path class="cls-1" d="M290.15,371.11h2.29l-3.94,9.44h-2l-1.58-4.06-1.55,4.06h-2l-3.93-9.44h2.27l2.81,7.13,1.1-3.07-1.64-4h2l1,2.89,1-2.89h2l-1.64,4,1.12,3.07Z"/><path class="cls-1" d="M293.12,377.76a2.66,2.66,0,0,1,1.12-2.22,4.78,4.78,0,0,1,2.93-.85,6,6,0,0,1,2.27.38v-.5a1.77,1.77,0,0,0-.54-1.39,2.27,2.27,0,0,0-1.57-.48,3.84,3.84,0,0,0-1.44.26,7.72,7.72,0,0,0-1.51.8l-.78-1.58a7.19,7.19,0,0,1,4-1.23,4.48,4.48,0,0,1,3.14,1,3.66,3.66,0,0,1,1.12,2.88v3a.89.89,0,0,0,.14.55.59.59,0,0,0,.44.19v2a5.34,5.34,0,0,1-1,.12,1.69,1.69,0,0,1-1.08-.3,1.29,1.29,0,0,1-.47-.82l-.05-.48a4.25,4.25,0,0,1-1.53,1.22,4.34,4.34,0,0,1-1.88.43,3.36,3.36,0,0,1-2.34-.84A2.75,2.75,0,0,1,293.12,377.76Zm5.87.48a1.24,1.24,0,0,0,.45-.82v-1a5,5,0,0,0-1.89-.38,2.7,2.7,0,0,0-1.55.41,1.24,1.24,0,0,0-.6,1.07,1.29,1.29,0,0,0,.46,1,1.76,1.76,0,0,0,1.22.41,2.91,2.91,0,0,0,1.05-.19A2.72,2.72,0,0,0,299,378.24Z"/><path class="cls-1" d="M306.65,378.91v1.64h-2.11V367.41H307v5.36a3.69,3.69,0,0,1,1.34-1.35,3.86,3.86,0,0,1,1.91-.47,3.6,3.6,0,0,1,2.14.67,4.41,4.41,0,0,1,1.47,1.8,5.84,5.84,0,0,1,.51,2.45,5.31,5.31,0,0,1-.57,2.46,4.41,4.41,0,0,1-1.59,1.75,4.12,4.12,0,0,1-2.25.64,3.85,3.85,0,0,1-1.92-.48A3.56,3.56,0,0,1,306.65,378.91Zm5.2-3a3.08,3.08,0,0,0-.71-2,2.17,2.17,0,0,0-1.75-.86,2.27,2.27,0,0,0-1.43.52,3.48,3.48,0,0,0-1,1.32v2.25a2.23,2.23,0,0,0,.91,1.14,2.49,2.49,0,0,0,3.25-.37A2.84,2.84,0,0,0,311.85,375.89Z"/><path class="cls-1" d="M316.4,369.8v-2.39h2.41v2.39Zm0,10.75v-9.44h2.41v9.44Z"/><path class="cls-1" d="M321.42,367.41h2.41v10.11a1.37,1.37,0,0,0,.2.86.76.76,0,0,0,.61.24,2.65,2.65,0,0,0,1.13-.25l.33,1.83a4.61,4.61,0,0,1-1.12.35,5.8,5.8,0,0,1-1.18.14,2.42,2.42,0,0,1-1.75-.61,2.26,2.26,0,0,1-.63-1.71Z"/><path class="cls-1" d="M327.59,369.8v-2.39H330v2.39Zm0,10.75v-9.44H330v9.44Z"/><path class="cls-1" d="M338.28,380.06a6.56,6.56,0,0,1-2.66.64,3.16,3.16,0,0,1-.95-.13,2.35,2.35,0,0,1-.77-.4,1.8,1.8,0,0,1-.54-.72,2.73,2.73,0,0,1-.19-1.07V373h-1.24v-1.86h1.24v-3.05h2.42v3.05h2V373h-2v4.6c0,.62.31.93.89.93a3.6,3.6,0,0,0,1.32-.35Z"/><path class="cls-1" d="M340.15,382.38a4.59,4.59,0,0,0,1.08.18.94.94,0,0,0,.79-.41,5.7,5.7,0,0,0,.67-1.6L339,371.11h2.51l2.54,7,2.23-7h2.3l-4,11.31a3.17,3.17,0,0,1-1.19,1.62,3.31,3.31,0,0,1-2,.63,4,4,0,0,1-1.21-.2Z"/><path class="cls-1" d="M432.9,281.44V268.66h5.65a3.69,3.69,0,0,1,2.08.63,4.3,4.3,0,0,1,1.46,1.6,4.26,4.26,0,0,1-.11,4.27,3.61,3.61,0,0,1-1.67,1.48l2.91,4.8h-2.73l-2.63-4.28h-2.48v4.28Zm2.48-6.46h3.11a1.41,1.41,0,0,0,1.15-.6,2.27,2.27,0,0,0,.47-1.47,2.15,2.15,0,0,0-.52-1.47,1.6,1.6,0,0,0-1.21-.6h-3Z"/><path class="cls-1" d="M449.12,281.62a5.06,5.06,0,0,1-2.62-.67,4.42,4.42,0,0,1-1.75-1.76,4.92,4.92,0,0,1-.6-2.41,5.15,5.15,0,0,1,.6-2.46,4.45,4.45,0,0,1,1.75-1.8,5.08,5.08,0,0,1,2.64-.67,5.29,5.29,0,0,1,2.06.39,4.38,4.38,0,0,1,1.56,1.07,5,5,0,0,1,1,1.54,5.13,5.13,0,0,1,.33,1.84,4.59,4.59,0,0,1-.05.81h-7.29a2.47,2.47,0,0,0,2.5,2.36,2.85,2.85,0,0,0,1.37-.35,1.87,1.87,0,0,0,.86-.93l2.07.58a4.07,4.07,0,0,1-1.69,1.78A5.31,5.31,0,0,1,449.12,281.62ZM446.65,276h4.93a2.64,2.64,0,0,0-.79-1.72,2.46,2.46,0,0,0-3.35,0A2.55,2.55,0,0,0,446.65,276Z"/><path class="cls-1" d="M455.32,278.66a2.64,2.64,0,0,1,1.13-2.22,4.69,4.69,0,0,1,2.92-.85,6,6,0,0,1,2.27.38v-.5a1.79,1.79,0,0,0-.53-1.39,2.3,2.3,0,0,0-1.58-.49,4.13,4.13,0,0,0-1.44.26,7.49,7.49,0,0,0-1.5.81l-.79-1.58a7.2,7.2,0,0,1,4-1.23,4.51,4.51,0,0,1,3.14,1,3.66,3.66,0,0,1,1.12,2.88v3a.85.85,0,0,0,.13.55.59.59,0,0,0,.45.19v2a5.65,5.65,0,0,1-1,.13,1.73,1.73,0,0,1-1.08-.31,1.29,1.29,0,0,1-.47-.81L462,280a4.11,4.11,0,0,1-1.52,1.21,4.38,4.38,0,0,1-1.88.44,3.35,3.35,0,0,1-2.35-.85A2.72,2.72,0,0,1,455.32,278.66Zm5.87.48a1.24,1.24,0,0,0,.45-.83v-.95a4.76,4.76,0,0,0-1.89-.38,2.65,2.65,0,0,0-1.55.41,1.25,1.25,0,0,0-.59,1.06,1.28,1.28,0,0,0,.45,1,1.77,1.77,0,0,0,1.23.42,3,3,0,0,0,1-.2A2.49,2.49,0,0,0,461.19,279.14Z"/><path class="cls-1" d="M471.14,281.62a5.36,5.36,0,0,1-2.06-.4,4.5,4.5,0,0,1-1.58-1.07,4.71,4.71,0,0,1-1-1.56,5,5,0,0,1-.36-1.87,5.07,5.07,0,0,1,.59-2.42,4.57,4.57,0,0,1,1.74-1.78,5.14,5.14,0,0,1,2.65-.67,5,5,0,0,1,2.6.65,4.14,4.14,0,0,1,1.66,1.76L473,275a2.12,2.12,0,0,0-.81-.79,2.24,2.24,0,0,0-1.11-.29,2.31,2.31,0,0,0-1.77.79,3.27,3.27,0,0,0,0,4.07,2.32,2.32,0,0,0,2.94.49,1.79,1.79,0,0,0,.77-.8l2.35.73a4,4,0,0,1-1.63,1.77A5.19,5.19,0,0,1,471.14,281.62Z"/><path class="cls-1" d="M486.11,281.44H483.7v-5.29a2.65,2.65,0,0,0-.41-1.63,1.36,1.36,0,0,0-1.17-.55,2.28,2.28,0,0,0-1.39.56,2.88,2.88,0,0,0-1,1.4v5.51h-2.41V268.3h2.41v5.46a3.77,3.77,0,0,1,1.42-1.41,3.89,3.89,0,0,1,2-.5q3,0,3,3.7Z"/><path class="cls-1" d="M488.66,270.69V268.3h2.41v2.39Zm0,10.75V272h2.41v9.43Z"/><path class="cls-1" d="M502.46,281.44h-2.4v-5.29c0-1.45-.5-2.18-1.5-2.18a2.4,2.4,0,0,0-1.47.56,2.9,2.9,0,0,0-1,1.4v5.51H493.7V272h2.18v1.75a3.61,3.61,0,0,1,1.53-1.41,4.9,4.9,0,0,1,2.22-.5,3.21,3.21,0,0,1,1.2.21,2.25,2.25,0,0,1,.82.56,2.66,2.66,0,0,1,.49.84,4.76,4.76,0,0,1,.26,1,9.18,9.18,0,0,1,.06,1.09Z"/><path class="cls-1" d="M504.45,276.72a5.43,5.43,0,0,1,.56-2.46,4.37,4.37,0,0,1,1.56-1.76,4.05,4.05,0,0,1,2.28-.65,3.75,3.75,0,0,1,1.9.48,4.2,4.2,0,0,1,1.39,1.33V272h2.11v9a4.16,4.16,0,0,1-2.54,3.94,6.6,6.6,0,0,1-2.7.53,6,6,0,0,1-2.55-.5,5.35,5.35,0,0,1-1.86-1.47l1.31-1.27a3.87,3.87,0,0,0,1.37,1,4.12,4.12,0,0,0,1.73.38,3.4,3.4,0,0,0,1.08-.16,2.58,2.58,0,0,0,.9-.47,2,2,0,0,0,.62-.83,2.94,2.94,0,0,0,.23-1.19v-1.18a3.26,3.26,0,0,1-1.31,1.24,3.83,3.83,0,0,1-1.82.45,3.93,3.93,0,0,1-2.21-.65A4.38,4.38,0,0,1,505,279.1,5.39,5.39,0,0,1,504.45,276.72Zm7.39,1.27v-2.25a3,3,0,0,0-1-1.33,2.42,2.42,0,0,0-1.46-.51,2.16,2.16,0,0,0-1.76.87,3.16,3.16,0,0,0-.69,2,2.77,2.77,0,0,0,.75,2,2.43,2.43,0,0,0,1.84.8,2.41,2.41,0,0,0,1.42-.46A2.51,2.51,0,0,0,511.84,278Z"/><path class="cls-1" d="M452.51,304.73a6.56,6.56,0,0,1-2.66.64,3.16,3.16,0,0,1-1-.13,2.26,2.26,0,0,1-.77-.4,1.8,1.8,0,0,1-.54-.72,2.73,2.73,0,0,1-.19-1.07v-5.41h-1.24v-1.85h1.24v-3.06h2.41v3.06h2v1.85h-2v4.61c0,.61.32.92.9.92a3.76,3.76,0,0,0,1.32-.34Z"/><path class="cls-1" d="M453.57,302.43a2.66,2.66,0,0,1,1.12-2.22,4.78,4.78,0,0,1,2.93-.85,6,6,0,0,1,2.27.38v-.5a1.8,1.8,0,0,0-.53-1.39,2.3,2.3,0,0,0-1.58-.48,3.84,3.84,0,0,0-1.44.26,7.72,7.72,0,0,0-1.51.8l-.78-1.58a7.19,7.19,0,0,1,4-1.23,4.57,4.57,0,0,1,3.15,1,3.69,3.69,0,0,1,1.12,2.88v3a.87.87,0,0,0,.13.55.63.63,0,0,0,.45.19v2a5.52,5.52,0,0,1-1,.12,1.73,1.73,0,0,1-1.08-.3,1.34,1.34,0,0,1-.47-.82l-.05-.48a4.17,4.17,0,0,1-1.53,1.22,4.29,4.29,0,0,1-1.87.43,3.37,3.37,0,0,1-2.35-.84A2.74,2.74,0,0,1,453.57,302.43Zm5.87.48a1.24,1.24,0,0,0,.45-.82v-1a5,5,0,0,0-1.89-.38,2.73,2.73,0,0,0-1.55.41,1.24,1.24,0,0,0-.6,1.07,1.32,1.32,0,0,0,.46,1,1.73,1.73,0,0,0,1.22.41,2.91,2.91,0,0,0,1.05-.19A2.61,2.61,0,0,0,459.44,302.91Z"/><path class="cls-1" d="M470.61,297.87a4.58,4.58,0,0,0-2,.44,2.56,2.56,0,0,0-1.23,1.2v5.71H465v-9.43h2.21v2a4.4,4.4,0,0,1,1.28-1.53,3,3,0,0,1,1.64-.61,4.06,4.06,0,0,1,.48,0Z"/><path class="cls-1" d="M471.76,300.5a5.43,5.43,0,0,1,.55-2.47,4.37,4.37,0,0,1,1.56-1.76,4.18,4.18,0,0,1,2.28-.65,3.75,3.75,0,0,1,1.9.48,4.16,4.16,0,0,1,1.4,1.34v-1.65h2.11v9a4.14,4.14,0,0,1-.69,2.38,4.26,4.26,0,0,1-1.86,1.56,6.55,6.55,0,0,1-2.69.52,5.94,5.94,0,0,1-2.56-.5,5.12,5.12,0,0,1-1.85-1.47l1.31-1.27a3.72,3.72,0,0,0,1.36,1,4,4,0,0,0,1.74.38,3.81,3.81,0,0,0,1.08-.15,3,3,0,0,0,.9-.48,2.13,2.13,0,0,0,.62-.83,3.1,3.1,0,0,0,.22-1.18v-1.19a3.29,3.29,0,0,1-1.31,1.25,4,4,0,0,1-4-.21,4.32,4.32,0,0,1-1.51-1.74A5.29,5.29,0,0,1,471.76,300.5Zm7.38,1.26v-2.25a2.88,2.88,0,0,0-1-1.32,2.4,2.4,0,0,0-1.45-.51,2.13,2.13,0,0,0-1.76.86,3.19,3.19,0,0,0-.69,2,2.75,2.75,0,0,0,.74,2,2.49,2.49,0,0,0,3.26.35A2.54,2.54,0,0,0,479.14,301.76Z"/><path class="cls-1" d="M488.55,305.39a5.06,5.06,0,0,1-2.62-.67,4.48,4.48,0,0,1-1.75-1.76,4.91,4.91,0,0,1-.6-2.4,5.16,5.16,0,0,1,.6-2.47,4.56,4.56,0,0,1,1.75-1.79,5,5,0,0,1,2.64-.68,5.29,5.29,0,0,1,2.06.39,4.42,4.42,0,0,1,1.56,1.07,5,5,0,0,1,1,1.54,5.17,5.17,0,0,1,.33,1.84,4.53,4.53,0,0,1-.05.81h-7.29A2.5,2.5,0,0,0,487,303a2.44,2.44,0,0,0,1.69.64,2.74,2.74,0,0,0,1.37-.35,1.87,1.87,0,0,0,.86-.93l2.07.58a4.15,4.15,0,0,1-1.69,1.79A5.3,5.3,0,0,1,488.55,305.39Zm-2.47-5.65H491a2.64,2.64,0,0,0-.79-1.72,2.37,2.37,0,0,0-1.68-.65,2.33,2.33,0,0,0-1.67.66A2.55,2.55,0,0,0,486.08,299.74Z"/><path class="cls-1" d="M501,304.73a6.56,6.56,0,0,1-2.67.64,3.21,3.21,0,0,1-.95-.13,2.46,2.46,0,0,1-.77-.4,1.8,1.8,0,0,1-.54-.72,2.92,2.92,0,0,1-.19-1.07v-5.41h-1.24v-1.85h1.24v-3.06h2.42v3.06h2v1.85h-2v4.61c0,.61.31.92.89.92a3.76,3.76,0,0,0,1.32-.34Z"/><path class="cls-1" d="M432.26,326.2a2.67,2.67,0,0,1,1.13-2.22,4.75,4.75,0,0,1,2.92-.84,6,6,0,0,1,2.27.37V323a1.82,1.82,0,0,0-.53-1.39,2.3,2.3,0,0,0-1.58-.48,4.13,4.13,0,0,0-1.44.26,7.4,7.4,0,0,0-1.5.8l-.79-1.58a7.19,7.19,0,0,1,4-1.23,4.57,4.57,0,0,1,3.15,1,3.73,3.73,0,0,1,1.12,2.89v3a.87.87,0,0,0,.13.55.63.63,0,0,0,.45.19v2a5.52,5.52,0,0,1-1,.12,1.73,1.73,0,0,1-1.08-.3A1.29,1.29,0,0,1,439,328l-.05-.49a4.13,4.13,0,0,1-1.52,1.22,4.38,4.38,0,0,1-1.88.44,3.37,3.37,0,0,1-2.35-.85A2.74,2.74,0,0,1,432.26,326.2Zm5.87.49a1.26,1.26,0,0,0,.45-.83v-1a5,5,0,0,0-1.89-.38,2.73,2.73,0,0,0-1.55.41,1.24,1.24,0,0,0-.59,1.07,1.31,1.31,0,0,0,.45,1,1.74,1.74,0,0,0,1.22.42,2.92,2.92,0,0,0,1-.2A2.6,2.6,0,0,0,438.13,326.69Z"/><path class="cls-1" d="M443.6,325.47v-5.91H446v5.38c0,1.45.52,2.18,1.56,2.18a2.43,2.43,0,0,0,1.38-.44A3.09,3.09,0,0,0,450,325.4v-5.84h2.41v6.73a.87.87,0,0,0,.13.55.61.61,0,0,0,.45.19v2a6.05,6.05,0,0,1-1.05.11,1.75,1.75,0,0,1-1.06-.3,1.14,1.14,0,0,1-.47-.82l-.05-.76a4,4,0,0,1-1.61,1.45,4.83,4.83,0,0,1-2.19.5,2.68,2.68,0,0,1-2.21-.94A4.3,4.3,0,0,1,443.6,325.47Z"/><path class="cls-1" d="M454.68,324.27a5.54,5.54,0,0,1,.53-2.46,4.36,4.36,0,0,1,1.51-1.77,3.84,3.84,0,0,1,2.17-.65,3.63,3.63,0,0,1,1.86.5,3.82,3.82,0,0,1,1.33,1.32v-5.36h2.41v10.44a.87.87,0,0,0,.13.55.56.56,0,0,0,.43.19v2a5.71,5.71,0,0,1-1,.12,1.68,1.68,0,0,1-1.07-.32,1.18,1.18,0,0,1-.48-.85l0-.59a3.41,3.41,0,0,1-1.4,1.34,3.89,3.89,0,0,1-1.88.48,4.23,4.23,0,0,1-2.31-.65,4.44,4.44,0,0,1-1.6-1.78A5.35,5.35,0,0,1,454.68,324.27Zm7.4,1.27v-2.25a2.93,2.93,0,0,0-1-1.31,2.31,2.31,0,0,0-1.43-.53,2.18,2.18,0,0,0-1.77.86,3.12,3.12,0,0,0-.7,2,2.81,2.81,0,0,0,.74,2,2.47,2.47,0,0,0,3.25.36A2.35,2.35,0,0,0,462.08,325.54Z"/><path class="cls-1" d="M467.31,318.24v-2.39h2.41v2.39Zm0,10.75v-9.43h2.41V329Z"/><path class="cls-1" d="M476.72,329.17a5.22,5.22,0,0,1-2.63-.67,4.69,4.69,0,0,1-1.75-1.76,5.06,5.06,0,0,1-.59-2.41,5.23,5.23,0,0,1,.59-2.46,4.58,4.58,0,0,1,1.75-1.8,5.5,5.5,0,0,1,4.71-.28,4.58,4.58,0,0,1,1.56,1.06,4.83,4.83,0,0,1,.95,1.55,4.92,4.92,0,0,1,.34,1.83,4.46,4.46,0,0,1,0,.81h-7.3a2.49,2.49,0,0,0,2.51,2.37,2.75,2.75,0,0,0,1.37-.36,1.84,1.84,0,0,0,.86-.93l2.07.58a4.1,4.1,0,0,1-1.69,1.79A5.31,5.31,0,0,1,476.72,329.17Zm-2.47-5.66h4.93a2.62,2.62,0,0,0-.79-1.71,2.47,2.47,0,0,0-3.36,0A2.58,2.58,0,0,0,474.25,323.51Z"/><path class="cls-1" d="M492.33,329h-2.4V323.7c0-1.45-.5-2.18-1.5-2.18a2.4,2.4,0,0,0-1.47.56,2.79,2.79,0,0,0-1,1.4V329h-2.41v-9.43h2.18v1.75a3.64,3.64,0,0,1,1.52-1.41,4.83,4.83,0,0,1,2.22-.51,3,3,0,0,1,1.2.22,2.21,2.21,0,0,1,.83.56,2.55,2.55,0,0,1,.49.84,4.61,4.61,0,0,1,.26,1,9.06,9.06,0,0,1,.06,1.09Z"/><path class="cls-1" d="M499.28,329.17a5.41,5.41,0,0,1-2.07-.4,4.62,4.62,0,0,1-1.58-1.08,4.83,4.83,0,0,1-1-1.56,4.88,4.88,0,0,1-.35-1.86,5,5,0,0,1,.59-2.43,4.62,4.62,0,0,1,1.74-1.77,5.49,5.49,0,0,1,5.24,0,4.16,4.16,0,0,1,1.66,1.77l-2.35.72a2.22,2.22,0,0,0-.81-.8,2.36,2.36,0,0,0-2.88.51,3.24,3.24,0,0,0,0,4.06,2.24,2.24,0,0,0,1.75.82,2.33,2.33,0,0,0,1.19-.32,1.74,1.74,0,0,0,.77-.8l2.36.72a4,4,0,0,1-1.64,1.77A5,5,0,0,1,499.28,329.17Z"/><path class="cls-1" d="M509.77,329.17a5.16,5.16,0,0,1-2.62-.67,4.62,4.62,0,0,1-1.75-1.76,5,5,0,0,1-.6-2.41,5.12,5.12,0,0,1,.6-2.46,4.52,4.52,0,0,1,1.75-1.8,5.48,5.48,0,0,1,4.7-.28,4.4,4.4,0,0,1,1.56,1.06,5,5,0,0,1,1,1.55,5.12,5.12,0,0,1,.34,1.83,4.32,4.32,0,0,1-.06.81h-7.29a2.48,2.48,0,0,0,.81,1.72,2.45,2.45,0,0,0,1.69.65,2.75,2.75,0,0,0,1.37-.36,1.84,1.84,0,0,0,.86-.93l2.07.58a4.1,4.1,0,0,1-1.69,1.79A5.31,5.31,0,0,1,509.77,329.17Zm-2.47-5.66h4.94a2.63,2.63,0,0,0-.8-1.71,2.46,2.46,0,0,0-3.35,0A2.55,2.55,0,0,0,507.3,323.51Z"/><path class="cls-1" d="M619,278.24h-6.17V265.46h6.84a2.61,2.61,0,0,1,1.54.48,3.13,3.13,0,0,1,1,1.23,3.58,3.58,0,0,1,.34,1.55,3.41,3.41,0,0,1-.48,1.77,2.81,2.81,0,0,1-1.35,1.2,3.21,3.21,0,0,1,1.74,1.17,3.4,3.4,0,0,1,.63,2.08,2.93,2.93,0,0,1-.57,1.8,3.39,3.39,0,0,1-1.49,1.13A5.6,5.6,0,0,1,619,278.24Zm-3.69-10.66v3.22h3.31a1.47,1.47,0,0,0,1.08-.44,1.59,1.59,0,0,0,.43-1.18,1.65,1.65,0,0,0-.4-1.16,1.3,1.3,0,0,0-1-.44Zm3.81,5.18h-3.81v3.37H619a1.53,1.53,0,0,0,1.14-.49,1.59,1.59,0,0,0,.48-1.17,1.78,1.78,0,0,0-.44-1.2A1.34,1.34,0,0,0,619.15,272.76Z"/><path class="cls-1" d="M630.92,270.89a4.58,4.58,0,0,0-2,.44,2.56,2.56,0,0,0-1.23,1.2v5.71h-2.4v-9.43h2.21v2a4.3,4.3,0,0,1,1.28-1.53,3,3,0,0,1,1.64-.61,4.06,4.06,0,0,1,.48,0Z"/><path class="cls-1" d="M632,275.45a2.67,2.67,0,0,1,1.13-2.22,4.76,4.76,0,0,1,2.93-.85,6,6,0,0,1,2.26.38v-.5a1.77,1.77,0,0,0-.53-1.39,2.28,2.28,0,0,0-1.58-.48,3.91,3.91,0,0,0-1.44.26,7.67,7.67,0,0,0-1.5.8l-.78-1.58a7.17,7.17,0,0,1,4-1.23,4.54,4.54,0,0,1,3.14,1,3.66,3.66,0,0,1,1.12,2.88v3a.94.94,0,0,0,.13.55.63.63,0,0,0,.45.19v2a5.43,5.43,0,0,1-1,.12,1.68,1.68,0,0,1-1.07-.3,1.25,1.25,0,0,1-.47-.82l-.06-.48a4.13,4.13,0,0,1-1.52,1.22,4.34,4.34,0,0,1-1.88.43,3.36,3.36,0,0,1-2.34-.84A2.72,2.72,0,0,1,632,275.45Zm5.88.48a1.26,1.26,0,0,0,.44-.82v-1a4.94,4.94,0,0,0-1.89-.38,2.69,2.69,0,0,0-1.54.41,1.24,1.24,0,0,0-.6,1.07,1.29,1.29,0,0,0,.46,1,1.72,1.72,0,0,0,1.22.41,3,3,0,0,0,1-.19A2.72,2.72,0,0,0,637.89,275.93Z"/><path class="cls-1" d="M652.2,278.24h-2.4v-5.3c0-1.45-.5-2.17-1.5-2.17a2.34,2.34,0,0,0-1.47.56,2.75,2.75,0,0,0-1,1.4v5.51h-2.41v-9.43h2.18v1.74a3.69,3.69,0,0,1,1.52-1.4,4.83,4.83,0,0,1,2.22-.51,3.14,3.14,0,0,1,1.2.21,2.33,2.33,0,0,1,.83.56,2.6,2.6,0,0,1,.49.85,4.53,4.53,0,0,1,.26,1,9.23,9.23,0,0,1,.06,1.1Z"/><path class="cls-1" d="M654.17,273.52a5.55,5.55,0,0,1,.54-2.46,4.29,4.29,0,0,1,1.51-1.77,3.75,3.75,0,0,1,2.17-.65,3.56,3.56,0,0,1,1.85.49,3.77,3.77,0,0,1,1.33,1.33V265.1H664v10.44a1,1,0,0,0,.12.55.61.61,0,0,0,.44.19v2a5.71,5.71,0,0,1-1,.12,1.74,1.74,0,0,1-1.07-.32,1.18,1.18,0,0,1-.48-.85l0-.59a3.45,3.45,0,0,1-1.39,1.34,4,4,0,0,1-1.88.47,4.29,4.29,0,0,1-2.32-.65,4.4,4.4,0,0,1-1.59-1.77A5.26,5.26,0,0,1,654.17,273.52Zm7.4,1.26v-2.25a2.89,2.89,0,0,0-1-1.31,2.37,2.37,0,0,0-1.43-.53,2.21,2.21,0,0,0-1.77.86,3.09,3.09,0,0,0-.7,2,2.84,2.84,0,0,0,.74,2,2.43,2.43,0,0,0,1.87.8,2.46,2.46,0,0,0,1.38-.45A2.23,2.23,0,0,0,661.57,274.78Z"/><path class="cls-1" d="M615.48,302.19a6.62,6.62,0,0,1-2.32-.41,5.28,5.28,0,0,1-1.88-1.16l.87-1.56a5.27,5.27,0,0,0,3.24,1.33,2.08,2.08,0,0,0,1.13-.26.82.82,0,0,0,.42-.75.64.64,0,0,0,0-.2.42.42,0,0,0-.08-.18,1.31,1.31,0,0,1-.12-.15.62.62,0,0,0-.19-.12l-.22-.11-.28-.1-.3-.1-.37-.11-.39-.12q-.69-.21-1.14-.39c-.3-.12-.58-.26-.87-.41a2.76,2.76,0,0,1-.65-.5,2.16,2.16,0,0,1-.36-.63,2.31,2.31,0,0,1-.14-.82,2.68,2.68,0,0,1,1.05-2.22,4.36,4.36,0,0,1,2.78-.83,5,5,0,0,1,3.54,1.34l-1,1.53a4.45,4.45,0,0,0-2.68-1.08,2,2,0,0,0-1,.23.78.78,0,0,0-.42.74.77.77,0,0,0,.37.69,6,6,0,0,0,1.35.5c.52.15.93.28,1.24.39a9.27,9.27,0,0,1,.94.41,2.71,2.71,0,0,1,.74.51,2.17,2.17,0,0,1,.41.66,2.49,2.49,0,0,1,.16.9,2.63,2.63,0,0,1-1,2.18A4.37,4.37,0,0,1,615.48,302.19Z"/><path class="cls-1" d="M620.69,299.22a2.67,2.67,0,0,1,1.13-2.22,4.75,4.75,0,0,1,2.92-.84,6,6,0,0,1,2.27.37V296a1.82,1.82,0,0,0-.53-1.39,2.3,2.3,0,0,0-1.58-.48,4.13,4.13,0,0,0-1.44.26,7.4,7.4,0,0,0-1.5.8l-.79-1.58a7.2,7.2,0,0,1,4-1.23,4.56,4.56,0,0,1,3.14,1,3.69,3.69,0,0,1,1.12,2.89v3a.87.87,0,0,0,.13.55.63.63,0,0,0,.45.19v2a5.52,5.52,0,0,1-1,.12,1.73,1.73,0,0,1-1.08-.3,1.29,1.29,0,0,1-.47-.81l0-.49a4.13,4.13,0,0,1-1.52,1.22,4.38,4.38,0,0,1-1.88.44,3.39,3.39,0,0,1-2.35-.85A2.74,2.74,0,0,1,620.69,299.22Zm5.87.49a1.26,1.26,0,0,0,.45-.83v-1a5,5,0,0,0-1.89-.38,2.73,2.73,0,0,0-1.55.41A1.27,1.27,0,0,0,623,299a1.31,1.31,0,0,0,.45,1,1.74,1.74,0,0,0,1.22.42,3,3,0,0,0,1.06-.2A2.65,2.65,0,0,0,626.56,299.71Z"/><path class="cls-1" d="M632.65,302v-7.09h-1.23v-1.84h1.23v-.57a4.25,4.25,0,0,1,.86-2.79,2.83,2.83,0,0,1,2.3-1,5.3,5.3,0,0,1,2.32.56l-.48,1.82a2.66,2.66,0,0,0-1.32-.35,1.13,1.13,0,0,0-.94.43,2.13,2.13,0,0,0-.32,1.26v.67h2.3v1.84h-2.3V302Z"/><path class="cls-1" d="M643.44,302.19a5.22,5.22,0,0,1-2.63-.67,4.62,4.62,0,0,1-1.75-1.76,5,5,0,0,1-.59-2.41,5.08,5.08,0,0,1,.59-2.46,4.52,4.52,0,0,1,1.75-1.8,5.5,5.5,0,0,1,4.71-.28,4.45,4.45,0,0,1,1.55,1.06,4.69,4.69,0,0,1,1,1.55,4.92,4.92,0,0,1,.34,1.83,5.61,5.61,0,0,1,0,.81H641a2.49,2.49,0,0,0,2.51,2.37,2.71,2.71,0,0,0,1.36-.36,1.85,1.85,0,0,0,.87-.93l2.07.58a4.12,4.12,0,0,1-1.7,1.79A5.24,5.24,0,0,1,643.44,302.19ZM641,296.53h4.93a2.6,2.6,0,0,0-.8-1.71,2.46,2.46,0,0,0-3.35,0A2.58,2.58,0,0,0,641,296.53Z"/><path class="cls-1" d="M655.85,301.53a6.73,6.73,0,0,1-2.66.64,3.52,3.52,0,0,1-1-.13,2.45,2.45,0,0,1-.77-.4,1.77,1.77,0,0,1-.54-.73,2.68,2.68,0,0,1-.19-1.06v-5.42H649.5v-1.85h1.24v-3.06h2.41v3.06h2v1.85h-2V299c0,.61.32.92.9.92a3.55,3.55,0,0,0,1.32-.34Z"/><path class="cls-1" d="M657.72,303.85a4.87,4.87,0,0,0,1.08.17.94.94,0,0,0,.79-.41,5.7,5.7,0,0,0,.67-1.6l-3.73-9.43H659l2.54,7,2.23-7h2.3l-4,11.3a3.3,3.3,0,0,1-1.19,1.63,3.37,3.37,0,0,1-2,.62,4,4,0,0,1-1.21-.2Z"/><path class="cls-1" d="M750.65,184.14h2.52l4.7,12.78h-2.56l-1.19-3.18h-4.46l-1.17,3.18h-2.56Zm3,7.85-1.76-5.27L750.07,192Z"/><path class="cls-1" d="M758.63,192.2a5.58,5.58,0,0,1,.54-2.46,4.42,4.42,0,0,1,1.51-1.77,3.82,3.82,0,0,1,2.17-.65,3.59,3.59,0,0,1,1.85.5,3.74,3.74,0,0,1,1.33,1.32v-5.36h2.42v10.44a1,1,0,0,0,.12.55.58.58,0,0,0,.43.19v2a5.61,5.61,0,0,1-1,.12,1.67,1.67,0,0,1-1.06-.32,1.11,1.11,0,0,1-.48-.84l0-.59a3.51,3.51,0,0,1-1.39,1.34,4,4,0,0,1-1.89.47,4.28,4.28,0,0,1-2.31-.65,4.56,4.56,0,0,1-1.6-1.77A5.42,5.42,0,0,1,758.63,192.2Zm7.4,1.27v-2.25a3,3,0,0,0-1-1.31,2.39,2.39,0,0,0-1.43-.53,2.21,2.21,0,0,0-1.77.86,3.07,3.07,0,0,0-.7,2,2.81,2.81,0,0,0,.74,2,2.47,2.47,0,0,0,3.24.35A2.25,2.25,0,0,0,766,193.47Z"/><path class="cls-1" d="M776.6,196.92v-7.09h-1.24V188h1.24v-.57a4.27,4.27,0,0,1,.86-2.79,2.82,2.82,0,0,1,2.3-1,5.3,5.3,0,0,1,2.32.56l-.49,1.82a2.65,2.65,0,0,0-1.32-.34,1.07,1.07,0,0,0-.93.43,2,2,0,0,0-.32,1.25V188h2.3v1.84H779v7.09Z"/><path class="cls-1" d="M788.75,189.57a4.73,4.73,0,0,0-2,.44,2.58,2.58,0,0,0-1.23,1.21v5.7h-2.41v-9.43h2.22v2a4.3,4.3,0,0,1,1.28-1.53,2.87,2.87,0,0,1,1.63-.6,2.66,2.66,0,0,1,.49,0Z"/><path class="cls-1" d="M789.84,194.14a2.64,2.64,0,0,1,1.13-2.22,4.69,4.69,0,0,1,2.92-.85,5.82,5.82,0,0,1,2.27.38v-.51a1.78,1.78,0,0,0-.53-1.38,2.25,2.25,0,0,0-1.58-.49,4.13,4.13,0,0,0-1.44.26,7.49,7.49,0,0,0-1.5.81l-.79-1.59a7.19,7.19,0,0,1,4-1.23,4.57,4.57,0,0,1,3.15,1,3.73,3.73,0,0,1,1.12,2.89v3a.87.87,0,0,0,.13.55.63.63,0,0,0,.45.19v2a5.52,5.52,0,0,1-1,.12,1.73,1.73,0,0,1-1.08-.3,1.29,1.29,0,0,1-.47-.81l-.05-.49a4,4,0,0,1-1.52,1.22,4.38,4.38,0,0,1-1.88.44,3.35,3.35,0,0,1-2.35-.85A2.73,2.73,0,0,1,789.84,194.14Zm5.87.48a1.26,1.26,0,0,0,.45-.83v-1a5,5,0,0,0-1.89-.37,2.72,2.72,0,0,0-1.55.4,1.24,1.24,0,0,0-.59,1.07,1.31,1.31,0,0,0,.45,1,1.74,1.74,0,0,0,1.22.42,2.92,2.92,0,0,0,1.05-.2A2.44,2.44,0,0,0,795.71,194.62Z"/><path class="cls-1" d="M801.18,193.4v-5.91h2.41v5.38c0,1.45.52,2.18,1.56,2.18a2.43,2.43,0,0,0,1.38-.44,3.12,3.12,0,0,0,1.06-1.27v-5.85H810v6.73a.87.87,0,0,0,.13.55.61.61,0,0,0,.45.19v2a6.05,6.05,0,0,1-1.05.11,1.75,1.75,0,0,1-1.06-.3,1.12,1.12,0,0,1-.47-.82l0-.76a4,4,0,0,1-1.61,1.45,4.83,4.83,0,0,1-2.19.5,2.68,2.68,0,0,1-2.21-.94A4.3,4.3,0,0,1,801.18,193.4Z"/><path class="cls-1" d="M812.26,192.2a5.57,5.57,0,0,1,.53-2.46A4.42,4.42,0,0,1,814.3,188a3.84,3.84,0,0,1,2.17-.65,3.63,3.63,0,0,1,1.86.5,3.82,3.82,0,0,1,1.33,1.32v-5.36h2.41v10.44a.87.87,0,0,0,.13.55.56.56,0,0,0,.43.19v2a5.71,5.71,0,0,1-1,.12,1.68,1.68,0,0,1-1.07-.32,1.18,1.18,0,0,1-.48-.84l0-.59a3.54,3.54,0,0,1-1.4,1.34,4,4,0,0,1-1.88.47,4.23,4.23,0,0,1-2.31-.65,4.48,4.48,0,0,1-1.6-1.77A5.42,5.42,0,0,1,812.26,192.2Zm7.4,1.27v-2.25a3,3,0,0,0-1-1.31,2.37,2.37,0,0,0-1.43-.53,2.21,2.21,0,0,0-1.77.86,3.12,3.12,0,0,0-.7,2,2.85,2.85,0,0,0,.74,2,2.48,2.48,0,0,0,3.25.35A2.3,2.3,0,0,0,819.66,193.47Z"/><path class="cls-1" d="M881.6,84.35a6,6,0,0,1,3,.75,4.79,4.79,0,0,1,1.94,2l-1.91,1.32a3.21,3.21,0,0,0-.85-1.13,3.41,3.41,0,0,0-1.11-.61,4.08,4.08,0,0,0-1.17-.16,3.45,3.45,0,0,0-1.62.37,3.16,3.16,0,0,0-1.17,1,4.69,4.69,0,0,0-.68,1.36,5,5,0,0,0,.23,3.64,4,4,0,0,0,1.33,1.59,3.36,3.36,0,0,0,1.94.61,4.13,4.13,0,0,0,1.21-.19,3.48,3.48,0,0,0,1.13-.64,3,3,0,0,0,.82-1.12l2,1.17a4.05,4.05,0,0,1-1.24,1.61,6.21,6.21,0,0,1-1.91,1,7,7,0,0,1-2.11.33,5.62,5.62,0,0,1-2-.37,5.35,5.35,0,0,1-1.72-1,7.08,7.08,0,0,1-1.3-1.48,6.27,6.27,0,0,1-.85-1.79,6.46,6.46,0,0,1-.29-1.93,6.39,6.39,0,0,1,.43-2.31,6.79,6.79,0,0,1,1.22-2,5.79,5.79,0,0,1,2-1.46A6.11,6.11,0,0,1,881.6,84.35Z"/><path class="cls-1" d="M888,92.5a5.19,5.19,0,0,1,.35-1.88,5,5,0,0,1,1-1.56A4.44,4.44,0,0,1,890.9,88a5.15,5.15,0,0,1,2.06-.4,5,5,0,0,1,2.62.68,4.58,4.58,0,0,1,1.72,1.78,5.28,5.28,0,0,1,.25,4.29,4.82,4.82,0,0,1-1,1.56A4.42,4.42,0,0,1,895,97a5.29,5.29,0,0,1-2.06.39,5.22,5.22,0,0,1-1.7-.26,4.5,4.5,0,0,1-1.38-.71,5.18,5.18,0,0,1-1-1.07,4.36,4.36,0,0,1-.64-1.34A5,5,0,0,1,888,92.5Zm5,2.83a2.24,2.24,0,0,0,1.75-.81,3,3,0,0,0,.71-2,2.93,2.93,0,0,0-.71-2,2.32,2.32,0,0,0-3.51,0,2.91,2.91,0,0,0-.71,2,3,3,0,0,0,.7,2A2.29,2.29,0,0,0,893,95.33Z"/><path class="cls-1" d="M908.72,97.2h-2.41V91.91c0-1.46-.5-2.18-1.49-2.18a2.34,2.34,0,0,0-1.47.56,2.83,2.83,0,0,0-1,1.4V97.2H900V87.77h2.18v1.75a3.58,3.58,0,0,1,1.52-1.41,4.78,4.78,0,0,1,2.22-.51,3.14,3.14,0,0,1,1.2.21,2.42,2.42,0,0,1,.82.56,2.62,2.62,0,0,1,.5.85,4.44,4.44,0,0,1,.25,1,7.31,7.31,0,0,1,.07,1.09Z"/><path class="cls-1" d="M920,97.2h-2.41V91.91c0-1.46-.5-2.18-1.49-2.18a2.34,2.34,0,0,0-1.47.56,2.75,2.75,0,0,0-1,1.4V97.2h-2.41V87.77h2.18v1.75A3.64,3.64,0,0,1,915,88.11a4.83,4.83,0,0,1,2.22-.51,3.14,3.14,0,0,1,1.2.21,2.42,2.42,0,0,1,.82.56,2.62,2.62,0,0,1,.5.85,4,4,0,0,1,.25,1,7.31,7.31,0,0,1,.07,1.09Z"/><path class="cls-1" d="M927,97.37a5.19,5.19,0,0,1-2.63-.66,4.57,4.57,0,0,1-1.75-1.77,4.91,4.91,0,0,1-.6-2.4,5.16,5.16,0,0,1,.6-2.47,4.56,4.56,0,0,1,1.75-1.79A5.5,5.5,0,0,1,929,88a4.45,4.45,0,0,1,1.55,1.06,4.86,4.86,0,0,1,1,1.55,4.92,4.92,0,0,1,.34,1.83,5.61,5.61,0,0,1,0,.81h-7.3a2.49,2.49,0,0,0,2.51,2.37,2.71,2.71,0,0,0,1.36-.36,1.85,1.85,0,0,0,.87-.93l2.06.58a4,4,0,0,1-1.69,1.79A5.24,5.24,0,0,1,927,97.37Zm-2.47-5.65h4.93a2.65,2.65,0,0,0-.8-1.72,2.37,2.37,0,0,0-1.68-.65,2.33,2.33,0,0,0-1.67.66A2.58,2.58,0,0,0,924.49,91.72Z"/><path class="cls-1" d="M938.2,97.37a5.18,5.18,0,0,1-2.06-.4,4.5,4.5,0,0,1-1.59-1.07,5.08,5.08,0,0,1-1.34-3.42,5.08,5.08,0,0,1,.59-2.43,4.62,4.62,0,0,1,1.74-1.77,5.51,5.51,0,0,1,5.25,0A4.17,4.17,0,0,1,942.45,90l-2.36.72a2.14,2.14,0,0,0-.81-.8,2.23,2.23,0,0,0-1.11-.28,2.28,2.28,0,0,0-1.77.79,3.26,3.26,0,0,0,0,4.06,2.23,2.23,0,0,0,1.75.82,2.39,2.39,0,0,0,1.19-.32,1.84,1.84,0,0,0,.77-.8l2.35.72a4,4,0,0,1-1.63,1.77A5.09,5.09,0,0,1,938.2,97.37Z"/><path class="cls-1" d="M950.06,96.71a6.58,6.58,0,0,1-2.66.65,3.11,3.11,0,0,1-.95-.14,2.22,2.22,0,0,1-.78-.4,1.81,1.81,0,0,1-.53-.72,2.71,2.71,0,0,1-.2-1.06V89.62h-1.23V87.77h1.23V84.71h2.42v3.06h2v1.85h-2v4.61c0,.61.32.92.9.92a3.55,3.55,0,0,0,1.32-.34Z"/><path class="cls-1" d="M951.77,86.45V84.06h2.41v2.39Zm0,10.75V87.77h2.41V97.2Z"/><path class="cls-1" d="M965.57,97.2h-2.41V91.91c0-1.46-.5-2.18-1.5-2.18a2.33,2.33,0,0,0-1.46.56,2.83,2.83,0,0,0-1,1.4V97.2H956.8V87.77H959v1.75a3.67,3.67,0,0,1,1.53-1.41,4.78,4.78,0,0,1,2.22-.51,3.21,3.21,0,0,1,1.2.21,2.52,2.52,0,0,1,.82.56,2.81,2.81,0,0,1,.5.85,4.44,4.44,0,0,1,.25,1,7.31,7.31,0,0,1,.07,1.09Z"/><path class="cls-1" d="M967.55,92.48a5.47,5.47,0,0,1,.56-2.47,4.37,4.37,0,0,1,1.56-1.76A4.18,4.18,0,0,1,972,87.6a3.75,3.75,0,0,1,1.9.48,4.36,4.36,0,0,1,1.4,1.34V87.77h2.1v9a4.19,4.19,0,0,1-.68,2.39,4.23,4.23,0,0,1-1.86,1.55,6.59,6.59,0,0,1-2.69.52,5.91,5.91,0,0,1-2.56-.5,5.32,5.32,0,0,1-1.86-1.46L969,98a3.84,3.84,0,0,0,1.37,1,4,4,0,0,0,1.74.39,3.81,3.81,0,0,0,1.08-.16,3,3,0,0,0,.89-.47,2.09,2.09,0,0,0,.62-.83,3,3,0,0,0,.23-1.19V95.56a3.22,3.22,0,0,1-1.31,1.25,4,4,0,0,1-4-.21,4.19,4.19,0,0,1-1.51-1.74A5.3,5.3,0,0,1,967.55,92.48Zm7.39,1.26V91.49a2.94,2.94,0,0,0-1-1.32,2.4,2.4,0,0,0-1.45-.51,2.18,2.18,0,0,0-1.77.86,3.19,3.19,0,0,0-.69,2,2.78,2.78,0,0,0,.75,2,2.45,2.45,0,0,0,1.85.8,2.42,2.42,0,0,0,1.41-.46A2.54,2.54,0,0,0,974.94,93.74Z"/><path class="cls-1" d="M855,116.27a4.9,4.9,0,0,1,.35-1.87,5,5,0,0,1,1-1.56,4.42,4.42,0,0,1,1.57-1.07,5.36,5.36,0,0,1,2.06-.4,5,5,0,0,1,2.63.69,4.45,4.45,0,0,1,1.72,1.78,5.22,5.22,0,0,1,.24,4.29,4.93,4.93,0,0,1-1,1.55,4.29,4.29,0,0,1-1.56,1.07,5.2,5.2,0,0,1-2.07.4,5.49,5.49,0,0,1-1.69-.26,4.31,4.31,0,0,1-1.38-.72,4.94,4.94,0,0,1-1-1.07,4.57,4.57,0,0,1-.65-1.33A5.43,5.43,0,0,1,855,116.27Zm4.95,2.83a2.24,2.24,0,0,0,1.76-.81,3,3,0,0,0,.71-2,3,3,0,0,0-.71-2,2.26,2.26,0,0,0-1.76-.8,2.24,2.24,0,0,0-1.75.81,3.28,3.28,0,0,0,0,4.06A2.26,2.26,0,0,0,859.93,119.1Z"/><path class="cls-1" d="M875.7,121h-2.41v-5.29c0-1.45-.5-2.18-1.5-2.18a2.39,2.39,0,0,0-1.46.56,2.81,2.81,0,0,0-1,1.4V121h-2.41v-9.43h2.18v1.75a3.61,3.61,0,0,1,1.53-1.41,4.78,4.78,0,0,1,2.22-.51,3.21,3.21,0,0,1,1.2.22,2.25,2.25,0,0,1,.82.56,2.88,2.88,0,0,1,.5.84,4.58,4.58,0,0,1,.25,1,8.94,8.94,0,0,1,.07,1.09Z"/><path class="cls-1" d="M878.23,107.83h2.41V118a1.34,1.34,0,0,0,.2.86.75.75,0,0,0,.61.24,2.7,2.7,0,0,0,1.13-.26l.32,1.84a5.38,5.38,0,0,1-1.11.35,5.76,5.76,0,0,1-1.19.13,2.43,2.43,0,0,1-1.75-.6,2.32,2.32,0,0,1-.62-1.72Z"/><path class="cls-1" d="M884.4,110.22v-2.39h2.41v2.39Zm0,10.75v-9.43h2.41V121Z"/><path class="cls-1" d="M898.2,121h-2.41v-5.29c0-1.45-.5-2.18-1.49-2.18a2.4,2.4,0,0,0-1.47.56,2.79,2.79,0,0,0-1,1.4V121h-2.41v-9.43h2.18v1.75a3.64,3.64,0,0,1,1.52-1.41,4.83,4.83,0,0,1,2.22-.51,3.13,3.13,0,0,1,1.2.22,2.17,2.17,0,0,1,.82.56,2.68,2.68,0,0,1,.5.84,4.07,4.07,0,0,1,.25,1,7.31,7.31,0,0,1,.07,1.09Z"/><path class="cls-1" d="M905.13,121.15a5.19,5.19,0,0,1-2.63-.67,4.55,4.55,0,0,1-1.75-1.76,4.92,4.92,0,0,1-.6-2.41,5.12,5.12,0,0,1,.6-2.46,4.52,4.52,0,0,1,1.75-1.8,5.15,5.15,0,0,1,2.65-.68,5.33,5.33,0,0,1,2.06.4,4.34,4.34,0,0,1,1.55,1.07,4.82,4.82,0,0,1,1,1.54,4.93,4.93,0,0,1,.34,1.84,5.56,5.56,0,0,1,0,.8h-7.3a2.49,2.49,0,0,0,2.51,2.37,2.71,2.71,0,0,0,1.36-.36,1.8,1.8,0,0,0,.87-.92l2.06.58a4.07,4.07,0,0,1-1.69,1.78A5.24,5.24,0,0,1,905.13,121.15Zm-2.47-5.65h4.93a2.63,2.63,0,0,0-.8-1.72,2.46,2.46,0,0,0-3.35,0A2.59,2.59,0,0,0,902.66,115.5Z"/><path class="cls-1" d="M921.12,121.15a5.22,5.22,0,0,1-2.63-.67,4.55,4.55,0,0,1-1.75-1.76,4.92,4.92,0,0,1-.6-2.41,5.12,5.12,0,0,1,.6-2.46,4.52,4.52,0,0,1,1.75-1.8,5.15,5.15,0,0,1,2.65-.68,5.33,5.33,0,0,1,2.06.4,4.34,4.34,0,0,1,1.55,1.07,4.65,4.65,0,0,1,1,1.54,4.93,4.93,0,0,1,.34,1.84,5.56,5.56,0,0,1,0,.8h-7.3a2.49,2.49,0,0,0,2.51,2.37,2.71,2.71,0,0,0,1.36-.36,1.8,1.8,0,0,0,.87-.92l2.07.58a4.15,4.15,0,0,1-1.7,1.78A5.24,5.24,0,0,1,921.12,121.15Zm-2.47-5.65h4.93a2.63,2.63,0,0,0-.8-1.72,2.46,2.46,0,0,0-3.35,0A2.59,2.59,0,0,0,918.65,115.5Z"/><path class="cls-1" d="M929.15,111.54l2,2.95.15.33.18-.33,2-2.95H936l-3.28,4.69L936,121h-2.53l-2-2.93-.16-.31-.15.31-2,2.93h-2.54l3.33-4.67-3.28-4.76Z"/><path class="cls-1" d="M940,119.32v5.48h-2.41V111.54h2.11v1.62a3.93,3.93,0,0,1,1.37-1.32,3.8,3.8,0,0,1,1.88-.47,4.07,4.07,0,0,1,2.26.66,4.53,4.53,0,0,1,1.59,1.77,5.26,5.26,0,0,1,.56,2.43,5.81,5.81,0,0,1-.52,2.49,4.4,4.4,0,0,1-1.48,1.78,3.88,3.88,0,0,1-4,.16A3.47,3.47,0,0,1,940,119.32Zm4.89-3.09a2.81,2.81,0,0,0-.74-2,2.45,2.45,0,0,0-3.24-.36A2.29,2.29,0,0,0,940,115v2.22a3.25,3.25,0,0,0,1,1.34,2.31,2.31,0,0,0,1.43.53,2.23,2.23,0,0,0,1.77-.85A3.11,3.11,0,0,0,944.91,116.23Z"/><path class="cls-1" d="M948.87,116.27a5.09,5.09,0,0,1,.35-1.87,5,5,0,0,1,1-1.56,4.33,4.33,0,0,1,1.57-1.07,5.33,5.33,0,0,1,2.06-.4,5,5,0,0,1,2.62.69,4.55,4.55,0,0,1,1.73,1.78,5.19,5.19,0,0,1,.58,2.43,5.29,5.29,0,0,1-.34,1.86,4.78,4.78,0,0,1-1,1.55,4.29,4.29,0,0,1-1.56,1.07,5.12,5.12,0,0,1-2.06.4,5.5,5.5,0,0,1-1.7-.26,4.31,4.31,0,0,1-1.38-.72,4.94,4.94,0,0,1-1-1.07,4.54,4.54,0,0,1-.64-1.33A5.09,5.09,0,0,1,948.87,116.27Zm5,2.83a2.22,2.22,0,0,0,1.75-.81,3,3,0,0,0,.71-2,3,3,0,0,0-.71-2,2.32,2.32,0,0,0-3.51,0,3,3,0,0,0-.71,2,2.91,2.91,0,0,0,.71,2A2.26,2.26,0,0,0,953.83,119.1Z"/><path class="cls-1" d="M964.3,121.15a6.62,6.62,0,0,1-2.32-.41,5.1,5.1,0,0,1-1.87-1.16L961,118a5.27,5.27,0,0,0,3.24,1.33,2.08,2.08,0,0,0,1.13-.26.82.82,0,0,0,.42-.75,1.23,1.23,0,0,0,0-.2.61.61,0,0,0-.09-.18l-.12-.14a.48.48,0,0,0-.19-.13l-.22-.11-.28-.1-.3-.1-.36-.1-.4-.12c-.46-.15-.84-.28-1.14-.4a6.78,6.78,0,0,1-.86-.41,2.4,2.4,0,0,1-.65-.5,2,2,0,0,1-.37-.63,2.31,2.31,0,0,1-.14-.82,2.68,2.68,0,0,1,1-2.22,4.36,4.36,0,0,1,2.78-.82,5,5,0,0,1,3.54,1.33l-1,1.53a4.45,4.45,0,0,0-2.68-1.08,2.13,2.13,0,0,0-1,.23.78.78,0,0,0-.42.75.77.77,0,0,0,.37.69,6.11,6.11,0,0,0,1.35.49c.52.15.93.29,1.24.39a9.27,9.27,0,0,1,.94.41,2.71,2.71,0,0,1,.74.52,2.12,2.12,0,0,1,.41.65,2.49,2.49,0,0,1,.16.9,2.6,2.6,0,0,1-1,2.18A4.37,4.37,0,0,1,964.3,121.15Z"/><path class="cls-1" d="M970.07,117.45v-5.91h2.41v5.38c0,1.45.52,2.18,1.57,2.18a2.48,2.48,0,0,0,1.38-.44,3.18,3.18,0,0,0,1.05-1.27v-5.85h2.41v6.73a.87.87,0,0,0,.13.55.63.63,0,0,0,.45.19v2a6.05,6.05,0,0,1-1.05.11,1.77,1.77,0,0,1-1.06-.3,1.15,1.15,0,0,1-.47-.82l0-.76a3.94,3.94,0,0,1-1.61,1.45,4.76,4.76,0,0,1-2.18.5,2.69,2.69,0,0,1-2.22-.94A4.36,4.36,0,0,1,970.07,117.45Z"/><path class="cls-1" d="M987.35,113.62a4.81,4.81,0,0,0-2,.44,2.52,2.52,0,0,0-1.22,1.21V121h-2.41v-9.43h2.21v2a4.51,4.51,0,0,1,1.28-1.53,2.92,2.92,0,0,1,1.64-.6,2.72,2.72,0,0,1,.49,0Z"/><path class="cls-1" d="M993.39,121.15a5.16,5.16,0,0,1-2.62-.67,4.55,4.55,0,0,1-1.75-1.76,4.92,4.92,0,0,1-.6-2.41,5.12,5.12,0,0,1,.6-2.46,4.52,4.52,0,0,1,1.75-1.8,5.11,5.11,0,0,1,2.64-.68,5.29,5.29,0,0,1,2.06.4,4.29,4.29,0,0,1,1.56,1.07,5,5,0,0,1,1,1.54,5.14,5.14,0,0,1,.34,1.84,4.27,4.27,0,0,1-.06.8H991a2.48,2.48,0,0,0,.81,1.72,2.45,2.45,0,0,0,1.69.65,2.75,2.75,0,0,0,1.37-.36,1.88,1.88,0,0,0,.87-.92l2.06.58a4.13,4.13,0,0,1-1.69,1.78A5.31,5.31,0,0,1,993.39,121.15Zm-2.46-5.65h4.93a2.63,2.63,0,0,0-.8-1.72,2.46,2.46,0,0,0-3.35,0A2.5,2.5,0,0,0,990.93,115.5Z"/><path class="cls-1" d="M855.49,131.6h2.41v10.12a1.39,1.39,0,0,0,.2.86.76.76,0,0,0,.61.24,2.7,2.7,0,0,0,1.13-.26l.33,1.84a4.61,4.61,0,0,1-1.12.35,5.81,5.81,0,0,1-1.19.14,2.39,2.39,0,0,1-1.74-.61,2.29,2.29,0,0,1-.63-1.72Z"/><path class="cls-1" d="M866,144.92a5.12,5.12,0,0,1-2.63-.67,4.48,4.48,0,0,1-1.75-1.76,4.9,4.9,0,0,1-.59-2.4,5.15,5.15,0,0,1,.59-2.47,4.52,4.52,0,0,1,1.75-1.8,5.14,5.14,0,0,1,2.65-.67,5.32,5.32,0,0,1,2.06.39,4.47,4.47,0,0,1,1.55,1.07,4.65,4.65,0,0,1,1,1.54A5,5,0,0,1,871,140a5.82,5.82,0,0,1-.05.81h-7.3a2.5,2.5,0,0,0,.81,1.72,2.47,2.47,0,0,0,1.7.64,2.81,2.81,0,0,0,1.36-.35,1.85,1.85,0,0,0,.87-.93l2.07.58a4.1,4.1,0,0,1-1.7,1.78A5.24,5.24,0,0,1,866,144.92Zm-2.47-5.65h4.93a2.64,2.64,0,0,0-.79-1.72,2.48,2.48,0,0,0-3.36,0A2.56,2.56,0,0,0,863.57,139.27Z"/><path class="cls-1" d="M875.16,144.74l-3.48-9.43h2.5l2.37,7.24,2.4-7.24h2.29l-3.46,9.43Z"/><path class="cls-1" d="M887,144.92a5.06,5.06,0,0,1-2.62-.67,4.48,4.48,0,0,1-1.75-1.76,4.91,4.91,0,0,1-.6-2.4,5.16,5.16,0,0,1,.6-2.47,4.52,4.52,0,0,1,1.75-1.8,5.11,5.11,0,0,1,2.64-.67,5.29,5.29,0,0,1,2.06.39,4.42,4.42,0,0,1,1.56,1.07,5,5,0,0,1,1,1.54,5.17,5.17,0,0,1,.33,1.84,4.59,4.59,0,0,1-.05.81H884.6a2.5,2.5,0,0,0,.81,1.72,2.44,2.44,0,0,0,1.69.64,2.85,2.85,0,0,0,1.37-.35,1.87,1.87,0,0,0,.86-.93l2.07.58a4.07,4.07,0,0,1-1.69,1.78A5.31,5.31,0,0,1,887,144.92Zm-2.47-5.65h4.93a2.64,2.64,0,0,0-.79-1.72,2.47,2.47,0,0,0-3.35,0A2.53,2.53,0,0,0,884.54,139.27Z"/><path class="cls-1" d="M893.84,131.6h2.41v10.12a1.32,1.32,0,0,0,.21.86.73.73,0,0,0,.6.24,2.71,2.71,0,0,0,1.14-.26l.32,1.84a4.61,4.61,0,0,1-1.12.35,5.72,5.72,0,0,1-1.18.14,2.43,2.43,0,0,1-1.75-.61,2.29,2.29,0,0,1-.63-1.72Z"/><path class="cls-1" d="M903.49,144.92a6.62,6.62,0,0,1-2.32-.4,5.24,5.24,0,0,1-1.87-1.16l.86-1.57a5.28,5.28,0,0,0,3.24,1.34,2.15,2.15,0,0,0,1.13-.26.84.84,0,0,0,.42-.75,1.25,1.25,0,0,0,0-.21.76.76,0,0,0-.09-.18l-.12-.14a.87.87,0,0,0-.19-.13l-.22-.1a2.72,2.72,0,0,0-.28-.11l-.3-.1-.36-.1-.4-.12c-.46-.15-.84-.28-1.14-.4a6.13,6.13,0,0,1-.86-.41,2.22,2.22,0,0,1-.65-.5A1.93,1.93,0,0,1,900,139a2.37,2.37,0,0,1-.14-.83,2.66,2.66,0,0,1,1.05-2.21,4.3,4.3,0,0,1,2.78-.83,4.94,4.94,0,0,1,3.54,1.34l-1,1.52a4.45,4.45,0,0,0-2.68-1.08,2.13,2.13,0,0,0-1,.23.78.78,0,0,0-.42.75.77.77,0,0,0,.37.69,6.55,6.55,0,0,0,1.35.5c.52.15.93.28,1.24.39a7.46,7.46,0,0,1,.94.41,2.51,2.51,0,0,1,.74.51,2.25,2.25,0,0,1,.41.65,2.29,2.29,0,0,1,.16.9,2.6,2.6,0,0,1-1,2.19A4.36,4.36,0,0,1,903.49,144.92Z"/><path class="cls-1" d="M919.77,144.26a6.56,6.56,0,0,1-2.66.64,3.12,3.12,0,0,1-1-.13,2.4,2.4,0,0,1-.78-.4,1.88,1.88,0,0,1-.53-.72,2.72,2.72,0,0,1-.2-1.07v-5.41h-1.23v-1.86h1.23v-3.05h2.42v3.05h2v1.86h-2v4.6q0,.93.9.93a3.6,3.6,0,0,0,1.32-.35Z"/><path class="cls-1" d="M920.76,140a4.93,4.93,0,0,1,.35-1.87,5,5,0,0,1,1-1.56,4.55,4.55,0,0,1,1.57-1.07,5.36,5.36,0,0,1,2.06-.39,5,5,0,0,1,2.63.68,4.59,4.59,0,0,1,1.72,1.78,5.13,5.13,0,0,1,.58,2.43,5.07,5.07,0,0,1-.34,1.86,5,5,0,0,1-1,1.56,4.58,4.58,0,0,1-1.56,1.06,5.2,5.2,0,0,1-2.07.4,5.44,5.44,0,0,1-1.69-.26,4.31,4.31,0,0,1-1.38-.72,4.66,4.66,0,0,1-1-1.06,4.5,4.5,0,0,1-.65-1.34A5.33,5.33,0,0,1,920.76,140Zm5,2.83a2.26,2.26,0,0,0,1.76-.81,3.29,3.29,0,0,0,0-4.06,2.28,2.28,0,0,0-1.76-.8A2.26,2.26,0,0,0,924,138a3,3,0,0,0-.71,2,3,3,0,0,0,.71,2A2.23,2.23,0,0,0,925.71,142.87Z"/><path class="cls-1" d="M937.48,134v-2.4h2.4V134Zm0,10.74v-9.43h2.4v9.43Z"/><path class="cls-1" d="M957.17,144.74h-2.41v-5.29a2.9,2.9,0,0,0-.38-1.64,1.23,1.23,0,0,0-1.08-.54,2,2,0,0,0-1.35.56,3,3,0,0,0-.9,1.42v5.49h-2.42v-5.29c0-1.45-.49-2.18-1.46-2.18a2.09,2.09,0,0,0-1.35.55,3,3,0,0,0-.9,1.41v5.51h-2.41v-9.43h2.18v1.75a3.68,3.68,0,0,1,1.44-1.41,4.17,4.17,0,0,1,2.07-.5,2.68,2.68,0,0,1,1.79.56,2.51,2.51,0,0,1,.87,1.44,4,4,0,0,1,1.47-1.48,3.86,3.86,0,0,1,2-.52c1.88,0,2.83,1.23,2.83,3.71Z"/><path class="cls-1" d="M962.12,143.09v5.49h-2.4V135.31h2.11v1.62a3.74,3.74,0,0,1,1.37-1.31,3.67,3.67,0,0,1,1.88-.47,4.09,4.09,0,0,1,2.26.66,4.43,4.43,0,0,1,1.58,1.77,5.24,5.24,0,0,1,.57,2.43,5.77,5.77,0,0,1-.53,2.48,4.31,4.31,0,0,1-1.47,1.78,3.71,3.71,0,0,1-2.12.65,3.8,3.8,0,0,1-1.92-.48A3.59,3.59,0,0,1,962.12,143.09ZM967,140a2.84,2.84,0,0,0-.75-2,2.43,2.43,0,0,0-1.86-.81,2.4,2.4,0,0,0-1.38.46,2.26,2.26,0,0,0-.91,1.13V141a3.2,3.2,0,0,0,1,1.34,2.23,2.23,0,0,0,1.43.53,2.16,2.16,0,0,0,1.76-.85A3.06,3.06,0,0,0,967,140Z"/><path class="cls-1" d="M970.92,142a2.66,2.66,0,0,1,1.13-2.22,4.69,4.69,0,0,1,2.92-.85,6,6,0,0,1,2.27.38v-.5a1.79,1.79,0,0,0-.53-1.39,2.28,2.28,0,0,0-1.58-.48,4.12,4.12,0,0,0-1.44.25,8,8,0,0,0-1.5.81l-.78-1.58a7.17,7.17,0,0,1,4-1.23,4.49,4.49,0,0,1,3.14,1,3.66,3.66,0,0,1,1.12,2.88v3a.89.89,0,0,0,.13.55.63.63,0,0,0,.45.18v2a4.81,4.81,0,0,1-1,.13,1.63,1.63,0,0,1-1.07-.31,1.21,1.21,0,0,1-.47-.81l-.06-.48a4,4,0,0,1-1.52,1.21,4.21,4.21,0,0,1-1.88.44,3.4,3.4,0,0,1-2.35-.84A2.75,2.75,0,0,1,970.92,142Zm5.87.48a1.24,1.24,0,0,0,.45-.82v-1a4.94,4.94,0,0,0-1.89-.38,2.67,2.67,0,0,0-1.54.41,1.24,1.24,0,0,0-.6,1.07,1.25,1.25,0,0,0,.46,1,1.72,1.72,0,0,0,1.22.42,3,3,0,0,0,1.05-.19A2.57,2.57,0,0,0,976.79,142.44Z"/><path class="cls-1" d="M986.75,144.92a5.2,5.2,0,0,1-2.07-.4,4.6,4.6,0,0,1-1.58-1.07,5.06,5.06,0,0,1-1-1.56,4.9,4.9,0,0,1-.36-1.87,5,5,0,0,1,.6-2.42,4.5,4.5,0,0,1,1.74-1.78,5.08,5.08,0,0,1,2.64-.67,5,5,0,0,1,2.6.65,4.14,4.14,0,0,1,1.66,1.76l-2.35.72a2.12,2.12,0,0,0-.81-.79,2.34,2.34,0,0,0-2.88.5,3.25,3.25,0,0,0,0,4.07,2.25,2.25,0,0,0,1.75.81,2.35,2.35,0,0,0,1.19-.31,1.79,1.79,0,0,0,.77-.8l2.36.72a4,4,0,0,1-1.64,1.77A5.06,5.06,0,0,1,986.75,144.92Z"/><path class="cls-1" d="M998.6,144.26a6.52,6.52,0,0,1-2.66.64,3.16,3.16,0,0,1-1-.13,2.35,2.35,0,0,1-.77-.4,1.8,1.8,0,0,1-.54-.72,2.73,2.73,0,0,1-.19-1.07v-5.41h-1.24v-1.86h1.24v-3.05h2.42v3.05h2v1.86h-2v4.6c0,.62.31.93.89.93a3.6,3.6,0,0,0,1.32-.35Z"/><path class="cls-1" d="M88.1,349.73a1.34,1.34,0,0,1-.5-2.58l6-2.38a1.34,1.34,0,0,1,1,2.48l-6,2.38A1.43,1.43,0,0,1,88.1,349.73ZM106,342.59a1.34,1.34,0,0,1-.49-2.58l6-2.38a1.34,1.34,0,1,1,1,2.48l-6,2.38A1.24,1.24,0,0,1,106,342.59Zm17.87-7.14a1.34,1.34,0,0,1-.5-2.58l6-2.38a1.34,1.34,0,0,1,1,2.48l-6,2.38A1.23,1.23,0,0,1,123.83,335.45Zm17.86-7.14a1.34,1.34,0,0,1-.49-2.58l6-2.38a1.34,1.34,0,1,1,1,2.48l-5.95,2.38A1.24,1.24,0,0,1,141.69,328.31Zm17.87-7.14a1.34,1.34,0,0,1-.5-2.58l6-2.38a1.34,1.34,0,0,1,1,2.49l-6,2.38A1.41,1.41,0,0,1,159.56,321.17ZM177.42,314a1.33,1.33,0,0,1-.49-2.57l5.95-2.38a1.34,1.34,0,1,1,1,2.48l-6,2.38A1.43,1.43,0,0,1,177.42,314Zm17.87-7.14a1.33,1.33,0,0,1-.5-2.57l6-2.38a1.34,1.34,0,0,1,1,2.48l-6,2.38A1.41,1.41,0,0,1,195.29,306.89Zm17.86-7.13a1.34,1.34,0,0,1-.49-2.58l6-2.38a1.34,1.34,0,1,1,1,2.48l-5.95,2.38A1.24,1.24,0,0,1,213.15,299.76ZM231,292.62a1.34,1.34,0,0,1-.5-2.58l6-2.38a1.34,1.34,0,0,1,1,2.48l-6,2.38A1.23,1.23,0,0,1,231,292.62Zm17.86-7.14a1.34,1.34,0,0,1-.49-2.58l6-2.38a1.34,1.34,0,0,1,1,2.48l-6,2.38A1.24,1.24,0,0,1,248.88,285.48Zm17.87-7.14a1.34,1.34,0,0,1-.5-2.58l6-2.38a1.34,1.34,0,0,1,1,2.49l-5.95,2.37A1.31,1.31,0,0,1,266.75,278.34Zm17.86-7.14a1.34,1.34,0,0,1-.49-2.58l5.95-2.37a1.33,1.33,0,0,1,1.74.74,1.35,1.35,0,0,1-.74,1.74l-6,2.38A1.43,1.43,0,0,1,284.61,271.2Z"/><path class="cls-1" d="M298.77,265.55a1.34,1.34,0,0,1-.59-2.54l1.81-.88a1.32,1.32,0,0,1,1.78.61,1.34,1.34,0,0,1-.61,1.79l-1.81.88A1.3,1.3,0,0,1,298.77,265.55ZM312.1,259a1.34,1.34,0,0,1-.59-2.54l5.76-2.82a1.34,1.34,0,0,1,1.18,2.41l-5.77,2.81A1.3,1.3,0,0,1,312.1,259Zm17.29-8.45a1.33,1.33,0,0,1-.59-2.53l5.76-2.82a1.34,1.34,0,0,1,1.79.62,1.33,1.33,0,0,1-.62,1.78L330,250.46A1.36,1.36,0,0,1,329.39,250.59Zm17.28-8.44a1.34,1.34,0,0,1-.58-2.54l5.76-2.81a1.34,1.34,0,1,1,1.17,2.4L347.26,242A1.25,1.25,0,0,1,346.67,242.15ZM364,233.71a1.34,1.34,0,0,1-.59-2.54l5.77-2.82a1.34,1.34,0,0,1,1.17,2.41l-5.76,2.81A1.38,1.38,0,0,1,364,233.71Zm17.29-8.45a1.33,1.33,0,0,1-.59-2.53l5.76-2.82a1.34,1.34,0,1,1,1.17,2.4l-5.76,2.82A1.36,1.36,0,0,1,381.25,225.26Zm17.28-8.44a1.34,1.34,0,0,1-.58-2.54l5.76-2.81a1.34,1.34,0,1,1,1.17,2.4l-5.76,2.81A1.25,1.25,0,0,1,398.53,216.82Zm17.29-8.44a1.34,1.34,0,0,1-.59-2.54L421,203a1.32,1.32,0,0,1,1.78.61,1.34,1.34,0,0,1-.61,1.79l-5.76,2.81A1.38,1.38,0,0,1,415.82,208.38Zm17.29-8.45a1.33,1.33,0,0,1-.59-2.53l5.76-2.82a1.34,1.34,0,0,1,1.18,2.4l-5.77,2.82A1.29,1.29,0,0,1,433.11,199.93Zm17.29-8.44a1.34,1.34,0,0,1-.59-2.54l5.76-2.81a1.34,1.34,0,1,1,1.17,2.4L451,191.35A1.24,1.24,0,0,1,450.4,191.49Zm17.28-8.44a1.34,1.34,0,0,1-.59-2.54l5.77-2.81a1.32,1.32,0,0,1,1.78.61,1.34,1.34,0,0,1-.61,1.79l-5.76,2.81A1.38,1.38,0,0,1,467.68,183.05Z"/><path class="cls-1" d="M638.39,180.23H632a1.34,1.34,0,1,1,0-2.67h6.41a1.34,1.34,0,1,1,0,2.67Zm-19.24,0h-6.41a1.34,1.34,0,1,1,0-2.67h6.41a1.34,1.34,0,1,1,0,2.67Zm-19.24,0H593.5a1.34,1.34,0,1,1,0-2.67h6.41a1.34,1.34,0,1,1,0,2.67Zm-19.23,0h-6.42a1.34,1.34,0,0,1,0-2.67h6.42a1.34,1.34,0,0,1,0,2.67Zm-19.24,0H555a1.34,1.34,0,0,1,0-2.67h6.42a1.34,1.34,0,0,1,0,2.67Zm-19.24,0h-6.42a1.34,1.34,0,0,1,0-2.67h6.42a1.34,1.34,0,0,1,0,2.67Zm-19.24,0h-6.41a1.34,1.34,0,1,1,0-2.67H523a1.34,1.34,0,1,1,0,2.67Zm-19.24,0h-6.41a1.34,1.34,0,1,1,0-2.67h6.41a1.34,1.34,0,1,1,0,2.67Zm-19.24,0h-6.41a1.34,1.34,0,1,1,0-2.67h6.41a1.34,1.34,0,1,1,0,2.67Z"/><path class="cls-1" d="M640.86,179a1.34,1.34,0,0,1-.6-2.54l5.75-2.84a1.34,1.34,0,0,1,1.19,2.4l-5.75,2.84A1.38,1.38,0,0,1,640.86,179Zm17.25-8.53a1.33,1.33,0,0,1-.6-2.53l5.75-2.84a1.33,1.33,0,1,1,1.19,2.39l-5.75,2.84A1.28,1.28,0,0,1,658.11,170.49ZM675.35,162a1.33,1.33,0,0,1-.59-2.53l5.75-2.84a1.33,1.33,0,1,1,1.18,2.39l-5.75,2.84A1.25,1.25,0,0,1,675.35,162Zm17.25-8.52a1.34,1.34,0,0,1-.59-2.54l5.75-2.84a1.34,1.34,0,1,1,1.18,2.4l-5.75,2.84A1.38,1.38,0,0,1,692.6,153.45Zm17.25-8.52a1.34,1.34,0,0,1-.59-2.54l5.75-2.84a1.34,1.34,0,1,1,1.18,2.4l-5.75,2.84A1.38,1.38,0,0,1,709.85,144.93Zm17.25-8.53a1.33,1.33,0,0,1-.59-2.53l5.75-2.84a1.33,1.33,0,1,1,1.18,2.39l-5.75,2.85A1.37,1.37,0,0,1,727.1,136.4Zm17.25-8.52a1.33,1.33,0,0,1-.6-2.53l5.75-2.84a1.33,1.33,0,1,1,1.19,2.39l-5.75,2.84A1.25,1.25,0,0,1,744.35,127.88Zm17.24-8.52a1.34,1.34,0,0,1-.59-2.53l5.75-2.85a1.35,1.35,0,0,1,1.79.61,1.33,1.33,0,0,1-.61,1.79l-5.74,2.84A1.42,1.42,0,0,1,761.59,119.36Zm17.25-8.52a1.34,1.34,0,0,1-.59-2.54l5.75-2.84a1.34,1.34,0,1,1,1.18,2.4l-5.75,2.84A1.38,1.38,0,0,1,778.84,110.84Z"/><path class="cls-1" d="M784.59,108a1.33,1.33,0,0,1-1.16-.69,1.31,1.31,0,0,1,.51-1.81l5.38-3a1.34,1.34,0,0,1,1.31,2.33l-5.38,3A1.44,1.44,0,0,1,784.59,108Zm16.57-9.31a1.34,1.34,0,0,1-.65-2.5l5.59-3.14a1.34,1.34,0,0,1,1.31,2.33l-5.59,3.14A1.33,1.33,0,0,1,801.16,98.69Zm16.78-9.42a1.34,1.34,0,0,1-.66-2.5l5.59-3.14A1.34,1.34,0,1,1,824.18,86l-5.59,3.14A1.29,1.29,0,0,1,817.94,89.27Zm16.77-9.42a1.34,1.34,0,0,1-.65-2.5l5.59-3.14A1.34,1.34,0,1,1,841,76.54l-5.59,3.14A1.33,1.33,0,0,1,834.71,79.85Zm16.78-9.42a1.34,1.34,0,0,1-.66-2.5l5.59-3.14a1.34,1.34,0,1,1,1.31,2.33l-5.59,3.14A1.29,1.29,0,0,1,851.49,70.43ZM868.26,61a1.34,1.34,0,0,1-.65-2.5l5.59-3.14a1.34,1.34,0,0,1,1.31,2.33l-5.59,3.14A1.33,1.33,0,0,1,868.26,61ZM885,51.59a1.34,1.34,0,0,1-.66-2.5L890,46a1.34,1.34,0,0,1,1.31,2.33l-5.59,3.14A1.29,1.29,0,0,1,885,51.59Zm16.77-9.42a1.31,1.31,0,0,1-1.16-.68,1.32,1.32,0,0,1,.51-1.82l5.59-3.14a1.34,1.34,0,1,1,1.31,2.33L902.47,42A1.33,1.33,0,0,1,901.81,42.17Zm16.78-9.42a1.34,1.34,0,0,1-.66-2.5l5.59-3.14a1.34,1.34,0,1,1,1.31,2.33l-5.59,3.14A1.29,1.29,0,0,1,918.59,32.75Z"/><circle class="cls-2" cx="88.1" cy="348.39" r="88.1"/><circle class="cls-2" cx="298.77" cy="264.21" r="73.27" transform="translate(-99.32 288.65) rotate(-45)"/><path class="cls-2" d="M527.43,178.9a54,54,0,1,1-54-54A54,54,0,0,1,527.43,178.9Z"/><path class="cls-3" d="M691.09,178.9a52.7,52.7,0,1,1-52.7-52.7A52.7,52.7,0,0,1,691.09,178.9Z"/><circle class="cls-3" cx="784.59" cy="106.66" r="44.99"/><path class="cls-3" d="M952.46,28.28A28.28,28.28,0,1,1,924.18,0,28.28,28.28,0,0,1,952.46,28.28Z"/><path class="cls-3" d="M48,343.33a8.24,8.24,0,0,1,2.76,6.33,8.87,8.87,0,0,1-2.95,6.76,10.35,10.35,0,0,1-7.34,2.75,9.1,9.1,0,0,1-7.63-3.49q-2.72-3.49-2.71-9.81,0-6.67,2.95-10.49a9.7,9.7,0,0,1,8.13-3.82A12.08,12.08,0,0,1,50,335.2l-4.07,4.65a6.6,6.6,0,0,0-4.8-2.05,4,4,0,0,0-3,1.14,4.67,4.67,0,0,0-1.19,3.16,6.16,6.16,0,0,1,4.18-1.31A9.85,9.85,0,0,1,48,343.33Zm-9.82,8.76a3.05,3.05,0,0,0,4.59,0,3.4,3.4,0,0,0,1-2.43,3,3,0,0,0-1-2.27,3.37,3.37,0,0,0-4.65,0,3,3,0,0,0-1,2.27A3.41,3.41,0,0,0,38.22,352.09Z"/><path class="cls-3" d="M74.42,352.33v6.47H56.5v-6.47H62V338.55a8.75,8.75,0,0,1-2.81,2.12,7.77,7.77,0,0,1-3.58,1.17V335.2a4.86,4.86,0,0,0,1.71-.36A9.86,9.86,0,0,0,59,334c.52-.34,1-.68,1.46-1s.81-.66,1.07-.9a4.41,4.41,0,0,0,.43-.44h7.51v20.73Z"/><path class="cls-3" d="M78.94,358.8v-7h6v7Z"/><path class="cls-3" d="M99.86,338.32H89.37v-6.57h22.06L98,358.76H89.67Z"/><path class="cls-3" d="M116.13,341.68a5.57,5.57,0,0,1,0-8.53,7.69,7.69,0,0,1,9.79,0,5.55,5.55,0,0,1,0,8.53,7.72,7.72,0,0,1-9.79,0Zm1.26,14.65,11-12.14,9.72-12.83,3.21,2.86L130.78,346l-10.17,13.19Zm4.94-17.1a3,3,0,0,0,.55-1.82,3.09,3.09,0,0,0-.55-1.82,1.61,1.61,0,0,0-1.31-.76,1.59,1.59,0,0,0-1.3.76,3,3,0,0,0-.55,1.82,3,3,0,0,0,.55,1.82,1.58,1.58,0,0,0,1.3.77A1.6,1.6,0,0,0,122.33,339.23Zm10.42,18.19a5.52,5.52,0,0,1,0-8.52,7.71,7.71,0,0,1,9.78,0,5.54,5.54,0,0,1,0,8.52,7.71,7.71,0,0,1-9.78,0ZM139,355a3.09,3.09,0,0,0,.55-1.82,3,3,0,0,0-.55-1.82,1.51,1.51,0,0,0-2.62,0,3,3,0,0,0-.56,1.82,3,3,0,0,0,.56,1.82,1.51,1.51,0,0,0,2.62,0Z"/><path class="cls-3" d="M260.11,274a9.65,9.65,0,0,1-4.13-.85,6.61,6.61,0,0,1-2.82-2.37l3-3.46a6.33,6.33,0,0,0,1.88,1.39,4.73,4.73,0,0,0,2.05.51,2.45,2.45,0,0,0,1.7-.58,2,2,0,0,0,.62-1.55,2.13,2.13,0,0,0-.56-1.53,1.92,1.92,0,0,0-1.46-.58,2.44,2.44,0,0,0-1.13.27,2,2,0,0,0-.79.74h-4.77l2.46-12.74h10.45v5h-6.44l-.31,2.22a4.65,4.65,0,0,1,1.35-.14,6.89,6.89,0,0,1,5,1.86,6.87,6.87,0,0,1-.31,9.87A8.53,8.53,0,0,1,260.11,274Z"/><path class="cls-3" d="M279.55,258.2H271.6v-5h16.72l-10.18,20.47h-6.31Z"/><path class="cls-3" d="M289.52,273.71V268.4h4.53v5.31Z"/><path class="cls-3" d="M297.86,263.62a11.25,11.25,0,0,1,.41-3,11.37,11.37,0,0,1,3.17-5.17,8.77,8.77,0,0,1,5.86-2.24,8.71,8.71,0,0,1,3.36.65,8.13,8.13,0,0,1,2.67,1.72,11.59,11.59,0,0,1,3.05,5.21,10.65,10.65,0,0,1,0,5.78,10.44,10.44,0,0,1-1.24,2.82,10.8,10.8,0,0,1-1.94,2.35,8.26,8.26,0,0,1-2.63,1.62,8.74,8.74,0,0,1-3.23.6,9,9,0,0,1-3.37-.63,8.25,8.25,0,0,1-2.65-1.69,11.1,11.1,0,0,1-1.87-2.41,10.89,10.89,0,0,1-1.17-2.79A11.28,11.28,0,0,1,297.86,263.62ZM307.3,269a2.85,2.85,0,0,0,1.7-.52,3.42,3.42,0,0,0,1.14-1.33,7.55,7.55,0,0,0,.6-1.73,7.91,7.91,0,0,0,.2-1.81,8.58,8.58,0,0,0-.21-1.9,7.43,7.43,0,0,0-.64-1.73,3.38,3.38,0,0,0-1.15-1.28,2.9,2.9,0,0,0-1.64-.49,3,3,0,0,0-1.7.52,3.35,3.35,0,0,0-1.13,1.34,7.81,7.81,0,0,0-.61,1.72,8.6,8.6,0,0,0-.2,1.82,8.51,8.51,0,0,0,.21,1.9,7.32,7.32,0,0,0,.62,1.72,3.38,3.38,0,0,0,1.15,1.28A2.89,2.89,0,0,0,307.3,269Z"/><path class="cls-3" d="M321.58,260.74a4.22,4.22,0,0,1,0-6.47,5.84,5.84,0,0,1,7.42,0,4.2,4.2,0,0,1,0,6.47,5.84,5.84,0,0,1-7.42,0Zm1,11.1,8.29-9.19,7.37-9.73,2.43,2.16L332.68,264,325,274Zm3.74-12.95a2.37,2.37,0,0,0,.41-1.38,2.32,2.32,0,0,0-.41-1.38,1.2,1.2,0,0,0-1-.58,1.19,1.19,0,0,0-1,.58,2.26,2.26,0,0,0-.42,1.38,2.3,2.3,0,0,0,.42,1.38,1.2,1.2,0,0,0,1,.57A1.21,1.21,0,0,0,326.28,258.89Zm7.89,13.78a4.19,4.19,0,0,1,0-6.46,5.84,5.84,0,0,1,7.42,0,4.21,4.21,0,0,1,0,6.46,5.87,5.87,0,0,1-7.42,0Zm4.7-1.85a2.26,2.26,0,0,0,.42-1.38,2.3,2.3,0,0,0-.42-1.38,1.14,1.14,0,0,0-2,0,2.24,2.24,0,0,0-.43,1.38,2.2,2.2,0,0,0,.43,1.38,1.13,1.13,0,0,0,2,0Z"/><path class="cls-3" d="M445.39,184.16v-3h-5.68v-3.68l7-8.76h2.88v8.76h1.94v3.68h-1.94v3Zm-1.55-6.64h2v-2.59Z"/><path class="cls-3" d="M454.12,184.18c0-.79,0-1.44.05-2a9.66,9.66,0,0,1,.23-1.51,4.06,4.06,0,0,1,.5-1.27,5.47,5.47,0,0,1,.87-1,8,8,0,0,1,1.34-1l.92-.52,1-.55a9.41,9.41,0,0,0,.88-.56,4.6,4.6,0,0,0,.78-.64,3.24,3.24,0,0,0,.5-.73,2,2,0,0,0,.2-.86,1.21,1.21,0,0,0-.41-1,1.64,1.64,0,0,0-1-.32,3.65,3.65,0,0,0-1.68.45,6.8,6.8,0,0,0-1.57,1.1l-2.57-2.75a7.08,7.08,0,0,1,2.65-1.75,10.07,10.07,0,0,1,3.77-.69,6.24,6.24,0,0,1,4.14,1.24,4.24,4.24,0,0,1,1.49,3.44,4.73,4.73,0,0,1-.8,2.74,7.38,7.38,0,0,1-2.32,2.11c-1.79,1.11-3,1.89-3.62,2.34h6.76v3.69Z"/><path class="cls-3" d="M469.34,184.18v-4h3.4v4Z"/><path class="cls-3" d="M486.48,180.49v3.69H476.27v-3.69h3.13v-7.85a4.87,4.87,0,0,1-1.6,1.21,4.44,4.44,0,0,1-2,.66v-3.78a3,3,0,0,0,1-.2,5.31,5.31,0,0,0,1-.5c.29-.19.57-.38.83-.59s.46-.37.61-.51a1.38,1.38,0,0,0,.24-.25h4.28v11.81Z"/><path class="cls-3" d="M489.83,174.42a3.16,3.16,0,0,1,0-4.86,4.39,4.39,0,0,1,5.58,0,3.16,3.16,0,0,1,0,4.86,4.39,4.39,0,0,1-5.58,0Zm.72,8.35,6.24-6.91,5.53-7.32,1.84,1.63-6,6.7-5.8,7.52Zm2.81-9.74a1.71,1.71,0,0,0,.31-1,1.68,1.68,0,0,0-.31-1,.85.85,0,0,0-1.49,0,1.68,1.68,0,0,0-.31,1,1.71,1.71,0,0,0,.31,1,.86.86,0,0,0,1.49,0Zm5.94,10.37a3.14,3.14,0,0,1,0-4.86,4.07,4.07,0,0,1,2.79-1,4,4,0,0,1,2.78,1,3.16,3.16,0,0,1,0,4.86,4.06,4.06,0,0,1-2.78,1A4.11,4.11,0,0,1,499.3,183.4Zm3.53-1.39a1.9,1.9,0,0,0,0-2.08.89.89,0,0,0-.74-.43.91.91,0,0,0-.75.43,1.85,1.85,0,0,0,0,2.08.91.91,0,0,0,.75.43A.89.89,0,0,0,502.83,182Z"/><path class="cls-2" d="M611.66,184.16v-3H606v-3.68l7-8.76h2.88v8.76h1.94v3.68h-1.94v3Zm-1.55-6.64h2v-2.59Z"/><path class="cls-2" d="M631.24,180.49v3.69H621v-3.69h3.13v-7.85a4.87,4.87,0,0,1-1.6,1.21,4.44,4.44,0,0,1-2,.66v-3.78a3,3,0,0,0,1-.2,5.31,5.31,0,0,0,1-.5c.29-.19.57-.38.83-.59s.46-.37.61-.51a1.38,1.38,0,0,0,.24-.25h4.28v11.81Z"/><path class="cls-2" d="M633.82,184.18v-4h3.4v4Z"/><path class="cls-2" d="M640.11,184.18q0-1.19.06-2a9.64,9.64,0,0,1,.22-1.51,4.32,4.32,0,0,1,.51-1.27,4.81,4.81,0,0,1,.87-1,7.63,7.63,0,0,1,1.34-1l.92-.52,1-.55a9.43,9.43,0,0,0,.89-.56,5.57,5.57,0,0,0,.78-.64,2.92,2.92,0,0,0,.49-.73,1.85,1.85,0,0,0,.21-.86,1.21,1.21,0,0,0-.41-1,1.67,1.67,0,0,0-1-.32,3.65,3.65,0,0,0-1.68.45,7,7,0,0,0-1.56,1.1l-2.58-2.75a7.12,7.12,0,0,1,2.66-1.75,10,10,0,0,1,3.77-.69,6.26,6.26,0,0,1,4.14,1.24,4.23,4.23,0,0,1,1.48,3.44,4.72,4.72,0,0,1-.79,2.74,7.49,7.49,0,0,1-2.32,2.11c-1.79,1.11-3,1.89-3.62,2.34h6.75v3.69Z"/><path class="cls-2" d="M656.1,174.42a3.18,3.18,0,0,1,0-4.86,4.39,4.39,0,0,1,5.58,0,3.16,3.16,0,0,1,0,4.86,4.39,4.39,0,0,1-5.58,0Zm.72,8.35,6.24-6.91,5.54-7.32,1.83,1.63-6,6.7-5.8,7.52Zm2.81-9.74a1.71,1.71,0,0,0,.31-1,1.68,1.68,0,0,0-.31-1,.9.9,0,0,0-.74-.44.92.92,0,0,0-.75.44,1.75,1.75,0,0,0-.31,1,1.78,1.78,0,0,0,.31,1,.91.91,0,0,0,.75.43A.89.89,0,0,0,659.63,173Zm5.94,10.37a3.16,3.16,0,0,1,0-4.86,4.39,4.39,0,0,1,5.58,0,3.18,3.18,0,0,1,0,4.86,4.43,4.43,0,0,1-5.58,0ZM669.1,182a1.85,1.85,0,0,0,0-2.08.89.89,0,0,0-.74-.43.91.91,0,0,0-.75.43,1.85,1.85,0,0,0,0,2.08.91.91,0,0,0,.75.43A.89.89,0,0,0,669.1,182Z"/><path class="cls-2" d="M762.55,114a7,7,0,0,1-4.62-1.49l1.85-2.57a4.08,4.08,0,0,0,2.58.82,2.7,2.7,0,0,0,1.41-.29,1,1,0,0,0,.45-.92,1.08,1.08,0,0,0-.57-1,4.13,4.13,0,0,0-1.86-.31h-.59v-2.46h.67a2.74,2.74,0,0,0,1.46-.35,1.08,1.08,0,0,0,.55-.93.84.84,0,0,0-.33-.71,1.43,1.43,0,0,0-.91-.25,2.68,2.68,0,0,0-2.26,1.31l-2.28-2.63a4.73,4.73,0,0,1,2-1.21,9,9,0,0,1,2.91-.47,5.82,5.82,0,0,1,3.4.9,2.79,2.79,0,0,1,1.29,2.38,3.05,3.05,0,0,1-.7,2,2.88,2.88,0,0,1-1.75,1.06,3.1,3.1,0,0,1,1.91,1.14,3.43,3.43,0,0,1,.75,2.22,3.24,3.24,0,0,1-1.45,2.78A6.79,6.79,0,0,1,762.55,114Z"/><path class="cls-2" d="M774.72,114.06a6.22,6.22,0,0,1-2.67-.55,4.14,4.14,0,0,1-1.83-1.53l2-2.24a4.24,4.24,0,0,0,1.22.9,3.06,3.06,0,0,0,1.32.33,1.59,1.59,0,0,0,1.1-.37,1.32,1.32,0,0,0,.41-1,1.37,1.37,0,0,0-.37-1,1.24,1.24,0,0,0-.94-.37,1.66,1.66,0,0,0-.73.17,1.19,1.19,0,0,0-.51.48H770.6l1.59-8.24H779v3.22h-4.16l-.2,1.44a2.92,2.92,0,0,1,.87-.09,4.46,4.46,0,0,1,3.22,1.2,4.46,4.46,0,0,1-.2,6.39A5.51,5.51,0,0,1,774.72,114.06Z"/><path class="cls-2" d="M782.41,113.9v-3.43h2.93v3.43Z"/><path class="cls-2" d="M789.18,108.31a4,4,0,0,1-1.35-3.1,4.36,4.36,0,0,1,1.44-3.31,5.09,5.09,0,0,1,3.6-1.35,4.45,4.45,0,0,1,3.74,1.71,7.67,7.67,0,0,1,1.33,4.81,8.25,8.25,0,0,1-1.44,5.15,4.76,4.76,0,0,1-4,1.86,5.91,5.91,0,0,1-4.29-1.78l2-2.28a3.27,3.27,0,0,0,2.35,1,1.92,1.92,0,0,0,1.47-.56,2.29,2.29,0,0,0,.58-1.55,3,3,0,0,1-2,.64A4.81,4.81,0,0,1,789.18,108.31ZM794,104a1.51,1.51,0,0,0-2.26,0,1.69,1.69,0,0,0-.48,1.19,1.45,1.45,0,0,0,.47,1.11,1.58,1.58,0,0,0,1.14.46,1.56,1.56,0,0,0,1.14-.46,1.46,1.46,0,0,0,.48-1.11A1.66,1.66,0,0,0,794,104Z"/><path class="cls-2" d="M801.14,105.51a2.74,2.74,0,0,1,0-4.18,3.78,3.78,0,0,1,4.8,0,2.72,2.72,0,0,1,0,4.18,3.78,3.78,0,0,1-4.8,0Zm.62,7.18,5.37-6,4.76-6.29,1.58,1.4-5.15,5.77-5,6.46Zm2.42-8.38a1.62,1.62,0,0,0,0-1.79.74.74,0,0,0-1.28,0,1.62,1.62,0,0,0,0,1.79.74.74,0,0,0,1.28,0Zm5.11,8.92a2.7,2.7,0,0,1,0-4.18,3.51,3.51,0,0,1,2.4-.86,3.55,3.55,0,0,1,2.4.86,2.74,2.74,0,0,1,0,4.18,3.54,3.54,0,0,1-2.4.85A3.51,3.51,0,0,1,809.29,113.23Zm3-1.2a1.47,1.47,0,0,0,.27-.89,1.49,1.49,0,0,0-.27-.89.77.77,0,0,0-.64-.37.8.8,0,0,0-.65.37,1.49,1.49,0,0,0-.27.89,1.47,1.47,0,0,0,.27.89.81.81,0,0,0,.65.38A.78.78,0,0,0,812.33,112Z"/><path class="cls-2" d="M903.11,33.18c0-.54,0-1,0-1.35a6.06,6.06,0,0,1,.15-1,2.84,2.84,0,0,1,.35-.88,4,4,0,0,1,.6-.72,6.24,6.24,0,0,1,.93-.68l.64-.36.68-.37a6,6,0,0,0,.61-.39,2.91,2.91,0,0,0,.54-.45,2,2,0,0,0,.35-.5,1.39,1.39,0,0,0,.14-.6.83.83,0,0,0-.29-.69,1.08,1.08,0,0,0-.71-.22,2.53,2.53,0,0,0-1.17.31,4.88,4.88,0,0,0-1.08.76l-1.78-1.9A4.72,4.72,0,0,1,905,22.89a6.89,6.89,0,0,1,2.61-.49,4.33,4.33,0,0,1,2.87.87,2.93,2.93,0,0,1,1,2.38,3.27,3.27,0,0,1-.55,1.9A5.32,5.32,0,0,1,909.3,29c-1.24.77-2.08,1.31-2.51,1.62h4.68v2.55Z"/><path class="cls-2" d="M912.75,33.18c0-.54,0-1,0-1.35a6.06,6.06,0,0,1,.15-1,2.84,2.84,0,0,1,.35-.88,3.65,3.65,0,0,1,.61-.72,5.63,5.63,0,0,1,.92-.68l.64-.36.68-.37a6,6,0,0,0,.61-.39,2.91,2.91,0,0,0,.54-.45,2,2,0,0,0,.35-.5,1.39,1.39,0,0,0,.14-.6.85.85,0,0,0-.28-.69,1.12,1.12,0,0,0-.72-.22,2.49,2.49,0,0,0-1.16.31,4.72,4.72,0,0,0-1.09.76l-1.78-1.9a4.8,4.8,0,0,1,1.84-1.21,6.89,6.89,0,0,1,2.61-.49,4.32,4.32,0,0,1,2.87.87,2.93,2.93,0,0,1,1,2.38,3.34,3.34,0,0,1-.54,1.9A5.49,5.49,0,0,1,918.94,29c-1.24.77-2.08,1.31-2.51,1.62h4.68v2.55Z"/><path class="cls-2" d="M922.6,33.18V30.42H925v2.76Z"/><path class="cls-2" d="M933.79,30.63v2.55h-7.08V30.63h2.17V25.19a3.25,3.25,0,0,1-1.1.84,3.06,3.06,0,0,1-1.42.46V23.87a2,2,0,0,0,.68-.14,4.79,4.79,0,0,0,.68-.34,6.41,6.41,0,0,0,.57-.41l.43-.36a.9.9,0,0,0,.16-.17h3v8.18Z"/><path class="cls-2" d="M935.42,26.43a2.17,2.17,0,0,1-.79-1.69,2.14,2.14,0,0,1,.79-1.68,3,3,0,0,1,3.86,0,2.14,2.14,0,0,1,.79,1.68,2.17,2.17,0,0,1-.79,1.69,3,3,0,0,1-3.86,0Zm.49,5.78,4.33-4.79,3.83-5.07,1.27,1.13-4.14,4.64-4,5.21Zm2-6.75a1.27,1.27,0,0,0,0-1.43.6.6,0,0,0-.51-.31.63.63,0,0,0-.52.31,1.32,1.32,0,0,0,0,1.43.64.64,0,0,0,.52.3A.61.61,0,0,0,937.86,25.46ZM942,32.64a2.18,2.18,0,0,1,0-3.36,3.06,3.06,0,0,1,3.87,0,2.2,2.2,0,0,1,0,3.36,3.06,3.06,0,0,1-3.87,0Zm2.45-1a1.29,1.29,0,0,0,0-1.44.61.61,0,0,0-.51-.3.64.64,0,0,0-.52.3,1.29,1.29,0,0,0,0,1.44.64.64,0,0,0,.52.3A.61.61,0,0,0,944.42,31.68Z"/></g></g></svg>