<svg xmlns="http://www.w3.org/2000/svg" viewBox="0 0 156.43 32.87"><defs><style>.cls-1{fill:#ff574a;}.cls-2{fill:#00324a;}</style></defs><title>logo</title><g id="Capa_2" data-name="Capa 2"><g id="Layer_1" data-name="Layer 1"><path class="cls-1" d="M72.59,19.55H70.3L65.17,32.32h2.39l1.37-3.59h5l1.4,3.59h2.37L72.61,19.6ZM73.27,27H69.55l1.9-5Z"/><rect class="cls-2" x="67.61" y="0.6" width="2.24" height="12.79"/><path class="cls-2" d="M85,13.54a2.45,2.45,0,0,1-2.49-2.77V5.23H81.23V3.5h1.29V.6h2.2V3.5H87.1V5.23H84.72v5.39a.9.9,0,0,0,.3.69,1,1,0,0,0,.66.22,1.77,1.77,0,0,0,1.12-.43l.87,1.58a3.84,3.84,0,0,1-2.66.86"/><path class="cls-2" d="M112.14,7.48A3,3,0,0,1,113.39,6a4.1,4.1,0,0,1,2-.57h.07v-2a1.53,1.53,0,0,0-.54,0,3.25,3.25,0,0,0-1.76.67A4.62,4.62,0,0,0,112,5.45V3.5h-2v9.89h2.2Z"/><path class="cls-2" d="M124.42,10.9V7.37a3.77,3.77,0,0,0-1.14-2.92,4.76,4.76,0,0,0-3.19-1.21,6.1,6.1,0,0,0-3.78,1.2l0,0L117.1,6a5.09,5.09,0,0,1,2.82-.93,2.41,2.41,0,0,1,1.71.55,2.11,2.11,0,0,1,.6,1.56v.46a11.26,11.26,0,0,0-2.5-.35c-.61,0-4.19.14-4.19,3.17a3,3,0,0,0,1,2.24,3.26,3.26,0,0,0,1.12.66,4.79,4.79,0,0,0,1.49.23,3.89,3.89,0,0,0,3.4-1.5,1.56,1.56,0,0,0,.52,1.09,1.63,1.63,0,0,0,1.09.32,4.54,4.54,0,0,0,.92-.11V11.5s-.63.14-.63-.6m-5,1a1.93,1.93,0,0,1-1.33-.47,1.51,1.51,0,0,1-.51-1.16,1.34,1.34,0,0,1,.66-1.17,3.13,3.13,0,0,1,1.76-.41,6.44,6.44,0,0,1,1.13.11,6.17,6.17,0,0,1,1.07.24v.51a2.45,2.45,0,0,1-2.78,2.35"/><path class="cls-1" d="M110.36,29.28a1.59,1.59,0,0,1-.35.49,3,3,0,0,1-.56.41,3.1,3.1,0,0,1-.7.28,2.79,2.79,0,0,1-1.88-.15,2.87,2.87,0,0,1-.92-.67,3.12,3.12,0,0,1-.62-1,3.72,3.72,0,0,1,0-2.55,3.11,3.11,0,0,1,.61-1,2.8,2.8,0,0,1,.9-.66A2.75,2.75,0,0,1,108,24.2a2.85,2.85,0,0,1,1.36.33,2.55,2.55,0,0,1,1,.92l0,.05,2-.7,0-.08a4.3,4.3,0,0,0-1.65-1.79,5,5,0,0,0-2.64-.67,5.52,5.52,0,0,0-2.12.4,5,5,0,0,0-1.61,1.11,4.86,4.86,0,0,0-1,1.63,5.33,5.33,0,0,0-.36,2,5.14,5.14,0,0,0,.37,2,4.93,4.93,0,0,0,1,1.64,4.85,4.85,0,0,0,1.61,1.12,5.52,5.52,0,0,0,4.82-.29A4.08,4.08,0,0,0,112.39,30l0-.08-2-.66Z"/><path class="cls-1" d="M144,29.28a1.44,1.44,0,0,1-.35.49,3,3,0,0,1-.56.41,3.1,3.1,0,0,1-.7.28,2.8,2.8,0,0,1-1.88-.15,2.83,2.83,0,0,1-.91-.67,3,3,0,0,1-.63-1,3.5,3.5,0,0,1-.23-1.27,3.69,3.69,0,0,1,.22-1.28,3.11,3.11,0,0,1,.61-1,2.83,2.83,0,0,1,3.39-.56,2.65,2.65,0,0,1,1,.92l0,.05,2-.7,0-.08a4.39,4.39,0,0,0-1.66-1.79,5,5,0,0,0-2.64-.67,5.47,5.47,0,0,0-2.11.4,4.82,4.82,0,0,0-2.65,2.74,5.45,5.45,0,0,0,0,3.92,4.93,4.93,0,0,0,1,1.64,4.79,4.79,0,0,0,1.62,1.12,5.5,5.5,0,0,0,4.81-.29A4.08,4.08,0,0,0,146,30l0-.08-2-.66Z"/><rect class="cls-1" x="113.13" y="19.18" width="2.21" height="2.24"/><rect class="cls-1" x="113.13" y="22.43" width="2.21" height="9.89"/><path class="cls-1" d="M132.41,22.26A3.78,3.78,0,0,0,129,24.19V22.43h-2v9.88h2.2V26.46a2.75,2.75,0,0,1,2.61-2.23c1.24,0,1.88.94,1.88,2.55v5.53h2.2V26.4c0-3.27-2.41-4.14-3.49-4.14"/><path class="cls-2" d="M77,3.33a3.81,3.81,0,0,0-3.38,1.93V3.5h-2v9.89h2.2V7.53A2.73,2.73,0,0,1,76.4,5.31c1.24,0,1.88.94,1.88,2.55v5.53h2.2V7.47c0-3.26-2.41-4.14-3.49-4.14"/><path class="cls-2" d="M97.48,6.51a4.64,4.64,0,0,0-1-1.6A5,5,0,0,0,94.89,3.8a5.07,5.07,0,0,0-2.09-.42,5.34,5.34,0,0,0-2.12.41,4.85,4.85,0,0,0-1.61,1.12,4.93,4.93,0,0,0-1,1.64,5.43,5.43,0,0,0,0,3.94,4.93,4.93,0,0,0,2.65,2.73,5.31,5.31,0,0,0,2.1.4,5.73,5.73,0,0,0,2.85-.7,4.26,4.26,0,0,0,1.75-1.83l0-.08-2-.58,0,.05A1.76,1.76,0,0,1,95,11a2.59,2.59,0,0,1-.59.44,3.12,3.12,0,0,1-.74.27,3,3,0,0,1-2.76-.63,3.12,3.12,0,0,1-.64-.84,2.84,2.84,0,0,1-.29-1h7.8V9.19c0-.09,0-.2,0-.33s0-.28,0-.43a5.67,5.67,0,0,0-.34-1.92M95.61,7.68H90a3.23,3.23,0,0,1,.28-1,2.83,2.83,0,0,1,.61-.83,2.72,2.72,0,0,1,.88-.53,3.09,3.09,0,0,1,2.16,0,2.71,2.71,0,0,1,1.72,2.35"/><path class="cls-1" d="M126,25.39a4.76,4.76,0,0,0-1-1.61,5,5,0,0,0-1.63-1.11,5.2,5.2,0,0,0-2.09-.41,5.33,5.33,0,0,0-2.11.41,4.87,4.87,0,0,0-1.62,1.11,5.27,5.27,0,0,0-1,1.64,5.48,5.48,0,0,0-.37,2,5.34,5.34,0,0,0,.37,2,5.22,5.22,0,0,0,1,1.63,5,5,0,0,0,1.62,1.1,5.27,5.27,0,0,0,2.09.41,5.71,5.71,0,0,0,2.85-.71A4.29,4.29,0,0,0,125.89,30l0-.08-2-.58,0,.06a1.58,1.58,0,0,1-.4.53,2.58,2.58,0,0,1-.6.44,3.25,3.25,0,0,1-.74.28,3.18,3.18,0,0,1-1.86-.1,2.8,2.8,0,0,1-.89-.54,2.75,2.75,0,0,1-.64-.83,2.65,2.65,0,0,1-.3-1h7.81v-.07a2.48,2.48,0,0,0,0-.33c0-.13,0-.28,0-.43a5.38,5.38,0,0,0-.34-1.91m-1.87,1.17h-5.64a2.91,2.91,0,0,1,.28-1,2.45,2.45,0,0,1,.61-.83,2.77,2.77,0,0,1,.87-.54,3.15,3.15,0,0,1,2.16,0,2.71,2.71,0,0,1,1.72,2.36"/><path class="cls-1" d="M156.1,25.39a4.78,4.78,0,0,0-1-1.61,5,5,0,0,0-1.63-1.11,5.18,5.18,0,0,0-2.08-.41,5.34,5.34,0,0,0-2.12.41,4.87,4.87,0,0,0-1.62,1.11,5.27,5.27,0,0,0-1,1.64,5.48,5.48,0,0,0-.36,2,5.33,5.33,0,0,0,.36,2,5.22,5.22,0,0,0,1,1.63,5,5,0,0,0,1.62,1.1,5.28,5.28,0,0,0,2.1.41,5.67,5.67,0,0,0,2.84-.71A4.18,4.18,0,0,0,156,30l0-.08-2-.58,0,.06a1.76,1.76,0,0,1-.41.53,2.38,2.38,0,0,1-.6.44,3.25,3.25,0,0,1-.74.28,3.14,3.14,0,0,1-1.85-.1,2.82,2.82,0,0,1-1.54-1.37,2.84,2.84,0,0,1-.29-1h7.8v-.07q0-.14,0-.33a3,3,0,0,0,0-.43,5.6,5.6,0,0,0-.33-1.91m-1.87,1.17h-5.65a3.15,3.15,0,0,1,.28-1,2.59,2.59,0,0,1,.61-.83,2.89,2.89,0,0,1,.87-.54,3.17,3.17,0,0,1,2.17,0,2.73,2.73,0,0,1,1.72,2.36"/><path class="cls-2" d="M106.51,3.5V5.11a4,4,0,0,0-1.34-1.27,4.21,4.21,0,0,0-2.1-.51,4.27,4.27,0,0,0-1.87.41,4.46,4.46,0,0,0-1.44,1.1,5,5,0,0,0-1,1.62,5.7,5.7,0,0,0-.34,2,5.52,5.52,0,0,0,.33,1.91,5.09,5.09,0,0,0,.93,1.6,4.21,4.21,0,0,0,1.43,1.11,4.13,4.13,0,0,0,1.83.41,5.14,5.14,0,0,0,2.08-.46,3.41,3.41,0,0,0,1.4-1.22v1.39c0,1.84-1.36,2.71-3.25,2.71a4.59,4.59,0,0,1-3.32-1.41L98.68,16a6.43,6.43,0,0,0,4.54,1.89,7.2,7.2,0,0,0,2.1-.3,4.61,4.61,0,0,0,1.69-.88,4.56,4.56,0,0,0,1.53-3.83V3.5Zm-.42,6.2a2.74,2.74,0,0,1-5.21,0,2.9,2.9,0,0,1-.22-1.19,3.83,3.83,0,0,1,.19-1.21,4,4,0,0,1,.56-1,2.88,2.88,0,0,1,.88-.75,2.58,2.58,0,0,1,1.19-.28,2.62,2.62,0,0,1,1.2.28,2.85,2.85,0,0,1,.87.75,3.48,3.48,0,0,1,.56,1,3.84,3.84,0,0,1,.2,1.21,3.07,3.07,0,0,1-.22,1.19"/><path class="cls-1" d="M87.8,30.41c-.45,0-.56-.31-.56-.72V19.19H85v4.75a4.11,4.11,0,0,0-1.27-1.05,4.38,4.38,0,0,0-2.11-.49,3.88,3.88,0,0,0-1.78.4,4.25,4.25,0,0,0-1.4,1.09,5,5,0,0,0-.93,1.58,5.49,5.49,0,0,0-.33,1.92,5.74,5.74,0,0,0,.35,2,5.27,5.27,0,0,0,1,1.64A4.76,4.76,0,0,0,80,32.15a4.29,4.29,0,0,0,1.86.4,3.88,3.88,0,0,0,3.47-1.85l0,.33a1.51,1.51,0,0,0,.46,1,1.66,1.66,0,0,0,1.06.37,1.5,1.5,0,0,0,1-.19V30.42Zm-8.31-3a3.59,3.59,0,0,1,.22-1.21,3.37,3.37,0,0,1,.6-1,3.07,3.07,0,0,1,.89-.71,2.39,2.39,0,0,1,1.13-.27,2.79,2.79,0,0,1,1,.25,3.32,3.32,0,0,1,.94.68,2.85,2.85,0,0,1,.65,1,4.5,4.5,0,0,1,.24,1.45A3.59,3.59,0,0,1,85,28.76a3.43,3.43,0,0,1-.59,1,3,3,0,0,1-.89.73,2.35,2.35,0,0,1-1.12.27,2.79,2.79,0,0,1-1-.25,3.29,3.29,0,0,1-1-.7,3.36,3.36,0,0,1-.65-1,4.45,4.45,0,0,1-.24-1.45"/><path class="cls-2" d="M129.74,11.53a1.66,1.66,0,0,1-1.2-.14.9.9,0,0,1-.29-.7V.6h-2.2V10.78a2.45,2.45,0,0,0,2.49,2.76,4.68,4.68,0,0,0,1.2-.15Z"/><rect class="cls-1" y="23.48" width="6.39" height="8.95"/><path class="cls-1" d="M54.57,23.48a3.9,3.9,0,0,1-1,1.87,3.85,3.85,0,0,1-2.63,1.19h-.18a3.92,3.92,0,0,1-3.81-3.07h-6.4a9.73,9.73,0,0,0,.23,1.44,10.24,10.24,0,0,0,9.7,8h.29A10.24,10.24,0,0,0,61,23.48Z"/><polygon class="cls-1" points="7.93 32.43 14.46 32.43 18.32 23.48 11.77 23.48 7.93 32.43"/><polygon class="cls-1" points="38.25 23.48 31.8 23.48 35.54 32.43 42.08 32.43 38.25 23.48"/><path class="cls-1" d="M102.1,27.07a3.07,3.07,0,0,0-.88-1,5.33,5.33,0,0,0-1.35-.69,16,16,0,0,0-1.78-.51l-1.41-.36a5.12,5.12,0,0,1-1-.38,1.75,1.75,0,0,1-.57-.49,1.29,1.29,0,0,1-.18-.71,1.32,1.32,0,0,1,.59-1.16,3.27,3.27,0,0,1,1.87-.42,6.1,6.1,0,0,1,1.13.11,6.68,6.68,0,0,1,1,.3,6.15,6.15,0,0,1,.81.39,6.8,6.8,0,0,1,.6.43l1-1.8-.06,0a8.45,8.45,0,0,0-2-1,7.25,7.25,0,0,0-2.5-.42,6.77,6.77,0,0,0-1.9.25,4.5,4.5,0,0,0-1.53.77,3.56,3.56,0,0,0-1,1.25,3.76,3.76,0,0,0-.38,1.7,3.07,3.07,0,0,0,.26,1.32,2.73,2.73,0,0,0,.73,1,4.22,4.22,0,0,0,1.21.75,15.57,15.57,0,0,0,1.69.53c.55.14,1,.27,1.49.4a6.71,6.71,0,0,1,1.1.42,2.18,2.18,0,0,1,.69.54,1.21,1.21,0,0,1,.23.74A1.17,1.17,0,0,1,99.33,30a3.64,3.64,0,0,1-1.83.38,6.15,6.15,0,0,1-1.43-.16,8.76,8.76,0,0,1-1.28-.38,7.1,7.1,0,0,1-1-.49c-.24-.15-.56-.38-.76-.53l-1,1.87,0,0A8.65,8.65,0,0,0,94.6,32a10,10,0,0,0,2.94.44,8.11,8.11,0,0,0,1.89-.21,4.66,4.66,0,0,0,1.54-.66A3.22,3.22,0,0,0,102,30.4a3.69,3.69,0,0,0,.38-1.71A3.78,3.78,0,0,0,102.1,27.07Z"/><path class="cls-2" d="M5.12.39H1.26A1.26,1.26,0,0,0,0,1.65V23.48H6.39V1.65A1.26,1.26,0,0,0,5.12.39Z"/><path class="cls-2" d="M58.75,16.27a10.23,10.23,0,0,0-5.59-3.56s-3-.66-3.63-.85a2.82,2.82,0,1,1,3.53-3.28,1.34,1.34,0,0,0,1.56,1l3.61-.73a1.3,1.3,0,0,0,.84-.56,1.31,1.31,0,0,0,.2-1A9.15,9.15,0,0,0,41.16,9.15,9.06,9.06,0,0,0,47.88,18l3.79.89a3.93,3.93,0,0,1,2.14,1.36,3.86,3.86,0,0,1,.85,2.43,3.79,3.79,0,0,1,0,.58s0,.17,0,.25H61l0-.2c0-.22,0-.43,0-.63A10.24,10.24,0,0,0,58.75,16.27Z"/><path class="cls-2" d="M25.91.42H24.14a3.82,3.82,0,0,0-3.51,2.31L11.77,23.48h6.55L25,8l4.13,9.42H24.84a2.45,2.45,0,0,0-2.52,1.67l-1.85,4.42H38.25L29.41,2.74A3.79,3.79,0,0,0,25.91.42Z"/></g></g></svg>