<svg xmlns="http://www.w3.org/2000/svg" viewBox="0 0 262.18 49.03"><defs><style>.cls-1{fill:#fff;}.cls-2{fill:#ff574a;}</style></defs><title>mobile</title><g id="Capa_2" data-name="Capa 2"><g id="Layer_1" data-name="Layer 1"><path class="cls-1" d="M41.39,16.67V.68h11V4.51H45.78V7.17h5.37v3.55H45.78v6Z"/><path class="cls-1" d="M54.25.23h4.28V12q0,1.35,1.11,1.35A2.45,2.45,0,0,0,60.81,13l.53,3.16a7.47,7.47,0,0,1-1.71.55,8.48,8.48,0,0,1-1.82.21A3.68,3.68,0,0,1,55.17,16a3.38,3.38,0,0,1-.92-2.54Z"/><path class="cls-1" d="M62.9,3.84V.23h4.28V3.84Zm0,12.83V4.83h4.28V16.67Z"/><path class="cls-1" d="M74.17,14.92v6.55H69.9V4.83h3.71V6.61a4.28,4.28,0,0,1,3.83-2,5,5,0,0,1,3.92,1.74,6.27,6.27,0,0,1,1.56,4.36,6.76,6.76,0,0,1-1.44,4.43,4.45,4.45,0,0,1-3.61,1.77,4.69,4.69,0,0,1-2.24-.51A3.51,3.51,0,0,1,74.17,14.92Zm4.38-4.24a2.49,2.49,0,0,0-.65-1.79,2.21,2.21,0,0,0-1.69-.68,2.45,2.45,0,0,0-2,1.22v2a3.2,3.2,0,0,0,.93,1.31,2,2,0,0,0,1.28.52,1.92,1.92,0,0,0,1.55-.77A2.85,2.85,0,0,0,78.55,10.68Z"/><path class="cls-1" d="M90,17.87a5.09,5.09,0,0,0,1.76.38c.92,0,1.42-.53,1.51-1.58L88.93,4.83h4.39l2.25,7.46L97.4,4.83h4l-4,13.26a5.35,5.35,0,0,1-5.21,3.85A5.73,5.73,0,0,1,90,21.51Z"/><path class="cls-1" d="M102.1,10.75a6.57,6.57,0,0,1,.42-2.35,6.2,6.2,0,0,1,1.23-1.95,5.44,5.44,0,0,1,2-1.35,8.06,8.06,0,0,1,5.59,0,5.48,5.48,0,0,1,2.05,1.35,6.35,6.35,0,0,1,1.22,2,6.58,6.58,0,0,1,.43,2.35A6.29,6.29,0,0,1,113.43,15a5.48,5.48,0,0,1-2.05,1.35,7.91,7.91,0,0,1-5.59,0,5.44,5.44,0,0,1-2-1.35,6.36,6.36,0,0,1-1.23-2A6.5,6.5,0,0,1,102.1,10.75Zm5,1.85a1.9,1.9,0,0,0,1.52.7,1.86,1.86,0,0,0,1.5-.7,2.77,2.77,0,0,0,.59-1.85,2.78,2.78,0,0,0-.59-1.86,2,2,0,0,0-3,0,2.78,2.78,0,0,0-.59,1.86A2.77,2.77,0,0,0,107.07,12.6Z"/><path class="cls-1" d="M117,12.62V4.83h4.28v6.82a1.93,1.93,0,0,0,.35,1.21,1.16,1.16,0,0,0,1,.44,2.45,2.45,0,0,0,2-1.22V4.83h4.28V12a1.46,1.46,0,0,0,.17.84.86.86,0,0,0,.64.28v3.6a9.37,9.37,0,0,1-1.8.23c-1.46,0-2.3-.55-2.52-1.64l-.09-.43a5.4,5.4,0,0,1-4.62,2.07A3.39,3.39,0,0,1,118,15.79,4.67,4.67,0,0,1,117,12.62Z"/><path class="cls-1" d="M140.1,8.48c-1.9,0-3.16.39-3.76,1.17v7h-4.28V4.83H136V7.08a5.15,5.15,0,0,1,1.57-1.83,3.46,3.46,0,0,1,2-.65,3.15,3.15,0,0,1,.54,0Z"/><path class="cls-1" d="M151.44,14.92v6.55h-4.28V4.83h3.72V6.61a4.27,4.27,0,0,1,3.82-2,5,5,0,0,1,3.92,1.74,6.27,6.27,0,0,1,1.56,4.36,6.81,6.81,0,0,1-1.43,4.43,4.48,4.48,0,0,1-3.62,1.77,4.69,4.69,0,0,1-2.24-.51A3.43,3.43,0,0,1,151.44,14.92Zm4.37-4.24a2.49,2.49,0,0,0-.64-1.79,2.23,2.23,0,0,0-1.7-.68,2.42,2.42,0,0,0-2,1.22v2a3.09,3.09,0,0,0,.92,1.31,2,2,0,0,0,1.29.52,1.91,1.91,0,0,0,1.54-.77A2.8,2.8,0,0,0,155.81,10.68Z"/><path class="cls-1" d="M174.22,16.67h-4.28V10a1.8,1.8,0,0,0-.38-1.25,1.26,1.26,0,0,0-1-.42,1.91,1.91,0,0,0-1.08.48,2.86,2.86,0,0,0-.91,1.21v6.64h-4.28V.23h4.28V6.58a4.18,4.18,0,0,1,1.65-1.47,5,5,0,0,1,2.28-.51,4.41,4.41,0,0,1,1.66.28,3,3,0,0,1,1.09.71,3.34,3.34,0,0,1,.62,1,5.15,5.15,0,0,1,.29,1.12,9.77,9.77,0,0,1,.06,1.13Z"/><path class="cls-1" d="M176.19,10.75a6.37,6.37,0,0,1,.43-2.35,6,6,0,0,1,1.22-1.95,5.52,5.52,0,0,1,2-1.35,8.06,8.06,0,0,1,5.59,0,5.48,5.48,0,0,1,2.05,1.35,6.17,6.17,0,0,1,1.22,2,6.58,6.58,0,0,1,.43,2.35,6.51,6.51,0,0,1-.43,2.33,6.33,6.33,0,0,1-1.22,2,5.48,5.48,0,0,1-2.05,1.35,7.91,7.91,0,0,1-5.59,0,5.52,5.52,0,0,1-2-1.35,6.15,6.15,0,0,1-1.22-2A6.3,6.3,0,0,1,176.19,10.75Zm5,1.85a2,2,0,0,0,3,0,2.82,2.82,0,0,0,.58-1.85,2.83,2.83,0,0,0-.58-1.86,2,2,0,0,0-3,0,2.78,2.78,0,0,0-.58,1.86A2.72,2.72,0,0,0,181.17,12.6Z"/><path class="cls-1" d="M203.15,16.67h-4.28V10a1.83,1.83,0,0,0-.37-1.25,1.2,1.2,0,0,0-.94-.42,1.89,1.89,0,0,0-1.16.48,2.82,2.82,0,0,0-.89,1.21v6.64h-4.28V4.83h3.86V6.58a4,4,0,0,1,1.77-1.48,6.71,6.71,0,0,1,2.68-.5,4.18,4.18,0,0,1,1.38.2,2.48,2.48,0,0,1,1,.55,3.79,3.79,0,0,1,.64.77,3.44,3.44,0,0,1,.39.94,7.88,7.88,0,0,1,.17.94,8.26,8.26,0,0,1,0,.88Z"/><path class="cls-1" d="M211.61,16.9a7.88,7.88,0,0,1-2.27-.32,6.29,6.29,0,0,1-1.82-.88,5.82,5.82,0,0,1-1.31-1.31,5.37,5.37,0,0,1-.82-1.64,6.25,6.25,0,0,1-.27-1.84,7,7,0,0,1,.42-2.43,6.32,6.32,0,0,1,1.23-2,5.7,5.7,0,0,1,2-1.38,7.49,7.49,0,0,1,2.79-.5,7.3,7.3,0,0,1,2.79.5,5.48,5.48,0,0,1,2,1.35,6.17,6.17,0,0,1,1.22,2,6.37,6.37,0,0,1,.43,2.35,7.34,7.34,0,0,1-.12,1.31h-8.31a1.77,1.77,0,0,0,.66,1.33,2.28,2.28,0,0,0,1.41.45,2.76,2.76,0,0,0,1.33-.33,1.64,1.64,0,0,0,.82-.87l3.62,1A5.63,5.63,0,0,1,215.22,16,7.25,7.25,0,0,1,211.61,16.9Zm-2-7.41h3.92a2.09,2.09,0,0,0-.62-1.35,2,2,0,0,0-2.68,0A2.09,2.09,0,0,0,209.58,9.49Z"/><path class="cls-1" d="M226.51,16.67V9.43h-1.46V6.2h1.46V4.92a5.17,5.17,0,0,1,1.19-3.57A4,4,0,0,1,230.85,0a9.53,9.53,0,0,1,3.29.68l-.71,3.25a4.72,4.72,0,0,0-1.61-.32c-.69,0-1,.38-1,1.15V6.2h2.59V9.43h-2.59v7.24Z"/><path class="cls-1" d="M234.64,10.75a6.37,6.37,0,0,1,.43-2.35,6,6,0,0,1,1.22-1.95,5.52,5.52,0,0,1,2-1.35,8.06,8.06,0,0,1,5.59,0A5.48,5.48,0,0,1,246,6.45a6.17,6.17,0,0,1,1.22,2,6.58,6.58,0,0,1,.43,2.35,6.51,6.51,0,0,1-.43,2.33A6.33,6.33,0,0,1,246,15a5.48,5.48,0,0,1-2.05,1.35,7.91,7.91,0,0,1-5.59,0,5.52,5.52,0,0,1-2-1.35,6.15,6.15,0,0,1-1.22-2A6.3,6.3,0,0,1,234.64,10.75Zm5,1.85a1.86,1.86,0,0,0,1.51.7,1.84,1.84,0,0,0,1.5-.7,2.77,2.77,0,0,0,.59-1.85,2.78,2.78,0,0,0-.59-1.86,1.86,1.86,0,0,0-1.5-.68,1.88,1.88,0,0,0-1.52.68,2.78,2.78,0,0,0-.58,1.86A2.72,2.72,0,0,0,239.62,12.6Z"/><path class="cls-1" d="M257.72,8.48c-1.91,0-3.16.39-3.76,1.17v7h-4.28V4.83h3.92V7.08a5.15,5.15,0,0,1,1.57-1.83,3.51,3.51,0,0,1,2-.65,3.29,3.29,0,0,1,.54,0Z"/><path class="cls-1" d="M35.47,40.65a3.55,3.55,0,0,1,1.43-2.92,5.81,5.81,0,0,1,3.68-1.13,5.48,5.48,0,0,1,2.39.45v-.36a1.55,1.55,0,0,0-.49-1.25,2.45,2.45,0,0,0-1.56-.4,5.18,5.18,0,0,0-1.81.31,9.29,9.29,0,0,0-1.86,1L36,33.66a9.68,9.68,0,0,1,5.33-1.51,6.62,6.62,0,0,1,4.38,1.29,4.64,4.64,0,0,1,1.53,3.76v2.3a1.57,1.57,0,0,0,.17.85.82.82,0,0,0,.64.27v3.61a8.16,8.16,0,0,1-1.8.22c-1.46,0-2.3-.54-2.52-1.64l-.1-.43a4.93,4.93,0,0,1-4,2.07,4.23,4.23,0,0,1-3-1.08A3.52,3.52,0,0,1,35.47,40.65Zm6.94.29a1,1,0,0,0,.56-.83v-.88a4.84,4.84,0,0,0-1.65-.31A2.12,2.12,0,0,0,40,39.3a1.17,1.17,0,0,0-.53,1,1,1,0,0,0,.39.8,1.5,1.5,0,0,0,1,.32A2.69,2.69,0,0,0,42.41,40.94Z"/><path class="cls-1" d="M59.5,42.38v1.85H55.79V27.79h4.27v6.34a3.51,3.51,0,0,1,1.46-1.47,4.69,4.69,0,0,1,2.24-.51,4.53,4.53,0,0,1,3.63,1.76,6.81,6.81,0,0,1,1.44,4.44,6.24,6.24,0,0,1-1.57,4.36,5.05,5.05,0,0,1-3.93,1.74A4,4,0,0,1,59.5,42.38Zm4.94-4a2.8,2.8,0,0,0-.62-1.85,1.91,1.91,0,0,0-1.54-.77,2.08,2.08,0,0,0-1.29.49,3.07,3.07,0,0,0-.93,1.27v2.11a2.42,2.42,0,0,0,2,1.22,2.19,2.19,0,0,0,1.69-.68A2.45,2.45,0,0,0,64.44,38.38Z"/><path class="cls-1" d="M76.76,44.45a7.88,7.88,0,0,1-2.27-.32,6,6,0,0,1-1.81-.87A6.07,6.07,0,0,1,71.36,42a5.61,5.61,0,0,1-.82-1.64,6.25,6.25,0,0,1-.27-1.84A6.9,6.9,0,0,1,70.7,36a5.91,5.91,0,0,1,1.22-2A5.66,5.66,0,0,1,74,32.66a7.28,7.28,0,0,1,2.78-.51,7.59,7.59,0,0,1,2.8.5,5.57,5.57,0,0,1,2,1.36,6,6,0,0,1,1.22,2,6.28,6.28,0,0,1,.43,2.34,7.26,7.26,0,0,1-.12,1.31h-8.3A1.71,1.71,0,0,0,75.49,41a2.24,2.24,0,0,0,1.41.44,2.79,2.79,0,0,0,1.33-.33,1.62,1.62,0,0,0,.81-.87l3.62,1.05a5.7,5.7,0,0,1-2.28,2.34A7.19,7.19,0,0,1,76.76,44.45Zm-2-7.4h3.93A2.14,2.14,0,0,0,78,35.7a1.84,1.84,0,0,0-1.33-.5,1.88,1.88,0,0,0-1.34.5A2.09,2.09,0,0,0,74.73,37.05Z"/><path class="cls-1" d="M93.39,43.58a10,10,0,0,1-3.94.9,4.91,4.91,0,0,1-1.38-.18A3.41,3.41,0,0,1,87,43.72a2.47,2.47,0,0,1-.78-1.07A4.22,4.22,0,0,1,85.88,41V35.61H84.42V32.39h1.46V28.67h4.28v3.72h2.32v3.22H90.16v3.91c0,.71.31,1.06.93,1.06a4.27,4.27,0,0,0,1.53-.39Z"/><path class="cls-1" d="M103.39,43.58a10,10,0,0,1-3.94.9,4.91,4.91,0,0,1-1.38-.18A3.41,3.41,0,0,1,97,43.72a2.47,2.47,0,0,1-.78-1.07A4.23,4.23,0,0,1,95.89,41V35.61H94.42V32.39h1.47V28.67h4.27v3.72h2.32v3.22h-2.32v3.91c0,.71.31,1.06.93,1.06a4.27,4.27,0,0,0,1.53-.39Z"/><path class="cls-1" d="M110.87,44.45a7.83,7.83,0,0,1-2.27-.32,6,6,0,0,1-1.82-.87A5.82,5.82,0,0,1,105.47,42a5.37,5.37,0,0,1-.82-1.64,6.25,6.25,0,0,1-.27-1.84A6.89,6.89,0,0,1,104.8,36,5.78,5.78,0,0,1,106,34a5.61,5.61,0,0,1,2-1.38,7.3,7.3,0,0,1,2.79-.51,7.53,7.53,0,0,1,2.79.5,5.62,5.62,0,0,1,2,1.36,6.17,6.17,0,0,1,1.22,2,6.48,6.48,0,0,1,.43,2.34,7.26,7.26,0,0,1-.12,1.31h-8.31a1.78,1.78,0,0,0,.66,1.34,2.28,2.28,0,0,0,1.41.44,2.76,2.76,0,0,0,1.33-.33,1.68,1.68,0,0,0,.82-.87l3.61,1.05a5.58,5.58,0,0,1-2.28,2.34A7.15,7.15,0,0,1,110.87,44.45Zm-2-7.4h3.93a2.14,2.14,0,0,0-.62-1.35,2,2,0,0,0-2.68,0A2.14,2.14,0,0,0,108.83,37.05Z"/><path class="cls-1" d="M127.35,36c-1.91,0-3.16.39-3.76,1.16v7h-4.28V32.39h3.92v2.25a5.15,5.15,0,0,1,1.57-1.83,3.45,3.45,0,0,1,2-.66,2.91,2.91,0,0,1,.54,0Z"/><path class="cls-1" d="M140.24,44.45a7.88,7.88,0,0,1-2.27-.32,6,6,0,0,1-1.81-.87A6.07,6.07,0,0,1,134.84,42a5.61,5.61,0,0,1-.82-1.64,6.25,6.25,0,0,1-.27-1.84,6.68,6.68,0,0,1,.43-2.43,5.91,5.91,0,0,1,1.22-2,5.7,5.7,0,0,1,2-1.38,7.37,7.37,0,0,1,2.79-.51,7.59,7.59,0,0,1,2.8.5,5.66,5.66,0,0,1,2,1.36,6,6,0,0,1,1.22,2,6.28,6.28,0,0,1,.43,2.34,7.26,7.26,0,0,1-.12,1.31h-8.3A1.71,1.71,0,0,0,139,41a2.23,2.23,0,0,0,1.4.44,2.83,2.83,0,0,0,1.34-.33,1.62,1.62,0,0,0,.81-.87l3.62,1.05a5.7,5.7,0,0,1-2.28,2.34A7.19,7.19,0,0,1,140.24,44.45Zm-2-7.4h3.92a2.09,2.09,0,0,0-.62-1.35,1.86,1.86,0,0,0-1.33-.5,1.91,1.91,0,0,0-1.35.5A2.09,2.09,0,0,0,138.21,37.05Z"/><path class="cls-1" d="M151.45,32.39l1.7,2.9.22.47.23-.47,1.68-2.9h4.36l-3.81,5.85,3.92,6H155.4l-1.82-2.9-.21-.45-.2.45-1.83,2.9H147l3.91-5.88-3.8-6Z"/><path class="cls-1" d="M165.52,42.47V49h-4.28V32.39H165v1.78a4.29,4.29,0,0,1,3.83-2,5,5,0,0,1,3.92,1.74,6.31,6.31,0,0,1,1.56,4.37,6.76,6.76,0,0,1-1.44,4.43,4.44,4.44,0,0,1-3.61,1.76A4.78,4.78,0,0,1,167,44,3.48,3.48,0,0,1,165.52,42.47Zm4.38-4.23a2.53,2.53,0,0,0-.65-1.8,2.24,2.24,0,0,0-1.69-.68,2.47,2.47,0,0,0-2,1.22V39a3.27,3.27,0,0,0,.93,1.31,2,2,0,0,0,1.28.51,1.92,1.92,0,0,0,1.55-.76A2.87,2.87,0,0,0,169.9,38.24Z"/><path class="cls-1" d="M182.22,44.45a7.88,7.88,0,0,1-2.27-.32,6,6,0,0,1-1.81-.87A6.07,6.07,0,0,1,176.82,42a5.61,5.61,0,0,1-.82-1.64,6.25,6.25,0,0,1-.27-1.84,6.68,6.68,0,0,1,.43-2.43,5.91,5.91,0,0,1,1.22-2,5.7,5.7,0,0,1,2.05-1.38,7.37,7.37,0,0,1,2.79-.51,7.59,7.59,0,0,1,2.8.5,5.66,5.66,0,0,1,2,1.36,6,6,0,0,1,1.22,2,6.28,6.28,0,0,1,.43,2.34,7.26,7.26,0,0,1-.12,1.31h-8.3A1.71,1.71,0,0,0,181,41a2.23,2.23,0,0,0,1.4.44,2.83,2.83,0,0,0,1.34-.33,1.62,1.62,0,0,0,.81-.87l3.62,1.05a5.7,5.7,0,0,1-2.28,2.34A7.19,7.19,0,0,1,182.22,44.45Zm-2-7.4h3.92a2.09,2.09,0,0,0-.62-1.35,1.86,1.86,0,0,0-1.33-.5,1.91,1.91,0,0,0-1.35.5A2.09,2.09,0,0,0,180.19,37.05Z"/><path class="cls-1" d="M198.7,36c-1.91,0-3.16.39-3.76,1.16v7h-4.28V32.39h3.93v2.25a5.13,5.13,0,0,1,1.56-1.83,3.45,3.45,0,0,1,2-.66,2.76,2.76,0,0,1,.54,0Z"/><path class="cls-1" d="M200.58,31.4V27.79h4.28V31.4Zm0,12.83V32.39h4.28V44.23Z"/><path class="cls-1" d="M213.42,44.45a7.88,7.88,0,0,1-2.27-.32,6,6,0,0,1-1.81-.87A6.07,6.07,0,0,1,208,42a5.61,5.61,0,0,1-.82-1.64,6.25,6.25,0,0,1-.27-1.84,6.68,6.68,0,0,1,.43-2.43,5.91,5.91,0,0,1,1.22-2,5.7,5.7,0,0,1,2-1.38,7.37,7.37,0,0,1,2.79-.51,7.59,7.59,0,0,1,2.8.5,5.66,5.66,0,0,1,2,1.36,6,6,0,0,1,1.22,2,6.28,6.28,0,0,1,.43,2.34,7.26,7.26,0,0,1-.12,1.31h-8.3a1.71,1.71,0,0,0,.66,1.34,2.23,2.23,0,0,0,1.4.44,2.83,2.83,0,0,0,1.34-.33,1.62,1.62,0,0,0,.81-.87l3.62,1.05A5.7,5.7,0,0,1,217,43.58,7.19,7.19,0,0,1,213.42,44.45Zm-2-7.4h3.92a2.09,2.09,0,0,0-.62-1.35,1.86,1.86,0,0,0-1.33-.5,1.91,1.91,0,0,0-1.35.5A2.09,2.09,0,0,0,211.39,37.05Z"/><path class="cls-1" d="M233.78,44.23H229.5V37.57a1.83,1.83,0,0,0-.37-1.25,1.21,1.21,0,0,0-.93-.43,1.91,1.91,0,0,0-1.17.49,2.84,2.84,0,0,0-.89,1.21v6.64h-4.28V32.39h3.86v1.74a4,4,0,0,1,1.77-1.47,6.55,6.55,0,0,1,2.69-.51,4.55,4.55,0,0,1,1.38.2,2.64,2.64,0,0,1,1,.56,3.8,3.8,0,0,1,.63.77,3,3,0,0,1,.39.93,6.88,6.88,0,0,1,.21,1.82Z"/><path class="cls-1" d="M242.27,44.45a7.48,7.48,0,0,1-2.78-.5,5.7,5.7,0,0,1-2.06-1.36,6,6,0,0,1-1.24-2,6.53,6.53,0,0,1,0-4.66,6.1,6.1,0,0,1,1.24-2,5.83,5.83,0,0,1,2.06-1.36,7.48,7.48,0,0,1,2.78-.5,6.83,6.83,0,0,1,3.54.87,5.65,5.65,0,0,1,2.24,2.36l-4.17,1.26a2,2,0,0,0-3.14-.19,3.17,3.17,0,0,0,0,3.71,1.91,1.91,0,0,0,1.5.69,1.88,1.88,0,0,0,1.64-.88l4.17,1.27a5.63,5.63,0,0,1-2.24,2.35A6.93,6.93,0,0,1,242.27,44.45Z"/><path class="cls-1" d="M255.69,44.45a7.83,7.83,0,0,1-2.27-.32,6,6,0,0,1-1.82-.87A5.82,5.82,0,0,1,250.29,42a5.37,5.37,0,0,1-.82-1.64,6.25,6.25,0,0,1-.27-1.84,6.89,6.89,0,0,1,.42-2.43,5.78,5.78,0,0,1,1.23-2,5.61,5.61,0,0,1,2.05-1.38,7.3,7.3,0,0,1,2.79-.51,7.53,7.53,0,0,1,2.79.5,5.62,5.62,0,0,1,2,1.36,6.17,6.17,0,0,1,1.22,2,6.48,6.48,0,0,1,.43,2.34,7.26,7.26,0,0,1-.12,1.31h-8.31a1.78,1.78,0,0,0,.66,1.34,2.28,2.28,0,0,0,1.41.44,2.76,2.76,0,0,0,1.33-.33,1.62,1.62,0,0,0,.81-.87l3.62,1.05a5.58,5.58,0,0,1-2.28,2.34A7.15,7.15,0,0,1,255.69,44.45Zm-2-7.4h3.93A2.14,2.14,0,0,0,257,35.7a2,2,0,0,0-2.68,0A2.14,2.14,0,0,0,253.65,37.05Z"/><path class="cls-2" d="M18.57,45.87a18.57,18.57,0,0,1,0-37.14,2.6,2.6,0,1,1,0,5.2,13.37,13.37,0,0,0,0,26.74,2.6,2.6,0,0,1,0,5.2Z"/><path class="cls-2" d="M16.36,20.08A2.6,2.6,0,0,1,14.21,16l3.4-5-5-3.4a2.6,2.6,0,1,1,2.93-4.29l7.12,4.86a2.6,2.6,0,0,1,.68,3.62L18.51,19A2.61,2.61,0,0,1,16.36,20.08Z"/></g></g></svg>