<svg xmlns="http://www.w3.org/2000/svg" viewBox="0 0 670.63 671.14"><defs><style>.cls-1,.cls-10,.cls-2,.cls-3,.cls-4,.cls-5,.cls-6,.cls-7,.cls-8{fill:none;stroke-linecap:round;stroke-miterlimit:10;}.cls-1{stroke:#fff;stroke-width:1.12px;}.cls-2{stroke:#8bffcf;}.cls-10,.cls-2,.cls-3,.cls-4,.cls-5,.cls-6,.cls-7,.cls-8{stroke-width:18.99px;}.cls-3{stroke:#3d17ff;}.cls-4{stroke:#ffffc3;}.cls-5{stroke:#00324a;}.cls-6{stroke:#bdd6d8;}.cls-7{stroke:#f7d351;}.cls-8{stroke:#62cec0;}.cls-9{font-size:22.34px;fill:#fff;font-family:Rawline-Black, Rawline Black;letter-spacing:0.02em;}.cls-10{stroke:#5f6ff6;}</style></defs><title>overview-2</title><g id="Capa_2" data-name="Capa 2"><g id="Layer_1" data-name="Layer 1"><path class="cls-1" d="M297.84,340A33.27,33.27,0,1,1,350.65,367"/><path class="cls-1" d="M282.88,398.43a75.74,75.74,0,1,1,96.45,0"/><path class="cls-1" d="M312.78,456.83a118.22,118.22,0,1,1,101.9-33.21"/><path class="cls-1" d="M342.36,500.32q-5.58.39-11.26.39a160.67,160.67,0,1,1,113.61-47.06"/><path class="cls-1" d="M376.69,538a203.81,203.81,0,0,1-45.59,5.14C218.91,543.18,128,452.23,128,340S218.91,136.9,331.1,136.9,534.24,227.85,534.24,340a202.53,202.53,0,0,1-59.75,143.9"/><path class="cls-1" d="M410.78,572.43a245.12,245.12,0,0,1-79.68,13.22c-135.64,0-245.6-110-245.6-245.61s110-245.61,245.6-245.61S576.71,204.39,576.71,340a244.84,244.84,0,0,1-71.94,173.67"/><path class="cls-1" d="M439.42,607.06A287.21,287.21,0,0,1,331.1,628.11C172,628.11,43,499.14,43,340S172,52,331.1,52,619.18,180.94,619.18,340a287.14,287.14,0,0,1-84.38,203.7"/><path class="cls-1" d="M569.71,568.79c-1.69,1.77-3.4,3.51-5.13,5.24"/><path class="cls-1" d="M468.12,640.93a329.31,329.31,0,0,1-137,29.65C148.55,670.58.56,522.59.56,340S148.55,9.49,331.1,9.49,661.65,157.48,661.65,340a329.45,329.45,0,0,1-91.94,228.75"/><path class="cls-1" d="M473.79,638.29q-2.82,1.35-5.67,2.64"/><path class="cls-2" d="M354.84,362.81l-.73.75"/><path class="cls-3" d="M396.46,377.43a75.4,75.4,0,0,1-12.32,16.16"/><path class="cls-4" d="M434.72,396a117.94,117.94,0,0,1-20.55,27.6"/><path class="cls-5" d="M473.78,413a160.54,160.54,0,0,1-29.58,40.65"/><path class="cls-6" d="M513.34,428.86a203,203,0,0,1-39.11,54.82"/><path class="cls-7" d="M560.67,426.15a244.74,244.74,0,0,1-56.41,87.56"/><path class="cls-8" d="M129.62,77.56c129.6-99.5,316-89.91,434.7,28.75,129.08,129.08,129.08,338.37,0,467.46"/><text class="cls-9" transform="translate(291.36 382.64)">0.5%</text><text class="cls-9" transform="translate(316.46 420.69)">4.7%</text><text class="cls-9" transform="translate(342.18 459.14)">5.0%</text><text class="cls-9" transform="translate(372.39 491.8)">5.3%</text><text class="cls-9" transform="translate(401.27 525.01)">6.7%</text><text class="cls-9" transform="translate(435.98 556.93)">8.2%</text><text class="cls-9" transform="translate(459.62 591.99)">21.8%</text><text class="cls-9" transform="translate(495.96 628.27)">47.8%</text><path class="cls-10" d="M571.22,181.05c74.32,111.56,62.58,263.65-35.55,362.47"/></g></g></svg>