<svg xmlns="http://www.w3.org/2000/svg" viewBox="0 0 635.93 516.29"><defs><style>.cls-1,.cls-2,.cls-3{fill:none;stroke-miterlimit:10;}.cls-1,.cls-2{stroke:#fff;stroke-width:21.19px;}.cls-1{stroke-linecap:round;}.cls-3{stroke:#c3dcde;stroke-width:12.56px;}.cls-4{fill:#00d1c0;}.cls-5{fill:#fff;}</style></defs><title>overview-1</title><g id="Capa_2" data-name="Capa 2"><g id="Layer_1" data-name="Layer 1"><path class="cls-1" d="M409.68,158.48a122,122,0,0,1,7.61,16.38"/><path class="cls-1" d="M301,95.45A122.43,122.43,0,0,1,381.09,124"/><circle class="cls-2" cx="307.88" cy="218" r="170.69"/><path class="cls-1" d="M408.32,437.54c.17,15.19-43.55,28-97.65,28.6"/><path class="cls-1" d="M423.42,472.78c.2,17.46-50.08,32.19-112.3,32.89s-112.82-12.89-113-30.35"/><path class="cls-1" d="M355.92,381.83c22.39,3.94,37.18,10.92,37.27,19,.15,12.9-37,23.78-83,24.3s-83.36-9.52-83.5-22.43c-.09-8.11,14.54-15.41,36.83-19.86"/><line class="cls-1" x1="393.19" y1="400.86" x2="423.42" y2="472.78"/><line class="cls-1" x1="226.71" y1="402.73" x2="198.11" y2="475.32"/><circle class="cls-3" cx="569.59" cy="66.34" r="60.06"/><circle class="cls-4" cx="68.5" cy="368.57" r="44.54"/><circle class="cls-5" cx="23.41" cy="261.98" r="23.41"/></g></g></svg>