<?xml version="1.0" encoding="UTF-8"?>
<svg width="48px" height="49px" viewBox="0 0 48 49" version="1.1" xmlns="http://www.w3.org/2000/svg" xmlns:xlink="http://www.w3.org/1999/xlink">
    <!-- Generator: Sketch 48.2 (47327) - http://www.bohemiancoding.com/sketch -->
    <title>question-red</title>
    <desc>Created with Sketch.</desc>
    <defs></defs>
    <g id="Page-1" stroke="none" stroke-width="1" fill="none" fill-rule="evenodd">
        <g id="question-red" fill="#FFFFFF" fill-rule="nonzero">
            <path d="M36.88,36 L30.51,36 L29.38,34.81 C25.9581087,36.5153939 21.9575098,36.6215397 18.45,35.1 C16.9364573,34.4368793 15.5750564,33.4702846 14.45,32.26 C13.3770254,31.0865679 12.5204525,29.7323023 11.92,28.26 C11.3100011,26.7612585 10.9975254,25.1581219 11,23.54 C11.0133901,21.9122943 11.3534431,20.3038438 12,18.81 C12.6175319,17.3279931 13.5022334,15.9721288 14.61,14.81 C17.007269,12.3675166 20.287634,10.994089 23.71,11 C25.4756582,10.9863548 27.2230084,11.3583493 28.83,12.09 C30.3506042,12.7587673 31.7134643,13.7400266 32.83,14.97 C33.8968204,16.1555221 34.7464693,17.5196994 35.34,19 C35.9342756,20.4821107 36.2430293,22.063201 36.25,23.66 C36.253771,25.1617519 35.9756217,26.6508682 35.43,28.05 C34.8937937,29.4538327 34.1115497,30.7508 33.12,31.88 L36.88,36 Z M23.64,30.12 C24.0964876,30.1340579 24.5530271,30.093775 25,30 L20.88,25.52 L27.24,25.52 L28.58,27 C29.0824662,25.9133723 29.3320544,24.7269735 29.31,23.53 C29.3234935,22.4406441 29.1195123,21.3595434 28.71,20.35 C28.2952625,19.4010018 27.6232629,18.5869815 26.77,18 C25.8463143,17.3385386 24.7360411,16.9882947 23.6,17 C22.7264146,16.984875 21.8620379,17.1803888 21.08,17.57 C20.3691307,17.915645 19.7569174,18.4349944 19.3,19.08 C18.8518883,19.7193348 18.51389,20.4291311 18.3,21.18 C17.8402776,22.7571825 17.8402776,24.4328175 18.3,26.01 C18.5155878,26.7509293 18.8535842,27.4505818 19.3,28.08 C19.7762165,28.7045734 20.3928721,29.2081754 21.1,29.55 C21.8906355,29.9354655 22.7604693,30.1306644 23.64,30.12 Z" id="Shape"></path>
            <path d="M24,48.06 C10.745166,48.06 1.623249e-15,37.314834 0,24.06 C-1.623249e-15,10.805166 10.745166,0.06 24,0.06 C37.254834,0.06 48,10.805166 48,24.06 C47.9670206,37.3011494 37.2411494,48.0270206 24,48.06 Z M24,4.12 C13.004029,4.136581 4.1034725,13.0640139 4.12004518,24.0599849 C4.13661786,35.0559559 13.064044,43.9565191 24.060015,43.9399548 C35.055986,43.9233904 43.956556,34.995971 43.94,24 C43.9124263,13.0085918 34.9914414,4.11445039 24,4.12 Z" id="Shape"></path>
        </g>
    </g>
</svg>